<svg xmlns="http://www.w3.org/2000/svg" viewBox="0 0 2415.727 3000"><path fill="#995534" d="M642.523,679.812s-173.421,135.353-219.948,0c-46.528-135.353-95.875-259.426,70.496-453.996C652.715,39.113,715.839,81.589,803.254,19.552c87.415-62.037,307.364,39.893,332.742,79.371,0,0,203.029-33.838,234.047,183.29,31.018,217.128,169.191,366.58,358.121,346.841,188.93-19.739,352.481-56.397,425.797,186.11,73.316,242.507,31.018,518.852-360.941,535.771-391.959,16.919-1192.796,76.136-1192.796-132.533s42.298-538.591,42.298-538.591Z"/><path fill="#ba5686" d="M840.279,1226.649s-152.639-2.607-282.352,39.691c-129.713,42.298-369.4,286.215-470.915,559.035-101.515,272.82-114.204,558.33-38.068,755.015s373.63,208.669,638.696,194.57c265.066-14.099,372.22-59.217,372.22-59.217,0,0,346.841,302.429,790.968,283.395s571.019-348.956,564.675-469.505c-6.345-120.549,31.723-964.388-317.233-1237.209-348.956-272.82-586.273-201.458-586.273-201.458l-671.717,135.683Z"/><path fill="#ecb589" d="M857.606,997.832s58.079,147.601,50.059,199.302c0,0-54.182,11.32-67.386,29.516-13.204,18.196,90.278,221.113,203.077,270.273,112.798,49.16,345.981-25.231,456.016-169.074,110.036-143.843,42.39-239.602,12.625-236.883-29.766,2.719-96.969,10.981-103.105-9.696-6.136-20.676-73.094-335.238-73.094-335.238l-478.192,251.799Z"/><path fill="#ecb589" d="M585.185,527.579s7.285,244.583,102.455,422.233c95.17,177.65,375.04,246.032,563.97,99.4,0,0,98.695-93.055,93.055-253.786,0,0,109.974,19.739,126.893-126.893,16.919-146.632-39.478-174.831-70.496-169.191-31.018,5.64-95.875,101.515-95.875,101.515,0,0-76.136-2.82-98.695-93.055-22.559-90.235-50.757-155.092-50.757-155.092,0,0-62.037,109.974-160.731,101.515-98.695-8.46-149.452-8.46-188.93,16.919-39.478,25.379-220.889,56.436-220.889,56.436Z"/><path fill="#fff" d="M1199.181,2285.614s224.44,136.864,469.767,150.963c245.327,14.099,359.531-150.963,359.531-150.963,0,0,114.204-358.724-228.408-606.166-342.612-247.442-869.654-495.808-1191.386-359.531-321.732,136.278-290.116,404.052-230.899,539.405,59.217,135.353,417.009,292.451,417.009,292.451l404.387,133.841Z"/><path fill="#ecb589" d="M1199.181,2285.614l-127.576,221.125s-132.061-6.142-233.41-49.139c-101.349-42.997-233.41-115.937-233.41-143.578s20.73-28.408,20.73-28.408c0,0-89.832-116.705-64.495-153.559,25.337-36.854,52.978-20.73,52.978-20.73,0,0-50.432-58.246-22.234-97.724,25.606-35.849,128.189-5.928,128.189-5.928,0,0-13.986-47.649,63.56-26.5,24.845,6.776,194.419,65.658,194.419,65.658,0,0-50.675-55.281,27.641-46.068,78.315,9.214,225.975,132.061,193.606,284.852Z"/><path fill="#ecb589" d="M885.651,1339.597c-60.087-6.595-104.54-35.409-239.429,33.722-134.89,69.131-227.626,220.882-116.342,357.458,111.284,136.576,408.041,171.984,408.041,171.984,0,0-20.233-114.656,47.211-143.32s131.517-38.781,131.517-38.781c0,0-53.956-126.459-25.292-180.415,28.664-53.956,57.328-59.014,57.328-59.014,0,0-124.773-126.459-263.035-141.634Z"/><path fill="#bc7d51" d="M1315.777,852.481c-5.54,14.175-9.676,28.809-15.686,42.839-6.086,14.207-13.312,27.934-21.398,41.1-17.429,28.378-38.318,53.96-63.371,75.952-25.955,22.784-53.297,44.083-84.047,60.069-30.668,15.943-63.607,27.637-97.418,34.78-41.326,8.731-86.007,13.366-128.058,7.486-4.751-.664-6.237,7.326-1.501,8.339,19.598,4.193,39.542,8.487,59.589,9.553,18.305,.973,36.59,.676,54.848-.963,37.96-3.407,75.437-13.586,110.249-29.027,33.264-14.754,64.305-33.928,91.501-58.137,27.283-24.286,50.305-55.073,69.53-86.009,9.666-15.554,17.996-32.001,25.35-48.764,7.531-17.167,15.456-35.388,18.466-53.983,1.764-10.894-14.455-12.444-18.054-3.235Z"/><path fill="#bc7d51" d="M1428.85,583.185c-4.147-4.602-8.192-9.439-13.949-12.079-9.405-4.312-20.009-4.047-29.541-.653-13.637,4.856-24.263,16.96-30.891,29.468-7.882,14.873-12.242,32.366-15.276,48.822-3.789,20.557-5.312,41.023-7.427,61.769-.772,7.572,11.501,9.583,13.283,2.144,5.726-23.896,10.832-48.856,19.019-72.336l2.36,1.281c.34,.009,.68,.018,1.02,.027,.451,.022,.91-.009,1.363-.002,.907,.014,1.815,.055,2.719,.131,2.012,.168,4.024,.447,6.004,.847,2.892,.585,5.729,1.441,8.468,2.537,6.973,2.79,13.07,7.738,18.284,13.062,1.715,1.751,3.309,3.556,4.827,5.479,1.662,2.105,2.962,3.799,5.757,4.136,2.43,.293,4.75-.681,6.237-2.628,1.516-1.986,2.15-5.469,.51-7.638,.147-1.556-.269-3.033-1.249-4.431-.514-1.302-1.109-2.567-1.782-3.797-.881-1.791-1.709-3.396-2.811-5.033-2.846-4.233-6.326-8.041-10.201-11.349-3.125-2.668-6.499-5.039-10.069-7.074-5.276-3.005-11.285-5.557-17.185-6.906-1.703-.39-3.451-.668-5.209-.878,3.439-7.086,7.647-14.041,13.733-18.987,3.054-2.482,6.447-4.364,10.149-5.719,6.403-2.343,17.996-5.743,23.871-1.152,5.448,4.259,12.525-4.004,7.987-9.04Z"/><path fill="#fff" d="M1436.354,770.888c.424-7.976-3.006-15.423-7.984-21.433-9.609-11.6-28.302-15.475-41.289-7.454-6.84,4.225-12.622,10.154-15.277,17.925-3.037,8.892-3.162,18.935,1.925,27.175,4.861,7.875,11.635,13.097,20.39,16.04,9.474,3.184,20.032,.935,27.895-4.971,3.533-2.654,6.48-5.986,8.74-9.718,3.412-5.224,5.266-11.284,5.6-17.563Z"/><path fill="#bc7d51" d="M885.643,818.636c-12.92,3.86-34.756,16.761-43.167-1.061-3.197-6.775-1.786-16.478-1.847-23.991-.079-9.692-.119-19.384-.225-29.076-.388-35.44-2.213-70.878-2.484-106.3-.042-5.473-8.188-5.934-8.536-.411-2.989,47.457-8.571,94.752-11.266,142.266-.635,11.206-1.412,22.73,5.297,32.402,5.084,7.33,13.561,12.19,22.206,14.006,16.3,3.422,34.799-2.859,48.202-12.085,8.57-5.9,1.286-18.577-8.181-15.749Z"/><path fill="#bc7d51" d="M1012.123,821.947c-3.979-.121-7.59,2.084-9.683,5.26-.059-.034-.117-.067-.176-.101-12.79,26.197-26.949,51.528-50.468,69.723-9.067,7.015-18.887,12.917-29.364,17.582-8.633,3.843-18.151,7.451-27.666,9.78-5.238,.892-10.513,1.606-15.831,1.973-12.408,.857-9.946,21.235,2.364,19.166,23.949-4.025,46.077-12.969,66.216-25.778,6.397-3.021,12.6-6.45,18.579-10.289,25.008-16.053,51.163-42.314,56.36-72.865,1.193-7.012-2.444-14.212-10.33-14.451Z"/><path fill="#bc7d51" d="M1012.347,916.132c-1.308-2.13-3.86-4.101-6.362-4.551-5.23-.94-10.967,2.069-12.036,7.605-.539,2.793-1.691,5.389-3.303,7.726l-.913,1.152c-.444,.491-.887,.983-1.331,1.474-3.065,2.937-6.855,5.006-11.04,5.801-1.866,.354-4.055,2.162-4.908,3.83-.83,1.624-1.159,3.283-.91,5.098,.512,3.726,3.949,7.365,7.995,7.048,15.864-1.245,29.431-12.484,34.051-27.698,.703-2.314-.014-5.482-1.243-7.485Z"/><ellipse cx="1105.888" cy="685.756" fill="#cd6f5a" opacity=".7" rx="94.52" ry="101.705"/><ellipse cx="761.545" cy="1698.888" fill="#cd6f5a" opacity=".7" rx="77.594" ry="83.492"/><ellipse cx="989.731" cy="1468.906" fill="#cd6f5a" opacity=".7" rx="73.046" ry="68.622"/><ellipse cx="718.832" cy="811.706" fill="#cd6f5a" opacity=".7" rx="66.308" ry="101.705" transform="rotate(-18.025 718.838 811.711)"/><path fill="#7f2b57" d="M1073.89,2501.466c-8.362,16.37-17.125,32.159-23.899,49.322-8.202,20.78-13.79,42.208-17.626,64.184-3.151,18.051-4.786,36.445-4.881,54.764-.043,8.406,.18,16.813,.621,25.208,.415,7.888,.18,16.35,4.417,23.258,5.237,8.539,18.231,7.964,21.591-1.969,2.83-8.366,1.01-17.22,.629-25.911-.34-7.765-.398-15.551-.262-23.322,.335-19.065,1.324-38.188,3.821-57.103,4.612-34.932,10.382-72.142,23.461-104.994,1.81-4.548-5.642-7.804-7.872-3.437Z"/><path fill="#7f2b57" d="M2272.284,2220.333c-17.938-10.011-41.841-11.009-62.006-11.006-21.145,.002-42.448,3.133-62.809,8.801-32.717,9.109-62.314,23.404-90.197,41.285,4.3-9.483,8.713-18.916,13.369-28.235,10.832-21.677,23.467-42.199,35.087-63.421,8.153-14.889-13.62-27.015-22.803-12.947-25.989,39.813-46.705,83.948-64.434,127.985-4.819,11.971,7.108,23.939,18.898,17.128,34.898-20.158,70.418-37.587,109.747-47.21,17.702-4.332,35.727-7.678,53.85-9.648,16.209-1.761,34.785-3.908,51.742-2.244,3.73,.753,7.465,1.428,11.219,1.702,11.778,2.676,18.78-16.362,8.336-22.19Z"/><path fill="#7f2b57" d="M553.687,2141.541c-36.247-1.332-73.772,4.642-109.343,11.129-16.368,2.985-32.671,6.442-48.857,10.375-.013-3.816-.077-7.557,.151-10.935,.52-7.717,1.309-15.415,2.359-23.078,2.147-15.685,5.738-30.93,9.621-46.255,1.622-6.403-.419-13.255-7.098-15.791-5.822-2.211-13.916,.727-15.791,7.098-3.28,9.967-5.908,20.183-8.117,30.483-5.067,21.525-8.458,43.242-8.652,65.738-6.056,1.704-12.109,3.417-18.118,5.271-33.807,10.432-67,22.475-98.876,37.859-16.455,7.941-32.729,16.274-48.718,25.118-15.711,8.69-34.264,17.292-47.611,29.434-6.227,5.665,.11,17.28,8.288,14.631,16.165-5.235,31.459-15.464,46.767-22.85,15.684-7.567,31.604-14.691,47.741-21.239,33.076-13.422,66.397-26.538,100.387-37.482,31.149-10.029,62.611-18.519,94.44-26.093,33.59-7.993,67.825-12.218,101.596-19.148,7.484-1.536,8.395-13.951-.168-14.266Z"/><path fill="#bc7d51" d="M1343.48,1204.534c-6.522-1.98-15.367,.93-17.264,8.267-7.504,29.033-13.359,59.18-6.717,88.99,1.677,7.526,12.159,6.734,13.212-.732,2.004-14.208,3.367-28.562,6.623-42.561,2.947-12.67,7.331-24.748,12.412-36.699,2.774-6.524-1.579-15.233-8.267-17.264Z"/><path fill="#bc7d51" d="M1091.103,1291.412c-3.359-8.99-6.413-18.093-9.932-27.024-.719-2.568-1.431-5.39-2.475-7.719-.735-1.638-1.685-3.335-2.464-4.876-1.382-2.736-5.751-5.225-8.683-5.611-2.914-.384-5.631-.003-8.266,1.327-5.458,2.757-9.347,10.143-6.6,16.187-.102-.225-.109-.24-.16-.352,.163,.358,.4,.882,.48,1.057,.563,1.237,1.135,2.442,1.767,3.647,1.22,2.322,2.846,4.536,4.38,6.743,1.548,2.657,2.991,5.095,4.7,7.714-.55-.845-1.099-1.689-1.648-2.534,3.884,6.676,7.972,13.219,11.948,19.84,2.449,4.077,8.084,5.17,12.128,3.168,4.12-2.039,6.497-7.094,4.825-11.568Z"/><path fill="#bc7d51" d="M1052.524,1263.345c-.147-.324-.166-.366,0,0h0Z"/><path fill="#bc7d51" d="M971.049,2134.58c-44.691-22.088-91.489-39.429-135.607-62.917-18.409-9.8-36.921-19.347-54.937-29.866-10.42-6.083-20.873-12.105-31.283-18.206-11.14-6.528-23.083-14.643-35.479-18.129-7.415-2.086-15.069,9.223-9.355,15.013,18.02,18.263,42.087,31.896,64.444,44.265,20.756,11.484,41.66,22.535,63.174,32.538,43.247,20.109,89.522,39.826,136.497,48.982,7.255,1.414,8.128-8.923,2.546-11.681Z"/><path fill="#bc7d51" d="M838.953,2199.471c-73.057-34.295-146.881-67.115-220.125-101.052-14.842-6.877-25.279,15.972-10.548,23.107,72.801,35.26,148.855,65.399,226.059,89.467,6.652,2.074,11.05-8.5,4.614-11.522Z"/><path fill="#bc7d51" d="M766.466,2325.003c-22.413-9.309-44.3-19.9-66.395-29.946-23.845-10.841-47.936-22.45-72.588-31.324-12.595-4.534-21.14,16.146-8.898,21.82,11.344,5.258,23.724,9.004,35.491,13.195,12.358,4.402,24.709,8.779,37.122,13.023,23.576,8.06,47.396,15.43,70.733,24.15,7.093,2.651,11.603-7.983,4.535-10.919Z"/><path fill="#bc7d51" d="M1047.858,2078.243c-8.76-8.36-18.108-15.754-28.323-22.259-10.29-6.551-21.338-12.499-32.957-16.312-6.279-2.06-13.907,3.269-15.032,9.519-1.269,7.045,2.754,13.076,9.519,15.032,11.112,3.213,21.815,6.393,32.183,11.664,8.344,4.243,16.138,9.222,23.693,14.734,3.595,2.623,8.508,2.832,11.647-.731,3.047-3.457,2.504-8.56-.73-11.648Z"/><path fill="#bc7d51" d="M918.844,1576.416c-3.302-14.189-14.98-23.339-29.474-23.379-19.332-.054-41.903,9.924-56.399,23.453-6.848-1.34-13.668-3.828-20.382-5.303-8.968-1.971-17.903-3.954-26.834-6.082-4.696-1.119-6.047,6.038-2.024,7.869,7.246,3.298,14.324,6.902,21.435,10.474,8.672,4.356,18.699,7.376,26.7,12.82,2.836,1.93,7.363,1.216,10.059-.529,12.823-8.301,25.269-15.983,40.46-19.034,5.961-1.197,13.277-2.642,16.561,3.726,3.816,7.4-.104,17.808-2.988,24.677-4.761,11.342,12.858,19.853,16.931,8.543,4.414-12.258,9.019-24.07,5.956-37.234Z"/><path fill="#bc7d51" d="M968.385,1650.184c-6.911-.949-12.36,3.956-13.715,10.407-2.625,12.507-9.078,23.673-19.175,31.625-21.221,16.712-55.046,12.763-73.496-6.297-3.044-3.144-9.549,.181-6.935,4.452,15.525,25.369,46.521,38.023,75.265,28.921,24.032-7.61,44.739-30.185,48.462-55.395,.961-6.503-3.945-12.827-10.407-13.715Z"/><path fill="#995534" d="M535.215,1507.369c-.749,.968-3.89,5.166,0,0h0Z"/><path fill="#995534" d="M546.457,1470.525c-.851-9.535-4.123-19.234-9.968-26.894-6.423-8.417-14.983-14.457-24.722-18.476-8.987-3.709-20.205-5.715-29.549-2.443-5.605,1.963-10.108,7.985-9.415,14.112,.656,5.801,4.983,11.961,11.217,12.678,6.95,.8,13.175,.393,19.734,3.074,4.769,1.95,9.265,6.019,12.529,10.648,7.637,10.835,6.704,24.116,1.254,35.796-2.043,4.38,1.275,10.02,5.231,11.817,4.64,2.108,9.418,.553,12.447-3.469,2.131-2.756,4.174-5.708,5.741-8.828,1.108-2.207,2.021-4.507,2.79-6.853,2.287-6.977,3.361-13.871,2.711-21.162Z"/><path fill="#995534" d="M584.483,1417.212c-5.152-9.397-12.588-20.673-22.516-25.356-5.074-2.393-11.848-1.961-15.755,2.53-3.629,4.171-5.141,11.011-1.754,15.86,4.198,6.009,10.214,10.171,14.713,15.941,4.997,6.408,8.821,14.041,11.82,21.591,2.726,6.863,4.476,13.996,6.132,21.176,.743,3.223,4.688,5.305,7.765,5.086,3.505-.248,6.086-2.854,6.969-6.131,4.588-17.02,.998-35.428-7.373-50.697Z"/><path fill="#e6e1e3" d="M1836.556,2364.424c-10.941-42.869-21.335-85.753-33.247-128.381-11.698-41.865-24.202-83.51-36.764-125.123-2.014-6.671-4.092-13.324-6.123-19.99-19.269-76.238-40.201-152.049-63.444-227.175-13.746-44.43-28.492-88.512-43.621-132.483,1.422,.234,2.849,.417,4.27,.656,49.36,8.296,97.617,20.882,146.088,33.132,4.963,1.254,10.205-2.461,11.23-7.326,1.292-6.135-2.77-8.807-7.326-11.23-20.714-11.015-45.049-16.842-67.576-22.946-22.126-5.995-44.5-10.936-67.043-15.087-41.996-7.733-84.44-12.776-127.039-15.646-92.678-6.244-185.694-3.504-278.237,3.826-26.729,2.117-53.48,4.402-80.148,7.185-26.003,2.714-52.61,4.975-78.117,10.868-6.049,1.398-5.46,10.53,.863,10.878,47.53,2.61,96.035-4.051,143.505-6.552,46.59-2.455,93.15-4.782,139.812-5.287,75.83-.82,151.672,2.413,226.796,12.599,.01,.028,.008,.058,.018,.086,2.625,7.293,5.123,14.634,7.711,21.942,27.032,80.111,53.031,160.521,77.912,241.276,25.078,86.086,47.556,172.925,67.243,260.326,5.009,22.237,9.442,44.673,15.099,66.755,5.529,21.58,14.127,42.349,30.392,58.074,7.701,7.445,20.38-.056,17.747-10.374Z"/><path fill="#4c4a4b" d="M1551.053,1638.701c-.564-11.156-.176-23.267-4.231-33.88-6.196-16.219-25.101-27.271-41.061-16.715-9.841,6.509-15.353,18.864-19.081,31.191-2.532-7.907-6.047-15.439-11.067-21.878-8.342-10.701-22.781-16.768-35.936-11.62-14.584,5.706-17.953,21.658-19.857,35.442-3.955,28.621-4.06,57.888-.443,86.556,2.355,18.667,6.924,64.684,37.281,53.309,8.075-3.026,13.828-9.822,18.129-17.497-.106,3.002-.251,6.014-.186,8.98,.415,18.877,9.991,38.302,29.711,43.028,14.867,3.562,28.532-4.915,35.051-18.094,7.75-15.668,7.552-35.599,9.412-52.688,2.038-18.721,3.207-37.546,3.233-56.379,.014-9.938-.453-19.834-.954-29.755Zm-84.58,44.998c.19,12.759-1.111,25.226-5.595,37.249-1.925,5.163-4.118,10.425-7.3,14.949-.936,1.33-2.485,3.882-4.244,4.42-.078-.127-.427-.383-.897-1.069-2.782-4.061-3.236-10.717-4.131-15.328-1.203-6.197-2.218-12.429-3.042-18.689-1.712-12.994-2.605-26.071-2.553-39.178,.052-12.906,.967-25.825,2.695-38.615,.945-6.994,1.93-26.316,13.682-19.172,10.631,6.463,15.637,25.153,17.908,35.743,1.903,8.87,2.17,18.458,3.461,27.676-.029,.614-.059,1.227-.076,1.841-5.119-.085-10.012,3.199-9.908,10.173Zm62.573,36.885c-.924,7.691-2.218,15.258-3.844,22.826-1.442,6.71-2.936,20.648-8.434,25.508-4.282,3.785-8.604,2.221-12.39-1.372-8.736-8.291-6.813-22.134-6.259-33.184,1.197-23.85,1.802-47.73,2.62-71.592,.617-3.414,1.298-6.808,2.18-10.141,3.333-12.599,6.191-29.125,13.884-39.851,7.858-10.957,10.864,10.099,12.038,18.689,1.108,8.104,1.82,16.204,2.234,24.369,1.094,21.561,.548,43.307-2.029,64.749Z"/><path fill="#7f2b57" d="M1695.625,1441.766c-.541-15.361-23.682-20.865-27.946-4.494-11.853,45.512-15.379,96.28-4.899,142.29,1.129,4.958,6.114,7.575,10.568,7.375,5.996,11.951,27.735,10.016,27.168-6.127-1.629-46.348-3.26-92.697-4.891-139.045Z"/><path fill="#3e2929" d="M1174.334,224.305c-1.389-13.343-3.5-26.593-5.871-39.792-2.587-14.394-4.508-30.922-11.189-43.994-4.333-8.478-12.525-14.099-22.346-11.532-8.88,2.321-15.92,10.921-14.529,20.523,2.284,15.756,9.661,31.29,13.968,46.702,2.488,8.903,4.828,17.839,6.949,26.837,6.249,26.506,12.432,53.731,16.558,80.626,1.308,8.522,13.427,6.887,14.419-.972,3.324-26.366,4.8-51.88,2.041-78.398Z"/></svg>