<svg xmlns="http://www.w3.org/2000/svg" viewBox="0 0 1105.42 1462.46"><g data-name="Layer 2"><g data-name="Layer 1"><path fill="#ffbc45" d="M308.74,1176.05s-25.91,73.78,6.52,132.2h-6.52s-8.67-2.07-11.84,6.41-13.93,37.18-17.19,50.23-5.87,26.31,3.26,25.55,13.37-21.24,24.46-23.56c5.87-1.66,14,40.09,67.51,72.38s131.94,33.75,159.5-14c5.22-2.28,7.82,4.57,7.82,4.57s35.88,30.66,89.37,26.09,92.86-27.54,100.78-93.61c6.85-57.08-62.5-169.93-62.5-169.93Z"/><path fill="#f4a321" d="M471.81,1292.16s48.28,9.78,65.89,35.87c14.35,34.58,11.74,68.5-3.26,97.2l7.82,4.57s12.62-28,10.44-56.32-9.13-43.49-9.13-43.49,30-14.78,49.58-41.31c-20.44,20.44-52.19,36.09-52.19,36.09S526.17,1297.81,471.81,1292.16Z"/><path fill="#f4a321" d="M552.08,1366.88s16.28,20.08,45.41,38.78c-25.22-10.44-44.79-32.18-44.79-32.18Z"/><path fill="#f4a321" d="M315.26,1308.25s25.22,55.23,63.92,82.19c-28.7-12.61-59.14-54.36-70.44-82.19Z"/><path fill="#aa5943" d="M753.71,1023.36l137,87.16-14.29,31s-78.95,4.57-130.51-13S753.71,1023.36,753.71,1023.36Z"/><path fill="#f4eded" d="M398.43,938.17S325.57,1026.11,294.26,1220c128.73,87.79,343.61,59.36,394.87-2.88-11.91-148.23.31-171.63.31-171.63L737,1001.93s-127.12-85.51-126.62-85.51S398.43,938.17,398.43,938.17Z"/><rect width="187.87" height="200.91" x="580.04" y="989.1" fill="#b8c959" transform="rotate(-2.18 672.55 1087.22)"/><rect width="187.87" height="200.91" x="745.9" y="1247.41" fill="#f44d37"/><rect width="187.87" height="200.91" x="900.35" y="1057.46" fill="#85c4d3" transform="rotate(10.83 994.6 1158.33)"/><path fill="#422019" d="M666.52,344.56S718.27,368,735.66,412.4s-3.48,59.14-23.48,46.53c27.4,65.23,16.5,120.46-7.84,162.65S570.8,315,570.8,315Z"/><path fill="#aa5943" d="M562.5,1088.23s6.65-17.62,13-24.28,16-16.58,20.11-13.34-10.55,17.06-10.55,17.06,17.07-11.61,20-7.14-13.54,14.84-13.54,14.84,17.89-2.9,18.73,1.86-14.41,6.31-14.41,6.31-1.31,16.27-15.28,25S555.31,1095.14,562.5,1088.23Z"/><path fill="#aa5943" d="M287.54,911.38s-4.57,37.79-41.1,40.4-54.79-24.13-43.05-50.88S235,874.16,235,874.16,148.38,851.89,95.32,699.62,96.23,350.78,305.82,289s325.27,40,360.93,119.15,27.18,178.3,38.92,195.92,72.41,17,67.19,129.16-113.5,198.3-226.35,215.91S340.05,948.61,287.54,911.38Z"/><path fill="#8c3e2c" d="M563.92,612.34s-4.29-56.1,39.88-69.89c40.77-12.72,66.54,14.68,75.67,42.08s-1.12,47.93-15.26,62C643.27,616.17,563.92,612.34,563.92,612.34Z"/><path fill="#fff" d="M563.92,612.34s-1.21-48.69,35.32-61.73S667.73,563,674.91,597.9s-16.31,63.28-42.08,71.76c-17.15-9.24-24.46-5.55-38.48,8.8C582.47,671.84,563.83,644.72,563.92,612.34Z"/><path fill="#8c3e2c" d="M370.7,772.31s-31.95,6.28-51.52-17.85-19.9-74.69,14.35-105.68,90.34-28,119.7-3.59,26.88,53.51,25.51,68.18S370.7,772.31,370.7,772.31Z"/><path fill="#fff" d="M419.71,766.67s-23.23,8-59.38,5.07c-33.13-2.71-54.24-46-36.16-90.72s71.89-60.27,117-36.49c39.3,20.71,42.73,59.82,34.51,80.86S436.39,762.56,419.71,766.67Z"/><path fill="#442a2a" d="M449.87,704A55.08,55.08,0,1,0,394.8,759,55.07,55.07,0,0,0,449.87,704Z"/><path fill="#442a2a" d="M661.67,603.9c-7.69-26.45-34.55-41.89-60-34.49s-36.12,34.79-28.43,61.24,30.84,41.93,56.28,34.53S669.36,630.35,661.67,603.9Z"/><path fill="#fff" d="M409.53,644.55s-10.74,32.75,2.56,29.16S430,654.27,430,654.27,427.44,647.1,409.53,644.55Z"/><path fill="#fff" d="M622.53,556.55s-10.74,32.75,2.56,29.17S643,566.27,643,566.27,640.44,559.11,622.53,556.55Z"/><path fill="#822a19" d="M524.33,755.22S557,768,599.13,757.28,657,727,657,727s-13.59,24.26-57.3,34.63-66.21.92-70.45,2.88S516.83,761,524.33,755.22Z"/><path fill="#422019" d="M288.41,596.27s13.7-40,37.18-57.57,30.55,0,19.14,9.78S319.24,569.52,288.41,596.27Z"/><path fill="#422019" d="M625.81,482.11s-16.31-24.93-41.09-27.21-22.84,9.79-17.29,13.37S598.41,471.68,625.81,482.11Z"/><path fill="#aa5943" d="M603,669.33s7.81-10.52,21.75-3.26,10.65,22.18,10.65,22.18Z"/><path fill="#8c3e2c" d="M563.69,610s3,44.24,30,66c10.88-14.29,23.92-21,38.27-11s8.27,31.31-5,41.53c9.57-14.35,11.31-30.22-.87-37s-25,2-32,13.48C569.56,664.76,563,632.58,563.69,610Z"/><path fill="#8c3e2c" d="M218,916.12s5.65-22.18,27.83-18.7,20,24.36,5.66,27.83-7.83-14.1-7.83-14.1S233.61,899.16,218,916.12Z"/><path fill="#822a19" d="M640.22,743.84s-10,17.33-10.34,36.25,6.75,42.4-12.61,43.7-34.36-14.18-48.71-29.27-38.16-32.7-38.16-32.7S585,775.11,640.22,743.84Z"/><path fill="#a33a2c" d="M576.88,799.5s15,17.61,32.29,21.2,20.38-7.51,19.89-17C619.12,789.71,590.58,792.65,576.88,799.5Z"/><path fill="#422019" d="M209,476.33s50.88,29.13,83.06,3.91S298.61,425,298.61,425s70.45,47.84,135.68,40,38.27-85.24,38.27-85.24,18.7,52.19,47,43.49,11.31-47,11.31-47,47.43,62.62,109.38,37.18,28-94.59,28-94.59,38.48,52.19,75,34.57,0-78.27-63.27-92c57.4-30,84.8-89.37,47-130.47S592.59,138.21,527.36,210c29.35-37.83,81.75-85,36.56-105.89-21.46-9.91-80.51,73.28-80.51,73.28s90.91-94.59,22.42-156.56S319.27,42.32,254.69,179.31c19.57-59.37,9.78-96.55-45.66-71.11S137.27,244.54,139.23,313c-5.22-48.27-12.92-66.54-44-55.45s-16.7,98.5-3,133.08c-31.31-20.88-64.58-19.57-62-2s50.88,11.74,50.88,11.74S-5.59,455.89.29,505.46s62,8.48,62,8.48S-16.67,627.45,6.81,683.55s57.4,9.13,57.4,9.13S53.9,771.36,95.26,821.39s102.34,67,135.45,51.32c18.11-48.92,19.41-124.2-38-209.2,38.49,41.56,52.84,18.08,52.84-11.93s-24.79-54.14-47-70.45C239,600.7,262.52,569.77,258,539.25S209,476.33,209,476.33Z"/><path fill="#aa5943" d="M470,1050s-2.61,60.83,26.1,71.92,64.75-30.85,64.75-30.85l20.26,15.2s-14.56,120-111.75,118.72-107-138.94-107-138.94S440,1053.07,470,1050Z"/><path fill="#fff" d="M622.66,1160.73c.05-1.3,37.26-136.47,37.26-136.47l20.93-.9,52,134.11-20.51,1.65-40.94-107.41-30,108Z"/><path fill="#fff" d="M650,1102c1,0,48.27-2.61,48.27-2.61l4.57,15s-59.36,4.24-58.71,3.26S650,1102,650,1102Z"/><rect width="16.96" height="133.07" x="797.85" y="1282.33" fill="#fff"/><path fill="#fff" d="M797.85,1282.33s72.08-11.74,76,21.85S854.27,1342,854.27,1342s30,4.3,27.4,38.22c-2.42,31.42-15.66,35.22-66.86,35.22C814.81,1375.28,804.7,1313.64,797.85,1282.33Z"/><path fill="#f44d37" d="M818.07,1330v-31.1s25.87-3,30.87,10S841.77,1333.21,818.07,1330Z"/><path fill="#f44d37" d="M818.07,1398.87V1357s34.83-4.1,41.56,13.46S850,1403.26,818.07,1398.87Z"/><path fill="#fff" d="M998.13,1216.77a61.18,61.18,0,0,1-30.33-8.24c-20.43-11.49-30.87-36.44-26-62.08,4.78-25.09,22.43-42.66,46-45.85,41.33-5.46,60.18,22,64.35,37.31l-20.8,5.77c-.78-2.68-8.55-26-40.66-21.7-21.22,2.87-26.6,22.55-27.73,28.52-2.63,13.74,1.1,31.2,15.36,39.21,25.64,14.42,48-4.83,48.22-5l14.23,16.23C1039.84,1201.79,1022.38,1216.76,998.13,1216.77Z"/><path fill="#aa5943" d="M885.76,1110.52s13.48-15.36,22.29-16.34,15-2,14.35,1.78-14.32,12.64-14.32,12.64l-9.44,49.32s-20.27-8.62-22.23-16.45S885.76,1110.52,885.76,1110.52Z"/><path fill="#e8dddd" d="M470,1050s.87-44-5.22-64.85-20-29.5-20-29.5,19.22.8,25.27,32.11,3.69,57.44.08,74C469.92,1056.45,470,1050,470,1050Z"/><path fill="#e8dddd" d="M362.32,1086s-8.63-30.51-8.12-71.36L350,1024.1s-2,43.86,18.24,96.61C364.37,1101.89,362.32,1086,362.32,1086Z"/><path fill="#e8dddd" d="M471.69,1034.49s4.41-37.4,2-64.79c10.59,47-2.72,87.48-2.72,87.48Z"/><polygon fill="#e8dddd" points="631.75 990.63 606.94 942.08 640.22 990.31 631.75 990.63"/></g></g></svg>