<svg xmlns="http://www.w3.org/2000/svg" enable-background="new 0 0 6000 5000" viewBox="0 0 6000 5000"><circle cx="4715.517" cy="1513.286" r="154.076" fill="#cfe8ff"/><circle cx="1136.005" cy="1344.246" r="139.829" fill="#cfe8ff"/><circle cx="826.829" cy="3390.772" r="139.829" fill="#cfe8ff"/><circle cx="3662.657" cy="682.773" r="79.902" fill="#cfe8ff"/><circle cx="2884.679" cy="2561.094" r="1827.296" fill="#cfe8ff"/><path fill="#def1ff" d="M2102.509 2525.684s-110.055-50.696-105.828 50.833c3.363 80.752 185.608 71.723 185.608 71.723s74.186-148.959 26.394-196.163c-47.791-47.205-116.755 26.344-106.174 73.607zM3555.903 1308.489s-10.266-120.735-96.462-66.921c-68.558 42.802 29.291 196.815 29.291 196.815s166.164-9.051 183.61-73.919c17.445-64.868-80.567-88.516-116.439-55.975zM3996.888 2435.949s59.042-185.015-101.63-158.364c-127.792 21.198-77.662 309.323-77.662 309.323s251.51 88.773 317.218 3.486c65.708-85.286-64.822-180.552-137.926-154.445zM2175.86 1365.544s-199.771-147.796-233.729 57.817c-27.008 163.537 342.672 221.6 342.672 221.6s211.224-268.061 135.004-382.815c-76.22-114.756-245.432 4.082-243.947 103.398z"/><path fill="#8cc7f4" d="M3182.271 4397.129c-124.567 0-249.059-12.55-370.016-37.302-117.888-24.123-233.846-60.119-344.654-106.986-108.794-46.017-213.727-102.972-311.88-169.283-97.22-65.68-188.64-141.108-271.723-224.19-83.082-83.083-158.511-174.504-224.191-271.723-66.312-98.154-123.267-203.086-169.283-311.88-46.868-110.809-82.863-226.767-106.986-344.655-24.751-120.958-37.302-245.448-37.302-370.016 0-124.567 12.55-249.059 37.302-370.016 24.124-117.888 60.119-233.846 106.986-344.654 46.017-108.794 102.972-213.727 169.283-311.88 65.68-97.22 141.109-188.64 224.191-271.722 83.083-83.082 174.503-158.511 271.723-224.191 98.154-66.312 203.086-123.267 311.88-169.283 110.808-46.867 226.767-82.863 344.654-106.986 120.958-24.751 245.449-37.302 370.016-37.302s249.058 12.55 370.016 37.302c117.889 24.123 233.847 60.119 344.655 106.986 108.794 46.017 213.726 102.971 311.88 169.283 97.219 65.68 188.64 141.109 271.723 224.191 83.082 83.082 158.511 174.502 224.19 271.722 66.312 98.154 123.267 203.086 169.283 311.88 46.867 110.808 82.863 226.767 106.986 344.654 24.752 120.958 37.302 245.449 37.302 370.016 0 124.567-12.55 249.058-37.302 370.016-24.123 117.889-60.119 233.847-106.986 344.655-46.017 108.794-102.972 213.726-169.283 311.88-65.68 97.219-141.108 188.64-224.19 271.723-83.083 83.082-174.504 158.511-271.723 224.19-98.154 66.312-203.086 123.267-311.88 169.283-110.809 46.867-226.767 82.863-344.655 106.986-120.959 24.752-245.449 37.302-370.016 37.302zm0-3654.592c-1002.756 0-1818.557 815.801-1818.557 1818.557S2179.515 4379.65 3182.271 4379.65s1818.557-815.801 1818.557-1818.557S4185.026 742.537 3182.271 742.537z"/><path fill="#5d9630" d="M1813.624 3669.927c-29.02-72.422-106.895-120.698-160.413-174.248-76.352-76.397-147.073-158.22-213.789-243.115-31.441-40.009-61.988-80.675-91.879-121.818 5.065-1.135 9.307-4.969 8.712-11.714a2628.006 2628.006 0 0 1-8.906-312.831c.485-15.653-23.822-14.533-24.305 1.046-3.115 100.374-.349 200.403 7.998 300.436-82.234-114.589-159.768-232.573-237.051-350.525-8.573-13.084-29.068.031-20.459 13.171 36.359 55.492 72.786 110.979 109.692 166.142-73.784-29.794-151.719-41.237-231.965-33.57-15.527 1.483-14.576 25.798 1.047 24.305 88.109-8.418 172.09 6.422 251.734 45.04 1.36.659 2.659.848 3.948 1.017 63.381 93.79 128.524 186.365 197.961 275.807 54.561 70.279 111.672 138.663 172.297 203.807 33.525 36.024 68.103 71.094 103.899 104.866 38.555 36.376 88.063 69.097 108.32 119.654 5.784 14.438 29.004 7.117 23.159-7.47z"/><path fill="#f78dcf" d="M1059.017 2806.179c35.297-.858 66.325-23.583 78.378-56.769 35.428-97.548 119.906-357.586 24.238-383.94-118.018-32.511-129.343 132.26-131.222 127.741-3.634-8.741 8.422-252.352-120.421-202.875-43.211 16.594 18.604 206.022.542 209.298-18.062 3.276-166.063-97.874-173.312 4.397-3.606 50.873 197.461 149.083 167.523 145.708-55.741-6.283-226.166-.347-159.831 45.683 52.653 36.536 212.507 113.227 314.105 110.757zM1342.427 2843.612c-6.516-.252-50.442-.49-78.428-80.407s-36.42-188.75 4.479-198.215c40.899-9.464 50.626 60.023 50.626 60.023s2.004-78.774 52.756-108.777 24.691 119.967 24.691 119.967 35.549-124.44 100.636-73.309-71.767 283.924-154.76 280.718zM966.183 2941.853c12.196-21.71 7.954-48.936-10.118-66.066-33.039-31.319-98.79-86.309-136.181-67.859-51.385 25.355 40.092 100.161 25.499 93.619-14.594-6.542-91.891-29.023-118.882 8.897s119.926 47.485 109.643 53.505c-7.078 4.143-197.087 106.283-80.966 101.284 89.076-3.837 179.943-68.089 211.005-123.38z"/><path fill="#5d9630" d="M1439.422 3252.564s-39.412-197.828 3.822-226.339c43.233-28.511 48.757 56.123 80.295-18.608 31.538-74.731 85.702-162.107 104.442-85.636s-28.545 88.366-9.022 88.716c107.416 1.925 6.708 126.621-19.562 144.321-26.27 17.699 29.734 62.682.594 103.495-72.388 101.387-160.569-5.949-160.569-5.949zM1183.223 2936.471s-58.673 221.966-129.683 187.166c-71.01-34.8-22.64-77.358-22.64-77.358s-56.741-55.13-20.52-69.453 172.843-40.355 172.843-40.355zM1599.788 2339.284c29.849 22.269 61.732 93.168 61.732 93.168s-80.269-6.044-110.118-28.313c-29.849-22.269-43.214-54.841-29.853-72.75 13.361-17.909 48.39-14.375 78.239 7.895zM1613.585 2094.638c28.929 23.451 57.936 95.574 57.936 95.574s-79.961-9.266-108.891-32.717-40.975-56.533-26.904-73.891 48.93-12.417 77.859 11.034zM1665.321 1876.632c24.45 28.09 40.581 104.136 40.581 104.136s-77.164-22.92-101.615-51.011c-24.45-28.09-30.608-62.754-13.754-77.424 16.854-14.67 50.338-3.791 74.788 24.299zM1890.444 1583.432c-9.952 35.886-64.498 91.275-64.498 91.275s-23.427-77.012-13.476-112.898c9.952-35.886 35.474-60.137 57.006-54.166 21.532 5.97 30.92 39.903 20.968 75.789zM1744.153 1686.96c18.592 32.268 19.796 109.996 19.796 109.996s-71.316-37.332-89.908-69.6c-18.592-32.268-17.969-67.469 1.392-78.624s50.129 5.96 68.72 38.228zM1847.665 1865.591c-34.346 14.395-111.611 5.833-111.611 5.833s45.988-66.066 80.335-80.461c34.346-14.395 69.191-9.358 77.828 11.25 8.635 20.608-12.206 48.983-46.552 63.378zM1798.208 2061.655c-34.346 14.395-111.611 5.833-111.611 5.833s45.988-66.066 80.335-80.461 69.191-9.358 77.828 11.25c8.636 20.608-12.205 48.983-46.552 63.378zM1770.41 2284.796c-34.346 14.395-111.611 5.833-111.611 5.833s45.988-66.066 80.335-80.461c34.346-14.395 69.191-9.358 77.828 11.25 8.636 20.608-12.206 48.983-46.552 63.378zM1783.096 2554.479c-34.346 14.395-111.611 5.833-111.611 5.833s45.988-66.066 80.335-80.461c34.346-14.395 69.191-9.358 77.828 11.25 8.636 20.608-12.205 48.983-46.552 63.378z"/><circle cx="1572.954" cy="2246.824" r="32.367" fill="#f78dcf"/><circle cx="1763.008" cy="2139.677" r="32.367" fill="#f78dcf"/><circle cx="1612.177" cy="2008.881" r="32.367" fill="#f78dcf"/><circle cx="1802.884" cy="1924.274" r="32.367" fill="#f78dcf"/><circle cx="1679.215" cy="1817.471" r="32.367" fill="#f78dcf"/><circle cx="1888.27" cy="1706.367" r="32.367" fill="#f78dcf"/><circle cx="1741.64" cy="2371.221" r="32.367" fill="#f78dcf"/><circle cx="1740.545" cy="1580.071" r="32.367" fill="#f78dcf"/><path fill="#5d9630" d="M2400.938 3963.277c-110.653-124.462-215.375-254.361-309.818-391.605-93.58-135.989-177.125-279.193-244.973-429.787-67.918-150.749-119.822-308.932-149.299-471.76-29.115-160.827-36.908-325.944-19.46-488.565 17.344-161.658 60.455-321.168 132.363-467.236 8.873-18.024 18.195-35.818 27.89-53.413 4.191-7.607-7.451-14.418-11.645-6.807-78.893 143.181-129.591 300.61-153.709 462.123-24.221 162.204-22.58 327.574.597 489.795 23.567 164.944 70.257 325.696 134.224 479.406 64.16 154.171 144.941 300.984 236.826 440.306 92.352 140.03 195.707 272.632 305.535 399.335a5064.598 5064.598 0 0 0 41.934 47.742c5.778 6.502 15.287-3.064 9.535-9.534zM2536.66 4203.438s-785.874-678.107-1088.976-859.276c-740.026-442.325-410.647 748.981 1169.917 1024.813l-80.941-165.537z"/><path fill="#508225" d="m1175.015 3336.521 267.632 196.897 267.632 196.897 267.632 196.897c80.575 59.279 161.024 118.895 245.083 173.201 82.447 53.265 168.555 101.304 259.881 137.644a1120.763 1120.763 0 0 0 34.689 13.128c8.18 2.946 11.703-10.081 3.585-13.004-92.876-33.446-180.458-79.787-264.027-132.042-83.884-52.452-163.889-110.771-243.551-169.347-88.413-65.009-176.793-130.065-265.188-195.098l-266.553-196.103-266.552-196.103-33.454-24.612c-7-5.148-13.734 6.55-6.809 11.645z"/><path fill="#6caf3b" d="M2617.601 4368.975s-932.592-468.782-1063.682-1027.032 745.344 13.467 1228.797 865.121c0 0 21.322 158.7-165.115 161.911z"/><path fill="#5d9630" d="M1613.154 3216.073c56.834 42.527 114.487 83.949 171.598 126.103 68.25 50.376 135.821 101.678 201.849 154.943 76.072 61.367 150.124 125.25 221.42 192.116 80.175 75.193 156.851 154.122 229.339 236.757 80.789 92.099 156.322 188.769 226.079 289.482a3318.248 3318.248 0 0 1 27.301 40.054c4.812 7.17 16.5.427 11.645-6.807-69.48-103.523-144.883-203.06-225.787-297.926-72.708-85.256-149.845-166.702-230.722-244.245-72.007-69.039-146.968-134.954-224.137-198.16-67.26-55.089-136.199-108.089-205.979-159.94-58.597-43.542-117.857-86.181-176.504-129.656a5299.568 5299.568 0 0 1-19.294-14.368c-6.953-5.2-13.683 6.502-6.808 11.647zM4318.172 3411.191c18.183-75.871 88.212-134.956 133.376-195.717 64.434-86.685 122.508-177.921 176.174-271.613 25.291-44.155 49.601-88.83 73.193-133.881-5.176-.386-9.93-3.563-10.322-10.323a2628.015 2628.015 0 0 0-36.668-310.802c-2.756-15.416 21.456-17.842 24.199-2.498 17.675 98.854 29.48 198.223 35.765 298.406 64.702-125.327 124.259-253.33 183.573-381.264 6.58-14.191 28.764-4.195 22.156 10.057-27.905 60.188-55.879 120.381-84.373 180.324 68.669-40.205 144.112-62.855 224.62-66.937 15.578-.79 18.172 23.405 2.499 24.199-88.397 4.481-169.328 31.372-242.512 81.159-1.25.85-2.507 1.225-3.758 1.581-49.072 102.008-100.064 203.07-155.762 301.656-43.764 77.464-90.327 153.425-140.836 226.69-27.932 40.516-57.044 80.24-87.55 118.857-32.857 41.594-77.082 81.166-89.774 134.13-3.625 15.125-27.662 11.258-24-4.024z"/><path fill="#f78dcf" d="M4939.19 2446.915c-35.046 4.282-69.049-13.69-85.798-44.771-49.233-91.361-170.618-336.355-79.798-376.337 112.038-49.323 147.197 112.052 148.398 107.307 2.324-9.176-45.02-248.446 89.648-218.226 45.165 10.135 11.545 206.538 29.892 207.153 18.346.616 150.07-120.976 172.11-20.846 10.963 49.808-173.69 176.206-144.56 168.514 54.236-14.32 223.712-33.224 164.774 21.961-46.781 43.802-193.788 142.919-294.666 155.245zM4664.233 2525.152c6.41-1.196 49.835-7.818 65.905-90.955s8.592-192.04-33.249-195.458c-41.841-3.418-41.361 66.746-41.361 66.746s-13.436-77.646-68.009-99.952c-54.574-22.306-6.988 122.282-6.988 122.282s-53.262-117.95-110.225-57.899 112.282 270.473 193.927 255.236zM5050.762 2567.651c-15.223-19.706-14.983-47.259.406-66.835 28.135-35.79 85.193-99.754 124.869-86.936 54.525 17.615-25.105 104.925-11.618 96.331s86.696-42.074 118.913-8.481c32.217 33.593-111.749 64.416-100.699 68.876 7.605 3.07 210.445 76.502 94.831 88.437-88.689 9.155-187.932-41.204-226.702-91.392z"/><path fill="#5d9630" d="M4627.723 2943.861s10.232-201.456-36.687-223.379-40.08 62.615-82.147-6.737-108.359-147.926-115.782-69.543 41.089 83.277 21.824 86.461c-105.995 17.52 11.771 126.251 40.335 139.943 28.564 13.692-20.305 66.339 14.458 102.482 86.359 89.788 157.999-29.227 157.999-29.227zM4835.246 2593.88s90.319 211.078 155.515 166.324c65.196-44.754 11.152-79.827 11.152-79.827s48.124-62.793 10.205-71.698c-37.918-8.906-176.872-14.799-176.872-14.799zM4325.761 1993.227c-28.825 27.496-53.541 106.894-53.541 106.894s84.459-16.767 113.285-44.263c28.825-27.496 38.819-63.807 22.321-81.102s-53.24-9.025-82.065 18.471zM4279.568 1735.216c-27.697 28.633-49.2 108.961-49.2 108.961s83.716-20.148 111.413-48.781c27.697-28.633 36.223-65.316 19.043-81.934s-53.559-6.879-81.256 21.754zM4196.522 1510.385c-22.342 32.981-29.667 115.814-29.667 115.814s78.986-34.288 101.328-67.269c22.342-32.981 24.413-70.585 4.624-83.991-19.788-13.405-53.942 2.464-76.285 35.446zM3919.662 1228.059c15.195 36.825 80.259 88.609 80.259 88.609s14.949-84.8-.246-121.624c-15.195-36.825-45.424-59.287-67.519-50.17-22.094 9.117-27.688 46.36-12.494 83.185zM4088.356 1319.135c-15.582 36.662-6.84 119.358-6.84 119.358s70.917-48.838 86.5-85.5 10.382-73.962-11.615-83.312-52.462 12.792-68.045 49.454zM4001.468 1522.169c38.328 10.858 119.272-8.195 119.272-8.195s-57.353-64.227-95.681-75.084c-38.328-10.858-74.681-1.017-81.195 21.98-6.515 22.997 19.276 50.442 57.604 61.299zM4079.263 1723.994c38.328 10.858 119.272-8.195 119.272-8.195s-57.353-64.227-95.681-75.084c-38.328-10.858-74.68-1.017-81.195 21.98-6.514 22.997 19.276 50.442 57.604 61.299zM4137.552 1957.364c38.328 10.858 119.272-8.195 119.272-8.195s-57.353-64.227-95.681-75.084-74.681-1.017-81.195 21.98c-6.515 22.997 19.276 50.441 57.604 61.299zM4158.85 2245.377c38.328 10.857 119.272-8.195 119.272-8.195s-57.353-64.227-95.682-75.084c-38.328-10.857-74.68-1.017-81.195 21.98-6.514 22.997 19.276 50.442 57.605 61.299z"/><circle cx="4342.335" cy="1891.584" r="34.623" fill="#f78dcf"/><circle cx="4126.702" cy="1802.308" r="34.623" fill="#f78dcf"/><circle cx="4270.007" cy="1643.968" r="34.623" fill="#f78dcf"/><circle cx="4056.586" cy="1578.711" r="34.623" fill="#f78dcf"/><circle cx="4174.141" cy="1449.353" r="34.623" fill="#f78dcf"/><circle cx="3937.821" cy="1358.324" r="34.623" fill="#f78dcf"/><circle cx="4179.246" cy="2045.43" r="34.623" fill="#f78dcf"/><circle cx="4078.407" cy="1205.164" r="34.623" fill="#f78dcf"/><path fill="#5d9630" d="M3696.299 3829.131c105.607-152.43 203.664-310.311 288.704-475.188 83.882-162.631 155.185-332.171 207.103-507.766 50.104-169.458 81.916-344.413 89.242-521.111 7.112-171.546-8.044-344.471-48.795-511.384-40.185-164.596-105.891-323.51-198.675-465.529-11.647-17.827-23.733-35.357-36.182-52.632-5.378-7.463-17.898-.27-12.456 7.281 99.006 137.386 171.356 292.343 217.644 455.06 46.814 164.567 67.454 336.056 65.614 507-1.884 175.098-28.167 348.893-73.5 517.899-47.29 176.298-114.65 346.765-195.404 510.322-81.148 164.353-175.636 321.893-278.122 473.769a5429.072 5429.072 0 0 1-37.628 54.999c-5.301 7.648 7.198 14.869 12.455 7.28zM3571.233 4093.568s747.096-821.406 1045.603-1052.867c728.809-565.116 532.632 742.402-1110.212 1239.086l64.609-186.219z"/><path fill="#508225" d="m4895.935 2986.588-259.624 244.354-259.625 244.354-259.625 244.354c-76.974 72.447-153.817 145.177-235.06 212.871-79.994 66.653-164.554 128.377-256.115 178.27a1199.202 1199.202 0 0 1-34.6 18.116c-8.294 4.175-.999 16.625 7.281 12.457 93.574-47.105 180.015-106.885 261.567-172.394 82.146-65.987 159.375-137.785 236.098-209.92 85.831-80.698 171.581-161.482 257.37-242.225l259.625-244.354 260.575-245.249 32.334-30.432c6.775-6.378-3.441-16.565-10.201-10.202z"/><path fill="#6caf3b" d="M3506.624 4279.787s929.885-618.037 997.116-1227.746-789.747 110.396-1193.327 1077.101c0 0-2.181 171.273 196.211 150.645z"/><path fill="#5d9630" d="M4415.145 2915.171c-55.301 52.9-111.627 104.717-167.264 157.262-66.237 62.557-131.622 126.026-195.112 191.378-73.011 75.153-143.54 152.731-210.738 233.134-75.528 90.369-146.887 184.25-213.305 281.519-74.406 108.966-142.587 222.17-204.05 338.928a3545.279 3545.279 0 0 0-23.194 44.852c-4.198 8.258 8.244 15.568 12.457 7.281 60.254-118.53 127.271-233.585 200.749-344.406 66.006-99.55 137.16-195.649 212.813-288.074 67.336-82.264 138.182-161.615 211.703-238.393 64.146-66.989 130.342-131.971 197.58-195.846 56.521-53.693 113.855-106.521 170.424-160.162a5796.665 5796.665 0 0 0 18.137-17.271c6.722-6.431-3.489-16.623-10.2-10.202z"/><path fill="#f78dcf" d="M3600.253 2725.643c-41.438-279.708-269.454-419.832-269.454-419.832l-387.431 185.293s-339.704 477.25-331.281 670.985 32.285 210.557 44.919 235.827c12.635 25.27-.157 245.86-29.638 789.159l-9.767 181.899c87.182 12.769 176.352 19.415 267.078 19.415 218.385 0 427.809-38.336 621.945-108.603l-35.452-165.967c-50.535-401.466 185.23-1009.168 129.081-1388.176z"/><path fill="#f77bc5" d="M2624.159 4246.833c52.41 22.735 104.305 68.85 192.872 88.777 112.299 25.267 120.721-39.305 84.224-87.031-36.497-47.727-81.417-115.106-72.994-154.411 8.422-39.305 58.957-103.876 58.957-103.876 98.261-39.305 370.586-275.132 482.885-477.27s179.678-553.071 179.678-553.071l-401.468-216.175c-57.67 47.727-70.265 13.755-72.706-10.123-1.548-15.145-11.161-28.419-25.423-33.744-29.61-11.055-67.512-9.476-67.512-9.476 42.112-70.187 30.882-218.982 30.882-218.982l-25.281-1.825-44.906 21.477s-339.704 477.25-331.281 670.985 32.285 210.557 44.919 235.827c12.635 25.27-.157 245.86-29.638 789.159l-3.208 59.759z"/><path fill="#f77bc5" d="M3132.154 2604.768c-52.993 36.563-97.364 84.559-129.54 140.334-2.26 3.92 3.802 7.458 6.061 3.542 29.929-51.881 70.574-97.015 119.034-132.137a599.995 599.995 0 0 0-88.482 189.392c-1.17 4.368 5.599 6.232 6.768 1.866 9.061-33.821 21.11-66.71 35.92-98.301.746.603 1.744.917 2.937.655 15.852-3.482 30.236-10.624 42.652-20.951-6.28 54.521-21.231 107.947-44.485 157.881-1.895 4.069 4.153 7.638 6.061 3.542 35.275-75.747 52.003-159.297 48.355-242.793-.108-2.466-2.969-4.625-5.281-3.03zm-3.839 76.869c-1.117-.412-2.426-.317-3.56.679-11.472 10.088-24.896 16.957-39.676 20.542a595.164 595.164 0 0 1 45.784-78.653 514.932 514.932 0 0 1-2.548 57.432zM3563.125 2879.397c8.825-20.189 13.39-41.778 13.412-63.931 10.283-5.424 20.616-10.752 30.972-16.036-.138-2.557-.293-5.1-.451-7.641a2545.28 2545.28 0 0 0-79.181 42c-4.819-5.043-12.641-7.254-18.968-9.612-7.779-2.899-15.719-5.272-23.768-7.267a1139.96 1139.96 0 0 1 37.013-43.184 1123.873 1123.873 0 0 1 28.958-30.901c15.198 2.24 29.353 8.46 43.244 14.772 3.511 1.595 7.014 3.278 10.406 5.135a778.05 778.05 0 0 0-.855-8.338 159.136 159.136 0 0 0-4.073-1.971c-13.696-6.378-27.86-12.771-42.768-15.658a1168.248 1168.248 0 0 1 38.676-37.398 574.697 574.697 0 0 0-1.633-8.025c-54.334 49.792-103.845 104.725-147.642 164.01-6.356 8.604-22.128 24.715-13.391 35.575.08 2.031 1.896 3.99 4.069 3.518 4.819 2.908 10.925 3.23 16.394 3.472 9.515.421 19.055.432 28.573.106 24.493-.838 48.913-4.03 72.824-9.444 1.429.808 3.274.706 4.317-1.006a393.921 393.921 0 0 0 26.757-7.373 390 390 0 0 0 22.821-7.966c.035-2.548.064-5.092.083-7.628-14.938 5.865-30.231 10.825-45.789 14.791zm-123.594-2.217c4.335-7.89 10.629-15.127 16.002-22.333a1112.69 1112.69 0 0 1 24.72-31.916c7.459 1.749 14.827 3.811 22.07 6.317 5.899 2.042 13.875 3.982 19.055 8.135a2542.57 2542.57 0 0 0-83.007 48.354c-1.071-1.977-.947-4.721 1.16-8.557zm114.925 4.325a380.41 380.41 0 0 1-48.587 7.943 377.768 377.768 0 0 1-49.95 1.544c-3.149-.112-7.275-.276-10.804-1.133a2540.824 2540.824 0 0 1 124.365-70.667c-.541 21.667-5.602 42.756-15.024 62.313zM3361.878 3809.103c-9.693 22.218-16.993 45.34-21.465 69.172-.52 2.773 1.581 4.784 4.317 4.317 43.285-7.392 85.644-19.426 126.282-35.775.237-2.627.482-5.262.729-7.897a612.736 612.736 0 0 1-36.742 13.693c4.163-8.183 7.664-16.675 10.323-25.479a147.328 147.328 0 0 0 3.831-15.737c1.108-5.979 1.12-12.571 3.774-18.112.383-.801.447-1.579.299-2.287 1.135-.853 2.263-1.717 3.398-2.57a4790.846 4790.846 0 0 1 22.386-16.668c.386-3.173.78-6.352 1.178-9.534-10.522 7.771-21.027 15.565-31.48 23.428a4913.915 4913.915 0 0 0-57.23 43.714c-15.216 11.798-32.608 23.262-42.146 40.449 10.615-47.199 32.358-90.134 60.01-129.31a3.57 3.57 0 0 0 1.664.009c24.504-5.508 48.093 3.446 70.244 13.32.308-2.403.614-4.804.929-7.211-21.396-9.379-43.756-17.312-67.191-13.945 18.633-25.356 39.636-49.121 61.554-71.424 6.934-7.056 14.007-13.97 21.145-20.815a5601.81 5601.81 0 0 1 1.849-11.515c-55.318 52.076-107.119 110.18-137.658 180.177zm36.726 23.553c15.075-11.675 30.243-23.231 45.457-34.725-1.783 7.379-2.226 15.318-4.145 22.542-3.027 11.399-7.47 22.261-13.084 32.623-.439.812-.524 1.6-.382 2.315a612.62 612.62 0 0 1-71.155 18.149c9.653-17.414 27.933-28.994 43.309-40.904zM3251.019 4066.652c-15.687-29.443-33.65-57.622-53.634-84.332-1.373-1.834-4.893-2.693-6.06 0-49.22 113.569-64.468 240.641-44.365 362.737a624.94 624.94 0 0 0 4.447 23.972c2.342-.342 4.681-.693 7.021-1.044-12.285-59.905-15.919-121.513-10.88-182.456 15.653 31.252 41.634 55.622 67.348 79.006a4702.788 4702.788 0 0 0 4.799 38.153 4840.935 4840.935 0 0 0 7.296 53.662c2.288-.434 4.569-.885 6.854-1.327-.461-3.265-.929-6.528-1.384-9.794a973.666 973.666 0 0 0 75.715-101.937 654.562 654.562 0 0 1 10.564 64.913 647.092 647.092 0 0 1 2.459 27.689c2.286-.561 4.563-1.145 6.846-1.714-6.647-93.242-33.022-184.934-77.026-267.528zm2.392 20.163c-.066.095-.139.174-.2.279a1355.52 1355.52 0 0 1-43.145 69.869 4727.149 4727.149 0 0 1-7.084-78.396 4805.195 4805.195 0 0 1-6.207-85.288c21.459 29.548 40.394 60.875 56.636 93.536zm-104.431 84.901c-.03-.075-.072-.134-.104-.205 3.058-29.204 8.094-58.215 15.15-86.765a628.006 628.006 0 0 1 26.353-81.957 4771.496 4771.496 0 0 0 23.242 251.095c-25.867-23.675-51.659-48.972-64.641-82.168zm82.189 164.156a4756.316 4756.316 0 0 1-19.996-167.905 1355.518 1355.518 0 0 0 45.926-73.596c21.401 44.44 37.862 91.247 48.935 139.331a960.731 960.731 0 0 1-74.865 102.17zM2908.592 4388.22c2.44-.031 4.875-.08 7.313-.12 21.761-68.572 30.666-141.119 25.816-213.03-1.827-27.08-5.627-54-11.263-80.547-.546-2.572-4.12-3.403-5.865-1.548a1423.59 1423.59 0 0 0-49.518 55.445 3.157 3.157 0 0 0-.74.863c-48.842 57.733-93.072 119.352-132.054 184.171-9.342 15.534-18.337 31.27-27.068 47.153 2.54.234 5.083.451 7.625.674 43.033-77.764 93.331-151.467 150.278-219.725.324-.389.657-.77.982-1.158 1.016 15.838 5.216 31.14 12.429 45.45-19.908 52.467-41.559 104.314-61.03 156.941a1711.033 1711.033 0 0 0-8.799 24.354c2.46.09 4.926.158 7.389.239a1764.474 1764.474 0 0 1 5.988-16.605c.727.515 1.676.747 2.791.47a274.82 274.82 0 0 0 91.13-41.371 565.604 565.604 0 0 1-11.625 46.207 549.573 549.573 0 0 1-3.779 12.137zm-27.718-235.819a1420.598 1420.598 0 0 1 39.502-44.571c-9.067 30.015-19.413 59.572-30.404 88.899-6.114-14.017-9.146-28.943-9.098-44.328zm40.616 170.701c-26.973 19.008-56.975 32.837-88.94 40.973 23.176-62.558 49.403-124.005 72.093-186.755 7.875-21.78 15.285-43.725 22.011-65.886 12.85 69.947 12.303 142.136-1.328 211.883-.971-.916-2.384-1.238-3.836-.215zM3214.664 2496.783a668.86 668.86 0 0 0 18.382 88.651c-.233 1.029-.471 2.056-.704 3.084-.655 2.899 2.057 4.689 4.27 4.32a3.635 3.635 0 0 0 3.733-.736c67.006-61.509 118.481-139.258 149.284-224.828a541.81 541.81 0 0 0 4.325-12.553 639.915 639.915 0 0 0-5.786-5.091 561.239 561.239 0 0 1-46.9 105.325c-8.183-37.195-21.954-72.916-40.822-106.031a4629.664 4629.664 0 0 1 8.617-30.169c.287-.988.578-1.973.865-2.961l-8.454 4.043a4732.78 4732.78 0 0 0-32.237 117.193 3.437 3.437 0 0 0-1.037.513c-18.292 13.324-34.388 29.06-48.052 46.983a666.271 666.271 0 0 1-3.306-124.212l-7.187 3.437a674.723 674.723 0 0 0 4.483 129.028c-1.026 1.551-.556 3.053.526 4.004zm83.091-138.272c18.01 33.023 30.858 68.488 38.24 105.414-14.306 23.828-30.389 46.602-48.135 68.045-14.545 17.576-30.191 34.199-46.781 49.85a4717.489 4717.489 0 0 1 56.676-223.309zm-31.269 89.091a4672.33 4672.33 0 0 0-15.913 63.27 4695.509 4695.509 0 0 0-14.193 59.953 664.473 664.473 0 0 1-14.944-76.226 221.787 221.787 0 0 1 45.05-46.997z"/><path fill="#f6af9a" d="M3156.087 1973.808s65.271 143.174 174.712 332.003c0 0-202.138 188.1-387.431 185.293 0 0 37.264-104.613-18.885-222.526-.001 0 60.348-207.738 231.604-294.77z"/><path fill="#ef9584" d="M3197.125 2058.514c-26.628-53.097-41.039-84.706-41.039-84.706-171.256 87.032-231.604 294.769-231.604 294.769 32.562 68.381 33.708 132.282 28.925 173.907 82.218-35.38 230.038-138.419 243.718-383.97z"/><path fill="#f6af9a" d="M2287.824 3889.223s-40.278-29.615-72.994-29.479c-38.561.16-67.01-9.388-99.665-33.69-60.361-44.919-29.479-154.411-43.516-181.082s25.267-67.379 25.267-67.379l190.908 311.63z"/><path fill="#f1e493" d="M2516.016 2691.782s-244.238 101.064-385.306 446.365-23.16 606.383 231.604 663.231c80.009 10.527 269.503-73.692 282.136-231.604 12.633-157.912-11.719-219.656 50.532-355.829 67.376-147.385 18.949-391.622 18.949-391.622s-46.319-107.38-197.915-130.541z"/><path fill="#f6af9a" d="M2252.829 3710.842c-102.579-71.177-94.591-239.12-4.357-325.413 30.421-29.092 76.817-27.476 133.402-26.818 181.073 2.105 401.54 51.145 449.966 122.731 48.427 71.587-75.798 290.558-349.512 294.77-102.286 1.574-179.432-30.53-229.499-65.27z"/><path fill="#f6af9a" d="M2808.68 3456.077s101.064 48.426 75.798 246.343c-23.084 180.825-101.136 401.106-101.136 401.106s-75.103 11.462-140.374-15.909c0 0-48.427-306.955-16.845-416.441 31.583-109.485 182.557-215.099 182.557-215.099z"/><path fill="#f6af9a" d="M2642.969 4087.617s-11.23 14.973-22.46 33.69c-11.23 18.716-29.946 60.829 14.973 87.967 44.92 27.139 95.454 48.663 133.823 81.417s89.947 28.433 103.876 25.267c20.588-4.679 36.497-46.791-18.716-89.839-40.003-31.189-80.481-70.187-71.123-122.593 0 0-71.043-32.645-140.373-15.909z"/><path fill="#ef9584" d="M2826.646 3965.934c22.046-76.97 46.528-174.97 57.832-263.514 25.266-197.917-75.798-246.343-75.798-246.343s-.37.259-1.057.75c-3.245-2.477-6.715-4.916-10.365-7.32-11.087 35.556-40.204 111.95-103.755 189.851-65.267 80.005-332.037 66.263-461.382 54.387a161.844 161.844 0 0 0 20.708 17.096c50.066 34.74 127.213 66.844 229.499 65.271 49.417-.761 93.933-8.548 133.468-21.177-1.962 64.975 4.295 144.687 11.296 209.798 75.709 11.398 157.077 5.714 199.554 1.201z"/><path fill="#f6af9a" d="M2503.383 2845.483s-84.22 92.642 6.317 275.82c90.536 183.178 214.76 202.128 250.554 172.651 35.793-29.477 25.266-88.431-16.844-178.967s-75.798-147.385-86.325-204.233c-10.528-56.849-105.275-115.803-153.702-65.271z"/><path fill="#f6af9a" d="M2742.634 3301.409s77.556-5.966 135.528-127.469c45.024-94.366 104.511-234.578 104.511-234.578s-46.325-44.218-84.224-50.534c0 0-162.367 174.535-200.266 254.544-37.9 80.009-3.976 128.561 44.451 158.037z"/><path fill="#f6af9a" d="M2898.448 2888.829s20.588-26.203 28.075-48.663c7.25-21.749 26.784-103.166 102.787-117.648 8.62-1.643 16.897 4.8 16.997 13.575l.001.197s18.483 1.345 13.102 20.588c0 0 17.488 3.568 9.358 24.331 0 0 16.377 8.89 6.083 28.543-10.294 19.652-20.12 20.12-24.799 37.901-4.679 17.781-18.717 48.663-43.048 59.893-24.332 11.23-24.332 31.818-24.332 31.818s-58.957-17.781-84.224-50.535z"/><path fill="#ef9584" d="M3044.159 2737.052c-4.237 3.431-8.532 6.763-12.71 10.235a379.792 379.792 0 0 0-6.278 5.156 214.208 214.208 0 0 0-6.154 5.206c-2.025 1.767-3.836 3.642-5.513 5.577a91.58 91.58 0 0 1-5.406 5.72c-1.913 1.838-3.864 3.676-5.934 5.448-2.049 1.791-4.18 3.542-6.573 5.146a.374.374 0 0 1-.52-.093.39.39 0 0 1-.053-.313c.778-2.805 1.955-5.363 3.288-7.821 1.317-2.471 2.849-4.802 4.541-7.026a36.831 36.831 0 0 1 5.835-6.065c2.243-1.821 4.613-3.425 6.871-4.994a219.456 219.456 0 0 1 6.877-4.566 390.135 390.135 0 0 1 7.017-4.26c4.748-2.716 9.468-5.44 14.329-7.94a.353.353 0 0 1 .383.59zM3059.593 2757.177c-3.776 3.034-7.516 6.093-11.094 9.318-1.809 1.585-3.607 3.177-5.346 4.828-1.785 1.595-3.498 3.262-5.221 4.909a89.75 89.75 0 0 0-4.831 5.258c-1.598 1.752-3.184 3.467-5.003 4.981-3.546 3.119-7.096 6.14-11.446 8.974a.38.38 0 0 1-.529-.105.379.379 0 0 1-.051-.291c1.192-5.096 3.875-9.488 6.945-13.42 1.601-1.902 3.343-3.698 5.322-5.199 1.947-1.547 3.998-2.94 5.935-4.457 1.985-1.455 3.953-2.923 5.978-4.304 2.024-1.385 4.093-2.697 6.163-3.995 4.203-2.51 8.401-4.985 12.813-7.094a.353.353 0 0 1 .373.594l-.008.003zM3068.963 2781.501c-3.093 2.778-6.176 5.542-9.116 8.442a187.1 187.1 0 0 0-4.406 4.317 156.424 156.424 0 0 0-4.29 4.376c-1.408 1.47-2.679 3.072-3.934 4.655a33.744 33.744 0 0 1-1.974 2.27 29.593 29.593 0 0 1-2.111 2.11c-2.96 2.709-5.931 5.243-9.616 7.864a.388.388 0 0 1-.617-.335c.075-1.147.32-2.241.569-3.36.292-1.092.7-2.11 1.126-3.142.413-1.047.948-1.993 1.498-2.937.553-.941 1.127-1.884 1.779-2.737 2.455-3.623 6.214-5.917 9.506-8.547a160.309 160.309 0 0 1 5.063-3.792 188.78 188.78 0 0 1 5.241-3.502c3.58-2.201 7.136-4.392 10.893-6.265a.353.353 0 0 1 .474.159c.072.144.03.32-.085.424zM2546.92 2826.356c6.011 16.673 31.66 72.192 106.085 70.778-15.451-37.669-63.722-72.296-106.085-70.778z"/><path fill="#f6af9a" d="M2774.976 2336.402s-187.454-18.155-253.207 208.583c-55.332 190.801 70.115 311.733 99.034 325.607 39.788 19.088 171.035 23.756 269.994-107.069 98.96-130.825 121.995-396.268-115.821-427.121z"/><path fill="#21284f" d="M2841.766 2696.767c-35.204 0-48.83-35.071-48.987-35.49a4.912 4.912 0 0 1 9.197-3.46c.633 1.663 15.856 40.223 57.678 25.866a4.912 4.912 0 1 1 3.19 9.293c-7.75 2.661-14.763 3.791-21.078 3.791zM2712.226 2643.82c-5.297 0-12.757-.539-20.903-2.78-14.37-3.953-33.635-14.111-43.804-40.056a4.913 4.913 0 0 1 9.148-3.586c16.629 42.428 61.633 36.306 62.088 36.237 2.678-.397 5.181 1.458 5.578 4.143s-1.458 5.182-4.143 5.578c-.256.039-3.256.464-7.964.464z"/><path fill="#dd7c6f" d="M2734.976 2730.306c-.188 0-.376-.001-.565-.005-15.281-.312-26.767-13.394-27.249-13.95a4.212 4.212 0 0 1 6.366-5.515c.156.178 9.624 10.837 21.096 11.046 5.751.099 11.271-2.529 16.354-7.827 1.153-1.944 7.304-13.379 1.163-26.777-7.546-16.465.395-36.72 2.063-40.613a4.212 4.212 0 0 1 7.741 3.318c-.872 2.034-8.341 20.271-2.148 33.785 8.592 18.746-1.51 34.519-1.944 35.181a4.157 4.157 0 0 1-.451.572c-6.721 7.159-14.264 10.785-22.426 10.785z"/><path fill="#21284f" d="M2887.223 2640.603a4.907 4.907 0 0 1-4.171-2.311c-22.639-36.222-64.584-33.624-66.359-33.499a4.913 4.913 0 0 1-5.258-4.537 4.91 4.91 0 0 1 4.524-5.262c2.016-.145 49.583-3.259 75.426 38.091a4.913 4.913 0 0 1-4.162 7.518zM2749.657 2578.839a4.909 4.909 0 0 1-4.177-2.319c-.79-1.253-19.542-29.968-75.139-29.968a4.913 4.913 0 1 1 0-9.826c61.462 0 82.624 33.209 83.494 34.623a4.914 4.914 0 0 1-4.178 7.49z"/><path fill="#ef9584" d="M2688.66 2686.563c-.481-5.571-3.162-10.72-7.175-14.614-8.667-8.41-27.92-26.622-41.324-35.793-17.781-12.166-45.855-18.716-52.406-7.487-6.551 11.23 3.169 31.432 26.203 53.342 38.369 36.498 77.013 31.307 74.702 4.552zM2877.503 2755.171c-10.102-6.618-32.454-20.856-47.351-27.325-19.762-8.58-48.569-9.699-52.876 2.568-4.307 12.267 9.061 30.264 35.825 47.418 19.862 12.73 38.198 17.31 51.792 16.208 7.596-7.969 15.076-16.606 22.39-25.97-1.542-5.337-5.13-9.852-9.78-12.899z"/><path fill="#fff" d="M2760.239 2791.948c-11.76 25.782-52.734 42.211-86.548 26.787s-47.663-56.861-35.903-82.642c11.76-25.782 33.026 1.573 66.84 16.997 33.813 15.423 67.371 13.076 55.611 38.858z"/><path fill="#8cc7f4" d="M2758.352 2795.72c-11.76 25.782-52.734 42.211-86.548 26.787s-47.663-56.861-35.903-82.642c11.76-25.782 33.026 1.573 66.84 16.997s67.372 13.077 55.611 38.858z"/><path fill="#b6dcff" d="M2677.84 2855.708c-26.627 0-48.291-21.663-48.291-48.291s21.663-48.291 48.291-48.291c26.628 0 48.292 21.663 48.292 48.291s-21.664 48.291-48.292 48.291zm0-84.51c-19.971 0-36.218 16.248-36.218 36.219s16.247 36.219 36.218 36.219c19.971 0 36.219-16.248 36.219-36.219s-16.247-36.219-36.219-36.219z"/><path fill="#21284f" d="M2623.316 2503.27c-12.29 16.464-65.508 78.609-112.299 77.673 0 0-4.702-106.052 40.24-176.871 61.764-97.325 167.512-122.593 286.362-67.379 0 0 221.855 67.488 109.557 311.738 0 0-94.251-24.377-124.53-115.215-28.075-84.224-107.62-110.427-107.62-110.427s-42.111 14.037-91.71 80.481z"/><path fill="#f6af9a" d="M2561.089 2490.897s-5.37-47.445-28.801-41.262c-23.43 6.182-64.448 105.393-20.958 153.881 0-.001 55.952-21.576 49.759-112.619z"/><path fill="#ef9584" d="M2522.245 2564.099a2.807 2.807 0 0 1-2.435-4.2c32.146-56.257 7.452-77.652 7.198-77.862a2.809 2.809 0 0 1 3.58-4.326c1.182.979 28.562 24.659-5.903 84.973a2.805 2.805 0 0 1-2.44 1.415z"/><path fill="#ef9584" d="M2532.076 2540.703a2.808 2.808 0 0 1-2.805-2.973c1.249-21.224-11.24-24.203-11.366-24.231a2.807 2.807 0 0 1-2.143-3.342 2.803 2.803 0 0 1 3.342-2.143c.707.154 17.299 4.085 15.772 30.046a2.807 2.807 0 0 1-2.8 2.643z"/><path fill="#f6af9a" d="M3389.164 2458.662c-60.492-12.159-122.351 12.645-159.453 61.945-36.85 48.967-86.672 137.415-129.125 290.548-78.609 283.554-277.939 774.861-381.816 892.775-11.23 25.267-53.342 115.106-5.615 162.833 47.727 47.727 176.871 145.989 362.163-64.572 185.293-210.56 345.242-532.47 421.12-755.209 87.032-255.479 83.591-549.957-107.274-588.32z"/><path fill="#f6af9a" d="M2991.446 3880.801s-66.963 67.963-226.981 74.279c-140.927 5.563-357.851-3.843-507.425-80.009-75.739-38.568-80.009-92.642-95.903-189.038 0 0 334.44 158.271 580.093-1.755 44.919 0 328.825 61.764 250.216 196.523zM2070.73 3395.857s-31.367-96.905 14.957-231.663c33.161-96.467 145.021-137.131 172.091-150.452 27.069-13.321 102.531-40.639 116.305-42.44 13.774-1.802-6.114 28.026-26.677 36.531-20.563 8.505-29.802 18.701-29.802 18.701s59.151-8.531 83.403-2.981c24.251 5.551 97.766 30.032 125.143 53.413 13.97 9.803 27.292 36.873.307 36.702 0 0 21.997 20.648 15.687 37.069-6.311 16.421-43.491 7.011-43.491 7.011s30.673 14.226 26.25 30.929c-4.423 16.703-52.363 1.827-52.363 1.827s-71.346-26.087-115.682-13.415c0 0 68.417 19.862 90.218 28.905 21.801 9.043 29.742 33.38 29.742 33.38s-2.254 15.097-27.829 5.491c-25.575-9.607-53.038-19.495-69.74-23.918-16.703-4.423-55.77-14.115-93.121 3.459-37.351 17.574-89.517 31.006-125.656 27.539-36.137-3.466-78.997 58.94-89.742 143.912z"/><path fill="#ef9584" d="M2498.827 3157.202c-13.179-5.108-26.51-9.752-39.906-14.322-13.497-4.374-26.815-8.833-41.294-11.469-14.376-2.278-28.714-3.888-43.079-2.473-7.158.738-14.308 1.777-21.345 3.593-6.988 1.803-14.102 4.153-20.18 8.353a.582.582 0 0 0 .408 1.059c14.033-1.858 27.779-1.48 41.637-1.567a685.44 685.44 0 0 0 20.731-.259c6.907-.24 13.844-.191 20.615.373 6.698.632 13.545 1.992 20.39 3.399 6.858 1.373 13.72 2.9 20.567 4.503 13.738 3.064 27.402 6.546 41.108 9.903a.574.574 0 0 0 .348-1.093zM2526.627 3113.121c-15.497-5.757-31.126-11.104-46.751-16.511-15.693-5.196-31.415-10.296-47.31-15.068-7.985-2.352-15.889-4.777-24.294-6.711-8.51-1.825-17.045-2.396-25.487-2.259-8.445.219-16.812.906-25.089 2.208-8.275 1.272-16.477 2.981-24.5 5.615a.582.582 0 0 0 .15 1.135c16.687 1.211 33.068 1.427 49.196 2.488 8.046.514 16.025 1.021 23.784 1.979 7.842.964 15.927 2.694 23.929 4.407 16.023 3.621 32.03 7.611 48.007 11.698l48.026 12.112a.572.572 0 0 0 .339-1.093z"/><path fill="#ef9584" d="M2526.457 3113.668c26.984.171 13.663-26.899-.308-36.702-12.765-10.902-35.562-22.041-58.718-31.391 6.586 23.24 16.163 48.473 29.634 75.728 6.908 13.977 14.014 26.986 21.26 39.102 10.001.258 20.693-1.537 23.818-9.668 6.311-16.421-15.686-37.069-15.686-37.069z"/><path fill="#f6af9a" d="M2628.862 1498.898s-237.137 140.183-126.54 451.252c134.948 379.557 295.579 474.037 406.357 443.539 79.983-22.02 364.672-159.465 253.548-637.365-71.784-308.712-352.418-351.683-533.365-257.426z"/><path fill="#dd7c6f" d="M2736.214 2144.918c-7.079 0-13.752-1.55-19.311-4.349-15.091-7.597-21.673-23.053-17.608-41.345 12.18-54.81-3.748-89.59-3.911-89.936a4.212 4.212 0 0 1 7.622-3.586c.712 1.515 17.309 37.757 4.511 95.349-3.222 14.497 1.58 26.158 13.174 31.995 13.208 6.649 34.285 4.488 49.014-12.506a4.211 4.211 0 0 1 6.364 5.516c-11.497 13.266-26.406 18.862-39.855 18.862z"/><path fill="#21284f" d="M2781.679 2002.647c-15.131 0-25.64-3.643-26.178-3.833a4.914 4.914 0 0 1 3.272-9.266c.31.107 14.792 5.011 33.483 2.599 24.943-3.219 45.358-17.346 60.679-41.988a4.914 4.914 0 0 1 8.345 5.189c-21.242 34.167-48.829 44.202-68.229 46.603a92.66 92.66 0 0 1-11.372.696zM2618.123 2051.846c-11.984 0-25.707-3.191-39.654-12.954a4.913 4.913 0 1 1 5.634-8.05c38.57 26.999 75.761-3.632 76.132-3.944a4.912 4.912 0 0 1 6.922.594 4.912 4.912 0 0 1-.593 6.922c-.439.37-10.945 9.119-26.974 14.094-6.043 1.876-13.358 3.338-21.467 3.338z"/><path fill="#dd7c6f" d="M2739.596 2246.811c-14.359 0-23.527-1.341-24.186-1.44a4.211 4.211 0 0 1 1.255-8.328c.275.042 27.852 4.042 62.604-2.136 31.822-5.658 76.418-21.284 108.157-63.602a4.213 4.213 0 0 1 6.738 5.054c-33.455 44.605-80.297 60.996-113.702 66.891-15.684 2.765-29.814 3.561-40.866 3.561z"/><path fill="#ef9584" d="M2804.235 2081.76c2.898-11.096 10.022-20.614 19.542-27.008 15.473-10.392 44.877-29.229 71.228-40.94 37.899-16.844 61.059-31.582 77.903-4.211s-2.105 58.954-50.532 82.114c-43.381 20.749-130.695 38.118-118.141-9.955zM2592.447 2126.74c-4.597 1.128-9.31 2.434-14.052 3.856 13.508 26.742 27.124 51.162 40.782 73.399 42.348-15.099 61.358-40.47 50.692-67.64-11.744-29.916-37.144-19.5-77.422-9.615z"/><path fill="#21284f" d="M2718.765 1897.56a6.317 6.317 0 0 1-5.547-9.329c.463-.854 11.619-21.094 35.166-35.271 21.749-13.095 58.465-23.258 109.865 2.697a6.318 6.318 0 0 1-5.694 11.278c-37.13-18.75-69.986-19.81-97.654-3.151-20.63 12.421-30.479 30.291-30.576 30.47a6.324 6.324 0 0 1-5.56 3.306zM2533.471 1951.824a6.27 6.27 0 0 1-2.611-.57 6.305 6.305 0 0 1-3.139-8.335c.299-.662 7.534-16.356 25.541-27.796 16.398-10.418 45.201-19.213 89.283-1.939a6.317 6.317 0 0 1-4.609 11.763c-73.694-28.876-97.725 21.056-98.711 23.195a6.34 6.34 0 0 1-5.754 3.682z"/><path fill="#21284f" d="M2585.498 1672.722s-123.812 135.721-77.755 272.797c47.407 141.093 50.384 203.045 46.173 238.838-4.211 35.793-21.055 58.954 4.211 103.169 0 0-44.215-14.739-44.215-80.009 0-65.271 16.844-77.903-4.211-124.224s-120.013-244.237-92.642-400.044c27.371-155.807 170.545-261.081 286.347-246.343 0 0 201.93-109.523 416.722 33.672 214.793 143.195 203.52 442.062 248.486 610.685 33.693 126.349 345.353 303.237 336.93 623.32-8.423 320.083-101.079 593.839-54.751 682.283 0 0-88.444 8.423-130.56-219.004s-8.423-518.03-58.963-631.743-162.907-85.77-244.274-109.502c-101.079-29.481-147.407-147.407-122.137-320.083 14.079-96.208-50.54-219.005-84.232-252.698-33.694-33.692-353.286-71.626-425.129-181.114z"/><path fill="#f6af9a" d="M3020.594 1824.94s7.882-65.601 57.82-68.9c65.435-4.323 93.844 188.399 38.407 242.82-67.143 65.913-129.536-48.741-96.227-173.92z"/><path fill="#ef9584" d="M3073.975 1948.544a4.211 4.211 0 0 1-3.796-2.384c-17.352-36.008-21.629-66.816-12.712-91.57 9.083-25.211 28.604-34.409 29.43-34.789a4.209 4.209 0 0 1 5.583 2.071 4.212 4.212 0 0 1-2.06 5.579c-.302.143-17.326 8.376-25.101 30.193-8.025 22.52-3.837 51.07 12.446 84.859a4.211 4.211 0 0 1-3.79 6.041z"/><path fill="#ef9584" d="M3061.344 1912.747a4.21 4.21 0 0 1-4.193-4.65c1.604-15.235 11.681-43.547 38.176-41.658a4.211 4.211 0 0 1 3.9 4.5c-.164 2.319-2.168 4.081-4.5 3.9-25.026-1.771-29.043 32.677-29.2 34.145a4.215 4.215 0 0 1-4.183 3.763z"/></svg>