<svg xmlns="http://www.w3.org/2000/svg" viewBox="0 0 75 94.87"><g data-name="Layer 1"><path d="M60.56,47.88c4,24.19-8.3,41.8-22.65,41.84-22.18,0-18.72-16-18.72-40.55S22,6,36.35,6,56.32,22.41,60.56,47.88Z" style="mix-blend-mode:multiply" fill="#ffc2e7" opacity=".25"/><path fill="#cfe9ff" d="M52.53,42.8C51.57,40.13,50.92,29,51,26,51.62,12.34,46,6.91,34.73,6.91s-16.56,5.43-16,19.1c.12,2.95-.53,14.12-1.48,16.79-4.87,13.64-4.55,28.76-.59,36.25,2.64,5,9.3,11,18.11,11.13C45,89.66,50.37,84,52.94,79.16l.17-.11C56.94,71.49,57.39,56.44,52.53,42.8Z"/><path fill="#a0d9eb" d="M53.92,42.8c-1-2.67-2.2-13.55-2.08-16.5.58-13.67-4.5-19.39-15.71-19.39h-.7C46.18,7.14,51.61,12.62,51,26c-.12,2.95.53,14.12,1.49,16.79,4.86,13.64,4.41,28.69.58,36.25l-.17.11c-2.53,4.73-7.79,10.32-17.7,11,.31,0,.63,0,.95,0,10.2-.52,15.58-6.22,18.15-11l.16-.11C58.34,71.49,58.78,56.44,53.92,42.8Z"/><path fill="#a0d9eb" d="M35,44.12c-3.12.34-11.76-1.28-13.26-8.13C19.35,26.36,17.55,8.44,33.48,8.44c14,.51,15.82,7.93,15.68,12s4.41,16.65-5.39,21A30.45,30.45,0,0,1,35,44.12Z"/><path fill="#ffd8ad" d="M23,25.21s-3.9-3.38-4.1,2c-.18,5.1,4.95,3.89,5.26,3.86S23,25.21,23,25.21Z"/><path fill="#ffad87" d="M21,29.87c-.58-.39-1.83-2.61-.48-4.06.9-1,2.66.86,2.56,1.5a23.54,23.54,0,0,1,.75,2.42C23.6,30.28,21.69,30.32,21,29.87Z"/><path fill="#ffd8ad" d="M47.18,25.5s4-3.29,4,2.13c.06,5.11-5,3.78-5.35,3.74S47.18,25.5,47.18,25.5Z"/><path fill="#ffad87" d="M49,30.21c.59-.38,1.89-2.57.57-4.06-.86-1-2.67.8-2.58,1.45a24.81,24.81,0,0,0-.82,2.4C46.45,30.55,48.36,30.64,49,30.21Z"/><path fill="#ffd8ad" d="M47.88,29.77a10.38,10.38,0,0,1-.37-3.19c.36-2.65,1-4.84.64-7C46.8,12.42,42.47,9.49,35.27,9.4S23.52,12,22.16,19.31c-.39,2.12.18,4.31.47,7a10.15,10.15,0,0,1-.44,3.19c-1.16,5.66.67,8.76,4.8,10.75A18.23,18.23,0,0,0,34.89,42a19.32,19.32,0,0,0,5.88-.86C46.4,39.41,49.07,36.34,47.88,29.77Z"/><path fill="#ffd8ad" d="M47.88,29.77a10.38,10.38,0,0,1-.37-3.19c.36-2.65,1-4.84.64-7C46.8,12.42,42.47,9.49,35.27,9.4S23.52,12,22.16,19.31c-.39,2.12.18,4.31.47,7a10.15,10.15,0,0,1-.44,3.19c-1.16,5.66.67,8.76,4.8,10.75A18.23,18.23,0,0,0,34.89,42a19.32,19.32,0,0,0,5.88-.86C46.4,39.41,49.07,36.34,47.88,29.77Z"/><path fill="#ffba94" d="M22.49,28.1a5.63,5.63,0,0,0,.14-1.82c-.29-2.56-.82-4.7-.5-6.75l-.06.25c-.39,2.12.18,4.31.48,7A5.1,5.1,0,0,1,22.49,28.1Z"/><path fill="#f5a67f" d="M40.77,41.12a19.32,19.32,0,0,1-5.88.86A18.23,18.23,0,0,1,27,40.22c-4-1.94-5.85-4.93-4.88-10.29h0c-1.17,5.66.67,8.76,4.8,10.75C29,41.69,31.62,43,34.8,43c2.23,0,4.19-.93,5.89-1.45,4.24-1.29,6.8-3.35,7.29-7.09C47.34,37.94,44.83,39.89,40.77,41.12Z"/><path fill="#ffba94" d="M40.77,41.12c5.63-1.71,8.3-4.78,7.11-11.35a10.38,10.38,0,0,1-.37-3.19c.36-2.65,1-4.84.64-7C46.88,12.82,43,9.83,36.47,9.44c5.11,1.08,7.5,3.13,8.76,4.69a12.33,12.33,0,0,1,2.16,9.32c-.74,2.87-.78,4-.22,6.22C48.11,33.76,47.75,37.63,40.77,41.12Z"/><path fill="#f19a72" d="M35,29.51c-2.49,0-2.57,1.54-2.58,1.6h0a.43.43,0,0,0,.31.42h.08a.42.42,0,0,0,.45-.32,1.15,1.15,0,0,1,.65-.69A2.87,2.87,0,0,1,35,30.38c1.49,0,1.68.84,1.69.87a.42.42,0,0,0,.42.36h.08a.43.43,0,0,0,.35-.5C37.56,31,37.27,29.54,35,29.51Z"/><path fill="#ffba94" d="M28.78,31a2.59,2.59,0,1,1-2.56-2.62A2.59,2.59,0,0,1,28.78,31Z"/><path fill="#ffba94" d="M46.44,31.19a2.59,2.59,0,1,1-2.56-2.62A2.59,2.59,0,0,1,46.44,31.19Z"/><path fill="#f7a165" d="M35.76,7.59a3.44,3.44,0,0,1,1.9-2.65c2.45-1.13,6.12,1.78,5.3,4.53-.42,1.38-2.09,3.77-6.33,3.66a5,5,0,0,0-3.44,1A2.32,2.32,0,0,1,35,11.19c2-.55,4.27-.88,4-2.67A1.89,1.89,0,0,0,35.76,7.59Z"/><path fill="#f7a165" d="M39.78,4.83c1.51.86,2.63,2.55,2.13,4.21-.41,1.37-2.08,3.76-6.32,3.65a2.89,2.89,0,0,0-2.4,1.44,5,5,0,0,1,3.44-1c4.24.11,5.91-2.28,6.33-3.66C43.56,7.46,41.76,5.36,39.78,4.83Z" opacity=".3"/><path fill="#f46265" d="M37.93,37.2a3.07,3.07,0,1,1-3.06-3.36A3.21,3.21,0,0,1,37.93,37.2Z"/><path fill="#ff8689" d="M37.93,37.2c0-.07,0-.14,0-.21-1.12-.56-2.26.26-2.94.26s-1.53-1-2.88-.27l-.28.16v.06a3.07,3.07,0,1,0,6.11,0Z"/><path fill="#c8c5f0" d="M38.22,37.39A3.35,3.35,0,1,1,34.87,34,3.34,3.34,0,0,1,38.22,37.39Z"/><path fill="#fff" d="M34.87,41.93a2.35,2.35,0,1,1,2.35-2.35A2.35,2.35,0,0,1,34.87,41.93Zm0-4.11a1.76,1.76,0,1,0,1.76,1.76A1.76,1.76,0,0,0,34.87,37.82Z"/><path fill="#fff" d="M36.27,37.39a1.4,1.4,0,1,1-1.4-1.4A1.4,1.4,0,0,1,36.27,37.39Z"/><path fill="#7d4a42" d="M39.75,24.23c.68-1.52,2.33-1,3.28-.29a1,1,0,0,0,1,0c-.33,1-1.18.63-1.76.21a2,2,0,0,0-2.52.08C39.85,23.94,40,24.05,39.75,24.23Z"/><path fill="#7d4a42" d="M43,25a1.73,1.73,0,1,1-1.73-1.73A1.72,1.72,0,0,1,43,25Z"/><path fill="#fff" d="M39.94,24.92c.31.27,1.81-.65,1.06-1.31C40.68,23.33,39.47,24.5,39.94,24.92Z"/><path fill="#7d4a42" d="M30.29,24.23c-.69-1.52-2.33-1-3.28-.29a1,1,0,0,1-1,0c.34,1,1.18.63,1.76.21a2.06,2.06,0,0,1,2.53.08C30.18,23.94,30,24.05,30.29,24.23Z"/><path fill="#7d4a42" d="M27,25a1.74,1.74,0,1,0,1.73-1.73A1.73,1.73,0,0,0,27,25Z"/><path fill="#fff" d="M27.45,24.92c.31.27,1.81-.65,1.06-1.31C28.19,23.33,27,24.5,27.45,24.92Z"/><path fill="#a0d9eb" d="M55.27,72.34q.12-.57.21-1.14c-2.33-7.55-10.9-24.3-38-29.2-.07.31-.15.59-.22.8h0c4.63,1.54,20.23,7,25.11,12S53.07,67.55,55.27,72.34Z"/><path fill="#a0d9eb" d="M51.67,37.76C45.29,40,40.32,45,37.22,49.45c-.33.46,1,1.86,1,.95,4.19-5.09,9.47-9.5,13.62-11.19C51.78,38.75,51.73,38.27,51.67,37.76Z"/></g></svg>