<svg xmlns="http://www.w3.org/2000/svg" viewBox="0 0 727.82 587.15"><g data-name="1"><g data-name="82"><path fill="#e7f2f2" fill-rule="evenodd" d="M428.74 552.38c72.62-7.33 125.22-36.1 109.74-85.76C522 413.67 413.05 366 397.11 352c-33.77-29.78-13.25-54.61 37.1-71.6 83.73-28.25 134.83-128 94.47-191C486.45 23.37 309.14 5.45 260 88.91c-19.61 32.29-52.58 47-113.14 37.15-85.39-13.82-129.83 40.82-87.27 79.68 93.38 85.26 27.92 99.54 33 185.4C97.33 472 262.88 569.12 428.74 552.38Z"/><path fill="#e7f2f2" fill-rule="evenodd" d="M110.2 108.11C72.6 92.89 59.46 67.58 80.85 51.56s69.21-16.66 106.81-1.45S238.4 90.64 217 106.66s-69.2 16.66-106.8 1.45Z"/><ellipse cx="540.61" cy="340.74" fill="#e7f2f2" rx="57.9" ry="119.12" transform="rotate(-80.82 540.636 340.739)"/><path fill="#059283" fill-rule="evenodd" d="m428.66 297.49-36.46 64.89a2.85 2.85 0 0 1-2.44 1.46l-74.46.87a2.85 2.85 0 0 1-2.61-1.64l-37.85-63.81a2.87 2.87 0 0 1 0-2.85l36.46-64.9a2.87 2.87 0 0 1 2.44-1.45l74.46-.87a2.86 2.86 0 0 1 2.61 1.63l37.85 63.82a2.82 2.82 0 0 1 0 2.85Zm-23.17 29.67 17.44-31-36.31-61.26-71.2.83-34.87 62.06L316.86 359l71.2-.83Zm-2.7-191.97-24.72 44a2.85 2.85 0 0 1-2.44 1.45l-50.5.59a2.85 2.85 0 0 1-2.58-1.57l-25.65-43.25a2.85 2.85 0 0 1 0-2.85l24.72-44A2.85 2.85 0 0 1 324 88.1l50.49-.6a2.85 2.85 0 0 1 2.61 1.64l25.63 43.19a2.84 2.84 0 0 1 0 2.86Zm-17.3 19.21 11.56-20.58L373 93.21l-47.23.56-23.13 41.16 24.09 40.6 47.23-.55Z"/><path fill="#20c4a3" fill-rule="evenodd" d="M439.93 428.87V432h14.66v-3.15h-14.66ZM463.5 432l42.3-.07v-3.16l-42.3.07Z"/><path fill="#20c4a3" d="M439.95 440.45h65.86v3.15h-65.86z" transform="rotate(-.09 489.842 452.385)"/><path fill="#20c4a3" d="M439.96 446.84h65.86v3.15h-65.86z" transform="rotate(-.1 457.991 430.118)"/><path fill="#20c4a3" fill-rule="evenodd" d="M440 453.63v3.15l45-.07v-3.15l-45 .07Zm53.93 3.07h11.94v-3.16h-11.93Z"/><path fill="#20c4a3" d="M452.27 372.48h232.29v4.51H452.27z" transform="translate(-.62 .95)"/><path fill="#20c4a3" d="M467.8 381.73h56.25v4.51H467.8z" transform="translate(-.64 .83)"/><path fill="#20c4a3" d="M545.98 381.55h120.65v4.51H545.98z" transform="rotate(-.09 636.305 401.57)"/><path fill="#20c4a3" fill-rule="evenodd" d="M120.14 252.79v3.15l113.09-.19v-3.15l-113.09.19Zm130.77 2.93h20.48v-3.16H250.9Zm-130.76 3.46v3.15l52.74-.09v-3.15l-52.73.09Zm70.41 3 80.84-.13v-3.15l-80.85.13Z"/><path fill="#20c4a3" d="M120.12 240.57h151.25v3.15H120.12z" transform="rotate(-.1 188.871 235.078)"/><path fill="#20c4a3" d="M120.17 267.04h151.25v3.15H120.17z" transform="rotate(-.09 203.498 280.273)"/><path fill="#059283" fill-rule="evenodd" d="M295.56 328.79a2.84 2.84 0 1 1 3 4.81l-44.9 28.12a2.84 2.84 0 0 1-3-4.81Zm51.94-150.65a2.85 2.85 0 1 1 5.69-.07l.64 54.37a2.85 2.85 0 1 1-5.69.06Zm2.8 238.65a2.85 2.85 0 0 0 5.69-.07l-.64-54.37a2.85 2.85 0 1 0-5.69.07Z"/><path fill="#ec6a71" fill-rule="evenodd" d="m388.88 286.54.22 18.46a3.32 3.32 0 0 1-3.27 3.35l-20.59.24.25 20.58a3.32 3.32 0 0 1-3.27 3.35l-18.42.21a3.31 3.31 0 0 1-3.35-3.27l-.24-20.58-20.58.24a3.31 3.31 0 0 1-3.35-3.27l-.22-18.42a3.33 3.33 0 0 1 3.27-3.35l20.58-.24-.24-20.58a3.31 3.31 0 0 1 3.27-3.34l18.42-.22a3.32 3.32 0 0 1 3.35 3.27l.24 20.58 20.58-.24a3.32 3.32 0 0 1 3.35 3.23Z"/><path fill="#ddcbc5" d="M513.07 275.72h3.48v80.05h-3.48zm91.64 0h3.48v80.05h-3.48z"/><rect width="135.74" height="7.09" x="492.76" y="269.44" fill="#776e6a" rx="1.4"/><path fill="#908581" fill-rule="evenodd" d="M621.3 269.44a9.23 9.23 0 0 1-8 4.68H492.76v-3.28a1.4 1.4 0 0 1 1.39-1.4Z"/><rect width="53.99" height="10.25" x="455.35" y="298.77" fill="#776e6a" rx="2.02"/><path fill="#908581" fill-rule="evenodd" d="M457.37 298.77h50v3.3a2 2 0 0 1-2 2h-50v-3.31a2 2 0 0 1 2-1.99Z"/><path fill="#837a76" d="M475.88 309.01h12.94v4.2h-12.94z"/><path fill="#b5a6a0" d="M480.6 313.22h3.48v19.11h-3.48z"/><path fill="#c8b9b3" d="M475.88 332.33h12.94v4.2h-12.94z"/><path fill="#ddcbc5" fill-rule="evenodd" d="M482.34 335.55c12.9 0 23.35 4.1 23.35 9.16a3.9 3.9 0 0 1-.17 1.12c-1.42-3.54-11.25-6.28-23.18-6.28s-21.76 2.74-23.17 6.28a3.9 3.9 0 0 1-.17-1.12c0-5.06 10.45-9.16 23.34-9.16Z"/><path fill="#ddcbc5" d="M480.6 318.99h3.48v13.33h-3.48z"/><circle cx="459.56" cy="349.24" r="6.53" fill="#908581"/><path fill="#e2d8d6" fill-rule="evenodd" d="M459.56 352.49a3.25 3.25 0 1 0-3.26-3.25 3.26 3.26 0 0 0 3.26 3.25Z"/><path fill="#908581" fill-rule="evenodd" d="M505.13 355.77a6.54 6.54 0 1 0-6.53-6.53 6.55 6.55 0 0 0 6.53 6.53Z"/><path fill="#e2d8d6" fill-rule="evenodd" d="M505.13 352.49a3.25 3.25 0 1 0-3.25-3.25 3.26 3.26 0 0 0 3.25 3.25Z"/><path fill="#605956" d="M475.88 309.01h12.94v1.94h-12.94z"/><rect width="53.99" height="10.25" x="624.67" y="298.77" fill="#776e6a" rx="2.02"/><path fill="#908581" fill-rule="evenodd" d="M626.68 298.77h50v3.3a2 2 0 0 1-2 2h-50v-3.31a2 2 0 0 1 2-1.99Z"/><path fill="#837a76" d="M645.19 309.01h12.94v4.2h-12.94z"/><path fill="#b5a6a0" d="M649.92 313.22h3.48v19.11h-3.48z"/><path fill="#c8b9b3" d="M645.19 332.33h12.94v4.2h-12.94z"/><path fill="#ddcbc5" fill-rule="evenodd" d="M651.66 335.55c12.89 0 23.35 4.1 23.35 9.16a3.59 3.59 0 0 1-.18 1.12c-1.41-3.54-11.25-6.28-23.17-6.28s-21.76 2.74-23.17 6.28a3.59 3.59 0 0 1-.18-1.12c0-5.06 10.45-9.16 23.35-9.16Z"/><path fill="#ddcbc5" d="M649.92 318.99h3.48v13.33h-3.48z"/><path fill="#908581" fill-rule="evenodd" d="M628.87 355.77a6.54 6.54 0 1 0-6.54-6.53 6.54 6.54 0 0 0 6.54 6.53Z"/><path fill="#e2d8d6" fill-rule="evenodd" d="M628.87 352.49a3.25 3.25 0 1 0-3.25-3.25 3.26 3.26 0 0 0 3.25 3.25Z"/><path fill="#908581" fill-rule="evenodd" d="M674.45 355.77a6.54 6.54 0 1 0-6.54-6.53 6.54 6.54 0 0 0 6.54 6.53Z"/><path fill="#e2d8d6" fill-rule="evenodd" d="M674.45 352.49a3.25 3.25 0 1 0-3.25-3.25 3.26 3.26 0 0 0 3.25 3.25Z"/><path fill="#605956" d="M645.19 309.01h12.94v1.94h-12.94z"/><path fill="#7a6d6a" d="m567.47 252.01-.16 10.88h-6.44l-.17-1.77-.71-7.79-.08-.9 7.56-.42z"/><path d="m567.47 252.01-.16 10.88h-6.44l-.17-1.77 4.63-.3-.14-6.64-5.2-.85-.08-.9 7.56-.42z" style="mix-blend-mode:overlay" opacity=".4"/><path fill="#7a6d6a" d="m609.73 194.75-2.52 58.18h-87.26l-.08-2.06-2.06-56.12h91.92zm-16.13 67.67-.03.12-2.08 7.16-.02.09h-54.11l-.5-1.52-1.11-3.33-.71-2.13 58.56-.39z"/><path d="m524.79 248.47-3.88-51.78 83.23 2.54-79.35 49.24zm68.78 14.07-2.08 7.16-54.63-1.43-1.11-3.33h53.78l4.04-2.4z" style="mix-blend-mode:overlay" opacity=".4"/><path fill="#cbe7e7" d="m604.69 199.29-2.24 49.1h-77.7l-.05-1.44-1.85-47.66h81.84z"/><path fill="#edb69a" d="M578.21 228.23a22.55 22.55 0 0 1-7.27 8.13l-.35.26a19.87 19.87 0 0 0 2.88 10.1l-5 .23-4.74.22-7.15.33a48 48 0 0 0 1.11-6.9A14.3 14.3 0 0 1 550 239c-1.83-1.12-2.94-3-2.71-6.09a11.77 11.77 0 0 1 .19-1.48c.07-.37.13-.74.19-1.1.12-.7.22-1.39.31-2.07-.46-.1-1-.22-1.44-.36a6.31 6.31 0 0 1-2.13-1 1.26 1.26 0 0 1-.45-.68c-.13-.73 1.59-2.5 2.75-4.48.59-1 1.13-2.1 1.56-3a1.93 1.93 0 0 0 0-.24 15.27 15.27 0 0 1 2.13-8.64c4.85-7.68 22.18-11.54 29.28-1.47 4.65 6.53.88 15.51-1.47 19.84Z"/><path fill="#ec6a71" d="m568.49 247-4.74.22c-.07-2.68.21-5.88-1.72-10.92-.44-2.76-3.3-3.1-6.79-3.88-6-1.34-7 .68-8 .51a11.77 11.77 0 0 1 .19-1.48c.07-.37.13-.74.19-1.1a13.83 13.83 0 0 1 9.51-2.78c1.12.11 4.65 1.75 4.26-.58-.75-4.53-5.8-5.58-8.72-4.65-2.4.75-4.8 3.65-6.18 5.58a6.31 6.31 0 0 1-2.13-1 17 17 0 0 1 7-7.49c6-3.3 13.77 2.33 14.74 6.2.9 3.37.96 16.21 2.39 21.37Z"/><path fill="#298396" d="M574.66 226.2a11.27 11.27 0 0 0-22.45 1.42v.39a11 11 0 0 0 .55 3.1c.09.3.21.6.33.89a11.29 11.29 0 0 0 9.79 6.87h.59a11.29 11.29 0 0 0 11.27-11.27 11 11 0 0 0-.08-1.4Zm-4.23 8.43a9.93 9.93 0 0 1-6.95 2.87 8.77 8.77 0 0 1-1-.06 9.83 9.83 0 0 1-6.65-3.62 9.48 9.48 0 0 1-1-1.55 9.2 9.2 0 0 1-.78-1.92 9.85 9.85 0 0 1-.39-2.67v-.06a9.9 9.9 0 0 1 9.88-9.88 9.29 9.29 0 0 1 1.5.12 9.89 9.89 0 0 1 8.37 9.76 10.13 10.13 0 0 1-.09 1.36 9.83 9.83 0 0 1-2.89 5.65Z"/><path d="M525.89 202.36h18.42v1.84h-18.42zm0 3.91h13.28v1.84h-13.28zm0 3.91h15.77v1.84h-15.77zm0 3.91h18.42v1.84h-18.42zm0 3.91h11.46v1.84h-11.46zm58.7-16.32h18.42v1.84h-18.42zm7.61 3.91h10.81v1.84H592.2zm-2.72 3.91h13.53v1.84h-13.53zm3.85 3.91h9.68v1.84h-9.68zm-4.31 3.91h13.99v1.84h-13.99z" style="mix-blend-mode:overlay" fill="#fff" opacity=".7"/><path fill="#7a6d6a" d="M586.53 222.08h13.99v1.84h-13.99zm0 4.07h13.99v1.84h-13.99zm0 4.08h13.99v1.84h-13.99z" opacity=".5"/><path fill="#298396" d="M526.7 236.13h13.99v1.84H526.7zm0 4.08h18.13v1.84H526.7zm0 4.08h22.89v1.84H526.7z" opacity=".5"/><path fill="#ec6a71" d="M583.74 239.16h15.32v5.04h-15.32z" opacity=".5"/><path d="m609.73 194.75-2.52 58.18h-87.27l84.75-2.91 5.04-55.27z" style="mix-blend-mode:overlay" opacity=".4"/><path d="m562.83 199.29-27.55 49.1h-7.07l19.92-49.1h14.7zm25.33 0-24.64 49.1h-16.1l28.23-49.1h12.51z" style="mix-blend-mode:overlay" fill="#fff" opacity=".5"/><path fill="#fff" d="M568.51 221.34a8 8 0 0 0-4.53-1.75h-.5a8.11 8.11 0 0 0-2.52.4 8.05 8.05 0 0 0-5.52 7.5v.14a8 8 0 0 0 1.35 4.47q.27.39.57.75a8.06 8.06 0 0 0 4.46 2.65 7.61 7.61 0 0 0 1.66.18 8 8 0 0 0 3.54-.83 8 8 0 0 0 1.49-13.5Zm-1.61 11.76a6.46 6.46 0 0 1-9.2-2.59 6.35 6.35 0 0 1-.62-2.08 5.32 5.32 0 0 1-.06-.81v-.11a6.47 6.47 0 0 1 5.77-6.31h.69a6.46 6.46 0 0 1 3.42 11.94Z" opacity=".7"/><path style="mix-blend-mode:overlay" d="m602.01 199.29-76.22 3.07-1.09 44.59-1.85-47.66h79.16z" opacity=".7"/><path d="m519.22 195.79.65 55.08-2.06-56.12h59.43l-58.02 1.04z" style="mix-blend-mode:overlay" fill="#fff" opacity=".5"/><path fill="#7a6d6a" d="M634.24 208.4a.46.46 0 0 1-.43-.31c-.8-2.41-3-2.41-4.32-2.41-.93 0-4 1.33-5.93 2.22a.45.45 0 0 1-.6-.21.46.46 0 0 1 .21-.61c.5-.23 4.89-2.31 6.32-2.31s4.17 0 5.18 3a.44.44 0 0 1-.28.57Z"/><path fill="#202d5a" d="M678.4 209s0 .2-.15.54c-.77 2.59-4.59 13.45-14 10.71a12.75 12.75 0 0 1-3.63-1.7 15.63 15.63 0 0 1-4.24-4.41 23.5 23.5 0 0 1-1.92-3.61 36.9 36.9 0 0 1-2.16-7.32 52.7 52.7 0 0 1-.92-10.54 30.37 30.37 0 0 1 2.62-2.77c.55-.5 1.15-1 1.8-1.54 3.06-2.37 7.05-4.19 9.81-.69 5 6.4 2.54 13 4.27 17.46s8.52 3.87 8.52 3.87Z"/><path d="M678.25 209.55c-.77 2.59-4.59 13.45-14 10.71a12.75 12.75 0 0 1-3.63-1.7 15.63 15.63 0 0 1-4.24-4.41 23.5 23.5 0 0 1-1.92-3.61 36.9 36.9 0 0 1-2.16-7.32 52.7 52.7 0 0 1-.92-10.54 30.37 30.37 0 0 1 2.62-2.77c.55-.5 1.15-1 1.8-1.54 1.79.55 6.13 4.18 6.13 9 0 8-2.53 15.32 2.32 17.26 4.37 1.76 11.75-.63 14-5.08Z" style="mix-blend-mode:overlay" opacity=".4"/><path fill="#edb69a" d="m596.55 251.7-1.08 2.8-.28.75a7.44 7.44 0 0 1-1 .05 15.37 15.37 0 0 1-2.31-.15c-.32 0-.67-.1-1-.17a15.78 15.78 0 0 1-3.62-1.25 24 24 0 0 1-2.36-1.27l-.54-.33c-.36-.23-.66-.43-.9-.61a5.35 5.35 0 0 1-.72-.61.76.76 0 0 1-.16-.26.18.18 0 0 1 0-.2.61.61 0 0 1 .46-.08 9.55 9.55 0 0 1 2.11.62c-.48-.24-3.8-1.93-3.2-3 .21-.39 1.52.23 2.59.83-1.24-.78-2.74-1.89-2.26-2.41.78-.82 3.67 1.27 4.23 1.69-.5-.42-2.88-2.42-2.41-3.09s4.11 2.34 4.11 2.34 2.77 2.09 3.21.93c.3-.78-.15-2.24-.1-3.09 0-.4.15-.67.54-.64a1.44 1.44 0 0 1 .73.54 20.8 20.8 0 0 1 2.1 3.29c.15.26.29.52.42.77s.2.39.3.57v.07l.32.61.32.66a3.06 3.06 0 0 0 .5.64Zm31.9 85.13.24 1.16 1.18 5.75.49 2.36c2.95 1.4 5.15.93 6.23-2.33l-.26-1.5-.85-4.89-.09-.53-3.64.24Z"/><path d="m628.69 338 1.18 5.75a11.49 11.49 0 0 0 6.46-1.47l-.85-4.89-3.73-.29Z" style="mix-blend-mode:overlay" opacity=".4"/><path fill="#3b82fd" d="M638.12 347.58a1.74 1.74 0 0 1-.68 1.58L623.53 353a.81.81 0 0 1-1-1.09c.07-.16.15-.32.24-.49a9 9 0 0 1 1.8-2.38 12.13 12.13 0 0 1 2.31-1.76 9 9 0 0 0 3.07-2.51c3.6 1.2 5.69-.1 6.52-.84h.06v-.05l.11.18a8.71 8.71 0 0 1 1.48 3.52Z"/><path d="M638.12 347.58a1.74 1.74 0 0 1-.68 1.58L623.53 353a.81.81 0 0 1-1-1.09c.07-.16.15-.32.24-.49 3.44-.58 9.39-1.85 11.11-3.18a6.74 6.74 0 0 0 2.59-4.31.62.62 0 0 0 0-.09h.05l.16.13a8.71 8.71 0 0 1 1.44 3.61Z" style="mix-blend-mode:overlay" opacity=".4"/><path fill="#edb69a" d="M610.78 337.4v1.17l-.17 5.88-.07 2.4c2.54 2 4.79 2.09 6.6-.82l.1-1.53.3-4.95v-.53l-3.59-.61Z"/><path d="m610.74 338.57-.17 5.88a11.43 11.43 0 0 0 6.63.05l.3-4.95-3.56-1.14Z" style="mix-blend-mode:overlay" opacity=".4"/><path fill="#3b82fd" d="M617.7 350.08a1.73 1.73 0 0 1-1 1.39l-14.42.49a.8.8 0 0 1-.67-1.28 4.18 4.18 0 0 1 .34-.42 9.35 9.35 0 0 1 2.3-1.9 12.25 12.25 0 0 1 2.66-1.18 9.11 9.11 0 0 0 3.56-1.73c3.22 2 5.57 1.21 6.54.68h.13s0 .11.07.2a8.54 8.54 0 0 1 .49 3.75Z"/><path d="M617.7 350.08a1.73 1.73 0 0 1-1 1.39l-14.42.49a.8.8 0 0 1-.67-1.28 4.18 4.18 0 0 1 .34-.42c3.48.22 9.56.37 11.55-.53a6.71 6.71 0 0 0 3.51-3.6v-.08.05l.13.16a8.54 8.54 0 0 1 .56 3.82Z" style="mix-blend-mode:overlay" opacity=".4"/><path fill="#fff" d="M634.45 232.73s-1.34-3.35.66-4.91 10.5-2.46 12.28-1.12.23 5.8.23 5.8Z"/><path fill="#edb69a" d="m645.34 230.06-3.56.42-4.59.54-.41-2.86-.75-5.28 5.81-.58 1.7 3.77.26.58 1.54 3.41z"/><path d="M643 228.4a1.46 1.46 0 0 0-.12-1.26 12.56 12.56 0 0 1-6.13 1l-.75-5.28 5.81-.58 1.7 3.78.26.56 1.53 3.42-3.55.42a17.85 17.85 0 0 1 1.25-2.06Z" style="mix-blend-mode:overlay" opacity=".4"/><path fill="#202d5a" d="M657.33 201.41c.95 3.12.88 6.1-.46 7.6-4.65 5.24-5.61-4.53-11-6.59-8.73-3.3-10-6.72-10-6.72a23.12 23.12 0 0 1 2.33-2c-.85-.89-1.43-1.52-1.43-1.52a31 31 0 0 1-2.75 1.5 7.11 7.11 0 0 1 2-2.27 18.82 18.82 0 0 1 2.48-1.58c5.15-2.73 11.11-2.76 15.58.12a14.33 14.33 0 0 1 5.8 7.82 7.14 7.14 0 0 1-2.55 3.64Z"/><path d="m596.55 251.7-1.08 2.8-.28.75a7.44 7.44 0 0 1-1 .05 15.37 15.37 0 0 1-2.31-.15c-.32 0-.67-.1-1-.17a15.78 15.78 0 0 1-3.62-1.25c2.05.22 4.66.43 5 .08a7.23 7.23 0 0 0 1.74-4.07 18.6 18.6 0 0 0-1.38-4.66 20.8 20.8 0 0 1 2.1 3.29c.15.26.29.52.42.77s.2.39.3.57v.07l.32.61.32.66a3.06 3.06 0 0 0 .47.65Z" style="mix-blend-mode:overlay" opacity=".2"/><path fill="#059283" d="m647.66 276.79-4.58 4.35-4.57 4.34-.67.64-2 1.86L621 302.1l-.57 19.61-.6 20.72a20.47 20.47 0 0 1-10.66 1.17l-.08-.39c-.76-3.87-6.85-35.46-6-44.33a6.81 6.81 0 0 1 .31-1.53c2.23-6.11 9.4-10.38 16.87-15.9a23.41 23.41 0 0 0 3.4-3.14c.52-.58 1-1.18 1.5-1.8a42.81 42.81 0 0 0 3.37-5.07 51.22 51.22 0 0 0 3.36-7.06l14.55-3.1.12 1.58.63 8.5Z"/><path d="M624.64 277.24c.19-.24.39-.48.58-.73-.22.25-.39.49-.58.73ZM635.87 288a4.76 4.76 0 0 1-.91.35c-3.34.91-7.64 0-9.25-2-.05-.07-.11-.14-.16-.22a2.38 2.38 0 0 1-.3-.43 2.51 2.51 0 0 1-.22-1.22c.19-3.3 5.24-3.49 4.46-4.46-.58-.72-3.76-.8-5.81-1.68a23.41 23.41 0 0 1-3.4 3.14c-7.47 5.52-14.64 9.79-16.87 15.9a6.81 6.81 0 0 0-.31 1.53c2.2-.59 6.75-1.59 10.06-.92a94.62 94.62 0 0 0 4.31 23.92c.58 10.28.87 16.87 0 18.1-1 1.4-5.38 2.57-8.44 3.23l.08.39a20.47 20.47 0 0 0 10.66-1.17L621 302.1l14.87-14.1Z" style="mix-blend-mode:overlay" opacity=".4"/><path fill="#059283" d="M664.53 288c-3.1 6-30.93 15-30.93 15l4.46 37.62c-3.75 1.68-7.3 2.45-10.57 1.84 0 0 0-.12-.13-.34-1.34-3.57-12.64-34-11.2-43.58a3.86 3.86 0 0 1 .09-.49 13.22 13.22 0 0 1 2.73-5.29 40.83 40.83 0 0 1 6.73-6.47c6.22-4.93 13.35-8.94 14.58-10.73a19.5 19.5 0 0 0 1.93-4.25c1.33-3.76 2.34-8.16 2.34-8.16l16.68-2.91s1.49 5.06 2.68 11c1.28 6.37 2.22 13.69.61 16.76Z"/><path d="M664.53 288c-3.1 6-30.93 15-30.93 15l4.46 37.62c-3.75 1.68-7.3 2.45-10.57 1.84 0 0 0-.12-.13-.34 2.45-.65 7-2 7.6-3.44.66-1.66-4.05-25.44-4.71-34.1-5.36.4-11.31-3.8-14.09-6a3.86 3.86 0 0 1 .09-.49 13.22 13.22 0 0 1 2.73-5.29l16.36 3.52-1.18 2.07c7.59-4.46 23.54-9.83 25.43-11.84 3.1-3.29 1.55-7.95 1.55-7.95s-14.1 2.27-18.06 2.51h-.56c-1.8 0-2.63 2.3-4 4.33a7.2 7.2 0 0 1-2.64 2.5 5.53 5.53 0 0 1-.91.35c-3.34.91-7.64 0-9.25-2a2.77 2.77 0 0 1-.64-1.91c.19-3.3 5.23-3.49 4.46-4.46-.58-.72-3.76-.8-5.81-1.68a40.11 40.11 0 0 0 4.87-6.87l13.63-.06h5l16.67-.08c1.3 6.38 2.24 13.7.63 16.77Z" style="mix-blend-mode:overlay" opacity=".4"/><path fill="#edb69a" d="M654.13 211.73a16.53 16.53 0 0 1-.55 2.26 17 17 0 0 1-5.43 8 15.38 15.38 0 0 1-18.51 1.22 10.52 10.52 0 0 1-4.47-5c-2.51-7.73 1.13-10.84 1.73-15.66.57-4.73 3.94-8.59 16.74-6.66l1 .16a11.09 11.09 0 0 1 8.24 6.28 13.65 13.65 0 0 1 1 2.64 15 15 0 0 1 .33 1.67 16.32 16.32 0 0 1-.08 5.09Z"/><path fill="#f1ecec" d="m634 231.64-.06.79-1 12.94s-.84 3.59-2.17 8.18a110.35 110.35 0 0 1-4.43 12.79c-1.55 3.53-3.21 6.2-4.78 6.63h-.16c-7.56 1.36-28.79-15.81-28.79-15.81l3.28-7.92s18.62 11.44 20.66 9.21 5.14-18.58 6.69-21.23a11.13 11.13 0 0 1 6.44-4.85l.48-.14a17.13 17.13 0 0 1 2.65-.52c.72-.07 1.19-.07 1.19-.07Z"/><path d="m634 231.64-1.07 13.73s-6.28 26.69-11.54 27.64c-7.56 1.36-28.79-15.81-28.79-15.81 1.66 1 21.8 13.12 26.07 13.12 4.46 0 3.27-10.55 3.27-10.55s-1.56-13.4 2.68-21.43c1.31-2.48 2.91-5.14 5-5.93a15.57 15.57 0 0 1 4.38-.77Z" style="mix-blend-mode:overlay" opacity=".4"/><path fill="#20c4a3" d="M663.47 273.13c-.14.09 1.67.44 1.53.53-6.73 4.25-19.14 6.39-29.16 4.89a29 29 0 0 1-7.43-2 18.3 18.3 0 0 1-3.15-1.75 19.05 19.05 0 0 0 .53-2.71c.19-1.33.4-3.21.53-5.71 0-.86.08-1.81.11-2.83.22-9.25-4.07-9.12-2.14-19 .89-4.52 7.47-12.12 7.47-12.12s.38-.27 1-.66c.47-.29 1.1-.65 1.84-1l.25-.12a20.71 20.71 0 0 1 6.57-2.08 25.49 25.49 0 0 1 3.36-.15c.76 0 1.51.05 2.23.12a35 35 0 0 1 7.17 1.49 26.88 26.88 0 0 1 3.33 1.26l3.34 17.95Z"/><path fill="#edb69a" d="M647.05 228.47c-.49.66-1.15 1.54-1.92 2.52l-.13.17-.35.45c-.14.19-.3.38-.45.57l-.33.41-.68.84-.34.42-.72.86c-.12.14-.23.28-.35.41l-.54.63-.68.76-.44.49-.88.94-.32.31c-.58.58-1.13 1.1-1.65 1.53l-.16.12a7.68 7.68 0 0 1-1.06.74l-.11.06-.15.08a2.79 2.79 0 0 1-.47.18h-.36c-2.45 0-1-7.26-.32-10.31l.43-.21a20.41 20.41 0 0 1 6.39-2c.53-.06 1-.1 1.58-.13a28.64 28.64 0 0 1 3.08 0Z"/><path fill="#f1ecec" d="M665.38 285.5c-2.36 14.64-29.82 19.33-29.82 19.33s-14.51-4.24-19.07-7.62a4.2 4.2 0 0 1 0-.78c.57-3 5.19-7.12 9.72-10.55 3-2.26 5.92-4.22 7.65-5.41a8.72 8.72 0 0 0 1.93-1.92 21.82 21.82 0 0 0 3.12-6.1 30.82 30.82 0 0 0 1-3.56 29.1 29.1 0 0 0-.3-14.13q-.2-.69-.45-1.38c-.09-.26-.19-.52-.29-.78-4.19-10.47 4.77-22.76 5.91-24.25.51 0 1 0 1.49.06l.74.06c.78.08 1.54.18 2.27.3a35.65 35.65 0 0 1 4.9 1.19c.34.14.54.24.54.24s2.25 7.09 4.7 16.48a227.15 227.15 0 0 1 5.44 26.13c0 .29.07.57.1.85.6 4.55.93 8.68.42 11.84Z"/><path d="M635.84 278.55a8.72 8.72 0 0 1-1.93 1.92c-1.73 1.19-4.67 3.15-7.65 5.41.22 1.75 1.15 5.35 5.06 4.66 4.67-.81 8.34-9.74 12.27-11.52a46.85 46.85 0 0 1-7.75-.47Z" style="mix-blend-mode:overlay" opacity=".4"/><path d="M665 273.66c-6.73 4.25-19.14 6.39-29.16 4.89a24.68 24.68 0 0 1-10.58-3.79 19.05 19.05 0 0 0 .53-2.71c.83 3.09 6.27.76 9.36-.79l4.8-2.37c5-2.47 10.93-5.51 11.69-6.55 3.1-4.26-3.88-22.49-.2-24 1.15-.48 4.73 3 8 8.38a220.22 220.22 0 0 1 5.56 26.94Z" style="mix-blend-mode:overlay" opacity=".4"/><path fill="#edb69a" d="M639 275.87a15.09 15.09 0 0 1-.32 2.3c-.06.32-.14.65-.24 1a19.16 19.16 0 0 1-2.94 5.83l-.37.51c-.25.35-.47.62-.67.85a3.76 3.76 0 0 1-.67.67.8.8 0 0 1-.26.15.2.2 0 0 1-.2 0 .07.07 0 0 1 0-.05.21.21 0 0 1 0-.06.8.8 0 0 1 0-.41 9.53 9.53 0 0 1 .76-2.05c-.27.47-2.2 3.65-3.19 3-.37-.24.34-1.5 1-2.52-.87 1.17-2.08 2.6-2.56 2.07-.76-.83 1.53-3.57 2-4.09-.44.47-2.62 2.7-3.24 2.17s2.62-3.92 2.62-3.92 2.29-2.62 1.16-3.13c-.76-.36-2.25 0-3.09-.13-.4-.05-.66-.2-.6-.58.09-.62 2.1-1.68 4-2.56l.81-.35.59-.26h.06l.59-.25h.05l.67-.28a3.2 3.2 0 0 0 .68-.35l2.72 1.28.73.33a8.55 8.55 0 0 1-.09.83Z"/><path d="M634.12 209.46a3 3 0 0 1-.64 1.56 3 3 0 0 1-.63.61l-.37.23-.34.19a6.45 6.45 0 0 0-1.21.9 2.65 2.65 0 0 0-.73 1.18 1.94 1.94 0 0 0 .16 1.32 2.32 2.32 0 0 0 1 .92 5.33 5.33 0 0 0 1.45.45 9.06 9.06 0 0 0 1.56.15.14.14 0 0 1 .14.15.14.14 0 0 1-.12.14 7.5 7.5 0 0 1-1.64 0 5.23 5.23 0 0 1-1.63-.38 2.77 2.77 0 0 1-1.36-1.13 2.73 2.73 0 0 1-.3-.87 2.65 2.65 0 0 1 0-.93 2.79 2.79 0 0 1 .36-.83 3.69 3.69 0 0 1 .56-.68 5.94 5.94 0 0 1 1.38-1l.37-.18a2.06 2.06 0 0 0 .33-.17 2.94 2.94 0 0 0 1.31-1.73.15.15 0 0 1 .18-.09.13.13 0 0 1 .17.19Z" style="mix-blend-mode:overlay" opacity=".5"/><path fill="#202d5a" d="M640 203.52c-.34.8 1.07.82 2.56 1.43 1.24.52 2.12 1.34 2.65 1s-.49-1.61-1.87-2.41c-1.04-.54-2.97-1.01-3.34-.02Z"/><path fill="#5e514d" d="M638.89 208.19a.92.92 0 0 0 .63 1.12.93.93 0 0 0 1-.86.83.83 0 1 0-1.59-.26Z"/><path fill="#202d5a" d="M631.61 203.32c.34.81-1.07.83-2.56 1.44-1.24.52-2.11 1.33-2.65 1s.49-1.61 1.87-2.41c1-.55 2.93-1.01 3.34-.03Z"/><path fill="#5e514d" d="M630.55 207.8a.82.82 0 1 1-1.59.27.83.83 0 1 1 1.59-.27Z"/><path d="M638 219.46a4.59 4.59 0 0 1-.8.73c-.14.11-.3.2-.45.3l-.48.26a6.21 6.21 0 0 1-4.27.34 6.2 6.2 0 0 1-1-.39h-.12l-.12-.07-.23-.13-.45-.28a.21.21 0 0 1-.07-.29.22.22 0 0 1 .26-.09l.47.19.23.1h.23a8.32 8.32 0 0 0 1 .25 6 6 0 0 0 1.93.1 6.92 6.92 0 0 0 1.88-.47 9.9 9.9 0 0 0 1.74-.9.21.21 0 0 1 .27.32Z" style="mix-blend-mode:overlay" opacity=".5"/><path d="M654.21 206.61a12.79 12.79 0 0 1-4.12.08c-2.72-.59-2.72-2.33-6.6-3.3-5.83-1.46-7.37-4.85-7.37-4.85a7.53 7.53 0 0 1-4.46 1.94 7.77 7.77 0 0 0-4.76 2.09c.57-4.73 3.94-8.59 16.74-6.66l9.25 6.44a14.4 14.4 0 0 1 1.32 4.26Z" style="mix-blend-mode:overlay" opacity=".4"/><path d="M639 275.87a15.09 15.09 0 0 1-.32 2.3c-.06.32-.14.65-.24 1a19.16 19.16 0 0 1-2.94 5.83l-.37.51c-.25.35-.47.62-.67.85a3.76 3.76 0 0 1-.67.67.8.8 0 0 1-.26.15.2.2 0 0 1-.2 0 .07.07 0 0 1 0-.05.21.21 0 0 1 0-.06c1.84-1.46 3.64-7.12 3.45-8.35s-2.52-4.69-2.52-4.69h.05l.67-.28a3.2 3.2 0 0 0 .68-.35l2.72 1.28.73.33a8.55 8.55 0 0 1-.11.86Z" style="mix-blend-mode:overlay" opacity=".2"/><path fill="#202d5a" d="M638.73 193.22c-.13.19-.28.38-.45.59A15.24 15.24 0 0 1 636 196a29.76 29.76 0 0 1-2.55 1.76l-.5.27c-3.41 1.64-7.13-.71-8.49 10.13-.78 6.26-9.43 2.2-9.43 2.2a6.35 6.35 0 0 0 4.41-1.1 4.88 4.88 0 0 0 1.21-1.42c1.74-3.1-2.33-7.95-.78-14.74 1.31-5.72 14.48-4 18.58-3.32l1.2.22s.49 1.2-.92 3.22Z"/><path fill="#202d5a" d="M656.87 209c-4.65 5.24-5.61-4.53-11-6.59-8.73-3.3-10-6.72-10-6.72a23.12 23.12 0 0 1 2.33-2c9.57-7.28 17 .61 19.2 7.75.88 3.09.81 6.07-.53 7.56Z"/><path d="M657.33 201.41c-1.9 1.59-4.27 2.3-5 1.81-1.48-.95-5.69-3.71-7.63-4.1-1.31-.26-4.46-3.33-6.38-5.31A15.24 15.24 0 0 1 636 196c.54.91 2.69 3.7 9.86 6.41 5.44 2.06 6.4 11.83 11 6.59 1.35-1.49 1.42-4.47.47-7.59Z" style="mix-blend-mode:overlay" opacity=".4"/><path fill="#7a6d6a" d="M655.55 208.85a.45.45 0 0 1-.43-.31c-.81-2.41-3-2.41-4.33-2.41-.92 0-4 1.33-5.93 2.22a.45.45 0 1 1-.39-.81c.5-.24 4.9-2.31 6.32-2.31s4.18 0 5.19 3a.46.46 0 0 1-.29.58Z"/><path fill="#edb69a" d="M658.22 209.34a4.85 4.85 0 0 1-.15.74 5.52 5.52 0 0 1-1.3 2.17 1.21 1.21 0 0 1-.16.16 5.91 5.91 0 0 1-2 1.29 5.46 5.46 0 0 1-1 .29h-.19a5.48 5.48 0 0 1-1.14 0h-.31a4.07 4.07 0 0 1-2.22-1c-1.78-1.6-1.6-4.49.42-6.44a6.21 6.21 0 0 1 2.44-1.43 5.28 5.28 0 0 1 1.3-.22 5 5 0 0 1 1.45.13 4.11 4.11 0 0 1 1.7.9 3.66 3.66 0 0 1 .71.87 3.86 3.86 0 0 1 .45 2.54Z"/><path d="M651.37 212.85a5.1 5.1 0 0 1 .54-1.87 4.68 4.68 0 0 1 1.25-1.55 4.21 4.21 0 0 1 1.83-.79 5.11 5.11 0 0 1 2 .05.15.15 0 0 1 .12.19.15.15 0 0 1-.15.12 7.59 7.59 0 0 0-1.8.17 4.25 4.25 0 0 0-1.58.74 4.76 4.76 0 0 0-1.16 1.32 6.54 6.54 0 0 0-.69 1.66.15.15 0 0 1-.3-.06Z" style="mix-blend-mode:overlay" opacity=".5"/><path fill="#f1ecec" d="M670.45 267.39c-2 6.3-31.32 12.12-31.32 12.12l-2.92-4.67-1-1.54s16.39-7.47 19.88-10.57c1.45-3.78-6.3-25.11-5.53-28.6s3.14-4.3 3.14-4.3a7.92 7.92 0 0 1 6.36 2.55c.92.92 4.07 7.62 6.84 15 3.03 7.98 5.6 16.74 4.55 20.01Z"/><path d="M638.28 193.81A15.24 15.24 0 0 1 636 196a29.76 29.76 0 0 1-2.55 1.76l-.5.27c-3.41 1.64-7.13-.71-8.49 10.13-.78 6.26-9.43 2.2-9.43 2.2a6.35 6.35 0 0 0 4.41-1.1c1.68 0 3.54-.6 3.54-3.36 0-5-1-8.53 4.07-9.7a32.41 32.41 0 0 0 6.94-2.57 31 31 0 0 0 2.75-1.5s.58.63 1.43 1.52Z" style="mix-blend-mode:overlay" opacity=".4"/><path d="M658.22 209.34a4.85 4.85 0 0 1-.15.74 5.52 5.52 0 0 1-1.3 2.17 1.21 1.21 0 0 1-.16.16 5.91 5.91 0 0 1-2 1.29 5.46 5.46 0 0 1-1 .29 17 17 0 0 1-5.43 8 15.38 15.38 0 0 1-18.51 1.22c2.88.63 10.94 2 16.23-1.47 4.1-2.64 5.56-5.76 6.07-7.73a7.08 7.08 0 0 0 .28-1.91 15.2 15.2 0 0 0 1.91-.39 7.58 7.58 0 0 0 4.06-2.37Z" style="mix-blend-mode:overlay" opacity=".2"/><path d="M670.45 267.39c-2 6.3-31.32 12.12-31.32 12.12l-2.92-4.67c1.53 1.55 3.36 2.89 5 2.63 3.49-.58 23.85-8.15 26-10.08 1.4-1.28 0-12.45-1.21-20 2.93 7.97 5.5 16.73 4.45 20Zm-23.06-31.09-6.25 2.9.67 4s-2.32-.76-2.16 11v.54q-.2-.69-.45-1.38c-.09-.26-.19-.52-.29-.78-4.19-10.47 4.77-22.76 5.91-24.25.51 0 1 0 1.49.06l.74.06c.78.08 1.54.18 2.27.3Z" style="mix-blend-mode:overlay" opacity=".4"/><path fill="#cbe7e7" d="M632.69 207.28c-.15 2-1 5.13-4.88 4.63h-.26l-.55-.11a5.93 5.93 0 0 1-1.43-.55 3.73 3.73 0 0 1-1.35-1.29 5.3 5.3 0 0 1-.48-3.71 1.58 1.58 0 0 1 1.73-1.3l1.29.15 2 .23 1.52.17.94.1a1.59 1.59 0 0 1 1.47 1.68Zm7.53 5.03h-.29a6.09 6.09 0 0 1-.88-.06 4.62 4.62 0 0 1-1.47-.44 3.65 3.65 0 0 1-1.37-1.23 5.78 5.78 0 0 1-.82-3.08 1.59 1.59 0 0 1 1.45-1.61l1.92-.16 2.24-.2 1.67-.14a1.59 1.59 0 0 1 1.69 1.41c.25 2.03.01 5.37-4.14 5.51Z" opacity=".4"/><path fill="#7a6d6a" d="M635.7 210a.46.46 0 0 1-.4-.24c-.37-.68-.77-1-1.2-1.07-.6-.06-1.22.56-1.41.8a.46.46 0 0 1-.72-.56 2.94 2.94 0 0 1 2.21-1.15 2.53 2.53 0 0 1 1.92 1.55.45.45 0 0 1-.19.61.39.39 0 0 1-.21.06Z"/><path d="m628.79 205.3-3.22 5.92a3.73 3.73 0 0 1-1.35-1.29c.82-1.53 1.87-3.57 2.54-4.86Zm2.46.27-3.44 6.34h-.26l-.55-.11c.86-1.57 2.48-4.71 3.31-6.3Zm9.75-.03-3.42 6.28a3.65 3.65 0 0 1-1.37-1.23c.7-1.28 1.75-3.31 2.55-4.85Zm-1.07 6.78 3.65-6.72a1.58 1.58 0 0 0-.89-.2c-1 2-3.05 5.9-3.64 6.86Z" style="mix-blend-mode:overlay" fill="#fff" opacity=".5"/><path fill="#7a6d6a" d="M628.59 212.42a6.27 6.27 0 0 1-1.11-.1 5.06 5.06 0 0 1-3.5-1.93 5.62 5.62 0 0 1-.69-4.25 2 2 0 0 1 2.23-1.67l5.82.65a2 2 0 0 1 1.8 2.2 5.91 5.91 0 0 1-1.87 4.25 4.19 4.19 0 0 1-2.68.85Zm-3.29-7a1.14 1.14 0 0 0-1.12.93 4.8 4.8 0 0 0 .54 3.57 4.18 4.18 0 0 0 2.9 1.56 3.85 3.85 0 0 0 3.09-.57 5.09 5.09 0 0 0 1.53-3.61 1.13 1.13 0 0 0-1-1.22l-5.81-.66h-.12Zm14.64 7.35a4.94 4.94 0 0 1-3.51-1.21 5.66 5.66 0 0 1-1.49-4.05 2 2 0 0 1 1.86-2.06l5.83-.5a2 2 0 0 1 2.2 1.81 5.91 5.91 0 0 1-1 4.53 4.75 4.75 0 0 1-3.57 1.48Zm2.87-6.92h-.1l-5.83.5a1.14 1.14 0 0 0-1 1.15 4.79 4.79 0 0 0 1.22 3.4 4.15 4.15 0 0 0 3.14 1 3.83 3.83 0 0 0 2.92-1.16 5.1 5.1 0 0 0 .81-3.84 1.13 1.13 0 0 0-1.16-1.05Zm-6 .05Z"/><path d="M647.05 228.47c-.49.66-1.15 1.54-1.92 2.52l-.13.17-.35.45c-.14.19-.3.38-.45.57l-.33.41-.68.84-.34.42-.72.86c-.12.14-.23.28-.35.41l-.54.63-.68.76-.44.49-.88.94-.32.31c-.58.58-1.13 1.1-1.65 1.53l-.16.12a7.68 7.68 0 0 1-1.06.74l-.11.06-.15.08a2.79 2.79 0 0 1-.47.18h-.36c-2.45 0-1-7.26-.32-10.31l.43-.21c-.3 2-1.27 8.83-.11 9.16.53.16 3.15-1.32 4.4-4a48.4 48.4 0 0 1 3.64-7.2 28.64 28.64 0 0 1 3.08 0Z" style="mix-blend-mode:overlay" opacity=".4"/><path fill="#f1ecec" d="M634.89 230.58c-.25.47-.55 1-.86 1.65 0 .09-.09.17-.13.25l-.12.23c0 .09-.09.18-.14.27-1.93 3.62-5.6 8.83-5.93 18.81v3.93c.48 9.53.22 18.75-3.57 23.44-6.57 8.11-12.06 10.71-13.62 17l-8.48 1.78c.89-6.92 13.39-14.06 18.53-23a17.41 17.41 0 0 0 .93-1.95c3.44-8.65-.34-20.78 1.52-28.43a26.67 26.67 0 0 1 4.74-9.62 26.31 26.31 0 0 1 2.35-2.68c.4-.12.78-.21 1.14-.28.57-.12 1.08-.19 1.51-.24.47-.29 1.1-.65 1.84-1Z"/><path fill="#fff" d="m640.47 238.75.23 4.25c-1.79 2.67-1.92 6.11-1.5 10.37-.09-.26-.19-.52-.29-.78-4.46-11.39 5.8-23.22 5.8-25 .51 0 3.09.86 3.58.9l-1.79 7.59Z"/><path d="M639.65 248.68a13.46 13.46 0 0 0 .2 3.69c.28 1.13 1 3.3 1 3.3s7.56-1 8.34-1.36 1-6.59 1-6.59l-2.52-1s-7.67.41-8.02 1.96Z" style="mix-blend-mode:overlay" opacity=".4"/><path fill="#fff" d="M648 248c1-.15 1.67-.28 2-.34a.22.22 0 0 0 .17-.24l-.32-1.52a.2.2 0 0 0-.25-.14 82.21 82.21 0 0 1-9.83 1.2.22.22 0 0 0-.21.21v1.55a.19.19 0 0 0 .22.18 77.85 77.85 0 0 0 8.22-.9Z"/><path fill="#f4f4f4" d="M648.83 253.61a38.8 38.8 0 0 1-7.65 1.32 17.91 17.91 0 0 1-1.06-5.54 55 55 0 0 0 7.89-.95 15.28 15.28 0 0 1 .82 5.17Z"/><path fill="#563837" d="M642.81 250h-.61a.19.19 0 0 1-.19-.17l-.35-3.3a.2.2 0 0 1 .2-.21H643a.19.19 0 0 1 .19.2l-.17 3.3a.2.2 0 0 1-.21.18Z"/><path d="M634.89 230.58c-.25.47-.55 1-.86 1.65 0 .09-.09.17-.13.25l-.12.23c0 .09-.09.18-.14.27-1.93 3.62-5.6 8.83-5.93 18.81v.39l-1.51-8.51 2.67-4.92-1.06-3.83a26.31 26.31 0 0 1 2.35-2.68c.4-.12.78-.21 1.14-.28.57-.12 1.08-.19 1.51-.24.47-.29 1.1-.65 1.84-1Z" style="mix-blend-mode:overlay" opacity=".4"/><path fill="#fff" d="M635.78 228.93s-.75 1.36-1.75 3.3c0 .09-.09.17-.13.25l-.12.23c0 .09-.09.18-.14.27-1.93 3.62-5.6 8.83-5.93 18.81-.08-2.41-.29-7.55-.63-8.57l2.68-4.69-1.12-3.79s3.71-5.55 6.25-6.7.89.89.89.89Z"/><path d="M664.89 272.81c0 .29.08.57.11.85 0-.28-.07-.56-.1-.85Zm.11.85c-.64.4-1.34.79-2.08 1.16.36 1.83 1.14 7.82-2.65 13-4.53 6.18-17.57 12.32-22.92 13.18-5.58.93-15.67-3.07-20.81-4.61a4.2 4.2 0 0 0 0 .78c4.56 3.38 19.07 7.62 19.07 7.62s27.46-4.69 29.82-19.33c.46-3.12.13-7.25-.43-11.8Z" style="mix-blend-mode:overlay" opacity=".4"/><path fill="#0c50a2" d="M470.54 227.88c3.19-8.71 12.32-6.58 19.12-5.52s8.73 9.07 7.34 12.18-2.67 6.72-6.91 9.7c0 0-9.77-.85-14-4.25s-7.81-5.91-5.55-12.11Z"/><path d="M491.15 233.19a5.15 5.15 0 0 0-.27.48c-1.32 2.66-2.07 8.65-2.07 8.65s-8.77-4.38-12-8.93a4.84 4.84 0 0 1-1.13-3.81c.62-2.69 3.61-4.25 10.83-4.25s6.12 5.52 4.64 7.86Z" style="mix-blend-mode:overlay" opacity=".4"/><path fill="#edb69a" d="m488.81 227.03-.94 4.97-.76 3.95-9.34-.85 2.05-4.02 3.04-5.96 5.95 1.91z"/><path d="m488.81 227-.94 5a27.29 27.29 0 0 1-8.05-.91l3-6Z" style="mix-blend-mode:overlay" opacity=".4"/><path fill="#edb69a" d="M503.68 221.51a8 8 0 0 1-1.63 2.61c-3.73 4.08-11.72 5.86-17.06 4.61-3.75-.88-7.22-2.88-10.18-7.65-.3-.48-.59-1-.87-1.52l-.21-.39c-1-1.85-1-4.68 0-7.78a22.59 22.59 0 0 1 3.46-6.52 26.12 26.12 0 0 1 7.08-6.41 27.09 27.09 0 0 1 3.43-1.8c6.07-2.67 9.31-.63 11.19 2.44a26.81 26.81 0 0 1 2.6 7.2 9.85 9.85 0 0 0 .44 1.4c1.33 2.98 3.87 8.07 1.75 13.81Zm-5.13 122.29-.13 1.28-.66 6.4-.27 2.63-6.98-.91.04-2.62.39-5.41.04-.59 4-.14 3.57-.64z"/><path d="m498.42 345.08-.66 6.4a12.57 12.57 0 0 1-7.21-.9l.39-5.41 4-.73Z" style="mix-blend-mode:overlay" opacity=".4"/><path fill="#3b82fd" d="M489.19 356.57a1.93 1.93 0 0 0 .91 1.65l15.59 2.62a.88.88 0 0 0 .91-1.29l-.3-.51a10.19 10.19 0 0 0-2.23-2.39 13 13 0 0 0-2.72-1.67 9.83 9.83 0 0 1-3.61-2.39c-3.79 1.69-6.22.5-7.2-.21a.18.18 0 0 1-.07-.05h-.06l-.1.2a9.53 9.53 0 0 0-1.12 4.04Z"/><path d="M489.19 356.57a1.93 1.93 0 0 0 .91 1.65l15.59 2.62a.88.88 0 0 0 .91-1.29l-.3-.51c-3.82-.26-10.44-1-12.47-2.24a7.35 7.35 0 0 1-3.29-4.42.32.32 0 0 1 0-.09l-.16.16a9.53 9.53 0 0 0-1.19 4.12Z" style="mix-blend-mode:overlay" opacity=".4"/><path fill="#edb69a" d="m527 358.35-15.58-2.62c-2.12-1.2.06-5.46.31-5.92v-.05s5-2.93 7.31.34a9.83 9.83 0 0 0 3.61 2.39 11.34 11.34 0 0 1 5.25 4.57.88.88 0 0 1-.9 1.29Z"/><path fill="#edb69a" d="m519.83 341.31-.14 1.28-.66 6.41-.27 2.62-7.05-1.86.12-1.66.39-5.42.04-.59 3.99-.14 3.58-.64z"/><path d="M519.69 342.59 519 349a12.53 12.53 0 0 1-7.2-.9l.39-5.42 4-.73Z" style="mix-blend-mode:overlay" opacity=".4"/><path fill="#3b82fd" d="M510.47 354.08a1.88 1.88 0 0 0 .91 1.65l15.62 2.62a.87.87 0 0 0 .92-1.28 4.63 4.63 0 0 0-.31-.51 10.14 10.14 0 0 0-2.22-2.4 14.16 14.16 0 0 0-2.72-1.67 9.83 9.83 0 0 1-3.67-2.39c-3.79 1.7-6.22.51-7.21-.2h-.06l-.06-.05c0 .05-.06.11-.1.21a9.34 9.34 0 0 0-1.1 4.02Z"/><path d="M510.47 354.08a1.88 1.88 0 0 0 .91 1.65l15.62 2.62a.87.87 0 0 0 .92-1.28 4.63 4.63 0 0 0-.31-.51c-3.81-.26-10.43-1-12.46-2.25a7.37 7.37 0 0 1-3.3-4.41.65.65 0 0 0 0-.1v.05a1.17 1.17 0 0 0-.16.16 9.34 9.34 0 0 0-1.22 4.07Z" style="mix-blend-mode:overlay" opacity=".4"/><path d="M493 210.41a3.29 3.29 0 0 0 .93 1.61 3.49 3.49 0 0 0 .77.55c.15.08.3.14.44.2l.4.16a7.23 7.23 0 0 1 1.45.79 3 3 0 0 1 1 1.18 2.12 2.12 0 0 1 0 1.45 2.46 2.46 0 0 1-1 1.15 6 6 0 0 1-1.51.71 10.3 10.3 0 0 1-1.66.4.15.15 0 0 0-.13.18.15.15 0 0 0 .15.13 8.27 8.27 0 0 0 1.79-.22 5.51 5.51 0 0 0 1.71-.66 3 3 0 0 0 1.3-1.43 2.7 2.7 0 0 0 0-2 3.08 3.08 0 0 0-.52-.85 3.63 3.63 0 0 0-.71-.65 6.07 6.07 0 0 0-1.64-.84 3.59 3.59 0 0 0-.43-.14L495 212a3.57 3.57 0 0 1-.68-.4 3.48 3.48 0 0 1-1-1.29.14.14 0 0 0-.2-.07.14.14 0 0 0-.12.17Z" style="mix-blend-mode:overlay" opacity=".5"/><path fill="#5e514d" d="M489.45 213.45a.9.9 0 1 1-1.76.16.91.91 0 1 1 1.76-.16Zm9.13-1.45a.9.9 0 1 0 1.61-.7.9.9 0 1 0-1.61.7Z"/><path d="M489.45 223.74c.7-.07 1.41-.1 2.1-.13l2.1-.06c.7 0 1.39-.07 2.09-.12s1.39-.11 2.08-.19a.22.22 0 0 1 .25.2.22.22 0 0 1-.16.25 13.78 13.78 0 0 1-2.09.49c-.71.11-1.42.19-2.14.23s-1.42.06-2.14 0a14 14 0 0 1-2.13-.23.24.24 0 0 1-.18-.28.24.24 0 0 1 .21-.19Z" style="mix-blend-mode:overlay" opacity=".5"/><path d="M483.93 205.15c.85 7.22-6.49 11.16-6.49 11.16l-.2-11.44a26.12 26.12 0 0 1 7.08-6.41l14.62.64a26.81 26.81 0 0 1 2.6 7.2c-5.54 3.14-17.61-1.15-17.61-1.15Z" style="mix-blend-mode:overlay" opacity=".4"/><path fill="#202d5a" d="M506.23 200.9c-7.61 6.16-20.47 3.36-24.09 2.4-.62-.16-1-.27-1-.27a5.66 5.66 0 0 1-1.59 0c-3.1-.43-6.61-3.13-4.67-7.16a13.88 13.88 0 0 1 4.35-4.73c4.23-3.14 10.32-2.7 13.36-1.93a14.34 14.34 0 0 1 8.1 6c1.08 1.87 5.54 5.69 5.54 5.69Z"/><path fill="#202d5a" d="M473.94 220c-1.31-.66-3.66-4-5-7.91a16.63 16.63 0 0 1-.94-6.53c.23-3 1.18-6.28 3.61-8.07a8.78 8.78 0 0 1 3.29-1.65c3.61-.81 5.55 2.47 6.46 4.8a14.68 14.68 0 0 1 .65 2.16c.05.16.09.32.13.48 1.8 7.97-8.2 16.72-8.2 16.72Z"/><path d="M482.14 203.3c1.8 7.95-8.2 16.72-8.2 16.72-1.31-.66-3.66-4-5-7.91a5.42 5.42 0 0 1 5-2.5c3.7.14 5.1-3.78 5.63-6.59a19.08 19.08 0 0 0 .32-2.75l1.47.39c4.6 1.17 18.86 4.31 24.87.24-7.61 6.16-20.47 3.36-24.09 2.4Z" style="mix-blend-mode:overlay" opacity=".4"/><path fill="#edb69a" d="M479.64 220.18a4.56 4.56 0 0 1-2.49 1.1h-.27a5.91 5.91 0 0 1-1.26-.05 7.84 7.84 0 0 1-.81-.18 5.34 5.34 0 0 1-.52-.18 6.48 6.48 0 0 1-2.2-1.4l-.18-.18a6 6 0 0 1-1.26-1.95 3.66 3.66 0 0 1-.15-.43 4.41 4.41 0 0 1 .36-3.55 3.87 3.87 0 0 1 .77-.95 4.49 4.49 0 0 1 1.87-1l.28-.07a5.79 5.79 0 0 1 2.73.16 6.65 6.65 0 0 1 2.67 1.57c2.21 2.19 2.42 5.35.46 7.11Z"/><path d="M477.84 220a5.69 5.69 0 0 0-.6-2.06 5.06 5.06 0 0 0-1.37-1.69 4.59 4.59 0 0 0-2-.87 5.69 5.69 0 0 0-2.14.06.17.17 0 0 0 0 .34 8 8 0 0 1 2 .19 4.72 4.72 0 0 1 1.73.8 5 5 0 0 1 1.26 1.45 7.12 7.12 0 0 1 .77 1.82.18.18 0 0 0 .21.12.18.18 0 0 0 .14-.16Z" style="mix-blend-mode:overlay" opacity=".5"/><path fill="#f1ecec" d="M520 346.62c-3.61 2.14-7.37 1.85-11.26-.43L506.7 322l-1.11-13-10.2-6-23.78-14.13 1-16.85.23-3.86.14-2.2 7.68 1.48 16.4 3.17.85 8.07s22.94 16.57 24.21 29.73-2.12 38.21-2.12 38.21Z"/><path d="M495.18 288c1.15 0-1.27 1.07-1.48 2.13s13.17 9.77 15.08 16.78c1.5 5.51-1.66 20-1.66 20s-1.74-19.15-4.93-22.76-12.59-14.64-13.38-15.72c-1.7-2.35 4.25-.43 6.37-.43Z" style="mix-blend-mode:overlay" opacity=".2"/><path fill="#f1ecec" d="m506.82 321.16-.12.83a235.8 235.8 0 0 1-5.57 25.69c-3.94 1.74-7.8 1.87-13.17.21 0 0 5.52-33.77 4-35.26a16.12 16.12 0 0 0-2.57-1.38c-1.51-.73-3.59-1.69-6-2.83-10.13-4.87-25.77-13-26.94-20a18.19 18.19 0 0 1 .35-7.47 21.81 21.81 0 0 1 4.2-8.25l11.66-.71 16.16-1-1.26 12.93-.23 2.36s17.85 14 20.61 22.52c.83 2.59-.43 7.2-1.12 12.36Z"/><path d="M520 346.62c-3.61 2.14-7.37 1.85-11.26-.43 3.82 1.07 7.65-1.7 8.71-3s3.61-38.45 1.91-38.87-3-3.4-3.82-5.49-1.92 2.52-4.25 1.45-2.55-8.71-2.55-8.71c-3.4.43-12.53-10.83-12.53-10.83-1.24 1.8-5.23 2.71-8.7 3.16a55 55 0 0 1-5.75.45l3.19 9.35s9.34 2.55 8.92 4.25-3.4 1.27.49 4a4.32 4.32 0 0 1 1 1c2.28 3-.35 8.19-6 8.28-1.51-.73-3.59-1.69-6-2.83a27.21 27.21 0 0 1-5.06-7.89 27.7 27.7 0 0 1-9.13-5.53 68.42 68.42 0 0 1-12.3-13.98 21.81 21.81 0 0 1 4.13-8.3l11.66-.71.23-3.86a67.79 67.79 0 0 1 7.82-.72l16.4 3.17.85 8.07s22.94 16.57 24.21 29.73-2.17 38.24-2.17 38.24Z" style="mix-blend-mode:overlay" opacity=".2"/><path fill="#edb69a" d="M493.63 305.51c-.54.71-3.4-1.14-4-1.53.61.45 3.72 2.81 3.11 3.89-.38.67-2-.55-3.24-1.6 1 .93 2 2.1 1.7 2.45-.9 1-3.73-2-4.14-2.41a10.68 10.68 0 0 1 1.32 2 .71.71 0 0 1 .07.51.1.1 0 0 1 0 .05.2.2 0 0 1-.2.07.78.78 0 0 1-.32-.09 5 5 0 0 1-.88-.56c-.26-.2-.57-.44-.93-.75l-.51-.45a21.16 21.16 0 0 1-4.55-5.46c-.19-.35-.36-.69-.5-1s-.26-.58-.37-.85c-.24-.59-.42-1.12-.54-1.53-.18-.63-.25-1-.25-1l.7-.54 2.59-2a3.29 3.29 0 0 0 .81.22l.79.13.74.13h.08l.7.14.46.09.48.09c2.27.47 4.67 1.12 4.92 1.75a.8.8 0 0 1 .05.21c0 .27-.21.44-.55.56-.87.32-2.54.32-3.27.89-1.07.82 2 3.06 2 3.06s3.32 2.08 3.77 3.16a.36.36 0 0 1-.04.37ZM524 298a.23.23 0 0 1-.11.19h-.06a.38.38 0 0 1-.21 0 2 2 0 0 1-.28-.15 11.2 11.2 0 0 1-1.73-1.68c.35.48 2.71 3.82 1.59 4.52-.41.26-1.35-1-2.09-2.13.8 1.39 1.7 3.23 1 3.48-1.17.4-2.91-3.1-3.23-3.79.27.66 1.55 3.82.75 4.22s-2.78-4.37-2.78-4.37-1.62-3.44-2.63-2.53c-.69.6-1 2.24-1.48 3-.23.39-.5.58-.86.35-.57-.36-.75-2.84-.79-5.16v-3.3a3.53 3.53 0 0 0-.06-.83l2.48-2.17.66-.58a9.35 9.35 0 0 1 1 .43 17.36 17.36 0 0 1 2.16 1.34c.29.2.59.43.9.68a20.92 20.92 0 0 1 4.5 5.5c.12.19.24.39.35.59.24.41.42.75.56 1.05a4.94 4.94 0 0 1 .39 1 1 1 0 0 1-.03.34Z"/><path d="M516.83 290.12s-.36 1.49-5.79 2.09v-1.43a3 3 0 0 0-.04-.78l2.46-2.19.65-.59a9.16 9.16 0 0 1 .95.42 18 18 0 0 1 2.18 1.32c.29.2.59.43.9.67a21 21 0 0 1 4.56 5.45c.13.2.24.39.36.59.24.41.42.75.57 1.05s-6.8-6.6-6.8-6.6Z" style="mix-blend-mode:overlay" opacity=".2"/><path fill="#0c50a2" d="M509.63 290.54a57.56 57.56 0 0 1-5.47-4.62c-3.26-3.11-7.14-7.52-9.12-12.35-3-7.3-3.67-27 1.22-34.31 1.31-2 2.13-3 3.79-2.31 3.37 1.34 4.83 9 5.46 16 .49 5.42.47 10.48.45 12-.06 3.43 10.89 21.59 10.89 21.59 1.35 2.9-5.52 6.13-7.22 4Z"/><path fill="#0c50a2" d="M501.05 251.09a.66.66 0 0 1 0 .14c-.62 9.78-.71 18.79-2.36 23a5.62 5.62 0 0 1-.95 1.66c-8.14 9.38-22 8.52-36 .21l-.71-.43s.36-16.57 3.18-28.66c1.24-5.3 2.95-9.74 5.31-11.54l.16-.11a4.78 4.78 0 0 1 .63-.38l.47-.22a21.81 21.81 0 0 1 6-1.34 67.69 67.69 0 0 1 14.16.16 22.35 22.35 0 0 1 5.78 1.59c.3.13.59.26.86.4s.62.3.89.45a4.25 4.25 0 0 1 1.8 1.5c1.06 2.87 1.14 7.98.78 13.57Z"/><path d="M501.05 251.1v.13c-.62 9.78-.71 18.79-2.36 23a5.62 5.62 0 0 1-.95 1.66c-8.14 9.38-22 8.52-36 .21l-.71-.43s.36-16.57 3.18-28.66l7.65-1.72s-.86 15.71-1.32 19.55c-.24 2.25 6.8 11.47 9.35 14.87 4.89 1.06 14-3 15.51-5.1s5.52-22.86 5.65-23.51Z" style="mix-blend-mode:overlay" opacity=".4"/><path d="M490.11 265a.62.62 0 0 0-.41-.32l-.06-.05s-3-2-3.45-4.61a4.43 4.43 0 0 1 1.06-3.54c2.2-2.79 1.4-6.53.27-9.27 0-.08-.07-.17-.11-.25l-1-.26.12.26c1.16 2.61 2.19 6.39.08 9.06a5.1 5.1 0 0 0-1.2 4.12c.42 2.51 2.71 4.35 3.51 4.93a.62.62 0 0 0 0 .48l.77 1.56a.62.62 0 1 0 1.11-.55Z" style="mix-blend-mode:overlay" opacity=".4"/><path d="M492.52 248.25a12.33 12.33 0 0 1 .68-3.2c-.49.79-.94 1.48-1.31 2a9.54 9.54 0 0 0-.13 2.26 6.55 6.55 0 0 0 1.38 3.7 4.41 4.41 0 0 1 1.05 3.53c-.36 2.15-2.37 3.82-3.14 4.39a.59.59 0 0 0-.33.13l-1.37 1.07a.62.62 0 0 0 .76 1l1.38-1.07a.63.63 0 0 0 .21-.66 8.29 8.29 0 0 0 3.22-4.71 5.13 5.13 0 0 0-1.2-4.13 6.16 6.16 0 0 1-1.2-4.31Z" style="mix-blend-mode:overlay" opacity=".4"/><path d="M486.24 295.4a6.83 6.83 0 0 1-1.75 1.09 10.66 10.66 0 0 1-4.33 3.3c-.24-.59-.42-1.12-.54-1.53-.18-.63-.25-1-.25-1l.7-.54 2.59-2a3.29 3.29 0 0 0 .81.22l.79.13.74.13h.08l.7.14Z" style="mix-blend-mode:overlay" opacity=".2"/><path fill="#f4e9e6" d="M488.76 264.68a.37.37 0 0 1-.32.17.36.36 0 0 1-.2-.06c-.13-.08-3.27-2.12-3.78-5.1a5.18 5.18 0 0 1 1.21-4.13c2.1-2.66 1.08-6.44-.08-9.06a22.56 22.56 0 0 0-1.36-2.55l1.09.36a21.68 21.68 0 0 1 1.2 2.45c1.14 2.74 1.94 6.47-.27 9.26a4.44 4.44 0 0 0-1.05 3.54c.44 2.66 3.41 4.59 3.44 4.61a.36.36 0 0 1 .12.51Zm4.24-13.09a5.13 5.13 0 0 1 1.21 4.13c-.5 3-3.65 5-3.78 5.1a.36.36 0 0 1-.2.06.37.37 0 0 1-.31-.17.36.36 0 0 1 .11-.51s3-2 3.44-4.61a4.39 4.39 0 0 0-1.05-3.54 6.5 6.5 0 0 1-1.37-3.69 11.6 11.6 0 0 1 .6-4.23 39.8 39.8 0 0 0 2.33-3.39 16.42 16.42 0 0 0-2.19 6.52 6.22 6.22 0 0 0 1.21 4.33Zm1.77-12.21a.52.52 0 0 1-.06.16 2.44 2.44 0 0 0-.21.31Z"/><path fill="#f65d63" d="M493.91 218.75s.08-.22.52-.26a7.11 7.11 0 0 0 1-.28 6 6 0 0 0 1.51-.71 2.46 2.46 0 0 0 1-1.15 2.12 2.12 0 0 0 0-1.45 3 3 0 0 0-1-1.18 6.76 6.76 0 0 0-1.45-.79l-.4-.16c-.14-.06-.29-.12-.44-.2a3.35 3.35 0 0 1-1.65-2s.1 0 0 .07c.06 1.95 3 5.56.91 8.11Z"/><path fill="#0c50a2" d="M476.28 298.19A138.51 138.51 0 0 1 460.82 282c-3.85-4.94-7-10.16-7.36-14.36-.93-11 7.67-32.66 16.26-34.31h.36a4.91 4.91 0 0 1 .67-.05 1 1 0 0 1 .29.05c.49.16.83.75 1 1.68a12.53 12.53 0 0 1 .22 1.85v2.34c-.31 9.22-4.1 25.94-4.1 25.94l9.69 17 6 10.58c1.78 3.56-3.53 7.81-7.57 5.47Z"/><path d="M490.94 233.56c-1.36 2.61-2.13 8.76-2.13 8.76s-8.75-4.37-12-8.91a72.81 72.81 0 0 1 14.13.15Z" style="mix-blend-mode:overlay" opacity=".4"/><path fill="#edb69a" d="M490.88 233.67c-1.32 2.66-2.07 8.65-2.07 8.65s-8.77-4.38-12-8.93l1.19-.12a49.14 49.14 0 0 1 12.1.26Z"/><path fill="#202d5a" d="M476.24 196.41s-1.4-3.83-4.17-5c0 0 3 4.06 2.2 5.81Z"/><path fill="#202d5a" d="M476.15 195.44s-3.67-1.78-6.48-.71c0 0 5 .83 5.61 2.65ZM496.46 207c-.06 1 1.41.46 3.17.56 1.47.08 2.67.61 3.11.09s-1.09-1.49-2.81-1.81c-1.24-.19-3.4.04-3.47 1.16Zm-6.7.69c.3.91-1.25.81-2.92 1.35-1.4.46-2.43 1.28-3 .89s.67-1.72 2.26-2.48c1.14-.54 3.29-.87 3.66.24Z"/><path d="M502.05 224.12c-3.73 4.08-11.72 5.86-17.06 4.61-3.75-.88-7.22-2.88-10.18-7.65a5.34 5.34 0 0 1-.52-.18 6.48 6.48 0 0 1-2.2-1.4l-.18-.18a6 6 0 0 1-1.26-1.95 9.73 9.73 0 0 0 3.29 2.19 6.54 6.54 0 0 0 2.34.46 12 12 0 0 0 .87 1.26 16.11 16.11 0 0 0 9.11 5.54c7.01 1.49 12.5-1.21 15.79-2.7Zm-11.17 9.55c-1.32 2.66-2.07 8.65-2.07 8.65s-8.77-4.38-12-8.93l1.19-.12c2.24 1.91 8.32 7 9.36 7.14s1.1-4.74 2.74-6.88Z" style="mix-blend-mode:overlay" opacity=".2"/><path d="M497.59 235.58c-1 5-6.65 12.9-6.65 12.9-2.34-1.91-8.06-1.69-14.87-5.94a15.86 15.86 0 0 1-5.8-7.55 17.58 17.58 0 0 1-.55-1.7h.36a6.46 6.46 0 0 0 .65 1.53 10 10 0 0 0 1.56 2 42.75 42.75 0 0 0 3.77 3.22c4.25 3.4 14.23 5.73 14.23 5.73a35.12 35.12 0 0 0 6.42-10.54c.29.08.61.21.88.35Zm12.04 54.96a57.56 57.56 0 0 1-5.47-4.62s5 4 6.95 3.78 4-2.33 4-3.18-10-18.91-10.41-20.82c-.25-1.12.32-7.38.77-12.75.49 5.42.47 10.48.45 12-.06 3.43 10.89 21.59 10.89 21.59 1.39 2.9-5.48 6.13-7.18 4Zm-33.35 7.65A138.51 138.51 0 0 1 460.82 282c2.4 2.18 16 14 16.95 14.74 2.33 1.7 4.88-.85 5.09-3.4.06-.63-3.44-7.17-5-11.21l6 10.58c1.77 3.57-3.54 7.82-7.58 5.48Z" style="mix-blend-mode:overlay" opacity=".4"/><path d="M493.64 305.12c-4.34-1.41-8-6.1-7.17-7.14.56-.69 3.32-.83 5.22-.53 0 .27-.21.44-.55.56-.87.32-2.54.32-3.27.89-1.07.82 2 3.06 2 3.06s3.32 2.04 3.77 3.16Zm13.18 16.04-.12.83a235.8 235.8 0 0 1-5.57 25.69c-3.94 1.74-7.8 1.87-13.17.21 0 0 9.56.22 11.05-2.33s7.21-22.36 7.81-24.4Z" style="mix-blend-mode:overlay" opacity=".2"/><path fill="#7c5245" d="M489.6 266.94a.62.62 0 0 1-.83-.29l-.77-1.56a.63.63 0 0 1 .28-.83.62.62 0 0 1 .83.29l.77 1.56a.63.63 0 0 1-.28.83Zm-1.09-4.89a.63.63 0 0 1 .11-.88l1.37-1.06a.62.62 0 0 1 .87.11.62.62 0 0 1-.11.87l-1.37 1.06a.62.62 0 0 1-.87-.1Z"/><path fill="#fcccb2" fill-rule="evenodd" d="M395.87 503.26c-4.48-7.33-13.28-7.91-23.37-12.5-3.1-1.41-5.08-2.79-6.6-4.82-1.07-1.44-3.49-9-2.79-12.32-6.54-.09-9.29-.09-15.83 0 .66 7.16-1.49 10.41-2.38 11.74-1.57 2.35-3.62 3.86-7 5.4-10.09 4.59-18.89 5.17-23.37 12.5"/><path fill="#151e3b" fill-rule="evenodd" d="M350.63 448.75c-.29.35-.52.61-.66.75a10.57 10.57 0 0 1 .73 1.6 12 12 0 0 1-3.7 13.54 6.7 6.7 0 0 1 6 4.47 7.09 7.09 0 0 1-3.81 9 6.51 6.51 0 0 1-8.19-3.06 4.67 4.67 0 0 1-5.87-2.93 5.17 5.17 0 0 1-.32-1.88 6.63 6.63 0 0 1-3.39-5.85 6.84 6.84 0 0 1 .28-1.94 12 12 0 0 1 3.3-17.33 9.66 9.66 0 0 1 5.47-11.48 8.74 8.74 0 0 1 4-.62 15 15 0 0 1 21.47 0 8.74 8.74 0 0 1 4 .62 9.66 9.66 0 0 1 5.47 11.48 11.9 11.9 0 0 1 4.93 14.34 12.11 12.11 0 0 1-1.62 3 6.84 6.84 0 0 1 .27 1.94 6.64 6.64 0 0 1-3.38 5.85 5.39 5.39 0 0 1-.32 1.88 4.67 4.67 0 0 1-5.87 2.93 6.52 6.52 0 0 1-8.2 3.06 7.1 7.1 0 0 1-3.81-9 6.7 6.7 0 0 1 6-4.47 12 12 0 0 1-3.75-13.54 11.65 11.65 0 0 1 .73-1.6c-.14-.14-.37-.4-.66-.75a16.12 16.12 0 0 1-9.13 0Z"/><path fill="#fcccb2" fill-rule="evenodd" d="M342.47 444.64a56.62 56.62 0 0 0-2.93 16.86c0 11.33 7.43 19.82 15.31 19.82h.69c7.88 0 15.32-8.49 15.32-19.82a56.32 56.32 0 0 0-2.94-16.86c-2.32-6.94-23.12-6.94-25.45 0Z"/><path fill="#202d5a" fill-rule="evenodd" d="M370.89 453.33a2.06 2.06 0 0 1-3-1.37c-1.34-3.95-2.14-7.6-7.55-4.08-6.67 3.24-16-3.88-10.9-10 3.61-4.87 11.09-6.33 16.82-3.8 4.85 2.14 8.37 7.61 8 11.49s.47 6.43-3.37 7.76Z"/><path fill="#fcccb2" fill-rule="evenodd" d="M375.86 455.91c1 2.88.4 5-1.5 7.44-1.55 2-3.67 3.25-4.92 1.76.06-2.77.05-9.65-.7-11.61 1.46-2.17 5.8-1.5 7.12 2.41Z"/><path fill="#fda380" fill-rule="evenodd" d="M372 454.72c1.75.11 3.4 5.72-.85 7.6a8 8 0 0 0 .55-2.67 10.65 10.65 0 0 0-.57-4.18c-.39-.92-.41-.84.87-.75Z"/><path fill="#fcccb2" fill-rule="evenodd" d="M334.53 455.91c-1 2.88-.4 5 1.5 7.44 1.56 2 3.67 3.25 4.92 1.76-.06-2.77-.05-9.65.7-11.61-1.46-2.17-5.8-1.5-7.12 2.41Z"/><path fill="#fda380" fill-rule="evenodd" d="M338.38 454.72c-1.75.11-3.4 5.72.86 7.6a8 8 0 0 1-.56-2.67 10.65 10.65 0 0 1 .57-4.18c.4-.92.42-.84-.87-.75Z"/><path fill="#202d5a" fill-rule="evenodd" d="M340.62 452.61a1.61 1.61 0 0 0 2.3-1.05c.46-1.37.56-3.67 2.56-2.37 4.39 2.11 9.19-1.34 8.1-5.3-1.21-4.4-6.65-6.61-10.66-5-5.78 2.3-8.77 11.53-2.3 13.72Z"/><path fill="#e6a384" fill-rule="evenodd" d="M354.46 477.88c2.25 0 4.07-2.38 4.07-1s-1.82 10-4.07 10-4.07-8.62-4.07-10 1.82 1 4.07 1Z"/><path fill="#e38d5f" fill-rule="evenodd" d="M354.46 484.47c3.08 0 5.58-2.09 5.58-.84 0 10.91-11.16 10.91-11.16 0 0-1.25 2.5.84 5.58.84Z"/><path fill="#ec6a71" fill-rule="evenodd" d="M357.69 438.28a1.68 1.68 0 0 0 2-.15 1.74 1.74 0 0 1 1.37.69h.28a1.71 1.71 0 0 1 1.26.57 3.4 3.4 0 0 1 2.58 1.69.83.83 0 0 1 .22 0 1.15 1.15 0 0 1 1.1 1.07 3.72 3.72 0 0 1 2.26 3.5 3.6 3.6 0 0 1-.06.66 1.17 1.17 0 0 1 .93 1.18 1.27 1.27 0 0 1-.24.75 1.24 1.24 0 0 1-.08 2.17 1.26 1.26 0 0 1 .31.82 1.2 1.2 0 0 1-.39.91 2.18 2.18 0 0 1 .12.72 2 2 0 0 1-1.55 2 3.51 3.51 0 0 1-2.27 1.81 1.89 1.89 0 0 1-1.77 1.38h-.11a1.12 1.12 0 0 1-1 .77 1.08 1.08 0 0 1-.67-.24 1.23 1.23 0 0 1 .08.44 1.15 1.15 0 0 1-1.11 1.19 1.1 1.1 0 0 1-1-.63 1.77 1.77 0 0 1-1.64 1.19 1.87 1.87 0 0 1-1.78-1.93 1.58 1.58 0 0 1 0-.38 1.25 1.25 0 0 1-.3-1.7 1.2 1.2 0 0 1-.54-1 1.25 1.25 0 0 1 .29-.81 1.24 1.24 0 0 1-.43-.95 1.21 1.21 0 0 1 .45-1 1.27 1.27 0 0 1-.28-.8 1.21 1.21 0 0 1 .6-1.06 1.31 1.31 0 0 1-.14-.59 1.22 1.22 0 0 1 .22-.71 2 2 0 0 1-.52-1.37 2 2 0 0 1 .6-1.44 2.06 2.06 0 0 1 0-2.57 2 2 0 0 1-.67-1.51 2 2 0 0 1 .57-1.42 2 2 0 0 1-.47-1.3 1.86 1.86 0 0 1 1.78-1.95Zm-6.46 0a1.73 1.73 0 0 0-.89.25 1.67 1.67 0 0 0-1.08-.4 1.74 1.74 0 0 0-1.37.69h-.28a1.71 1.71 0 0 0-1.26.57 3.4 3.4 0 0 0-2.58 1.69.78.78 0 0 0-.22 0 1.15 1.15 0 0 0-1.1 1.07 3.73 3.73 0 0 0-2.25 3.5 4.77 4.77 0 0 0 .05.66 1.18 1.18 0 0 0-.93 1.18 1.27 1.27 0 0 0 .24.75 1.24 1.24 0 0 0 .08 2.17 1.25 1.25 0 0 0-.3.82 1.23 1.23 0 0 0 .38.91 2.47 2.47 0 0 0-.12.72 2 2 0 0 0 1.56 2 3.47 3.47 0 0 0 2.26 1.81 1.9 1.9 0 0 0 1.78 1.33h.11a1.1 1.1 0 0 0 1 .77 1.06 1.06 0 0 0 .67-.24 1.23 1.23 0 0 0-.07.44 1.14 1.14 0 0 0 1.1 1.19 1.09 1.09 0 0 0 1-.63 1.78 1.78 0 0 0 1.64 1.19 1.87 1.87 0 0 0 1.78-1.93 2.34 2.34 0 0 0 0-.38 1.25 1.25 0 0 0 .5-1 1.22 1.22 0 0 0-.21-.69 1.21 1.21 0 0 0 .55-1 1.28 1.28 0 0 1 .13-1.76 1.21 1.21 0 0 0-.44-.95 1.27 1.27 0 0 0 .28-.8 1.19 1.19 0 0 0-.6-1.06 1.31 1.31 0 0 0 .14-.59 1.22 1.22 0 0 0-.22-.71 2 2 0 0 0 .52-1.37 2 2 0 0 0-.6-1.44 2.06 2.06 0 0 0 .44-1.27 2 2 0 0 0-.46-1.3 2 2 0 0 0 .68-1.51 2 2 0 0 0-.58-1.42 2 2 0 0 0 .47-1.3 1.86 1.86 0 0 0-1.8-1.96Z"/><path fill="#e38d5f" fill-rule="evenodd" d="M354.62 464.32c.54.06.46.63.45.69-.12.79-.13 3.64.57 3.32s.22-1.77.17-2.23c-.13-1.11-.67-2.31-.75-3.25-.11-1.46.3-1.31.75-2.32s-.33-2.48-.12-3.41V457c.25-1.65 2.87-1.17 3.6-.52s.17 1.17 2 1.87c.66.26 1.47 1 1.23 1.76-.17.49-2.63.89-3.12 1-1.5.48-3.15.85-2.7 2.8.49 2.12 3.16 2.74 5.82 4.1.67.35 1.6 1.27 1.47 2.1-.16 1-1.63.53-2.53 1.9-.53.81-1.41 1.43-2 .33-.85-1.53.28-2.05.11-3.46-.07-.6-1-1.37-1.49-1.62s-1.64-.23-1.2.37a3.56 3.56 0 0 1 .71 1.06c.24.58-.4 1-.92 1.07-2.28.3-.35 3.17.31 1.43.92-2.4 1.78-.76 1.56.91-.18 1.35-1.28 2.09-2.11 1.24s-.8-.64-1.94-.61-1-.37-1.94.61-1.93.11-2.11-1.24c-.21-1.67.64-3.31 1.56-.91.66 1.74 2.59-1.13.31-1.43-.51-.07-1.15-.49-.92-1.07a3.75 3.75 0 0 1 .71-1.06c.44-.6-.64-.64-1.2-.37s-1.42 1-1.49 1.62c-.16 1.41 1 1.93.11 3.46-.62 1.1-1.5.48-2-.33-.9-1.37-2.37-.86-2.53-1.9-.13-.83.8-1.75 1.47-2.1 2.66-1.36 5.34-2 5.82-4.1.45-1.95-1.2-2.32-2.7-2.8-.49-.15-2.95-.55-3.12-1-.23-.72.57-1.5 1.23-1.76 1.82-.7 1.15-1.13 2-1.87s3.35-1.13 3.6.52v.13c.2.93-.53 2.48-.13 3.41s.87.86.75 2.32c-.08.94-.62 2.14-.74 3.25-.05.46-.42 1.95.17 2.23s.68-2.53.56-3.32c0-.06-.08-.63.46-.69Z"/><path fill="#298396" fill-rule="evenodd" d="M351.33 471.88h.95a.3.3 0 0 0 .07-.6h-.52l-.12-.06a.32.32 0 0 0-.23 0l-.13.61Zm-4.45-9.76a.31.31 0 0 0-.48-.38 4.07 4.07 0 0 0-.64 1.13.3.3 0 1 0 .56.21 3.31 3.31 0 0 1 .56-1Zm15.68 3.44a.3.3 0 0 0 .56-.21 3.28 3.28 0 0 0-.05-1.21.3.3 0 0 0-.59.14 2.69 2.69 0 0 1 0 1.06.33.33 0 0 0 .05.22Zm-7.9 5.18a.31.31 0 0 0-.56-.09 1.81 1.81 0 0 1-.75.7.3.3 0 0 0 .28.54 2.71 2.71 0 0 0 .73-.57 2.52 2.52 0 0 0 .35.33 3 3 0 0 0 .6.34.31.31 0 0 0 .22-.57 1.72 1.72 0 0 1-.81-.62l-.06-.06Zm1.88.75a.3.3 0 0 0 .14.59 2.35 2.35 0 0 0 .56-.2h.15a1.73 1.73 0 0 0 .45-.05.3.3 0 0 0-.13-.59h-.5a.26.26 0 0 0-.22.06 1.72 1.72 0 0 1-.45.16Zm2-.77a.3.3 0 0 0 .47.37l.05-.06a6.21 6.21 0 0 0 .89-.54.3.3 0 0 0-.35-.49 5.73 5.73 0 0 1-.86.51.3.3 0 0 0-.16.15v.06Zm2-1.44a4.73 4.73 0 0 0 .66-.61.28.28 0 0 1 .12-.12l.15-.08a.3.3 0 0 1 .33.5l-.14.09a5.36 5.36 0 0 1-.74.69.3.3 0 0 1-.38-.47Zm1.6-1.59a.3.3 0 0 0 .55.25 2.59 2.59 0 0 0 .24-1.1.29.29 0 0 1 0-.09.3.3 0 1 0-.59-.13v.08a.2.2 0 0 0 0 .13 2 2 0 0 1-.19.84Zm.19-.85Zm0-.18Zm-.21-3.31a.31.31 0 0 0 .5-.34 3.64 3.64 0 0 0-.36-1.16.3.3 0 0 0-.54.28 2.8 2.8 0 0 1 .3 1 .3.3 0 0 0 .1.2Zm-1.07-2.06-.17-.12a.38.38 0 0 1-.12-.13l-.06-.09-.09-.11a1.49 1.49 0 0 0-.13-.13l-.07-.06-.1-.06h-.06a.3.3 0 0 1 .3-.53h.07l.11.08.11.09a2.32 2.32 0 0 1 .35.35l.11.15.19.14a.3.3 0 0 1-.38.47Zm-1.83-1.46a.3.3 0 0 0 .29-.53c-.09 0-.19-.1-.29-.14l-.38-.13h-.29a.3.3 0 0 0-.21.57h.32a.24.24 0 0 0 .13.05 2.27 2.27 0 0 1 .53.22Zm-2.12-.83a.31.31 0 0 0 .11-.6h-.4a6.69 6.69 0 0 0-.9.06.3.3 0 0 0 .08.6 5.73 5.73 0 0 1 .82-.05 1.37 1.37 0 0 1 .29 0Zm-2.15.34a.3.3 0 0 0-.3-.52 1.32 1.32 0 0 0-.29.19 2.55 2.55 0 0 0-.39-.24.3.3 0 0 0-.27.54 1.48 1.48 0 0 1 .43.31.29.29 0 0 0 .45 0 1.72 1.72 0 0 1 .37-.28Zm-2.31-.32a.3.3 0 0 0 .07-.6 7.19 7.19 0 0 0-.81-.05 2.15 2.15 0 0 0-.5.07.3.3 0 0 0 .15.59 1.42 1.42 0 0 1 .36-.05 6 6 0 0 1 .73 0Zm-2.18.4a.31.31 0 0 0-.25-.56 8.87 8.87 0 0 0-1.11.56.3.3 0 0 0 .31.52 9.32 9.32 0 0 1 1-.52Zm-2 1.16-.09.06-.1.09-.06.06-.12.14v.06a.33.33 0 0 1-.11.13 1.21 1.21 0 0 0-.24.21.3.3 0 0 1-.44-.41 1.42 1.42 0 0 1 .29-.26.41.41 0 0 1 .07-.11 1.8 1.8 0 0 1 .38-.4.83.83 0 0 1 .15-.11.3.3 0 0 1 .33.5Zm-2.25 3.91a.3.3 0 0 0-.59-.12 3.73 3.73 0 0 0-.08 1.29.3.3 0 0 0 .6-.06 3.8 3.8 0 0 1 .07-1.11Zm.14 2.25a.3.3 0 0 0-.58.16 5.2 5.2 0 0 0 .45 1.19.3.3 0 0 0 .54-.28 5.14 5.14 0 0 1-.41-1.07Zm1 1.81a.31.31 0 0 0-.27.53l.19.21c.06.06.14.15.2.2a3.54 3.54 0 0 0 .44.32l.14.08a.3.3 0 0 0 .3-.53l-.11-.06a1.7 1.7 0 0 1-.22-.15l-.14-.11-.19-.19-.09-.11a.29.29 0 0 0-.18-.12Zm1.94 1.61q.47.33 1 .63a.3.3 0 0 1-.31.52 10.71 10.71 0 0 1-.9-.59l-.13-.1a.3.3 0 0 1 .36-.48Zm2.2 1.14-.13.61a1 1 0 0 1-.25 0 .3.3 0 0 1 .15-.59h.21Z"/><path fill="#298396" fill-rule="evenodd" d="M357.09 464.19a.43.43 0 0 1-.65-.55l12.35-14.74h26.81a.43.43 0 0 1 .43.43.43.43 0 0 1-.43.43h-26.41Z"/><path fill="#298396" d="M370.96 446.05h23.47v1.55h-23.47z"/><path fill="#298396" fill-rule="evenodd" d="M356.57 462.73a1.32 1.32 0 1 1-1.32 1.32 1.33 1.33 0 0 1 1.32-1.32Z"/><path fill="#059283" fill-rule="evenodd" d="m414.18 464.75-29.41-49.57a3.2 3.2 0 0 0-2.82-1.59l-57.68.68a3.24 3.24 0 0 0-2.9 1.87l-28.13 50.06a3.24 3.24 0 0 0 .05 3.26l29.41 49.59a3.22 3.22 0 0 0 2.82 1.58l57.68-.63a3.23 3.23 0 0 0 2.93-1.93l28.1-50a3.22 3.22 0 0 0-.05-3.27Zm-20.27-21.47 13.76 23.19-26.41 47-53.95.63-27.51-46.36 26.42-47 53.94-.64Z"/><path fill="#fcccb2" fill-rule="evenodd" d="M246.56 408.86c-3.6-5.9-10.69-6.36-18.81-10.05a12.59 12.59 0 0 1-5.31-3.89c-.87-1.15-2.82-7.21-2.25-9.91-5.27-.07-7.48-.07-12.75 0 .54 5.76-1.2 8.38-1.91 9.45a12.26 12.26 0 0 1-5.65 4.35c-8.11 3.69-15.2 4.15-18.81 10.05"/><path fill="#563837" fill-rule="evenodd" d="M210.14 365c-.23.28-.42.5-.53.61a8.45 8.45 0 0 1 .59 1.29 9.63 9.63 0 0 1-3 10.9 5.4 5.4 0 0 1 4.84 3.59 5.73 5.73 0 0 1-3.07 7.28 5.25 5.25 0 0 1-6.6-2.47 3.75 3.75 0 0 1-4.72-2.36 4 4 0 0 1-.26-1.51 5.42 5.42 0 0 1-2.5-6.27 9.32 9.32 0 0 1-1.31-2.41 9.59 9.59 0 0 1 4-11.55 7.79 7.79 0 0 1 4.41-9.24 7.08 7.08 0 0 1 3.24-.49 12.06 12.06 0 0 1 17.29 0 7.06 7.06 0 0 1 3.24.49 7.79 7.79 0 0 1 4.41 9.24 9.67 9.67 0 0 1 2.66 14 5.71 5.71 0 0 1 .22 1.56 5.35 5.35 0 0 1-2.73 4.71 4.2 4.2 0 0 1-.25 1.51 3.77 3.77 0 0 1-4.73 2.36 5.25 5.25 0 0 1-6.6 2.47 5.72 5.72 0 0 1-3.06-7.28 5.37 5.37 0 0 1 4.83-3.59 9.64 9.64 0 0 1-3-10.9 9.53 9.53 0 0 1 .59-1.29c-.11-.11-.29-.33-.53-.61a13 13 0 0 1-7.35 0Z"/><path fill="#fcccb2" fill-rule="evenodd" d="M203.57 361.68a45.37 45.37 0 0 0-2.36 13.57c0 9.12 6 15.95 12.33 15.95h.55c6.35 0 12.33-6.83 12.33-15.95a45.37 45.37 0 0 0-2.36-13.57c-1.87-5.59-18.61-5.59-20.49 0Z"/><path fill="#7c5555" fill-rule="evenodd" d="M226.45 368.67a1.67 1.67 0 0 1-2.39-1.1c-1.07-3.18-1.71-6.12-6.07-3.28-5.37 2.6-12.87-3.13-8.77-8 2.9-3.92 8.92-5.1 13.54-3.06 3.9 1.72 6.73 6.13 6.43 9.25s.35 5.14-2.74 6.19Z"/><path fill="#fcccb2" fill-rule="evenodd" d="M230.46 370.75a5.79 5.79 0 0 1-1.21 6c-1.26 1.58-3 2.61-4 1.42.05-2.24 0-7.77-.56-9.35 1.21-1.76 4.7-1.26 5.77 1.93Z"/><path fill="#fda380" fill-rule="evenodd" d="M227.36 369.79c1.4.09 2.73 4.6-.7 6.12a6.34 6.34 0 0 0 .45-2.15 8.4 8.4 0 0 0-.46-3.36c-.32-.74-.33-.68.71-.61Z"/><path fill="#fcccb2" fill-rule="evenodd" d="M197.18 370.75a5.75 5.75 0 0 0 1.21 6c1.25 1.58 3 2.61 4 1.42 0-2.24 0-7.77.56-9.35-1.22-1.76-4.71-1.26-5.77 1.93Z"/><path fill="#fda380" fill-rule="evenodd" d="M200.28 369.79c-1.41.09-2.74 4.6.69 6.12a6.34 6.34 0 0 1-.45-2.15 8.4 8.4 0 0 1 .46-3.36c.32-.74.34-.68-.7-.61Z"/><path fill="#7c5555" fill-rule="evenodd" d="M202.08 368.09a1.29 1.29 0 0 0 1.85-.85c.38-1.1.45-2.95 2.07-1.9 3.53 1.7 7.39-1.08 6.52-4.27-1-3.54-5.35-5.32-8.59-4-4.65 1.83-7.05 9.26-1.85 11.02Z"/><path fill="#e38d5f" fill-rule="evenodd" d="M213.35 377.52c.43.05.37.51.37.55-.1.64-.11 2.93.45 2.67s.18-1.42.14-1.79c-.1-.89-.54-1.85-.6-2.62-.09-1.17.24-1.05.6-1.86s-.26-2-.1-2.75v-.1c.21-1.33 2.31-.95 2.9-.42s.14.94 1.6 1.51c.53.2 1.18.83 1 1.41-.13.4-2.11.72-2.51.84-1.21.38-2.53.68-2.17 2.25s2.54 2.21 4.68 3.31c.54.28 1.29 1 1.19 1.68-.13.84-1.31.43-2 1.53-.43.65-1.13 1.16-1.63.27-.69-1.23.22-1.65.09-2.79-.06-.48-.81-1.1-1.21-1.3s-1.31-.19-1 .29a3.13 3.13 0 0 1 .57.86c.19.47-.32.8-.74.86-1.83.24-.28 2.56.25 1.15.74-1.92 1.43-.61 1.25.73-.14 1.09-1 1.69-1.69 1s-.65-.52-1.56-.49-.8-.3-1.57.49-1.55.08-1.69-1c-.18-1.34.51-2.65 1.25-.73.53 1.41 2.08-.91.25-1.15-.42-.06-.93-.39-.74-.86a3.13 3.13 0 0 1 .57-.86c.35-.48-.52-.51-1-.29s-1.15.82-1.21 1.3c-.13 1.14.78 1.56.09 2.79-.5.89-1.2.38-1.63-.27-.73-1.1-1.9-.69-2-1.53-.1-.66.65-1.4 1.19-1.68 2.14-1.1 4.29-1.6 4.68-3.31s-1-1.87-2.17-2.25c-.4-.12-2.38-.44-2.51-.84-.19-.58.46-1.21 1-1.41 1.46-.57.92-.91 1.6-1.51s2.7-.91 2.9.42v.1c.16.75-.43 2-.1 2.75s.69.69.6 1.86c-.06.77-.5 1.73-.6 2.62 0 .37-.34 1.57.14 1.79s.55-2 .45-2.67c0 0-.06-.5.37-.55Z"/><circle cx="227.6" cy="372.91" r="2.08" fill="#d50057"/><path fill="#d50057" fill-rule="evenodd" d="M230.42 371.74a.33.33 0 0 0 .61-.26 3.79 3.79 0 0 0-.81-1.2.33.33 0 0 0-.47.47 3 3 0 0 1 .67 1Zm-5.69 2.31a.33.33 0 0 0-.6.28 4 4 0 0 0 .83 1.16c.31.3.77-.18.45-.49a3.09 3.09 0 0 1-.69-.95Zm2.87-4.85a.33.33 0 0 0 0 .66 3.13 3.13 0 0 1 1.17.23.33.33 0 0 0 .25-.61 3.67 3.67 0 0 0-1.42-.28Zm-1.19.9a.33.33 0 0 0-.26-.61 3.66 3.66 0 0 0-1.2.82.33.33 0 0 0 .48.46 3.16 3.16 0 0 1 1-.67Zm-1.63 1.66a.33.33 0 0 0-.62-.24 3.66 3.66 0 0 0-.27 1.39.33.33 0 0 0 .66 0 3 3 0 0 1 .23-1.15Zm1.67 4a.33.33 0 0 0-.25.61 3.76 3.76 0 0 0 1.4.28.34.34 0 0 0 0-.67 3.05 3.05 0 0 1-1.15-.22Zm2.33 0a.33.33 0 0 0 .26.61 3.74 3.74 0 0 0 1.2-.81.33.33 0 0 0-.47-.47 3.15 3.15 0 0 1-1 .67Zm1.64-1.66a.34.34 0 0 0 .62.26 3.84 3.84 0 0 0 .27-1.41.33.33 0 1 0-.66 0 3 3 0 0 1-.23 1.11Zm-31.25.9a2.08 2.08 0 1 1 2.08-2.08 2.08 2.08 0 0 1-2.08 2.08Zm-2.82-3.26a3.18 3.18 0 0 1 .66-1c.31-.31-.16-.78-.46-.47a3.64 3.64 0 0 0-.81 1.2.33.33 0 0 0 .61.26Zm5.68 2.31a2.91 2.91 0 0 1-.68.95.33.33 0 0 0 .45.49 3.83 3.83 0 0 0 .84-1.16.34.34 0 0 0-.61-.28Zm-2.86-4.85a3.63 3.63 0 0 0-1.42.28.33.33 0 0 0 .25.61 3.13 3.13 0 0 1 1.17-.23.33.33 0 0 0 0-.66Zm1.19.9a3.28 3.28 0 0 1 1 .67.33.33 0 1 0 .47-.46 3.62 3.62 0 0 0-1.19-.82.33.33 0 1 0-.26.61Zm1.63 1.66a3 3 0 0 1 .22 1.15.34.34 0 0 0 .67 0 3.66 3.66 0 0 0-.27-1.39.33.33 0 0 0-.62.24Zm-1.67 4a3.05 3.05 0 0 1-1.15.22.34.34 0 0 0 0 .67 3.67 3.67 0 0 0 1.39-.28.33.33 0 0 0-.24-.61Zm-2.33 0a3 3 0 0 1-1-.67.33.33 0 0 0-.47.47 3.64 3.64 0 0 0 1.2.81.33.33 0 0 0 .26-.61Zm-1.87-2.81a.33.33 0 0 0-.66 0 3.84 3.84 0 0 0 .27 1.41.34.34 0 0 0 .62-.26 2.85 2.85 0 0 1-.23-1.19Z"/><path fill="#059283" fill-rule="evenodd" d="m267.72 380.66-24.72 44a2.86 2.86 0 0 1-2.44 1.45l-50.49.59a2.84 2.84 0 0 1-2.58-1.58l-25.65-43.26a2.82 2.82 0 0 1 0-2.85l24.72-44a2.82 2.82 0 0 1 2.43-1.44l50.5-.6a2.85 2.85 0 0 1 2.61 1.64l25.6 43.19a2.84 2.84 0 0 1 0 2.86Zm-17.3 19.21L262 379.29l-24.07-40.61-47.24.55-23.12 41.16L191.63 421l47.23-.55Z"/><path fill="#ea85a8" fill-rule="evenodd" d="M228.4 372.65a.34.34 0 1 1-.52-.44l9.88-11.79h21.45a.35.35 0 0 1 0 .69h-21.13Z"/><path fill="#ea85a8" d="M239.49 358.14h18.78v1.24h-18.78z"/><path fill="#ea85a8" fill-rule="evenodd" d="M228 371.49a1.06 1.06 0 1 1-1 1.06 1.05 1.05 0 0 1 1-1.06Zm-29.63 1.16a.34.34 0 0 0 .48.05.35.35 0 0 0 0-.49L189 360.42h-21.44a.35.35 0 1 0 0 .69h21.13Z"/><path fill="#ea85a8" d="M168.5 358.14h18.78v1.24H168.5z"/><path fill="#ea85a8" fill-rule="evenodd" d="M198.78 371.49a1.06 1.06 0 1 0 1.06 1.06 1.05 1.05 0 0 0-1.06-1.06Z"/><path fill="#edb69a" d="M369.62 137.91c-3.51 6.47-7 9.27-11 12.34l-.53.38a30.14 30.14 0 0 0 4.35 15.37l-7.55.35-7.19.32-10.84.5a71 71 0 0 0 1.68-10.45c-4.41.13-8.58-.6-11.68-2.48-2.78-1.69-4.45-4.55-4.11-9.23a19.4 19.4 0 0 1 .29-2.24l.3-1.68c.17-1 .33-2.09.46-3.13-.71-.15-1.46-.33-2.18-.55a9.49 9.49 0 0 1-3.24-1.51 1.84 1.84 0 0 1-.67-1c-.21-1.11 2.4-3.79 4.16-6.8.9-1.56 1.72-3.18 2.37-4.58v-.38a23.13 23.13 0 0 1 3.21-13.14c7.35-11.64 33.62-17.5 44.4-2.24 7.05 9.97 1.34 23.59-2.23 30.15Z"/><path fill="#ec6a71" d="m354.89 166.3-7.19.32c-.1-4.05.33-8.9-2.61-16.55-.66-4.18-5-4.7-10.29-5.88-9.13-2-10.59 1-12.05.77a19.4 19.4 0 0 1 .29-2.24l.3-1.68a20.88 20.88 0 0 1 14.4-4.2c1.7.16 7.06 2.65 6.47-.88-1.15-6.88-8.8-8.46-13.23-7.06-3.64 1.15-7.27 5.54-9.36 8.46a9.49 9.49 0 0 1-3.24-1.51 25.74 25.74 0 0 1 10.54-11.36c9.12-5 20.88 3.53 22.35 9.41 1.3 5.21 1.45 24.65 3.62 32.4Z"/><path fill="#298396" d="M364.25 134.83a17.09 17.09 0 0 0-31.81-6.26 16.91 16.91 0 0 0-2.23 8.42v.58a17 17 0 0 0 .82 4.71q.22.69.51 1.35a16.82 16.82 0 0 0 3 4.7 17.06 17.06 0 0 0 11.87 5.72h.89a17.06 17.06 0 0 0 8.41-2.22 17.1 17.1 0 0 0 8.67-14.83 19.27 19.27 0 0 0-.13-2.17Zm-6.42 12.79a15.12 15.12 0 0 1-4.95 3.26 14.79 14.79 0 0 1-5.58 1.12 13.36 13.36 0 0 1-1.56-.08 15 15 0 0 1-10.09-5.49 15.46 15.46 0 0 1-1.56-2.35 15.07 15.07 0 0 1-1.77-7V137a15 15 0 0 1 15-15 14.19 14.19 0 0 1 2.27.18 15 15 0 0 1 12.7 14.8 15.49 15.49 0 0 1-.14 2.06 14.94 14.94 0 0 1-4.32 8.58Z"/><path fill="#fff" d="M354.92 127.47a12.13 12.13 0 0 0-6.86-2.66h-.76a12.08 12.08 0 0 0-3.82.61 12.23 12.23 0 0 0-8.38 11.37v.21a12.4 12.4 0 0 0 .28 2.6 11.94 11.94 0 0 0 1.78 4.17 10.51 10.51 0 0 0 .86 1.13 12.19 12.19 0 1 0 16.9-17.42Zm-2.44 17.82a9.78 9.78 0 0 1-13.94-3.93 9.48 9.48 0 0 1-1-3.14 8.29 8.29 0 0 1-.08-1.23v-.17a9.82 9.82 0 0 1 8.74-9.57h1.05a9.79 9.79 0 0 1 5.18 18.09Z" opacity=".7"/></g></g></svg>