<svg xmlns="http://www.w3.org/2000/svg" enable-background="new 0 0 6000 4000" viewBox="0 0 6000 4000"><path fill="none" d="M2491.4,1364.8h-67.9c6.7,12.1,11.5,23.5,14.8,32.8c0.5,1.5,0.8,3,0.9,4.5h52.3V1364.8z"/><path fill="none" d="M2586.4,2959.4c25.3,0,45.9-20.5,45.9-45.9c0-25.3-20.5-45.9-45.9-45.9c-25.3,0-45.9,20.5-45.9,45.9
		C2540.5,2938.9,2561,2959.4,2586.4,2959.4z"/><path fill="none" d="M3786,1856.3c0.9-0.9,2.3-1.5,3.6-1.5h114.7l11.5-161.7h-584.2c-125.9,0-227.9-102-227.9-227.9v-96.1
		c-15.5,4.8-29.3,13.2-40.5,24.4c-17.7,17.8-28.7,42.2-28.7,69.3l0,452.9h749.9v-55.8C3784.5,1858.6,3785,1857.3,3786,1856.3z"/><path fill="none" d="M1151.1,2963.6c-21.7,59.5-43.3,117.4-64.5,172.8c32-15.6,65.5-28.7,100.2-39
		C1175.1,3054,1163.2,3009.2,1151.1,2963.6z"/><path fill="none" d="M1545.1,3090.4c47.2-114.9,160.2-195.8,292.2-195.8c116.2,0,217.8,62.8,272.6,156.3l95.5-1021.6h-304.8
		c-1.3,0-2.7-0.5-3.6-1.5c-0.9-0.9-1.5-2.3-1.5-3.6v-103.3c0-1.3,0.5-2.7,1.5-3.6c0.9-0.9,2.3-1.5,3.6-1.5h291.9l37.8-49.8
		l86.7-114.2h-89.8c-1.3,0-2.7-0.5-3.6-1.5c-0.9-0.9-1.5-2.3-1.5-3.6v-42.3c0-1.3,0.5-2.7,1.5-3.6c0.9-1,2.3-1.5,3.6-1.5h264.2
		v-32.1h-62.9c-1.3,0-2.7-0.5-3.6-1.5c-0.9-0.9-1.5-2.3-1.5-3.6v-225.6c-5.7,6.6-12.8,13.2-20.8,19.4
		c-21.3,16.3-49.3,29.4-77.3,29.4c-7.3,0-14.6-0.9-21.7-2.9c-30.5-8.6-65.2-18.5-97.9-27c-3-0.8-6-1.5-9-2.3
		c-1.9,9.9-3.5,16.1-3.5,16.2c-0.6,2.1-2.4,3.6-4.5,3.8c-0.1,0-227.1,18.2-443,18.2c-58.9,0-117.1-1.4-169.6-4.8
		c-5.5-0.4-10.9-0.8-16.2-1.2c-25.5,330.1-28.8,591.2-28.8,703.7c0,29.3,0.2,48.5,0.3,56.2c0,2.6,0.1,3.9,0.1,3.9
		c0,2.5-1.7,4.6-4.1,5.1c0,0-19.8,3.8-53,9.8l39,819.1C1524,3085.3,1534.6,3087.7,1545.1,3090.4z"/><path fill="none" d="M2596.5,3669.9c123.8,14.2,227.9,36.4,300.1,63.6c68.6-63,184.3-110.1,322.1-128.4
		c50.2-44.2,122.5-80.2,208.5-103.4v-539.4c0-1.3,0.5-2.7,1.5-3.6c0.9-0.9,2.3-1.5,3.6-1.5h330.4c-28.5-14.4-48.1-43.9-48.1-78
		v-205.2c0-59,35.6-109.7,86.4-131.9v-103.6c0-1.3,0.5-2.7,1.5-3.6c0.9-0.9,2.3-1.5,3.6-1.5h139.2c1.4,0,2.6,0.5,3.6,1.5
		c1,1,1.5,2.2,1.5,3.6V2542c50.8,22.2,86.4,72.8,86.4,131.9v205.2c0,34.1-19.6,63.6-48.1,78h345.4c1.4,0,2.6,0.5,3.6,1.5
		c1,1,1.5,2.2,1.5,3.6v400.4c52.3,5.3,102.7,14.8,150.5,27.9l-127.3-1361.3h-344h-135.2H2297.9l-116.1,1241.9
		C2394.3,3295.3,2564.3,3459.9,2596.5,3669.9z M2586.4,2844.4c38.2,0,69.2,30.9,69.2,69.1c0,38.2-31,69.1-69.2,69.1
		c-38.2,0-69.1-30.9-69.1-69.1C2517.2,2875.4,2548.2,2844.4,2586.4,2844.4z"/><path fill="#fff" d="M2185.2,835l-59.3-40.6c-1.3-0.9-2.1-2.3-2.2-3.9c-0.1-1.6,0.5-3.1,1.7-4.1l19.1-17.2
		c-15.6,0.8-26.6,1.1-26.6,1.1l0,0c-2.8,0.1-5.2-2.1-5.2-4.9c-0.1-2.8,2.1-5.2,4.9-5.2c0,0,1.9-0.1,5.2-0.2l43.9-45.8
		c-1.2-1.1-1.8-2.7-1.5-4.4c0.4-2.8,3-4.7,5.8-4.3c11.9,1.8,23.7,5,34.4,9l26.8-24.1c-15.6-6.7-33.5-12-51.4-12
		c-12.5,0-25,2.5-37.1,8.9c-12.1,6.4-24,16.7-35,32.7c-33.7,49.1-60.9,90-78.5,116.9c11.6,6.6,23.2,13,33.8,19.5
		c15,9.2,28.2,18.6,36.7,29.9c0.4,0.5,0.8,1.1,1.1,1.6c20-13.5,44.4-29.5,67.1-43.3C2174.5,841.2,2179.9,838,2185.2,835z"/><path d="M2030.2,836.9c17.7-27,44.8-67.8,78.5-116.9c11-16,22.8-26.3,35-32.7c12.1-6.4,24.6-8.9,37.1-8.9c17.9,0,35.8,5.3,51.4,12
		l8.3-7.5c-0.9-0.4-1.8-0.8-2.7-1.2c-16.7-7.3-36.4-13.5-57-13.5c-13.9,0-28.1,2.9-41.9,10.1c-13.7,7.3-26.9,18.9-38.6,36
		c-34,49.5-61.2,90.6-79,117.6C2024.3,833.5,2027.3,835.2,2030.2,836.9z"/><path d="M2185.2,835c-5.3,3-10.7,6.2-16.2,9.6c-22.7,13.8-47.1,29.8-67.1,43.3c2,2.8,3.7,5.8,5,8.9c9.1-6.1,19.1-12.8,29.4-19.5
		c14.6-9.5,29.9-19.2,44.2-27.7c4.8-2.9,9.6-5.6,14.1-8.2L2185.2,835z"/><path fill="#fff" d="M2017.8,1048.2c32.4-43.2,57.5-82.6,72.1-110.7l0.3-0.6c6.8-9.8,9.5-18.1,9.5-25.1c0-6.9-2.5-13.1-7.2-19.4
		c-4.7-6.2-11.7-12.3-20.1-18.3c-16.4-11.7-38.4-22.9-59.8-35.6c-3.5,1.3-7.8,3.7-12.8,7.3c-5.8,4.3-12.5,10-19.8,16.9
		c-14.5,13.8-31.5,32.1-50.2,52c-37.4,39.9-81.7,86.3-128.1,117.4c-31,20.7-63.1,34.7-95.1,34.7c-4.1,0-8.3-0.2-12.4-0.7
		c-15.8-1.9-32-7.9-48.4-16.9c-16.3-9-32.8-20.9-49.1-34.7c-32.6-27.6-64.5-62.9-92.6-97.8c-2.3-2.9-4.6-5.8-6.9-8.7
		c5,12.1,10.4,25.1,15.9,38.9c25.8,64.3,54.8,143.4,67.6,203.4c2.3,10.8,9.1,20.9,20.1,30.4c11,9.5,26.1,18.3,44.3,26.2
		c36.5,15.9,85.3,28.5,138.4,38.7c12.5,2.4,25.3,4.7,38.2,6.8c4-3.1,8-6.3,12-9.5C1904.2,1186.2,1969.2,1113,2017.8,1048.2z"/><path d="M1497.2,908.1c2.3,2.9,4.6,5.8,6.9,8.7c28.1,34.8,60,70.1,92.6,97.8c16.3,13.8,32.8,25.7,49.1,34.7
		c16.3,9,32.6,15,48.4,16.9c4.1,0.5,8.2,0.7,12.4,0.7c32.1,0,64.2-14,95.1-34.7c46.5-31.1,90.7-77.6,128.1-117.4
		c18.7-19.9,35.7-38.2,50.2-52c7.3-6.9,13.9-12.6,19.8-16.9c4.9-3.6,9.3-6,12.8-7.3c21.3,12.7,43.3,23.9,59.8,35.6
		c8.5,6,15.5,12.1,20.1,18.3c4.7,6.3,7.1,12.5,7.2,19.4c0,7.1-2.6,15.3-9.5,25.1l-0.3,0.6c-14.6,28.1-39.7,67.5-72.1,110.7
		c-48.6,64.8-113.6,138-184.1,194.9c-4,3.2-8,6.4-12,9.5c4.5,0.8,9.1,1.5,13.7,2.2c49.4-39.2,96-86.3,136.5-133.3
		c58.7-68.1,104.5-135.8,127-179.1c7.5-10.8,11.1-21,11.1-30.6c0-5.3-1.1-10.3-3.1-15c-1.3-3.1-3-6.1-5-8.9
		c-0.4-0.5-0.7-1.1-1.1-1.6c-8.5-11.3-21.7-20.6-36.7-29.9c-10.6-6.5-22.2-12.9-33.8-19.5c-3-1.7-5.9-3.4-8.8-5.1
		c-1.8-1.1-3.7-2.1-5.5-3.2c-1.2-0.7-2.6-0.9-3.9-0.6c-3.8,1-7.7,2.9-11.8,5.3c-7.6,4.7-16,11.6-25.2,20.2
		c-16.1,15.1-34.8,35.3-55.4,57.3c-30.9,32.9-66.1,69.6-102.7,97.9c-18.3,14.1-36.9,26.2-55.4,34.6c-18.5,8.5-36.9,13.3-54.7,13.3
		c-3.7,0-7.5-0.2-11.2-0.7c-14.1-1.7-29.1-7.2-44.7-15.7c-27.2-14.9-55.7-39-83-66.8c-31.7-32.3-61.7-69.5-86.7-103
		C1485.9,881.2,1491.3,893.9,1497.2,908.1z"/><polygon points="2124.8 1112.6 2169.3 1155.5 2193.7 1128 2150.3 1083.7"/><path d="M2169.3,1155.5l-44.5-42.9l25.5-29l43.5,44.3l6.8-7.6l-46.8-47.8c-1-1-2.4-1.6-3.8-1.5c-1.4,0-2.8,0.7-3.7,1.7l-32.3,36.8
		c-1.8,2-1.7,5.1,0.3,7l48.3,46.5L2169.3,1155.5z"/><polygon fill="#fff" points="2760.2 1863.9 2710.8 1751.7 2329.9 1751.7 2244.7 1863.9"/><path d="M2714.1,1751.7h-3.3l49.4,112.2h-515.5l85.2-112.2h-12.8l-86.7,114.2c1-1.3,2.5-2,4.1-2H2768c2,0,3.9,1.2,4.7,3
		l-50.8-115.2H2714.1z"/><polygon points="2237 1874.1 2206.7 1914 2782.3 1914 2764.7 1874.1"/><path d="M2768,1863.9h-533.6c-1.6,0-3.1,0.7-4.1,2l-37.8,49.8h601.6l-21.5-48.8C2771.9,1865.1,2770,1863.9,2768,1863.9z
		 M2206.7,1914l30.3-39.9h527.7l17.6,39.9H2206.7z"/><rect width="133.7" height="37.3" x="2501.6" y="1364.8"/><rect width="133.7" height="32.1" x="2501.6" y="1667.2"/><rect width="10.2" height="32.1" x="2491.4" y="1667.2"/><rect width="10.2" height="37.3" x="2491.4" y="1364.8"/><rect width="10.2" height="37.3" x="2635.3" y="1364.8"/><rect width="10.2" height="32.1" x="2635.3" y="1667.2"/><path fill="#fff" d="M2699.4,1657v-244.7h-261.4c-0.4,1.5-0.9,3-1.6,4.4c-0.8,1.8-1.7,3.6-2.7,5.5V1657H2699.4z"/><path d="M2635.3,1402.1h-133.7h-10.2h-52.3c0.1,0.7,0.2,1.3,0.2,2c0,2.7-0.5,5.4-1.3,8.2h261.4V1657h-265.8v-234.8
		c-1.4,2.5-3,5.1-4.9,7.6c-1.6,2.2-3.4,4.4-5.3,6.6v225.6c0,1.3,0.5,2.7,1.5,3.6c0.9,0.9,2.3,1.5,3.6,1.5h62.9h10.2h133.7h10.2h59
		c1.4,0,2.6-0.5,3.6-1.5c1-1,1.5-2.2,1.5-3.6v-254.9c0-1.4-0.5-2.6-1.5-3.6c-1-1-2.2-1.5-3.6-1.5h-59H2635.3z"/><path fill="#61c3da" d="M2702.7,1354.6v-103.3h-355.4c-1.3,0-2.7-0.5-3.6-1.5l-129.5-129.5l-46.6,52.5l128.6,128.5
		c5-2.3,9.7-4.5,14.4-6.3c7.4-2.9,14.7-5,22.6-5c8.5,0,17.5,2.5,27.3,8.1c22.7,13.1,39.7,31.2,52.3,49.4c1.6,2.4,3.2,4.7,4.7,7.1
		H2702.7z"/><path d="M2296.1,1301.4l-128.6-128.5l46.6-52.5l129.5,129.5c0.9,0.9,2.3,1.5,3.6,1.5h355.4v103.3h-285.2c2.2,3.4,4.1,6.8,6,10.2
		h67.9h10.2h133.7h10.2h62.3c1.4,0,2.6-0.5,3.6-1.5c1-1,1.5-2.2,1.5-3.6v-113.5c0-1.4-0.5-2.6-1.5-3.6c-1-1-2.2-1.5-3.6-1.5h-358.4
		l-131.9-131.8c-1-1-2.4-1.5-3.8-1.5c-1.4,0-2.7,0.7-3.7,1.7l-9.6,10.8l-6.8,7.6l-24.4,27.5l-6.8,7.6l-5.8,6.5c-1.8,2-1.7,5.1,0.2,7
		l129.2,129.2C2289.6,1304.3,2292.9,1302.8,2296.1,1301.4z"/><polygon fill="#61c3da" points="2232.3 1709.5 2232.3 1741.5 2327.3 1741.5 2714.1 1741.5 2760.7 1741.5 2760.7 1709.5"/><path d="M2635.3,1699.3h-133.7h-10.2h-264.2c-1.3,0-2.7,0.5-3.6,1.5c-0.9,0.9-1.5,2.3-1.5,3.6v42.3c0,1.3,0.5,2.7,1.5,3.6
		c0.9,0.9,2.3,1.5,3.6,1.5h89.8h12.8h380.9h3.3h7.8h43.8c1.4,0,2.6-0.5,3.6-1.5c1-1,1.5-2.2,1.5-3.6v-42.3c0-1.4-0.5-2.6-1.5-3.6
		c-1-1-2.2-1.5-3.6-1.5h-120.3H2635.3z M2760.7,1741.5h-46.6h-386.8h-95v-32.1h528.3V1741.5z"/><path fill="#fff" d="M2306.3,1472.5c6.1,1.7,12.5,2.5,18.9,2.5c16.2,0,33.2-5.1,48.6-13c15.4-7.9,29.2-18.6,39.1-29.2
		c6.6-7.1,11.5-14.1,14-20.1c1.5-3.4,2.1-6.4,2.1-8.7c0-1.2-0.2-2.2-0.5-3.1c-4.5-12.9-12.3-30.4-24.2-47.6
		c-11.9-17.2-28-34.2-49-46.3c-8.7-5-15.7-6.8-22.2-6.8c-6.1,0-12.1,1.6-18.9,4.2c-6.7,2.6-14.2,6.4-22.8,10.2
		c-17.4,7.7-39.8,15.9-72.4,17c-7,0.2-13.9,0.4-20.6,0.4c-2.4,0-4.7,0-7.1,0c1.3,2.7,2.6,5.5,3.6,8.4c5.9,16.1,7.9,34.6,7.9,52.4
		c0,18.5-2.1,36.4-4.4,50.2c3.2,0.8,6.5,1.6,9.7,2.5C2241.1,1454,2275.9,1463.9,2306.3,1472.5z"/><path d="M2191.4,1332c2.3,0,4.7,0,7.1,0c6.7,0,13.6-0.1,20.6-0.4c32.6-1.1,55-9.3,72.4-17c8.7-3.9,16.1-7.6,22.8-10.2
		c6.8-2.7,12.8-4.3,18.9-4.2c6.6,0,13.5,1.8,22.2,6.8c21,12.1,37.1,29.1,49,46.3c11.9,17.2,19.7,34.7,24.2,47.6
		c0.3,0.9,0.5,1.9,0.5,3.1c0,2.3-0.7,5.3-2.1,8.7c-2.5,5.9-7.4,13-14,20.1c-9.9,10.6-23.7,21.3-39.1,29.2
		c-15.4,7.9-32.4,13.1-48.6,13c-6.5,0-12.8-0.8-18.9-2.5c-30.5-8.6-65.3-18.5-98.1-27c-3.3-0.8-6.5-1.7-9.7-2.5
		c-0.6,3.7-1.2,7-1.8,10.1c3,0.8,6,1.5,9,2.3c32.7,8.4,67.4,18.3,97.9,27c7.1,2,14.4,2.9,21.7,2.9c28-0.1,56-13.2,77.3-29.4
		c8-6.1,15.1-12.7,20.8-19.4c1.9-2.2,3.7-4.4,5.3-6.6c1.9-2.6,3.5-5.1,4.9-7.6c1-1.8,2-3.7,2.7-5.5c0.6-1.5,1.1-3,1.6-4.4
		c0.8-2.8,1.3-5.5,1.3-8.2c0-0.7-0.1-1.3-0.2-2c-0.1-1.5-0.4-3-0.9-4.5c-3.2-9.3-8.1-20.7-14.8-32.8c-1.9-3.4-3.8-6.8-6-10.2
		c-1.5-2.4-3-4.7-4.7-7.1c-12.6-18.2-29.6-36.3-52.3-49.4c-9.8-5.7-18.8-8.2-27.3-8.1c-7.9,0-15.3,2.1-22.6,5
		c-4.7,1.8-9.4,4-14.4,6.3c-3.2,1.5-6.5,3-9.9,4.5c-3.9,1.7-8,3.4-12.4,5c-14.4,5.3-31.8,9.8-55.1,10.6c-6.9,0.2-13.7,0.4-20.3,0.4
		c-4.5,0-8.9-0.1-13.2-0.1C2187.6,1325,2189.6,1328.4,2191.4,1332z"/><path fill="#eff0f1" d="M2181.8,3271.1l-23.3,249.1c24.9,40.7,38.7,85.3,38.7,132.1c0,0.3,0,0.6,0,0.9c25.3-0.6,50.9-0.9,76.9-0.9
		c115.7,0,225.2,6.3,322.5,17.5C2564.3,3459.9,2394.3,3295.3,2181.8,3271.1z"/><path fill="#eff0f1" d="M1009.8,3619.6c52.6-60.7,137-101.7,233.3-106.9c11.8-18,25.8-35.2,41.8-51.4c-25.7-94.5-60.2-221.8-98.2-364
		c-34.7,10.4-68.1,23.4-100.2,39c-19.4,50.8-38.5,99.4-56.7,145.1c-59,147.6-110.3,264.4-142.2,324.2c-1,1.8-1.9,3.6-2.9,5.3
		c14.3-2.3,29-3.5,44-3.5C957.1,3607.4,984.4,3611.7,1009.8,3619.6z"/><path fill="#eff0f1" d="M1837.3,2894.6c-131.9,0-244.9,80.9-292.2,195.8c-10.5-2.7-21.1-5.1-31.8-7.3l11.9,248.8
		c54-13.7,112.3-21.2,173.2-21.2c150.1,0,284.8,45.4,376.2,117.3l35.3-377.3C2055,2957.4,1953.5,2894.6,1837.3,2894.6z"/><path fill="#c1bebc" d="M3218.7,3605.1c-137.8,18.3-253.5,65.5-322.1,128.4c-72.2-27.2-176.3-49.4-300.1-63.6
		c-97.3-11.2-206.7-17.5-322.5-17.5c-26,0-51.6,0.3-76.9,0.9c0-0.3,0-0.6,0-0.9c0-46.9-13.8-91.5-38.7-132.1l-31.7,338.6h1300.4
		v-357.2C3341.2,3524.8,3268.8,3560.8,3218.7,3605.1z"/><path fill="#c1bebc" d="M1698.4,3310.8c-60.9,0-119.3,7.5-173.2,21.2l12.8,269.3c0.1,1.6-0.6,3.1-1.8,4.1c-5.8,4.9-11.3,9.5-16.7,13.7
		l17.8,70.9c1.7,0.7,4.4,1.8,8.7,3.5c8.7,3.4,23.7,9,48.9,17.9c22.4,7.9,52.9,18.5,94.2,32.4c41.7,14,67,30.6,82.1,47.4
		c15.1,16.7,19.6,33.7,19.5,47.1c0,8.5-1.7,15.6-3.4,20.6h247.1l40.3-430.7C1983.2,3356.2,1848.5,3310.8,1698.4,3310.8z"/><path fill="#c1bebc" d="M1334.3,3633.9c-1.5-0.6-2.6-1.8-3-3.4c0,0-17.8-64.5-46.3-169.2c-16,16.2-30,33.4-41.8,51.4
		c-96.4,5.2-180.7,46.2-233.3,106.9c-25.4-7.9-52.7-12.2-81.1-12.2c-15,0-29.7,1.3-44,3.5c-7.3,13.3-13.5,23.5-18.6,30.2
		c-3,3.9-5.6,6.8-8.5,8.6c-7.7,4.7-16.5,7.6-26,9.1l-10.8,42.2c1.2,0.5,2.7,1.2,4.9,2c7.8,3.1,22.5,8.6,50,18.2
		c16.7,5.8,38.1,13.2,65.6,22.4c40.5,13.6,65.3,29.7,80.1,46c14.9,16.3,19.4,32.9,19.4,46.4c0,9.5-2.2,17.3-4.3,22.8h292l12.2-125v0
		l9.2-94.1C1344.7,3638,1339.6,3636,1334.3,3633.9z"/><path d="M3034.6,1462.8c0-27.1,11-51.5,28.7-69.3c11.2-11.2,25-19.6,40.5-24.4v-10.6c-45.8,12.6-79.4,54.5-79.4,104.3v452.9h10.2
		L3034.6,1462.8z"/><polygon points="4026.7 1854.8 4015.2 1693.1 3926.1 1693.1 3914.5 1854.8"/><polygon points="3914.5 1854.8 3926.1 1693.1 3915.8 1693.1 3904.3 1854.8"/><polygon points="4015.2 1693.1 4026.7 1854.8 4036.9 1854.8 4025.4 1693.1"/><polygon fill="#fff" points="4146.5 1915.7 4146.5 1865 3794.7 1865 3794.7 1915.7 3883.2 1915.7 4018.4 1915.7"/><path d="M4026.7,1854.8h-112.2h-10.2h-114.7c-1.3,0-2.7,0.5-3.6,1.5c-0.9,0.9-1.5,2.3-1.5,3.6v55.8h10.2V1865h351.9v50.7h10.2
		v-55.8c0-1.4-0.5-2.6-1.5-3.6c-1-1-2.2-1.5-3.6-1.5h-114.7H4026.7z"/><path fill="#d0d5d8" d="M4804.3,3377.7c31.1-41.8,62.8-91.5,92.2-149.8c-1.8-2.2-3.1-4.7-3.9-7.4c-31.3,62.7-65.3,115.5-98.4,159.3
		c1.2-0.3,2.4-0.6,3.6-0.8C4800,3378.4,4802.2,3378,4804.3,3377.7z"/><path fill="#d0d5d8" d="M4741.6,3453.6c-3.6,1.3-7.2,1.8-10.8,1.6c-9.8,10.4-19.2,20-28.2,28.6c2,1.3,3.9,2.5,5.8,3.8
		C4718.9,3477.4,4730,3466.1,4741.6,3453.6z"/><path fill="#d0d5d8" d="M4926.3,3158.9c0.9-0.7,1.9-1.4,2.9-2c17.6-42.1,33.8-87.9,47.8-137.5c-1.9-0.2-3.8-0.5-5.7-1
		c-0.3-0.1-0.6-0.2-1-0.3c-15,53.4-32.6,102.2-51.8,146.8c0,0.2,0,0.3,0.1,0.5C4921,3163.1,4923.6,3161,4926.3,3158.9z"/><path fill="#d0d5d8" d="M4994.1,3576.6c-3-0.2-5.8-1.1-8.3-2.3c-21,8.8-41.4,16.6-61,23.5c-26.2,9.2-50.9,16.9-73.6,23.2
		c1.4,2,2.8,3.9,4.2,5.9c42-11.8,90.8-28.1,142.6-50.4C4996.6,3576.7,4995.3,3576.7,4994.1,3576.6z"/><path fill="#d0d5d8" d="M5393.8,3231.4c-29.7,52.3-64.7,98.3-103,138.6c-4.1,4.3-8.2,8.5-12.4,12.7c-5,11.6-12.6,20.7-23.2,24.2
		c-0.9,0.3-1.9,0.6-2.9,0.8c-69.5,63.5-146.4,110.8-219.9,145.8c-1,1.1-1.9,2.3-2.9,3.4c-1.6,1.6-3.2,3.2-4.8,4.6
		c-1.7,1.6-3.5,3.3-5.5,4.9c-0.7,0.6-1.5,1.2-2.3,1.8c55.6-25.2,113.8-57.4,169.8-98.3c78.5-57.3,152.6-131.7,208.7-228
		c-0.3-0.8-0.7-1.6-0.9-2.5C5394,3236.8,5393.7,3234.1,5393.8,3231.4z"/><path fill="#d0d5d8" d="M5464.4,3081.3c-1.1-0.1-2.3-0.2-3.4-0.5c-1.1-0.3-2.3-0.6-3.3-1.1c-12.6,43-28.5,82.8-46.9,119.7
		c3.6-3.3,7.6-6.4,12.1-9.3C5439.1,3156.4,5453.1,3120.1,5464.4,3081.3z"/><path fill="#eff0f1" d="M5138.4,3623.2c-1.8-1.2-3.7-2.3-5.6-3.4c-1.9-1.1-3.9-2.4-6-3.5c-4.1-2.1-8.4-4.5-12.9-6.5
		c-8.9-4.4-18.6-8.5-28.8-12.4c-10.2-4.1-20.1-7.6-29.6-10.4c-4.7-1.6-9.4-2.7-13.9-3.9c-2.2-0.6-4.6-1-6.7-1.5
		c-2.2-0.5-4.3-0.9-6.5-1.3c-17-2.9-32.1-2.5-41.2,6.3c-4.4,4.4-6.7,10.5-6.5,18.2c0.1,3.8,0.7,8,2.2,12.3c1.4,4.3,3.3,9.1,6.1,13.7
		c1.4,2.3,2.9,4.7,4.5,7.2c1.7,2.4,3.6,4.7,5.6,7.1c4,4.9,8.8,9.4,14.1,14c10.7,8.9,23.9,16.9,38.9,22.8c15,5.8,30.1,8.8,44,9.6
		c7,0.2,13.6,0.2,19.8-0.7c3.1-0.4,6.1-0.8,9-1.4c2.9-0.7,5.6-1.4,8.2-2.2c5.2-1.5,9.8-3.7,13.8-5.9c4-2.2,7.3-4.8,10-7.6
		c5.3-5.5,7.8-11.5,7.5-17.8C5163.7,3643.1,5152.8,3632.6,5138.4,3623.2z"/><path fill="#eff0f1" d="M5024.8,3561.4c1.6-1.4,3.2-3,4.8-4.6c1-1.1,1.9-2.2,2.9-3.4c2.1-2.4,4.1-5,5.9-7.8c5.5-8.2,10-18,13-28.8
		c6-21.7,4.1-42.8-2.5-57.7c-6.6-15-17.8-23.7-30.2-24.2c-12.5-0.5-24.1,6.7-33.4,17.2c-9.4,10.6-16.8,24.7-21.2,40.8
		c-2.2,8.1-3.5,16.1-3.9,23.8c-0.2,3.9-0.2,7.6,0.1,11.3c0.1,1.8,0.3,3.7,0.5,5.5c0.3,1.6,0.8,3,1.3,4.2c0.5,1.2,1.1,2.4,1.8,3.3
		c0.3,0.5,0.7,1,1.1,1.5l1,1.7c1.3,2.3,2.4,4.9,3.4,7.4c2.1,5.2,3.8,10.2,7.5,15c2.3,3,5.4,5.7,9.2,7.6c2.5,1.2,5.2,2,8.3,2.3
		c1.2,0.1,2.5,0.1,3.8,0c2.7-0.2,5.6-0.8,8.6-2c1.1-0.4,2.2-0.9,3.3-1.5c1.1-0.6,2.3-1.4,3.3-2.1c1.4-0.9,2.7-1.9,4-2.9
		c0.8-0.6,1.5-1.2,2.3-1.8C5021.3,3564.7,5023.1,3562.9,5024.8,3561.4z"/><path fill="#eff0f1" d="M5325.1,3384.6c-41.7,2-74.6,23.9-73.3,48.9s36,43.6,77.7,41.6c41.7-2,74.6-23.9,73.3-48.9
		C5401.6,3401.2,5366.8,3382.6,5325.1,3384.6z"/><path fill="#eff0f1" d="M5278.5,3382.6c0.6-1.4,1.2-2.9,1.8-4.4c4.9-13.7,6.7-30.1,4.8-47.6c-1.8-17.4-7-33.1-14.6-45.5
		c-7.6-12.3-17.9-21.4-30.4-22.8c-12.4-1.4-24.7,5.8-33.6,19.9c-8.9,14-13.9,35.1-11.5,57.8c2.4,22.8,11.7,42.3,23.3,54.2
		c10.7,11.1,23,15.7,34.1,13.3c1-0.2,1.9-0.4,2.9-0.8C5265.8,3403.3,5273.4,3394.2,5278.5,3382.6z"/><path fill="#eff0f1" d="M5537.8,3201c-6.5-24.2-43.8-35.1-83.3-24.5c-11.9,3.2-22.6,8-31.6,13.7c-4.5,2.9-8.6,6-12.1,9.3
		c-2.1,2-4.1,4-5.8,6c-1.9,4.3-4.4,7.9-7.4,11c-2.4,4.9-3.7,9.9-3.8,14.8c-0.1,2.7,0.2,5.4,0.9,8c0.2,0.8,0.6,1.6,0.9,2.5
		c8.3,22.4,44.3,32.3,82.4,22.1C5517.5,3253.3,5544.3,3225.1,5537.8,3201z"/><path fill="#eff0f1" d="M5399.9,3139.6c-16.6-35.4-48.4-55.5-71-44.9c-22.6,10.6-27.6,47.9-11,83.3c16.6,35.4,48.4,55.5,71,44.9
		c3.3-1.6,6.2-3.7,8.8-6.4c3-3.1,5.5-6.8,7.4-11C5412.5,3188.7,5411.2,3163.7,5399.9,3139.6z"/><path fill="#eff0f1" d="M5464.4,3081.3c11.2,0.8,23.3-6.9,33.7-21.1c11.4-15.6,20.6-39.1,23.9-66c3.3-26.9-0.1-51.9-7.4-69.8
		c-7.4-17.9-18.6-28.7-31.1-28.9c-12.5-0.2-23.9,10-32.9,25.8c-8.9,15.9-15.6,37.6-18.5,62c-3,24.3-1.7,47,3.2,64.6
		c4.4,15.9,12,27.7,22.4,31.9c1.1,0.4,2.2,0.8,3.3,1.1C5462.2,3081.1,5463.3,3081.3,5464.4,3081.3z"/><path fill="#eff0f1" d="M4741.6,3453.6c0.7-0.2,1.4-0.5,2.1-0.8c-3.7-4-6.3-8.6-7.4-13.8c-5-22.4,17.7-46.8,51.8-57.4
		c0.2-1.1,0.4-2.1,0.6-3.2c3.9-24.9,0.9-48.2-6.3-64.8c-7.2-16.7-18.4-26.6-30.9-26.9c-12.5-0.2-24,8.9-33,22.9
		c-9.1,14.1-15.9,33.2-19.3,54.8c-3.4,21.5-2.7,41.8,1.6,58c4.3,16.2,12.4,28.3,24.4,31.9c1.8,0.5,3.7,0.8,5.6,0.9
		C4734.3,3455.4,4737.9,3454.8,4741.6,3453.6z"/><path fill="#eff0f1" d="M4736.3,3439c1.1,5.2,3.7,9.8,7.4,13.8c13.6,15,42.7,21.5,73.8,14.6c39.4-8.7,66.9-35.6,61.5-60.1
		c-5.1-23.1-37.8-35.7-74.7-29.6c-2.2,0.4-4.3,0.7-6.5,1.2c-1.2,0.3-2.4,0.5-3.6,0.8c-2.1,0.5-4.2,1.1-6.2,1.8
		C4754,3392.2,4731.3,3416.6,4736.3,3439z"/><path fill="#eff0f1" d="M4896.8,3228.2c8.2,9.6,23.2,11.4,40.2,9.9c4.3-0.4,8.7-1.1,13.3-1.8c4.5-0.9,9.3-1.7,14-3
		c9.6-2.3,19.6-5.3,29.9-8.9c10.4-3.5,20.1-7.2,29.1-11.4c4.5-1.9,8.8-4.2,12.9-6.2c4.1-2.2,8-4.4,11.6-6.7
		c14.4-9.2,25.1-19.9,25.6-32.5c0.3-6.2-2.2-12.2-7.3-17.7c-2.6-2.8-5.8-5.4-9.6-7.6c-3.8-2.3-8.3-4.5-13.3-6.1
		c-5-1.7-10.5-3.1-16.5-3.9c-6-1-12.4-1.2-19.1-1.2c-13.4,0.3-28.1,2.7-42.7,7.7c-13.3,4.6-25.4,11-35.6,18.1c-1,0.7-1.9,1.4-2.9,2
		c-2.7,2.1-5.3,4.2-7.8,6.4c1,6.9,1.3,13.8,0.7,20.3c-0.9,10-3.9,19-8.5,25c-4.8,6.3-10.6,8.8-16.8,8.9c-0.5,0-1,0-1.6,0
		c0.1,0.3,0.2,0.7,0.3,1c0.8,2.8,2.1,5.2,3.9,7.4C4896.6,3228,4896.7,3228.1,4896.8,3228.2z"/><path fill="#eff0f1" d="M4893.9,3219.5c6.2-0.1,12-2.6,16.8-8.9c4.6-6,7.6-15,8.5-25c0.6-6.5,0.3-13.3-0.7-20.3c0-0.2,0-0.3-0.1-0.5
		c-2.1-14.5-7.4-29.5-15.2-43.5c-11.7-20.7-26.5-35.4-40.1-43.6c-6.9-4.1-13.6-6.7-20.1-7.8c-6.4-1.1-12.8-1-18.6,1.3
		c-5.8,2.3-10.5,6.6-13.5,13.2c-3,6.4-4.4,14.7-4.2,23.7c0.4,18.1,6.9,38.7,17.5,57.6c10.6,18.9,23.1,32.6,34.3,40.7
		c5.7,4.1,11.3,6.9,17.2,9.2c5.1,1.8,10.8,3.7,16.5,4C4892.9,3219.4,4893.4,3219.5,4893.9,3219.5z"/><path fill="#eff0f1" d="M4977,3019.3c22.5,2.2,45.4-16.9,53-45.5c8.3-31-4.6-61.4-28.8-67.9c-24.2-6.5-50.5,13.5-58.8,44.5
		c-8.2,30.6,4.3,60.5,27.8,67.5c0.3,0.1,0.6,0.2,1,0.3C4973.2,3018.9,4975.1,3019.1,4977,3019.3z"/><path fill="#eff0f1" d="M4339.2,3362.6v496.2h194.3l-43.8-468.3C4442,3377.4,4391.6,3367.9,4339.2,3362.6z"/><path fill="#eff0f1" d="M4708.4,3487.6c-1.9-1.3-3.9-2.6-5.8-3.8c-35.8-23-75.1-43.4-117.3-60.8l40.8,435.8h298.9
		c0.4-6.4,0.6-12.8,0.6-19.2c0-76.4-25.3-148.6-70.2-212.7c-1.4-2-2.7-3.9-4.2-5.9C4814.8,3570.8,4766.3,3525.7,4708.4,3487.6z"/><polygon fill="#fff" points="2044.6 3858.8 2116.6 3858.8 2287.7 2029.2 2215.7 2029.2"/><polygon points="2181.8 3271.1 2297.9 2029.2 2287.7 2029.2 2116.6 3858.8 2044.6 3858.8 2215.7 2029.2 2205.4 2029.2 2109.9 3050.9 2074.6 3428.1 2034.3 3858.9 2126.8 3858.9 2158.5 3520.3"/><polygon fill="#fff" points="4543.8 3858.8 4615.8 3858.8 4444.7 2029.2 4372.7 2029.2"/><polygon points="4444.7 2029.2 4615.8 3858.8 4543.8 3858.8 4372.7 2029.2 4362.5 2029.2 4489.8 3390.5 4533.6 3858.9 4626 3858.9 4585.3 3423 4454.9 2029.2"/><path d="M577.6,3867.3c-1-1.4-1.2-3.1-0.6-4.7l1.4-3.8h-43.7c-2.8,0-5.1,2.3-5.1,5.1c0,2.8,2.3,5.1,5.1,5.1h45.1
		C578.9,3868.7,578.2,3868.1,577.6,3867.3z"/><path d="M1327.9,3863.9l0.5-5.1h-292c-2,5.1-3.9,8.1-4,8.3c-0.6,0.9-1.4,1.5-2.3,1.9h300.7c-0.6-0.3-1.2-0.7-1.7-1.2
		C1328.2,3866.8,1327.7,3865.3,1327.9,3863.9z"/><path d="M4533.6,3858.9h-194.3v5.1c0,1.4-0.5,2.6-1.5,3.6c-1,1-2.2,1.5-3.6,1.5h-901.8c-1.3,0-2.7-0.5-3.6-1.5
		c-0.9-0.9-1.5-2.3-1.5-3.6v-5.1H2126.8h-92.5h-247.1c-1.7,5-3.5,7.9-3.6,8.2c-0.6,0.9-1.4,1.6-2.4,2h3150.1c2.8,0,5.1-2.3,5.1-5.1
		c0-2.8-2.3-5.1-5.1-5.1h-6.4H4626H4533.6z"/><path d="M712.7,3739.4c-19.6-4.2-38.7-9.1-56.5-13.7c-1.9-0.5-3.8-1-5.7-1.5c-3.8-1-7.6-2-11.3-2.9l-50.1,138h436
		c0.6-1.1,1.3-2.7,2-4.6c1.7-4.6,3.4-11,3.4-18.7c0-11.2-3.5-24.9-16.7-39.5c-13.2-14.6-36.4-29.9-75.8-43.2
		c-26.3-8.9-47-15.9-63.5-21.7c-22.7,13.3-49.6,18.1-77.8,18.1c-6.9,0-13.8-0.3-20.8-0.8C754.9,3747.5,733.5,3743.8,712.7,3739.4z"/><polygon points="1023.8 3861.6 1023.8 3861.6 1023.8 3861.6"/><path d="M1032.4,3867.2c0.1-0.2,2-3.2,4-8.3c2.1-5.5,4.2-13.3,4.3-22.8c0-13.5-4.5-30.1-19.4-46.4c-14.8-16.3-39.6-32.4-80.1-46
		c-27.5-9.2-48.9-16.6-65.6-22.4c1.9,0.6,3.2,2.3,3.4,4.3c0.2,2-0.7,3.9-2.4,4.9c-23.1,14.2-50.9,19.3-80,19.3
		c28.2,0,55.1-4.8,77.8-18.1c16.4,5.7,37.1,12.8,63.5,21.7c39.4,13.2,62.6,28.6,75.8,43.2c13.2,14.6,16.7,28.3,16.7,39.5
		c0,7.6-1.7,14.1-3.4,18.7c-0.7,1.9-1.4,3.4-2,4.6h-436l50.1-138c-1.5-0.4-3-0.8-4.5-1.1c-1.4-0.4-2.6-1.3-3.3-2.6
		c-0.7-1.3-0.8-2.8-0.3-4.1v0c0,0,0,0,0,0l-52.8,145.4l-1.4,3.8c-0.6,1.6-0.3,3.3,0.6,4.7c0.5,0.8,1.3,1.4,2.1,1.7
		c0.6,0.3,1.3,0.5,2,0.5h446.3c0.7,0,1.4-0.2,2-0.5C1031,3868.7,1031.8,3868,1032.4,3867.2z M1023.8,3861.6L1023.8,3861.6
		L1023.8,3861.6L1023.8,3861.6z"/><path d="M650.5,3724.2c1.9,0.5,3.8,1,5.7,1.5C654.3,3725.2,652.4,3724.7,650.5,3724.2z"/><path fill="#fff" d="M753,3650c-21-6-41.8-14-60.3-22c-5.9-2.5-11.5-5.1-16.9-7.6l-33.1,91.1c22.2,5.7,46.8,12.3,72.1,17.7
		c24,5.1,48.5,9.1,71.8,10c3.3,0.1,6.7,0.2,9.9,0.2c23.7,0,45.7-3.6,64.6-12.5c-25.3-8.9-37.4-13.6-43.4-16.2
		c-2.3-1-3.7-1.6-4.7-2.2c-0.6-0.3-1-0.6-1.7-1.1c-0.3-0.3-0.8-0.7-1.3-1.7c-0.3-0.5-0.5-1.3-0.5-2.3c0-0.7,0.2-1.6,0.5-2.3
		c0,0,0,0,0,0l10.6-41.3c-2.1,0.1-4.2,0.2-6.4,0.2C795.1,3660.1,774,3656.1,753,3650z"/><polygon fill="#fff" points="815.5 3708.5 815.5 3708.5 815.5 3708.5"/><path d="M631.5,3717.6c0.7,1.3,1.9,2.2,3.3,2.6c1.5,0.4,3,0.8,4.5,1.1c3.7,0.9,7.4,1.9,11.3,2.9c1.9,0.5,3.8,1,5.7,1.5
		c17.8,4.6,36.9,9.5,56.5,13.7c20.8,4.5,42.2,8.1,63.2,9.7c7,0.5,13.9,0.8,20.8,0.8c29.1,0,56.8-5.1,80-19.3c1.7-1,2.6-2.9,2.4-4.9
		c-0.2-2-1.5-3.6-3.4-4.3c-27.4-9.6-42.2-15.1-50-18.2c-2.1-0.8-3.7-1.5-4.9-2l10.8-42.2c-3.5,0.5-7.1,0.9-10.8,1.1l-10.6,41.3
		c0,0,0,0,0,0c-0.4,0.7-0.5,1.5-0.5,2.3c0,1,0.3,1.8,0.5,2.3c0.5,1,1,1.4,1.3,1.7c0.6,0.5,1.1,0.8,1.7,1.1c1,0.6,2.4,1.2,4.7,2.2
		c6,2.6,18.2,7.3,43.4,16.2c-18.9,8.9-41,12.5-64.6,12.5c-3.3,0-6.6-0.1-9.9-0.2c-23.4-0.9-47.9-4.9-71.8-10
		c-25.3-5.4-49.9-12.1-72.1-17.7l33.1-91.1c-3.2-1.5-6.3-2.9-9.3-4.4l-35.3,97.3v0C630.7,3714.8,630.8,3716.3,631.5,3717.6z
		 M815.5,3708.5L815.5,3708.5L815.5,3708.5L815.5,3708.5z"/><path fill="#fff" d="M1581.7,3717.5c-42.1-15-50.6-19.1-51-19.2c-1.4-0.7-2.4-1.9-2.7-3.4l-17.3-69.2
		c-10.1,7.3-19.8,13.4-29.5,18.1c-17.5,8.6-35,12.8-54.1,12.8c-20,0-41.7-4.6-67.4-13.4l-8.4,86.7c39.5,5.4,82.7,12.1,123.9,12.1
		c12.8,0,25.4-0.7,37.6-2.2c8.2-1,16.2-2.4,24-4.3C1552.7,3731.7,1567.8,3725.9,1581.7,3717.5z"/><path d="M1537.2,3690l-17.8-70.9c-3,2.3-5.9,4.5-8.9,6.6l17.3,69.2c0.4,1.5,1.4,2.7,2.7,3.4c0.3,0.2,8.9,4.2,51,19.2
		c-13.8,8.3-28.9,14.2-45,18.1c-7.8,1.9-15.8,3.3-24,4.3c8.2-1,16.2-2.4,24-4.3c17-4.1,32.9-10.3,47.4-19.5c2.1-1.3,4.1-2.7,6.1-4.1
		c1.3-1,3.1-1.2,4.7-0.7c-25.2-8.9-40.2-14.5-48.9-17.9C1541.6,3691.8,1538.9,3690.7,1537.2,3690z"/><path d="M1349.7,3639.8l-9.2,94.1c0.1-1.4,0.8-2.6,1.9-3.5c1.1-0.9,2.5-1.2,3.8-1.1c1.6,0.2,3.3,0.4,4.9,0.7l8.4-86.7
		C1356.4,3642.2,1353.1,3641,1349.7,3639.8z"/><path d="M1777.6,3855.5c1.4-4.2,2.9-10.2,2.9-17.3c0-11.3-3.5-25.3-16.9-40.3c-13.5-15-37.2-30.9-77.8-44.5
		c-39.9-13.4-69.7-23.7-92-31.6c-16.7,11.4-35.2,19-54.8,23.7c-20.5,4.9-42,6.7-64,6.7c-42.1,0-85.6-6.8-124.9-12.1l-11.6,119.2
		h437.5C1776.6,3858.3,1777.1,3857,1777.6,3855.5z"/><path d="M1783.6,3867c0.1-0.2,1.9-3.2,3.6-8.2c1.7-5,3.4-12.1,3.4-20.6c0-13.4-4.5-30.4-19.5-47.1c-15.1-16.8-40.4-33.4-82.1-47.4
		c-41.3-13.9-71.8-24.4-94.2-32.4c-1.6-0.6-3.3-0.3-4.7,0.7c-2,1.4-4,2.8-6.1,4.1c-14.4,9.1-30.4,15.4-47.4,19.5
		c-7.8,1.9-15.8,3.3-24,4.3c-12.2,1.5-24.8,2.2-37.6,2.2c-41.2,0-84.4-6.7-123.9-12.1c-1.6-0.2-3.3-0.5-4.9-0.7
		c-1.4-0.2-2.8,0.2-3.8,1.1c-1.1,0.9-1.8,2.1-1.9,3.5v0l-12.2,125l-0.5,5.1c-0.1,1.4,0.3,2.9,1.3,3.9c0.5,0.5,1.1,0.9,1.7,1.2
		c0.7,0.3,1.4,0.5,2.1,0.5h446.3c0.7,0,1.4-0.2,2-0.5C1782.2,3868.6,1783.1,3868,1783.6,3867z M1350.2,3740.1
		c39.3,5.4,82.7,12.1,124.9,12.1c21.9,0,43.5-1.8,64-6.7c19.6-4.7,38.1-12.3,54.8-23.7c22.3,7.8,52.1,18.1,92,31.6
		c40.6,13.6,64.3,29.5,77.8,44.5c13.4,15,16.9,29.1,16.9,40.3c0,7.1-1.4,13.1-2.9,17.3c-0.5,1.5-1,2.8-1.5,3.8h-437.5L1350.2,3740.1
		z"/><path fill="#61c3da" d="M1336,3609.4c2.1,7.7,3.6,13,4.4,15.9c35.7,14,63,21.1,86.6,21.1c17.6,0,33.2-3.8,49.6-11.8
		c15.8-7.7,32.3-19.4,51-35.4l-63.5-1333.4c-24.9,4.5-56.1,9.9-91.4,15.7c-19.2,70.1-41,143.9-64.5,219.3
		c-45.9,147.2-98.4,300.7-151.1,445.8C1240.6,3261.2,1316.2,3537.2,1336,3609.4z"/><path d="M1284.9,3461.3c28.5,104.7,46.3,169.2,46.3,169.2c0.4,1.5,1.5,2.8,3,3.4c5.3,2.1,10.4,4.1,15.4,5.9
		c3.4,1.2,6.7,2.4,9.9,3.5c25.7,8.7,47.4,13.3,67.4,13.4c19.1,0,36.6-4.2,54.1-12.8c9.7-4.7,19.4-10.8,29.5-18.1
		c2.9-2.1,5.9-4.3,8.9-6.6c5.4-4.2,11-8.8,16.7-13.7c1.2-1,1.8-2.5,1.8-4.1l-12.8-269.3l-11.9-248.8l-39-819.1
		c-3.3,0.6-6.6,1.2-10.1,1.8l63.5,1333.4c-18.8,16-35.2,27.7-51,35.4c-16.4,8-32.1,11.8-49.6,11.8c-23.7,0-50.9-7.1-86.6-21.1
		c-0.8-2.9-2.3-8.2-4.4-15.9c-19.8-72.2-95.4-348.2-178.8-662.7c-2,5.6-4.1,11.2-6.1,16.8c12.1,45.6,24,90.4,35.6,133.8
		C1224.7,3239.5,1259.2,3366.8,1284.9,3461.3z"/><path fill="#61c3da" d="M880.8,2336.4c-24.9,0-47.2-1-66.2-3.4c-8.1-1-15.5-2.2-22.3-3.7c-14.1,114.7-29.4,238.1-44.6,361.3
		C694.4,3120.3,641.2,3547.2,636,3589c1.8,1,4.3,2.4,7.5,4.1c6.7,3.6,16.3,8.6,27.8,14.1c23,11,53.8,24.3,84.4,33
		c20.4,5.9,40.7,9.7,58.5,9.7c15,0,28-2.7,37.9-8.8c0.8-0.4,2.6-2.1,4.8-4.9c2.2-2.7,4.8-6.5,7.8-11.2c5.9-9.4,13.1-22.5,21.4-38.8
		c16.6-32.7,37.6-78.3,61.6-133.7c48-110.9,108-261.2,169.6-427c88.7-239,180.6-510.3,244.2-741.9c-23.5,3.9-48.5,7.9-74.7,11.9
		C1153,2315.8,991.5,2336.4,880.8,2336.4z"/><path d="M675.8,3620.5c5.4,2.5,11,5,16.9,7.6c18.5,8,39.3,15.9,60.3,22c21,6,42.1,10.1,61.3,10.1c2.2,0,4.3-0.1,6.4-0.2
		c3.7-0.2,7.3-0.5,10.8-1.1c9.5-1.5,18.3-4.4,26-9.1c3-1.9,5.5-4.7,8.5-8.6c5.1-6.7,11.3-16.9,18.6-30.2c0.9-1.7,1.9-3.5,2.9-5.3
		c31.9-59.8,83.2-176.6,142.2-324.2c18.3-45.7,37.3-94.4,56.7-145.1c21.2-55.4,42.8-113.3,64.5-172.8c2-5.6,4.1-11.2,6.1-16.8
		c52.7-145.1,105.2-298.6,151.1-445.8c23.5-75.4,45.3-149.2,64.5-219.3c-3.6,0.6-7.3,1.2-11.1,1.8
		c-63.6,231.6-155.4,502.9-244.2,741.9c-61.5,165.8-121.6,316.1-169.6,427c-24,55.4-45,101-61.6,133.7
		c-8.3,16.3-15.5,29.4-21.4,38.8c-2.9,4.7-5.6,8.5-7.8,11.2c-2.2,2.7-4,4.4-4.8,4.9c-9.9,6.1-22.9,8.8-37.9,8.8
		c-17.8,0-38.1-3.8-58.5-9.7c-30.6-8.8-61.4-22-84.4-33c-11.5-5.5-21.1-10.5-27.8-14.1c-3.2-1.7-5.8-3.1-7.5-4.1
		c5.2-41.8,58.4-468.7,111.6-898.4c15.3-123.2,30.5-246.6,44.6-361.3c-3.5-0.8-6.8-1.6-10-2.5c-28.5,231.3-61.6,498.4-90.1,727.4
		c-37.5,301.6-66.8,536.9-66.8,536.9c-0.3,2,0.7,4,2.5,5c0.1,0,15.4,8.9,38.5,20C669.5,3617.6,672.6,3619.1,675.8,3620.5z"/><path fill="#fff" d="M1464.8,679c0,0,0,0,1.2,0.6c1.2,0.6,3.6,1.8,8.4,4.1c9.5,4.7,28.6,14,66.6,32.7c8.1,2.7,15.8,4,23,4
		c13.9,0,26.3-4.6,37.8-13c11.5-8.4,22.1-20.7,31.5-35.8c19-30.2,33.5-71.5,44.4-114.2c3.7-14.6,7.1-29.5,10-44
		c-31,10.6-66,19.2-98.4,19.2c-10.6,0-20.9-1-30.8-3.1c-32.4,67.4-32.4,67.5-32.4,67.5c-0.6,1.3-1.7,2.3-3.1,2.7
		c-1.4,0.4-2.8,0.2-4.1-0.5l-19.5-11.4c-2.1-1.2-3-3.7-2.3-6c0,0,0.1-0.4,0.3-1c0.2-0.7,0.6-1.7,1-3c0.8-2.6,1.9-6.3,3.2-10.6
		c2.5-8.7,5.5-20.1,7.5-30.7c1.3-7.1,2.2-13.8,2.2-19c0-2-0.1-3.8-0.4-5.2c-0.2-1.4-0.6-2.4-0.9-2.9c-0.2-0.3-0.3-0.4-0.3-0.4
		l-0.1,0l-0.3,0c-0.5,0-1.2,0.1-2.2,0.6c-0.9,0.5-2.1,1.2-3.4,2.4c-2.6,2.2-5.5,5.7-8.6,9.8c-6.3,8.2-13.2,19-21.2,28.1
		c-5.3,6-11.1,11.4-17.9,14.7c-3.9,1.9-8.1,3-12.6,3c-4.6,0-9.3-1.2-14.1-3.1c-4.8-1.9-9.8-4.5-14.9-7.6
		c-10.1-6.2-20.5-14.2-30-22.3c-6.4-5.5-12.4-10.9-17.6-15.7c-7.1,13.8-16.4,27.1-26.7,39.6c-9.5,11.5-19.7,22.3-29.9,32
		c21,24.2,56.8,68.8,95.1,132l53.8-42.7C1460.9,678.3,1463,678.1,1464.8,679z"/><path d="M1310.5,590.2c10.1-9.8,20.4-20.5,29.9-32c10.3-12.5,19.6-25.9,26.7-39.6c-2.9-2.7-5.4-5.2-7.7-7.4
		c-6.7,13.8-16.2,27.6-26.9,40.5c-9,11-19,21.4-28.8,30.8C1305.8,584.8,1308,587.4,1310.5,590.2z"/><path d="M1687.8,513.3c-2.9,14.6-6.2,29.4-10,44c-10.9,42.7-25.5,84-44.4,114.2c-9.5,15.1-20,27.4-31.5,35.8
		c-11.5,8.4-24,13-37.8,13c-7.2,0-14.9-1.3-23-4c-38-18.7-57.1-28-66.6-32.7c-4.8-2.4-7.2-3.5-8.4-4.1c-1.2-0.6-1.2-0.6-1.2-0.6
		c-1.8-0.9-3.9-0.6-5.4,0.6l-53.8,42.7c1.8,2.9,3.5,5.8,5.3,8.8l52.3-41.5c5.7,2.8,22.8,11.2,73.7,36.2l0.6,0.3
		c9.2,3.1,18,4.6,26.5,4.6c17.3,0,32.9-6.3,46.4-16.9c11.9-9.3,22.3-21.9,31.6-36.7c16.2-25.9,29-58.8,39.2-93.5
		c7.1-24.4,13-49.7,17.7-74.1C1695.3,510.7,1691.6,512,1687.8,513.3z"/><path fill="#fff" d="M1368.3,1430.6c-21.3-18.7-40.1-42.5-56.8-69.7c-33.3-54.3-58.2-121.7-76.6-187.5
		c-36.8-131.7-47.9-257-47.9-257.2l0,0c-0.2-2.8,1.8-5.3,4.6-5.5c2.5-0.2,4.7,1.3,5.3,3.6l258.3-77.4c-9.9-21.3-20.1-41.5-30.2-60.3
		c-62.4-115.7-125.6-184.3-138.6-197.8c-0.1,0-0.1,0.1-0.2,0.1c-2.3,1.1-5.7,2.8-10.3,5.4c-9.2,5.1-23.1,13.3-41.4,25.8
		c-36.7,25.1-91.4,67.6-163.2,136.9c-11.3,10.9-23.8,30.6-36.7,57.5c-12.9,26.9-26.1,60.9-39.5,100.5
		c-26.8,79.2-54.3,180.8-80.6,293c-52.6,224.4-100.6,491.1-130.6,707c-20,143.9-32,265.3-32,336c0,12.3,0.4,23.1,1.1,32.1
		c0.7,9,1.9,16.3,3.3,21.6c0.9,3.5,2,6.1,3,7.5c2.3,3.6,6.8,7.2,13.5,10.3c6.7,3.1,15.5,5.8,26.1,7.8c21.1,4.1,49.3,6,82.1,6
		c102.7,0,250.9-18,379.2-37.1c128.3-19.1,236.8-39.4,260.5-43.9c0.2,0,0.4-0.1,0.6-0.1c-0.1-8-0.3-27.1-0.3-56
		c0-112.7,3.3-374.1,28.8-704.5c-41.8-3.5-79.3-8.5-109.6-15.6C1413.4,1462.8,1389.6,1449.3,1368.3,1430.6z M1209.6,1858.4
		L1209.6,1858.4c-2.8,0.1-5.2-2-5.3-4.8c-0.1-2.8,2-5.2,4.8-5.3c0,0,1.1-0.1,3.2-0.2c2.1-0.1,5.1-0.3,8.9-0.5
		c7.6-0.5,18.5-1.2,31.3-2.3c3.4-0.3,6.9-0.6,10.5-0.9l139-23.3c7.4-2.5,13.7-5.2,18.4-7.9c2.4-1.4,5.6-0.6,7,1.8
		c1.4,2.4,0.6,5.6-1.8,7c-6.5,3.8-14.6,7-23.9,10c-9.3,2.9-19.9,5.6-31.1,7.9c-22.5,4.7-47.8,8.3-71.7,11.1
		C1251.2,1856.4,1209.7,1858.4,1209.6,1858.4z"/><path d="M1466.1,836.1c2.2,4.8,6.9,15.3,13.3,30.1C1475,856,1470.6,845.9,1466.1,836.1z"/><path d="M792.3,2329.3c6.8,1.5,14.2,2.7,22.3,3.7c19,2.3,41.3,3.4,66.2,3.4c110.7,0,272.2-20.6,406.1-41.1c26.2-4,51.2-8,74.7-11.9
		c3.7-0.6,7.4-1.2,11.1-1.8c35.3-5.9,66.5-11.3,91.4-15.7c3.5-0.6,6.9-1.2,10.1-1.8c33.2-6,52.9-9.8,53-9.8c2.4-0.5,4.2-2.6,4.1-5.1
		c0,0,0-1.3-0.1-3.9c-0.1-7.8-0.3-27-0.3-56.2c0-112.5,3.3-373.7,28.8-703.7c-3.4-0.3-6.8-0.5-10.2-0.8
		c-25.5,330.4-28.8,591.8-28.8,704.5c0,28.9,0.2,48,0.3,56c-0.2,0-0.4,0.1-0.6,0.1c-23.7,4.5-132.2,24.8-260.5,43.9
		c-128.3,19.1-276.5,37.1-379.2,37.1c-32.8,0-60.9-1.8-82.1-6c-10.6-2.1-19.4-4.7-26.1-7.8c-6.7-3.1-11.2-6.7-13.5-10.3
		c-1-1.5-2.1-4-3-7.5c-1.4-5.3-2.5-12.6-3.3-21.6c-0.7-9-1.1-19.8-1.1-32.1c0-70.7,12-192.1,32-336c30-215.9,78-482.7,130.6-707
		c26.3-112.2,53.7-213.7,80.6-293c13.4-39.6,26.7-73.6,39.5-100.5c12.8-26.9,25.4-46.6,36.7-57.5c71.8-69.3,126.5-111.8,163.2-136.9
		c18.4-12.5,32.2-20.8,41.4-25.8c4.6-2.5,8.1-4.3,10.3-5.4c0.1,0,0.1-0.1,0.2-0.1c13,13.5,76.2,82.1,138.6,197.8
		c10.2,18.9,20.3,39,30.2,60.3l0.1,0c-0.7-2.4,0.4-5,2.7-6.1c2.5-1.2,5.5-0.1,6.7,2.4c-11.1-24-22.6-46.5-34-67.4
		c-6.6-12.1-13.2-23.6-19.8-34.7c-1.8-3-3.5-5.9-5.3-8.8c-38.4-63.2-74.1-107.8-95.1-132c-2.5-2.8-4.7-5.4-6.8-7.7
		c-8-8.9-12.6-13.4-12.6-13.5c-1.5-1.5-3.6-1.9-5.5-1.1c-0.7,0.3-77.1,32.3-221.4,171.6c-8.6,8.3-17.1,20.2-25.7,35.4
		c-16.2,28.4-32.8,68.2-49.7,116.9c-59,170.3-120.7,448.8-167.7,714.1c-23.5,132.7-43.4,262-57.3,372.9
		c-14,110.9-22.1,203.2-22.1,262c0,16.7,0.6,30.7,2,41.8c0.7,5.6,1.6,10.4,2.7,14.5c1.1,4.1,2.4,7.6,4.3,10.4
		c3.8,5.9,10,10.4,17.7,14c4.2,1.9,8.8,3.6,14,5.1C785.5,2327.7,788.8,2328.5,792.3,2329.3z"/><path fill="#fff" d="M1196.9,914.3c0.1,0.3,0.2,0.7,0.2,1c0,0,0.1,0.8,0.2,2.4c0.2,1.6,0.4,4,0.7,7.1c0.7,6.2,1.7,15.2,3.1,26.5
		c2.9,22.7,7.5,54.6,14.3,91.5c13.6,73.9,36.1,167.9,71.3,248.2c23.5,53.5,52.7,100.8,88.2,131.9c20.3,17.8,42.7,30.4,67.3,36.1
		c35.7,8.3,82.2,13.8,134.4,17.3c52.2,3.4,110.1,4.8,168.9,4.8c188.5,0,385.7-13.9,432.1-17.4c2.7-0.2,4.8-0.4,6.5-0.5
		c0.2-0.8,0.4-1.6,0.6-2.6c0.9-3.9,2.1-9.6,3.2-16.5c2.4-13.7,4.7-32.3,4.7-51.3c0-12.8-1.1-25.8-3.9-37.6
		c-2.8-11.8-7.3-22.3-13.9-30.4c-4.4-5.4-9.8-9.8-16.5-12.9c-4.1-1.9-11.2-4.1-20.6-6.1c-9.3-2-20.9-4-34.3-6
		c-26.7-3.9-60.5-7.9-98.1-12.3c-75.1-8.8-165-19.4-243.5-35.8c-52.4-10.9-99.6-24.3-134.3-41.7c-19.8-10-35.6-21.2-45.8-34.5
		c-5.4-7.1-9.2-14.8-11-23c-11.8-55.1-37.8-127.9-62.2-189.6c-24.4-61.6-47.1-112.2-52.1-123.2c-0.7-1.5-1-2.2-1-2.2
		c-0.1-0.2-0.2-0.4-0.2-0.7l-0.1,0L1196.9,914.3z"/><path d="M1458,830.8c-2.3,1.1-3.5,3.7-2.7,6.1c0.1,0.2,0.1,0.4,0.2,0.7c0,0,0.3,0.8,1,2.2c5,11,27.7,61.5,52.1,123.2
		c24.4,61.6,50.5,134.4,62.2,189.6c1.8,8.3,5.6,16,11,23c10.2,13.3,26,24.5,45.8,34.5c34.7,17.4,82,30.8,134.3,41.7
		c78.5,16.4,168.5,27,243.5,35.8c37.5,4.4,71.3,8.3,98.1,12.3c13.4,2,24.9,3.9,34.3,6c9.3,2,16.5,4.1,20.6,6.1
		c6.6,3.1,12,7.5,16.5,12.9c6.7,8.1,11.2,18.6,13.9,30.4c2.8,11.8,3.9,24.8,3.9,37.6c0,19-2.4,37.5-4.7,51.3
		c-1.2,6.9-2.4,12.6-3.2,16.5c-0.2,1-0.4,1.9-0.6,2.6c-1.6,0.1-3.8,0.3-6.5,0.5c-46.3,3.5-243.6,17.4-432.1,17.4
		c-58.8,0-116.7-1.4-168.9-4.8c-52.2-3.4-98.7-9-134.4-17.3c-24.7-5.7-47-18.3-67.3-36.1c-35.6-31.1-64.7-78.4-88.2-131.9
		c-35.2-80.2-57.7-174.3-71.3-248.2c-6.8-36.9-11.4-68.9-14.3-91.5c-1.4-11.3-2.5-20.4-3.1-26.5c-0.3-3.1-0.6-5.5-0.7-7.1
		c-0.2-1.6-0.2-2.4-0.2-2.4c0-0.4-0.1-0.7-0.2-1c-0.7-2.3-2.9-3.8-5.3-3.6c-2.8,0.2-4.9,2.7-4.6,5.5l0,0
		c0,0.2,11.1,125.6,47.9,257.2c18.4,65.8,43.2,133.2,76.6,187.5c16.7,27.1,35.5,51,56.8,69.7c21.3,18.7,45.2,32.2,71.7,38.3
		c30.4,7,67.8,12.1,109.6,15.6c3.4,0.3,6.7,0.6,10.2,0.8c5.3,0.4,10.8,0.8,16.2,1.2c52.5,3.5,110.6,4.8,169.6,4.8
		c216,0,442.9-18.2,443-18.2c2.2-0.2,4-1.7,4.5-3.8c0-0.1,1.6-6.2,3.5-16.2c0.6-3,1.2-6.4,1.8-10.1c2.3-13.8,4.4-31.7,4.4-50.2
		c0-17.8-1.9-36.3-7.9-52.4c-1.1-2.9-2.3-5.6-3.6-8.4c-1.8-3.6-3.8-7.1-6.1-10.3c-0.8-1.1-1.6-2.3-2.5-3.4
		c-5.3-6.5-11.9-11.9-20-15.7c-4.4-2.1-10.3-3.9-17.5-5.6c-13.6-3.2-32.1-6.2-54.4-9.3c-65.4-8.9-162.9-18.1-255.4-32.9
		c-4.6-0.7-9.1-1.5-13.7-2.2c-12.9-2.2-25.7-4.4-38.2-6.8c-53.1-10.2-101.9-22.8-138.4-38.7c-18.2-7.9-33.3-16.7-44.3-26.2
		c-11-9.5-17.8-19.6-20.1-30.4c-12.8-60-41.8-139.1-67.6-203.4c-5.5-13.8-10.9-26.8-15.9-38.9c-5.9-14.1-11.3-26.9-16-37.6
		c-0.6-1.4-1.2-2.8-1.8-4.2c-6.4-14.8-11.2-25.4-13.3-30.1c-0.8-1.8-1.3-2.8-1.3-2.8c0,0-0.1-0.1-0.1-0.1
		C1463.5,830.7,1460.5,829.6,1458,830.8z"/><path d="M1373.9,511c9.6,9.1,22.5,20.5,35.3,29.7c8.5,6.1,16.9,11.2,24.1,14c4.1,1.6,7.7,2.4,10.4,2.4c3.6,0,7.1-1.2,10.8-3.4
		c3.7-2.3,7.4-5.6,11.1-9.7c7.3-8,14.2-18.5,20.8-27.4c4.5-5.9,8.7-11.1,13.6-14.6c2.8-2,6-3.4,9.7-3.4c0.4,0,0.8,0,1.2,0.1
		c2.1,0.2,4.2,1.1,5.8,2.4c1.6,1.4,2.6,3,3.3,4.7c1.4,3.5,1.8,7.3,1.8,11.6c0,6.2-1,13.4-2.3,20.9c-1.4,7.4-3.2,15.1-5,22
		c-2.3,8.8-4.6,16.4-6,20.8l11.2,6.5c3.4-7.1,11.7-24.3,31.8-66.1c1.1-2.2,3.5-3.3,5.9-2.7c10,2.6,21,3.7,32.4,3.7
		c38.8,0,83.3-13.3,118.6-27.3c35.3-13.9,61.6-28.3,64.5-29.9l0.3-0.2c0.6-0.3,1.2-0.5,1.8-0.6c2.8-0.4,5.1-1.5,7.3-3.3
		c2.1-1.8,4-4.4,5.6-7.7c3.2-6.6,4.9-16.2,4.9-26.7c0-10.7-1.7-22.4-5-33.3c-3.3-10.9-8.1-21-14.1-28.5c-4-5-8.5-8.9-13.3-11.3
		c-6.6-3.3-15.7-8.5-26.9-14.9c-11.2-6.4-24.3-13.9-38.7-21.8c-28.7-15.6-62.3-32.4-94.1-43.2c-21.2-7.2-41.6-11.8-59.1-11.8
		c-10.9,0-20.6,1.8-28.7,5.5c-7.1,3.3-14.8,9-22.8,16.5c-8,7.5-16.2,16.9-24.5,27.5c-16.5,21.2-32.8,47.2-47.6,73
		c-28.9,50.5-51.6,100.3-57.3,113c0.6,0.6,1.2,1.3,2,2C1365,502.5,1369,506.5,1373.9,511z"/><path d="M1367,518.6c5.1,4.8,11.1,10.3,17.6,15.7c9.5,8,19.9,16.1,30,22.3c5.1,3.1,10,5.7,14.9,7.6c4.8,1.9,9.5,3.1,14.1,3.1
		c4.5,0,8.7-1.1,12.6-3c6.8-3.3,12.6-8.7,17.9-14.7c8-9.1,14.9-19.8,21.2-28.1c3.1-4.1,6.1-7.6,8.6-9.8c1.3-1.1,2.4-1.9,3.4-2.4
		c1-0.5,1.6-0.6,2.2-0.6l0.3,0l0.1,0c0,0,0.1,0.1,0.3,0.4c0.3,0.5,0.7,1.5,0.9,2.9c0.2,1.4,0.4,3.2,0.4,5.2c0,5.2-0.8,11.9-2.2,19
		c-2,10.6-5,22-7.5,30.7c-1.3,4.4-2.4,8-3.2,10.6c-0.4,1.3-0.7,2.3-1,3c-0.2,0.7-0.3,1-0.3,1c-0.8,2.3,0.2,4.8,2.3,6l19.5,11.4
		c1.2,0.7,2.7,0.9,4.1,0.5c1.4-0.4,2.5-1.4,3.1-2.7c0,0,0-0.1,32.4-67.5c9.8,2.1,20.2,3.1,30.8,3.1c32.4,0,67.4-8.6,98.4-19.2
		c3.8-1.3,7.5-2.6,11.2-4c5.6-2,11-4.1,16.2-6.2c33.3-13.4,57.9-26.7,61.9-28.9c4.3-0.8,8.2-2.7,11.3-5.4c5.2-4.4,8.6-10.8,10.9-18
		c2.2-7.2,3.2-15.5,3.2-24.2c0-15.7-3.3-32.8-9.6-47.8c-3.1-7.5-7-14.4-11.8-20.3c-4.7-5.9-10.2-10.8-16.7-14
		c-8.1-4.1-21.6-12-38.2-21.4c-24.9-14.2-57-31.9-89.9-46.2c-32.9-14.2-66.5-25.1-95.3-25.1c-12,0-23.2,1.9-33,6.5
		c-9.1,4.2-18.2,11.2-27.3,20c-15.9,15.4-31.9,36.7-47.1,60c-45.6,69.9-84.2,158.2-84.2,158.3c-0.8,1.9-0.4,4.1,1,5.5
		c0,0,3.4,3.6,8.9,9C1361.6,513.4,1364.2,515.9,1367,518.6z M1417.5,384.6c14.8-25.8,31.2-51.8,47.6-73c8.2-10.6,16.5-20,24.5-27.5
		c8-7.5,15.8-13.2,22.8-16.5c8.1-3.8,17.8-5.5,28.7-5.5c17.5,0,37.9,4.5,59.1,11.8c31.8,10.8,65.4,27.6,94.1,43.2
		c14.4,7.8,27.5,15.4,38.7,21.8c11.2,6.4,20.4,11.6,26.9,14.9c4.8,2.4,9.3,6.2,13.3,11.3c6,7.5,10.8,17.6,14.1,28.5
		c3.3,10.9,5,22.6,5,33.3c0,10.5-1.7,20-4.9,26.7c-1.6,3.3-3.5,5.9-5.6,7.7c-2.1,1.8-4.4,2.9-7.3,3.3c-0.6,0.1-1.2,0.3-1.8,0.6
		l-0.3,0.2c-2.9,1.6-29.2,16-64.5,29.9c-35.3,13.9-79.8,27.3-118.6,27.3c-11.4,0-22.3-1.1-32.4-3.7c-2.4-0.6-4.8,0.5-5.9,2.7
		c-20.1,41.8-28.3,59-31.8,66.1l-11.2-6.5c1.4-4.4,3.7-12,6-20.8c1.8-6.9,3.7-14.6,5-22c1.4-7.4,2.3-14.6,2.3-20.9
		c0-4.3-0.4-8.1-1.8-11.6c-0.7-1.7-1.8-3.4-3.3-4.7c-1.6-1.4-3.7-2.2-5.8-2.4c-0.4,0-0.8-0.1-1.2-0.1c-3.7,0-6.9,1.5-9.7,3.4
		c-4.9,3.5-9.1,8.7-13.6,14.6c-6.6,8.9-13.5,19.4-20.8,27.4c-3.6,4-7.4,7.4-11.1,9.7c-3.7,2.3-7.2,3.4-10.8,3.4
		c-2.7,0-6.3-0.8-10.4-2.4c-7.1-2.8-15.6-7.9-24.1-14c-12.7-9.2-25.6-20.6-35.3-29.7c-4.8-4.5-8.8-8.5-11.6-11.3
		c-0.8-0.8-1.4-1.4-2-2C1365.9,484.9,1388.6,435.1,1417.5,384.6z"/><rect width="1972.4" height="93.1" x="1905.8" y="1925.9" fill="#fff"/><path d="M2192.6,1915.7h-291.9c-1.3,0-2.7,0.5-3.6,1.5c-0.9,0.9-1.5,2.3-1.5,3.6v103.3c0,1.3,0.5,2.7,1.5,3.6
		c0.9,0.9,2.3,1.5,3.6,1.5h304.8h10.2h72h10.2h1585.3c-1.3,0-2.7-0.5-3.6-1.5s-1.5-2.3-1.5-3.6v-5.1H1905.8v-93.1h1972.4v-5.1
		c0-1.3,0.5-2.7,1.5-3.6c0.9-0.9,2.3-1.5,3.6-1.5h-88.5h-10.2h-749.9h-10.2h-230.2H2192.6z"/><polygon fill="#fff" points="3888.3 1925.9 3888.3 2019 4018.4 2019 4713.8 2019 4713.8 1925.9"/><path d="M4146.5,1915.7h-128.1h-135.2c-1.3,0-2.7,0.5-3.6,1.5c-0.9,0.9-1.5,2.3-1.5,3.6v5.1v93.1v5.1c0,1.3,0.5,2.7,1.5,3.6
		s2.3,1.5,3.6,1.5h135.2h344h10.2h72h10.2h264c1.4,0,2.6-0.5,3.6-1.5c1-1,1.5-2.2,1.5-3.6v-103.3c0-1.4-0.5-2.6-1.5-3.6
		c-1-1-2.2-1.5-3.6-1.5h-562.2H4146.5z M4713.8,2019h-695.4h-130.1v-93.1h825.5V2019z"/><path fill="#fff" d="M3113.9,1465.2c0,60.1,24.4,114.5,63.8,153.9c39.4,39.4,93.8,63.8,153.9,63.8h1277.9
		c60.1,0,114.5-24.4,153.9-63.8c39.4-39.4,63.8-93.8,63.8-153.9V760.6c0-60.1-24.4-114.5-63.8-153.9
		c-39.4-39.4-93.8-63.8-153.9-63.8H3331.6c-60.1,0-114.5,24.4-153.9,63.8c-39.4,39.4-63.8,93.8-63.8,153.9V1465.2z M4453.7,845.4
		c0-22.5,18.2-40.7,40.7-40.7h90.5c22.5,0,40.7,18.2,40.7,40.7v4.4c0,22.5-18.2,40.7-40.7,40.7h-90.5c-22.5,0-40.7-18.2-40.7-40.7
		V845.4z M4169.2,845.4c0-22.5,18.2-40.7,40.7-40.7h90.5c22.5,0,40.7,18.2,40.7,40.7v4.4c0,22.5-18.2,40.7-40.7,40.7h-90.5
		c-22.5,0-40.7-18.2-40.7-40.7V845.4z M3884.7,845.4c0-22.5,18.2-40.7,40.7-40.7h90.5c22.5,0,40.7,18.2,40.7,40.7v4.4
		c0,22.5-18.2,40.7-40.7,40.7h-90.5c-22.5,0-40.7-18.2-40.7-40.7V845.4z M3600.3,845.4c0-22.5,18.2-40.7,40.7-40.7h90.5
		c22.5,0,40.7,18.2,40.7,40.7v4.4c0,22.5-18.2,40.7-40.7,40.7H3641c-22.5,0-40.7-18.2-40.7-40.7V845.4z M3315.8,845.4
		c0-22.5,18.2-40.7,40.7-40.7h90.5c22.5,0,40.7,18.2,40.7,40.7v4.4c0,22.5-18.2,40.7-40.7,40.7h-90.5c-22.5,0-40.7-18.2-40.7-40.7
		V845.4z M3309.9,1292.5V995.2c0-1.3,0.5-2.7,1.5-3.6c0.9-0.9,2.3-1.5,3.6-1.5h1311.2c1.4,0,2.6,0.5,3.6,1.5c1,1,1.5,2.2,1.5,3.6
		v80.5v416c0,1.4-0.5,2.6-1.5,3.6c-1,1-2.2,1.5-3.6,1.5H3315c-1.3,0-2.7-0.5-3.6-1.5c-0.9-0.9-1.5-2.3-1.5-3.6V1292.5z"/><path d="M3103.7,1465.2c0,125.9,102,227.9,227.9,227.9h584.2h10.2h89.1h10.2h584.2c125.9,0,227.9-102,227.9-227.9V760.6
		c0-125.9-102-227.9-227.9-227.9H3331.6c-125.9,0-227.9,102-227.9,227.9v598v10.6V1465.2z M3331.6,542.9h1277.9
		c60.1,0,114.5,24.4,153.9,63.8c39.4,39.4,63.8,93.8,63.8,153.9v704.6c0,60.1-24.4,114.5-63.8,153.9
		c-39.4,39.4-93.8,63.8-153.9,63.8H3331.6c-60.1,0-114.5-24.4-153.9-63.8c-39.4-39.4-63.8-93.8-63.8-153.9V760.6
		c0-60.1,24.4-114.5,63.8-153.9C3217.1,567.3,3271.5,542.9,3331.6,542.9z"/><path fill="#fff" d="M3437.4,3858.8H4329v-891.5h-891.7V3858.8z M3513.4,3036.9c0-1.3,0.5-2.7,1.5-3.6c0.9-0.9,2.3-1.5,3.6-1.5
		h729.4c1.4,0,2.6,0.5,3.6,1.5c1,1,1.5,2.2,1.5,3.6v186.4c0,1.4-0.5,2.6-1.5,3.6c-1,1-2.2,1.5-3.6,1.5h-729.4
		c-1.3,0-2.7-0.5-3.6-1.5c-0.9-0.9-1.5-2.3-1.5-3.6V3036.9z M3513.4,3297c0-1.3,0.5-2.7,1.5-3.6c0.9-0.9,2.3-1.5,3.6-1.5h729.4
		c1.4,0,2.6,0.5,3.6,1.5c1,1,1.5,2.2,1.5,3.6v186.4c0,1.4-0.5,2.6-1.5,3.6c-1,1-2.2,1.5-3.6,1.5h-729.4c-1.3,0-2.7-0.5-3.6-1.5
		c-0.9-0.9-1.5-2.3-1.5-3.6V3297z"/><path d="M4339.2,2962.2c0-1.4-0.5-2.6-1.5-3.6c-1-1-2.2-1.5-3.6-1.5h-345.4c-11.8,6-25.1,9.3-39.3,9.3H3802
		c-14.1,0-27.5-3.4-39.3-9.3h-330.4c-1.3,0-2.7,0.5-3.6,1.5c-0.9,0.9-1.5,2.3-1.5,3.6v539.4v357.2v5.1c0,1.3,0.5,2.7,1.5,3.6
		c0.9,0.9,2.3,1.5,3.6,1.5h901.8c1.4,0,2.6-0.5,3.6-1.5c1-1,1.5-2.2,1.5-3.6v-5.1v-496.2V2962.2z M4329,2967.3v891.5h-891.7v-891.5
		H4329z"/><path fill="#fff" d="M4242.8,3042h-719.2v176.2h719.2L4242.8,3042z M3883.2,3129.7c-19,0-34.4-15.4-34.4-34.4
		c0-19,15.4-34.4,34.4-34.4c19,0,34.4,15.4,34.4,34.4C3917.6,3114.4,3902.2,3129.7,3883.2,3129.7z"/><path d="M3518.5,3228.4h729.4c1.4,0,2.6-0.5,3.6-1.5c1-1,1.5-2.2,1.5-3.6v-186.4c0-1.4-0.5-2.6-1.5-3.6c-1-1-2.2-1.5-3.6-1.5
		h-729.4c-1.3,0-2.7,0.5-3.6,1.5c-0.9,0.9-1.5,2.3-1.5,3.6v186.4c0,1.3,0.5,2.7,1.5,3.6C3515.8,3227.9,3517.2,3228.4,3518.5,3228.4z
		 M3523.6,3042h719.2l0,176.2h-719.2V3042z"/><path fill="#fff" d="M4242.8,3478.4l0-176.2h-719.2v176.2H4242.8z M3883.2,3326.6c19,0,34.4,15.4,34.4,34.4
		c0,19-15.4,34.4-34.4,34.4c-19,0-34.4-15.4-34.4-34.4C3848.9,3342,3864.2,3326.6,3883.2,3326.6z"/><path d="M3514.9,3487.1c0.9,0.9,2.3,1.5,3.6,1.5h729.4c1.4,0,2.6-0.5,3.6-1.5c1-1,1.5-2.2,1.5-3.6V3297c0-1.4-0.5-2.6-1.5-3.6
		c-1-1-2.2-1.5-3.6-1.5h-729.4c-1.3,0-2.7,0.5-3.6,1.5c-0.9,0.9-1.5,2.3-1.5,3.6v186.4C3513.4,3484.8,3513.9,3486.1,3514.9,3487.1z
		 M3523.6,3478.4v-176.2h719.2l0,176.2H3523.6z"/><path d="M3900.3,3078.3c-4.4-4.4-10.4-7.1-17.1-7.1c-6.7,0-12.7,2.7-17.1,7.1c-4.4,4.4-7.1,10.4-7.1,17.1c0,6.7,2.7,12.7,7.1,17.1
		c4.4,4.4,10.4,7.1,17.1,7.1c6.7,0,12.7-2.7,17.1-7.1c4.4-4.4,7.1-10.4,7.1-17.1C3907.4,3088.7,3904.7,3082.7,3900.3,3078.3z"/><path d="M3883.2,3061c-19,0-34.4,15.4-34.4,34.4c0,19,15.4,34.4,34.4,34.4c19,0,34.4-15.4,34.4-34.4
		C3917.6,3076.4,3902.2,3061,3883.2,3061z M3883.2,3119.6c-6.7,0-12.7-2.7-17.1-7.1c-4.4-4.4-7.1-10.4-7.1-17.1
		c0-6.7,2.7-12.7,7.1-17.1c4.4-4.4,10.4-7.1,17.1-7.1c6.7,0,12.7,2.7,17.1,7.1c4.4,4.4,7.1,10.4,7.1,17.1c0,6.7-2.7,12.7-7.1,17.1
		C3895.9,3116.9,3889.9,3119.6,3883.2,3119.6z"/><path d="M3866.1,3378.1c4.4,4.4,10.4,7.1,17.1,7.1c6.7,0,12.7-2.7,17.1-7.1c4.4-4.4,7.1-10.4,7.1-17.1c0-6.7-2.7-12.7-7.1-17.1
		c-4.4-4.4-10.4-7.1-17.1-7.1c-6.7,0-12.7,2.7-17.1,7.1c-4.4,4.4-7.1,10.4-7.1,17.1C3859,3367.7,3861.7,3373.7,3866.1,3378.1z"/><path d="M3883.2,3395.3c19,0,34.4-15.4,34.4-34.4c0-19-15.4-34.4-34.4-34.4c-19,0-34.4,15.4-34.4,34.4
		C3848.9,3380,3864.2,3395.3,3883.2,3395.3z M3883.2,3336.8c6.7,0,12.7,2.7,17.1,7.1c4.4,4.4,7.1,10.4,7.1,17.1
		c0,6.7-2.7,12.7-7.1,17.1c-4.4,4.4-10.4,7.1-17.1,7.1c-6.7,0-12.7-2.7-17.1-7.1c-4.4-4.4-7.1-10.4-7.1-17.1
		c0-6.7,2.7-12.7,7.1-17.1C3870.5,3339.5,3876.5,3336.8,3883.2,3336.8z"/><path fill="#eff0f1" d="M2790.1,537.9c112.5,0,203.7-91.2,203.7-203.7c0-112.5-91.2-203.7-203.7-203.7
		c-112.5,0-203.7,91.2-203.7,203.7C2586.4,446.7,2677.6,537.9,2790.1,537.9z M2719.8,408.1l65.2-75.8V183.8h0c0-2.8,2.3-5.1,5.1-5.1
		c2.8,0,5.1,2.3,5.1,5.1v150.5c0,1.2-0.4,2.4-1.2,3.3l-66.5,77.2c-1.8,2.1-5.1,2.4-7.2,0.5C2718.2,413.5,2717.9,410.2,2719.8,408.1z
		"/><path d="M2727.5,414.8l66.5-77.2c0.8-0.9,1.2-2.1,1.2-3.3V183.8c0-2.8-2.3-5.1-5.1-5.1c-2.8,0-5.1,2.3-5.1,5.1h0v148.6l-65.2,75.8
		c-1.8,2.1-1.6,5.4,0.5,7.2C2722.4,417.1,2725.6,416.9,2727.5,414.8z"/><path fill="#61c3da" d="M4339.9,1163.5c-32.3,1.4-60.3,3.3-101.2,19.2c-25.5,10-43.9,20.7-59,32.1c-15,11.4-26.7,23.5-38.8,36.3
		c-4.5,4.8-9.1,9.7-13.9,14.7c-3.2,3.3-6.5,6.7-10,10.1c-5.2,5.1-10.7,10.2-16.8,15.4c-4.1,3.5-8.4,6.9-13,10.4
		c-2.3,1.8-4.7,3.5-7.1,5.3c-12.3,8.8-26.5,17.7-43.6,26.5c-0.7,0.4-1.6,0.8-2.5,1.3c-10.9,5.6-35.5,17.9-69.1,29.1
		c-20.5,6.9-44.5,13.3-70.8,17.7c-20.4,3.4-42.3,5.5-65.2,5.5c-2.8,0-5.5,0-8.3-0.1c-9.9-0.2-19.9-0.8-30-1.9c-0.2,0-0.4,0-0.5-0.1
		c-7.6-0.8-15.3-1.9-23.1-3.3c-54.9-9.9-93.4-33-125.3-57.7c-31.9-24.7-57.3-50.8-86.2-67.4c-16.9-9.7-34.8-16.2-56.3-17.7
		c-3.1-0.2-6.2-0.3-9.4-0.3c-2.5,0-5.1,0.1-7.7,0.2c-67.5,3.6-121.5,28.3-162,56.5l0,191.5h1301v-402.2
		c-39.6,22.2-92.2,46.4-156.6,62.6C4408.7,1161.2,4372.2,1162.1,4339.9,1163.5z"/><path d="M3315,1496.9h1311.2c1.4,0,2.6-0.5,3.6-1.5c1-1,1.5-2.2,1.5-3.6v-416c0,1.8-1,3.5-2.5,4.4c-2.5,1.4-5,2.9-7.7,4.4v402.2
		h-1301l0-191.5c-0.7,0.5-1.5,1-2.2,1.5c-1.6,1.1-3.6,1.2-5.3,0.4c-1.7-0.9-2.8-2.6-2.8-4.5v199.3c0,1.3,0.5,2.7,1.5,3.6
		C3312.4,1496.3,3313.7,1496.9,3315,1496.9z"/><path d="M3790.1,1384.9c0.2,0,0.4,0,0.5,0.1C3790.5,1385,3790.3,1384.9,3790.1,1384.9z"/><path d="M3820.7,1386.9c2.8,0.1,5.6,0.1,8.3,0.1C3826.2,1387,3823.4,1387,3820.7,1386.9z"/><path d="M4034,1334.7c-10.9,5.6-35.5,17.9-69.1,29.1c-20.5,6.9-44.5,13.3-70.8,17.7c26.3-4.4,50.2-10.8,70.8-17.7
		C3998.6,1352.6,4023.2,1340.3,4034,1334.7z"/><path fill="#fff" d="M3375.5,1252.9c30.8-13,66.2-22.3,106.1-24.4c2.8-0.1,5.5-0.2,8.2-0.2c5.2,0,10.2,0.3,15,0.8
		c14.6,1.5,27.7,5.3,40,10.6c16.3,7.1,30.9,17,45.1,28.1c28.4,22.3,55.4,49.5,91.5,71.1c24,14.4,52.1,26.3,87.4,32.7
		c20.5,3.7,40.6,5.3,60.1,5.3c6.3,0,12.6-0.2,18.8-0.5c43.3-2.2,82.6-11.7,113.9-22.2c35.8-11.9,61-25,70.2-29.8
		c40.1-20.8,63.6-41.1,83.1-60.8c19.5-19.7,35-39,58.6-56.9c15.8-12,35.1-23.2,61.4-33.4c42.1-16.5,72.1-18.5,104.5-19.9
		c32.5-1.4,67.6-2.2,122.6-16c66-16.6,119.5-41.8,159-64.5l0-72.5h-1301v282.5C3336.5,1271.9,3355,1261.5,3375.5,1252.9z"/><path d="M3312.7,1297c1.7,0.9,3.7,0.7,5.3-0.4c0.7-0.5,1.4-1,2.2-1.5c40.5-28.2,94.5-53,162-56.5c2.6-0.1,5.2-0.2,7.7-0.2
		c3.2,0,6.4,0.1,9.4,0.3c21.5,1.5,39.4,8.1,56.3,17.7c28.9,16.6,54.4,42.7,86.2,67.4c31.9,24.7,70.4,47.8,125.3,57.7
		c7.7,1.4,15.4,2.5,23.1,3.3c0.2,0,0.4,0,0.5,0.1c10.1,1.1,20.1,1.7,30,1.9c2.8,0.1,5.6,0.1,8.3,0.1c22.8,0,44.7-2.1,65.2-5.5
		c26.3-4.4,50.2-10.8,70.8-17.7c33.7-11.2,58.3-23.5,69.1-29.1c0.9-0.5,1.8-0.9,2.5-1.3c17.1-8.9,31.4-17.7,43.6-26.5
		c2.5-1.8,4.8-3.5,7.1-5.3c4.6-3.5,8.9-7,13-10.4c6.1-5.2,11.6-10.3,16.8-15.4c3.5-3.4,6.8-6.7,10-10.1c4.8-5,9.4-9.9,13.9-14.7
		c12.1-12.8,23.8-24.9,38.8-36.3c15-11.4,33.4-22.1,59-32.1c40.9-15.9,68.9-17.8,101.2-19.2c32.3-1.4,68.8-2.3,124.7-16.3
		c64.3-16.2,117-40.4,156.6-62.6c2.6-1.5,5.2-2.9,7.7-4.4c1.6-0.9,2.5-2.6,2.5-4.4v-80.5c0-1.4-0.5-2.6-1.5-3.6
		c-1-1-2.2-1.5-3.6-1.5H3315c-1.3,0-2.7,0.5-3.6,1.5c-0.9,0.9-1.5,2.3-1.5,3.6v297.3C3309.9,1294.4,3311,1296.1,3312.7,1297z
		 M4621.1,1000.3l0,72.5c-39.5,22.6-93,47.8-159,64.5c-55,13.8-90.1,14.6-122.6,16c-32.4,1.4-62.3,3.4-104.5,19.9
		c-26.3,10.3-45.6,21.5-61.4,33.4c-23.7,17.9-39.2,37.3-58.6,56.9c-19.5,19.7-43,40-83.1,60.8c-9.1,4.7-34.4,17.8-70.2,29.8
		c-31.3,10.5-70.6,20-113.9,22.2c-6.2,0.3-12.5,0.5-18.8,0.5c-19.5,0-39.6-1.6-60.1-5.3c-35.3-6.4-63.3-18.3-87.4-32.7
		c-36.1-21.6-63.1-48.8-91.5-71.1c-14.2-11.1-28.8-21-45.1-28.1c-12.2-5.3-25.4-9.1-40-10.6c-4.9-0.5-9.9-0.8-15-0.8
		c-2.7,0-5.4,0.1-8.2,0.2c-39.9,2.1-75.3,11.4-106.1,24.4c-20.5,8.7-39,19-55.4,29.9v-282.5H4621.1z"/><path fill="#61c3da" d="M3356.5,880.4h90.5c8.4,0,16-3.4,21.6-8.9c5.5-5.5,8.9-13.1,8.9-21.6v-4.4c0-8.4-3.4-16-8.9-21.6
		c-5.5-5.5-13.1-8.9-21.6-8.9h-90.5c-8.4,0-16,3.4-21.6,8.9c-5.5,5.5-8.9,13.1-8.9,21.6v4.4c0,8.4,3.4,16,8.9,21.6
		C3340.5,877,3348.1,880.4,3356.5,880.4z"/><path d="M3356.5,890.6h90.5c22.5,0,40.7-18.2,40.7-40.7v-4.4c0-22.5-18.2-40.7-40.7-40.7h-90.5c-22.5,0-40.7,18.2-40.7,40.7v4.4
		C3315.8,872.4,3334,890.6,3356.5,890.6z M3326,845.4c0-8.4,3.4-16,8.9-21.6c5.5-5.5,13.1-8.9,21.6-8.9h90.5c8.4,0,16,3.4,21.6,8.9
		c5.5,5.5,8.9,13.1,8.9,21.6v4.4c0,8.4-3.4,16-8.9,21.6c-5.5,5.5-13.1,8.9-21.6,8.9h-90.5c-8.4,0-16-3.4-21.6-8.9
		c-5.5-5.5-8.9-13.1-8.9-21.6V845.4z"/><path fill="#fff" d="M3641,880.4h90.5c8.4,0,16-3.4,21.6-8.9c5.5-5.5,8.9-13.1,8.9-21.6v-4.4c0-8.4-3.4-16-8.9-21.6
		c-5.5-5.5-13.1-8.9-21.6-8.9H3641c-8.4,0-16,3.4-21.6,8.9c-5.5,5.5-8.9,13.1-8.9,21.6v4.4c0,8.4,3.4,16,8.9,21.6
		C3624.9,877,3632.5,880.4,3641,880.4z"/><path d="M3641,890.6h90.5c22.5,0,40.7-18.2,40.7-40.7v-4.4c0-22.5-18.2-40.7-40.7-40.7H3641c-22.5,0-40.7,18.2-40.7,40.7v4.4
		C3600.3,872.4,3618.5,890.6,3641,890.6z M3610.5,845.4c0-8.4,3.4-16,8.9-21.6c5.5-5.5,13.1-8.9,21.6-8.9h90.5
		c8.4,0,16,3.4,21.6,8.9c5.5,5.5,8.9,13.1,8.9,21.6v4.4c0,8.4-3.4,16-8.9,21.6c-5.5,5.5-13.1,8.9-21.6,8.9H3641
		c-8.4,0-16-3.4-21.6-8.9c-5.5-5.5-8.9-13.1-8.9-21.6V845.4z"/><path fill="#fff" d="M3925.4,880.4h90.5c8.4,0,16-3.4,21.6-8.9c5.5-5.5,8.9-13.1,8.9-21.6v-4.4c0-8.4-3.4-16-8.9-21.6
		c-5.5-5.5-13.1-8.9-21.6-8.9h-90.5c-8.4,0-16,3.4-21.6,8.9c-5.5,5.5-8.9,13.1-8.9,21.6v4.4c0,8.4,3.4,16,8.9,21.6
		C3909.4,877,3917,880.4,3925.4,880.4z"/><path d="M3925.4,890.6h90.5c22.5,0,40.7-18.2,40.7-40.7v-4.4c0-22.5-18.2-40.7-40.7-40.7h-90.5c-22.5,0-40.7,18.2-40.7,40.7v4.4
		C3884.7,872.4,3902.9,890.6,3925.4,890.6z M3894.9,845.4c0-8.4,3.4-16,8.9-21.6c5.5-5.5,13.1-8.9,21.6-8.9h90.5
		c8.4,0,16,3.4,21.6,8.9c5.5,5.5,8.9,13.1,8.9,21.6v4.4c0,8.4-3.4,16-8.9,21.6c-5.5,5.5-13.1,8.9-21.6,8.9h-90.5
		c-8.4,0-16-3.4-21.6-8.9c-5.5-5.5-8.9-13.1-8.9-21.6V845.4z"/><path fill="#fff" d="M4209.9,880.4h90.5c8.4,0,16-3.4,21.6-8.9c5.5-5.5,8.9-13.1,8.9-21.6v-4.4c0-8.4-3.4-16-8.9-21.6
		c-5.5-5.5-13.1-8.9-21.6-8.9h-90.5c-8.4,0-16,3.4-21.6,8.9c-5.5,5.5-8.9,13.1-8.9,21.6v4.4c0,8.4,3.4,16,8.9,21.6
		C4193.9,877,4201.5,880.4,4209.9,880.4z"/><path d="M4209.9,890.6h90.5c22.5,0,40.7-18.2,40.7-40.7v-4.4c0-22.5-18.2-40.7-40.7-40.7h-90.5c-22.5,0-40.7,18.2-40.7,40.7v4.4
		C4169.2,872.4,4187.4,890.6,4209.9,890.6z M4179.4,845.4c0-8.4,3.4-16,8.9-21.6c5.5-5.5,13.1-8.9,21.6-8.9h90.5
		c8.4,0,16,3.4,21.6,8.9c5.5,5.5,8.9,13.1,8.9,21.6v4.4c0,8.4-3.4,16-8.9,21.6c-5.5,5.5-13.1,8.9-21.6,8.9h-90.5
		c-8.4,0-16-3.4-21.6-8.9c-5.5-5.5-8.9-13.1-8.9-21.6V845.4z"/><path fill="#fff" d="M4494.4,880.4h90.5c8.4,0,16-3.4,21.6-8.9c5.5-5.5,8.9-13.1,8.9-21.6v-4.4c0-8.4-3.4-16-8.9-21.6
		c-5.5-5.5-13.1-8.9-21.6-8.9h-90.5c-8.4,0-16,3.4-21.6,8.9c-5.5,5.5-8.9,13.1-8.9,21.6v4.4c0,8.4,3.4,16,8.9,21.6
		C4478.3,877,4485.9,880.4,4494.4,880.4z"/><path d="M4494.4,890.6h90.5c22.5,0,40.7-18.2,40.7-40.7v-4.4c0-22.5-18.2-40.7-40.7-40.7h-90.5c-22.5,0-40.7,18.2-40.7,40.7v4.4
		C4453.7,872.4,4471.9,890.6,4494.4,890.6z M4463.8,845.4c0-8.4,3.4-16,8.9-21.6c5.5-5.5,13.1-8.9,21.6-8.9h90.5
		c8.4,0,16,3.4,21.6,8.9c5.5,5.5,8.9,13.1,8.9,21.6v4.4c0,8.4-3.4,16-8.9,21.6c-5.5,5.5-13.1,8.9-21.6,8.9h-90.5
		c-8.4,0-16-3.4-21.6-8.9c-5.5-5.5-8.9-13.1-8.9-21.6V845.4z"/><path fill="#fff" d="M2246.1,740.3c1.4,2.2,2.4,4.7,2.4,7.6c0,1.7-0.4,3.5-1.3,5c-0.8,1.6-2,2.9-3.4,3.9c-2.8,2.1-6.3,3.4-10.6,4.2
		c-8.7,1.7-20.2,3.2-32.5,4.3c-12.4,1.2-25.7,2.1-37.9,2.8c-0.7,0-1.3,0.1-2,0.1l-23.7,21.3l101.7,69.7l179.5-165.6l-106-61.7
		l-96.4,86.8c7.3,3.3,13.8,6.9,19,10.7C2239.8,732.9,2243.6,736.4,2246.1,740.3z"/><path d="M2232.2,690.3l-26.8,24.1c0.5,0.2,0.9,0.3,1.4,0.5c3.1,1.2,6.2,2.5,9.1,3.8l96.4-86.8l106,61.7l-179.5,165.6L2137,789.7
		l23.7-21.3c-5.7,0.3-11.2,0.6-16.2,0.9l-19.1,17.2c-1.2,1-1.8,2.6-1.7,4.1c0.1,1.6,0.9,3,2.2,3.9l59.3,40.6l9.4,6.4l41.8,28.6
		c2,1.3,4.6,1.1,6.3-0.5l187.5-173c1.2-1.1,1.8-2.7,1.6-4.3c-0.2-1.6-1.1-3-2.5-3.9l-115.1-67.1c-1.9-1.1-4.3-0.9-6,0.6l-67.7,60.9
		L2232.2,690.3z"/><path fill="#fff" d="M2144.9,759c15.9-0.8,36.5-2,54.8-3.7c12.2-1.2,23.4-2.6,31.5-4.2c2.6-0.5,4.5-1.2,5.6-1.8
		c1.1-0.6,1.5-1.1,1.5-1.2l0-0.2c0-0.2-0.1-1-0.9-2.1c-0.7-1.2-2-2.7-3.8-4.3c-3.5-3.2-8.9-6.8-15.5-10.3
		c-13.2-6.9-31-13.1-48.6-15.7c-1.1-0.2-2-0.7-2.8-1.4l-43.9,45.8c0.7,0,1.5-0.1,2.4-0.1C2130.1,759.7,2136.9,759.4,2144.9,759z"/><path d="M2165.2,709.7c-0.3,1.7,0.4,3.3,1.5,4.4c0.7,0.7,1.7,1.2,2.8,1.4c17.6,2.6,35.5,8.8,48.6,15.7c6.6,3.4,12,7.1,15.5,10.3
		c1.8,1.6,3,3.1,3.8,4.3c0.7,1.2,0.9,1.9,0.9,2.1l0,0.2c0,0.1-0.4,0.6-1.5,1.2c-1.1,0.6-3,1.3-5.6,1.8c-8.1,1.6-19.3,3-31.5,4.2
		c-18.3,1.7-38.9,3-54.8,3.7c-8,0.4-14.8,0.7-19.6,0.9c-0.9,0-1.7,0.1-2.4,0.1c-3.3,0.1-5.2,0.2-5.2,0.2c-2.8,0.1-5,2.4-4.9,5.2
		c0.1,2.8,2.4,5,5.2,4.9l0,0c0,0,11-0.3,26.6-1.1c5-0.2,10.5-0.5,16.2-0.9c0.7,0,1.3-0.1,2-0.1c12.2-0.7,25.5-1.7,37.9-2.8
		c12.4-1.2,23.8-2.6,32.5-4.3c4.4-0.9,7.8-2.2,10.6-4.2c1.4-1,2.6-2.4,3.4-3.9c0.8-1.5,1.3-3.3,1.3-5c0-2.8-1-5.3-2.4-7.6
		c-2.5-3.9-6.3-7.4-11.2-10.9c-5.2-3.7-11.7-7.3-19-10.7c-2.9-1.3-5.9-2.6-9.1-3.8c-0.4-0.2-0.9-0.3-1.4-0.5
		c-10.7-4-22.5-7.3-34.4-9C2168.2,705,2165.6,706.9,2165.2,709.7z"/><path fill="#fff" d="M1398.6,1822.2c1.2-0.4,2.3-0.8,3.4-1.1l-139,23.3c23.9-2.1,52.6-5.3,79.6-9.7
		C1363.3,1831.3,1383,1827.1,1398.6,1822.2z"/><path d="M1401.6,1831.9c9.3-3,17.4-6.2,23.9-10c2.4-1.4,3.3-4.5,1.8-7c-1.4-2.4-4.5-3.3-7-1.8c-4.7,2.8-11.1,5.4-18.4,7.9
		c-1.1,0.4-2.2,0.8-3.4,1.1c-15.5,4.9-35.2,9.1-56,12.4c-27,4.4-55.7,7.5-79.6,9.7c-3.6,0.3-7.1,0.6-10.5,0.9
		c-12.8,1.1-23.7,1.8-31.3,2.3c-3.8,0.2-6.8,0.4-8.9,0.5c-2.1,0.1-3.2,0.2-3.2,0.2c-2.8,0.1-5,2.5-4.8,5.3c0.1,2.8,2.5,5,5.3,4.8
		l0,0c0.1,0,41.6-2,89.3-7.5c23.8-2.7,49.2-6.4,71.7-11.1C1381.8,1837.5,1392.3,1834.9,1401.6,1831.9z"/><path fill="#61c3da" d="M3806.1,2552.6c-0.8,0-1.6-0.2-2.4-0.6c-14.9,6.7-28.4,16-39.8,27.4c-24.2,24.2-39.1,57.6-39.1,94.5v205.2
		c0,21.3,8.6,40.6,22.6,54.6c14,14,33.2,22.6,54.6,22.6h147.5c21.3,0,40.6-8.6,54.6-22.6c14-14,22.6-33.2,22.6-54.6v-205.2
		c0-36.9-14.9-70.3-39.1-94.5c-11.4-11.4-24.9-20.7-39.8-27.4c-0.7,0.4-1.5,0.6-2.4,0.6H3806.1z M3981.1,2745.9c1,1,1.5,2.2,1.5,3.6
		v67.5c0,1.4-0.5,2.6-1.5,3.6c-1,1-2.2,1.5-3.6,1.5l-62.9,0v62.9c0,1.4-0.5,2.6-1.5,3.6c-1,1-2.2,1.5-3.6,1.5h-67.5
		c-1.3,0-2.7-0.5-3.6-1.5c-0.9-0.9-1.5-2.3-1.5-3.6v-62.9h-62.9c-1.3,0-2.7-0.5-3.6-1.5c-0.9-0.9-1.5-2.3-1.5-3.6v-67.5
		c0-1.3,0.5-2.7,1.5-3.6c0.9-0.9,2.3-1.5,3.6-1.5h62.9v-62.9c0-1.3,0.5-2.7,1.5-3.6c0.9-0.9,2.3-1.5,3.6-1.5h67.5
		c1.4,0,2.6,0.5,3.6,1.5c1,1,1.5,2.2,1.5,3.6v62.9h62.9C3978.8,2744.4,3980.1,2744.9,3981.1,2745.9z"/><path d="M4036.8,2879.1v-205.2c0-59-35.6-109.7-86.4-131.9v5.5c0,1.4-0.5,2.6-1.5,3.6c-0.4,0.4-0.8,0.6-1.2,0.9
		c14.9,6.7,28.4,16,39.8,27.4c24.2,24.2,39.1,57.6,39.1,94.5v205.2c0,21.3-8.6,40.6-22.6,54.6c-14,14-33.2,22.6-54.6,22.6H3802
		c-21.3,0-40.6-8.6-54.6-22.6c-14-14-22.6-33.2-22.6-54.6v-205.2c0-36.9,14.9-70.3,39.1-94.5c11.4-11.4,24.9-20.7,39.8-27.4
		c-0.4-0.2-0.9-0.5-1.2-0.9c-0.9-0.9-1.5-2.3-1.5-3.6v-5.5c-50.8,22.2-86.4,72.8-86.4,131.9v205.2c0,34.1,19.6,63.6,48.1,78
		c11.8,6,25.1,9.3,39.3,9.3h147.5c14.1,0,27.5-3.4,39.3-9.3C4017.2,2942.7,4036.8,2913.2,4036.8,2879.1z"/><rect width="129" height="98.9" x="3811.2" y="2443.5"/><path d="M3802.5,2551.1c0.4,0.4,0.8,0.6,1.2,0.9c0.7,0.4,1.5,0.6,2.4,0.6h139.2c0.8,0,1.7-0.2,2.4-0.6c0.4-0.2,0.9-0.5,1.2-0.9
		c1-1,1.5-2.2,1.5-3.6v-5.5v-103.6c0-1.4-0.5-2.6-1.5-3.6c-1-1-2.2-1.5-3.6-1.5h-139.2c-1.3,0-2.7,0.5-3.6,1.5
		c-0.9,0.9-1.5,2.3-1.5,3.6V2542v5.5C3801,2548.9,3801.6,2550.2,3802.5,2551.1z M3940.2,2443.5l0,98.9h-129v-98.9H3940.2z"/><path fill="#fff" d="M3909.5,2754.6c-1.3,0-2.7-0.5-3.6-1.5c-0.9-0.9-1.5-2.3-1.5-3.6l0-62.9H3847v62.9c0,1.4-0.5,2.6-1.5,3.6
		c-1,1-2.2,1.5-3.6,1.5H3779v57.3h62.9c1.4,0,2.6,0.5,3.6,1.5c1,1,1.5,2.2,1.5,3.6v62.9h57.3V2817c0-1.3,0.5-2.7,1.5-3.6
		c0.9-0.9,2.3-1.5,3.6-1.5h62.9v-57.3H3909.5z"/><path d="M3914.6,2681.5c0-1.4-0.5-2.6-1.5-3.6c-1-1-2.2-1.5-3.6-1.5h-67.5c-1.3,0-2.7,0.5-3.6,1.5c-0.9,0.9-1.5,2.3-1.5,3.6v62.9
		h-62.9c-1.3,0-2.7,0.5-3.6,1.5c-0.9,0.9-1.5,2.3-1.5,3.6v67.5c0,1.3,0.5,2.7,1.5,3.6c0.9,0.9,2.3,1.5,3.6,1.5h62.9v62.9
		c0,1.3,0.5,2.7,1.5,3.6c0.9,0.9,2.3,1.5,3.6,1.5h67.5c1.4,0,2.6-0.5,3.6-1.5c1-1,1.5-2.2,1.5-3.6v-62.9l62.9,0
		c1.4,0,2.6-0.5,3.6-1.5c1-1,1.5-2.2,1.5-3.6v-67.5c0-1.4-0.5-2.6-1.5-3.6c-1-1-2.2-1.5-3.6-1.5h-62.9V2681.5z M3909.5,2811.9
		c-1.3,0-2.7,0.5-3.6,1.5c-0.9,0.9-1.5,2.3-1.5,3.6v62.9H3847V2817c0-1.4-0.5-2.6-1.5-3.6c-1-1-2.2-1.5-3.6-1.5H3779v-57.3h62.9
		c1.4,0,2.6-0.5,3.6-1.5c1-1,1.5-2.2,1.5-3.6v-62.9h57.3l0,62.9c0,1.3,0.5,2.7,1.5,3.6c0.9,0.9,2.3,1.5,3.6,1.5h62.9v57.3H3909.5z"/><path fill="#fff" d="M4859.2,2689.2c11.6-38.7,42.1-69.2,80.7-80.8c-38.7-11.6-69.2-42.1-80.7-80.8c-11.6,38.7-42.1,69.2-80.7,80.8
		C4817.1,2620,4847.6,2650.5,4859.2,2689.2z"/><path d="M4743.7,2603.3c-1.3,0-2.7,0.5-3.6,1.5c-0.9,0.9-1.5,2.3-1.5,3.6c0,1.3,0.5,2.7,1.5,3.6c0.9,0.9,2.3,1.5,3.6,1.5
		c30.5,0,58,12.3,78,32.3c20,20,32.3,47.5,32.3,78c0,1.3,0.5,2.7,1.5,3.6c0.9,0.9,2.3,1.5,3.6,1.5h0c1.4,0,2.6-0.5,3.6-1.5
		c1-1,1.5-2.2,1.5-3.6c0-30.5,12.3-58,32.3-78c20-20,47.5-32.3,78-32.3c1.3,0,2.7-0.5,3.6-1.5c0.9-0.9,1.5-2.3,1.5-3.6
		c0-1.3-0.5-2.7-1.5-3.6c-0.9-0.9-2.3-1.5-3.6-1.5c-30.5,0-58-12.3-78-32.3c-20-20-32.3-47.5-32.3-78c0-1.4-0.5-2.6-1.5-3.6
		c-1-1-2.2-1.5-3.6-1.5h0c-1.3,0-2.7,0.5-3.6,1.5c-0.9,0.9-1.5,2.3-1.5,3.6c0,30.5-12.3,58-32.3,78
		C4801.8,2591,4774.2,2603.3,4743.7,2603.3z M4859.2,2527.6c11.6,38.7,42.1,69.2,80.7,80.8c-38.7,11.6-69.2,42.1-80.7,80.8
		c-11.6-38.7-42.1-69.2-80.7-80.8C4817.1,2596.8,4847.6,2566.3,4859.2,2527.6z"/><path fill="#fff" d="M581.8,1317.1c11.6-38.7,42.1-69.2,80.8-80.8c-38.7-11.6-69.2-42.1-80.8-80.8c-11.6,38.7-42.1,69.2-80.8,80.8
		C539.7,1247.9,570.2,1278.4,581.8,1317.1z"/><path d="M576.7,1351.8c0,1.3,0.5,2.7,1.5,3.6c0.9,0.9,2.3,1.5,3.6,1.5h0c1.4,0,2.6-0.5,3.6-1.5c1-1,1.5-2.2,1.5-3.6
		c0-30.5,12.3-58,32.3-78c20-20,47.5-32.3,78-32.3c1.3,0,2.7-0.5,3.6-1.5c0.9-0.9,1.5-2.3,1.5-3.6v0c0-1.3-0.5-2.7-1.5-3.6
		c-0.9-0.9-2.3-1.5-3.6-1.5c-30.5,0-58-12.3-78-32.3c-20-20-32.3-47.5-32.3-78c0-1.4-0.5-2.6-1.5-3.6c-1-1-2.2-1.5-3.6-1.5h0
		c-1.3,0-2.7,0.5-3.6,1.5c-0.9,0.9-1.5,2.3-1.5,3.6c0,30.5-12.3,58-32.3,78c-20,20-47.5,32.3-78,32.3c-1.3,0-2.7,0.5-3.6,1.5
		c-0.9,0.9-1.5,2.3-1.5,3.6v0c0,1.3,0.5,2.7,1.5,3.6s2.3,1.5,3.6,1.5c30.5,0,58,12.3,78,32.3
		C564.4,1293.7,576.7,1321.3,576.7,1351.8z M581.8,1155.5c11.6,38.7,42.1,69.2,80.8,80.8c-38.7,11.6-69.2,42.1-80.8,80.8
		c-11.6-38.7-42.1-69.2-80.8-80.8C539.7,1224.7,570.2,1194.2,581.8,1155.5z"/><path fill="#eff0f1" d="M2586.4,2982.7c38.2,0,69.2-30.9,69.2-69.1c0-38.2-31-69.1-69.2-69.1c-38.2,0-69.1,30.9-69.1,69.1
		C2517.2,2951.8,2548.2,2982.7,2586.4,2982.7z M2586.4,2867.7c25.3,0,45.9,20.5,45.9,45.9c0,25.3-20.5,45.9-45.9,45.9
		c-25.3,0-45.9-20.5-45.9-45.9C2540.5,2888.2,2561,2867.7,2586.4,2867.7z"/></svg>