<svg xmlns="http://www.w3.org/2000/svg" fill-rule="evenodd" clip-rule="evenodd" image-rendering="optimizeQuality" shape-rendering="geometricPrecision" text-rendering="geometricPrecision" viewBox="0 0 6071 4547"><path fill="none" d="M0 0h6071v4547H0z"/><path fill="#fbfaf1" stroke="#2e4754" stroke-width="7.62" d="M3153 781c773 0 1400 627 1400 1400s-627 1400-1400 1400-1399-627-1399-1400S2380 781 3153 781z"/><path fill="#a3eef5" stroke="#2e4754" stroke-linecap="round" stroke-linejoin="round" stroke-width="7.62" d="M1970 1044h1257v2619H1970z"/><path fill="#2e4754" stroke="#2e4754" stroke-linecap="round" stroke-linejoin="round" stroke-width="7.62" d="M1970 1044h1257v173H1970z"/><path fill="#b86e56" stroke="#2e4754" stroke-linecap="round" stroke-linejoin="round" stroke-width="7.62" d="m4352 2019-1125-519v2163h1125z"/><path fill="#fbfaf1" stroke="#2e4754" stroke-linecap="round" stroke-linejoin="round" stroke-width="7.62" d="m4267 2073-955-440v1578h955z"/><path fill="none" stroke="#2e4754" stroke-linecap="round" stroke-linejoin="round" stroke-width="7.62" d="M1554 3663h3221"/><path fill="#fbfaf1" stroke="#2e4754" stroke-linecap="round" stroke-linejoin="round" stroke-width="7.62" d="M2105 1316h115v1914h-115zM2323 1316h115v1914h-115zM2541 1316h115v1914h-115zM2759 1316h116v1914h-116zM2978 1316h115v1914h-115z"/><path fill="none" stroke="#2e4754" stroke-linecap="round" stroke-linejoin="round" stroke-width="7.62" d="M1970 3316h1257v347H1970z"/><path fill="#fc9777" stroke="#2e4754" stroke-linecap="round" stroke-linejoin="round" stroke-width="7.62" d="M2433 3401h332v262h-332z"/><path fill="#fbfaf1" stroke="#2e4754" stroke-linecap="round" stroke-linejoin="round" stroke-width="7.62" d="M2075 3401h254v195h-254z"/><path fill="none" stroke="#2e4754" stroke-linecap="round" stroke-linejoin="round" stroke-width="7.62" d="M2160 3401v195M2246 3401v195"/><path fill="#fbfaf1" stroke="#2e4754" stroke-linecap="round" stroke-linejoin="round" stroke-width="7.62" d="M2861 3401h253v195h-253z"/><path fill="none" stroke="#2e4754" stroke-linecap="round" stroke-linejoin="round" stroke-width="7.62" d="M2945 3401v195M3031 3401v195M2599 3401v262"/><path fill="#fc9777" stroke="#2e4754" stroke-linecap="round" stroke-linejoin="round" stroke-width="7.62" d="M4352 3316H3227v347h1125z"/><path fill="#fbfaf1" stroke="#2e4754" stroke-linecap="round" stroke-linejoin="round" stroke-width="7.62" d="M3717 3316h-490v280h490z"/><path fill="#84c1c7" stroke="#2e4754" stroke-linecap="round" stroke-linejoin="round" stroke-width="7.62" d="M2254 1044h345V914h-345z"/><path fill="none" stroke="#2e4754" stroke-linecap="round" stroke-linejoin="round" stroke-width="7.62" d="M3387 3316v280M3548 3316v280M3504 1721v1490M4267 2073h-955M3696 1810v1401M3888 1898v1313M4079 1986v1225M4267 2232h-955M4267 2391h-955M4267 2550h-955M4267 2710h-955M4267 2869h-955M4267 3028h-955M3888 1900h-576M2769 764v280M2963 607v437"/><path fill="#2e4754" stroke="#2e4754" stroke-width="7.62" d="M1749 3077s-45-10-45 12-20 16-29 39c-10 24-13 31-19 62-7 32-8 41-27 68s-26 71-24 83c3 13-11 24-24 62-12 39-17 65-11 80 7 15-22 57 5 72s55 26 78 19 52 18 77 6 46 3 81-12c35-14 49 7 73-7 23-13 39-36 37-66-1-31-27-60-36-91-9-30-1-63-25-86-25-23-21-32-30-62-9-31-27-46-36-73s0-55-11-69c-11-13-25-15-25-15l-9-22z"/><path fill="#fbfaf1" stroke="#2e4754" stroke-width="7.62" d="m1698 3471-12 43 27 17v73s-3 27-13 36c-10 10-25 23-25 23h136s-18-11-29-39c-12-28-11-89-11-89s24-30 29-30c5-1 18 1 18 1l2-20-23-11 3-31-16-6s0 19-19 38c-20 20-34 27-34 27l-33-32z"/><path fill="#2e4754" stroke="#2e4754" stroke-width="7.62" d="M4570 3077s45-10 45 12 19 16 29 39c10 24 13 31 19 62 6 32 8 41 27 68s26 71 23 83c-2 13 12 24 25 62 12 39 17 65 10 80-6 15 23 57-4 72s-55 26-78 19c-24-7-52 18-77 6-26-12-46 3-81-12-35-14-50 7-73-7-23-13-39-36-38-66 2-31 28-60 37-91 9-30 1-63 25-86 25-23 21-32 30-62 9-31 27-46 36-73s0-55 11-69c10-13 25-15 25-15l9-22z"/><path fill="#fbfaf1" stroke="#2e4754" stroke-width="7.62" d="m4621 3471 12 43-27 17v73s3 27 13 36c9 10 25 23 25 23h-136s17-11 29-39 10-89 10-89-23-30-28-30c-5-1-18 1-18 1l-2-20 23-11-4-31 17-6s0 19 19 38c19 20 34 27 34 27l33-32z"/><path fill="#a3eef5" d="M4065 921c141 0 256 114 256 255 0 142-115 256-256 256s-256-114-256-256c0-141 115-255 256-255z"/><path fill="#fc9777" d="M1637 1837h225v203h-225zM4691 2449c43 0 77 34 77 77 0 42-34 77-77 77s-77-35-77-77c0-43 34-77 77-77z"/></svg>