<svg xmlns="http://www.w3.org/2000/svg" data-name="Layer 1" viewBox="0 0 1100 850"><path fill="#b3caff" d="M810.66735,454.90176l-57.785,157.3356-.1451.3991L738.296,651.948a15.885,15.885,0,0,1-20.62343,9.3644,16.1163,16.1163,0,0,1-9.0867-20.6192l.71713-1.9546a3.83621,3.83621,0,0,1,4.921-2.2839h0a3.83752,3.83752,0,0,1,2.28227,4.9222l-.7576,2.0676a8.36713,8.36713,0,0,0,4.0839,10.4526,8.22514,8.22514,0,0,0,11.259-4.5873l2.1567-5.8876,12.2788-33.4268.1465-.399,55.1509-150.1282,2.6383-7.2047Z"/><path fill="#b3caff" d="M752.73725,612.63646,738.296,651.948a15.885,15.885,0,0,1-20.62343,9.3644,16.1163,16.1163,0,0,1-9.0867-20.6192l.71713-1.9546a3.83621,3.83621,0,0,1,4.921-2.2839h0a3.83752,3.83752,0,0,1,2.28227,4.9222l-.7576,2.0676a8.36713,8.36713,0,0,0,4.0839,10.4526,8.22514,8.22514,0,0,0,11.259-4.5873l2.1567-5.8876,12.2788-33.4268Z"/><path fill="#b3caff" d="M846.82725,351.54226c-82.1334-30.9266-172.83727,2.6676-216.92039,75.5845l.36.1354a31.52069,31.52069,0,0,1,55.0337,20.7224S788.04615,329.40936,846.82725,351.54226Z"/><path fill="#d1dfff" d="M846.82725,351.54226c58.16733,21.9014,57.75713,174.1377,57.72643,178.8882.0014.0753.0028.113.0028.113l.0125.0042a31.51672,31.51672,0,0,1,55.0282,20.721l.4171.1563C974.97328,467.542,928.96068,382.469,846.82725,351.54226Z"/><path fill="#9894d6" d="M795.50745,488.83916c-.0586.06-.1127.1214-.1744.1884-.0879.0934-.1755.1869-.26507.2874l-.01253-.0042c-.0014-.2177-.0084-.4353-.0181-.6474Z"/><path fill="#d1dfff" d="M846.82725,351.54226c-58.7811-22.1329-161.52669,96.4423-161.52669,96.4423l.0125.0056a31.51614,31.51614,0,0,1,55.02119,20.2633.114.114,0,0,1,.01673-.0237C741.45175,466.23606,812.20205,338.50446,846.82725,351.54226Z"/><path fill="#b3caff" d="M850.08775,509.20446a31.52017,31.52017,0,0,0-54.5803-20.3653l-.4701-.1758A31.51428,31.51428,0,0,0,740.351,468.227c1.09937-1.9923,71.66267-129.3848,106.33537-116.7321a.33764.33764,0,0,1,.0753.0209l.0642.0238a2.09265,2.09265,0,0,1,.2009.0837,13.70756,13.70756,0,0,1,2.6508,1.37c.0293.0195.06.0377.0907.0572C880.02248,373.16176,850.08775,509.20446,850.08775,509.20446Z"/><path fill="#d1dfff" d="M850.13655,509.15556c-.0139.0182-.0348.0321-.0488.0489a31.52017,31.52017,0,0,0-54.5803-20.3653c-.0586.06-.1127.1214-.1744.1884l.0837-.2219,51.2696-137.3108.0028-.007s.0265.0112.0725.0279l.0642.0238a2.09265,2.09265,0,0,1,.2009.0837,26.44389,26.44389,0,0,1,2.6508,1.37c.0293.0195.06.0377.0907.0572,6.4889,3.8437,21.17723,15.6789,24.06943,45.1462C876.34618,423.75606,860.68965,476.97186,850.13655,509.15556Z"/><path fill="#b3caff" d="M904.55368,530.42906a31.51644,31.51644,0,0,0-54.41713-21.2735c-.0139.0182-.0348.0321-.0488.0489,0,0,29.93473-136.0427-.3195-156.154-.0307-.0195-.0614-.0377-.0907-.0572a13.70756,13.70756,0,0,0-2.6508-1.37C904.99588,373.79376,904.58048,525.68406,904.55368,530.42906Z"/><path fill="#bdd1ff" d="M292.61027,256.56916l101.25829,424.6536a189.03317,189.03317,0,0,1-143.02679-22.7314c-65.464-40.0901-82.3999-105.1132-85.3549-117.3962a227.48125,227.48125,0,0,0,5.4286-87.8829c-8.4072-62.0821-40.6342-103.799-55.6378-120.9651,26.3226-12.8146,56.8391-36.358,86.2771-67.5846l90.85321-8.0097Z"/><path fill="#b3caff" d="M534.25716,452.44066c2.9451,12.2775,17.4284,77.8935-22.6617,143.3575a189.06331,189.06331,0,0,1-117.3976,85.3465l-.3293.0781L292.61027,256.56916l83.85639-33.9611c40.4138,14.4288,78.2984,21.5274,107.5729,20.9791-5.5598,22.1036-15.298,73.9173,5.4285,133.043A227.66578,227.66578,0,0,0,534.25716,452.44066Z"/><path fill="#b3c9ff" d="M296.77337,274.02686l91.97079,385.7034a166.45655,166.45655,0,0,1-126.36159-20.0876c-50.0892-30.6713-68.3715-78.5116-74.0903-98.6913a247.891,247.891,0,0,0,4.5245-90.7053,250.46259,250.46259,0,0,0-44.3425-111.5239c21.1912-13.6964,43.3673-32.2381,64.5669-54.092Z"/><path fill="#a8c1ff" d="M513.87656,462.67566c4.0808,20.5787,9.5345,71.505-21.13258,121.5747a166.44357,166.44357,0,0,1-103.70522,75.4087l-.2946.0712-91.97079-385.7034,78.54229-28.4111c28.8157,9.8205,57.0011,16.2564,82.0971,18.8277a250.56512,250.56512,0,0,0,11.1976,119.4974A247.93368,247.93368,0,0,0,513.87656,462.67566Z"/><path fill="#fff" d="M299.59307,285.94716l86.46119,362.5911a155.36753,155.36753,0,0,1-117.92779-18.7427c-45.1573-27.6494-62.6346-70.5005-68.4943-89.9045a254.42354,254.42354,0,0,0,4.0753-90.7039,254.68449,254.68449,0,0,0-40.0761-106.5335,396.72089,396.72089,0,0,0,55.6085-47.5458l80.1425-9.0825Z"/><path fill="#efebff" d="M503.25236,466.83046c3.5981,19.9508,7.5018,66.0667-20.142,111.2142a155.31658,155.31658,0,0,1-96.7813,70.3624l-.2692.0642L299.6,285.88026l74.91068-28.1656a397.14466,397.14466,0,0,0,71.152,17.0628,254.51906,254.51906,0,0,0,57.5897,192.053Z"/><path fill="#b3caff" d="M377.40976,346.75966q-20.036,49.119-40.0733,98.2392-25.59015-14.643-51.18169-29.2859-8.77065,19.0314-17.5456,38.0657,41.0493,14.9904,82.09859,29.9835c22.444-39.6199,53.60922-69.5141,76.0518-109.134C413.21816,368.58006,390.95266,352.80776,377.40976,346.75966Z"/><path fill="#82a2f0" d="M601.99936,178.65756c69.8992,24.9902,55.24162-2.2295,55.24162-2.2295,42.51208,6.3229,35.31168-22.172,35.31168-22.172,54.41589,15.8589,43.18169-13.8554,43.18169-13.8554,55.3365,25.745,48.4695-16.488,48.4695-16.488,26.3145,11.5115,53.7906,22.511,62.47413,18.9854a4.74053,4.74053,0,0,0,.69477-.3418,4.02917,4.02917,0,0,0,1.444-1.331c4.5399-7.0707-14.8794-28.0052-15.9732-29.0474-34.4771-32.8533-107.7389-60.1735-168.29749-24.234-42.90408,25.4674-57.2785,69.5169-61.4947,86.224-.2358.9446-.4493,1.7998-.6209,2.5616C602.26586,177.45766,602.12356,178.10786,601.99936,178.65756Z"/><path fill="#7395e6" d="M602.00776,178.63386c8.3543-16.011,60.37022-22.5027,58.2454-27.9006s-8.1827-8.2872,5.3546-13.1913c13.5471-4.9054,45.71539-4.0306,38.10622-10.1093s1.85827-13.8833,20.894-11.5618c19.03417,2.3118,44.02747,4.6976,39.00177-1.1663-4.9612-5.7955,38.7508.3139,39.8237.4548a268.89816,268.89816,0,0,0-32.8841-15.976c-.00137-.0098-.0112.0014-.0112.0014C707.13765,82.10506,626.27106,116.00486,602.00776,178.63386Z"/><path fill="#6085db" d="M602.43046,176.72946c36.92452-69.2463,131.666-98.2937,201.02669-61.5617a214.7616,214.7616,0,0,1,43.22083,27.7303,4.74053,4.74053,0,0,0,.69477-.3418c-21.8162-20.0207-48.0049-35.8474-76.8234-43.3729-.00137-.0098-.0112.0014-.0112.0014C706.74285,82.32976,629.00006,115.21516,602.43046,176.72946Z"/><path fill="#4566b5" d="M589.22666,546.55576c3.84232,28.2605,8.8942,53.8911,14.2795,76.4565q-43.5585,1.8228-87.0821,3.6135-.2217-14.0487-.00408-29.5803c.032-1.7509.06268-3.5368.12828-5.3226a910.9047,910.9047,0,0,1,7.58972-99.2576c.20088-1.5501.43528-3.1336.66828-4.7171,3.0052-22.2055,7.0512-45.5229,12.3109-69.6843.233-1.2138.5023-2.3928.8037-3.6066q4.2189-19.3599,9.6196-39.3952,3.2187-11.92875,6.641-23.3886c.2681-.9766.5692-1.9546.872-2.8978a910.00768,910.00768,0,0,1,77.5921-182.6927,786.90474,786.90474,0,0,0-40.7723,153.7416c-.1339.6739-.2344,1.3143-.3348,1.9882-3.27448,20.9247-5.8751,42.9948-7.4628,66.1406-.0669.7743-.1339,1.55-.166,2.3243q-1.3896,20.67015-1.6993,42.4173-.13605,11.0664.0279,21.8301c.0363,1.4482.0712,2.8643.106,4.279a776.76994,776.76994,0,0,0,6.2699,83.17C588.81786,543.52406,589.023,545.04066,589.22666,546.55576Z"/><path fill="#3a59a1" d="M588.61416,541.97406a776.76994,776.76994,0,0,1-6.2699-83.17c-.0348-1.4147-.0697-2.8308-.106-4.279q-.1653-10.76295-.0279-21.8301.2766-21.72915,1.6993-42.4173c.0321-.7743.0991-1.55.166-2.3243,1.5877-23.1458,4.18832-45.2159,7.4628-66.1406.1004-.6739.2009-1.3143.3348-1.9882a782.54076,782.54076,0,0,1,22.8961-100.6458,783.22643,783.22643,0,0,0-32.3637,109.095c-.1716.6641-.30968,1.2989-.4478,1.9658-4.4827,20.7-8.3557,42.5818-11.2813,65.5965-.1117.7701-.2233,1.5402-.3,2.3118q-2.5845,20.555-4.1518,42.247-.7788,11.04135-1.2377,21.7966c-.0475,1.4468-.0949,2.8629-.1409,4.2762a776.8849,776.8849,0,0,0,1.4426,83.3947c.1144,1.5584.23022,3.0833.346,4.6082,1.9644,25.3948,5.01422,48.7443,8.5426,69.7164q14.16165-.5901,28.3288-1.1747c-5.3853-22.5654-10.43718-48.196-14.2795-76.4565C589.023,545.04066,588.81786,543.52406,588.61416,541.97406Z"/><path fill="#3a59a1" d="M632.64556,166.083c-11.6287,20.7433-23.8754,44.5071-35.8878,71.1702,9.2653-17.2764,18.5138-33.1883,27.4736-47.7105Q628.46079,177.14516,632.64556,166.083Z"/><path fill="#788ae6" d="M612.49526,221.25756a23.021,23.021,0,1,1-23.0496-22.9924A23.02093,23.02093,0,0,1,612.49526,221.25756Z"/><path fill="#788ae6" d="M608.14226,215.77316a23.02022,23.02022,0,1,1-23.0495-22.991A23.02078,23.02078,0,0,1,608.14226,215.77316Z"/><path fill="#6779d6" d="M589.84606,198.28476a22.99609,22.99609,0,0,1-15.3398,40.1249c-.13528.0014-.2665-.0167-.4018-.0195a23.0051,23.0051,0,1,0,15.7416-40.1054Z"/><path fill="#7d90f0" d="M638.87776,215.04766a23.02091,23.02091,0,1,1-23.0509-22.9909A23.02078,23.02078,0,0,1,638.87776,215.04766Z"/><path fill="#677be0" d="M623.83936,193.50766a22.989,22.989,0,0,1-21.9028,39.8753,23.00147,23.00147,0,1,0,21.9028-39.8753Z"/><path fill="#8b9cf0" d="M625.99906,247.06666a19.64956,19.64956,0,1,1-19.6747-19.6244A19.65152,19.65152,0,0,1,625.99906,247.06666Z"/><path fill="#798ae0" d="M616.16586,230.08756a19.63867,19.63867,0,0,1-22.324,32.1572,19.6424,19.6424,0,1,0,22.324-32.1572Z"/><path fill="#94b4ff" d="M612.49526,181.91526c-70.1336,24.3247-55.2179-2.7527-55.2179-2.7527-42.5707,5.9169-35.0979-22.5082-35.0979-22.5082-54.565,15.3413-43.04948-14.2655-43.04948-14.2655-55.57932,25.2162-48.31042-16.9485-48.31042-16.9485-26.4231,11.2604-54.0025,21.999-62.6514,18.3911a4.8566,4.8566,0,0,1-.6906-.3488,4.01,4.01,0,0,1-1.4328-1.3464c-4.4729-7.1125,15.1459-27.8614,16.2495-28.8925,34.7885-32.5241,108.30672-59.1466,168.52072-22.6323,42.66,25.8747,56.61438,70.0596,60.67158,86.8058.226.9473.4311,1.8039.5957,2.5671C612.23986,180.71546,612.37686,181.36556,612.49526,181.91526Z"/><path fill="#89aaf5" d="M612.48846,181.893c-8.2024-16.0905-60.1542-23.0761-57.9777-28.4544,2.175-5.377,8.2608-8.2078-5.2291-13.2416-13.501-5.0337-45.6749-4.4645-38.0085-10.4707s-1.72718-13.9014-20.7838-11.7598c-19.0538,2.1304-44.0691,4.279-38.9879-1.5375,5.0156-5.7495-38.7521-.0558-39.8278.0753a269.11445,269.11445,0,0,1,33.0361-15.6621c.0014-.0111.0101.0014.0101.0014C508.28056,84.36806,588.82066,119.03516,612.48846,181.893Z"/><path fill="#7395e6" d="M612.08226,179.98436c-36.2632-69.5951-130.72428-99.5423-200.4309-63.4717a214.67117,214.67117,0,0,0-43.4832,27.3188,4.8566,4.8566,0,0,1-.6906-.3488c22.0046-19.8128,48.3439-35.3898,77.2322-42.6405.0014-.0111.0101.0014.0101.0014C508.67256,84.59546,586.10006,118.219,612.08226,179.98436Z"/><path fill="#82a2f0" d="M620.30536,187.10246c-39.9576,62.5607-45.0373,32.0665-45.0373,32.0665-29.738,31.0299-41.4937,4.0934-41.4937,4.0934-33.3082,45.8605-42.62338,15.4892-42.62338,15.4892-27.98312,54.2384-48.41532,16.6457-48.41532,16.6457-13.755,25.2148-28.7418,50.7366-37.7641,53.266a4.86083,4.86083,0,0,1-.7592.1549,4.021,4.021,0,0,1-1.9575-.1674c-7.91888-2.8099-5.3853-31.2531-5.15788-32.746,7.13768-47.0854,48.32718-113.5469,118.211-122.2179,49.51438-6.1387,87.85358,19.8853,101.41738,30.5109.76462.6027,1.45662,1.1468,2.0593,1.6449C619.36086,186.31836,619.87146,186.744,620.30536,187.10246Z"/><path fill="#7395e6" d="M620.28586,187.09c-16.41-7.5437-61.5087,19.1765-63.1341,13.6084s1.39522-11.5617-12.3109-7.1502c-13.7145,4.4185-38.6098,24.8088-36.3162,15.344,2.2937-9.4662-9.9712-9.8387-23.5978,3.654-13.6322,13.4828-31.9298,30.6727-31.54888,22.9602.37388-7.6204-30.44392,23.9773-31.20572,24.7461a269.11394,269.11394,0,0,1,16.2146-32.7669c-.0055-.0098.0098-.0056.0098-.0056C478.06126,175.15286,562.752,152.434,620.28586,187.09Z"/><path fill="#6085db" d="M618.78466,185.84266c-71.5958-32.1349-164.2822,2.9173-196.6263,74.4293a214.70588,214.70588,0,0,0-17.1868,48.3913,4.86083,4.86083,0,0,1-.7592.1549c4.9877-29.1869,15.9997-57.7362,34.1745-81.3326-.0055-.0098.0098-.0056.0098-.0056C478.51076,175.08876,560.10956,153.48036,618.78466,185.84266Z"/><path fill="#94b4ff" d="M601.99936,178.56826c32.2744,66.848,40.9272,37.17,40.9272,37.17,25.8569,34.3308,40.7179,8.9751,40.7179,8.9751,27.648,49.4782,40.49052,20.4238,40.49052,20.4238,21.36977,57.1683,46.10607,22.2571,46.10607,22.2571,10.6744,26.6644,22.5361,53.7809,31.1973,57.3595a4.766,4.766,0,0,0,.7338.2441,4.02124,4.02124,0,0,0,1.9644.0656c8.1955-1.8528,9.0465-30.3965,8.9961-31.9061-1.5166-47.5988-34.55267-118.4677-102.92-135.3464-48.43879-11.9538-89.58779,9.349-104.31519,18.2962-.8287.5079-1.5807.9669-2.2378,1.3896C603.03046,177.90136,602.47236,178.26406,601.99936,178.56826Z"/><path fill="#89aaf5" d="M602.02166,178.55706c17.1871-5.5471,58.80632,26.3212,61.079,20.9847,2.2727-5.3379-.01668-11.6468,13.0699-5.6434,13.0951,6.009,35.40379,29.2022,34.24579,19.5323-1.1566-9.6699,11.0664-8.5886,23.0007,6.4206,11.9412,15.0008,28.0763,34.2359,28.6092,26.5318.5316-7.6106,27.3941,27.4108,28.0596,28.2661a268.74039,268.74039,0,0,0-12.2244-34.4564c.0069-.0084-.0084-.007-.0084-.007C744.65785,183.53366,663.25136,150.95236,602.02166,178.55706Z"/><path fill="#7395e6" d="M603.65966,177.49676c74.8939-23.4374,162.78232,22.3366,186.436,97.1733a214.68041,214.68041,0,0,1,11.3427,50.0837,4.766,4.766,0,0,0,.7338.2441c-1.4984-29.5719-9.056-59.2248-24.3107-84.8051.0069-.0084-.0084-.007-.0084-.007C744.22005,183.41646,665.75006,152.30426,603.65966,177.49676Z"/><path fill="#6c89cf" d="M584.73866,352.44356c-10.1752-.2553-20.3834-.512-30.5572-.7701.2681-.9766.5692-1.9546.872-2.8978C564.95916,350.00906,574.833,351.21026,584.73866,352.44356Z"/><path fill="#6c89cf" d="M574.51326,418.993c-12.4658-.3209-24.9316-.6083-37.3961-.9291.233-1.2138.5023-2.3928.8037-3.6066Q556.21561,416.75931,574.51326,418.993Z"/><path fill="#6c89cf" d="M572.92156,493.68456q-24.35787-.62775-48.78358-1.2193c.20088-1.5501.43528-3.1336.66828-4.7171Q548.86446,490.699,572.92156,493.68456Z"/><path fill="#6c89cf" d="M570.52726,598.39316q-27.0363-.6738-54.10728-1.3477c.032-1.7509.06268-3.5368.12828-5.3226C534.57526,593.958,552.53376,596.15816,570.52726,598.39316Z"/><path fill="#6c89cf" d="M584.07566,387.95336c-.0669.7743-.1339,1.55-.166,2.3243q-11.623.31815-23.2448.6362C568.47916,389.92746,576.26,388.93976,584.07566,387.95336Z"/><path fill="#6c89cf" d="M582.34426,458.80406q-21.67665.5817-43.3896,1.1998,21.6243-2.7561,43.2836-5.4788C582.27456,455.97326,582.30946,457.38936,582.34426,458.80406Z"/><path fill="#6c89cf" d="M589.22666,546.55576q-23.6502.6363-47.2975,1.3059,23.34285-2.9613,46.685-5.8876C588.81786,543.52406,589.023,545.04066,589.22666,546.55576Z"/><path fill="#6c89cf" d="M591.87326,319.82456c-.1339.6739-.2344,1.3143-.3348,1.9882q-10.00545.3138-20.0109.5636Q581.68376,321.09986,591.87326,319.82456Z"/><path fill="#ebf1ff" d="M269.57467,775.91546c-27.069-1.3812-82.7571-.0684-84.1829-22.5766.9501-7.8896,9.4957-10.9297,22.5989-14.8989-37.47,1.4342-85.8264,9.0253-122.6365,6.44-12.2088-1.0268-23.7387-1.9964-24.3328-11.171-.144-14.9883,34.2413-15.2478,46.04861-19.577-7.33721-2.7345-25.15351-7.8018-21.73391-17.0531,1.4216-6.5671,8.0138-9.5262,29.39191-13.1843,28.49349-5.4803,122.00729-13.2318,136.03009-12.9681.805,0,19.662-.0391,20.188,0,.2372-.0014,601.523,2.3397,601.82571,2.3969,4.7757.4116,117.2958,10.2196,151.7215,22.1706,6.2713,2.1764,15.7472,5.4662,14.3465,13.7716-2.8936,13.9838-34.1118,7.2842-45.7419,8.6682,9.9726,4.6361,34.3294,4.6933,34.0797,20.7378-1.1678,8.1784-10.9339,11.1934-25.2386,13.2038-22.0492,2.5894-50.5747,4.1813-74.7892-.6278a91.59371,91.59371,0,0,0-22.3952-2.9675c-15.9244,0-31.1387,4.9807-49.08193,12.456-20.3192,8.4673-54.18267,13.3224-92.9069,13.3224-13.3852-1.3951-74.39309,2.9662-67.34049-16.2634-21.0126,1.5919-76.1746,7.213-97.2207-15.2408-5.7565-6.1401-12.3249-7.5883-19.1024.0042-24.5161,27.461-116.5273,13.3671-132.4349,19.1975-9.6225,28.0456-77.8768,4.0487-98.609,4.6361C320.31546,768.59786,306.51866,777.393,269.57467,775.91546Z"/><path fill="#dbe6ff" d="M268.02327,681.20746c-7.4726-.9599-170.3875,11.1306-148.9828,20.8605,21.406,9.7299,43.2001,12.064,21.017,17.9014-22.1831,5.8387-71.2207,12.8439-29.57749,16.3457,41.64129,3.5033,130.37379-12.4532,138.93589-3.5018s-49.67489,14.2153-35.0298,22.8304c19.8476,11.6748,95.18659,12.8914,119.31459,5.1077,24.1294-7.7836,40.3565-2.2615,48.5297-1.0938,8.17262,1.1664,36.1487,9.8262,59.1101,2.4318,7.53952-2.4276-3.3679-12.1533,24.8479-10.5963,28.2144,1.557,102.062,5.4482,104.0068-5.4481,1.9463-10.8976-16.0525-12.064,20.1406-12.064,36.1934,0-8.17278,10.8963,27.4374,17.3182,35.60882,6.4206,117.92082-12.8439,119.08849-5.8388,1.1678,7.0066-72.38679,11.6762-27.437,16.3458,44.9492,4.671,99.2406,1.7523,127.2611-9.9238,28.0208-11.6748,46.70213-15.7612,72.38713-9.3407,25.6861,6.422,119.0883.5846,72.9711-12.8425s-42.6154-15.178-30.9406-18.0967c11.6761-2.9186,78.0316,3.5563,45.9233-7.5883-32.107-11.1459-141.91353-20.6163-141.91353-20.6163Z"/><path fill="#ccdcff" d="M242.48467,691.19406s-57.0455-3.114-72.6142,7.619c-15.5672,10.7344,61.2994,5.3825,49.1378,11.7068-12.1631,6.3243-53.0286,9.243-21.4074,11.1892,31.6242,1.9463,136.22259-11.6761,107.03149,0-29.18969,11.6762-26.71179,26.8821,5.0868,21.893,61.98582-9.7257,89.9617,5.2932,101.1509.6055s-3.5842-17.6335,27.0648-20.0653c30.6504-2.4332,82.7054,10.5056,95.8423,3.3065,13.1355-7.199-10.7037-13.0364,31.62282-13.0364,42.32518,0,83.19238-4.032,82.70548,3.8214-.4867,7.8548-63.7326,13.6921-13.6224,17.5846,50.1101,3.8912,109.30449-14.1093,120.81709-14.1093,11.5116,0,36.3246-3.1168,27.5671,5.7397s-25.2985,18.878-9.24427,18.246c16.05547-.6334,69.08437-13.9656,81.73287-18.246,12.65-4.2803,58.86773,4.4771,52.05673-5.7397-6.8114-10.2168-17.0282-14.5948-4.3783-18.0004,12.6486-3.4056,5.8374-9.243-51.56953-8.7575C794.05655,695.43816,242.48467,691.19406,242.48467,691.19406Z"/><path fill="#94b4ff" d="M876.27248,698.81306H235.22287c15.91611-18.952,45.6208-35.8949,85.14-49.4419h.007c11.9063-4.0837,24.7014-7.8562,38.2805-11.2883,55.2179-13.9503,123.3648-22.1887,197.0937-22.1887,72.8235,0,140.1988,8.0347,195.05249,21.6781C810.46785,652.40286,855.32245,673.86186,876.27248,698.81306Z"/><path fill="#80a6ff" d="M421.06036,665.78386c-93.85,4.1227-66.9275-23.5657-62.41-27.701,55.2179-13.9503,123.3648-22.1887,197.0937-22.1887,72.8235,0,140.1988,8.0347,195.05249,21.6781C793.38565,688.79436,522.44706,661.32906,421.06036,665.78386Z"/><path fill="#a3bfff" d="M662.17846,698.81306H235.22287c15.91611-18.952,45.6208-35.8949,85.14-49.4419h.007s-32.14329,33.9681,123.1722,32.2004C587.58736,679.93786,636.39166,681.11116,662.17846,698.81306Z"/><path fill="#3f4883" d="M650.69626,486.50086h-46.5065v-42.9781a7.14215,7.14215,0,0,1,7.1419-7.1418h32.2241a7.14088,7.14088,0,0,1,7.1405,7.1418Zm-43.6882-2.8182h40.87v-37.3416a7.13978,7.13978,0,0,0-7.1405-7.1405h-26.5877a7.14089,7.14089,0,0,0-7.1418,7.1405Z"/><path fill="#f56aae" d="M635.89936,441.40356h-18.3216a3.52374,3.52374,0,0,1-3.5227-3.5228h0a3.524,3.524,0,0,1,3.5227-3.5242h18.3216a3.52312,3.52312,0,0,1,3.52262,3.5242h0A3.52289,3.52289,0,0,1,635.89936,441.40356Z"/><path fill="#3f4883" d="M584.49846,622.79746a7.04626,7.04626,0,1,1,7.0469,7.0469A7.047,7.047,0,0,1,584.49846,622.79746Z"/><path fill="#3f4883" d="M654.44226,621.832a7.0463,7.0463,0,1,1,7.047,7.047A7.046,7.046,0,0,1,654.44226,621.832Z"/><path fill="#f56aae" d="M589.91186,483.68266h73.6549a9.6796,9.6796,0,0,1,9.6796,9.6796v117.3435a9.6794,9.6794,0,0,1-9.6794,9.6794h-73.6551a9.6796,9.6796,0,0,1-9.6796-9.6796V493.36226A9.6796,9.6796,0,0,1,589.91186,483.68266Z"/><path fill="#e05398" d="M663.56666,483.68266h-.4381a9.68953,9.68953,0,0,1,.4116,2.7903v98.3746a28.64828,28.64828,0,0,1-28.6469,28.6483H580.645a9.68062,9.68062,0,0,0,9.26668,6.8893h73.655a9.68013,9.68013,0,0,0,9.6797-9.6796V493.36226A9.68013,9.68013,0,0,0,663.56666,483.68266Z"/><path fill="#f5dfea" d="M608.29156,483.69656c-7.8045,10.8293-17.1968,19.5114-28.0593,25.4102v-7.6106c7.9996-3.9302,14.4579-10.0062,19.673-17.8135h8.371Z"/><path fill="#f5dfea" d="M673.24636,502.24256v7.9775c-11.4153-7.665-20.4825-16.4378-26.5375-26.5374h7.9762A69.69316,69.69316,0,0,0,673.24636,502.24256Z"/><path fill="#f5dfea" d="M609.70066,620.36986l-.0139.0153-8.371-.0014a64.36476,64.36476,0,0,0-21.0835-19.0803v-7.6106C592.38946,601.06356,602.803,609.57266,609.70066,620.36986Z"/><path fill="#f5dfea" d="M643.77766,620.36986l.0139.0153,8.371-.0014c5.51542-8.8593,12.5691-15.1766,21.0838-19.0803v-7.6106C662.06126,598.53126,652.00076,607.42126,643.77766,620.36986Z"/><path fill="#f5dfea" d="M654.925,521.733H601.37156a5.63736,5.63736,0,0,1-5.6379-5.6364h0a5.63774,5.63774,0,0,1,5.6379-5.6379H654.925a5.63718,5.63718,0,0,1,5.63648,5.6379h0A5.6368,5.6368,0,0,1,654.925,521.733Z"/><path fill="#b3caff" d="M1017.50768,278.89606c-.7269-.3809-1.5751-.8246-2.5183-1.3185.0112-.0167,15.6942-20.4043,15.3287-20.435-.3641-.0321-9.01-5.236-9.01-5.236s-12.0375,11.9035-39.3423,8.4254c-10.0686-5.2444-20.933-10.8921-31.0787-16.1379l14.1665-14.0228-9.8844-4.7561-23.5451,8.8662c-10.4303-5.3351-18.1776-9.2178-20.3608-10.1275a66.879,66.879,0,0,0-14.6213-3.5507,74.02454,74.02454,0,0,0-11.0835-.8092c-.0195,0-.0377,0-.0586.0014a36.82208,36.82208,0,0,0-4.0432.2595v-.0014c-3.8604.3014-5.7271.7786-6.8558,3.1992-2.5727,5.5109,24.9151,22.2989,53.7194,36.5142l9.5723,22.3046,15.142,8.4449-3.3334-20.7949c8.5719,3.7376,16.5746,6.8935,23.1682,9.0616.2916.1046.5469.1897.7338.2427a154.47825,154.47825,0,0,0,21.6976,5.2361l13.3462,9.0853-1.3659-7.1154c1.0618.1842,2.1081.3726,3.1322.5735l.0335.0069a8.14555,8.14555,0,0,0,8.1812-3.2786,3.13881,3.13881,0,0,0,.5692-1.5556A3.17233,3.17233,0,0,0,1017.50768,278.89606Z"/><path fill="#3f4883" d="M418.07216,623.52566a6.9743,6.9743,0,1,1,6.9742,6.9745A6.97517,6.97517,0,0,1,418.07216,623.52566Z"/><path fill="#3f4883" d="M493.19736,622.87a6.97445,6.97445,0,1,1,6.9745,6.9744A6.97543,6.97543,0,0,1,493.19736,622.87Z"/><path fill="#3f4883" d="M495.46316,557.66686h-66.9568v-92.1283a9.70209,9.70209,0,0,1,9.702-9.702h47.5528a9.70214,9.70214,0,0,1,9.702,9.702Zm-62.7727-4.1841h58.5886V469.724a9.70243,9.70243,0,0,0-9.7034-9.7019h-39.1818a9.70238,9.70238,0,0,0-9.7034,9.7019Z"/><path fill="#ff876d" d="M423.01076,552.78516h79.3428a9.1512,9.1512,0,0,1,9.1512,9.1512v50.0499a9.1509,9.1509,0,0,1-9.1509,9.1509h-79.3434a9.1506,9.1506,0,0,1-9.1506-9.1506v-50.0505A9.1509,9.1509,0,0,1,423.01076,552.78516Z"/><path fill="#e6735a" d="M503.96806,552.84106a8.43438,8.43438,0,0,1,1.07992,4.1352v30.8164a29.05506,29.05506,0,0,1-29.05442,29.0544h-60.1107a8.75132,8.75132,0,0,1-.9431-.0558,8.47468,8.47468,0,0,0,7.3999,4.3459h80.6841a8.48089,8.48089,0,0,0,8.481-8.4812v-51.3895A8.47828,8.47828,0,0,0,503.96806,552.84106Z"/><path fill="#ff876d" d="M474.10456,462.84446h-25.1088a5.57981,5.57981,0,0,1-5.5807-5.5793h0a5.58092,5.58092,0,0,1,5.5807-5.5806h25.1088a5.58034,5.58034,0,0,1,5.5792,5.5806h0A5.57923,5.57923,0,0,1,474.10456,462.84446Z"/><path fill="#ffe2dc" d="M494.068,566.73406H429.90146a2.09223,2.09223,0,0,1-2.0927-2.0913h0a2.09261,2.09261,0,0,1,2.0927-2.0928H494.068a2.09161,2.09161,0,0,1,2.09278,2.0928h0A2.09122,2.09122,0,0,1,494.068,566.73406Z"/><path fill="#ffe2dc" d="M494.068,577.894H429.90146a2.09253,2.09253,0,0,1-2.0927-2.0927h0a2.09351,2.09351,0,0,1,2.0927-2.0928H494.068a2.0925,2.0925,0,0,1,2.09278,2.0928h0A2.09152,2.09152,0,0,1,494.068,577.894Z"/><path fill="#ffe2dc" d="M494.068,589.054H429.90146a2.09351,2.09351,0,0,1-2.0927-2.0928h0a2.09343,2.09343,0,0,1,2.0927-2.0927H494.068a2.09242,2.09242,0,0,1,2.09278,2.0927h0A2.0925,2.0925,0,0,1,494.068,589.054Z"/><path fill="#ffe2dc" d="M494.068,600.21246H429.90146a2.09223,2.09223,0,0,1-2.0927-2.0913h0a2.09261,2.09261,0,0,1,2.0927-2.0928H494.068a2.09161,2.09161,0,0,1,2.09278,2.0928h0A2.09122,2.09122,0,0,1,494.068,600.21246Z"/><path fill="#ffe2dc" d="M494.068,611.37236H429.90146a2.09253,2.09253,0,0,1-2.0927-2.0927h0a2.09232,2.09232,0,0,1,2.0927-2.0914H494.068a2.09131,2.09131,0,0,1,2.09278,2.0914h0A2.09152,2.09152,0,0,1,494.068,611.37236Z"/><path fill="#f56aae" d="M398.89956,576.67186a.69912.69912,0,0,1-.3237.0363.72842.72842,0,0,1-.6432-.8065l.9281-8.1868a6.993,6.993,0,0,1,3.3969-5.2207l.0614-.0349.0656-.0237,52.7652-18.5655a.73009.73009,0,0,1,.4855,1.3771H455.634l-52.69682,18.5417a5.52068,5.52068,0,0,0-2.6255,4.0906l-.9294,8.1869A.72826.72826,0,0,1,398.89956,576.67186Z"/><path fill="#f56aae" d="M470.56226,554.07856a.73009.73009,0,0,1-.7534-.1661l-5.9002-5.7494a5.52831,5.52831,0,0,0-4.65568-1.4998l-54.41142,14.1246a.73009.73009,0,0,1-.367-1.4133l54.4813-14.1414.0365-.0056a6.98849,6.98849,0,0,1,5.9348,1.8905l5.9001,5.7495a.73071.73071,0,0,1,.014,1.0324A.74063.74063,0,0,1,470.56226,554.07856Z"/><path fill="#f56aae" d="M429.22346,556.21736c2.2058,6.2461-1.64348,13.3001-8.5956,15.7542-6.9535,2.4541-14.3772-.6209-16.5816-6.867s1.6435-13.2988,8.597-15.7529C419.59546,546.89756,427.01906,549.97116,429.22346,556.21736Z"/><path fill="#b85083" d="M427.67486,556.76426a9.57346,9.57346,0,0,1,.31812,1.1119c1.151,5.1803-2.16952,10.6967-7.856,12.7044-.32392.1144-.64622.2148-.97272.2999a12.3079,12.3079,0,0,1-7.28128-.2288,10.36424,10.36424,0,0,1-5.17332-3.8939,9.47679,9.47679,0,0,1-1.11468-2.2001c-.08652-.2442-.16052-.4884-.22742-.7367-1.4005-5.2849,1.9406-11.0218,7.7668-13.0783a13.5212,13.5212,0,0,1,1.3868-.4074,12.67076,12.67076,0,0,1,3.551-.3167,11.413,11.413,0,0,1,6.2922,2.2449A9.66519,9.66519,0,0,1,427.67486,556.76426Z"/><path fill="#bd608e" d="M427.67486,556.76426a9.57346,9.57346,0,0,1,.31812,1.1119l-8.82872,13.0043a12.3079,12.3079,0,0,1-7.28128-.2288l12.48138-18.3882A9.66519,9.66519,0,0,1,427.67486,556.76426Z"/><path fill="#bd608e" d="M418.07216,550.01856l-11.3625,16.7392a9.47679,9.47679,0,0,1-1.11468-2.2001c-.08652-.2442-.16052-.4884-.22742-.7367l9.1536-13.4857A12.67076,12.67076,0,0,1,418.07216,550.01856Z"/><path fill="#f56aae" d="M457.23006,546.33256c2.2043,6.2462-1.6449,13.3001-8.59708,15.7542-6.95352,2.4541-14.37572-.6208-16.58122-6.867-2.2044-6.2461,1.6446-13.2987,8.5967-15.7528C447.602,537.01286,455.02566,540.08636,457.23006,546.33256Z"/><path fill="#b85083" d="M455.68,546.87946a9.0883,9.0883,0,0,1,.31808,1.112c1.151,5.1802-2.1678,10.6967-7.8562,12.7043-.3236.1144-.6457.2149-.971.3a12.31331,12.31331,0,0,1-7.2828-.2288,10.36483,10.36483,0,0,1-5.1716-3.8939,9.44025,9.44025,0,0,1-1.1161-2.2002q-.12807-.36615-.2263-.7366c-1.40208-5.2849,1.9407-11.0232,7.7655-13.0783a13.32684,13.32684,0,0,1,1.3868-.4074,12.6656,12.6656,0,0,1,3.5507-.3167,11.395,11.395,0,0,1,6.2936,2.2448A9.66135,9.66135,0,0,1,455.68,546.87946Z"/><path fill="#bd608e" d="M455.68,546.87946a9.0883,9.0883,0,0,1,.31808,1.112l-8.8272,13.0043a12.31331,12.31331,0,0,1-7.2828-.2288l12.4826-18.3883A9.66135,9.66135,0,0,1,455.68,546.87946Z"/><path fill="#bd608e" d="M446.07706,540.13386l-11.3606,16.7392a9.44025,9.44025,0,0,1-1.1161-2.2002q-.12807-.36615-.2263-.7366l9.1523-13.4857A12.6656,12.6656,0,0,1,446.07706,540.13386Z"/><path fill="#f56aae" d="M430.86836,556.21176a13.3845,13.3845,0,0,1-2.7736.6306l-.18278-1.4468a9.3552,9.3552,0,0,0,4.35568-1.5249l.8511,1.1859A8.91267,8.91267,0,0,1,430.86836,556.21176Z"/><path fill="#3f4883" d="M581.26026,566.38246h-60.9116v-3.2926a29.66657,29.66657,0,0,1,29.6334-29.6333h1.6463a29.66625,29.66625,0,0,1,29.6319,29.6333Zm-54.092-6.5852h47.2724a23.08356,23.08356,0,0,0-22.8123-19.7555h-1.6463A23.08428,23.08428,0,0,0,527.16826,559.79726Z"/><path fill="#d64d77" d="M501.51256,559.79726h96.93752a9.1509,9.1509,0,0,1,9.1509,9.1509v62.3667a9.1509,9.1509,0,0,1-9.1509,9.1509h-96.9375a9.15092,9.15092,0,0,1-9.15092-9.15092V568.94816A9.1509,9.1509,0,0,1,501.51256,559.79726Z"/><path fill="#c73c66" d="M599.89826,559.83636a8.44275,8.44275,0,0,1,1.19572,4.3264v35.0466a37.1414,37.1414,0,0,1-37.14072,37.1407h-69.6188c-.2623,0-.5204-.0167-.7771-.0405a8.47019,8.47019,0,0,0,7.2855,4.1562h98.2783a8.48058,8.48058,0,0,0,8.47982-8.4812v-63.706A8.48,8.48,0,0,0,599.89826,559.83636Z"/><path fill="#f7dbe4" d="M586.19916,579.55286h-74.0819a3.29242,3.29242,0,0,1-3.2926-3.2926h0a3.29242,3.29242,0,0,1,3.2926-3.2926h74.0819a3.29241,3.29241,0,0,1,3.2926,3.2926h0A3.29241,3.29241,0,0,1,586.19916,579.55286Z"/><path fill="#f7dbe4" d="M586.19916,596.01586h-74.0819a3.29242,3.29242,0,0,1-3.2926-3.2926h0a3.29242,3.29242,0,0,1,3.2926-3.2926h74.0819a3.29241,3.29241,0,0,1,3.2926,3.2926h0A3.29241,3.29241,0,0,1,586.19916,596.01586Z"/><path fill="#f7dbe4" d="M586.19916,612.47876h-74.0819a3.29242,3.29242,0,0,1-3.2926-3.2926h0a3.29153,3.29153,0,0,1,3.2926-3.2926h74.0819a3.29152,3.29152,0,0,1,3.2926,3.2926h0A3.29241,3.29241,0,0,1,586.19916,612.47876Z"/><path fill="#f7dbe4" d="M586.19916,628.94176h-74.0819a3.29242,3.29242,0,0,1-3.2926-3.2926h0a3.29153,3.29153,0,0,1,3.2926-3.2926h74.0819a3.29152,3.29152,0,0,1,3.2926,3.2926h0A3.29241,3.29241,0,0,1,586.19916,628.94176Z"/><path fill="#9b8aea" d="M637.10176,574.169c-1.4775,5.8178-24.6889,4.9626-51.8485-1.9282-2.12628-.5385-4.2118-1.0994-6.2476-1.6686l-.0848-.0265c-.70488-.2051-1.3997-.4074-2.0928-.6097-22.9086-6.7093-39.3983-15.4793-38.0757-20.6805.9459-3.7474,10.8474-4.7241,25.0097-3.1308a205.05476,205.05476,0,0,1,26.8318,5.0435,213.90124,213.90124,0,0,1,22.751,7.0694c1.1148.4241,2.1974.8398,3.25212,1.2696C629.80366,564.84506,638.04346,570.43266,637.10176,574.169Z"/><path fill="#8e7be0" d="M637.10176,574.169c-1.4775,5.8178-24.6889,4.9626-51.8485-1.9282-2.12628-.5385-4.2118-1.0994-6.2476-1.6686,14.8155,3.8897,51.0156,8.7868,52.3159,1.6184.7213-3.9748-15.9258-11.2394-15.9258-11.2394l-2.0509-2.7136c1.1148.4241,2.1974.8398,3.25212,1.2696C629.80366,564.84506,638.04346,570.43266,637.10176,574.169Z"/><path fill="#8b77ea" d="M614.90746,564.02746c-.0446.1744-.089.346-.1423.5176a15.76362,15.76362,0,0,1-.8497,2.2811c-7.365-2.9759-17.5302-2.0244-27.2531-4.4883-9.7215-2.4638-17.6838-8.0096-25.5776-8.8997a15.86707,15.86707,0,0,1,.4604-2.9341c2.8406-11.2101,17.9656-20.7279,32.7013-16.9945C608.98076,537.24446,617.74826,552.81586,614.90746,564.02746Z"/><path fill="#725fd1" d="M614.90746,564.02746c2.8408-11.2116-5.9267-26.783-20.661-30.5179-.3739-.0948-.7492-.1744-1.1229-.2525,12.4921,5.1635,19.5977,19.0482,17.0013,29.2957-.0447.1744-.0907.3474-.1423.519a15.7609,15.7609,0,0,1-.7199,1.9672c1.6044.5915,3.1684,1.1873,4.6528,1.7872a15.7026,15.7026,0,0,0,.8497-2.2811C614.81846,564.37346,614.86286,564.20186,614.90746,564.02746Z"/><path fill="#d5cef7" d="M614.76516,564.54506a15.57807,15.57807,0,0,1-.8497,2.2811c-8.9848,1.6867-46.5427-7.5939-52.8307-13.388a15.86707,15.86707,0,0,1,.4604-2.9341C576.26416,559.83636,606.78476,565.10316,614.76516,564.54506Z"/><path fill="#f9a6ce" d="M568.49586,552.48246a46.89677,46.89677,0,0,1,5.9325-.3418c3.344-.0516,3.52262-.3935,4.0471.0042,1.8514,1.4035.9697,6.6716-1.8262,9.628-.5327.5637-2.05228,2.1709-3.6998,1.8793-.5904-.1046-.9378-.4074-2.5101-2.2351-2.5755-2.9968-3.3582-4.1799-3.9009-5.7271-.473-1.3491-.406-1.9588-.1367-2.3732C566.77426,552.74616,567.49556,552.61216,568.49586,552.48246Z"/><path fill="#f092bf" d="M576.64926,560.467a4.04046,4.04046,0,0,1-.8815.5902,4.30134,4.30134,0,0,1-5.281-.8915c-.0153-.0182-.0307-.0363-.0474-.0544-2.5755-2.9969-3.3582-4.18-3.9009-5.7272a7.71661,7.71661,0,0,1-.2483-.8427,3.17451,3.17451,0,0,0,.2483,2.1486c.5427,1.5472,1.3254,2.7303,3.9009,5.7271,1.5723,1.8277,1.9197,2.1305,2.5101,2.2351,1.64752.2916,3.1671-1.3156,3.6998-1.8793a10.57074,10.57074,0,0,0,2.7652-7.5381A10.95232,10.95232,0,0,1,576.64926,560.467Z"/><path fill="#f9a6ce" d="M564.08016,550.58366a46.87212,46.87212,0,0,0-3.8339-4.5399c-2.2644-2.4625-2.1374-2.8266-2.7875-2.934-2.2937-.3781-5.5095,3.8869-5.7314,7.9496-.0418.7757-.1632,2.9843,1.1817,3.9776.4828.3572.9406.4005,3.3498.2833,3.9469-.1926,5.3435-.4381,6.83912-1.1092,1.30448-.5846,1.70208-1.0533,1.81648-1.5333C565.07356,552.01506,564.67456,551.39976,564.08016,550.58366Z"/><path fill="#f56aae" d="M567.54716,554.39806a2.4274,2.4274,0,1,1-1.271-3.188A2.42743,2.42743,0,0,1,567.54716,554.39806Z"/><path fill="#d64d77" d="M752.28805,629.03516c-.0377.0698-.0754.1451-.1144.2149-4.2399,7.3846-12.4739,12.2523-27.9089,12.2523-15.3357,0-23.6467-3.4139-27.91729-12.0695-.0307-.06-.0614-.1214-.0921-.1828-3.8032-7.8897,12.59719-21.3586,28.03169-21.3586C739.58505,607.89146,756.22235,621.39806,752.28805,629.03516Z"/><path fill="#cc416c" d="M752.29365,629.03106c-1.458-.4884-3.0929-.9446-4.8943-1.3561,2.2128-6.7401-9.6769-17.1955-22.557-19.7765C739.97985,608.211,756.175,621.49016,752.29365,629.03106Z"/><path fill="#d64d77" d="M747.39935,627.675a3.93524,3.93524,0,0,1-.3111.7673c-.0335.067-.0779.1451-.1116.2107-4.2371,7.386-12.4798,12.2579-27.9061,12.2579-2.0021,0-3.8814-.0558-5.6504-.1786-8.6414-1.4342-13.94749-4.9612-17.07269-11.3008a1.2383,1.2383,0,0,1-.0893-.1772c-3.80318-7.8967,12.59139-21.367,28.02889-21.367.1883,0,.36693,0,.5553.0112C737.72245,610.47946,749.61215,620.93486,747.39935,627.675Z"/><path fill="#d64d77" d="M703.10985,631.99716s-4.30129.8343-5.92669,2.775c0,0,3.25769.6682,3.98882,2.5768a17.06056,17.06056,0,0,1,2.90467-4.1883Z"/><path fill="#d64d77" d="M700.63505,634.51406s-5.09959.1785-6.97329,4.4087c0,0,4.0295-.5358,4.7645,2.3285,0,0,1.1245-4.685,3.294-5.4328Z"/><path fill="#d64d77" d="M695.66946,637.59316s-3.64,2.8015-2.1416,8.5482a11.94738,11.94738,0,0,0,4.6403-7.2102Z"/><path fill="#d64d77" d="M704.50635,634.29216s-3.1098,2.1737-3.7139,4.2804c0,0,2.8127-.6181,4.0627.6362a14.80123,14.80123,0,0,1,.8246-4.3362Z"/><path fill="#d64d77" d="M703.43355,637.15366s-3.97209,1.9351-3.96649,5.9406c0,0,2.99819-1.8402,4.58869.1661,0,0-.7576-4.1018.6951-5.4551Z"/><path fill="#d64d77" d="M700.58735,641.33636s-1.89459,3.4963,1.3115,7.5158a10.34487,10.34487,0,0,0,1.1359-7.3358Z"/><path fill="#d64d77" d="M708.08225,636.96116s-2.39,2.0174-2.7276,3.792c0,0,2.2616-.7171,3.3819.2177a12.247,12.247,0,0,1,.3516-3.6219Z"/><path fill="#d64d77" d="M707.41675,639.39016s-3.1154,1.8862-2.8113,5.1746c0,0,2.3243-1.7356,3.77953-.2078,0,0-.93063-3.3094.16067-4.5302Z"/><path fill="#d64d77" d="M705.39375,643.03706s-1.2934,3.0122,1.6407,6.0718a8.53242,8.53242,0,0,0,.3811-6.108Z"/><path fill="#d64d77" d="M745.35545,631.99716s4.3027.8343,5.9281,2.775c0,0-3.2591.6682-3.9888,2.5768a17.1013,17.1013,0,0,0-2.90477-4.1883Z"/><path fill="#d64d77" d="M747.83045,634.51406s5.0994.1785,6.9731,4.4087c0,0-4.0293-.5358-4.7645,2.3285,0,0-1.1245-4.685-3.2926-5.4328Z"/><path fill="#d64d77" d="M752.79585,637.59316s3.6414,2.8015,2.1416,8.5482a11.95486,11.95486,0,0,1-4.6403-7.2102Z"/><path fill="#d64d77" d="M743.95885,634.29216s3.1099,2.1737,3.714,4.2804c0,0-2.8127-.6181-4.0614.6362a14.81739,14.81739,0,0,0-.8259-4.3362Z"/><path fill="#d64d77" d="M745.03175,637.15366s3.9721,1.9351,3.9679,5.9406c0,0-2.9996-1.8402-4.58867.1661,0,0,.75777-4.1018-.69623-5.4551Z"/><path fill="#d64d77" d="M747.878,641.33636s1.896,3.4963-1.31153,7.5158a10.35188,10.35188,0,0,1-1.1357-7.3358Z"/><path fill="#d64d77" d="M740.38335,636.96116s2.391,2.0174,2.7273,3.792c0,0-2.2616-.7171-3.3819.2177a12.2,12.2,0,0,0-.3516-3.6219Z"/><path fill="#d64d77" d="M741.05,639.39016s3.11537,1.8862,2.81127,5.1746c0,0-2.3244-1.7356-3.7795-.2078,0,0,.9294-3.3094-.1619-4.5302Z"/><path fill="#d64d77" d="M743.07155,643.03706s1.2933,3.0122-1.6393,6.0718a8.52894,8.52894,0,0,1-.38227-6.108Z"/><path fill="#fff" d="M728.16425,610.51436a5.8018,5.8018,0,1,0,5.8025-5.8025A5.80241,5.80241,0,0,0,728.16425,610.51436Z"/><path fill="#80a6ff" d="M729.49105,610.68036a4.30965,4.30965,0,1,0,4.3096-4.3096A4.30966,4.30966,0,0,0,729.49105,610.68036Z"/><path fill="#000004" d="M730.15375,610.68036a2.65235,2.65235,0,1,0,2.65223-2.6522A2.65206,2.65206,0,0,0,730.15375,610.68036Z"/><path fill="#fff" d="M730.81645,608.52486a1.16077,1.16077,0,1,0,1.1608-1.1594A1.15989,1.15989,0,0,0,730.81645,608.52486Z"/><path fill="#fff" d="M734.33085,610.08326a.39764.39764,0,1,0,.5567-.0795A.39805.39805,0,0,0,734.33085,610.08326Z"/><path fill="#fff" d="M720.41405,610.51436a5.80165,5.80165,0,1,1-5.80107-5.8025A5.80211,5.80211,0,0,1,720.41405,610.51436Z"/><path fill="#80a6ff" d="M719.08865,610.68036a4.31034,4.31034,0,1,1-4.311-4.3096A4.31,4.31,0,0,1,719.08865,610.68036Z"/><path fill="#000004" d="M718.42455,610.68036a2.6522,2.6522,0,1,1-2.6519-2.6522A2.6518,2.6518,0,0,1,718.42455,610.68036Z"/><path fill="#fff" d="M717.76185,608.52486a1.16005,1.16005,0,1,1-1.1608-1.1594A1.15989,1.15989,0,0,1,717.76185,608.52486Z"/><path fill="#fff" d="M714.24745,610.08326a.39764.39764,0,1,1-.5567-.0795A.39692.39692,0,0,1,714.24745,610.08326Z"/><path fill="#d64d77" d="M742.53865,598.48666s-8.4143-3.6553-1.9739,4.7436c6.4426,8.4016,13.1547-.7367,8.88723-8.3445C745.33735,587.55,739.64645,588.68976,742.53865,598.48666Z"/><path fill="#d64d77" d="M741.66945,628.42966l-1.3352-1.8667c11.8589-8.4784,5.423-23.5155,5.356-23.6662l2.1026-.925C747.86675,602.13916,755.02955,618.87836,741.66945,628.42966Z"/><path fill="#d64d77" d="M706.09685,598.48666s8.4157-3.6553,1.9745,4.7436c-6.4432,8.4016-13.15529-.7367-8.88729-8.3445C703.29815,587.55,708.99045,588.68976,706.09685,598.48666Z"/><path fill="#d64d77" d="M706.96605,628.42966l1.3352-1.8667c-11.85889-8.4784-5.423-23.5155-5.356-23.6662l-2.1026-.925C700.76875,602.13916,693.60736,618.87836,706.96605,628.42966Z"/><path fill="#fff" d="M727.468,622.89086a3.59966,3.59966,0,0,1-2.436,1.211,3.53628,3.53628,0,0,1-2.3243-.8747,4.80457,4.80457,0,0,1-1.69377-4.0293,12.24265,12.24265,0,0,1,7.63717-.5218A4.79259,4.79259,0,0,1,727.468,622.89086Z"/><path fill="#f56aae" d="M727.468,622.89086a3.59966,3.59966,0,0,1-2.436,1.211,3.53628,3.53628,0,0,1-2.3243-.8747,1.86918,1.86918,0,0,1,1.0463-1.0938,1.83527,1.83527,0,0,1,1.285-.0028,1.74192,1.74192,0,0,1,1.5305-.1563A1.67778,1.67778,0,0,1,727.468,622.89086Z"/><path fill="#e0678c" d="M717.73535,620.51216a2.67321,2.67321,0,1,1-2.59637-2.037A2.36839,2.36839,0,0,1,717.73535,620.51216Z"/><path fill="#e0678c" d="M737.21745,620.335a2.67172,2.67172,0,1,1-2.5961-2.0383A2.36831,2.36831,0,0,1,737.21745,620.335Z"/><path fill="#e09fb3" d="M752.29365,629.03106c-.04467.0781-.0782.1451-.1228.2232-4.2371,7.3846-12.4686,12.2454-27.9061,12.2454a66.77922,66.77922,0,0,1-10.8446-.7674c1.769.1228,3.6483.1786,5.6504.1786,15.4263,0,23.669-4.8719,27.9061-12.2579.0337-.0656.0781-.1437.1116-.2107a3.93524,3.93524,0,0,0,.3111-.7673C749.20075,628.08646,750.83565,628.54266,752.29365,629.03106Z"/><path fill="#efb8c9" d="M747.39935,627.675a3.93524,3.93524,0,0,1-.3111.7673c-.0335.067-.0779.1451-.1116.2107-4.2371,7.386-12.4798,12.2579-27.9061,12.2579-2.0021,0-3.8814-.0558-5.6504-.1786-8.6414-1.4342-13.94749-4.9612-17.07269-11.3008,6.26152-2.3913,16.70569-3.9595,28.52839-3.9595A105.73585,105.73585,0,0,1,747.39935,627.675Z"/><path fill="#d64d77" d="M801.12165,646.09946c-.02367.0419-.0461.0879-.0698.1284-2.5378,4.4213-7.46687,7.3358-16.7085,7.3358-9.1802,0-14.1567-2.044-16.71237-7.2256l-.05583-.1102c-2.27717-4.7227,7.542-12.7867,16.7822-12.7867C793.51515,633.44116,803.47665,641.52756,801.12165,646.09946Z"/><path fill="#cc416c" d="M801.12445,646.09806c-.8734-.293-1.8512-.5664-2.9299-.8134,1.324-4.0348-5.7941-10.2935-13.5038-11.8379C793.75235,633.63226,803.44735,641.58336,801.12445,646.09806Z"/><path fill="#d64d77" d="M798.19455,645.28466a2.33646,2.33646,0,0,1-.1869.4604c-.0196.0391-.0458.0865-.067.1256-2.5364,4.4213-7.4709,7.3386-16.7069,7.3386-1.1987,0-2.3232-.0335-3.3821-.1074-5.1733-.8581-8.3501-2.969-10.22067-6.7652a.6676.6676,0,0,1-.05333-.106c-2.2783-4.7283,7.5367-12.7909,16.7797-12.7909.1132,0,.219,0,.3334.007C792.40045,634.99116,799.51855,641.24986,798.19455,645.28466Z"/><path fill="#d64d77" d="M771.67945,647.87276s-2.57547.4994-3.5493,1.6616c0,0,1.9504.4004,2.38883,1.5431a10.24338,10.24338,0,0,1,1.73807-2.5085Z"/><path fill="#d64d77" d="M770.19805,649.37946s-3.0529.1075-4.1746,2.6397c0,0,2.4108-.3209,2.8517,1.3938,0,0,.6739-2.8043,1.9714-3.2522Z"/><path fill="#d64d77" d="M767.22465,651.22256a4.83266,4.83266,0,0,0-1.2819,5.1174,7.14738,7.14738,0,0,0,2.7775-4.3152Z"/><path fill="#d64d77" d="M772.51515,649.247a6.58686,6.58686,0,0,0-2.2239,2.5615s1.684-.3683,2.4332.3823a8.85533,8.85533,0,0,1,.4939-2.5964Z"/><path fill="#d64d77" d="M771.87335,650.96026a4.32629,4.32629,0,0,0-2.376,3.5563s1.79563-1.1022,2.7471.1004c0,0-.4534-2.4569.4172-3.2661Z"/><path fill="#d64d77" d="M770.16845,653.46316a4.18538,4.18538,0,0,0,.78553,4.5008,6.19677,6.19677,0,0,0,.68107-4.392Z"/><path fill="#d64d77" d="M774.65535,650.84446a5.42394,5.42394,0,0,0-1.63237,2.2699s1.35467-.4297,2.02437.1312a7.31053,7.31053,0,0,1,.2107-2.1681Z"/><path fill="#d64d77" d="M774.258,652.29956a3.56706,3.56706,0,0,0-1.68423,3.0973s1.3924-1.0394,2.2629-.1242c0,0-.5566-1.9811.09633-2.7122Z"/><path fill="#d64d77" d="M773.04665,654.48166a3.44956,3.44956,0,0,0,.9822,3.6358,5.10882,5.10882,0,0,0,.2275-3.6568Z"/><path fill="#d64d77" d="M796.97125,647.87276s2.5752.4994,3.54773,1.6616c0,0-1.95053.4004-2.38723,1.5431a10.26517,10.26517,0,0,0-1.7397-2.5085Z"/><path fill="#d64d77" d="M798.45265,649.37946s3.0529.1075,4.1744,2.6397c0,0-2.4123-.3209-2.8532,1.3938,0,0-.6724-2.8043-1.9713-3.2522Z"/><path fill="#d64d77" d="M801.42435,651.22256a4.83,4.83,0,0,1,1.2822,5.1174,7.15252,7.15252,0,0,1-2.7775-4.3152Z"/><path fill="#d64d77" d="M796.13415,649.247a6.57527,6.57527,0,0,1,2.2236,2.5615s-1.6839-.3683-2.4317.3823a8.85533,8.85533,0,0,0-.4939-2.5964Z"/><path fill="#d64d77" d="M796.77705,650.96026a4.32578,4.32578,0,0,1,2.3746,3.5563s-1.7956-1.1022-2.7471.1004c0,0,.45343-2.4569-.4157-3.2661Z"/><path fill="#d64d77" d="M798.48055,653.46316a4.18517,4.18517,0,0,1-.7855,4.5008,6.19977,6.19977,0,0,1-.6794-4.392Z"/><path fill="#d64d77" d="M793.99375,650.84446a5.42052,5.42052,0,0,1,1.6337,2.2699s-1.3547-.4297-2.0258.1312a7.31181,7.31181,0,0,0-.2106-2.1681Z"/><path fill="#d64d77" d="M794.39275,652.29956a3.56419,3.56419,0,0,1,1.6826,3.0973s-1.391-1.0394-2.263-.1242c0,0,.5567-1.9811-.0963-2.7122Z"/><path fill="#d64d77" d="M795.60405,654.48166a3.45006,3.45006,0,0,1-.9825,3.6358,5.10455,5.10455,0,0,1-.2288-3.6568Z"/><path fill="#fff" d="M786.67885,635.01206a3.47325,3.47325,0,1,0,3.4726-3.4739A3.47311,3.47311,0,0,0,786.67885,635.01206Z"/><path fill="#80a6ff" d="M787.47275,635.11116a2.58035,2.58035,0,1,0,2.5796-2.5797A2.5801,2.5801,0,0,0,787.47275,635.11116Z"/><path fill="#000004" d="M787.869,635.11116a1.58839,1.58839,0,1,0,1.58767-1.5877A1.58769,1.58769,0,0,0,787.869,635.11116Z"/><circle cx="788.961" cy="633.821" r=".695" fill="#fff"/><path fill="#fff" d="M790.37045,634.754a.23816.23816,0,1,0,.33353-.0474A.23834.23834,0,0,0,790.37045,634.754Z"/><path fill="#fff" d="M782.03855,635.01206a3.47325,3.47325,0,1,1-3.47257-3.4739A3.4731,3.4731,0,0,1,782.03855,635.01206Z"/><path fill="#80a6ff" d="M781.24465,635.11116a2.58034,2.58034,0,1,1-2.5796-2.5797A2.57978,2.57978,0,0,1,781.24465,635.11116Z"/><path fill="#000004" d="M780.84845,635.11116a1.5884,1.5884,0,1,1-1.5891-1.5877A1.588,1.588,0,0,1,780.84845,635.11116Z"/><circle cx="779.756" cy="633.821" r=".695" fill="#fff"/><path fill="#fff" d="M778.347,634.754a.23817.23817,0,1,1-.33353-.0474A.23836.23836,0,0,1,778.347,634.754Z"/><path fill="#d64d77" d="M795.28425,627.81026s-5.0377-2.1876-1.1817,2.8405c3.8562,5.0296,7.8757-.4408,5.3198-4.996C796.95985,621.26416,793.55315,621.94636,795.28425,627.81026Z"/><path fill="#d64d77" d="M794.76385,645.73816l-.7994-1.119c7.1-5.0756,3.24653-14.0772,3.20753-14.1679l1.257-.5538C798.47355,629.99786,802.76235,640.01936,794.76385,645.73816Z"/><path fill="#d64d77" d="M773.468,627.81026s5.0365-2.1876,1.1817,2.8405c-3.8576,5.0296-7.8757-.4408-5.3212-4.996C771.79245,621.26416,775.19945,621.94636,773.468,627.81026Z"/><path fill="#d64d77" d="M773.98845,645.73816l.798-1.119c-7.0986-5.0756-3.24647-14.0772-3.2061-14.1679l-1.25837-.5538C770.27725,629.99786,765.99,640.01936,773.98845,645.73816Z"/><path fill="#fff" d="M786.26175,642.42186a2.154,2.154,0,0,1-1.458.724,2.11149,2.11149,0,0,1-1.391-.5231,2.87951,2.87951,0,0,1-1.0156-2.4123,7.32209,7.32209,0,0,1,4.5733-.3125A2.869,2.869,0,0,1,786.26175,642.42186Z"/><path fill="#f56aae" d="M786.26175,642.42186a2.154,2.154,0,0,1-1.458.724,2.11149,2.11149,0,0,1-1.391-.5231,1.11643,1.11643,0,0,1,.6253-.6558,1.10342,1.10342,0,0,1,.76993-.0014,1.04641,1.04641,0,0,1,.91657-.0934A1.00648,1.00648,0,0,1,786.26175,642.42186Z"/><path fill="#e0678c" d="M780.43415,640.99736a1.60023,1.60023,0,1,1-1.5543-1.2194A1.4177,1.4177,0,0,1,780.43415,640.99736Z"/><path fill="#e0678c" d="M792.09905,640.89136a1.59952,1.59952,0,1,1-1.5542-1.2208A1.41759,1.41759,0,0,1,792.09905,640.89136Z"/><path fill="#e09fb3" d="M801.12445,646.09806c-.0279.0461-.04747.0865-.074.1326-2.5364,4.4212-7.4641,7.3316-16.7071,7.3316a39.89606,39.89606,0,0,1-6.4917-.4604c1.0589.0739,2.1834.1074,3.3821.1074,9.236,0,14.1705-2.9173,16.7069-7.3386.0212-.0391.0474-.0865.067-.1256a2.33646,2.33646,0,0,0,.1869-.4604C799.27325,645.53166,800.25105,645.80506,801.12445,646.09806Z"/><path fill="#efb8c9" d="M798.19455,645.28466a2.33646,2.33646,0,0,1-.1869.4604c-.0196.0391-.0458.0865-.067.1256-2.5364,4.4213-7.4709,7.3386-16.7069,7.3386-1.1987,0-2.3232-.0335-3.3821-.1074-5.1733-.8581-8.3501-2.969-10.22067-6.7652,3.74847-1.4314,10.00167-2.3704,17.07927-2.3704A63.35062,63.35062,0,0,1,798.19455,645.28466Z"/><path fill="#f56aae" d="M378.97956,638.98966l-8.84,6.4373a1.51854,1.51854,0,0,1-2.3941-.9919l-.565-3.5968a1.51627,1.51627,0,0,1,.6069-1.4621l6.1192-4.4561a1.51892,1.51892,0,0,1,1.5639-.1354l3.2843,1.6156A1.518,1.518,0,0,1,378.97956,638.98966Z"/><path fill="#f9a6ce" d="M372.47366,639.32876s-1.68668.8552-4.2622,2.0132c-8.0682,3.6246-24.8644,10.1973-25.9473,2.6578a3.7869,3.7869,0,0,1,1.2584-3.5507c2.6355-2.3746,8.8412-2.8238,14.83342-2.6076,3.30238.12,6.542.4409,9.07978.752,2.8294.3516,4.7924.692,5.0184.7339l.00282-.0014.00978.0028.0027-.0014Z"/><path fill="#f08bbc" d="M372.46946,639.32736l-.0027.0014-.00978-.0028-.00282.0014c-.0963-.0182-.5288-.0935-1.1971-.1981-.7478.3613-1.8583.8887-3.2353,1.5081-7.7321,3.474-23.4723,9.6462-25.7241,3.5186,1.3031,7.28,17.9055.7841,25.9138-2.814,2.57552-1.158,4.2622-2.0132,4.2622-2.0132Z"/><path fill="#f9a6ce" d="M375.96716,635.60226c-1.7481,1.9435-3.0679,3.2996-3.393,3.6302l-.0084.0098-.0697.0697.0041-.0293c.0014-.0195.0059-.0446.0112-.0795l.0042-.0293.00142-.0042c.003-.0251.00558-.0572.01108-.0921.09492-.6389.3826-2.5392.87092-5.063.47128-2.4276,1.12558-5.4286,1.97388-8.4394,1.6309-5.808,3.9734-11.6496,7.0595-13.4577a3.7783,3.7783,0,0,1,3.7851-.1228C392.97006,615.29426,381.95526,628.93056,375.96716,635.60226Z"/><path fill="#f9a6ce" d="M373.14056,635.39436c-.332,1.8221-.5357,3.1684-.6125,3.6832-.0055.0349-.00808.067-.01108.0921l-.00142.0042-.0042.0293c-.0053.0349-.0098.06-.0112.0795l-.0041.0293.0697-.0697.0084-.0098c.0683-.0697.1897-.1939.34182-.3516C372.94386,638.30326,373.00946,637.06016,373.14056,635.39436Z"/><path fill="#f08bbc" d="M386.21746,611.99466a4.64448,4.64448,0,0,0-.9152-.3335c3.8883,4.1841-4.4994,16.9527-9.3211,23.5504-.5637.7702-1.0754,1.4552-1.5166,2.0342q.67185-.72405,1.5026-1.6435C381.95526,628.93056,392.97006,615.29426,386.21746,611.99466Z"/><path fill="#f56aae" d="M382.43236,612.11746c-.0486,6.4066-4.6012,16.6192-7.5325,22.5403-1.1635,2.3494-2.0704,4.0236-2.3411,4.5189a.30086.30086,0,0,0-.0237.0433c-.01508.0265-.0279.046-.0349.0627-.0111.0196-.0195.0335-.0237.0391l-.0014.0028-.0028-.0028c-.0014-.0181-.0097-.0712-.0209-.1577-.0151-.1199-.0391-.3027-.067-.5483l-.0039-.0083c-.11048-.8957-.303-2.5741-.4858-4.7143a105.694,105.694,0,0,1-.37668-13.5694c.27908-5.808,1.31848-11.1864,3.98048-13.1648a4.13668,4.13668,0,0,1,3.3556-.7157C381.477,606.92326,382.45356,609.09686,382.43236,612.11746Z"/><path fill="#e6519a" d="M379.96856,606.81156a6.50631,6.50631,0,0,1,1.3337,4.4018c.0586,6.408-4.3194,16.6945-7.1516,22.6645-.7936,1.6756-1.46068,2.9996-1.8779,3.8143.0405.3586.07822.6683.1077.9153l.0039.0083c.0279.2456.0519.4284.067.5483.0112.0865.0195.1396.0209.1577l.0028.0028.0014-.0028c.0042-.0056.0126-.0195.0237-.0391.007-.0167.01982-.0362.03382-.0627.00668-.0112.01388-.028.02478-.0433.2707-.4953,1.1776-2.1695,2.3411-4.5189,2.9313-5.9211,7.4839-16.1337,7.5325-22.5403C382.45056,609.57686,381.74736,607.65006,379.96856,606.81156Z"/><path fill="#f56aae" d="M372.47366,639.32736s-31.7609-15.3343-33.2551-4.0265C337.776,646.22086,372.47366,639.32736,372.47366,639.32736Z"/><path fill="#e6519a" d="M339.20736,635.63716c-.6613,10.4233,33.2663,3.6902,33.2663,3.6902s-.4199-.2023-1.1384-.5316C365.63316,639.82266,340.071,643.951,339.20736,635.63716Z"/><path fill="#f9a6ce" d="M375.49846,607.159c1.5151,4.3767.9236,11.8031-.1256,18.4162-.4995,3.174-1.10888,6.1611-1.6365,8.5315-.5651,2.542-1.038,4.378-1.20238,4.9933-.00732.0279-.01282.0516-.017.0697l-.00142.0042a.10276.10276,0,0,0-.007.0279c-.0181.0614-.0293.1033-.0321.12l-.0014.0028-.0028-.0028c-.0081-.0167-.0348-.0837-.0795-.1981-.22878-.5874-.932-2.4095-1.79978-4.9431-.61522-1.7844-1.31142-3.9218-1.98112-6.2294-2.4025-8.2259-4.5036-18.5934-1.4677-22.7566a4.44066,4.44066,0,0,1,3.4963-1.843C373.12386,603.19676,374.64456,604.69656,375.49846,607.159Z"/><path fill="#f08bbc" d="M375.49846,607.159c-.7741-2.2308-2.104-3.6581-4.1923-3.7934a5.7201,5.7201,0,0,1,2.5432,3.2256c1.6574,4.325,1.30862,11.7668.4771,18.4106-.3962,3.1894-.9068,6.1946-1.3561,8.5817-.399,2.1206-.7492,3.7432-.9403,4.5943.1618.4269.2888.7575.3627.9459.0447.1144.0714.1814.0795.1981l.0028.0028.0014-.0028c.0028-.0167.014-.0586.0321-.12a.10276.10276,0,0,1,.007-.0279l.00142-.0042c.00418-.0195.00968-.0418.017-.0697.16438-.6153.63728-2.4513,1.20238-4.9933.52762-2.3704,1.137-5.3575,1.6365-8.5315C376.42206,618.96206,377.01356,611.53706,375.49846,607.159Z"/><path fill="#f9a6ce" d="M372.47366,639.32736s-29.1938-24.2103-33.67368-12.7923C334.47386,637.56106,372.47366,639.32736,372.47366,639.32736Z"/><path fill="#f08bbc" d="M370.42136,637.68946c-6.4456-.4409-28.965-2.4779-31.9451-9.4258.074,9.4816,33.9974,11.0637,33.9974,11.0637S371.70916,638.694,370.42136,637.68946Z"/><path fill="#f56aae" d="M367.14416,605.19456c2.30482,3.3261,3.62182,9.1886,4.37382,15.1292a134.63084,134.63084,0,0,1,.93618,13.5596c.05582,2.4555.0379,4.2818.0279,5.0478-.0014.1018-.0028.1869-.0039.2469-.0045.0781-.0031.127-.0059.1437l.0028.0028-.0014.0042s-.0823-.1088-.2371-.3167c-.3642-.4897-1.1257-1.5305-2.1235-2.962-.2553-.3613-.5229-.7492-.802-1.158-4.6782-6.8391-12.819-19.9327-12.1144-27.2936a5.24065,5.24065,0,0,1,3.7446-4.897C363.553,601.83646,365.57876,602.92606,367.14416,605.19456Z"/><path fill="#e6519a" d="M365.68066,605.26156c2.5196,3.167,4.22032,8.9305,5.3616,14.8083.452,2.3174.812,4.6473,1.1022,6.8475-.1437-2.1235-.3432-4.3599-.62648-6.5936-.752-5.9392-2.069-11.8031-4.37382-15.1292-1.5654-2.2671-3.59118-3.3581-6.2029-2.4931-.1228.0404-.2288.0949-.3446.1395C362.58056,602.53126,364.26456,603.473,365.68066,605.26156Z"/><path fill="#f56aae" d="M370.67836,635.85476c-.279-.3446-.572-.7143-.8778-1.1036-1.3087-1.6658-2.8713-3.7278-4.4673-5.995,1.41472,2.3132,2.8043,4.4213,3.9778,6.1359.2791.4088.5467.7967.802,1.158.9978,1.4315,1.7593,2.4723,2.1235,2.962.1548.2079.2371.3167.2371.3167l.0014-.0042-.0028-.0028c.0028-.0167.0014-.0656.0059-.1423.0011-.0614.0025-.1465.0039-.2483.0028-.2079.0056-.5009.0084-.8567C372.04256,637.53876,371.42876,636.79376,370.67836,635.85476Z"/><path fill="#f56aae" d="M372.47366,639.32876s-23.0886-33.7365-31.1596-22.7063C333.51926,627.27306,372.47366,639.32876,372.47366,639.32876Z"/><path fill="#e6519a" d="M341.99076,615.85506a6.21986,6.21986,0,0,0-.6767.7674c-7.7948,10.6506,31.1596,22.7049,31.1596,22.7049s-.1981-.2874-.5566-.7939C366.508,636.48956,337.56386,625.05336,341.99076,615.85506Z"/><path fill="#f9a6ce" d="M368.61186,627.95116c.89012,2.2602,1.65612,4.3655,2.2699,6.1304.7227,2.0774,1.2376,3.686,1.4987,4.5259l.0039.0083c.0391.1214.0698.2275.0977.3154.0167.0558.0307.106.046.1464l.00592.0224c.00948.0307.01648.0558.02478.0767.007.0251.0126.0433.0154.0558l.0056.0181a.05927.05927,0,0,1-.014-.0083l-.0307-.0223-.0237-.0168-.0028-.0014a.142.142,0,0,1-.0304-.0237.09517.09517,0,0,1-.0268-.014c-.0151-.0111-.0363-.0251-.0586-.0404-.0335-.0237-.0739-.0544-.12-.0879a.23837.23837,0,0,1-.0362-.0237c-.2972-.2079-.7785-.5483-1.4047-1.0004-.7034-.5106-1.5936-1.1663-2.6134-1.9378-.6502-.4911-1.35748-1.0325-2.0956-1.6143-6.4205-5.0212-15.7416-13.1006-18.8542-19.8155-1.6045-3.4572-1.5626-6.5531,1.3661-8.6849,2.8654-2.0872,5.7869-1.0659,8.5619,1.6393C361.67786,611.96956,365.77826,620.74656,368.61186,627.95116Z"/><path fill="#f08bbc" d="M372.57416,639.23246c-.0028-.0125-.0084-.0307-.0154-.0558-.0083-.0209-.0153-.046-.02478-.0767l-.00592-.0224c-.0153-.0404-.0293-.0906-.046-.1464-.0279-.0879-.0586-.194-.0977-.3154l-.0039-.0083c-.2611-.8399-.776-2.4485-1.4987-4.5259-.61378-1.7649-1.37978-3.8702-2.2699-6.1304-2.8336-7.2046-6.934-15.9816-11.4152-20.3527-2.775-2.7052-5.6965-3.7265-8.5619-1.6393a7.06319,7.06319,0,0,0-.702.6125c2.3955-1.1301,4.9109-.1786,7.3818,2.0034,4.6919,4.1437,9.2192,12.7086,12.40442,19.764,1.00028,2.2127,1.87118,4.2775,2.56988,6.0117.8245,2.0384,1.4175,3.6205,1.7202,4.445l.0042.0098c.0098.0251.0154.0432.02372.067.07118.0502.14238.099.19958.1395a.23837.23837,0,0,0,.0362.0237c.0461.0335.0865.0642.12.0879.0223.0153.0435.0293.0586.0404a.15869.15869,0,0,0,.0268.0154.19488.19488,0,0,0,.0304.0223l.0028.0014.02262.0168.03178.0223a.05927.05927,0,0,0,.014.0083Z"/><path fill="#f9a6ce" d="M375.97136,635.60506c-1.7481,1.9448-3.0666,3.2995-3.393,3.6316l.0055.0181-.01388-.0097-.06982.0697.0059-.0293c-.0128.0196-.0212.0335-.024.0391l-.0028.0028-.0011.0042s-1.687.8566-4.2625,2.0132a4.753,4.753,0,0,1-.5581-1.1943,4.67383,4.67383,0,0,1-.212-1.1887c-.007-.1227-.007-.2427-.00558-.3641a4.7915,4.7915,0,0,1,.11718-.9389,4.32606,4.32606,0,0,1,.1297-.466,4.76923,4.76923,0,0,1,.536-1.1162.15335.15335,0,0,1,.0305-.0446,4.67346,4.67346,0,0,1,1.0198-1.1022.24561.24561,0,0,1,.0419-.0349c.03492-.0293.0753-.0586.1116-.0851a4.8242,4.8242,0,0,1,1.1705-.6264c.0952-.0349.1912-.0684.28882-.0977a4.88,4.88,0,0,1,1.01288-.1897,4.43131,4.43131,0,0,1,.5595-.0084,4.79574,4.79574,0,0,1,.9445.1312c.113.0265.226.0572.3376.0921a4.80622,4.80622,0,0,1,2.2309,1.4942Z"/><path fill="#84a6f5" d="M833.48385,686.80766c0,1.4021-1.7858,2.5392-3.9901,2.5392-2.203,0-3.98877-1.1371-3.98877-2.5392s1.78577-2.5392,3.98877-2.5392C831.69805,684.26846,833.48385,685.40546,833.48385,686.80766Z"/><path fill="#84a6f5" d="M283.14567,682.59566c0,1.4035-1.7858,2.5392-3.989,2.5392-2.2044,0-3.9902-1.1357-3.9902-2.5392,0-1.4022,1.7858-2.5378,3.9902-2.5378C281.35987,680.05786,283.14567,681.19346,283.14567,682.59566Z"/><path fill="#84a6f5" d="M801.65455,682.66256c0,.8092-1.0505,1.4649-2.34657,1.4649-1.29623,0-2.34673-.6557-2.34673-1.4649s1.0505-1.4663,2.34673-1.4663C800.60405,681.19626,801.65455,681.85336,801.65455,682.66256Z"/><path fill="#84a6f5" d="M757.15155,669.21736c0,.8092-1.0519,1.4649-2.348,1.4649s-2.3467-.6557-2.3467-1.4649,1.0506-1.4663,2.3467-1.4663S757.15155,668.40816,757.15155,669.21736Z"/><path fill="#84a6f5" d="M818.65745,668.86016c0,1.5989-1.8514,2.8964-4.135,2.8964-2.2828,0-4.1341-1.2975-4.1341-2.8964,0-1.6002,1.8513-2.8963,4.1341-2.8963C816.80605,665.96386,818.65745,667.26,818.65745,668.86016Z"/><path fill="#84a6f5" d="M307.61246,666.321c0,1.5989-1.8512,2.8964-4.13529,2.8964-2.2839,0-4.1336-1.2975-4.1336-2.8964s1.8497-2.8963,4.1336-2.8963C305.76126,663.42466,307.61246,664.72216,307.61246,666.321Z"/><path fill="#84a6f5" d="M393.99156,679.99366c0,.8817-1.0787,1.596-2.4083,1.596s-2.4066-.7143-2.4066-1.596,1.077-1.5961,2.4066-1.5961S393.99156,679.11186,393.99156,679.99366Z"/><path fill="#84a6f5" d="M312.42716,681.58966c0,.8804-1.0785,1.5961-2.4081,1.5961s-2.4066-.7157-2.4066-1.5961c0-.8817,1.077-1.596,2.4066-1.596S312.42716,680.708,312.42716,681.58966Z"/><path fill="#84a6f5" d="M403.11716,690.29976c0,1.8625-2.5811,3.3735-5.7663,3.3735s-5.7676-1.511-5.7676-3.3735,2.5825-3.3722,5.7676-3.3722S403.11716,688.43716,403.11716,690.29976Z"/><path fill="#84a6f5" d="M480.15256,683.243c0,1.1538-2.0383,2.0886-4.5524,2.0886s-4.5524-.9348-4.5524-2.0886,2.0383-2.0885,4.5524-2.0885S480.15256,682.08916,480.15256,683.243Z"/><path fill="#84a6f5" d="M677.79736,682.59566c0,1.1538-2.0381,2.0885-4.551,2.0885-2.5141,0-4.5525-.9347-4.5525-2.0885,0-1.1525,2.0384-2.0886,4.5525-2.0886C675.75926,680.50706,677.79736,681.44316,677.79736,682.59566Z"/><path fill="#84a6f5" d="M501.69536,675.67276c0,.872-1.09238,1.5808-2.4402,1.5808s-2.4387-.7088-2.4387-1.5808c0-.8733,1.091-1.5807,2.4387-1.5807S501.69536,674.79946,501.69536,675.67276Z"/><path fill="#84a6f5" d="M696.102,686.92756c0,.872-1.09252,1.5794-2.44022,1.5794s-2.4401-.7074-2.4401-1.5794c0-.8733,1.0924-1.5807,2.4401-1.5807S696.102,686.05426,696.102,686.92756Z"/><path fill="#84a6f5" d="M659.32256,688.507c0,.8733-1.0924,1.5807-2.4399,1.5807-1.348,0-2.4404-.7074-2.4404-1.5807,0-.872,1.0924-1.5794,2.4404-1.5794C658.23016,686.92756,659.32256,687.635,659.32256,688.507Z"/><path fill="#84a6f5" d="M473.91336,672.90476c0,.4353-.7785.7897-1.7397.7897-.96268,0-1.7409-.3544-1.7409-.7897,0-.4367.77822-.791,1.7409-.791C473.13486,672.11376,473.91336,672.46806,473.91336,672.90476Z"/><path fill="#84a6f5" d="M495.29846,687.94186c0,.6279-.7799,1.1357-1.7411,1.1357s-1.7412-.5078-1.7412-1.1357c0-.6264.7799-1.1342,1.7412-1.1342S495.29846,687.31546,495.29846,687.94186Z"/><path fill="#84a6f5" d="M670.27626,674.09206c0,.6265-.7801,1.1343-1.7414,1.1343s-1.7398-.5078-1.7398-1.1343.7785-1.1342,1.7398-1.1342S670.27626,673.46566,670.27626,674.09206Z"/><path fill="#84a6f5" d="M353.35716,661.611c0,1.0017-1.6003,1.8137-3.573,1.8137-1.97418,0-3.5745-.812-3.5745-1.8137,0-1.0004,1.60032-1.8124,3.5745-1.8124C351.75686,659.79856,353.35716,660.61056,353.35716,661.611Z"/><path fill="#ebf1ff" d="M156.13507,764.637c0,3.4237-9.1467,6.2001-20.428,6.2001-11.2827,0-20.4294-2.7764-20.4294-6.2001,0-3.4251,9.1467-6.2015,20.4294-6.2015C146.98837,758.43546,156.13507,761.21186,156.13507,764.637Z"/><ellipse cx="579.006" cy="770.837" fill="#ebf1ff" rx="20.428" ry="6.2"/><path fill="#ebf1ff" d="M891.01078,772.84746c0,3.4252-9.1467,6.2002-20.4294,6.2002-11.28133,0-20.428-2.775-20.428-6.2002,0-3.4237,9.1467-6.2001,20.428-6.2001C881.86408,766.64736,891.01078,769.42376,891.01078,772.84746Z"/><path fill="#ebf1ff" d="M182.47307,768.39276c0,2.076-3.83809,3.7572-8.5705,3.7572-4.7338,0-8.5705-1.6812-8.5705-3.7572,0-2.0746,3.8367-3.7558,8.5705-3.7558C178.635,764.637,182.47307,766.31816,182.47307,768.39276Z"/><path fill="#ebf1ff" d="M497.29356,770.83706c0,2.0746-3.8381,3.7572-8.5702,3.7572-4.7341,0-8.5708-1.6826-8.5708-3.7572,0-2.076,3.8367-3.7572,8.5708-3.7572C493.45546,767.07986,497.29356,768.76106,497.29356,770.83706Z"/><path fill="#ebf1ff" d="M174.42037,750.01836c0,1.1106-2.0553,2.0105-4.5889,2.0105-2.5322,0-4.5873-.8999-4.5873-2.0105s2.0551-2.0104,4.5873-2.0104C172.36507,748.008,174.42037,748.90786,174.42037,750.01836Z"/><path fill="#ebf1ff" d="M674.86336,770.83706c0,1.1106-2.0537,2.0104-4.5871,2.0104-2.5339,0-4.5876-.8998-4.5876-2.0104s2.0537-2.0118,4.5876-2.0118C672.80966,768.82526,674.86336,769.72656,674.86336,770.83706Z"/><path fill="#ebf1ff" d="M897.71038,760.61466c0,1.1106-2.0537,2.0105-4.5873,2.0105-2.5322,0-4.587-.8999-4.587-2.0105s2.0548-2.0104,4.587-2.0104C895.65668,758.60426,897.71038,759.50416,897.71038,760.61466Z"/><path fill="#ebf1ff" d="M622.16236,764.637c0,1.1105-2.0537,2.0104-4.5873,2.0104-2.5334,0-4.5873-.8999-4.5873-2.0104,0-1.112,2.0539-2.0118,4.5873-2.0118C620.10866,762.62516,622.16236,763.525,622.16236,764.637Z"/><path fill="#d1dfff" d="M286.00137,141.835h-4.2369a15.43852,15.43852,0,0,0-20.0153-22.3352,24.2479,24.2479,0,0,0-48.4471,1.5374c0,.7506.0362,1.4929.1032,2.2267a12.12789,12.12789,0,0,0-18.8805,7.446,15.45185,15.45185,0,0,0-19.9944,11.1251h-4.0823a10.77123,10.77123,0,0,0-10.772,10.7707h0a10.7724,10.7724,0,0,0,10.772,10.772h115.5533a10.7724,10.7724,0,0,0,10.772-10.772h0A10.77123,10.77123,0,0,0,286.00137,141.835Z"/><path fill="#fff" d="M428.74626,603.41436c-.106-3.2968-2.7749-2.6271-5.0795-2.8629-1.5573-.4506-2.2786-2.6033-3.9932-2.6773-3.6595.7297-3.4963,9.6155-3.7265,12.6946l6.2113,2.3774C424.54966,610.01076,428.84816,607.65706,428.74626,603.41436Z"/><path fill="#f0dcc0" d="M428.74626,603.41436a2.46726,2.46726,0,0,0-1.1649-2.3592,5.24623,5.24623,0,0,1,.1174.5218c.67922,4.1883-3.2565,7.107-5.2251,10.341l-6.4792-1.5054c-.00548-.0907-.01248-.187-.01948-.2874-.00842.1576-.01812.3083-.02792.4436l6.2113,2.3774C424.54966,610.01076,428.84816,607.65706,428.74626,603.41436Z"/><path fill="#fff" d="M411.56906,599.93346c-2.9076-1.5556-3.6623,1.0896-5.0198,2.9689-1.1678,1.1231-3.3931.6711-4.31528,2.1192-1.19842,3.534,6.57818,7.8353,9.13,9.5737l5.16488-4.1897C415.18246,606.86606,415.29416,601.96616,411.56906,599.93346Z"/><path fill="#f0dcc0" d="M411.56906,599.93346a2.471,2.471,0,0,0-2.62708-.1702,4.998,4.998,0,0,1,.51058.159c3.9679,1.5054,4.5273,6.3745,6.3438,9.6964l-4.5426,4.8566q-.1236-.06075-.2595-.1256c.1325.0865.2581.1688.36972.2456l5.16488-4.1897C415.18246,606.86606,415.29416,601.96616,411.56906,599.93346Z"/><path fill="#fff" d="M399.96546,613.069c-2.80148,1.7411-.8874,3.7167.0614,5.8318.3878,1.5737-1.1162,3.2744-.3223,4.7965,2.461,2.8057,10.0745-1.7802,12.8567-3.1196l-1.0464-6.5684C407.77586,613.40516,403.58866,610.86036,399.96546,613.069Z"/><path fill="#f0dcc0" d="M399.96546,613.069a2.47408,2.47408,0,0,0-1.4608,2.1904c.1172-.12.247-.24.3935-.3628,3.287-2.6829,7.7836-.7338,11.5687-.6459l1.93512,6.3633c-.07682.0502-.15632.1047-.23862.1605.1395-.0698.2749-.1382.3979-.1968l-1.0464-6.5684C407.77586,613.40516,403.58866,610.86036,399.96546,613.069Z"/><path fill="#fff" d="M405.53916,629.68536c.1074,3.2982,2.7749,2.6271,5.0812,2.8643,1.557.4506,2.2769,2.6019,3.9929,2.6773,3.6595-.7297,3.4963-9.6155,3.7265-12.6946l-6.211-2.3774C409.73576,623.09036,405.43866,625.44406,405.53916,629.68536Z"/><path fill="#f0dcc0" d="M405.53916,629.68536a2.4729,2.4729,0,0,0,1.1663,2.3606,5.19777,5.19777,0,0,1-.1172-.5218c-.6794-4.1883,3.2563-7.107,5.2249-10.3423l6.47782,1.5067c.00558.0907.01248.187.02088.2874.0084-.1576.01812-.3083.0279-.4436l-6.211-2.3774C409.73576,623.09036,405.43866,625.44406,405.53916,629.68536Z"/><path fill="#fff" d="M422.71636,633.16766c2.909,1.5556,3.6637-1.0896,5.0212-2.9689,1.1678-1.1231,3.3933-.6711,4.3142-2.1192,1.1981-3.534-6.5785-7.8353-9.1303-9.5751l-5.16348,4.1911C419.10456,626.23506,418.993,631.13356,422.71636,633.16766Z"/><path fill="#f0dcc0" d="M422.71636,633.16766a2.47346,2.47346,0,0,0,2.6285.1702,5.15442,5.15442,0,0,1-.512-.1604c-3.9664-1.5054-4.52588-6.3731-6.3422-9.695l4.5424-4.858c.081.0405.16892.0837.2581.127-.1311-.0865-.2567-.1702-.3697-.247l-5.16348,4.1911C419.10456,626.23506,418.993,631.13356,422.71636,633.16766Z"/><path fill="#fff" d="M434.32136,620.03216c2.8015-1.7411.8874-3.7181-.06138-5.8318-.38782-1.5737,1.11618-3.2744.32228-4.7965-2.4608-2.8057-10.0745,1.7788-12.8564,3.1196l1.0463,6.567C426.51126,619.69456,430.69836,622.24076,434.32136,620.03216Z"/><path fill="#f0dcc0" d="M434.32136,620.03216a2.47367,2.47367,0,0,0,1.4608-2.1904,5.32086,5.32086,0,0,1-.3935.3628c-3.287,2.6829-7.7836.7338-11.5684.6459l-1.9354-6.3633c.0754-.0502.1563-.1047.2386-.1605-.1409.0698-.2749.1382-.3976.1968l1.0463,6.567C426.51126,619.69456,430.69836,622.24076,434.32136,620.03216Z"/><path fill="#ff876d" d="M410.82126,614.35946a6.69085,6.69085,0,1,1,4.131,8.5133A6.692,6.692,0,0,1,410.82126,614.35946Z"/><path fill="#fff" d="M624.59126,610.34c-.106-3.2968-2.7749-2.6271-5.0811-2.8629-1.5557-.4506-2.277-2.6033-3.9916-2.6773-3.6609.7283-3.4977,9.6141-3.72758,12.6946l6.211,2.376C620.39466,616.935,624.69316,614.58126,624.59126,610.34Z"/><path fill="#f0dcc0" d="M624.59126,610.34a2.4719,2.4719,0,0,0-1.16628-2.3606,4.72226,4.72226,0,0,1,.11718.5232c.6797,4.1869-3.2563,7.107-5.2249,10.341l-6.4778-1.5068c-.00548-.0907-.01248-.187-.01948-.286-.00982.1562-.01952.3069-.029.4436l6.211,2.376C620.39466,616.935,624.69316,614.58126,624.59126,610.34Z"/><path fill="#fff" d="M607.41406,606.85906c-2.909-1.557-3.6637,1.0896-5.0198,2.9675-1.1692,1.1231-3.3931.6711-4.31528,2.1193-1.19842,3.5339,6.57818,7.8352,9.13,9.575l5.16488-4.1911C611.02746,613.79026,611.13776,608.89176,607.41406,606.85906Z"/><path fill="#f0dcc0" d="M607.41406,606.85906a2.47428,2.47428,0,0,0-2.6269-.1716,5.17436,5.17436,0,0,1,.5104.1604c3.9665,1.5054,4.5262,6.3731,6.3438,9.6964l-4.544,4.8566c-.081-.0405-.1675-.0823-.2581-.1256.1311.0851.25672.1688.36972.2456l5.16488-4.1911C611.02746,613.79026,611.13776,608.89176,607.41406,606.85906Z"/><path fill="#fff" d="M595.81046,619.99456c-2.8029,1.7397-.8871,3.7167.06,5.8318.3892,1.5723-1.11448,3.273-.3223,4.7951,2.4624,2.8057,10.0745-1.7788,12.85782-3.1195l-1.04772-6.5671C603.62056,620.33076,599.43226,617.786,595.81046,619.99456Z"/><path fill="#f0dcc0" d="M595.81046,619.99456a2.47017,2.47017,0,0,0-1.4622,2.189c.1172-.1186.247-.24.3949-.3628,3.287-2.6815,7.7822-.7324,11.5687-.6445l1.9337,6.3619c-.0754.0517-.1549.1047-.23858.1619.14088-.0712.27628-.1382.399-.1981l-1.04772-6.5671C603.62056,620.33076,599.43226,617.786,595.81046,619.99456Z"/><path fill="#fff" d="M601.38416,636.611c.106,3.2968,2.7752,2.6271,5.07982,2.8629,1.557.4506,2.27828,2.6034,3.99288,2.6773,3.6609-.7283,3.4966-9.6141,3.7279-12.6946l-6.2113-2.376C605.58076,630.016,601.28226,632.36966,601.38416,636.611Z"/><path fill="#f0dcc0" d="M601.38416,636.611a2.47194,2.47194,0,0,0,1.1663,2.3606,4.79113,4.79113,0,0,1-.1172-.5232c-.6808-4.1869,3.2563-7.1069,5.2249-10.3409l6.47782,1.5067c.00558.0907.01278.187.01948.286.0098-.1562.0181-.3069.0293-.4436l-6.2113-2.376C605.58076,630.016,601.28226,632.36966,601.38416,636.611Z"/><path fill="#fff" d="M618.56136,640.09186c2.909,1.557,3.6623-1.0896,5.0198-2.9675,1.1692-1.1231,3.3931-.6711,4.3153-2.1192,1.1984-3.5354-6.5782-7.8353-9.1297-9.5751l-5.1652,4.1911C614.948,633.15936,614.83766,638.05916,618.56136,640.09186Z"/><path fill="#f0dcc0" d="M618.56136,640.09186a2.471,2.471,0,0,0,2.6271.1702,4.765,4.765,0,0,1-.5103-.159c-3.9667-1.5054-4.5276-6.3731-6.3441-9.6964l4.5443-4.8566c.0807.0405.1674.0823.2578.1256-.1311-.0851-.2578-.1688-.3694-.2456l-5.1652,4.1911C614.948,633.15936,614.83766,638.05916,618.56136,640.09186Z"/><path fill="#fff" d="M630.16526,626.95636c2.8012-1.7397.8871-3.7167-.06028-5.8317-.38922-1.5724,1.11478-3.2731.32228-4.7952-2.4624-2.8057-10.0759,1.7788-12.8578,3.1196l1.0477,6.567C622.35486,626.62016,626.54176,629.165,630.16526,626.95636Z"/><path fill="#f0dcc0" d="M630.16526,626.95636a2.46978,2.46978,0,0,0,1.4605-2.189,4.83614,4.83614,0,0,1-.3935.3614c-3.287,2.6829-7.7822.7338-11.5687.6459l-1.9337-6.3633c.0754-.0502.1549-.1033.2386-.1605-.1409.0712-.276.1382-.399.1982l1.0477,6.567C622.35486,626.62016,626.54176,629.165,630.16526,626.95636Z"/><path fill="#ff876d" d="M606.66626,621.28506a6.69019,6.69019,0,1,1,4.131,8.5119A6.68983,6.68983,0,0,1,606.66626,621.28506Z"/><path fill="#fff" d="M527.605,544.15746c-.06282-1.9378-1.62962-1.5444-2.984-1.6825-.91552-.2651-1.33822-1.5291-2.34552-1.5724-2.15.4283-2.0537,5.6476-2.1888,7.4572l3.6481,1.3951C525.13966,548.03186,527.665,546.64786,527.605,544.15746Z"/><path fill="#f0dcc0" d="M527.605,544.15746a1.45256,1.45256,0,0,0-.685-1.3868,2.721,2.721,0,0,1,.06828.307c.4005,2.4597-1.9127,4.1743-3.06928,6.0745l-3.80442-.8845c-.003-.053-.0072-.1102-.0128-.1688-.0042.0921-.00978.18-.0151.2609l3.6481,1.3951C525.13966,548.03186,527.665,546.64786,527.605,544.15746Z"/><path fill="#fff" d="M517.51516,542.11216c-1.7091-.9152-2.1528.6404-2.9494,1.744-.6864.6585-1.9937.3934-2.535,1.2445-.7046,2.076,3.8646,4.6026,5.36322,5.6239l3.03428-2.4611C519.63716,546.18466,519.70276,543.30646,517.51516,542.11216Z"/><path fill="#f0dcc0" d="M517.51516,542.11216a1.45226,1.45226,0,0,0-1.54418-.1004,2.69265,2.69265,0,0,1,.29968.0935c2.33132.8845,2.6592,3.7446,3.7265,5.6964l-2.669,2.8531c-.0474-.0237-.0976-.0488-.1521-.0753.0784.0516.1521.1004.21792.1451l3.03428-2.4611C519.63716,546.18466,519.70276,543.30646,517.51516,542.11216Z"/><path fill="#fff" d="M510.69836,549.82746c-1.6463,1.0227-.5218,2.1834.0349,3.4265.229.9236-.6544,1.9226-.1884,2.8169,1.4454,1.6477,5.9183-1.045,7.552-1.8319l-.6152-3.8576C515.28566,550.02556,512.826,548.53,510.69836,549.82746Z"/><path fill="#f0dcc0" d="M510.69836,549.82746a1.45149,1.45149,0,0,0-.858,1.2863,2.88783,2.88783,0,0,1,.2302-.212c1.9309-1.5766,4.5719-.4311,6.7958-.3795l1.1371,3.7376c-.0447.0293-.0921.0614-.1409.0949.0837-.0418.1632-.0809.2343-.1158l-.6152-3.8576C515.28566,550.02556,512.826,548.53,510.69836,549.82746Z"/><path fill="#fff" d="M513.97276,559.58946c.0628,1.9365,1.6296,1.543,2.9843,1.6811.9138.2651,1.338,1.5291,2.3453,1.5738,2.1499-.4283,2.0539-5.649,2.189-7.4572l-3.64838-1.3965C516.43806,555.71506,513.91276,557.09766,513.97276,559.58946Z"/><path fill="#f0dcc0" d="M513.97276,559.58946a1.45158,1.45158,0,0,0,.6851,1.3868c-.0263-.0949-.0503-.1968-.0698-.307-.399-2.461,1.913-4.1757,3.0694-6.0759l3.806.8859c.0028.053.007.1088.0111.1688.0056-.0935.0112-.1813.0168-.2609l-3.64838-1.3965C516.43806,555.71506,513.91276,557.09766,513.97276,559.58946Z"/><path fill="#fff" d="M524.06286,561.63476c1.7089.9138,2.15112-.6404,2.9492-1.744.6864-.6599,1.9923-.3948,2.535-1.2445.7031-2.0774-3.8646-4.6026-5.3644-5.6253l-3.0331,2.4625C521.94056,557.56226,521.87506,560.44046,524.06286,561.63476Z"/><path fill="#f0dcc0" d="M524.06286,561.63476a1.45207,1.45207,0,0,0,1.5428.099,2.91446,2.91446,0,0,1-.2999-.0934c-2.33-.8846-2.6592-3.7447-3.7263-5.6951l2.6687-2.8531c.0475.0237.0991.0488.1521.0739-.0767-.0502-.1507-.1004-.2176-.1451l-3.0331,2.4625C521.94056,557.56226,521.87506,560.44046,524.06286,561.63476Z"/><path fill="#fff" d="M530.87946,553.91806c1.6463-1.0226.522-2.1834-.0361-3.4251-.2276-.925.6558-1.9239.1895-2.8182-1.4451-1.6477-5.9183,1.0449-7.552,1.8332l.6139,3.8576C526.29076,553.72,528.75066,555.21556,530.87946,553.91806Z"/><path fill="#f0dcc0" d="M530.87946,553.91806a1.44988,1.44988,0,0,0,.858-1.2863c-.0684.0697-.1451.1409-.2316.2134-1.93088,1.5752-4.572.4297-6.79588.3781l-1.13542-3.7376c.04442-.0293.0905-.0614.1395-.0935-.0825.0405-.16208.0809-.2332.1158l.6139,3.8576C526.29076,553.72,528.75066,555.21556,530.87946,553.91806Z"/><path fill="#ff876d" d="M517.07566,550.58646a3.93,3.93,0,1,1,2.4262,5.0002A3.93079,3.93079,0,0,1,517.07566,550.58646Z"/></svg>