<svg xmlns="http://www.w3.org/2000/svg" enable-background="new 0 0 3000 1600" viewBox="83.963 94.988 2940.248 1487.285"><path fill="#fff3e1" d="m2679.613 1472.872-1256.925-3.197-1082.277-.665S163.74 1074.155 234.215 971.821s223.314-128.99 123.573-373.616c-91.714-224.942-94.131-407.106 98.472-431.541 388.097-49.236 1192.288 366.858 1419.161 234.596 226.873-132.262 739.509-281.901 889.148 46.34s-84.956 1025.272-84.956 1025.272zM2705.242 1434.085c-1.78 6.721-3.958 13.47-5.252 20.301-1.418 7.486 8.824 10.338 11.404 3.144 2.347-6.544 3.889-13.464 5.761-20.161 2.144-7.669-9.877-10.973-11.913-3.284zM2718.779 1409.698c-7.44 0-7.452 11.562 0 11.562 7.44 0 7.452-11.562 0-11.562z"/><path fill="#766780" d="M2640.295 1460.808c0 6.702 56.651 8.781-555.887 12.417-645.599 3.832-885.073-5.715-885.073-12.417s103.648-12.135 779.286-12.135c599.072 0 661.674 5.433 661.674 12.135z"/><path fill="#812a2e" d="M1305.264 1316.219s-58.047 145.242-54.46 146.93c3.587 1.688 28.357-.678 28.357-.678l84.886-135.244-58.783-11.008z"/><path fill="#681d23" d="M1580.049 1310.9s-58.048 145.242-54.461 146.93c3.587 1.688 28.357-.678 28.357-.678l84.886-135.244-58.782-11.008z"/><path fill="#812a2e" d="M2330.56 1318.456s37.687 146.091 33.944 147.396c-3.743 1.305-25.604.656-25.604.656l-67.949-143.23 59.609-4.822z"/><path fill="#681d23" d="M2541.042 1311.73s39.417 144.276 35.673 145.581c-3.743 1.305-27.334 2.471-27.334 2.471l-67.949-143.23 59.61-4.822z"/><path fill="#c0b47b" d="M2682.733 824.042c0 1.347-.011 2.695-.023 4.054a2356.88 2356.88 0 0 1-.114 8.37c-.023 1.359-.046 2.718-.08 4.099-.057 2.809-.126 5.664-.205 8.541a923.247 923.247 0 0 1-.24 7.536c-.011.388-.023.788-.046 1.188-.046 1.473-.103 2.946-.16 4.43-.171 4.442-.377 8.952-.594 13.52a671.153 671.153 0 0 1-.228 4.579c-.32 6.132-.674 12.366-1.073 18.681l-.24 3.848c-.125 1.884-.251 3.779-.376 5.686-.217 3.197-.445 6.417-.685 9.649-.023.274-.045.548-.057.822-.228 2.969-.445 5.938-.685 8.929a2596.11 2596.11 0 0 1-1.21 14.81c-.137 1.656-.286 3.311-.434 4.979-.034.365-.057.719-.092 1.085-.194 2.227-.4 4.476-.605 6.714-.103 1.119-.205 2.238-.308 3.38-.205 2.249-.422 4.51-.639 6.771l-.206 2.135c-.16 1.679-.331 3.369-.491 5.058-.331 3.266-.651 6.543-.993 9.831l-.034.331c-.446 4.385-.914 8.781-1.393 13.177a2803.94 2803.94 0 0 1-4.419 38.024c-.411 3.414-.845 6.84-1.279 10.254-.879 6.84-1.781 13.656-2.695 20.462a2726.042 2726.042 0 0 1-2.113 15.244 2876.017 2876.017 0 0 1-4.442 30.122c-.502 3.3-1.016 6.6-1.542 9.877-.525 3.289-1.039 6.554-1.576 9.797a1918.56 1918.56 0 0 1-2.398 14.502v.011c-.537 3.197-1.085 6.372-1.633 9.523-.411 2.364-.822 4.716-1.245 7.068a1789.138 1789.138 0 0 1-5.709 30.796c-.502 2.592-1.016 5.15-1.519 7.696-.285 1.45-.582 2.9-.867 4.339-.856 4.225-1.713 8.381-2.581 12.481-.023.091-.034.171-.057.251-.297 1.393-.594 2.775-.879 4.156-.411 1.896-.822 3.768-1.222 5.629-.491 2.193-.97 4.362-1.45 6.509v.011a821.219 821.219 0 0 1-1.793 7.822c-.902 3.871-1.804 7.651-2.706 11.339a767.12 767.12 0 0 1-2.718 10.779c-.308 1.176-.605 2.341-.913 3.483a363.675 363.675 0 0 1-1.359 5.081c-.148.559-.308 1.119-.457 1.667a583.828 583.828 0 0 1-1.816 6.474c-.308 1.062-.605 2.113-.913 3.152-.457 1.542-.913 3.072-1.359 4.556-.457 1.507-.914 2.98-1.37 4.43-.297.959-.594 1.896-.902 2.832-.309.948-.605 1.873-.913 2.775a241.927 241.927 0 0 1-1.804 5.321c-.149.423-.308.856-.457 1.279a219.282 219.282 0 0 1-4.042 10.596c-.012 0 0 .011 0 .011a133.474 133.474 0 0 1-3.117 7.045c-.012 0 0 .011 0 .011-.308.617-.594 1.222-.891 1.804a82.794 82.794 0 0 1-2.626 4.91 53.627 53.627 0 0 1-1.736 2.786 46.44 46.44 0 0 1-.868 1.267c-.285.388-.559.777-.856 1.142v.011c-.285.365-.571.719-.856 1.051a22.99 22.99 0 0 1-2.113 2.192 40.168 40.168 0 0 1-3.357 2.672c-.4.286-.811.571-1.222.845a48.135 48.135 0 0 1-3.483 2.112c-.285.16-.571.308-.868.468a64.66 64.66 0 0 1-5.344 2.535c-.343.137-.685.286-1.028.423-4.259 1.736-9.055 3.277-14.422 4.647a140.62 140.62 0 0 1-4.099.993c-.731.16-1.473.331-2.227.491-1.496.331-3.037.651-4.624.948-.788.16-1.587.308-2.398.457-.811.148-1.633.297-2.466.445-.297.057-.605.103-.914.16-.525.091-1.062.171-1.599.263-.822.137-1.644.274-2.49.411-.89.137-1.804.274-2.717.411a378.316 378.316 0 0 1-11.133 1.507c-3.871.48-7.902.925-12.092 1.347-.068 0-.137.011-.206.023-2.912.297-5.915.582-8.998.856-2.375.217-4.807.422-7.274.628-1.153.103-2.307.194-3.483.286l-1.701.137c-2.478.194-5.001.388-7.571.571-1.359.103-2.729.205-4.111.308-3.426.24-6.931.479-10.517.719l-3.642.24-3.266.206c-2.455.148-4.933.308-7.456.468-1.382.08-2.775.172-4.168.251-1.405.08-2.821.172-4.248.263h-.091c-1.393.08-2.798.171-4.213.251-.457.023-.925.057-1.382.08-1.735.103-3.494.206-5.275.308-.103.012-.205.012-.308.023-1.896.114-3.814.217-5.744.331-1.701.091-3.426.194-5.161.297-3.06.183-6.177.354-9.329.537-3.151.183-6.349.365-9.591.548-23.762 1.37-47.879 2.478-71.515 3.403a5293.454 5293.454 0 0 1-51.338 1.724c-70.293 2.055-129.99 2.569-153.992 3.14-5.561.137-16.305.217-31.412.194-18.133-.023-42.569-.16-71.869-.445-109.276-1.13-266.682-4.522-415.158-12.241h-.012a6142.235 6142.235 0 0 1-53.85-3.015 5572.151 5572.151 0 0 1-44.064-2.843c-44.613-3.083-87.067-6.634-125.582-10.722a2001.428 2001.428 0 0 1-37.225-4.293c-20.713-2.592-39.885-5.367-57.185-8.347-49.671-8.564-83.858-18.784-94.295-30.979-17.185-20.063-35.489-58.795-49.854-103.887-32.897-103.259-45.218-239.929 23.351-262.549a157.984 157.984 0 0 1 12.264-3.505c94.695-23.089 196.218 32.143 244.473-11.499 50.333-45.549 31.196-179.844 91.029-199.015 21.935-7.011 194.277-15.598 400.155-21.341 38.367-1.062 78.035-2.032 118.354-2.889 94.637-1.987 79.656-3.277 172.182-3.494 50.071-.137 98.497.034 143.886.605 166.518 2.021 291.837 9.021 305.289 23.865a26.802 26.802 0 0 1 2.569 3.414v.011c.16.251.308.502.457.754.137.228.274.457.399.697.149.251.297.514.434.788.217.388.422.799.617 1.222.205.411.411.845.605 1.29.274.582.525 1.188.777 1.816a70.737 70.737 0 0 1 2.01 5.732c.24.799.48 1.621.708 2.466.057.194.114.4.16.594.103.388.206.776.308 1.176.125.468.251.948.365 1.439.137.548.263 1.108.388 1.667.125.537.251 1.073.365 1.621.194.879.377 1.758.548 2.672.194 1.005.388 2.032.571 3.072.114.605.217 1.233.32 1.861.206 1.21.4 2.455.594 3.722.069.502.149 1.016.217 1.53s.148 1.028.217 1.553c.148 1.039.285 2.101.411 3.186.525 4.316.982 8.884 1.359 13.691.103 1.199.194 2.409.274 3.642.217 3.083.411 6.257.571 9.512.068 1.302.125 2.615.182 3.951.057 1.324.115 2.672.16 4.019l.137 4.111.103 4.191c.159 6.88.217 14.063.182 21.496z"/><path fill="#a99f6e" d="M2597.314 1336.82c-22.171 19.824-80.485 22.495-184.223 28.469-8.718-4.154-17.702-12.043-22.65-26.91-11.675-35.134 26.481-302.105 82.758-334.635 62.48-36.116 95.876-9.208 124.266-68.584 28.39-59.376-7.275-199.714 52.742-218.67 6.547-2.072 12.917-.451 19.09 4.083 42.731 67.305-25.991 575.141-71.983 616.247z"/><path fill="#988c54" d="M2078.581 1329.203c-38.046 0-71.969-2.095-92.062-4.41-42.393-4.886-38.714-7.062-154.501-9.366-91.881-1.83-191.457-3.72-258.32-7.103-23.509-1.189-47.237-1.866-70.185-2.521-123.811-3.534-240.756-6.87-281.072-91.667-12.602-26.511-13.919-51.18-3.918-73.322 21.227-46.993 85.332-65.795 88.05-66.572.097-.028.194-.052.293-.071.983-.192 99.492-19.226 194.68-14.437a3.544 3.544 0 0 1 3.364 3.719c-.097 1.956-1.764 3.476-3.719 3.362-92.584-4.641-188.316 13.423-192.805 14.285-3.331.994-64.008 19.664-83.411 62.656-9.093 20.15-7.791 42.805 3.871 67.337 17.488 36.782 50.688 59.858 104.482 72.62 48.586 11.527 107.75 13.215 170.387 15.003 22.986.656 46.753 1.333 70.341 2.528 66.756 3.376 166.276 5.266 258.102 7.093 115.96 2.308 112.445 4.489 155.173 9.413 73.523 8.473 237.5 8.163 283.4-30.955 7.64-6.51 11.527-13.578 11.885-21.613 1.349-30.259.781-59.368.232-87.517-.68-34.857-1.323-67.782 1.967-96.952.377-3.405.79-6.567 1.259-9.657 7.152-48.314 26.966-79.905 62.355-99.404 36.488-20.084 85.582-14.447 128.896-9.477 39.253 4.507 76.336 8.764 97.347-6.34a3.544 3.544 0 0 1 4.948.81 3.544 3.544 0 0 1-.81 4.948c-23.233 16.701-61.638 12.292-102.293 7.628-44.331-5.09-90.164-10.348-124.666 8.642-33.744 18.594-51.867 47.66-58.762 94.245a225.042 225.042 0 0 0-1.224 9.39c-3.239 28.713-2.6 61.411-1.925 96.028.551 28.261 1.122 57.485-.237 87.97-.445 9.967-5.279 18.949-14.369 26.696-34.25 29.184-123.206 37.011-196.753 37.011z"/><path fill="#988c54" d="M1709.494 812.014s58.164-1.384 96.987 26.021c38.823 27.405 29.569 123.008 29.569 123.008l210.677-65.6 36.341-30.856c6.635-5.634 13.304-13.02 20.719-17.594 12.956-7.99 30.428-8.479 45.071-5.283 13.696 2.988 26.606 8.751 39.942 13.07 40.442 13.097 85.176 12.533 125.275-1.579 20.079-7.067 38.822-17.275 58.34-25.669 19.494-8.383 35.59-14.118 51.079-29.378a427.602 427.602 0 0 0 76.557-102.259c.28 43.135-10.488 85.854-9.236 128.972.532 18.315 3.092 37.492-4.213 54.297-4.547 10.462-12.597 19.085-17.292 29.482-5.715 12.656-6.067 26.957-7.78 40.738a198.748 198.748 0 0 1-18.023 61.367c-7.873 16.393-23.18 23.96-40.792 28.113-15.073 3.554-30.761 3.134-46.241 2.695l-96.76-2.748c-22.617-.642-47.083-4.379-69.383-1.513-28.266 3.633-56.5 7.535-84.748 11.302l-157.568 21.013-.289.039-117.334 21.144-151.347-54.904 30.449-223.878z"/><path fill="#5e542b" d="m1607.701 1095.782-54.378 185.521c87.713-63.648 178.665-166.4 136.86-225.27a158.039 158.039 0 0 0-7.797-10.094l-25.255-10.186-49.43 60.029z"/><path fill="#4a3333" d="M1670.158 989.13s-33.729-10.496-50.242-12.56c-16.513-2.065-25.121 5.709-25.121 5.709l29.883 48.603 62.198-9.452-16.718-32.3z"/><path fill="#e58c65" d="M1570.816 1043.94s-35.398-23.979-18.27-62.803c11.138-25.246 87.923 2.284 87.923 2.284l-31.972 5.709s23.979 14.844 22.837 30.83c-1.142 15.986-26.263 20.553-26.263 20.553l-34.255 3.427z"/><path fill="#ed4450" d="M1534.277 1048.507s6.851-22.837 27.405-28.547c20.553-5.709 50.242 4.568 50.242 4.568l-12.56 37.681-65.087-13.702z"/><path fill="#3a1b23" d="M1608.498 1027.954s-51.384-13.702-70.796 13.702c-19.412 27.405 20.554 49.1 46.816 51.384 26.263 2.284 23.98-65.086 23.98-65.086z"/><path fill="#6dafa9" d="M1819.743 990.272c-1.142 13.702-5.709 25.121-2.284 35.398 3.426 10.277 0 14.844-3.426 17.128-3.426 2.284-6.851 5.709-6.851 5.709s6.851 10.277 3.426 17.128c-3.426 6.851-41.107 1.142-47.958 0-6.851-1.142-94.775-52.526-94.775-52.526s-9.135-14.844-7.993-20.554c1.142-5.709 3.426-4.568 3.426-11.419 0-6.851-13.702-28.547-13.702-41.107s6.851-76.505 6.851-76.505l41.221-31.493 59.263-5.047s6.851 9.135 25.121 20.554c10.254 6.406 19.069 12.458 26.434 22.586a68.349 68.349 0 0 1 3.859 5.904c4.122 7.068 7.73 15.895 10.813 27.462 9.135 34.257-2.284 73.08-3.425 86.782z"/><path fill="#338c81" d="M1747.043 912.74c.041-2.509-3.958-3.166-4.468-.605-3.153 15.828-3.361 31.962-2.875 48.052.119 3.932 6.184 3.957 6.129 0-.225-15.843.954-31.617 1.214-47.447z"/><path fill="#338c81" d="M1812.355 876.029c-8.244-8.107-20.851-10.848-32.144-5.881-12.629 5.561-23.979 15.781-29.894 28.295-.571 1.222-2.364.16-1.804-1.051 6.337-13.554 19.446-25.429 33.617-30.374 9.055-3.151 18.692-1.69 26.366 3.106a69.315 69.315 0 0 1 3.859 5.905z" opacity=".5"/><path fill="#4a3333" d="M1808.076 757.432c1.803-3.436 2.396-7.791 1.029-11.514-1.316-3.587-3.795-5.209-6.65-5.697 1.354-2.847 1.694-5.923-.462-9.008-1.143-1.636-2.68-2.796-4.404-3.544.187-1.501-.019-3.068-.794-4.7-.586-1.234-1.735-1.859-2.936-1.938-.269-3.013-1.425-5.829-3.727-7.815-2.175-1.877-4.313-2.429-6.196-2.077.036-.265.093-.509.113-.788 2.127-4.237 3.658-8.883 1.985-13.417-1.656-4.485-4.855-6.806-8.513-7.607 1.718-4.332 1.396-8.928-3.481-12.582-3.737-2.799-8.885-2.948-13.507-1.386-.004-.384-.023-.78-.064-1.193-.374-3.768-2.228-7.501-5.949-8.107-2.623-.427-4.659.47-6.151 2.12-2.752-4.74-8.421-8.113-14.009-7.894-3.795.148-7.379 2.059-10.04 4.882-4.103-2.869-9.466-2.55-13.939-.128-3.586 1.22-5.978 3.94-7.222 7.332-.078-.025-.151-.064-.229-.088-.119-.037-.24-.06-.36-.094-4.478-2.965-10.757-3.471-15.465-1.583-3.344 1.341-6.323 4.188-7.78 7.343-5.535-1.6-11.673-.342-15.853 4.574-3.649 4.292-4.916 13.231-2.273 19.076-2.248.554-4.481 1.2-6.18 3.674-2.745 3.995-1.802 9.098.353 13.105.145.27.305.523.457.785-1.645 2.701-2.51 5.878-2.015 8.931.853 5.259 5.097 9.345 9.822 11.065-1.939 3.634-2.82 7.443-.023 11.789 2.611 4.056 7.155 5.685 11.615 5.909.907 1.071 1.856 2.112 2.739 3.16a355.258 355.258 0 0 0 9.1 10.391c12.353 13.55 25.794 26.019 40.6 36.313a182.948 182.948 0 0 0 7.654 5.046c4.191 2.614 8.836 5.417 13.412 3.693 6.171.533 11.908-.26 17.75-1.5.059.046.115.096.174.14 6.525 4.914 11.231 2.702 13.467-2.09 1.237.5 2.554.606 3.903.112 2.339-.856 3.528-3.116 3.927-5.566 2.811-.992 5.088-3.619 6.005-6.736.752-2.555.523-5.085-.253-7.498 2-.814 3.746-2.309 4.855-4.576 1.861-3.804.989-6.723-.812-9.297 2.762-.957 5.263-2.612 6.677-4.624 3.216-4.58 2.314-8.931-.502-11.813 1.574-1.109 3.004-2.394 4.152-4.58z"/><path fill="#eb966b" d="M1692.425 896.069c7.993 17.128 33.863-15.609 41.107-26.263 19.412-28.547 29.821-36.133 29.821-36.133-12.122-14.68-6.982-57.919-6.982-57.919l-50.321 19.382s.236 2.591.545 6.673c.01.072.021.144.01.206.031.452.062.915.082 1.409 0 .144.01.298.01.452v.113c.411 13.613-7.973 27.4-10.848 40.697-9.134 42.248-3.424 51.362-3.424 51.383z"/><path fill="#4a3333" d="M1696.421 845.256c51.384-2.284 51.385-45.072 51.385-45.072l-41.211 1.625c.01.072.021.144.01.206.031.452.062.915.082 1.409 0 .144.01.298.01.452v.113c.412 13.613-10.163 27.664-10.276 41.267z"/><path fill="#eb966b" d="M1682.598 828.825c23.409 8.84 64.751-.462 73.2-29.243 0 0 30.83-4.568 15.986-28.547-6.899-11.144-18.213-1.308-25.282 3.511-2.183-4.803-2.39-10.46-.564-15.404-7.318 1.534-15.234-1.565-20.162-7.173-4.928-5.608-6.975-13.41-6.25-20.822-3.733.051-7.543.092-11.099-1.042-3.556-1.134-6.879-3.669-7.947-7.232-6.081 4.262-13.993 5.835-21.257 4.227-3.057 5.728-35.05 87.213 3.375 101.725z"/><path fill="#1a1a1a" d="M1708.427 768.955c1.091.21 2.474.711 3.43 1.286 1.342.807 1.192 2.592 2.339 3.46 1.585 1.2 4.216.211 4.318-1.73.115-2.199-1.73-4.34-3.584-5.311-1.106-.58-2.31-.78-3.508-1.069-1.241-.299-2.538-.266-3.806-.233-.798.021-1.626.049-2.34.402-.923.456-2.479 2.797-.855 3.266.516.149 1.066-.005 1.595-.101a6.63 6.63 0 0 1 2.411.03zM1666.362 765.218c-.366-.107-.529-.567-.574-.971-.219-1.968 1.092-3.824 2.725-4.722 1.79-.985 4.538-1.566 6.458-.679.46.212.918.539 1.092 1.043.391 1.14.195 2.245-.573 3.142-1.562 1.824-3.158.312-4.945.013-.76-.127-1.315.027-2.005.387-.3.157-2.094 1.812-2.178 1.787z"/><path fill="#d25c48" d="M1680.956 785.721c.471-1.083 1.81-1.623 2.902-1.138l3.225 1.432c1.088.483 1.622 1.795 1.146 2.891-.472 1.083-1.81 1.623-2.902 1.138l-3.225-1.432c-1.089-.483-1.623-1.796-1.146-2.891z"/><path fill="#4a3333" d="M1711.749 747.067c2.489 1.813 5.239 3.221 7.63 5.17 2.427 1.978 4.597 4.254 6.944 6.322 2.117 1.865-.62 5.311-2.755 3.429-2.346-2.067-4.511-4.354-6.944-6.323-2.398-1.94-5.141-3.357-7.63-5.17-2.292-1.668.461-5.099 2.755-3.428zM1669.526 745.016c2.026-1.862 4.295-2.432 6.929-2.956 2.766-.55 3.953 3.677 1.158 4.233-1.743.346-3.554.522-4.91 1.768-2.079 1.911-5.264-1.127-3.177-3.045z"/><path fill="#fff" d="M1688.81 798.536c7.211.862 25.959-.536 24.792 2.045-4.181 9.248-13.554 18.79-21.546 15.108-5.193-2.393-7.523-9.895-8.215-14.799-.103-.732-.147-1.557.365-2.117.678-.741 1.917-.618 2.949-.461.55.083 1.102.158 1.655.224z"/><path fill="#e58c65" d="M1621.28 920.13s-25.665 62.738-4.816 75.174c20.849 12.436 37.492 8.23 46.257-7.304s7.268-74.462 7.268-74.462l-48.709 6.592z"/><path fill="#eb966b" d="M1669.689 918.236c.708-1.027.623-3.258.788-4.435.47-3.35.884-6.709 1.317-10.064 1.123-8.694 2.25-17.397 3.773-26.032 1.001-5.678 1.9-11.589 4.851-16.627 5.712-9.751 14.118-17.485 21.527-25.896 1.704-1.935 3.384-3.946 4.433-6.302 1.823-4.094-.117-8.321 1.089-12.438.396-1.354 1.243-2.564 1.479-3.955.709-4.182-4.063-7.139-5.51-11.127-1.004-2.767-.515-6.307-2.758-8.212-1.781-1.513-4.463-1.191-6.683-.465-2.221.727-4.464 1.789-6.78 1.484-1.412-.186-2.714-.872-4.116-1.123-3.385-.607-6.647 1.361-9.487 3.301a256.19 256.19 0 0 0-20.567 15.621 20.8 20.8 0 0 0-7.123-11.756c-2.038-1.669-5.046-2.93-7.208-1.424-2.269 1.58-1.983 4.957-1.504 7.68 1.483 8.435 2.422 16.99 2.262 25.552-.208 11.123-2.262 22.119-4.31 33.054-2.878 15.368-8.249 35.703-11.127 51.071 9.488 4.336 22.36 1.745 32.79 1.967 4.371.094 9.53-2.705 12.864.126z"/><path fill="#d37450" d="M1706.236 803.539c-.237-1.693-.02-3.433-.025-5.142-.005-1.919-.667-3.352-1.846-4.88-2.25-2.914-5.719-4.086-9.299-3.831-2.942.21-4.857 2.538-7.854 2.295-2.247-.182-4.898-2.161-7.165-1.972-4.023.335-7.515 2.644-10.67 4.987-8.873 6.593-17.034 14.255-24.631 22.266-1.6 1.687.7 4.477 2.396 2.788 5.714-5.689 11.646-11.158 17.89-16.264 2.99-2.445 5.999-5.018 9.294-7.047 2.941-1.811 5.502-2.42 9.009-2.123 1.652.14 3.129.682 4.822.662 3.126-.036 6.37-1.494 9.483-.71 3.313.835 4.873 3.471 4.856 6.75-.01 1.954-.298 3.977.369 5.814.395 1.089 1.109 2.049 1.426 3.163.463 1.625.024 3.377-.661 4.922-.575 1.299-1.344 2.667-1.029 4.053.177.779.678 1.435 1.081 2.125 1.688 2.893 1.614 6.727-.185 9.553.498.59 1.445-.013 1.887-.647 1.956-2.803 2.386-6.607 1.106-9.776-.258-.639-.584-1.266-.663-1.951-.191-1.647 1.043-3.065 1.761-4.559a7.817 7.817 0 0 0 .326-5.904c-.379-1.08-.995-2.066-1.353-3.154a8.032 8.032 0 0 1-.325-1.418z"/><path fill="#1a1a1a" d="M1806.04 984.563s12.561 3.426 13.703-2.284c1.142-5.709-13.204-12.331-13.204-12.331l-.499 14.615z"/><path fill="#eb966b" d="M1758.082 962.868s-28.547-13.702-51.384-26.263c-22.837-12.56-66.228-42.249-69.654-44.533-3.426-2.284-22.837-6.851-26.263-4.567-3.426 2.284 3.426 10.276 3.426 10.277-.825-.962-22.057-5.012-25.454-5.589-2.634-.448-7.483-1.925-9.937-.6-2.051 1.108-3.219 3.663-2.457 5.896.658 1.927 2.482 3.196 4.286 4.141 5.525 2.893 11.722 3.998 17.7 5.553 2.981.775 5.952 1.65 8.763 2.922.434.196 2.941 1.032 1.721 1.656l-5.818 2.972c-.845.432-1.7.87-2.418 1.49-.917.793-1.375 1.721-1.417 2.913-.088 2.485 3.059 3.778 4.028 6.069 1.054 2.492-.684 5.653.736 7.956.797 1.292 2.347 1.873 3.51 2.848 1.526 1.28 2.455 2.65 3.156 4.52.647 1.725 1.147 3.584 2.374 5.009 1.256 1.46 3.113 2.244 4.935 2.866 7.648 2.608 15.814 3.201 23.728 4.831 4.778.984 9.464 2.598 13.685 5.067 4.532 2.652 8.725 6.061 12.981 9.136l.963.696c4.672 3.373 9.346 6.744 14.047 10.076a824.716 824.716 0 0 0 16.531 11.441c5.873 3.95 11.809 7.808 17.841 11.512 5.884 3.613 11.859 7.085 17.977 10.289 5.503 2.882 11.127 5.568 16.938 7.773 4.746 1.801 9.672 3.343 14.726 3.964 1.853.228 3.728.325 5.592.196 33.114-2.284 37.681-51.384 37.681-51.384s-18.267-11.417-52.523-9.133z"/><path fill="#d37450" d="M1628.703 897.561c-4.908-1.159-9.588.237-14.496-.922-2.666-.63-4.033.896-1.363 1.557l14.682 3.632c2.768.684 3.948-3.613 1.177-4.267z"/><path fill="#d37450" d="M1635.436 934.898c-.979-4.393.228-6.831.495-10.832.129-1.922-.024-3.74-.843-5.521-1.047-2.275-5.427-5.694-3.194-8.301 1.156-1.349-.417-3.906-2.054-2.662-3.532 2.683-2.588 6.488-.31 9.821 3.265 4.775 1.699 7.819.98 12.905-.552 3.901 1.82 6.798 1.568 10.676-.17 2.621 3.813 2.562 4.05 0 .214-2.305-.21-3.923-.692-6.086z" opacity=".5"/><path fill="#d37450" d="M1784.329 977.727c-8.883-7.249-19.463-11.915-29.673-17.143-3.389-1.735-4.528.472-1.142 2.284 9.623 5.148 17.947 12.354 26.349 19.325 3.114 2.583 7.61-1.901 4.466-4.466zM1657.12 903.31c-5.222-4.599-10.429-10.505-16.54-13.927-6.126-3.431-14.005-1.552-20.664-3.021-2.181-.481-2.377 1.606-.332 2.375 5.999 2.258 13.125 1.229 18.727 4.526 5.7 3.354 13.203 9.285 18.144 13.652 2.189 1.935 2.867-1.666.665-3.605zM1624.788 1003.939c-9.112-12.937-22.145-29.461-37.4-28.367-2.555.183-3.52 3.123-1.057 3.837 13.467 3.901 25.627 13.866 34.728 24.566 1.823 2.144 5.342 2.255 3.729-.036z"/><path fill="#eb966b" d="M1643.325 1081.051s-2.855 34.827-10.848 54.238c-7.993 19.412-34.827 51.955-45.104 70.225-10.277 18.27-13.702 39.965-13.702 39.965l-37.682 15.986-.571-47.387s20.553-47.958 31.972-101.626c11.065-52.023 17.847-72.931 38.013-85.605 0 0 .194-.137.559-.343.457-.286.925-.559 1.393-.834 21.695-12.56 83.356-13.702 89.065-13.702 5.709 0 26.263 5.709 35.398 26.263s6.851 19.412 13.702 22.837c.001 0-59.375 1.142-102.195 19.983z"/><path fill="#6c4e4e" d="M1761.473 1069.05c-.24-.057-1.667-.388-4.51-.617h-.011c-3.174-.251-8.119-.377-15.175.16-1.188.091-2.443.206-3.768.331-5.858.582-12.937 1.587-21.387 3.254-1.382.263-2.82.559-4.282.868-8.404 1.77-18.053 4.156-29.06 7.354a179.4 179.4 0 0 0-3.939 1.165c-11.122 3.311-23.579 7.433-37.465 12.526-.091.023-.171.057-.263.091 0 0-.571-47.387-13.131-61.09-10.551-11.51-19.663-8.084-22.312-6.703.388-.251.788-.491 1.188-.719.343-.194.685-.388 1.05-.582 20.748-11.247 74.655-19.617 87.787-20.93 0 0 .011-.011.011 0 1.176-.126 2.033-.183 2.501-.183 2.124 0 6.931 1.896 12.595 5.333 0 0 .011 0 .023.011h.011c5.481 3.334 11.738 8.073 17.185 13.954a79 79 0 0 1 2.238 2.523.764.764 0 0 1 .091.103c.274.331.537.674.811 1.016 2.786 3.471 5.207 7.262 7.011 11.316a155.865 155.865 0 0 0 1.964 4.271l.034.068c8.128 17.173 14.466 23.294 20.803 26.48z"/><path fill="#ed4450" d="M1574.813 1240.911s5.709 26.263 4.568 28.547c-1.142 2.284-26.263 15.986-57.093 15.986s-68.512-19.412-69.654-26.263c-1.142-6.851 36.54-18.27 42.249-21.695 5.709-3.426 31.972-29.688 38.823-28.547 6.851 1.142 17.128 4.567 18.27 10.277 1.142 5.709 0 22.837 7.993 23.979s14.844-2.284 14.844-2.284z"/><path fill="#c02328" d="M1544.902 1235.847c-8.591 4.464-16.805 9.938-25.583 14.012-8.889 4.126-20.031-4.061-27.38-8.817-2.164-1.401-4.008 1.944-1.99 3.405 6.498 4.703 16.801 11.95 25.325 11.261 5.064-.409 9.731-3.832 14.055-6.204 5.941-3.261 11.945-6.431 17.806-9.836 2.474-1.437.287-5.13-2.233-3.821z"/><path fill="#3a1b23" d="M1580.272 1269.703c-.054-.265-.098-.53-.158-.794-8.057 6.019-19.333 9.642-28.803 12.448-11.626 3.444-23.518 3.542-35.455 1.886-11.094-1.539-22.336-3.888-33.091-7.019-5.414-1.576-10.641-3.593-15.665-6.161-4.361-2.229-11.822-5.249-13.316-10.387-.214-.737-.602-1.271-1.078-1.63-2.608 2.605-3.018 5.647-2.18 8.783 4.952 6.323 14.854 10.194 21.379 12.82 13.048 5.251 27.622 8.024 41.498 10.06 12.971 1.903 25.99 2.108 38.693-1.494 8.519-2.415 18.475-5.661 26.701-10.419 1.11-2.429 1.75-5.002 1.475-8.093z"/><path fill="#6dafa9" d="M1711.298 1009.303s18.237 9.516 27.372 28.928c9.135 19.412 7.993 22.837 27.405 37.682s38.823 13.702 44.533 0c5.709-13.702 0-25.121-7.993-35.398-7.993-10.277-50.242-7.993-50.242-7.993s-25.056-20.175-41.075-23.219z"/><path fill="#338c81" d="M1727.088 1018.438c-12.6-12.056-28.36-19.852-45.511-22.906-2.521-.449-3.292 3.431-.772 3.904 16.466 3.092 34.054 13.258 46.403 24.555 1.898 1.738 1.722-3.79-.12-5.553z"/><path fill="#261a1a" d="m2273.028 799.979 11.082-70.382s-30.013-32.3-4.092-52.65c8.364-6.566 17.344-9.244 25.676-9.876 2.277-4.091 5.876-6.872 11.746-6.659 7.845.284 15.227 3.673 21.16 8.7 2.148-8.534 9.809-25.09 35.77-6.882 8.632 6.055 15.163 14.544 18.544 24.547 3.767 11.146 3.395 21.351 1.499 33.014 9.347 2.384 14.269 13.071 14.404 22.716.017 1.183-.011 2.405.443 3.497.387.931 1.092 1.686 1.759 2.442a47.225 47.225 0 0 1 8.854 14.807c1.957 5.283 2.949 10.873 3.658 16.461 1.894 14.935 2.907 30.47.175 45.217-.17.916-.339 1.864-.126 2.771.291 1.242 1.243 2.203 2.147 3.103 4.743 4.723 21.871 12.012 25.12 17.863s5.114 12.664 4.124 19.284c-1.665 11.131-10.83 19.563-20.214 25.776-.962.637-1.954 1.281-2.642 2.208-1.268 1.708-1.265 4.004-1.369 6.129-.798 16.23-11.269 31.128-25.281 39.357s-43.647 7.989-59.723 5.617c-17.682-2.609-36.343-9.917-50.717-20.564l-20.742-15.362c-2.475-1.833-5.707-5.361-8.649-6.406 0 0-65.928-23.497-60.188-51.513 10.276-50.153 67.582-53.215 67.582-53.215z"/><path fill="#e5906b" d="M2353.204 787.414c-11.073 15.129-13.823 48.082-12.055 61.28-2.437.249-4.868.316-7.08.369-7.955.191-16.133-.542-23.854-2.448-12.07-2.98-43.13-1.398-43.11-1.413 1.112-.873 6.852-6.851 14.142-18.812 1.927-3.161 3.429-7.566 5.061-11.839a1.103 1.103 0 0 1-.252.001l-.11.002c-3.606.022-23.573-1.06-32.53-18.821-11.254-31.619 16.619-67.182 40.145-91.214 6.49-6.584 18.256-11.242 27.252-7.798 8.408 3.232 9.602 11.354 15.639 16.897 3.077 2.81 7.12 4.257 10.781 6.271 3.662 1.999 7.236 4.995 7.952 9.11.402 2.283-.149 4.64-.034 6.952.16 3.245 1.614 6.332 1.617 9.574-.006 2.14-.617 4.206-1.043 6.311-.609 2.964-.816 5.992-.897 9.02-.029 1.287.02 2.709.918 3.62 1.84 1.843 3.731-1.707 5.19-2.586 2-1.191 4.093-2.23 6.266-3.023 4.083-1.491 9.563-2.563 12.991.856 6.537 6.358 2.375 16.747-.194 21.348-9.656 17.189-25.992 6.865-26.795 6.343z"/><path fill="#d05c48" d="M2278.721 751.922c.688-1.294 2.39-1.831 3.687-1.124l3.829 2.085c1.292.704 1.82 2.379 1.124 3.687-.688 1.294-2.39 1.831-3.687 1.124l-3.829-2.085c-1.291-.703-1.819-2.379-1.124-3.687z"/><path fill="#261a1a" d="M2327.982 715.43c2.734 2.649 2.161 1.884 4.752 4.684 2.63 2.842 4.896 6.006 7.412 8.946 2.271 2.651-1.669 6.421-3.96 3.746-2.516-2.937-4.773-6.115-7.412-8.946-2.602-2.79-2.018-2.035-4.752-4.685-2.517-2.438 1.441-6.187 3.96-3.745zM2294.371 716.047c.78-.35 1.371-1.074 1.496-1.952.187-1.324-.753-2.5-2.102-2.63-1.592-.153-3.276-.324-4.854-.077-1.234.193-2.447.497-3.657.805-.98.249-2.205.42-2.987 1.12-.752.672-1.85 2.62-1.11 3.602.659.875 2.456-.003 3.325-.136 2.842-.433 5.726-.782 8.598-.517.454.043.897-.038 1.291-.215z"/><path fill="#b5483c" d="M2323.752 807.994c-10.585 11.316-24.542 19.66-42.504 18.395 1.657-3.31 3.429-7.566 5.061-11.839a1.103 1.103 0 0 1-.252.001l.479-.053s.126-.001.157.003c13.365.492 27.822-3.386 37.059-6.507z"/><path fill="#fff" d="M2266.044 762.229s25.821 5.115 31.852 6.17c6.031 1.055-19.875 16.556-24.663 12.876-8.154-6.267-7.189-19.046-7.189-19.046z"/><path fill="#1a1a1a" d="M2315.647 744.421c1.13.237 2.557.782 3.541 1.396 1.38.862 1.192 2.714 2.369 3.636 1.625 1.275 4.376.293 4.516-1.722.158-2.283-1.721-4.539-3.63-5.581-1.139-.622-2.387-.851-3.626-1.172-1.284-.332-2.632-.321-3.95-.309-.829.008-1.69.023-2.438.376-.967.457-2.625 2.863-.946 3.378.534.164 1.107.013 1.659-.076.82-.132 1.674-.1 2.505.074zM2267.99 736.028c-.406-.136-.556-.625-.575-1.047-.095-2.056 1.534-3.888 3.453-4.705 2.104-.896 5.263-1.307 7.369-.253.504.252.999.623 1.156 1.158.355 1.209.046 2.341-.893 3.217-1.911 1.782-3.602.104-5.604-.331-.851-.185-1.492-.064-2.302.262-.35.14-2.511 1.73-2.604 1.699z"/><path fill="#e5906b" d="M2074.132 727.088c-19.231-34.617-21.119-59.969-17.13-78.615.377-1.764.814-3.548.69-5.347-.125-1.799-.918-3.659-2.472-4.575-2.438-1.437-5.582-.047-7.752 1.77-4.004 3.353-6.663 8.102-8.224 13.086-1.045 3.338-3.965-2.179-4.872-3.324a709.778 709.778 0 0 0-22.371-26.891c-1.011-1.156-2.058-2.335-3.421-3.042-1.363-.707-3.131-.847-4.373.057-.495.36-.892.871-1.459 1.102-2.298.938-5.647-3.549-7.765-4.234-1.773-.573-4.011-.165-4.98 1.427-1.936 3.182.502 7.583 2.132 10.312 3.71 6.208 7.837 12.092 11.4 18.366 1.359 2.394 2.677 5.016 2.413 7.756-2.305.126-4.121-1.842-5.573-3.638l-9.872-12.217c-1.493-1.848-3.06-3.755-5.204-4.781-2.686-1.284-5.895-.533-5.753 2.996.111 2.768 2.01 6.238 3.552 8.451 3.843 5.516 7.459 10.949 11.671 16.146 1.637 2.02 3.861 4.784 3.777 7.519l-9.789-6.582c-1.132-.761-2.268-1.525-3.49-2.131-1.253-.622-2.806-1.056-4.001-.33-1.065.647-1.469 2.05-1.294 3.283.321 2.254 1.473 4.769 2.947 6.465 8.178 9.411 17.404 17.871 25.539 27.318 2.757 3.302 5.868 6.642 8.038 10.376 5.596 9.629 18.234 52.4 19.172 55.174 12.175-12.814 36.565-18.24 38.464-35.897z"/><path fill="#d3745c" d="M2014.476 689.286c1.957-6.066 4.722-11.917 8.346-17.173 2.353-3.413 6.125-8.288 10.743-8.083 3.906.173 2.87 3.724-.833 4.093-2.703.27-5.817 6.906-7.012 8.969-2.278 3.932-3.468 9.779-5.002 14.05-1.405 3.91-7.54 2.166-6.242-1.856z"/><path fill="#ed4450" d="M2178.041 915.996s-85.64-33.114-103.91-52.526c-18.27-19.412-51.384-93.633-50.242-99.342s23.979-43.391 45.675-45.674l47.958 86.782s4.567-3.426 12.561 2.284c7.993 5.709 7.993 10.277 18.27 14.844 14.345 6.375 30.896-1.245 43.184 11.349.606.622 1.202 1.285 1.977 1.676.899.453 1.943.492 2.949.508 8.052.13 16.16-.59 24.13.571 6.376.929 12.511 3.041 18.782 4.522 7.518 1.775 17.145 2.9 24.723.786 7.07-1.972 14.058-4.287 21.104-6.348 15.82-4.626 31.701-9.068 47.673-13.143a711.913 711.913 0 0 1 10.171-2.523c2.102-.503 6.894-.653 8.559-1.965 0 0 21.695-17.128 37.681-27.405 15.986-10.277 12.561-20.554 22.837-28.547 10.277-7.993 14.844-9.135 14.844-9.135l27.405-111.903 52.526 42.249c-1.574 9.655-22.279 93.336-23.939 99.974-.567 2.266-1.253 4.494-1.856 6.748-.551 2.057-.469 4.046-1.46 6.004-1.462 2.887-3.917 5.182-6.361 7.238-3.412 2.872-7.148 5.697-8.943 9.781-2.971 6.76-1.77 14.186-4.063 21.119-2.146 6.486-6.678 11.873-11.26 16.941-3.05 3.374-6.187 6.704-9.804 9.462-1.75 1.335-3.621 2.544-5.109 4.166-2.764 3.014-3.923 7.118-5.771 10.765-2.289 4.516-5.643 8.353-8.862 12.216-3.475 4.17-5.854 8.496-8.679 13.051-5.725 9.231-10.728 18.724-18.081 26.894-7.415 8.239-17.49 11.887-21.038 23.257-2.625 8.412-1.39 17.783-4.784 25.916-2.942 7.052-8.963 12.246-14.11 17.894-5.807 6.372-9.024 13.027-9.161 21.676-.189 11.966 2.023 24.812-3.213 36.082-6.979 15.02-25.263 18.834-40.185 20.191-50.242 4.568-157.577-90.207-157.577-90.207s-3.426-12.56 3.426-20.554c6.851-7.993 25.692-15.415 25.692-15.415s-5.709-3.426-1.142-11.419c4.569-7.992 7.994-10.276 7.423-18.84z"/><path fill="#5e542b" d="M1918.511 1269.124c5.538-.54 10.917-1.949 15.805-4.612 15.926-8.676 22.204-27.786 28.99-44.604 26.328-65.262 43.456-94.951 89.131-146.334 37.931-42.672-111.903 59.377-111.903 59.377l-29.212 49.794c-6.106 10.408-12.068 20.919-18.427 31.173-9.233 14.885-4.775 33.089 1.005 48.98.519 1.426 1.112 2.906 2.277 3.88 1.191.996 2.795 1.309 4.328 1.555 5.91.948 12.05 1.372 18.006.791z"/><path fill="#526ea0" d="M1899.427 1018.764s-52.526-73.079-39.965-86.782c14.741-16.081 67.37-47.958 114.186-85.64 46.816-37.681 76.505-43.391 95.917-22.837 19.412 20.554 78.789 166.712 78.789 166.712l-114.186 5.709-21.124-61.09c-.002.001-57.095 55.952-113.617 83.928z"/><path fill="#2d303f" d="M1859.461 931.982c-9.135 11.419 18.27 54.809 18.27 54.809l9.135-31.972c0 .001-18.467-34.009-27.405-22.837z"/><path fill="#f69f7c" d="m1844.617 992.501 41.107-39.965s28.36 44.966 21.031 62.448l-17.606 9.489-36.54-17.128-7.992-14.844z"/><path fill="#464c7b" d="M2058.819 892.951c-6.941 10.278-15.541 19.063-25.577 26.064a375.523 375.523 0 0 0 18.632-24.673c2.342-3.384-2.814-4.516-5.147-1.183-11.568 16.522-24.626 30.128-38.506 44.764-2.7 2.848 1.513 3.744 4.25.911 4.233-4.381 8.41-5.462 12.427-10.029 15.215-7.917 28.08-19.403 37.496-33.764 1.468-2.241-2.093-4.283-3.575-2.09z"/><path fill="#f1e6dc" d="M1908.204 1074.205c1.106 11.06-86.271 16.591-86.271 16.591s-63.044-7.742-74.105-16.591c-3.805-3.031-6.813-6.47-8.915-10.109-1.925-3.351-3.086-6.88-3.351-10.452-.298-3.849 1.776-6.193 4.004-9.758 5.709-9.135 22.837-11.419 30.83-12.561 7.665-1.095 22.054-9.35 33.114-15.986 11.06-6.636 25.121-27.405 41.649-27.405 6.636 0 15.484 19.909 25.439 27.651 9.954 7.742 26.545 6.636 28.757 7.742 1.228.608 3.805 16.159 5.862 29.918 1.25 8.24 2.29 15.849 2.743 19.179.155 1.139.244 1.781.244 1.781z"/><path fill="#ed4450" d="M1823.696 1018.536c-8.724 2.168-16.141 4.639-16.141 4.639 13.979 9.677 19.355 33.334 19.355 33.334s7.873-.202 16.796-.606c-4.191-13.745-9.866-27.081-20.01-37.367zM1847.339 1015.648c-3.235-.647-8.131-.214-13.386.695 5.379 4.927 8.829 11.78 12.069 18.282 3.329 6.681 6.125 13.608 8.428 20.697 7.885-.513 14.395-1.193 14.395-2.04 0-2.15-10.753-35.484-21.506-37.634z"/><path fill="#fff" d="M1908.204 1074.205c1.106 11.06-86.271 16.591-86.271 16.591s-63.044-7.742-74.105-16.591c-3.805-3.031-6.813-6.47-8.915-10.109-1.925-3.351-3.086-6.88-3.351-10.452.52-1.703 4.546-10.751 31.622-8.749 29.863 2.212 49.772 9.954 77.423 7.742 24.565-1.969 51.763-3.053 60.611.608 1.25 8.24 2.29 15.849 2.743 19.179.154 1.139.243 1.781.243 1.781z"/><path fill="#6c4e4e" d="M1908.204 1074.205c1.106 11.06-86.271 16.591-86.271 16.591s-63.044-7.742-74.105-16.591c-3.805-3.031-6.813-6.47-8.915-10.109.276-1.084 1.106-2.035 2.831-2.61 6.636-2.212 35.393-2.212 56.408 4.424 21.015 6.636 64.15 9.954 74.104 7.742 7.676-1.703 27.164-1.438 35.703-1.228l.245 1.781z"/><path fill="#c0b47b" d="M1717.412 1072.546s43.136 0 77.423 12.166c0 0 37.605-16.591 131.619-15.485 94.013 1.106-2.212 36.499-2.212 36.499l-124.983 23.227-94.013-22.121 12.166-34.286z"/><path fill="#5f7ab3" d="m2289.944 1089.56-232.94-17.128-113.044 109.619s-76.505-51.384-57.093-76.505c22.483-29.096 117.612-140.449 141.591-147.3 23.979-6.851 114.186 23.979 114.186 23.979s61.661-3.426 110.761 25.121c49.099 28.546 65.085 76.504 36.539 82.214z"/><path fill="#c0b47b" d="M2062.713 1067.864s78.789-9.135 161.574-1.713c67.255 6.03 151.868 19.412 151.868 19.412l-15.986 46.816-304.877-17.128 7.421-47.387z"/><path fill="#988c54" d="M2340.186 1076.999c-34.845-7.763-71.759-9.774-107.484-11.102-2.549-.095-2.461 3.672 0 3.907 35.518 3.393 70.537 7.657 105.437 15.297 2.752.604 4.809-7.487 2.047-8.102z"/><path fill="#464c7b" d="M2228.283 1016.48c-12.595-6.38-30.205-16.71-43.208-22.214-12.482-5.284-27.515-11.977-40.586-15.633-3.008-.841-5.238 3.916-2.196 5.21 12.632 5.37 27.941 10.919 40.556 16.365 12.623 5.449 25.039 11.358 37.266 17.644 3.797 1.95 11.979.559 8.168-1.372zM2271.391 1050.771c-7.37 9.63-20.926 10.942-31.972 8.401-13.127-3.019-25.015-9.974-37.89-13.862-13.102-3.957-26.631-6.199-40.084-8.588-6.745-1.197-13.487-2.431-20.172-3.933-5.367-1.206-12.019-2.637-15.446-7.386-1.834-2.541-1.306-5.843-3.069-8.342-1.122-1.591-2.927-2.407-4.812-2.661-6.128-.827-10.781 4.429-16.623 4.439l.016-8.293c.004-2.082.314-4.686-1.029-6.467-2.814-3.733-8.691-.269-11.62 1.488-4.903 2.941-9.049 6.956-13.052 10.993-4.831 4.872-9.645 9.76-14.505 14.602-19.438 19.367-39.3 38.304-59.53 56.841-11.329 10.381-22.816 20.581-34.341 30.743-.965.851.443 2.237 1.406 1.407 37.515-32.307 73.399-66.484 108.228-101.654 4.418-4.461 8.986-8.957 14.593-11.909 1.326-.698 2.78-1.469 4.267-1.758 2.96-.576 3.315 2.517 3.316 4.674.002 3.468-.014 6.936-.021 10.404-.001.666.525 1.062 1.134 1.133 6.228.734 10.816-4.887 16.908-4.458 4.056.285 4.212 3.095 5.103 6.354.643 2.352 1.993 4.393 3.825 5.99 3.781 3.295 8.84 4.712 13.62 5.814 7.19 1.657 14.455 2.971 21.718 4.259 13.794 2.447 27.672 4.763 41.068 8.958 13.24 4.146 25.587 11.663 39.359 14.004 11.395 1.937 24.22-.447 31.567-10.047.892-1.16-1.083-2.294-1.962-1.146z"/><path fill="#2d303f" d="M1929.979 1117.657s-35.12-25.813-44.759-9.155c-11.479 19.839 39.327 65.556 39.327 65.556l5.432-56.401z"/><path fill="#f69f7c" d="m1965.181 1161.472-53.194 54.835-57.093-51.384s22.837-10.277 34.256-19.412 36.54-30.83 36.54-30.83 40.159 26.212 39.491 46.791z"/><path fill="#f1e6dc" d="M1923.506 1249.462c-2.487 9.587-6.135 17.563-10.913 20.576 0 .011 0 .011-.011.022-1.194.767-2.465 1.205-3.802 1.293-17.53 1.096-51.495-10.956-79.982-23.009-28.487-12.052-81.078-30.678-88.747-46.017-.811-1.621-1.424-3.166-1.863-4.646-1.611-5.358-.931-9.751.909-13.268 2.443-4.656 6.924-7.757 10.814-9.477 9.861-4.383 33.965-2.191 47.113-2.191 13.148 0 60.26-18.626 65.739-17.53 5.478 1.096 9.861 21.913 24.104 32.869 14.243 10.957 29.582 3.287 37.252 10.957 4.745 4.744 4.46 30.919-.613 50.421z"/><path fill="#ed4450" d="M1827.076 1183.505c6.414 4.78 12.679 29.408 12.679 29.408s15.339 25.854 15.339 6.464c0-13.681-7.631-29.925-12.128-38.312-5.634-.347-11.579.115-15.89 2.44zM1853.22 1182.502a74.372 74.372 0 0 0-1.503-.307c9.416 14.545 16.525 44.938 16.525 44.938l14.243 2.585s-4.147-26.062-11.338-40.69c-5.798-2.827-11.756-5.195-17.927-6.526z"/><path fill="#fff" d="M1923.506 1249.462c-2.487 9.587-6.135 17.563-10.913 20.576 0 .011 0 .011-.011.022-1.194.767-2.465 1.205-3.802 1.293-17.53 1.096-51.495-10.956-79.982-23.009-28.487-12.052-81.078-30.678-88.747-46.017-.811-1.621-1.424-3.166-1.863-4.646-1.611-5.358-.931-9.751.909-13.268 4.098-2.235 13.378-5.796 26.153-1.808 17.53 5.478 37.252 18.626 69.026 28.487 31.774 9.861 69.026 21.913 79.982 27.391 5.851 2.937 8.273 7.429 9.248 10.979z"/><path fill="#6c4e4e" d="M1912.593 1270.038c0 .011 0 .011-.011.022-1.194.767-2.465 1.205-3.802 1.293-17.53 1.096-51.495-10.956-79.982-23.009-28.487-12.052-81.078-30.678-88.747-46.017-.811-1.621-1.424-3.166-1.863-4.646.208-.888.778-1.567 1.863-1.928 6.574-2.191 36.156 6.574 54.782 17.53s42.73 19.722 65.739 26.295c22.997 6.575 63.427 19.307 52.021 30.46z"/><path fill="#464c7b" d="M2085.75 1043.448c-10.16 8.259-23.066 20.646-31.896 30.313-2.734 2.993 1.507 5.081 4.292 2.096 8.927-9.568 22.104-19.512 32.298-27.716 3.321-2.673-1.401-7.37-4.694-4.693z"/><path fill="#c02328" d="M2351.665 814.873c-8.51 6.203-14.171 15.142-15.66 25.625-.549 3.862 5.344 5.56 5.936 1.636 1.322-8.764 5.904-21.341 13.089-26.622 3.237-2.379-.069-3.042-3.365-.639zM2426.967 747.001c-1.692 7.756-6.284 17.274-8.267 24.959-1.022 3.96 4.949 5.597 6.116 1.686 2.27-7.607 3.982-18.792 5.529-26.575.766-3.857-2.529-3.961-3.378-.07zM2132.129 832.376c-3.737-11.449-9.703-18.43-14.607-29.424-1.637-3.671-6.769-4.446-5.188-.811 4.689 10.786 8.775 22.198 14.562 32.441 1.569 2.778 6.256.927 5.233-2.206z"/><path fill="#988c54" d="M2182.108 902.996c-.678-14.999-.384-25.885-2.925-40.667-.562-3.268-3.564-3.623-3.248-.285 1.211 12.798.964 23.122.964 36.824 0 12.489-1.76 22.37-12.176 30.585-2.827 2.23.772 6.319 3.697 4.792 11.201-5.849 14.215-19.587 13.688-31.249z"/><path fill="#c02328" d="M2294.511 981.083c-6.46-12.759-13.736-25.947-17.128-39.965-1.461-6.04-3.024-13.135-6.851-18.27-3.635-4.878-11.412-6.192-17.128-6.851-15.75-1.815-27.548-1.524-43.391-2.284-4.408-.211-11.573.023-15.986 0-2.908-.015-5.407.11-7.551 2.303-2.523 2.582-4.066 6.591-5.808 9.71-2.19 3.925-4.416 7.832-6.46 11.836-.491.963.876 1.773 1.454.85 3.625-5.795 6.911-11.802 10.333-17.717 1.066-1.842 2.102-3.798 4.345-4.395 1.44-.383 3.073-.247 4.547-.232 3.611.037 7.221.151 10.828.313 13.838.621 27.627 2.043 41.388 3.593 6.261.705 14.561.224 19.235 5.133 4.324 4.541 4.946 11.279 6.282 17.102 2.746 11.966 8.334 22.989 13.931 33.828 1.563 3.027 3.134 6.049 4.654 9.098 1.57 3.149 4.02 6.886 4.226 10.454.234 4.041-2.382 8.073-4.024 11.609l-4.987 10.746c-.657 1.415 1.445 2.655 2.106 1.231 1.662-3.582 4.322-4.821 5.984-8.403 1.409-3.038 4.928-8.132 5.709-11.419 1.429-6.001-3.111-13.141-5.708-18.27z"/><path fill="#c02328" d="M2394.618 915.845c-8.132 1.814-16.195 3.078-23.929-.854-6.722-3.417-11.704-9.269-15.383-15.737-7.665-13.478-10.679-29.082-12.869-44.253-.159-1.102-2.11-.852-1.963.266 2.163 16.415 5.537 33.824 14.682 47.947 3.971 6.134 9.29 11.499 16.059 14.459 7.854 3.434 15.912 2.126 23.999.331 1.405-.311.811-2.472-.596-2.159z" opacity=".5"/><path fill="#c02328" d="M2179.126 829.373c-11.381 2.009-15.684 13.967-16.135 24.178-.612 13.862 3.15 27.453 6.83 40.676.321 1.155 2.109.667 1.798-.496-3.15-11.756-6.385-23.696-6.569-35.945-.156-10.417 2.505-24.056 14.657-26.305 1.385-.256.794-2.35-.581-2.108z"/><path fill="#842a2e" d="M2475.202 671.783s31.695 15.841 31.695 10.132-9.135-18.27-25.121-29.688c-15.985-11.42-6.574 19.556-6.574 19.556z"/><path fill="#e5906b" d="M2451.944 650.722s5.854-49.88 10.421-56.731c4.567-6.851 9.135-4.568 12.56-14.844 3.426-10.277 1.142-28.547 10.277-31.972 9.131-3.424 13.128 6.271 13.131 6.28-.237-.575 4.432-3.402 4.897-3.725 1.576-1.095 3.183-2.206 5.012-2.784 1.83-.579 3.95-.554 5.537.524 1.028.698 1.738 1.76 2.526 2.721a18.239 18.239 0 0 0 3.784 3.475c1.297.89 2.742 1.641 3.708 2.882 1.469 1.886 1.529 4.483 1.405 6.87-.115 2.215-.34 4.581.554 6.677 1.544 3.622 6.59 3.694 6.576 8.111-.022 7.378-2.226 15.096-7.054 20.731-5.531 6.455-13.143 10.68-19.995 15.709-2.243 1.646-4.463 3.441-5.905 5.821l-10.752 56.88c.002 0-31.117-9.859-36.682-26.625z"/><path fill="#d3745c" d="M2503.121 554.559c.74-1.852-2.058-3.42-3.516-3.884-6.58-2.095-9.974 3.807-12.999 8.649-2.903 4.646-7.656 12.871-3.022 17.936.463.506.944.888 1.433 1.212-2.797 1.891-5.707 3.606-8.538 5.443-1.993 1.293-3.524 2.575-5.226 4.231-.27.262-.562.591-.494.961.062.336.417.552.758.57.341.018.669-.115.984-.247a139.23 139.23 0 0 0 11.883-5.664c3.606-1.934 7.12-4.465 10.233-7.113 2.171-1.846 5.265-6.168 4.549-9.212-.451-1.914-2.173-1.159-3.005.055-1.18 1.721-2.3 3.39-3.749 4.909-1.095 1.148-1.908 2.953-3.698 3.041-4.077.199-2.364-5.583-1.636-7.58 1.086-2.985 2.758-5.841 4.556-8.45 1.71-2.48 2.961-4.615 6.067-4.301 1.328.134 3.592 1.492 4.777.349.316-.307.525-.609.643-.905z"/><path fill="#988c54" d="M1867.529 1067.87c-17.258 1.961-36.926 3.625-53.742 7.988-15.46 4.011-36.962 12.247-49.837 22.146-2.268 1.744-.045 5.665 2.281 3.902 12.626-9.575 38.082-18.068 53.189-21.97 16.402-4.237 31.212-6.683 48.035-8.645 2.997-.351 3.115-3.767.074-3.421z"/><path fill="#c0b47b" d="M2287.66 1195.753s-12.696-154.389 30.763-197.09c43.458-42.701 87.026-38.083 127.474-36.396 40.448 1.687-21.213 94.178-21.213 94.178l-41.107 125.605-95.917 13.703z"/><path fill="#988c54" d="M2476.476 962.077c-43.106-4.946-91.796-10.379-128.047 9.574-35.389 19.499-55.203 51.089-62.355 99.404-.469 3.09-.881 6.252-1.258 9.657-3.29 29.17-2.647 62.095-1.967 96.952.29 14.891.577 30.059.592 45.515 2.364-.177 4.727-.347 7.093-.501-.021-15.34-.307-30.382-.594-45.153-.675-34.617-1.314-67.315 1.925-96.028.365-3.315.765-6.381 1.224-9.391 6.896-46.585 25.018-75.651 58.762-94.245 34.492-18.984 80.308-13.736 124.626-8.647v-7.137z"/><path fill="#edb24c" d="M2731.207 1074.964a11.154 11.154 0 0 0-2.763-4.13 4.991 4.991 0 0 0 .529-2.026c1.255-23.22-26.11-13.879-37.438-.709a13.918 13.918 0 0 0-4.977-2.96c-.529-8.911-2.026-20.203-13.562-17.848-8.033 1.64-14.374 7.328-19.495 13.66-1.826-.547-3.958-.687-6.415-.307-6.561 1.016-14.024 4.222-19.25 9.209a16.826 16.826 0 0 0-2.408-4.938c-3.358-4.675-9.391-6.655-14.959-6.215-5.255.415-11 3.336-15.527 7.539-3.914-8.728-13.184-18.34-20.859-8.451-3.564 4.592-3.871 10.725-2.516 16.753l-.038-.026c-3.89-2.599-8.419-5.083-13.267-3.872-9.04 2.258-8.44 12.256-5.477 19.67a4.29 4.29 0 0 0 .024.769c1.731 13.945 16.772 21.443 28.344 26.601 14.292 6.368 29.722 9.704 45.347 10.233 17.035.576 34.223-2.181 50.478-7.195 16.417-5.064 31.702-12.998 47.741-19.042 1.653 1.415 4.4 1.794 6.421.165 4.728-3.812 9.198-12.037 9.115-18.222-.075-5.649-4.296-8.616-9.048-8.658z"/><path fill="#ea4550" d="M2542.663 1086.094s-8.165 88.182 99.613 94.714c107.778 6.532 102.879-94.714 102.879-94.714h-202.492z"/><path fill="#d69939" d="M2635.576 1076.61c-3.56-10.799-11.146-20.352-23.607-19.028-12.111 1.288-24.178 12.414-29.201 23.082-1.609 3.417 3.361 6.436 5.133 3 3.59-6.957 10.111-13.53 17.089-17.133 12.066-6.229 20.12.758 24.435 11.774 1.464 3.737 7.46 2.276 6.151-1.695zM2651.546 1060.049c-2.524 3.323-4.559 6.929-6.311 10.71-1.439 3.105 2.888 5.794 4.671 2.73 2.087-3.587 4.373-7.046 6.664-10.504 2.113-3.191-2.822-5.836-5.024-2.936zM2690.733 1067.133c-4.728 3.697-8.912 8.884-11.261 14.439-1.365 3.228 2.772 5.875 4.803 2.807 3.165-4.78 6.432-9.146 10.373-13.331 2.512-2.667-1.175-6.057-3.915-3.915z"/><path fill="#333" d="M2665.839 1176.36s-3.967-13.478-.701-15.111c3.266-1.633 114.31-3.266 119.209-1.633 4.899 1.633 2.929 16.293 2.929 16.293l-121.437.451z"/><path fill="#be2328" d="M2686.878 1164.521c-1.514 0-2.966 1.332-2.896 2.896.071 1.569 1.273 2.896 2.896 2.896 1.515 0 2.966-1.332 2.896-2.896-.07-1.568-1.272-2.896-2.896-2.896z"/><path fill="#1a1a1a" d="M2714.657 1164.179c-.086-3.66-5.604-3.667-5.69 0-.075 3.212-.556 6.74.311 9.866.693 2.5 4.374 2.502 5.068 0 .869-3.128.387-6.655.311-9.866z"/><path fill="#766780" d="M2890.493 1465.767c3.266 12.248-106.402 8.982-241.685 8.982s-248.217 1.633-248.217-8.982c0-5.862 108.035-4.082 243.317-4.082 135.284-.001 245.074-1.582 246.585 4.082z"/><path fill="#a7644c" d="M2545.929 1198.771s-112.677 266.179-106.145 269.445 21.229 0 21.229 0l111.044-264.546-26.128-4.899zM2753.039 1197.138s111.044 264.547 104.512 267.812c-6.532 3.266-21.229 0-21.229 0l-109.411-262.913 26.128-4.899z"/><path fill="#90503d" d="M2629.212 1200.404s16.33 262.913 24.495 264.546c8.165 1.633 16.33 0 16.33 0l-9.798-267.812-31.027 3.266z"/><path fill="#812a2e" d="M2483.875 1175.909s-6.532 32.66 1.633 34.293c8.165 1.633 331.765 12.533 339.665-3.266 4.899-9.798-4.899-32.66-4.899-32.66l-336.399 1.633z"/><path fill="#681d23" d="M351.06 1311.081s-11.406 146.399-7.416 147.991c3.99 1.593 30.936 0 30.936 0l23.296-145.708-46.816-2.283z"/><path fill="#766780" d="M903.34 1460.808c0 6.702 26.309 11.065-233.7 14.701-274.043 3.832-377.957-7.999-377.957-14.701s22.651-9.278 309.445-9.278c254.293 0 302.212 2.576 302.212 9.278z"/><path fill="#812a2e" d="M421.856 1307.656s-4.568 20.553 2.284 37.682c6.851 17.128 22.837 63.944 20.553 77.647-2.284 13.702-19.412 44.533-12.56 51.384 6.851 6.851 37.681 6.851 42.249 0 4.567-6.851 1.142-19.412-4.568-34.256-5.709-14.844-6.851-13.702-6.851-22.837s2.284-84.498 5.709-89.065c3.426-4.567 14.844-27.405 14.844-27.405l-61.66 6.85zM876.953 1299.232s5.725 20.262-.144 37.75c-5.869 17.489-19.176 65.136-16.12 78.687 3.057 13.551 21.904 43.361 15.452 50.589-6.452 7.228-37.233 8.976-42.181 2.394-4.948-6.581-2.24-19.316 2.619-34.46 4.859-15.144 6.064-14.069 5.546-23.189-.518-9.12-7.069-84.233-10.748-88.599-3.679-4.366-16.374-26.519-16.374-26.519l61.95 3.347z"/><path fill="#681d23" d="M714.173 1304.23s17.141 149.824 21.131 151.417c3.99 1.593 30.936 0 30.936 0l-5.251-149.133-46.816-2.284z"/><path fill="#c0b47b" d="m700.23 1041.898-309.205 89.91-98.2-175.847s-33.377-118.229-45.218-236.206a854.146 854.146 0 0 1-2.741-33.274c-2.672-42.843-3.688-72.748-2.135-92.445 3.095-39.12 16.294-38.058 46.668-18.315 0 0 291.175-21.695 356.261 6.851 0 0 61.661-47.958 97.058 27.405 35.399 75.363-42.488 431.921-42.488 431.921z"/><path fill="#988c54" d="M670.528 913.718c-8.759-47.569-20.074-273.326-22.73-321.618-.139-2.528-4.039-2.564-3.961 0 1.471 48.396 12.903 275.314 22.544 322.761.554 2.723 4.644 1.556 4.147-1.143zM325.421 642.284c-4.716-20.826-14.109-43.365-30.704-57.53-1.961-1.674-4.33.811-2.782 2.782 12.796 16.286 21.79 33.454 26.548 53.724 5.114 21.786 5.272 44.394 4.21 66.634-2.229 46.685-6.273 93.34-9.476 139.968l-5.457 88.581c-.301 4.383 6.525 4.365 6.824 0 3.352-48.803 6.718-106.739 10.051-155.544 1.636-23.958 3.586-47.919 4.759-71.905 1.091-22.271.976-44.858-3.973-66.71z"/><path fill="#1a1a1a" d="M387.6 1000.494c4.567-1.142 103.412-8.405 103.412-8.405l16.484 123.733-132.456 37.682 12.56-153.01z"/><path fill="#988c54" d="M482.374 636.24s10.277 29.688 13.702 59.377c3.426 29.688-29.689 81.072-29.689 81.072l133.598-50.242-41.107-110.761-76.504 20.554z"/><path fill="#c0b47b" d="M751.854 935.408s134.74-14.844 155.293 21.695c20.554 36.54-2.284 115.328-2.284 172.421 0 57.093 12.561 153.01-5.709 164.428-18.27 11.419-93.405 11.084-93.405 11.084l-121.266-303.401 67.371-66.227z"/><path fill="#988c54" d="M858.785 937.929c-15.774 1.056-30.042 11.331-35.419 26.355-3.574 9.985-2.706 20.912-2.475 31.314.266 11.973.399 23.949.398 35.925-.004 47.952-2.572 95.731-6.313 143.522-.219 2.799 4.063 2.741 4.336 0 4.291-43.173 6.096-86.676 6.458-130.05.179-21.395-1.204-42.919-.537-64.288.308-9.88 2.688-19.23 9.433-26.69 6.259-6.923 14.835-11.323 24.119-12.271 2.401-.245 2.481-3.984 0-3.817z"/><path fill="#c0b47b" d="M876.888 1301.375s-10.939.708-29.757 1.85a11520.267 11520.267 0 0 1-142.367 7.708c-155.876 7.434-364.174 13.817-383.963-3.848-14.879-13.28-18.27-86.028-30.83-162.145-14.433-87.455-47.958-161.003-22.837-188.407 20.542-22.415 124.463-36.54 143.875-2.284 19.412 34.256 12.56 165.57 12.56 165.57s9.706-34.827 49.671-40.536 347.697-9.706 355.69-2.855 47.958 224.947 47.958 224.947z"/><path fill="#988c54" d="M427.583 1231.838c-.687-35.323-.621-70.768-2.377-106.057-.185-3.714-5.755-3.761-5.808 0-.452 32.286.74 64.651 1.267 96.933.255 15.661 1.151 31.465.527 47.12-.58 14.562-4.397 28.701-16.774 37.51-3.422 2.436-.426 7.894 3.35 5.731 26.781-15.344 20.309-55.824 19.815-81.237zM375.352 1310.317c-13.617-4.116-16.271-19.243-17.657-31.497-1.458-12.894-2.477-25.843-3.394-38.785-1.861-26.267-3.092-52.577-5.275-78.821-2.145-25.785-5.681-51.309-10.128-76.792-4.515-25.876-10.314-52.079-11.585-78.373-.649-13.43.565-27.661 7.9-39.296 6.505-10.318 17.143-18.027 29.641-18.08 2.414-.01 2.411-3.692 0-3.747-21.632-.493-36.853 18.797-40.702 38.49-2.505 12.815-1.466 25.925.127 38.783 1.764 14.238 4.109 28.397 6.57 42.528 5.073 29.129 10.146 58.158 12.86 87.625 2.721 29.547 4.01 59.2 6.124 88.792 1.104 15.455 1.837 31.249 4.477 46.534 2.012 11.645 7.605 23.535 19.854 26.939 2.776.771 3.931-3.471 1.188-4.3zM806.359 1183.307c-95.365-.695-190.759-.048-286.128-.045-26.929.001-54.029-.799-80.937.313-2.513.104-2.517 3.803 0 3.907 23.878.986 47.92.312 71.817.313l71.817.002 142.494.004c26.977.001 53.96.145 80.936-.051 2.86-.021 2.865-4.422.001-4.443zM376.708 932.103c-14.865-2.747-30.8-2.25-45.769-.649-15.128 1.618-30.454 4.684-44.616 10.346-3.486 1.394-2.209 6.88 1.594 5.781 14.53-4.2 28.97-7.904 44.063-9.435 14.768-1.498 29.121-.479 43.867.319 3.595.193 4.478-5.694.861-6.362z"/><path fill="#5e542b" d="M704.764 1310.933c8.21-21.65 7.045-74.518-3.483-123.127-.354-1.61-.708-3.22-1.085-4.819a327.268 327.268 0 0 0-4.864-18.635c-17.128-58.235-41.107-66.228-41.107-66.228l55.951-23.979 129.031 69.654 7.924 159.427c-30.819 1.86-82.762 4.863-142.367 7.707z"/><path fill="#766782" d="M1017.908 1505.198c-8.026 12.581-152.113 11.741-151.939 2.688.103-9.253 32.192-8.244 97.984-11.679 35.982 1.046 51.531-1.735 53.955 8.991z"/><path fill="#7399c6" d="M735.868 1013.055s79.93 26.263 109.619 62.802c29.689 36.54 77.647 191.833 133.598 285.466l-117.612 84.498s-122.179-282.04-138.165-301.452-50.242-39.965-73.079-45.675c-15.067-3.767-61.661-1.142-61.661-1.142l-12.56-90.207 159.86 5.71z"/><path fill="#376b8d" d="M743.438 1176.012c-9.833-20.804-19.161-40.119-30.407-60.19-1.921-3.428-8.697-1.37-6.797 2.072 11.127 20.156 21.613 35.577 31.917 56.163 1.8 3.595 6.978 5.534 5.287 1.955z"/><path fill="#1a1a1a" d="M929.985 1419.558s-53.668 29.688-68.512 26.263c-14.844-3.426 51.384-57.093 51.384-57.093l17.128 30.83z"/><path fill="#fff" d="m918.566 1427.551-18.27-28.547s25.216-27.214 59.995-35.874c34.78-8.659 2.807 65.562 2.807 65.562l-44.532-1.141z"/><path fill="#a9644c" d="M1087.019 1424.31c-4.003 10.767-25.48 32.61-38.028 37.56-23.358 9.212-45.225 27.838-53.362 37.398-5.825 6.836-27.133 14.014-43.404 10.689l-.029-.009c-6.439-1.311-12.094-4.29-15.678-9.595 0 0-3.093-2.819-6.872-13.457-1.668-4.699-3.452-10.924-5.174-19.102-5.603-26.686-14.669-40.416-11.273-45.09 3.396-4.674 19.203 15.843 25.196-15.017 3.038-15.646-.159-28.326 2.961-33.556 5.447-9.134 36.662-20.968 42.893-16.44 6.231 4.528 20.062 31.137 25.667 28.755 5.167-2.197 53.668-33.114 71.781 4.587 1.101 2.291 2.432 4.302 3.366 6.374 4.615 10.172 4.833 19.209 1.956 26.903z"/><path fill="#3d2b2b" d="M1087.019 1424.31c-4.003 10.767-25.48 32.61-38.028 37.56-23.358 9.212-45.225 27.838-53.362 37.398-5.825 6.836-27.133 14.014-43.404 10.689l-.029-.009c-6.439-1.311-12.094-4.29-15.678-9.595 0 0-3.093-2.819-6.872-13.457.288-4.016 1.938-8.923 6.65-14.081 11.747-12.888 22.671-24.557 40.406-40.862 45.774-42.083 91.898-55.199 108.36-34.547 4.616 10.173 4.834 19.21 1.957 26.904z"/><path fill="#1a1a1a" d="M1087.019 1424.31c-4.003 10.767-25.48 32.61-38.028 37.56-23.358 9.212-45.225 27.838-53.362 37.398-5.825 6.836-27.133 14.014-43.404 10.689l-.029-.009s-18.721-7.046-11.928-16.393c6.792-9.347 18.949-17.426 31.966-31.747 24.169-26.592 58.432-56.019 91.349-57.093 25.443-.83 23.808 10.974 23.436 19.595z"/><path fill="#824233" d="M1012.179 1382.004c-4.223.028-8.313 1.7-12.24 3.342-9.162 3.833-19.696 8.402-24.409 17.749-.348.691-.684 1.428-.647 2.201.07 1.455 1.525 2.569 2.979 2.647s2.841-.658 3.954-1.599c1.169-.988 2.069-2.398 3.344-3.246.907-.603 1.964-.852 2.884-1.465 2.762-1.841 5.358-3.885 8.196-5.629 5.484-3.37 11.219-6.304 16.816-9.478.745-.422 1.514-.874 1.986-1.589.471-.715.54-1.773-.08-2.363-.426-.406-1.056-.5-1.643-.538a16.102 16.102 0 0 0-1.14-.032z"/><path fill="#376b8d" d="M652.674 1043.159c-1.453-5.086-2.557-10.228-3.666-15.395-.416-1.939-3.789-1.545-3.522.477.713 5.407 1.882 10.726 3.324 15.984 1.108 4.041 1.239 9.026-2.544 11.635-2.44 1.683-5.887 2.198-8.872 2.981-.752-11.287-3.245-22.428-7.533-32.99-.921-2.27-4.636-1.342-3.75 1.034 6.268 16.821 8.6 34.293 6.54 52.15-.313 2.71 3.936 2.687 4.246 0 .626-5.431.85-10.887.68-16.322 5.837-.532 14.3-3.115 16.355-9.001 1.223-3.499-.304-7.215-1.258-10.553z" opacity=".5"/><path fill="#6c4e4e" d="M858.047 901.152s-82.214 75.363-100.484 79.93c-12.903 3.22-16.694.754-17.802-.971.799 2.547 2.113 8.359-.468 13.531 0 0 10.277 9.135 5.709 21.695 0 0-38.823 1.142-71.937 10.277s-106.193-11.419-122.179-18.27c-3.311-1.416-7.011-3.186-10.802-5.081-34.427 9.74-93.245 23.397-133.073 16.5-59.377-10.277-31.972-77.647-23.979-89.065 0 0-12.561-5.709-7.993-19.412 4.567-13.702 13.702-19.412 13.702-19.412s-5.709-5.709-1.142-14.844 11.419-7.993 13.702-29.688c2.284-21.695 10.277-49.1 17.128-62.802 6.851-13.702 23.979-29.688 67.37-55.951a331.688 331.688 0 0 0 3.448-2.112c39.862-24.813 38.549-36.517 38.549-36.517l79.04 8.941s14.799 7.445 35.409 19.663c1.119.662 2.261 1.336 3.414 2.032 30.613 18.373 64.492 30.225 80.456 63.099.411.833.799 1.69 1.188 2.558.217.479.422.959.639 1.439 18.361 41.895 17.06 56.225 17.06 56.225s11.419 6.851 14.844 13.702 1.142 20.554 1.142 20.554l52.526-47.958 44.533 71.937z"/><path fill="#4a3333" d="M630.867 970.432c-1.235-5.543-5.07-10.519-6.929-15.914-2.06-5.977-3.326-12.2-4.041-18.474-1.386-12.155-.817-24.44-.303-36.63.095-2.257-3.364-2.235-3.497 0-.785 13.167-1.367 26.429.36 39.549.741 5.629 1.913 11.205 3.739 16.587 1.96 5.778 8.075 13.577 6.582 19.487-1.739 6.886-15.497 14.41-9.561 22.321 1.268 1.69 3.46 2.46 4.711 4.083 2.799 3.633-.194 6.882-.827 10.529-.728 4.202.761 7.921 3.32 11.154 1.635 2.066 4.539-.854 2.902-2.901-5.331-6.667 1.33-10.733.057-17.254-.682-3.495-3.575-4.301-5.616-6.735-4.216-5.028 3.688-10.897 6.438-14.918 2.23-3.262 3.547-6.924 2.665-10.884zM742.819 991.732c-2.131-15.415-4.25-31.622-10.377-46.048-2.941-6.924-6.927-12.66-11.704-18.463-3.134-3.807-6.633-7.457-7.658-12.46-1.109-5.414.52-11.038 1.463-16.343 6.591-37.075-1.922-74.707 2.161-111.952.29-2.643-3.81-2.596-4.121 0-2.34 19.474-1.214 38.986-.436 58.518.501 12.569.418 24.797-.535 37.055a329.91 329.91 0 0 1-1.358 8.793c-1.574 9.415-6.16 21.618-2.053 30.853 4.17 9.377 12.484 16.732 17.52 25.697 6.043 10.758 8.36 22.992 10.778 34.949.101.499.321.865.606 1.125.473 3.171.91 6.337 1.345 9.481.397 2.876 4.764 1.652 4.369-1.205z"/><path fill="#fff" d="M769.221 863.217c-7.547 6.774-14.516 14.09-22.361 20.548-7.309 6.017-16.005 11.137-21.985 18.591-2.231 2.78 1.417 6.703 4.012 4.012 6.721-6.97 14.954-12.058 22.447-18.13 7.821-6.337 18.316-17.93 24.5-25.909 2.147-2.772-3.873-1.571-6.613.888z"/><path fill="#4a3333" d="M528.707 917.947c-16.291 1.617-32.181 5.531-48.138 8.852.868-4.778 1.07-9.593.437-14.489-.52-4.025-1.389-7.897-.781-11.973.576-3.867 1.901-7.624 2.69-11.452 2.919-14.148 2.542-28.651 2.095-43.007-.135-4.347-5.056-7.327-4.92-2.962.449 14.447-.895 32.096-4.166 46.282-1.428 6.194-3.121 11.865-2.303 18.281.921 7.226 1.798 13.51.337 20.653-14.132 2.743-31.733 6.939-46.393 6.133-4.37-.24-.993 4.337 3.367 4.569 33.288 1.772 66.15-9.109 98.536-15.263 3.132-.594 2.464-5.944-.761-5.624z"/><path fill="#4a3333" d="M417.265 785.972c9.934-1.884 20.028 6.109 27.085 12.72a237.486 237.486 0 0 1 30.122 34.279c.811 1.13-1.051 2.192-1.861 1.085-8.062-11.053-16.991-21.444-26.799-30.99-7.376-7.171-18.59-18.053-29.597-14.707l1.05-2.387zM727.943 786.692a108.92 108.92 0 0 1-7.765 30.396c-.491 1.176-2.432.674-1.941-.537 4.396-10.859 7.057-22.266 7.879-33.856.411.833.799 1.69 1.188 2.558.217.48.423.959.639 1.439z" opacity=".5"/><path fill="#e5eaec" d="M650.228 788.108c-10.277 42.249-33.114 106.193-33.114 106.193-2.284-4.568-33.114-34.256-67.37-73.079-30.122-34.142-54.958-84.178-60.496-95.745 39.862-24.813 38.549-36.517 38.549-36.517l79.04 8.941s14.799 7.445 35.409 19.663c6.361 14.912 14.879 42.214 7.982 70.544z"/><path fill="#acbdcf" d="M578.818 757.925c-11.491 4.209-20.068 16.876-27.719 26.283-18.509-21.194-32.324-45.989-40.65-72.889-.802-2.591-4.871-1.492-4.077 1.124 8.652 28.515 23.38 54.643 43.219 76.872 1.06 1.187 2.727.628 3.537-.456 7.161-9.577 15.677-22.437 26.9-26.547 2.726-.999 1.548-5.398-1.21-4.387zM626.634 706.419c-.724-2.73-4.822-1.576-4.215 1.162 4.338 19.573 6.379 39.054 5.461 59.036-6.411-2.44-11.753-9.26-18.371-11.075-2.542-.697-3.554 3.106-1.081 3.923 7.428 2.454 13.661 9.537 20.923 12.454 1.444.58 2.725-.862 2.818-2.146 1.517-21.141-.092-42.833-5.535-63.354zM619.592 868.16c-1.427-9.453-4.604-17.95-8.912-26.436-4.559-8.98-8.339-17.873-10.406-27.777-2.129-10.199-2.808-20.603-3.648-30.965-.101-1.239-2.025-1.265-1.954 0 .558 9.864 1.29 19.768 3.099 29.494 1.748 9.396 4.832 18.177 9.117 26.703 4.499 8.951 8.494 17.59 10.196 27.549 1.731 10.124 1.852 20.445 2.8 30.654.134 1.445 2.41 1.459 2.275 0-.904-9.735-1.106-19.543-2.567-29.222z"/><path fill="#fff" d="M606.495 569.879c.467-1.727.778-3.487.841-5.275.232-6.572-3.726-12.213-8.981-15.843-2.356-1.628-5.041-2.856-7.885-3.187-2.844-.331-5.858.299-8.122 2.052-1.101-3.788-4.3-6.785-8.025-8.083-3.725-1.297-7.892-1.005-11.597.349-.827.303-1.641.658-2.505.833-.708.143-1.434.163-2.154.216-2.736.203-5.597.875-8.047 2.14-.577.298-6.512 3.557-6.466 3.641.506.928 1.011 1.845 1.522 2.725 4.519 7.783 8.862 15.671 13.703 23.261 7.145 11.202 15.031 21.904 22.295 33.018.325.498 8.208-3.606 8.988-4.027a61.475 61.475 0 0 0 8.222-5.307c1.436-1.103 3.327-2.32 4.343-3.805 1.242-1.815 1.94-4.723 2.408-6.848.575-2.612.631-5.402-.31-7.905-.191-.509-.426-1.024-.406-1.567.016-.426.188-.829.353-1.222.707-1.681 1.346-3.406 1.823-5.166z"/><path fill="#e9946b" d="M605.243 757.197c6.162-23.898 10.786-42.141 2.76-61.867-4.285-5.546-8.843-12.136-11.443-16.84-.351-.362-11.16.344-11.419 0-2.583-3.469-7.811-.316-20.749-6.322-20.243-9.396-54.115-25.873-54.857-26.156.461.651 27.649 21.059 13.946 51.889 0 0 21.587 26.29 58.235 60.519 5.775 5.394 13.702 20.553 13.702 20.553 3.647-6.133 6.731-15.369 9.825-21.776z"/><path fill="#1a1a1a" d="M610.615 703.221a61.948 61.948 0 0 0-2.695-8.095c-2.837-3.858-5.407-7.94-7.749-12.178a11.234 11.234 0 0 1-.925-1.067c-2.583-3.469-21.915-3.708-34.853-9.713l-27.644 1.789s35.368 42.443 73.866 29.264z"/><path fill="#e9946b" d="m569.816 548.055.359.182c8.413 4.324 15.156 11.216 20.708 18.767 5.769 7.847 9.836 16.27 15.018 24.463 3.844 6.077 8.599 11.527 12.646 17.471 7.572 11.122 10.483 25.237 7.409 38.386-1.583 6.771-4.252 12.518-9.372 17.193-5.086 4.643-10.508 8.995-16.26 12.788-2.25 1.483-4.57 2.943-7.055 4.005-27.165 11.607-51.309 5.594-67.532-20.881 0 0-29.026 10.142-28.794-24.134.126-18.711 24.835-2.095 24.835-2.095s-19.749-35.004-25.765-54.647c-.246-.805 2.723-4.508 3.204-5.267 2.682-4.235 5.222-8.877 8.832-12.38 3.659-3.551 8.063-6.234 12.439-8.798 5.012-2.936 10.121-5.798 15.645-7.597 10.982-3.579 23.362-2.639 33.683 2.544z"/><path fill="#d45c48" d="M596.819 624.768c-.521-1.106-1.918-1.622-3.028-1.085l-3.275 1.584c-1.105.535-1.612 1.909-1.085 3.028.521 1.106 1.918 1.622 3.027 1.085l3.276-1.584c1.105-.535 1.611-1.91 1.085-3.028z"/><path fill="#fff" d="M549.696 574.952c-2.124 2.306-4.598 4.261-6.595 6.683-2.026 2.458-3.731 5.161-5.658 7.693-1.738 2.284 1.755 5.167 3.508 2.863 1.926-2.53 3.623-5.244 5.657-7.694 2.006-2.414 4.471-4.377 6.595-6.683 1.957-2.121-1.55-4.987-3.507-2.862zM585.231 579.286a2.184 2.184 0 0 1 .531-4.178c.283-.04 7.001-.955 13.638 1.378 1.144.389 1.737 1.645 1.336 2.784a2.183 2.183 0 0 1-2.784 1.336c-5.605-1.969-11.522-1.181-11.581-1.174-.401.056-.792 0-1.14-.146z"/><path fill="#fff" d="M524.791 606.865c1.519 6.268 1.04 13.017-1.408 18.988a95.703 95.703 0 0 1 7.895 8.028c1.884 2.156 3.862 5.995 6.878 6.678 1.319.299 2.667-.708 3.873-1.115 1.581-.534 3.274-.867 4.926-.452 5.747 1.443 6.459 9.991 11.628 12.887 7.849-8.253 18.446-13.845 29.688-15.667.869-.141 1.756-.264 2.556-.634 1.327-.614 2.256-1.825 3.258-2.889 2.462-2.613 5.677-4.482 9.133-5.427a20.408 20.408 0 0 1 5.612-.704c1.784.019 3.382.758 5.106-.048 1.108-.518 2.032-1.352 3.008-2.09 1.884-1.424 4.096-2.541 6.455-2.65 3.558-.164 6.96 2.086 8.761 5.16 1.465 2.501 2.332 6.106 1.792 9.003-.228 1.221-1.043 2.49-.799 3.774.28 1.465 1.603 3.159 2.238 4.526 1.506 3.244 2.793 6.6 3.614 10.086 1.219 5.179 1.379 10.696-.237 15.765-2.671 8.378-9.716 14.492-16.446 20.152-2.222 1.868-5.483 3.481-8.367 3.942-3.979.635-8.014-.357-11.945-1.244-1.291-.291-2.593-.573-3.915-.613-2.017-.061-4.003.441-5.977.862-8.215 1.749-16.844 2.103-24.971-.02-5.934-1.55-11.197-4.36-15.608-8.624-.508-.491-1.007-.999-1.588-1.402-.591-.41-1.253-.703-1.904-1.007-6.934-3.243-13.224-8.306-16.764-15.093-1.128-2.162-1.962-4.463-2.793-6.756-1.536-4.24-1.428-8.654-2.782-12.909-2.68-8.423-8.395-14.298-17.56-15.37-2.668-.312-5.617-.056-7.624 1.729-2.146 1.909-2.661 5.057-2.595 7.928.092 3.992 1.718 7.234 2.446 10.995-2.508.489-6.357-1.032-8.764-1.829-2.906-.962-5.711-2.245-8.281-3.914-5.128-3.329-9.32-8.306-11.001-14.183-1.381-4.828-1-10.14 1.056-14.721.391-.872.852-1.827.573-2.741-.205-.672-.77-1.162-1.303-1.62-4.583-3.938-8.963-8.764-9.863-14.739-1.16-7.703 3.869-15.124 10.047-19.868 5.034-3.865 11.354-6.606 17.635-5.696.237-1.664 1.564-3.018 3.096-3.709 1.532-.691 3.252-.823 4.932-.865 5.855-.145 11.827.724 17.086 3.302 5.259 2.579 9.754 6.989 11.708 12.511 1.954 5.522 1.077 12.137-2.824 16.506-.356.398-.751.81-.845 1.336-.084.471.091.944.252 1.394.358.999.662 2.017.912 3.047z"/><path fill="#1a1a1a" d="M593.936 648.726c.275 2.131 1.12 4.189 2.459 5.872 3.604 4.525 11.138 9.344 16.026 4.029 1.414-1.538 2.294-3.493 2.94-5.48a29.855 29.855 0 0 0 1.452-9.032c.014-2.367.143-5.906-1.305-7.961-7.474 3.726-14.822 7.66-21.572 12.572zM556.041 612.805c-.524-1.598.445-3.748 1.408-5.019 1.147-1.513 2.202-3.027 3.955-3.901 1.342-.669 4.16-1.695 5.606-.962 1.13.573 1.455 2.387.657 3.316-.471.548-1.202.656-1.867.772-.941.164-1.605.5-2.361 1.097-1.549 1.221-2.264 2.25-2.339 4.195-.053 1.389-.637 2.569-2.13 2.828-1.612.279-2.708-.79-2.929-2.326-.037-.112.056.387 0 0zM610.501 595.833c.343-.19.397-.661.345-1.049-.252-1.893-2.018-3.301-3.877-3.735-2.039-.476-4.945-.338-6.665.967-.412.312-.796.731-.849 1.245-.12 1.161.343 2.145 1.331 2.792 2.011 1.316 3.255-.491 4.983-1.213.734-.307 1.331-.301 2.112-.135.338.071 2.542 1.171 2.62 1.128z"/><path fill="#fff" d="M542.24 612.384c1.157 5.189 3.765 10.558 8.624 12.714 2.033.902 4.284 1.159 6.496 1.387 2.666.275 5.417.518 7.98-.265 2.918-.891 5.33-3.069 6.94-5.66 1.61-2.591 2.481-5.578 3.017-8.582.417-2.333.643-4.727.304-7.072-.856-5.929-5.371-10.938-10.845-13.371-5.797-2.576-13.857-2.447-18.901 1.838-5.05 4.293-4.92 13.158-3.615 19.011zM588.595 586.374c.171 2.558 1.388 4.932 2.814 7.062 1.754 2.622 3.852 4.994 5.986 7.318 2.362 2.572 4.831 5.14 7.908 6.791 3.076 1.652 6.9 2.272 10.071.81 3.011-1.388 5.01-4.489 5.626-7.747.617-3.258-.004-6.646-1.149-9.758-.947-2.575-2.256-5.024-3.94-7.191-4.167-5.359-10.716-8.706-17.457-9.229-2.424-.188-5.218-.391-6.873 1.663-1.975 2.453-3.19 7.239-2.986 10.281z" opacity=".3"/><path fill="#6d4e4e" d="M622.871 592.026a17.66 17.66 0 0 0-.291-.868c-1.22-3.478-3.302-6.617-5.757-9.342-3.047-3.361-6.721-6.235-10.958-7.832-.216-.077-.432-.165-.659-.243-3.202-1.089-6.909-1.469-10.253-.718-1.601.358-3.105.97-4.448 1.889a10.785 10.785 0 0 0-2.613 2.512c-.45.619-.845 1.277-1.173 1.976a13.29 13.29 0 0 0-.833 2.251c-.12.447-.957 4.573-.488 4.706-4.557-1.284-11.557-.265-15.148 3.431a7.964 7.964 0 0 0-1.807 2.826c-1.631-1.238-3.407-2.278-5.277-3.044-3.194-1.322-6.642-1.857-10.085-1.325a2.213 2.213 0 0 0-.625.182 3.557 3.557 0 0 0-.341.018c-1.507.225-2.958.62-4.286 1.211-.024.01-.036.009-.048.019-.097.039-.171.079-.256.119-.109.049-.231.098-.341.159-2.734 1.295-5.072 3.326-6.537 5.981a15.424 15.424 0 0 0-1.451 3.887c-.321 1.45-.902 2.515-1.655 3.811-1.683 2.883-3.994 5.432-6.064 8.036a1300.51 1300.51 0 0 1-6.283 7.853c-.144.175-.288.363-.432.538-2.133 2.657-4.265 5.303-6.386 7.962a533.59 533.59 0 0 0-2.307 2.912c-.693.856-1.375 1.725-2.056 2.582-.064.065-.117.143-.17.208a14.507 14.507 0 0 1 3.82 1.972c.026-.033.051-.054.078-.087l2.183-2.56c.247-.284.494-.58.729-.865a396.167 396.167 0 0 0 4.17-5.007c4.932-5.998 9.756-12.098 14.544-18.19 2.374 10.418 11.395 20.807 21.812 20.977a15.953 15.953 0 0 0 4.838-.673c10.396-3.091 14.07-16.307 10.621-25.785-1.02-2.793-2.652-5.414-4.701-7.683.1-.214.178-.442.212-.709.072-.58.327-1.109.695-1.582 1.196-1.541 3.64-2.461 5.234-2.878 2.289-.605 4.575-.472 6.896-.055.416.07.785.007 1.09-.143a20.12 20.12 0 0 0 1.363 3.595c1.123 2.262 2.657 4.512 4.498 6.6 5.277 5.974 13.047 10.598 20.647 10.25a10.496 10.496 0 0 0 5.883-2.097c2.424-1.789 4.109-4.566 4.93-7.65.769-2.902.38-6.228-.514-9.127zm-58.384 32.836c-1.055.287-2.097.41-3.127.394-12.523-.064-23.269-20.091-15.507-29.086.362-.122.697-.34.973-.704 1.457-1.859 3.971-2.351 6.187-2.646a.848.848 0 0 0 .191-.043c.254.045.522.067.819.022 3.052-.471 6.108.254 8.846 1.714 3.747 2.001 6.909 5.384 8.739 9.006 3.61 7.123 1.358 19.041-7.121 21.343zm51.237-19.852c-.764.452-1.684.797-2.743.989-6.069 1.097-13.009-3.492-17.17-7.825-.247-.267-.484-.521-.709-.774-3.172-3.547-5.939-8.854-5.506-13.74.134-1.606.731-3.127 1.791-4.315.194-.218.411-.434.638-.626 1.464-1.249 3.246-1.955 5.092-2.164a10.747 10.747 0 0 1 2.393-.022c.662.067 1.297.191 1.938.373 1.134.318 2.251.693 3.341 1.112 2.237.855 4.384 1.949 6.33 3.343 1.779 1.286 3.374 2.814 4.679 4.588 3.61 4.884 5.93 15.521-.074 19.061z"/><path fill="#1a1a1a" d="M821.552 869.166s23.935 36.554 36.496 31.986c12.56-4.568-7.993-58.235-7.993-58.235l-28.503 26.249z"/><path fill="#e9946b" d="M810.089 831.498s0-26.263-2.284-33.114c-2.284-6.851-15.628-23.377-5.709-29.689 12.56-7.993 19.412 22.837 29.688 22.837 6.744 0 12.245-1.239 15.986-6.851 3.741-5.612 4.645-13.038 6.851-19.412 1.279-3.694 2.91-14.989 5.596-17.829 1.017-1.076 2.23-2.025 3.654-2.425 1.425-.4 3.089-.166 4.152.864 1.277 1.237 1.4 3.212 1.416 4.989.039 4.285 1.071 14.28.814 18.557 5.225 6.148 9.961 13.763 11.877 21.6.478 1.953.72 4.047.067 5.949-.383 1.113-1.058 2.114-1.38 3.245-.612 2.146.113 4.421.184 6.652.12 3.734-1.751 7.475-4.811 9.62-1.277.895-2.76 1.544-3.783 2.72-2.492 2.865-1.209 7.219-1.191 11.016.033 6.966-4.607 12.973-9.018 18.365-9.646 11.791-19.415 23.701-31.563 32.893-.001.003-26.255-30.575-20.546-49.987z"/><path fill="#cc724e" d="M876.735 797.306c-2.388-3.787-5.032-7.453-8.175-10.654-2.937-2.991-4.785-6.264-4.938-10.616-.086-2.434.068-6.065 2.978-6.759 1.092-.26 2.256-.037 3.284.415.185-1.021-.351-2.065-1.12-2.762-2.753-2.491-6.577-2.15-8.462 1.177-2.03 3.583-.987 8.778.151 12.477-4.073-3.158-8.465.853-8.363 5.33.122 5.346 2.276 10.631 3.763 15.953-2.534-2.056-5.7-3.324-8.702-1.111-3.673 2.707-2.961 8.282-2.176 12.125 1.734 8.482 3.784 16.218 3.872 24.983.027 2.655 4 2.638 4.111 0 .392-9.239-1.892-17.258-3.559-26.203-.503-2.702-1.899-8.667 3.868-5.984 1.396.649 2.686 3.003 3.685 4.232 3.273 4.024 6.135 8.292 8.933 12.653 1.574 2.452 5.428.242 3.929-2.296-2.538-4.297-5.389-8.631-8.578-12.594-.3-4.179-1.147-8.17-2.219-12.223-.587-2.219-1.693-4.735-1.829-7.033-.54-1.481-.208-2.902.988-4.263 6.192 3.496 10.717 9.643 14.613 15.46 1.624 2.421 5.528.202 3.946-2.307z"/><path fill="#1a1a1a" d="M549.464 976.356c4.608 8.057 12.058 18.729 18.55 17.287 4.22-.938 3.6-9.439 1.697-18.361-6.749.343-13.517.431-20.247 1.074z"/><path fill="#e9946b" d="M534.9 917.138s13.702-15.986 15.986-29.688c2.284-13.702 4.568-17.128 11.419-14.844 6.851 2.284 5.709 33.114 5.709 33.114s41.107-19.412 51.384-19.412 5.709 11.419 3.426 12.561c-2.284 1.142-31.972 19.412-27.405 21.695 4.567 2.284 39.965-15.986 45.674-13.702 5.709 2.284 2.284 9.135 5.709 12.56s4.567 11.419 0 14.844-6.851 5.709-7.993 10.277c-1.142 4.567-6.851 12.56-14.844 15.986-7.993 3.426-46.816 21.695-71.937 20.553 0 .001-26.263-45.674-17.128-63.944z"/><path fill="#376b8d" d="M600.065 1039.554a123.184 123.184 0 0 0-1.015-5.362c-.563-2.655-1.885-13.351-5.783-13.467-.976-.029-1.793.848-2.028 1.797-.235.948-.027 1.944.196 2.895 1.199 5.109 1.088 9.915 1.838 15.063.826 5.67 1.613 11.346 2.344 17.029 1.461 11.362 2.694 22.755 3.558 34.179.306 4.049 6.609 4.118 6.37 0-.582-10.004-1.438-19.99-2.503-29.954-.473-4.424-1.401-8.608-1.801-13.024-.278-3.065-.671-6.12-1.176-9.156z"/><path fill="#7399c6" d="M607.978 1381.313s-2.145-354.687-25.119-378.535c-22.974-23.848-117.689-25.97-125.605 25.121-7.915 51.09 20.011 336.945 20.011 336.945l130.713 16.469z"/><path fill="#1a1a1a" d="M528.858 1360.761s-60.279-6.578-49.313 4.181c10.966 10.759 71.992 26.512 71.992 26.512l-22.679-30.693z"/><path fill="#fff" d="M574.683 1365.246c-15.302-2.474-30.897-2.188-46.214-4.612 3.297 15.274 5.477 26.416 5.942 31.11 2.751 27.742 3.766 33.359 3.766 33.359l73.125-2.769s-1.039-16.06-3.453-41.094c-8.845-8.835-20.14-13.888-33.166-15.994z"/><path fill="#a9644c" d="M627.525 1501.01c-12.229 3.123-104.547 9.407-115.588-5.887-2.719-3.748-2.467-15.102-.022-25.593 1.858-7.871 4.94-15.276 8.971-18.615 13.935-11.554 7.002-61.773 20.958-65.118 0 0 42.654-8.6 60.363 1.259 17.708 9.859 12.203 44.21 21.543 61.009 3.81 6.833 7.186 16.39 8.983 25.525 2.645 13.236 2.014 25.581-5.208 27.42z"/><path fill="#3d2b2b" d="M627.525 1501.01c-12.229 3.123-104.547 9.407-115.588-5.887-2.719-3.748-2.467-15.102-.022-25.593 8.945 1.668 63.025 10.923 120.817 4.06 2.646 13.236 2.015 25.581-5.207 27.42z"/><path fill="#824233" d="M588.494 1438.535c-21.961-4.814-41.558-1.15-62.982 5.754-4.293 1.383-5.255 5.5-.877 4.134 20.166-6.295 40.889-7.277 61.512-2.616 4.774 1.079 7.138-6.221 2.347-7.272z"/></svg>