<svg xmlns="http://www.w3.org/2000/svg" viewBox="0 0 4000 3000"><defs><clipPath id="a"><path fill="#1de7b8" stroke="#304063" stroke-linecap="round" stroke-linejoin="round" stroke-width="9" d="M2572.6865,1486.8261h615.3644V2507.5619a82.8288,82.8288,0,0,1-82.7733,82.8841H2655.46a82.8288,82.8288,0,0,1-82.7733-82.8841Z"/></clipPath><clipPath id="b"><rect width="822.935" height="323.728" x="2470.922" y="2352.387" fill="#09adc4" stroke="#304063" stroke-linecap="round" stroke-linejoin="round" stroke-width="9" transform="rotate(180 2882.39 2514.25)"/></clipPath><clipPath id="c"><path fill="#ffae66" stroke="#304063" stroke-linecap="round" stroke-linejoin="round" stroke-width="9" d="M2880.3686,1057.15h0c22.1057,0,42.2406,9.5808,51.7441,24.6213l255.9381,405.0547H2572.6864l255.938-405.0547C2838.1279,1066.7309,2858.2629,1057.15,2880.3686,1057.15Z"/></clipPath><clipPath id="d"><rect width="1051.602" height="507.122" x="811.949" y="409.554" fill="#1de7b8" stroke="#304063" stroke-linecap="round" stroke-linejoin="round" stroke-width="9" rx="51.204"/></clipPath><clipPath id="e"><path fill="#bebdff" stroke="#304063" stroke-linecap="round" stroke-linejoin="round" stroke-width="9" d="M1189.3882,1040.4906c-152.4,230.2233-252.549,753.8685-91.44,953.621l160.4159,9.79s106.0289-240.4188-11.5329-494.8079C1112.1081,1217.57,1189.3882,1040.4906,1189.3882,1040.4906Z"/></clipPath><clipPath id="f"><path fill="#bebdff" stroke="#304063" stroke-linecap="round" stroke-linejoin="round" stroke-width="9" d="M939.7421,1428.71s-121.92,385.9626,23.2229,582.33h188.1081S907.8106,1579.9354,939.7421,1428.71Z"/></clipPath><clipPath id="g"><path fill="#bebdff" stroke="#304063" stroke-linecap="round" stroke-linejoin="round" stroke-width="9" d="M1279.377,1309.0844s-6.4317,546.2161-96.42,685.0272h134.1577S1441.9373,1600.2492,1279.377,1309.0844Z"/></clipPath><clipPath id="h"><path fill="#1de7b8" stroke="#304063" stroke-linecap="round" stroke-linejoin="round" stroke-width="9" d="M1418.6047,2039.3794l-267.4377-12.6917v-.0075l-.09.0038-.09-.0038v.0075l-267.4466,12.6917s-27.657,298.6687,107.9719,350.9893h319.1248C1446.2661,2338.0481,1418.6047,2039.3794,1418.6047,2039.3794Z"/></clipPath><clipPath id="i"><path fill="#fff" stroke="#304063" stroke-linecap="round" stroke-linejoin="round" stroke-width="9" d="M1166.0172,2465.72l23.4415-379.7118,55.6527-90.2214s131.09-30.6539,487.9694-31.0245a129.7481,129.7481,0,0,1,123.236,89.4286L2025.67,2570.66l-830.5121,15.6807Z"/></clipPath><clipPath id="j"><path fill="#ffae66" stroke="#304063" stroke-linecap="round" stroke-linejoin="round" stroke-width="9" d="M1493.8509,2441.9327h13.1134c49.74,0,218.5562,15.7683,225.841,17.1711,75.766,14.59,173.3876,98.4357,185.0439,103.2029h0l-440.39-3.1478"/></clipPath><clipPath id="k"><path fill="#fff" stroke="#304063" stroke-linecap="round" stroke-linejoin="round" stroke-width="9" d="M1307.748,2195.0276l-109.2541,221.6312,394.3678-9.2149c5.4062,36.999-52.8712,178.897-52.8712,178.897H1001.22a151.69,151.69,0,0,1-146.3435-112.0136v0A151.9793,151.9793,0,0,1,905.6719,2316.55s290.454-322.3733,347.2909-322.3728"/></clipPath><clipPath id="l"><polygon fill="#ffae66" stroke="#304063" stroke-linecap="round" stroke-linejoin="round" stroke-width="9" points="1434.147 1989.788 1584.048 1615.351 1765.33 1615.351 1783.339 1821.231 1657.226 1860.16 1641.026 2075.749 1434.147 1989.788"/></clipPath></defs><path fill="#ff9e9b" stroke="#304063" stroke-linecap="round" stroke-linejoin="round" stroke-width="9" d="M2728.1126,2582.5691H1561.5083c-84.0887,0-152.256-68.2585-152.256-152.46V740.0029c0-84.2012,68.1673-152.46,152.256-152.46H2728.1126c84.0887,0,152.256,68.2585,152.256,152.46V2430.1094C2880.3686,2514.3106,2812.2013,2582.5691,2728.1126,2582.5691Z"/><path fill="#fff" stroke="#304063" stroke-linecap="round" stroke-linejoin="round" stroke-width="9" d="M2702.6835,2361.6625H1586.9374A63.73,63.73,0,0,1,1523.25,2297.89V822.5728A63.73,63.73,0,0,1,1586.9374,758.8H2702.6835a63.73,63.73,0,0,1,63.6875,63.7726V2297.89A63.73,63.73,0,0,1,2702.6835,2361.6625Z"/><rect width="138.536" height="138.721" x="1662.685" y="970.117" fill="#bebdff" stroke="#304063" stroke-linecap="round" stroke-linejoin="round" stroke-width="9" opacity=".44" rx="14.885"/><rect width="694.695" height="100.613" x="1849.048" y="989.17" fill="#bebdff" stroke="#304063" stroke-linecap="round" stroke-linejoin="round" stroke-width="9" opacity=".44" rx="8.94"/><rect width="138.536" height="138.721" x="1662.685" y="1214.788" fill="#bebdff" stroke="#304063" stroke-linecap="round" stroke-linejoin="round" stroke-width="9" opacity=".44" rx="14.885"/><rect width="398.565" height="100.613" x="1849.048" y="1233.842" fill="#bebdff" stroke="#304063" stroke-linecap="round" stroke-linejoin="round" stroke-width="9" opacity=".44" rx="8.94"/><rect width="138.536" height="138.721" x="1662.685" y="1459.459" fill="#bebdff" stroke="#304063" stroke-linecap="round" stroke-linejoin="round" stroke-width="9" opacity=".44" rx="14.885"/><rect width="694.695" height="100.613" x="1849.048" y="1478.513" fill="#bebdff" stroke="#304063" stroke-linecap="round" stroke-linejoin="round" stroke-width="9" opacity=".44" rx="8.94"/><rect width="138.536" height="138.721" x="1662.685" y="1704.131" fill="#bebdff" stroke="#304063" stroke-linecap="round" stroke-linejoin="round" stroke-width="9" opacity=".44" rx="14.885"/><rect width="556.891" height="100.613" x="1849.048" y="1723.185" fill="#bebdff" stroke="#304063" stroke-linecap="round" stroke-linejoin="round" stroke-width="9" opacity=".44" rx="8.94"/><rect width="138.536" height="138.721" x="1662.685" y="1948.802" fill="#bebdff" stroke="#304063" stroke-linecap="round" stroke-linejoin="round" stroke-width="9" opacity=".44" rx="14.885"/><rect width="418.356" height="100.613" x="1849.048" y="1967.856" fill="#bebdff" stroke="#304063" stroke-linecap="round" stroke-linejoin="round" stroke-width="9" opacity=".44" rx="8.94"/><path fill="#1de7b8" d="M2572.6865,1486.8261h615.3644V2507.5619a82.8288,82.8288,0,0,1-82.7733,82.8841H2655.46a82.8288,82.8288,0,0,1-82.7733-82.8841Z"/><g clip-path="url(#a)"><rect width="95.385" height="982.004" x="2983.921" y="1412.767" fill="#fff" stroke="#304063" stroke-linecap="round" stroke-linejoin="round" stroke-width="9" transform="rotate(180 3031.613 1903.769)"/><rect width="95.385" height="982.004" x="2812.353" y="1412.767" fill="#fff" stroke="#304063" stroke-linecap="round" stroke-linejoin="round" stroke-width="9" transform="rotate(180 2860.046 1903.769)"/><rect width="95.385" height="982.004" x="2647.766" y="1412.767" fill="#fff" stroke="#304063" stroke-linecap="round" stroke-linejoin="round" stroke-width="9" transform="rotate(180 2695.459 1903.769)"/><rect width="822.935" height="323.728" x="2470.922" y="2352.387" fill="#09adc4" transform="rotate(180 2882.39 2514.25)"/><g clip-path="url(#b)"><path fill="#08c2e6" d="M2511.4932,2567.993c664.1292,11.4659,654.6347-124.2131,676.5577-229.3165s92.5344,95.5486,92.5344,95.5486L3082.11,2680.74"/></g><rect width="822.935" height="323.728" x="2470.922" y="2352.387" fill="none" stroke="#304063" stroke-linecap="round" stroke-linejoin="round" stroke-width="9" transform="rotate(180 2882.39 2514.25)"/><rect width="749.459" height="72.839" x="2551.011" y="2279.548" fill="#fff" stroke="#304063" stroke-linecap="round" stroke-linejoin="round" stroke-width="9" transform="rotate(180 2925.74 2315.967)"/></g><path fill="none" stroke="#304063" stroke-linecap="round" stroke-linejoin="round" stroke-width="9" d="M2572.6865,1486.8261h615.3644V2507.5619a82.8288,82.8288,0,0,1-82.7733,82.8841H2655.46a82.8288,82.8288,0,0,1-82.7733-82.8841Z"/><path fill="#ffae66" d="M2880.3686,1057.15h0c22.1057,0,42.2406,9.5808,51.7441,24.6213l255.9381,405.0547H2572.6864l255.938-405.0547C2838.1279,1066.7309,2858.2629,1057.15,2880.3686,1057.15Z"/><g clip-path="url(#c)"><rect width="864.082" height="123.605" x="2447.409" y="1425.023" fill="#fff" stroke="#304063" stroke-linecap="round" stroke-linejoin="round" stroke-width="9" transform="rotate(180 2879.45 1486.826)"/><ellipse cx="2918.46" cy="974.746" fill="#83c0e9" stroke="#304063" stroke-linecap="round" stroke-linejoin="round" stroke-width="9" rx="269.591" ry="220.724"/></g><path fill="none" stroke="#304063" stroke-linecap="round" stroke-linejoin="round" stroke-width="9" d="M2880.3686,1057.15h0c22.1057,0,42.2406,9.5808,51.7441,24.6213l255.9381,405.0547H2572.6864l255.938-405.0547C2838.1279,1066.7309,2858.2629,1057.15,2880.3686,1057.15Z"/><path fill="none" stroke="#304063" stroke-linecap="round" stroke-linejoin="round" stroke-width="9" d="M1633.6213,669.125l-45.8021,35.6714"/><path fill="none" stroke="#304063" stroke-linecap="round" stroke-linejoin="round" stroke-width="9" d="M2946.6123,1306.1153l-55.98,56.0551"/><path fill="none" stroke="#304063" stroke-linecap="round" stroke-linejoin="round" stroke-width="9" d="M2249.8229,2458.5036a249.5644,249.5644,0,0,1-76.8,29.6481"/><rect width="1051.602" height="507.122" x="811.949" y="409.554" fill="#1de7b8" rx="51.204"/><g clip-path="url(#d)"><path fill="#10cc9b" d="M1863.5511,321.4837c42.1206,671.1189-1132.15,562.12-1132.15,562.12s127.6381,262.3693,170.1841,296.4517,1067.9055,89.4662,1067.9055,89.4662l110.62-788.0747"/></g><rect width="1051.602" height="507.122" x="811.949" y="409.554" fill="none" stroke="#304063" stroke-linecap="round" stroke-linejoin="round" stroke-width="9" rx="51.204"/><rect width="661.529" height="78.004" x="1068.61" y="493.749" fill="#fff" stroke="#304063" stroke-linecap="round" stroke-linejoin="round" stroke-width="9" rx="15.753"/><rect width="661.529" height="78.004" x="1068.61" y="754.587" fill="#fff" stroke="#304063" stroke-linecap="round" stroke-linejoin="round" stroke-width="9" rx="15.753"/><ellipse cx="947.989" cy="529.167" fill="#fff" stroke="#304063" stroke-linecap="round" stroke-linejoin="round" stroke-width="9" rx="25.662" ry="25.696"/><rect width="661.529" height="78.004" x="1068.61" y="624.168" fill="#fff" stroke="#304063" stroke-linecap="round" stroke-linejoin="round" stroke-width="9" rx="15.753"/><path fill="none" stroke="#304063" stroke-linecap="round" stroke-linejoin="round" stroke-width="9" d="M1057.8888,433.9039a240.4162,240.4162,0,0,0-42.4154,25.7932"/><path fill="none" stroke="#304063" stroke-linecap="round" stroke-linejoin="round" stroke-width="9" d="M1807.2548,829.2687l-17.1828,19.738"/><path fill="#bebdff" d="M1189.3882,1040.4906c-152.4,230.2233-252.549,753.8685-91.44,953.621l160.4159,9.79s106.0289-240.4188-11.5329-494.8079C1112.1081,1217.57,1189.3882,1040.4906,1189.3882,1040.4906Z"/><g clip-path="url(#e)"><path fill="#9598ed" d="M1251.0085,995.12l-61.62,45.37s-118.1055,357.7249-17.2068,523.1042-50.4494,488.6612-50.4494,488.6612l392.463,10.1425V1359.7636Z"/><path fill="#9598ed" d="M997.3981,1335.076c-119.5046,120.948-90.802,199.0574-7.2439,302.6969,168.8579,209.4392,144.19,460.0148,144.19,460.0148H848.45L650.8714,1769.9036Z"/></g><path fill="none" stroke="#304063" stroke-linecap="round" stroke-linejoin="round" stroke-width="9" d="M1189.3882,1040.4906c-152.4,230.2233-252.549,753.8685-91.44,953.621l160.4159,9.79s106.0289-240.4188-11.5329-494.8079C1112.1081,1217.57,1189.3882,1040.4906,1189.3882,1040.4906Z"/><path fill="#bebdff" d="M939.7421,1428.71s-121.92,385.9626,23.2229,582.33h188.1081S907.8106,1579.9354,939.7421,1428.71Z"/><g clip-path="url(#f)"><path fill="#9598ed" d="M738.2482,1703.18c5.1137,184.3339,227.3065,85.4033,259.15,224.7624s240.118,152.4345,240.118,152.4345L891.8322,2135.94Z"/></g><path fill="none" stroke="#304063" stroke-linecap="round" stroke-linejoin="round" stroke-width="9" d="M939.7421,1428.71s-121.92,385.9626,23.2229,582.33h188.1081S907.8106,1579.9354,939.7421,1428.71Z"/><path fill="#bebdff" d="M1279.377,1309.0844s-6.4317,546.2161-96.42,685.0272h134.1577S1441.9373,1600.2492,1279.377,1309.0844Z"/><g clip-path="url(#g)"><path fill="#9598ed" d="M1410.3139,1338.3448l-108.0658,16.4721s58.6739,275.19,12.8731,431.3625-169.2785,287.66-156.1091,297.4667,203.8862,35.7491,203.8862,35.7491l90.7982-125.2836Z"/></g><path fill="none" stroke="#304063" stroke-linecap="round" stroke-linejoin="round" stroke-width="9" d="M1279.377,1309.0844s-6.4317,546.2161-96.42,685.0272h134.1577S1441.9373,1600.2492,1279.377,1309.0844Z"/><path fill="#bebdff" stroke="#304063" stroke-linecap="round" stroke-linejoin="round" stroke-width="9" d="M1354.5206,1451.2812s135.1112,397.2481-15.176,559.7586l-101.8285-7.1379S1409.6749,1713.1038,1354.5206,1451.2812Z"/><path fill="#1de7b8" d="M1418.6047,2039.3794l-267.4377-12.6917v-.0075l-.09.0038-.09-.0038v.0075l-267.4466,12.6917s-27.657,298.6687,107.9719,350.9893h319.1248C1446.2661,2338.0481,1418.6047,2039.3794,1418.6047,2039.3794Z"/><g clip-path="url(#h)"><path fill="#dbdbf2" d="M1072.7444,2036.6233c415.615,98.7073,383.6969,312.6616-81.2319,353.7454s531.4815,131.7877,531.4815,131.7877l29.3062-298.79-74.5976-264.1086-404.9582,77.3651"/></g><path fill="none" stroke="#304063" stroke-linecap="round" stroke-linejoin="round" stroke-width="9" d="M1418.6047,2039.3794l-267.4377-12.6917v-.0075l-.09.0038-.09-.0038v.0075l-267.4466,12.6917s-27.657,298.6687,107.9719,350.9893h319.1248C1446.2661,2338.0481,1418.6047,2039.3794,1418.6047,2039.3794Z"/><rect width="605.247" height="74.88" x="848.45" y="1989.239" fill="#1de7b8" stroke="#304063" stroke-linecap="round" stroke-linejoin="round" stroke-width="9"/><path fill="none" stroke="#304063" stroke-linecap="round" stroke-linejoin="round" stroke-width="9" d="M1023.4633,2260.5023a255.9836,255.9836,0,0,0,85.2494,16.0393"/><path fill="none" stroke="#304063" stroke-linecap="round" stroke-linejoin="round" stroke-width="9" d="M1084.9192,1577.6377a207.804,207.804,0,0,0-13.6336,77.2967"/><path fill="none" stroke="#304063" stroke-linecap="round" stroke-linejoin="round" stroke-width="9" d="M1279.11,1783.0088a23.4855,23.4855,0,0,1-2.3859,16.0752"/><path fill="none" stroke="#304063" stroke-linecap="round" stroke-linejoin="round" stroke-width="9" d="M1378.2463,1743.0211l-2.7983,23.9942"/><path fill="none" stroke="#304063" stroke-linecap="round" stroke-linejoin="round" stroke-width="9" d="M927.3809,1769.646a56.3628,56.3628,0,0,0,8.2354,29.2988"/><path fill="#fff" d="M1166.0172,2465.72l23.4415-379.7118,55.6527-90.2214s131.09-30.6539,487.9694-31.0245a129.7481,129.7481,0,0,1,123.236,89.4286L2025.67,2570.66l-830.5121,15.6807Z"/><g clip-path="url(#i)"><path fill="#dbdbf2" d="M1304.5611,2214.87c-150.075,348.6983,357.21,52.2237,265.3951,243.3512-88.24,183.686-677.8272,106.2043-677.8272,106.2043l227.298-380.7109"/><path fill="#dbdbf2" d="M1820.3394,2261.0727c143.7611,304.3266-104.02,242.1064-104.02,242.1064l152.0252,162.0017,294.3218-78.84-20.3985-272.6037-245.9123-125.6"/></g><path fill="none" stroke="#304063" stroke-linecap="round" stroke-linejoin="round" stroke-width="9" d="M1166.0172,2465.72l23.4415-379.7118,55.6527-90.2214s131.09-30.6539,487.9694-31.0245a129.7481,129.7481,0,0,1,123.236,89.4286L2025.67,2570.66l-830.5121,15.6807Z"/><polyline fill="#fff" stroke="#304063" stroke-linecap="round" stroke-linejoin="round" stroke-width="9" points="1827.848 2005.999 2366.617 2586.341 2118.921 2559.804 1820.339 2261.073"/><path fill="#ffae66" d="M1493.8509,2441.9327h13.1134c49.74,0,218.5562,15.7683,225.841,17.1711,75.766,14.59,173.3876,98.4357,185.0439,103.2029h0l-440.39-3.1478"/><g clip-path="url(#j)"><path fill="#e0853a" d="M1592.511,2422.7748c-35.5855,119.1347-12.4181,97.1309,64.9587,119.1347,288.8019,82.126-141.4688,68.054-160.8707,60.4073l-60.3265-80.543,94.7881-81.8351"/></g><path fill="none" stroke="#304063" stroke-linecap="round" stroke-linejoin="round" stroke-width="9" d="M1493.8509,2441.9327h13.1134c49.74,0,218.5562,15.7683,225.841,17.1711,75.766,14.59,173.3876,98.4357,185.0439,103.2029h0l-440.39-3.1478"/><path fill="#fff" d="M1307.748,2195.0276l-109.2541,221.6312,394.3678-9.2149c5.4062,36.999-52.8712,178.897-52.8712,178.897H1001.22a151.69,151.69,0,0,1-146.3435-112.0136v0A151.9793,151.9793,0,0,1,905.6719,2316.55s290.454-322.3733,347.2909-322.3728"/><g clip-path="url(#k)"><ellipse cx="804.352" cy="2563.858" fill="#dbdbf2" rx="194.269" ry="194.529"/><path fill="#fff" stroke="#304063" stroke-linecap="round" stroke-linejoin="round" stroke-width="9" d="M1464.4305,2369.33c42.5338,72.6031-113.8818,278.7147-113.8818,278.7147"/></g><path fill="none" stroke="#304063" stroke-linecap="round" stroke-linejoin="round" stroke-width="9" d="M1307.748,2195.0276l-109.2541,221.6312,394.3678-9.2149c5.4062,36.999-52.8712,178.897-52.8712,178.897H1001.22a151.69,151.69,0,0,1-146.3435-112.0136v0A151.9793,151.9793,0,0,1,905.6719,2316.55s290.454-322.3733,347.2909-322.3728"/><path fill="#83c0e9" stroke="#304063" stroke-linecap="round" stroke-linejoin="round" stroke-width="9" d="M1427.9446,2542.51h478.2483a0,0,0,0,1,0,0v43.8308a0,0,0,0,1,0,0H1390.4012a0,0,0,0,1,0,0v-6.2874A37.5434,37.5434,0,0,1,1427.9446,2542.51Z"/><path fill="#83c0e9" stroke="#304063" stroke-linecap="round" stroke-linejoin="round" stroke-width="9" d="M2504.1835,2586.3409h-707.622l200.79-466.6669a29.6023,29.6023,0,0,1,27.1872-17.9137h664.0455a15.8758,15.8758,0,0,1,14.5623,22.16Z"/><path fill="#83c0e9" d="M2522.9635,2586.3409h-707.622l200.79-466.6669a29.6023,29.6023,0,0,1,27.1872-17.9137h664.0455a15.8758,15.8758,0,0,1,14.5623,22.16Z"/><path fill="none" stroke="#304063" stroke-linecap="round" stroke-linejoin="round" stroke-width="9" d="M2522.9635,2586.3409h-707.622l200.79-466.6669a29.6023,29.6023,0,0,1,27.1872-17.9137h664.0455a15.8758,15.8758,0,0,1,14.5623,22.16Z"/><ellipse cx="2273.401" cy="2344.051" fill="#fff" stroke="#304063" stroke-linecap="round" stroke-linejoin="round" stroke-width="9" rx="65.457" ry="42.992" transform="rotate(-30.469 2273.618 2344.1)"/><polygon fill="#ffae66" points="1434.147 1989.788 1584.048 1615.351 1765.33 1615.351 1783.339 1821.231 1657.226 1860.16 1641.026 2075.749 1434.147 1989.788"/><g clip-path="url(#l)"><path fill="#e0853a" d="M1607.7241,1790.3866c34.2141,50.08-70.53,131.3414,60.6361,154.964s25.4782-162.9957,25.4782-162.9957l-52.8128-22.2052"/><ellipse cx="1693.668" cy="1756.262" fill="#e0853a" rx="29.465" ry="29.505"/></g><polygon fill="none" stroke="#304063" stroke-linecap="round" stroke-linejoin="round" stroke-width="9" points="1434.147 1989.788 1584.048 1615.351 1765.33 1615.351 1783.339 1821.231 1657.226 1860.16 1641.026 2075.749 1434.147 1989.788"/><path fill="#83c0e9" stroke="#304063" stroke-linecap="round" stroke-linejoin="round" stroke-width="9" d="M1650.0193,1701.95c-139.7036,311.9781,195.24,231.4081,129.22,72.4046-131.4371,43.0607-99.2831-72.4046-99.2831-72.4046s60.9817-23.315,38.8066-69.9452c0,0,46.2787-19.959,48.9062,10.0788,53.1-57.8192,13.1843-122.2133-112.1055-87.7958S1491.4668,1792.99,1491.4668,1792.99,1559.1011,1904.0144,1650.0193,1701.95Z"/><path fill="#ffae66" stroke="#304063" stroke-linecap="round" stroke-linejoin="round" stroke-width="9" d="M1641.0256,1723.1057c-71.9457-67.7856-115.8864,18.2828-39.8381,98.1252"/><polyline fill="#08c2e6" stroke="#304063" stroke-linecap="round" stroke-linejoin="round" stroke-width="9" points="1618.273 2015.003 1686.525 2005.999 1675.482 2209.89 1577.164 2228.128 1464.794 2071.183 1464.43 2016.432 1535.604 2022.561 1573.381 2019.428 1603.948 2019.424"/><polygon fill="#1de7b8" stroke="#304063" stroke-linecap="round" stroke-linejoin="round" stroke-width="9" points="1599.815 2051.209 1680.04 2207.66 1678.785 2348.922 1638.234 2333.23 1580.721 2204.036 1566.023 2041.134 1599.815 2051.209"/><path fill="#1de7b8" stroke="#304063" stroke-linecap="round" stroke-linejoin="round" stroke-width="9" d="M1618.0964,2016.9313l-9.196,34.4332c-2.2568,8.45-9.8272,13.9122-19.9562,14.3983l-8.1827.3927c-10.0068.48-21.0792-3.9658-29.2726-11.7543l-29.6729-28.2062,39.5863-5.9136Z"/><path fill="#08c2e6" stroke="#304063" stroke-linecap="round" stroke-linejoin="round" stroke-width="9" d="M1429.0708,1985.8519s14.0572-35.3051,22.7924-35.8212c0,0,53.4993,52.463,111.9377,70.1916l-37.4919,54.7471S1425.5554,2020.7618,1429.0708,1985.8519Z"/><path fill="#fff" stroke="#304063" stroke-linecap="round" stroke-linejoin="round" stroke-width="9" d="M1438.0866,1965.0036,1656.19,2318.6124l20.9788,50.7172-218.9376-177.2484,29.9647-52.2465-60.8859-22.7339-11.3948-114.5076S1408.0755,1976.9172,1438.0866,1965.0036Z"/><path fill="#08c2e6" stroke="#304063" stroke-linecap="round" stroke-linejoin="round" stroke-width="9" d="M1664.98,1971.2236s-5.6452-22.39-14.3856-22.8081c0,0-22.4283,52.49-56.0222,69.9059l27.0667,47.3419S1690.3228,2007.1175,1664.98,1971.2236Z"/><path fill="#1de7b8" d="M1802.71,2307.4385l-106.04,8.9a10.7925,10.7925,0,0,1-11.48-10.152l-4.88-62.8411a10.9564,10.9564,0,0,1,9.7646-11.9353l106.04-8.9005a10.7927,10.7927,0,0,1,11.48,10.1521l4.88,62.8411A10.9564,10.9564,0,0,1,1802.71,2307.4385Z"/><path fill="none" stroke="#304063" stroke-linecap="round" stroke-linejoin="round" stroke-width="9" d="M1802.71,2307.4385l-106.04,8.9a10.7925,10.7925,0,0,1-11.48-10.152l-4.88-62.8411a10.9564,10.9564,0,0,1,9.7646-11.9353l106.04-8.9005a10.7927,10.7927,0,0,1,11.48,10.1521l4.88,62.8411A10.9564,10.9564,0,0,1,1802.71,2307.4385Z"/><ellipse cx="1715.459" cy="2274.673" fill="#10cc9b" rx="18.354" ry="19.082"/><polygon fill="#10cc9b" points="1795.448 2254.573 1745.457 2258.769 1745.097 2254.125 1795.088 2249.929 1795.448 2254.573"/><polygon fill="#10cc9b" points="1796.679 2270.422 1746.688 2274.619 1746.327 2269.974 1796.318 2265.778 1796.679 2270.422"/><polygon fill="#10cc9b" points="1784.445 2287.402 1747.919 2290.468 1747.558 2285.823 1784.085 2282.757 1784.445 2287.402"/><path fill="#08c2e6" stroke="#304063" stroke-linecap="round" stroke-linejoin="round" stroke-width="9" d="M1779.4585,2219.6035l-21.195,1.7812-.7769-9.9863c-.688-8.8968-8.1882-15.5291-16.75-14.8138-8.56.72-14.9388,8.5178-14.2485,17.4169l.7769,9.984-21.1972,1.7789,1.3055,16.8082,73.3929-6.161Z"/><path fill="#fff" stroke="#304063" stroke-linecap="round" stroke-linejoin="round" stroke-width="9" d="M1660.6365,1959.0689s8.52,323.6809-4.4462,359.5435l20.9788,50.7172,66.0867-204.4991-37.2319-37.6373,51.6726-14.072L1686.57,1980.1674S1684.64,1961.1562,1660.6365,1959.0689Z"/><ellipse cx="1690.409" cy="2413.334" fill="#fff" stroke="#304063" stroke-linecap="round" stroke-linejoin="round" stroke-width="9" rx="19.084" ry="19.11"/><path fill="#ffae66" stroke="#304063" stroke-linecap="round" stroke-linejoin="round" stroke-width="9" d="M2312.4651,2270.3625s-12.1894-.9193-18.0118,10.5923c0,0-8.3862,16.5773-17.8543,72.2941,0,0-2.4714,16.3463,4.65,16.3463h75.66c5.2742,0,20.2915-3.11,24.66-11.7459l44.258-87.4868s-25.2037-24.174-9.5973-55.0239c-.2406-1.6122,7.5464-11.2808-6.4216-11.2808,0,0-34.5868,3.2216-46.9865,66.3047Zm0,0"/><path fill="#08c2e6" stroke="#304063" stroke-linecap="round" stroke-linejoin="round" stroke-width="9" d="M2453.9805,2270.3914s-7.62-.085-11.0486,6.6914l-44.9212,88.7977s-1.9279,3.7147,3.5084,3.7147h26.0986s6.4264,0,9.2672-5.6155l50.863-88.2342s2.6125-5.3541-3.6144-5.3541Zm0,0"/><path fill="#1de7b8" stroke="#304063" stroke-linecap="round" stroke-linejoin="round" stroke-width="9" d="M2105.6571,2393.1657l6.4594,86.92a12.7547,12.7547,0,0,1-12.72,13.7H1985.41c-12.0245,0-17.37-15.1149-8.0183-22.6741l107.527-86.92A12.7549,12.7549,0,0,1,2105.6571,2393.1657Z"/><path fill="none" stroke="#304063" stroke-linecap="round" stroke-linejoin="round" stroke-width="9" d="M1596.0725,1747.3437l1.2683,8.9185"/><path fill="#ffae66" stroke="#304063" stroke-linecap="round" stroke-linejoin="round" stroke-width="9" d="M1766.5154,1709.24c34.8652,16.0012,27.7947,51.3875,4.4857,46.5114"/><path fill="#ffae66" stroke="#304063" stroke-linecap="round" stroke-linejoin="round" stroke-width="9" d="M1727.7223,1753.0372c9.9523,17.8884,27.798,11.9793,27.798,11.9793"/><path fill="none" stroke="#304063" stroke-linecap="round" stroke-linejoin="round" stroke-width="9" d="M1646.8564,1613.5056l-3.81,7.6473"/><path fill="none" stroke="#304063" stroke-linecap="round" stroke-linejoin="round" stroke-width="9" d="M1708.0589,1856.2654h11.45"/><path fill="none" stroke="#304063" stroke-linecap="round" stroke-linejoin="round" stroke-width="9" d="M1192.6814,2419.78l-46.2635,21.9566"/><path fill="none" stroke="#304063" stroke-linecap="round" stroke-linejoin="round" stroke-width="9" d="M2169.8958,2217.4389l-49.6188,34.3975"/><path fill="none" stroke="#304063" stroke-linecap="round" stroke-linejoin="round" stroke-width="9" d="M1851.8263,2138.4521l-10.1782,10.1918"/></svg>