<svg xmlns="http://www.w3.org/2000/svg" enable-background="new 0 0 350 350" viewBox="34.183 54.995 281.721 239.998"><path fill="#f3f1fc" d="M294.8 239.3c-2.4 8.9-5.1 17.1-9.8 24.6H57.4c-7-5.3-11.9-13.6-10-22.3 2.3-11 13.9-18.7 19.7-28.5 3.9-6.4 4.7-13.7 3.8-21.2-.2-1.6-.5-3.2-.8-4.7-.6-3-1.5-5.9-2.4-8.8-.8-2.5-1.8-5.1-2.7-7.6-2.9-7.9-5.9-15.9-6.4-24.2-1.5-21.9 16-43.5 38.8-48 27-5.3 55.3 11.1 81.8 2.4 6.6-2.2 12.6-6.3 16.7-11.7 1.9-2.6 3.5-5.4 4.3-8.5.7-2.4-.4-7.1.6-9 2.8-5 15.2-5.1 20.1-4.7 7.1.6 14.1 2.9 20.3 6 19.1 9.5 34.2 24.8 44.6 42.7.5.8 1 1.7 1.4 2.5.2.3.3.6.5.8l.1.1c4 7.4 7.2 15.2 9.5 23.2 9.5 31.2 6 65.9-2.5 96.9z"/><path fill="#d0cef2" d="M70.1 187.2c1.7 7.9 1.8 16.1-1.6 23.4-.4.9-.9 1.7-1.3 2.5h233.4c3.6-22.3 3.7-45.6-2.3-67.6h-12.5c-.8 0-1.5.7-1.5 1.5v26.7c0 1.6-1.3 2.9-2.9 2.9h-12.9c-1.6 0-2.9-1.3-2.9-2.9v-32.1c0-.8-.7-1.5-1.5-1.5h-5.3c-.8 0-1.5.7-1.5 1.5v22.9c0 1.6-1.3 2.9-2.9 2.9h-23.2c-1.6 0-2.9-1.3-2.9-2.9v-28c0-.8-.7-1.5-1.5-1.5h-32.4c-.8 0-1.5.7-1.5 1.5v16.3c0 1.6-1.3 2.9-2.9 2.9h-18.3c-1.6 0-2.9-1.3-2.9-2.9V137c0-.8-.7-1.5-1.5-1.5h-2.7c-.8 0-1.5.7-1.5 1.5v30.9c0 1.6-1.3 2.9-2.9 2.9h-5.1c-1.6 0-2.9-1.3-2.9-2.9v-12.7c0-1.2-1-2.2-2.2-2.2h-14.5c-1.2 0-2.2 1-2.2 2.2v17.6c0 1.6-1.3 2.9-2.9 2.9h-8.3c-1.6 0-2.9-1.3-2.9-2.9v-37.2c0-.8-.7-1.5-1.5-1.5H97.8c-.8 0-1.5.7-1.5 1.5v32.2c0 1.6-1.3 2.9-2.9 2.9H64.9c.9 2.5 1.8 5 2.7 7.6 1 2.9 1.8 5.9 2.5 8.9z"/><path fill="#fff" d="M92.6 99.8v164.1h-5.1V101.8c1.6-.8 3.3-1.4 5.1-2zM139.9 215.7V101.3c-.1 0-4.3-.7-5.1-.9v115.2h5.1z"/><path fill="#fff" d="M300.5 213.1c-.2 1.1-.6 3.7-.9 5.1H63.5c1.3-1.7 2.6-3.4 3.6-5.1h233.4z"/><path fill="#fff" d="M234.5 215.7V70.3c-1.7-.6-3.4-1.2-5.1-1.6v147h5.1z"/><path fill="#e2dff4" d="M284.7 263.9c-3.2 5.7-7.6 10.8-13.4 14.1-8.6 5-19.2 5.5-29.3 5.8-50.1 1.2-100.3-1.4-149.9-7.8-12.3-1.6-25.4-3.6-34.5-12.1h227.1z"/><path fill="#f3f1fc" d="M154.7 76.5c-2.4-2.7-6.2-4.1-9.7-3.6-5.2.7-8.3 4.3-15.5-.7-2-1.4-3.9-3.1-6-4.4-2.1-1.3-4.6-2.2-7-1.8-2 .3-3.7 1.5-5.1 2.9-1.3 1.3-4.1 4.9-3.7 7.6h47z"/><path fill="#fff" d="M139.2 113.5c-2-2.2-5.1-3.4-8-3-2.4.3-4.7 1.6-7.2 1.6-4.2-.1-7.2-3.7-10.6-5.8-3.6-2.2-7-2.2-10.1.9-1.1 1.1-3.4 4-3 6.3h38.9zM218.8 79.2c-.3-2.4 1.3-6.1 3-6.5 1.7-.4 3.4.5 4.9 1.6 1.5 1.1 3 2.3 4.7 2.6 3.9.7 7.4-3.6 11.3-3.8 4.4-.3 8.6 4.8 12.9 3.3 1.9-.7 3.7-2.6 5.7-2.3 2 .3 3.4 2.8 4.6 5.1h-47.1z"/><path fill="#fff" d="M297.3 104v114.8c0 5-4 9-9 9h-145c-5 0-9-4-9-9V104c0-5 4-9 9-9h144.9c5 0 9.1 4.1 9.1 9z"/><path fill="#f7a386" d="M160.2 174s-11.4 21.6-18.5 23.4c-3 .7-12.9-2.9-12.9-2.9l4-12.7 6.2 1.4.3.1 15.5-16.2c0-.1 5.7 7.3 5.4 6.9z"/><linearGradient id="a" x1="128.751" x2="160.191" y1="185.199" y2="185.199" gradientUnits="userSpaceOnUse"><stop offset="0" stop-color="#f7a386"/><stop offset="1" stop-color="#fd6b58"/></linearGradient><path fill="url(#a)" d="M160.2 174s-11.4 21.6-18.5 23.4c-3 .7-12.9-2.9-12.9-2.9l4-12.7 6.2 1.4c-.2.6-.4 1.3-.5 1.9-.3 1.5.1 3 .4 4.5.2 1 .4 2 .9 2.8s1.3 1.6 2.2 1.8c1.3.3 2.7-.5 3.5-1.6.8-1.1 1.2-2.4 1.7-3.7 2.3-6.4 6.6-12 12.2-15.9l.8 1z"/><path fill="#f45170" d="m134.4 197.8-7.8-2-12.5-3.2-3.8-24.2 2.4 1.1 24.8 11.4c1.5 1.3-1.8 17.2-3.1 16.9z"/><path fill="#d12057" d="m126.6 195.8-12.5-3.2-3.8-24.2 2.4 1.1c2.2 1.2 4.9 2.9 5.4 3.3 4.9 4.4 7.3 13 8.5 23z"/><linearGradient id="b" x1="134.265" x2="297.262" y1="105.615" y2="105.615" gradientUnits="userSpaceOnUse"><stop offset="0" stop-color="#57b3fe"/><stop offset="1" stop-color="#497bfe"/></linearGradient><path fill="url(#b)" d="M297.3 116.2V104c0-5-4-9-9-9h-145c-5 0-9 4-9 9v12.2h163z"/><path fill="#f3f1fc" d="M250.5 206.2c0 .7-13.6 1.2-30.4 1.2-16.8 0-30.4-.6-30.4-1.2 0-.7 13.6-1.2 30.4-1.2 16.8-.1 30.4.5 30.4 1.2z"/><path fill="#9fbcfc" d="M203.6 129.1c0 .1-.1.2-.2.2-.9 0-1.7.8-1.7 1.7 0 .1-.1.2-.2.2s-.2-.1-.2-.2c0-.9-.8-1.7-1.7-1.7-.1 0-.2-.1-.2-.2s.1-.2.2-.2c.9 0 1.7-.8 1.7-1.7 0-.1.1-.2.2-.2s.2.1.2.2c0 .9.8 1.7 1.7 1.7.1 0 .2.1.2.2z"/><path fill="#6eb954" d="m167 208.3 2.6 3.3c.2.2.1.5-.1.7l-1.5 1.2c-.2.2-.5.1-.7-.1l-2.6-3.3c-.2-.2-.1-.5.1-.7l1.5-1.2c.2-.2.5-.2.7.1z"/><path fill="#ffd475" d="M148.3 154.9c0 .1-.1.2-.2.2-1 0-1.8.8-1.8 1.8 0 .1-.1.2-.2.2s-.2-.1-.2-.2c0-1-.8-1.8-1.8-1.8-.1 0-.2-.1-.2-.2s.1-.2.2-.2c1 0 1.8-.8 1.8-1.8 0-.1.1-.2.2-.2s.2.1.2.2c0 1 .8 1.8 1.8 1.8.1 0 .2.1.2.2zM259.6 215.7c0 .1-.1.3-.3.3-1.1 0-2 .9-2 2 0 .1-.1.3-.3.3-.1 0-.3-.1-.3-.3 0-.5-.2-1-.6-1.4-.4-.4-.9-.6-1.4-.6-.1 0-.3-.1-.3-.3 0-.1.1-.3.3-.3.5 0 1-.2 1.4-.6s.6-.9.6-1.4c0-.1.1-.3.3-.3.1 0 .3.1.3.3 0 .5.2 1 .6 1.4.4.4.9.6 1.4.6.1 0 .3.1.3.3z"/><path fill="#e2dff4" d="m257.8 131.3-1.7 1.4c-.5.4-1.1 0-1.1-.6l.4-3.1c.1-.6.8-.8 1.2-.3l1.4 1.7c.1.2.1.6-.2.9z"/><linearGradient id="c" x1="286.853" x2="291.841" y1="176.455" y2="176.455" gradientUnits="userSpaceOnUse"><stop offset="0" stop-color="#88cfff"/><stop offset="1" stop-color="#a9e0ff"/></linearGradient><path fill="url(#c)" d="M291.8 176.5c0 .1-.1.3-.3.3-1.1 0-2 .9-2 2 0 .1-.1.3-.3.3-.1 0-.3-.1-.3-.3 0-.5-.2-1-.6-1.4-.4-.4-.9-.6-1.4-.6-.1 0-.3-.1-.3-.3 0-.1.1-.3.3-.3 1.1 0 2-.9 2-2 0-.1.1-.3.3-.3.1 0 .3.1.3.3 0 .5.2 1 .6 1.4.4.4.9.6 1.4.6.2 0 .3.1.3.3z"/><path fill="#fff" d="M264.2 105.6c0 1.9-1.6 3.5-3.5 3.5s-3.5-1.6-3.5-3.5 1.6-3.5 3.5-3.5c2 0 3.5 1.6 3.5 3.5zM276 105.6c0 1.9-1.6 3.5-3.5 3.5s-3.5-1.6-3.5-3.5 1.6-3.5 3.5-3.5 3.5 1.6 3.5 3.5zM287.7 105.6c0 1.9-1.6 3.5-3.5 3.5s-3.5-1.6-3.5-3.5 1.6-3.5 3.5-3.5 3.5 1.6 3.5 3.5z"/><path fill="#4c5c75" d="M124 263.9H72.6c-5.4-12.7 2.3-19.4 2.3-19.4s44.6-13.6 44-3.3c-.1 1.4 0 2.9.1 4.4.8 9.1 5 18.3 5 18.3z"/><path fill="#111d33" d="M119 245.6c-1.8 2.1-4.2 3.9-6.5 5.1-8.3 4.4-17.8 3.3-26.9.6-1.9-.6-4.4-1-5.6.5-.8 1-.7 2.6 0 3.7s1.8 1.9 2.9 2.6c5 3 10.7 4.9 16.6 5.3-.9-1.5-.9-3-.2-5.3.6 3.3 1 3.1 3.6 4.8l1.2.9H72.6c-5.4-12.7 2.3-19.4 2.3-19.4s44.6-13.6 44-3.3c-.1 1.5 0 3 .1 4.5z"/><path fill="#f7a386" d="M148.1 149.8s.2-.2.4-.3c-.2.2-.4.3-.4.3z"/><path fill="#8a4852" d="M110.8 139.7s1.5 5.4-2.7 7.7l-3-9.7 5.7 2z"/><path fill="#f45170" d="M119.2 226.9c-.1 4.3-.2 8.9-.1 13.9.1 11.9-49.5 12-47.2.5 7.1-33.8-6-40.2-6-54.3 0-7.5 5.7-13.8 12.3-18.1 2.8-1.8 5.8-3.2 8.5-4.2 3-1.1 5.8-1.6 7.9-1.5 1.6.1 3.8.6 6.2 1.4 8.1 2.6 13.1 5 16.2 9 7.5 9.9 3.1 23.1 2.2 53.3z"/><path fill="#d12057" d="M120.3 206.6c-1.8 1.7-3.9 3-6 4.2-3.5 2.1-6.9 4.2-10.4 6.2-2.7 1.6-5.3 3.2-8.1 4.5-3.4 1.6-7.1 2.8-10.8 3.4-2.1.4-4.7.5-6.1-1.2-1.1-1.4-.9-3.5 0-5s2.5-2.5 4.1-3.3c5-2.7 10.6-4 16.1-5.7 5.5-1.6 11-3.5 15.5-7.1 2-1.5 5.2-4.6 7.8-2.7 2.4 1.9-.7 5.4-2.1 6.7z"/><path fill="#d12057" d="M119 240.8c.1 11.7-48.1 12.1-47.3.9.2-1.3 2.4-10.3 2.2-20 0-.9-.1-2.8-.2-3.3-.2-2.9-.7-5.9-1.1-7.2-.1-.5-.3-1.1-.4-1.6 0-.1-.3-1.3-.5-1.7-.5-1.8-.8-2.6-1.2-3.6-.9-2.6-1.8-4.6-2.6-6.8-.2-.6-.4-1.1-.6-1.7h18.3c-2 5.6-5 6.8-6.6 9.9-2.2 4.3-.1 9.5 1.9 13.9 1.9 4.4 3.6 10 .6 13.8-1.1 1.5-2.8 2.5-3.9 3.9-1.1 1.5-1.5 3.8-.1 5 1 .8 2.4.7 3.6.6 8.5-.8 17-1.6 25.5-2.3 3.5-.3 7.6-1.1 9-4.2 1.3-2.9 0-6.9 2.4-8.9.3-.3.6-.4 1-.6v13.9z"/><path fill="#fff" d="m100.8 164.6.5 18.8-14.7-18.7c3-1.1 5.8-1.6 7.9-1.5 1.6.1 3.8.6 6.3 1.4z"/><linearGradient id="d" x1="100.017" x2="76.541" y1="166.255" y2="160.185" gradientUnits="userSpaceOnUse"><stop offset="0" stop-color="#fee1bc"/><stop offset="1" stop-color="#fd6b58"/></linearGradient><path fill="url(#d)" d="M98.8 161.3v2.7l-1 7.4-9.5-7v-6.9c.9 2 6.1 3.4 10.5 3.8z"/><linearGradient id="e" x1="111.799" x2="68.088" y1="149.547" y2="146.055" gradientUnits="userSpaceOnUse"><stop offset="0" stop-color="#fee1bc"/><stop offset="1" stop-color="#fd6b58"/></linearGradient><path fill="url(#e)" d="M104.5 160.8c-2.6 1.5-14.8-.1-16.2-3.3-1.3-2.8-1.7-6.1-1.2-9.2-.4-1.6-.2-3.1.7-3.5.1 0 .2-.1.2-.1 2.2-5.5 7.4-9.7 15.4-8.6 6.7 1 6.2 21.7 1.1 24.7z"/><path fill="#8a4852" d="M104.3 142.4c-11.7-1.7-12.8-1.6-12.4.9.3 1.9.4 3.7-.4 3.9-1-1.8-2.6-2.9-3.7-2.4s-1.3 2.7-.3 4.8c.2.5.5 1 .8 1.3-.2 3-.1 6.5-.1 7 0 0-.3-.4-.7-1.1-2.5-3.8-10.4-16.7-2.2-18.4 0 0-5.1-13.1 9.6-10.1 7.7 1.6 13.5-1.3 14.9 1.3.6 1.1 1.9 4.1 2.1 6.9.3 3.6-1.1 6.8-7.6 5.9z"/><path fill="#e27659" d="M104.5 155.6c-.1.9-.9 1.6-1.8 1.6s-1.8-.7-2-1.6h3.8z"/><path fill="#51383c" d="M104.3 142.4c-11.7-1.7-12.8-1.6-12.4.9.3 1.9.4 3.7-.4 3.9-1-1.8-2.6-2.9-3.7-2.4s-1.3 2.7-.3 4.8c.2.5.5 1 .8 1.3-.2 3-.1 6.5-.1 7 0 0-.3-.4-.7-1.1-.3-1.2.4-2.5.3-3.7 0-2.2-2.1-4.1-1.9-6.3.2-2.1 2.3-3.4 4.2-2.8-.3-.6-.6-1.2-.6-1.9s.2-1.4.8-1.8c1-.7 2.5.1 3.7-.3.8-.3 1.2-1 1.8-1.5 1.9-1.6 4.7-1 7-.8 2.9.2 5.8-.1 8.6-1 .2-.1.4-.1.6-.2.2 3.6-1.2 6.8-7.7 5.9zM85.4 138.4s1.6.6 2.5 2.9c0 0 .1-3-2.8-3.6l.3.7z"/><path fill="#e27659" d="M102.6 148.4c-.1.5 0 1 .1 1.5.2.5.4.9.6 1.4.1.2.2.5.3.7 0 .1.1.3.1.5s-.1.5-.3.6c-.4.3-.7.2-.9.2-.3 0-.5-.1-.8-.1v-.1c.3-.1.5-.2.7-.3.2-.1.5-.1.6-.2.1.1-.1-.7-.2-1.1-.2-.5-.3-1-.4-1.5-.1-.6-.1-1.1.2-1.6z"/><path fill="#111d33" d="M98.7 145.3c.5 0 1 .2 1.3.6.1.2.3.4.2.6-.1.2-.4.3-.6.3-.2 0-.5-.2-.7-.3-.4-.2-.8-.2-1.2-.2-.4 0-.7.2-1.1.3-.3.1-.6.5-.9.3-.4-.2 0-.6.4-.8.7-.4 1.7-.8 2.6-.8zM106.2 145.2c.5.1 1 .3 1.3.7.1.2.2.4.1.6-.1.2-.4.3-.6.2-.2-.1-.4-.2-.7-.3-.4-.2-.8-.3-1.2-.2-.4 0-.8.1-1.1.3-.3.1-.7.5-.9.3-.4-.3.1-.6.4-.8.7-.5 1.8-.9 2.7-.8zM96.8 148.5c.3-.3.9-.8 1.3-.9.3-.1.6-.1.9.1.3.1.5.3.6.6-.3-.1-.5-.2-.7-.3-.6-.2-.6-.2-1.3.1-.3.2-.5.3-.8.4z"/><path fill="#111d33" d="M99 148.2c0 .3-.3.6-.6.6s-.6-.3-.6-.6.3-.6.6-.6c.3.1.6.3.6.6z"/><path fill="#fff" d="M98.7 148.3c0 .1-.1.2-.2.2s-.2-.1-.2-.2.1-.2.2-.2.2.1.2.2z"/><path fill="#111d33" d="M103.7 148.5c.2-.2.4-.4.6-.5.2-.2.4-.3.7-.4.3-.1.6-.1.9.1.3.1.5.3.6.6-.3-.1-.5-.2-.7-.3-.2-.1-.4-.2-.7-.1-.2 0-.5.2-.7.3-.2.1-.5.2-.7.3z"/><path fill="#111d33" d="M105.9 148.2c0 .3-.3.6-.6.6s-.6-.3-.6-.6.3-.6.6-.6c.3.1.6.3.6.6z"/><path fill="#fff" d="M105.6 148.3c0 .1-.1.2-.2.2s-.2-.1-.2-.2.1-.2.2-.2.2.1.2.2z"/><path fill="#e27659" d="M90.1 147.8c-.3-1.3-1.2-2-2.1-1.9-.2 0-.5.1-.7.2-.1 0-.1.1 0 .1 0 .1.1.1.1 0 .2-.1.4-.2.7-.2.7-.1 1.5.5 1.8 1.7-.1-.1-.3-.2-.4-.2-.3 0-.7.1-.8.2-.2.2-.2.5 0 .4.1 0 .1-.1.1-.1s0-.1.1-.2.1-.1.2-.1c.2-.1.3-.1.4 0 .2 0 .4.2.5.3.1.4.1.7.1 1.1 0 .1 0 .1.1.1l.1-.1"/><path fill="#f3f1fc" d="M248.6 173c-2.8 13.9-15.1 24.4-29.8 24.4-16.8 0-30.4-13.6-30.4-30.4 0-4.4.9-8.5 2.6-12.3 6.6-15 23.7-21.9 38.7-16.2 3 1.1 5.7 2.7 8.1 4.7 9 7.2 13 18.8 10.8 29.8z"/><path fill="#e2dff4" d="m248.8 171.5-.3 1.5c-2.8 13.9-15.1 24.3-29.8 24.3-5.7 0-11.1-1.6-15.6-4.3 5.9 1.4 12.6 1.1 18.6-1.4 2.6-1 5-2.4 7.1-4.1 12.7-9.9 15.3-27.6 6.8-40.6-.1-.2-.2-.4-.4-.5-.2-.3-.5-.7-.7-1-1.5-2.1-3.4-4-5.4-5.7-1.1-.9-2.2-1.7-3.4-2.4 1.3.3 2.6.7 3.8 1.2 3 1.1 5.7 2.7 8.1 4.7 8.7 6.8 12.9 17.7 11.2 28.3z"/><path fill="#6eb954" d="M204.6 166c.5-.4.8-1.1 1.3-1.4 1-.4 2 .5 3.1.4.6-.1 1.2-.5 1.6-.2.4.3.4.8.6 1.3.2.6.8 1.1 1.5 1.3.3.1.7.1.9.2.6.3.6 1.2 1 1.7.4.4.8.4 3.2 1 .5.1 1.1.2 1.5.6.5.4.7 1.2.6 1.8-.1.7-.4 1.3-.9 1.8-.2.3-.5.5-.6.8-.2.5 0 1 0 1.5.2 1.2-.3 1.6-1.5 1.7-.3 0-.7.2-1 .4-.3.2-.4.5-.6.8-1.2 2.3-1.2 4.4-3.3 5.5-.3.1-.3.2-.5.4-.4.7-.6 1.5-.5 2.3 0 .1.1.1.1.1.8.7.7 2 1.3 2.8.1.1.2.2.2.4s-.3.4-.5.4-.5-.1-.6-.3c-2-1.4-3.1-3.1-3.5-6.5-.3-2.2-.5-4.4-.6-6.6 0-.3 0-.6-.1-.9-.4-.9-1.8-1.1-2.1-1.5-.1-.1-.2-.3-.3-.5-.5-1.3-1.6-1.8-2.3-4.2-.2-.7-.2-1 .1-1.5.3-.6.8-1.2 1.3-1.6.2-.2.2-.2.2-.5.1-.5-.1-1.1.4-1.5z"/><path fill="#6eb954" d="M229.6 138.5c0 .9-.4 1.9-1.2 2.4-.3.2-.6.4-.8.7-.1.2-.1.5-.3.8-.2.3-.6.4-1 .5-1.7.3-3.4 1.1-4.8 2.2-.4.3-.8.7-1.3.9-.5.2-1.2.1-1.4-.3-.1-.2-.2-.5-.2-.7-.2-2.8 1.2-3.7-.4-4.6-.9-.5-2-.7-3-.5-.3.1-.7.2-.9.5-.4.5.1 1.3.5 1.7.5.5 1.3 1.1.9 1.7-.4.7-1.6.8-1.7 1.6-.2 1.8 3 3.2 2.4 5-.3.8-.9 1.6-1.8 1.8-.5.1-1.1-.4-1.6-.3-.4 0-.8.4-1.2.6-.4.3-.9.4-1.2.1-.1-.1-.2-.3-.3-.3-.2-.1-.5 0-.7.3-.2.2-.2.5-.3.7-.5.9-2.1 1-2.4 2-.1.3-.1.6-.2.8-.3.5-1.1.4-1.6.7-.7.4-.1 1.4-.3 2.2-.3.8-1.2-.3-1.7-.9-1-1.3-3.6-.4-4.6.9-.8 1-.7 3.8.6 3.5.5-.1.5-.9.9-1.2.4-.3 1.3-.7 1.4-.2.2 1.1-.1 2.8 1 2.5.2-.1.3-.5.5-.4.6.3-.5 1.4-.2 2 .2.4 1 .1 1.4.3.5.2 0 1.1-.6 1.1-.5.1-1-.3-1.4-.6-.9-.7-1.8-1.4-2.8-2.1-.7-.6-.9-.6-1.6-.5-1.3.2-3-.2-3.4-1.5-.1-.4-.1-.7-.1-1.1 0-1.1-.1-3.3-1.2-3.1-1.3.2 1 3.2-.1 3.8-.7.4-.7-1.5-.8-2.3-.3-1.5-.7-2.9-1.2-4.3 4.7-10.7 15.4-18.2 27.9-18.2 3.7-.2 7.4.5 10.8 1.8z"/><path fill="#6eb954" d="M208.2 162.3v.2l-.1.1c-.4.2-.9.4-1.3.3-.2-.1-.4-.2-.5-.3-.2-.1-.3-.2-.5-.3l-.1-.1c.1 0 .2 0 .3-.1.3 0 .3-.4-.1-.4h-.4c-.2 0-.6.1-.8-.1-.1-.1-.1-.2-.2-.3-.2-.3-.6-.3-.9-.5l-.1-.1c-.1-.1-.3-.1-.3 0h.1s-.1 0-.1.1v.1c0 .1-.1.1-.2.1-.2 0-.4.1-.6 0h-.1c-.1 0-.1-.1-.1-.2s.1-.1.1-.2c.4-.4.8-.6 1.5-.5.4.1.7.2 1 .3.4.1.7.3 1 .5.2.2.3.3.6.4.4.2.7 0 1.1.1.4.2.7.5.7.9zM237.7 143.1c-.3.1-.7.1-1 .3-.3.1-.5.3-.7.5-.3.3-.7.6-1 .9l-.3.3c-.1.1-.1.2-.1.3-.1.3-.4.5-.3.8.1.6 1.9-.2 1.7.4-.1.3-.7.4-.7.8 0 .1 0 .3-.1.4-.1.2-.2.3-.3.4-.3.3-.7.7-1.2.7-.5.1-1-.2-1-.7 0-.2.1-.4 0-.5-.1-.1-.2-.1-.3-.2-.1-.1 0-.3 0-.5s-.1-.4-.3-.4c-.2-.1-.4-.1-.6-.1-.2 0-.5 0-.6.1-.3.2-.3.8-.6 1.1-.1.1-.3.1-.4.2-.2.2-.3.6-.3.9 0 .2 0 .4.1.6.2.2.4.1.6.1.2-.1.4-.2.6-.2.2 0 .5.1.5.3 0 .2-.2.4-.2.6 0 .1.2.2.3.3.4.3 1 1 .7 1.4-.3.5-1.1.1-1.6.2-.5 0-1.1.2-1.4.6-.2.2-.2.5-.3.8-.1.3-.1.6 0 .8.3.5 1 .4 1.4.7.1 0 .1.1.1.2 0 .3-.4.3-.5.6-.3.5-1 .6-1.2 1.1-.1.1-.1.3-.2.5-.3.7-.9 1-1.5 1.5-1 .8-1.5 2.1-1.5 3.4 0 .6.2 1.2.3 1.8.3 1.3.5 1.7 1.4 2.8.8.9 1.3 1.3 3.4 1 2.8-.3 3.2-.4 3.6-.3.4.1.7.4 1 .7-.7 2.7-.3 3.4.4 4.6 1.7 2.8.8 3.4.7 4.5 0 .6.1 1 .5 2.7.3 1.5.5 1.9 1.3 2.9.3.4.6.8 1 1.2.6.5 1.4.6 2.1.7.5.1 1 .1 1.3-.2.3-.2.5-.6.5-1 .1-.6.2-1.1.3-1.7.1-.7.1-1.3.4-1.9.3-.6.9-1 1.3-1.5.2-.2.3-.4.5-.6.2-.2.5-.4.7-.6 1.2-1.1 1-3 2.1-4.3 2.5-11-1.4-22.6-10.6-30zm6.9 13c-.2.4-.6.7-1 .8-.5.2-1 .2-1.5 0s-.9-.5-1.4-.6c-.5-.1-1.1 0-1.3.5 0 .1-.1.2-.2.3h-.2c-1.2 0-2.4-1-2.5-2.2 0-.1 0-.1-.1-.1-1-.3-2-.1-2.9.1-.4.1-.8.2-1.3.3-.5.1-1.4.4-1.5-.1 0-.5 1-.4 1.5-.6.4-.2.6-.5.7-.9 0-.1 0-.2.1-.3.2-.2.5-.1.6-.3.1-.1 0-.4.1-.5.1-.1.3-.1.5-.1.5 0 .8-.5 1.3-.4.3 0 .8.4 2 1.1.1 0 .2.1.2.2.1.2.1.5 0 .8-.1.3-.7 0-.9.3-.2.2.3.4.6.4.6 0 1.2-.5 1.4-1.1 0 0 0-.1.1-.1.1-.1.2 0 .2 0 0 .1.1.2.1.2.2.4.6.6 1.1.7.5.1 1 .2 1.4.2.4-.1.4.2.6.5.4.6 1.2.5 1.7.2.2-.1.5-.3.7-.2 0 .2 0 .7-.1.9zM227.3 143.5c0 .1.1.1.1.2.1 0 .1.1.2 0 .1 0 .1-.1.2-.1s.2.1.2 0c0 0 0-.1.1-.1 0-.1.2-.2.3-.2.3 0 .5 0 .7.2.1.1.2.2.3.4 0 .2-.1.4-.2.5l-.2.2c-.2.1-.4.2-.7.2-.2 0-.5 0-.7-.1h-.2c-.2 0-.4.1-.6-.1-.1-.1-.1-.2-.2-.2v-.3c0-.1 0-.2.1-.3.1-.1.2-.2.4-.3.1 0 .1-.1.1 0 0-.1.1 0 .1 0zM220.5 188.8c.1-.2.4-.3.6-.4 1.1-.4 2.3-.3 3.2.3.3.2.7.3.9.1.1-.1.1-.2.1-.3 0-.5.2-1.1.6-1.5.5-.4 1.2-.4 1.9-.4.1 0 .3 0 .4.1.1.1.2.2.3.4.4.6.8 1.1 1.5 1.3.5.1 1.1-.1 1.5-.3.5-.3.9-.6 1.3-.9.6-.4 1.4-.6 2.1-.6.2 0 .4 0 .5.1.5.2.7.8.8 1.4.1.4 0 .6-.4.8-1.6.9-3.6.5-5.3 1-.7.2-1.5.6-2.1 1-.3.2-.6.5-.9.7-.4.2-.8.3-1.3.3-1 .1-2 .2-3.1.2-1 0-1.7-.3-2.5-1-.2-.5-.5-1.6-.1-2.3z"/><path fill="#438929" d="M237.7 143.1c-.3.1-.7.1-1 .3-.2.1-.5.3-.7.5-.3.3-.7.6-1 .9l-.3.3c0 .1-.1.2-.1.2.3.3.5.7.7 1 .4 0 .8-.1.7.2 0 .1-.2.2-.3.3 1.5 2.2 2.6 4.7 3.5 7.3.2.2.5.3.9.4.5.1 1 .2 1.5.2.4-.1.5.3.6.5.4.6 1.2.5 1.7.2.2-.1.5-.3.7-.2.2.2.2.6.2.9-.2.4-.6.7-1 .8-.5.2-1 .2-1.5 0-.7-.3-1.5-.9-2.3-.5 1.7 7.1.8 15.2-3.1 22 .4 1.8.5 2.5.8 3.2.2.5.5.8.8 1.2.3.4.6.9 1 1.2.6.5 1.4.6 2.1.7.5.1 1 .1 1.3-.2.3-.2.5-.6.5-1 .1-.6.2-1.1.3-1.7.1-.7.1-1.3.4-1.9.3-.6.9-1 1.3-1.5.2-.2.3-.4.5-.6.2-.2.5-.4.7-.5.7-.6 1-1.6 1.2-2.5.2-.6.4-1.2.9-1.7.1-.5.2-1 .2-1.5.2-1.5.3-3 .3-4.6 0-9.7-4.5-18.3-11.5-23.9zM236 188.8c-1.6.9-3.6.5-5.3 1-.7.2-1.5.6-2.1 1-.3.2-.6.5-.9.7-.4.2-.8.3-1.3.3-1 .1-2 .2-3.1.2-.6 0-1.2-.1-1.6-.4 2.6-1 5-2.4 7.1-4.1.3.4.7.7 1.2.8.5.1 1-.1 1.5-.3.5-.3.9-.6 1.3-.9.7-.4 1.4-.5 2.1-.6.2 0 .4 0 .5.1.5.2.7.8.8 1.4.3.5.2.6-.2.8z"/><path fill="#f3f1fc" d="M286.3 146.1v18.5c0 .8-.6 1.4-1.4 1.4H268l-6.9 5.4c-.4.3-1.1 0-1.1-.5V166h-3.4c-.8 0-1.4-.6-1.4-1.4v-18.5c0-.8.6-1.4 1.4-1.4h28.2c.8 0 1.5.7 1.5 1.4z"/><path fill="#f45170" d="M283.6 148.7V162c0 .9-.7 1.5-1.5 1.5h-22.5c-.9 0-1.5-.7-1.5-1.5v-13.3c0-.9.7-1.5 1.5-1.5H282c.9-.1 1.6.6 1.6 1.5z"/><path fill="#ffb961" d="M258 152.5h25.6v5.7H258z"/><path fill="#f3f1fc" d="M159.7 130.9v16.3c0 .7.5 1.2 1.2 1.2h14.8l6 4.8c.4.3 1 0 1-.5v-4.3h3c.7 0 1.2-.5 1.2-1.2v-16.3c0-.7-.5-1.2-1.2-1.2h-24.8c-.6 0-1.2.5-1.2 1.2z"/><path fill="#fff" d="M162.1 133v11.8c0 .7.6 1.3 1.3 1.3h19.9c.7 0 1.3-.6 1.3-1.3V133c0-.7-.6-1.3-1.3-1.3h-19.9c-.8 0-1.3.6-1.3 1.3z"/><path fill="#f45170" d="M171.5 131.7h3.7v14.4h-3.7z"/><path fill="#f45170" d="M162.1 137.1h22.5v3.7h-22.5z"/><path fill="#f7a386" d="M160.2 174c.2-.7 2.2-2.8 2.9-3 1.3-.4 2.1-.9 2.9-1.3.8-.5 1.4-1 2.4-1.7 2.2-1.5.5-2.9.5-2.9 2.5-1.9-.3-2.8-.3-2.8 2.8-1.9-.4-3-.4-3 5.9-1.8 7.9-2.8 7-3.8-1.1-1.2-8.9.8-13.3 3.1s-7.2 8.5-7.2 8.5l5.5 6.9z"/><path fill="#e27659" d="M168.6 162.2c-1.3.5-2.6.8-4 .9-.2 0-.5.1-.6-.2-.1-.2-.1-.5 0-.7.3-.9 1.3-1.3 2-1.8.8-.4 1.5-1 2.4-1.3-.9.3-1.6.9-2.3 1.4-.7.5-1.7.9-2 1.8-.1.2-.1.4 0 .6.1.2.4.2.6.1 1.2-.1 2.6-.3 3.9-.8zM166.3 165.9c-.4.1-1.4.3-1.7.3-.1 0-.2-.1-.3-.2-.1-.2-.1-.5 0-.7.3-.9 1.3-1.3 2-1.8.8-.4 1.5-1 2.4-1.3-.9.3-1.6.9-2.3 1.3-.7.5-1.7.9-2 1.7-.1.2-.1.4 0 .6.1.2.3.2.5.2 1.4-.1 2.6-.6 3.9-1-.7.3-1.6.7-2.5.9zM169.1 167.4c-1.1.4-2.1.8-3.2 1-.2 0-.4.1-.5-.2-.1-.2-.1-.4 0-.6.3-.8 1-1.1 1.6-1.5l1-.6c.3-.2.6-.4 1-.5-.4.1-.7.3-1 .6l-.9.6c-.6.4-1.4.7-1.6 1.5-.1.2-.1.4 0 .5.1.2.3.2.5.1.9-.1 2-.6 3.1-.9z"/><path fill="#f7a386" d="M160.2 166.3c3.4-2.3 1.1-4.6 1.1-4.6 2.3-1 5.2-1.8 4.6-3.4-.6-2-6.7.8-8.8 2.8-1.3 1.2-2.1 2.9-2.4 5.9"/><path fill="#e27659" d="M160.2 166.3c.4-.3.4-.2 1-.9.3-.4.6-.7.7-1.2.3-.9 0-1.9-.6-2.5 1.9-.8 4.5-1.6 4.7-2.9.1-1.1-.9-1.3-2-1.1-2.2.4-6 2.2-7.4 4-1.2 1.5-1.6 3.4-1.8 5.3.5-4.3 1.7-5.7 4-7.1 1.5-.9 3.5-1.9 5.2-2.2.7-.1 1.7-.1 2 .5.1.2.1.5.1.7-.1.9-1.3 1.5-2.1 1.8-.9.4-1.8.7-2.6 1.1.6.7.9 1.7.6 2.6-.1.4-.4.8-.7 1.2-.6.5-.7.5-1.1.7z"/><path fill="#c6aeff" d="M166.9 128c0 4.9-4 8.9-8.9 8.9s-8.9-4-8.9-8.9 4-8.9 8.9-8.9 8.9 4 8.9 8.9z"/><path fill="#986ff9" d="M154.8 126.1c0-.1-.1-.2-.2-.3-.1-.1-.2-.1-.4-.1h-.1c-.1 0-.3 0-.4.1-.1.1-.2.2-.2.3-1.7 4-1.7 3.9-1.7 4 0 .1 0 .3.1.3.2.2.6.2.8-.2l.4-.9h1.9c.3.8.3.9.6 1.1.1.1.2.1.3.1.1 0 .3 0 .4-.1.1-.1.1-.2.1-.3v-.2l-1.6-3.8zm0 2.4h-1.1l.6-1.3.5 1.3zM158.4 128.2h-1.2c-.1 0-.2 0-.3.1-.1.1-.1.2-.1.3 0 .1 0 .2.1.3.1.1.2.1.3.1h1.2c.1 0 .2 0 .3-.1.1-.1.1-.2.1-.3 0-.1 0-.2-.1-.3-.1-.1-.2-.1-.3-.1zM162.9 129.8c-.1-.1-.2-.1-.3-.1h-2.1l2.4-2.9s.1-.1.1-.2v-.2c0-.2-.1-.3-.2-.4-.1-.1-.3-.2-.4-.2h-2.8c-.1 0-.2.1-.3.1-.1.1-.1.2-.1.3 0 .1 0 .2.1.3.1.1.2.1.3.1h2l-2.4 3c-.1.1-.1.2-.1.4s.1.3.2.4c.1.1.2.2.4.2h2.8c.1 0 .2 0 .3-.1.1-.1.1-.2.1-.3.2-.2.1-.3 0-.4z"/><path fill="#986ff9" d="M166.9 128c0 4.9-4 8.9-8.9 8.9-2.7 0-5.1-1.2-6.8-3.1 1.4.9 3.1 1.5 5 1.5 4.9 0 8.9-4 8.9-8.9 0-2.2-.8-4.2-2.1-5.8 2.4 1.6 3.9 4.4 3.9 7.4z"/><path fill="#fff" d="M154.8 125.8c0-.1-.1-.2-.2-.3-.1-.1-.2-.1-.4-.1h-.1c-.1 0-.3 0-.4.1-.1.1-.2.2-.2.3-1.7 4-1.7 3.9-1.7 4 0 .1 0 .3.1.3.2.2.6.2.8-.2l.4-.9h1.9c.3.8.3.9.6 1.1.1.1.2.1.3.1.1 0 .3 0 .4-.1.1-.1.1-.2.1-.3v-.2l-1.6-3.8zm0 2.4h-1.1l.6-1.3.5 1.3zM158.4 127.9h-1.2c-.1 0-.2 0-.3.1-.1.1-.1.2-.1.3 0 .1 0 .2.1.3.1.1.2.1.3.1h1.2c.1 0 .2 0 .3-.1.1-.1.1-.2.1-.3 0-.1 0-.2-.1-.3-.1-.1-.2-.1-.3-.1zM162.9 129.5c-.1-.1-.2-.1-.3-.1h-2.1l2.4-2.9s.1-.1.1-.2v-.2c0-.2-.1-.3-.2-.4-.1-.1-.3-.2-.4-.2h-2.8c-.1 0-.2.1-.3.1-.1.1-.1.2-.1.3 0 .1 0 .2.1.3.1.1.2.1.3.1h2l-2.4 3c-.1.1-.1.2-.1.4s.1.3.2.4c.1.1.2.2.4.2h2.8c.1 0 .2 0 .3-.1.1-.1.1-.2.1-.3.2-.2.1-.3 0-.4z"/><path fill="#ffd475" d="M293.6 142.9c0 4.9-4 8.9-8.9 8.9s-8.9-4-8.9-8.9 4-8.9 8.9-8.9 8.9 4 8.9 8.9z"/><path fill="#ef9645" d="M285.5 139.9h2.7c.3 0 .6-.2.6-.6 0-.3-.2-.6-.6-.6h-7.6c-.3 0-.6.2-.6.6 0 .3.2.6.6.6h3.7c-1 1.6-2.4 3.1-4 4-.1.1-.2.2-.3.4 0 .2 0 .3.1.5.2.2.5.3.7.1 1.1-.7 2.1-1.5 3-2.6v4.5c0 .3.3.6.6.6s.6-.3.6-.6v-5.9c.1-.3.3-.6.5-1z"/><path fill="#ef9645" d="M288.9 144.1c-.7-.6-1.8-1.4-2.9-2-.2-.1-.5-.1-.7.1-.1.1-.2.3-.2.4 0 .2.1.3.2.4 1 .7 2.1 1.4 2.7 2 .1.1.2.1.4.1s.3-.1.4-.2c.1-.1.2-.3.2-.4.1-.2 0-.3-.1-.4z"/><path fill="#ef9645" d="M293.6 142.9c0 4.9-4 8.9-8.9 8.9-2.7 0-5.1-1.2-6.8-3.1 1.4.9 3.1 1.5 5 1.5 4.9 0 8.9-4 8.9-8.9 0-2.2-.8-4.2-2.1-5.8 2.4 1.6 3.9 4.4 3.9 7.4z"/><path fill="#fff" d="M285.5 139.5h2.7c.3 0 .6-.2.6-.6 0-.3-.2-.6-.6-.6h-7.6c-.3 0-.6.2-.6.6 0 .3.2.6.6.6h3.7c-1 1.6-2.4 3.1-4 4-.1.1-.2.2-.3.4 0 .2 0 .3.1.5.2.2.5.3.7.1 1.1-.7 2.1-1.5 3-2.6v4.5c0 .3.3.6.6.6s.6-.3.6-.6v-5.9c.1-.3.3-.6.5-1z"/><path fill="#fff" d="M288.9 143.7c-.7-.6-1.8-1.4-2.9-2-.2-.1-.5-.1-.7.1-.1.1-.2.3-.2.4 0 .2.1.3.2.4 1 .7 2.1 1.4 2.7 2 .1.1.2.1.4.1s.3-.1.4-.2c.1-.1.2-.3.2-.4.1-.2 0-.3-.1-.4z"/><path fill="#4c5c75" d="m147.2 175-3.3 29.5c-.1.9-.9 1.6-1.8 1.6l-16.4.2c-1.1 0-1.9-.9-1.8-2l3.3-29.5c.1-.9.9-1.6 1.8-1.6l16.4-.2c1.1 0 1.9.9 1.8 2z"/><path fill="#111d33" d="M130.4 173.2h-1.5c-.9 0-1.7.7-1.8 1.6l-3.3 29.5c-.1 1.1.7 2 1.8 2h1.3c-.9-.1-1.6-1-1.5-2l3.3-29.5c.2-.9.9-1.5 1.7-1.6zM145.8 175.9l-.8 7.5c0 .1-.1.3-.3.3h-2.8c-.2 0-.3-.2-.3-.3l.8-7.5c0-.1.1-.3.3-.3h2.8c.1 0 .3.1.3.3z"/><path fill="#fff" d="M144.8 177.3c0 .4-.4.8-.9.8-.4 0-.7-.3-.7-.8 0-.4.4-.8.9-.8.4 0 .7.3.7.8z"/><path fill="#4c5c75" d="M144.4 177.3c0 .2-.2.4-.4.4s-.4-.2-.4-.4.2-.4.4-.4c.3 0 .4.1.4.4z"/><path fill="#fff" d="M144.6 179.6c0 .4-.4.8-.9.8-.4 0-.7-.3-.7-.8 0-.4.4-.8.9-.8.4 0 .7.4.7.8z"/><path fill="#4c5c75" d="M144.2 179.6c0 .2-.2.4-.4.4s-.4-.2-.4-.4.2-.4.4-.4c.3 0 .4.2.4.4z"/><path fill="#fff" d="M144.4 181.9c0 .4-.4.8-.9.8-.4 0-.7-.3-.7-.8 0-.4.4-.8.9-.8.4 0 .7.3.7.8z"/><path fill="#4c5c75" d="M144 181.8c0 .2-.2.4-.4.4s-.4-.2-.4-.4.2-.4.4-.4c.3.1.4.2.4.4z"/><path fill="#f7a386" d="M132.7 194c.3.2.5.5.6.8.4.8 0 1.1-.6 1.3.3.2.5.5.6.8.9 2-2.9 1.1-2.9 1.1s-.2.6-1 1.3c-.9.8-2.6 1.6-5.6 1.9 0 0-26.7 21.1-37.3 20.6-8.1-.5-12.7-14-12.7-14l12.9-15 3.8 7.6 1.9 3.8 27.9-10.8s2.5-5.7 4.7-5.8c1.9-.1 2.4 1.6 2.4 1.6s5.1-.4 6 1.7c.4.8 0 1.2-.6 1.3.3.2.5.5.6.8.3.6-.1.9-.7 1z"/><linearGradient id="f" x1="73.851" x2="129.421" y1="207.088" y2="207.088" gradientUnits="userSpaceOnUse"><stop offset="0" stop-color="#f7a386"/><stop offset="1" stop-color="#fd6b58"/></linearGradient><path fill="url(#f)" d="M129.4 199.1c-.9.8-2.6 1.6-5.6 1.9 0 0-26.7 21.1-37.3 20.6-8.1-.5-12.7-14-12.7-14l12.9-15 3.8 7.6c-.8 2.5-2.4 4.8-4.6 6.3-1.7 1.1-3.9 2-4.6 3.9-1 2.5 1.2 5.3 3.8 5.9 2.6.7 5.2-.2 7.7-1.2 6-2.4 11.8-5.4 17.5-8.4 4.6-2.4 9.3-4.8 13.9-7.2.9-.5 1.9-1 3-1.1.7 0 1.6.2 2.2.7z"/><path fill="#f45170" d="M67.6 179.9s-3.1 11.4 3.6 27.5c2.2 5.2 17.4-5 20.5-9.4 3-4.4-5.7-17.1-16.9-20.7l-7.2 2.6z"/><path fill="#e27659" d="M132.7 192c-.7-.2-1.4-.2-2.1-.2-.3 0-.7.1-1 .2-.3.1-.7.2-1 .3.6-.4 1.3-.6 2-.6.8-.1 1.5 0 2.1.3zM132.9 194c-.7-.2-1.4-.2-2.1-.2-.3 0-.7.1-1 .2-.3.1-.7.2-1 .3.6-.4 1.3-.6 2-.6s1.4.1 2.1.3zM132.8 196.1c-.7-.2-1.4-.2-2.1-.2-.3 0-.7.1-1 .2-.3.1-.7.2-1 .3.6-.4 1.3-.6 2-.6.7-.1 1.4 0 2.1.3 0-.1 0-.1 0 0z"/><path fill="#986ff9" d="M204.8 261.2c0 2.4 2 4.4 4.4 4.4h20.4v-8.8h-20.4c-2.4-.1-4.4 1.9-4.4 4.4z"/><path fill="#fff" d="M206.7 261.2c0 1.6 1.3 3 3 3h19.9v-6h-19.9c-1.6 0-3 1.3-3 3z"/><path fill="#e2dff4" d="M229.6 258.2v1h-19.5c-1.6 0-3 1.3-3 3 0 .2 0 .4.1.6-1.3-1.9.1-4.6 2.5-4.6h19.9z"/><path fill="#c6aeff" d="M184.9 261.2c0 2.4 2 4.4 4.4 4.4h19.9c-2.4 0-4.4-2-4.4-4.4 0-2.4 2-4.4 4.4-4.4h-19.9c-2.4-.1-4.4 1.9-4.4 4.4z"/><path fill="#df3260" d="M214.4 270.8c0 2.9-2.3 5.2-5.2 5.2H185v-10.5h24.2c2.8.1 5.2 2.4 5.2 5.3z"/><path fill="#fff" d="M212.1 270.8c0 2-1.6 3.5-3.5 3.5h-23.7v-7.1h23.7c1.9 0 3.5 1.6 3.5 3.6z"/><path fill="#e2dff4" d="M212.1 270.8c0 1.1-.5 2.2-1.4 2.8 1.4-2.3-.2-5.4-3-5.4h-22.8v-1h23.7c1.9 0 3.5 1.6 3.5 3.6z"/><path fill="#f45170" d="M238 270.8c0 2.9-2.3 5.2-5.2 5.2h-23.7c2.9 0 5.2-2.3 5.2-5.2 0-2.9-2.3-5.2-5.2-5.2h23.7c2.9 0 5.2 2.3 5.2 5.2z"/><path fill="#fff" d="M228.2 105.9c0 3-2.4 5.5-5.5 5.5H147c-3 0-5.5-2.4-5.5-5.5 0-3 2.4-5.5 5.5-5.5h75.8c3 0 5.4 2.5 5.4 5.5z"/><path fill="#f3f1fc" d="M153.4 100.4H147c-3 0-5.5 2.4-5.5 5.5 0 3 2.4 5.5 5.5 5.5h6.5v-11z"/><path fill="#4c5c75" d="M147.2 107.7c-2 0-3-2.5-1.6-3.9.9-.9 2.4-.9 3.2 0 .9.9.9 2.3 0 3.2-.4.5-1 .7-1.6.7zm-1.1-3.4c-.6.6-.6 1.6 0 2.2.6.6 1.6.6 2.2 0 .6-.6.6-1.6 0-2.2-.6-.6-1.6-.6-2.2 0z"/><path fill="#4c5c75" d="m149.5 108.2-1.1-1.1c-.1-.1-.1-.4 0-.5s.4-.1.5 0l1.1 1.1c.1.1.1.4 0 .5-.2.1-.4.1-.5 0zM158.4 108.8c-.2 0-.4-.2-.4-.3v-4.9c0-.2.2-.3.4-.3s.4.2.4.3v4.9c0 .2-.2.3-.4.3z"/><path fill="#4c5c75" d="M159.5 103.9h-2.1c-.2 0-.4-.2-.4-.3s.2-.3.4-.3h2.1c.2 0 .4.2.4.3s-.2.3-.4.3zM159.5 108.8h-2.1c-.2 0-.4-.2-.4-.3s.2-.3.4-.3h2.1c.2 0 .4.2.4.3s-.2.3-.4.3z"/></svg>