<svg xmlns="http://www.w3.org/2000/svg" enable-background="new 0 0 300 225" viewBox="0 0 300 225"><path fill="#cae9ff" d="M246.54,183.47c-26.18,22.21-80.62,30.22-126.24,25.45c-20.26-2.12-38.78-6.76-52.3-13.8
			c-13.46-7-24.7-18.08-31.08-31.43c-9.53-19.97-8.17-45.06,12.98-69.3c31.69-36.32,14.66-53.86,43.45-71.55
			c23.02-14.14,49.91-11.43,78.7,21.82c23.98,27.7,42.85,9.39,71.49,29.29C263.56,87.87,287.05,149.1,246.54,183.47z"/><polygon fill="#64b5f6" points="117.95 28.06 104.9 28.06 98.61 33.9 124.23 33.9"/><path fill="#ffce43" d="M117.98,28.06h-13.12c0-3.51,2.94-6.56,6.56-6.56S117.98,24.55,117.98,28.06z"/><path fill="#ffce43" d="M115,22.8h-7.15c0-1.75,1.6-3.58,3.58-3.58C113.4,19.22,115,21.04,115,22.8z"/><path fill="#ffce43" d="M111.98,17.34c-0.52,0-0.93-0.42-0.93-0.93c0-0.42,0.28-0.78,0.67-0.9
				c-0.08-0.02-0.16-0.02-0.24-0.02c-0.65,0-1.18,0.53-1.18,1.18c0,0.65,0.53,1.18,1.18,1.18c0.48,0,0.9-0.29,1.08-0.71
				C112.4,17.26,112.19,17.34,111.98,17.34z"/><polygon fill="#ffce43" points="111.7 19.29 111.26 19.29 111.31 17.83 111.65 17.83"/><rect width="23.09" height="21.34" x="99.72" y="34.05" fill="none" stroke="#64b5f6" stroke-linecap="round" stroke-miterlimit="10" stroke-width=".292"/><rect width="16.08" height="69.86" x="103.23" y="58.9" fill="none" stroke="#64b5f6" stroke-linecap="round" stroke-miterlimit="10" stroke-width=".292"/><polygon fill="none" stroke="#64b5f6" stroke-linecap="round" stroke-miterlimit="10" stroke-width=".292" points="122.82 55.39 99.72 55.39 103.23 58.9 119.31 58.9"/><g><rect width="5.26" height="18.12" x="99.58" y="35.66" fill="#00114f"/><rect width="5.26" height="18.12" x="117.7" y="35.66" fill="#00114f"/></g><rect width="10.52" height="18.12" x="106.01" y="35.66" fill="#00114f"/><g><polygon fill="#64b5f6" points="218.8 28.06 205.75 28.06 199.46 33.9 225.08 33.9"/><path fill="#ffce43" d="M218.83,28.06h-13.12c0-3.51,2.94-6.56,6.56-6.56C215.9,21.5,218.83,24.55,218.83,28.06z"/><path fill="#ffce43" d="M215.85,22.8h-7.15c0-1.75,1.6-3.58,3.58-3.58C214.25,19.22,215.85,21.04,215.85,22.8z"/><path fill="#ffce43" d="M212.83,17.34c-0.52,0-0.93-0.42-0.93-0.93c0-0.42,0.28-0.78,0.67-0.9
				c-0.08-0.02-0.16-0.02-0.24-0.02c-0.65,0-1.18,0.53-1.18,1.18c0,0.65,0.53,1.18,1.18,1.18c0.48,0,0.9-0.29,1.08-0.71
				C213.25,17.26,213.04,17.34,212.83,17.34z"/><polygon fill="#ffce43" points="212.55 19.29 212.11 19.29 212.16 17.83 212.5 17.83"/><rect width="23.09" height="21.34" x="200.57" y="34.05" fill="none" stroke="#64b5f6" stroke-linecap="round" stroke-miterlimit="10" stroke-width=".292"/><rect width="16.08" height="69.86" x="204.08" y="58.9" fill="none" stroke="#64b5f6" stroke-linecap="round" stroke-miterlimit="10" stroke-width=".292"/><polygon fill="none" stroke="#64b5f6" stroke-linecap="round" stroke-miterlimit="10" stroke-width=".292" points="223.67 55.39 200.57 55.39 204.08 58.9 220.16 58.9"/><g><rect width="5.26" height="18.12" x="200.43" y="35.66" fill="#00114f"/><rect width="5.26" height="18.12" x="218.55" y="35.66" fill="#00114f"/></g><rect width="10.52" height="18.12" x="206.86" y="35.66" fill="#00114f"/></g><g><path fill="#00114f" d="M96.36,190.29h131.54V86.82c0-1.29-0.92-2.35-2.21-2.35H98.66c-1.29,0-2.3,1.05-2.3,2.35
			V190.29z"/><rect width="131.54" height="10.82" x="96.36" y="96.75" fill="#ffce43"/><rect width="8.77" height="4.68" x="219.14" y="113.71" fill="#ffce43"/><circle cx="214.52" cy="116" r="2.36" fill="#ffce43"/><rect width="13.74" height="4.68" x="196.04" y="113.71" fill="#ffce43"/><circle cx="191.48" cy="116" r="2.36" fill="#ffce43"/><rect width="13.74" height="4.68" x="172.95" y="113.71" fill="#ffce43"/><circle cx="168.43" cy="116" r="2.36" fill="#ffce43"/><rect width="14.03" height="4.68" x="149.86" y="113.71" fill="#ffce43"/><circle cx="145.39" cy="116" r="2.36" fill="#ffce43"/><g><rect width="13.74" height="4.68" x="127.06" y="113.71" fill="#ffce43"/><circle cx="122.34" cy="116" r="2.36" fill="#ffce43"/></g><g><rect width="13.74" height="4.68" x="103.96" y="113.71" fill="#ffce43"/><circle cx="99.3" cy="116" r="2.36" fill="#ffce43"/></g><rect width="23.39" height="55.83" x="182.01" y="134.46" fill="#ffce43"/></g><line x1="236.97" x2="68.01" y1="190.15" y2="190.15" fill="none" stroke="#93acd6" stroke-linecap="round" stroke-miterlimit="10" stroke-width=".292"/><g><path fill="#f9a48a" d="M89.4,86.03l-13.18-2.32l-3.99,22.68c-0.24,1.38,0.68,2.7,2.06,2.94l8.17,1.44
				c1.38,0.24,2.7-0.68,2.94-2.06L89.4,86.03z"/><path fill="#f98a73" d="M80.21,91.37l8,1.41l-1.66,9.42l-2.37-0.42c-3.11-0.55-5.18-3.51-4.64-6.62L80.21,91.37z"/><path fill="#f9a48a" d="M98.57,69.17l-3.14,22.38c-0.52,3.7-4.34,5.95-7.83,4.61l-12.59-4.85l4.5-25.61
				L98.57,69.17z"/><path fill="none" stroke="#000" stroke-linecap="round" stroke-miterlimit="10" stroke-width=".328" d="M89.76,76.65c0,0-2.41-1.56-5.35-0.16"/><path fill="none" stroke="#000" stroke-linecap="round" stroke-miterlimit="10" stroke-width=".328" d="M92.63,77.11c0,0,2.62-0.25,4.05,1.25"/><ellipse cx="94.76" cy="82.45" rx="1.12" ry=".73" transform="rotate(-80.026 94.765 82.45)"/><ellipse cx="87.29" cy="81.14" rx="1.12" ry=".73" transform="rotate(-80.026 87.298 81.142)"/><path fill="none" stroke="#000" stroke-linecap="round" stroke-miterlimit="10" stroke-width=".328" d="M91.42,81.88l1.37,3.67c0.19,0.52-0.25,1.05-0.8,0.96l-0.84-0.15"/><path fill="none" stroke="#000" stroke-linecap="round" stroke-miterlimit="10" stroke-width=".328" d="M87.12,88.57c0,0,2.3,2.17,5.14,0.98"/><path fill="#00114f" d="M81.88,65.95c0,0-6.2-3.9-7.82,4.7c-1.26,6.68,1.7,15.64,1.7,15.64
				C84.01,75.47,80.32,67.6,81.88,65.95z"/><g><ellipse cx="76.54" cy="81.47" fill="#f9a48a" rx="3.3" ry="4.02" transform="rotate(-35.028 76.537 81.47)"/><path fill="none" stroke="#000" stroke-linecap="round" stroke-miterlimit="10" stroke-width=".328" d="M74.57,82.4c-0.88-1.25-0.76-2.85,0.27-3.57c1.03-0.72,2.57-0.29,3.45,0.96"/></g><path fill="#00114f" d="M97.41,77.44c0,0,0.7-3.74-3.07-3.52c0,0-4.59,2.19-7.65-1.08c0,0-2.02,2.3-6.95,0.08
				c-4.93-2.22-5.99,1.26-5.99,1.26s-1.24-11.03,8.06-9.89c0,0,6.46-3.72,13,0.14S101.15,74.65,97.41,77.44z"/><g><path fill="#f9a48a" d="M119.95,141.13l4.27-2.74l3.58-6.12c0.47-0.8,1.18-1.44,2.03-1.83l2.1-0.96
				c1.06-0.48,2.02,0.82,1.25,1.69l-2.96,3.36l8.87-4.28c1.86-0.9,4,0.53,3.89,2.6l-0.14,2.38c-0.08,1.38-0.74,2.67-1.83,3.53
				l-5.35,4.27c-0.81,0.64-1.73,1.12-2.72,1.41l-5.92,1.72l-9.72,6.32C117.32,152.5,119.81,143.78,119.95,141.13z"/><path fill="none" stroke="#000" stroke-linecap="round" stroke-miterlimit="10" stroke-width=".305" d="M140.18,133.01l-6.68,4.76c0,0-5.03-0.41-6.68,2.07"/><line x1="140.4" x2="134.35" y1="136.13" y2="139.84" fill="none" stroke="#000" stroke-linecap="round" stroke-miterlimit="10" stroke-width=".305"/><line x1="138.71" x2="132.66" y1="132.08" y2="135.8" fill="none" stroke="#000" stroke-linecap="round" stroke-miterlimit="10" stroke-width=".305"/></g><path fill="#fff" d="M132.56,200.63c-0.25,2.7-3.46,3.98-5.5,2.2l-8.19-7.14l1.41,13.24
			c-20.26-2.12-38.78-6.76-52.3-13.8c-13.46-7-24.7-18.08-31.08-31.43l10.88-51.48c0.57-2.71,1.98-5.08,3.93-6.85
			c1.95-1.77,4.45-2.93,7.2-3.24l2.85-3.63c1.82-2.32,4.89-3.23,7.68-2.29l24.66,8.31c1.41,0.48,2.6,1.37,3.42,2.53
			c0.83,1.15,1.3,2.56,1.3,4.05l0.26,0.06c4.93,1.22,8.68,5.25,9.54,10.26l2.38,13.82l11.42,1.82
			C134.79,158.06,133.75,187.77,132.56,200.63z"/><line x1="118.88" x2="112.76" y1="195.58" y2="141.29" fill="none" stroke="#64b5f6" stroke-linecap="round" stroke-miterlimit="10" stroke-width=".292"/><path fill="none" stroke="#64b5f6" stroke-linecap="round" stroke-miterlimit="10" stroke-width=".292" d="M100.26,117.5c0,0-34.11,1.04-40.75-4.94"/><line x1="51.44" x2="55.12" y1="128.82" y2="145.87" fill="none" stroke="#64b5f6" stroke-linecap="round" stroke-miterlimit="10" stroke-width=".292"/><path fill="none" stroke="#64b5f6" stroke-linecap="round" stroke-miterlimit="10" stroke-width=".292" d="M106.01,176.44c0,0-0.47,14.71-6.71,27.23"/><g><path fill="#f9a48a" d="M98.09,141.45l4.59-2.94l3.85-6.58c0.51-0.87,1.27-1.55,2.18-1.97l2.26-1.03
				c1.14-0.52,2.17,0.88,1.35,1.82l-3.19,3.61l9.53-4.6c2-0.97,4.31,0.57,4.18,2.79l-0.15,2.56c-0.08,1.49-0.8,2.87-1.96,3.8
				L115,143.5c-0.87,0.69-1.86,1.21-2.92,1.52l-6.36,1.85l-10.45,6.8C95.26,153.67,97.94,144.29,98.09,141.45z"/><line x1="119.69" x2="111.08" y1="130.56" y2="136.82" fill="none" stroke="#000" stroke-linecap="round" stroke-miterlimit="10" stroke-width=".328"/><line x1="121.7" x2="112.94" y1="132.96" y2="139.43" fill="none" stroke="#000" stroke-linecap="round" stroke-miterlimit="10" stroke-width=".328"/><line x1="120.47" x2="114.65" y1="137.11" y2="141.56" fill="none" stroke="#000" stroke-linecap="round" stroke-miterlimit="10" stroke-width=".328"/></g><path fill="none" stroke="#64b5f6" stroke-linecap="round" stroke-miterlimit="10" stroke-width=".292" d="M44.32,148.06c0,0,39.79-3.7,52.18-8.71c0.95-0.38,1.95,0.43,1.78,1.44
			c-1.56,8.92-8.25,39.27-28.8,52.97"/></g></svg>