<svg xmlns="http://www.w3.org/2000/svg" enable-background="new 0 0 4000 4000" viewBox="0 0 4000 4000"><path fill="#e8c9c8" d="M2464.4,1132.4c0,0,442.3-30.9,869.1,884.6c426.9,915.4,442.3,1114.7,442.3,1114.7s-61.7,67.5-75.2,221.8
		s-256.5,179.4-351,152.4S2197,3030.1,2150.7,2798.7c-46.3-231.4,24.4-409.5,24.4-409.5s-113.8-117.6-65.6-206.4
		c48.2-88.7,96.4-208.3,69.4-273.9S2119.2,1084.9,2464.4,1132.4z"/><path fill="#ffe9e9" d="M3775.9,3131.7c0,0-88.7-135-208.3-266.1c-119.6-131.1-3.9-324-158.1-578.6
		c-75.4-124.4-155.4-152.6-221.8-182.4c-69.4-31.2-124-64.1-142.7-211.1c-26.1-204.6,52.1-455.1-202.5-482.1
		s-437.8-181.3-437.8-181.3s-21.2-451.3,352.9-267.4c352.1,173,482.1,730.3,744.4,1023.4c175.4,196.1,337.1,576.8,359.1,851.3
		C3872,2973.3,3848.6,3083.2,3775.9,3131.7z"/><path fill="#f7e0df" d="M2623.9,1127.3c3.6-6.3,7.8-12.2,12.4-17.8c4.6-5.6,9.6-10.9,14.8-16c10.7-9.9,22.8-18.6,36.3-24.9
		c13.4-6.4,28.1-10.4,43.1-11.7c7.5-0.7,15.1-0.6,22.6,0c3.8,0.2,7.5,0.9,11.2,1.4c3.7,0.7,7.4,1.3,11.1,2.3
		c14.7,3.5,28.7,9.1,42,15.9c13.3,6.8,25.9,14.9,37.8,23.6c11.9,8.8,23.2,18.4,34,28.4l4,3.8c1.3,1.3,2.7,2.5,4,3.8l7.8,7.8
		c2.6,2.6,5.1,5.3,7.6,8c1.3,1.3,2.5,2.7,3.8,4l3.7,4.1c9.9,10.8,19.2,22.1,28.4,33.5l6.7,8.6c2.3,2.9,4.4,5.8,6.6,8.7l6.5,8.8
		l6.4,8.9c2.1,3,4.3,5.9,6.3,8.9l6.2,9c4.2,6,8.1,12.1,12.1,18.2c7.9,12.2,15.6,24.5,23.2,36.8c7.6,12.2,15.1,24.5,22.6,36.8
		c7.5,12.3,15,24.6,22.4,37c7.4,12.3,14.8,24.7,22.1,37.1l21.9,37.2c14.5,24.9,28.9,49.8,43.2,74.7l42.7,75
		c28.3,50,56.5,100.1,85.4,149.6c29,49.5,58.6,98.5,91.8,144.9c16.6,23.2,34.1,45.8,53.3,67l7.3,7.9c1.2,1.3,2.4,2.7,3.7,3.9
		l3.8,3.8l7.5,7.7c2.5,2.5,5.2,4.9,7.8,7.4l3.9,3.7l1.9,1.9l2,1.8l8.1,7.1c1.4,1.2,2.7,2.4,4.1,3.5l4.2,3.4l8.4,6.8
		c-12.2-7.7-24.1-15.8-35.5-24.8c-2.8-2.2-5.7-4.4-8.5-6.7l-8.3-7l-4.1-3.5c-1.4-1.2-2.7-2.4-4-3.7l-8-7.4
		c-21.2-19.8-40.6-41.5-59-63.9c-36.7-44.9-69.2-93-100.3-141.6c-7.8-12.2-15.4-24.4-23.1-36.6c-7.6-12.3-15.1-24.6-22.5-36.9
		c-15-24.6-29.6-49.4-44.3-74.2c-7.4-12.4-14.6-24.8-21.9-37.2l-21.8-37.2l-43.5-74.5l-21.7-37.2l-21.8-37.1
		c-14.5-24.8-29.2-49.5-43.8-74.2c-7.3-12.4-14.6-24.6-22.1-36.7c-3.8-6-7.5-12.1-11.4-18l-5.8-8.9c-1.9-3-3.9-5.9-5.9-8.8
		c-15.9-23.5-32.6-46.5-50.7-68c-18.1-21.7-37.7-42-59.2-59.8c-10.8-8.9-22.1-16.9-34.1-24c-11.9-7-24.5-12.9-37.6-16.9
		c-3.3-1.1-6.6-1.9-9.9-2.8c-3.3-0.7-6.7-1.5-10.1-1.9c-6.8-1.1-13.6-1.6-20.5-1.5c-13.7,0.2-27.4,2.8-40.5,7.7
		c-13,4.9-25.4,12-36.6,20.7C2642.8,1105.6,2632.5,1115.8,2623.9,1127.3z"/><path fill="#ffbc15" d="M2151.4,1414l-69.4,142.7c-15.5-12.8-26-26.2-32.6-39.7c-22.9-46.4,0-94.4,24.1-127.3
		c18.4-25.1,37.5-41.3,37.5-41.3l22.6,36.5l17.9,28.9L2151.4,1414z"/><path fill="#c8a29f" d="M2809.6,2045.9c-75.2,79.1-17.4,135-17.4,135c-3.3,7-6.7,14-10.2,21.1c-106.8,212.9-327.3,451.4-327.3,451.4
		c-25.6-61-42.1-118-52.6-169.2c-30.6-149.7-9.2-249.3-9.2-249.3c77.1-138.9-113.8-113.8-271.9-356.8
		c-100.7-154.8-66.9-348,40.3-485.2c61.1-78.2,145.9-138.3,243.2-162.8c152.1-38.3,287.7,38.7,380.6,122.4
		c70.9,63.9,117,131.7,126.6,155.3C3004.4,1735.4,2884.9,1966.9,2809.6,2045.9z"/><path fill="#b2817f" d="M2809.6,2045.9c-75.2,79.1-17.4,135-17.4,135c-3.3,7-6.7,14-10.2,21.1c-53-16.6-153,22.3-155.6,23.3
		c2.3-1.1,86.2-42.1,97.7-110.6c11.6-69.4,118.3-164.6,154.3-370.3c27.4-156.6-95.1-390.9-95.1-390.9c0.7-0.3,1.3-0.7,2-1
		c70.9,63.9,117,131.7,126.6,155.3C3004.4,1735.4,2884.9,1966.9,2809.6,2045.9z"/><path fill="#b2817f" d="M2536.4,2140.4c0,0-144,54-134.2,343.8c-30.6-149.7-9.2-249.3-9.2-249.3c77.1-138.9-113.8-113.8-271.9-356.8
		c-100.7-154.8-66.9-348,40.3-485.2c-44.6,83.4-83.5,201.3-54.4,333.5C2163.6,1983.6,2443.9,2135.3,2536.4,2140.4z"/><path fill="#5e2511" d="M1771.4,1276.4l-208.5,186.3L1234,1756.6c0,0-13.8-8.2-35.4-23.2c-67.8-46.8-212.9-159.2-253.9-289.3
		l-7.7,46.3c0,0-129.2-216,15.4-374.1c30.5-33.3,62.7-57.6,96.1-75.2c125.2-66,266.5-37.7,389.9-34.7
		c137.9,3.4,275.7,81.9,392.4,137.4c15.5,7.4,30.7,14.4,45.4,20.7C1876.2,1164.6,1878.8,1208.9,1771.4,1276.4z"/><path fill="#3f0c00" d="M1771.4,1276.4l-208.5,186.3c-73-10.3-153.9-20.5-240.2-20.5c-293.1,0-350.3-71.8-264.2-77.1
		c51.4-3.2,80-98.4,80-98.4l18.3,18.3c41.5-28.9,65.6-174.5,65.6-174.5c43.4,50.1,194.8,127.3,194.8,127.3l-8.7-55.9
		c27,55,227.6,90.6,227.6,90.6l-14.5-29.9c199.6,38.6,208.9-98.7,208.9-98.7c0.1-0.1,0.2-0.1,0.2-0.1c15.5,7.4,30.7,14.4,45.4,20.7
		C1876.2,1164.6,1878.8,1208.9,1771.4,1276.4z"/><path fill="#3f0c00" d="M1198.6,1733.5c-67.8-46.8-212.9-159.2-253.9-289.3l-7.7,46.3c0,0-129.2-216,15.4-374.1
		c30.5-33.3,62.7-57.6,96.1-75.2c22.8,3,47.3,8.7,73.6,17.4c0,0-194.8,117.6-167.8,254.6s252.6,171.6,252.6,171.6
		S1268.2,1643.4,1198.6,1733.5z"/><path fill="#ffcaac" d="M1357.2,1878.7c-3.6,49.2,2.8,126.7,2.8,126.7c-108,86.1-262.3-42.4-262.3-42.4c12.1-16.5,20-45.9,25-81.4
		c16.8-119.1,0.7-306.9,0.7-306.9s252,239.2,239.1,272.6C1359.8,1854.4,1358.2,1865.5,1357.2,1878.7z"/><path fill="#fc9b78" d="M1362.6,1847.3c-2.7,7.1-4.4,18.2-5.4,31.4c-47.7,5.5-155,15.3-234.5,2.9c16.8-119.1,0.7-306.9,0.7-306.9
		S1375.4,1813.9,1362.6,1847.3z"/><path fill="#ffcaac" d="M1771.4,1276.4c0,0-32.1,218.6-90,333c-57.9,114.4-254.6,268.7-318.9,259.7c-64.3-9-172.3-126-235.3-259.7
		c-43.4-92.2-19.7-209.4-0.7-273.3c1.2-3.9,2.3-7.6,3.4-11.1c0-0.1,0-0.1,0.1-0.2c7-22.1,12.6-35.4,12.6-35.4l0,0.1l7.7,41.1
		c0,0,74.6-66.9,78.4-195.4c0,0,95.8,105.8,217.3,131.8c0,0-19.3-14.8-17.3-43.1c0,0,77.8,70.7,239.8,70.7l-23.1-33.4
		C1646.7,1262.1,1701.5,1308.2,1771.4,1276.4C1771.4,1276.4,1771.4,1276.4,1771.4,1276.4z"/><path fill="#ffcaac" d="M1141.4,1367.1c0,0-27-82.9-98.4-47.2c-71.4,35.7-10.6,176.5,84.9,163.9L1141.4,1367.1z"/><path fill="#c8a29f" d="M1830.6,1144c-586.3-255.9-920.6,30.2-920.6,30.2s0-404.5,295.8-519.5c60.9-23.7,134.4-35.1,223-28.2
		c220.9,17.2,326.5,113.6,375,218.6C1869.2,986.7,1830.6,1144,1830.6,1144z"/><path fill="#9e655e" d="M2242.2,4000H711.7c-0.2-1.9-0.3-3.8-0.5-5.7c-0.1-1.3-0.2-2.6-0.3-3.9c-0.1-0.7-0.1-1.3-0.2-2
		c-0.3-3.3-0.6-6.8-0.9-10.2c-0.1-0.9-0.2-1.8-0.2-2.7c-0.1-0.9-0.2-1.9-0.2-2.8c0-0.3,0-0.6-0.1-0.8c-0.2-2.4-0.4-4.8-0.6-7.2
		c-0.2-2-0.3-4-0.5-6.1c-0.5-6-1-12.2-1.6-18.6c-0.1-1.6-0.3-3.2-0.4-4.8c-0.3-3.2-0.5-6.4-0.8-9.7c-0.1-1.6-0.3-3.2-0.4-4.9
		c-0.4-5.3-0.9-10.7-1.3-16.1c-0.1-1.4-0.2-2.7-0.3-4.1c-0.1-0.9-0.1-1.7-0.2-2.6c-0.1-1.7-0.3-3.4-0.4-5.1
		c-0.1-1.6-0.2-3.3-0.4-4.9c0-0.1,0-0.1,0-0.2c-0.1-1.7-0.3-3.4-0.4-5.2c-0.2-2.6-0.4-5.2-0.6-7.8c-0.1-0.9-0.1-1.7-0.2-2.6
		c-0.2-2.2-0.3-4.4-0.5-6.7c-0.2-2.5-0.3-5-0.5-7.5c-0.3-4-0.6-8-0.8-12c-0.1-1.8-0.2-3.5-0.3-5.3c-0.2-2.6-0.4-5.3-0.5-7.9
		c-0.1-1.5-0.2-3-0.3-4.5c-0.1-1.4-0.2-2.9-0.3-4.3c-0.1-2.2-0.3-4.3-0.4-6.5c-0.1-1.9-0.2-3.7-0.3-5.6c-0.1-1.7-0.2-3.5-0.3-5.2
		c-0.2-3-0.3-5.9-0.5-8.9c-0.1-1.2-0.1-2.5-0.2-3.7c-0.3-5.3-0.6-10.5-0.8-15.6c-0.1-1.7-0.2-3.3-0.2-5c-0.1-1.8-0.2-3.6-0.3-5.4
		c-0.1-1.5-0.1-3-0.2-4.5c0-0.8-0.1-1.6-0.1-2.4c0-1-0.1-2-0.1-3c-0.1-2.4-0.2-4.8-0.3-7.1c-0.1-2.2-0.2-4.5-0.2-6.7
		c0-0.8-0.1-1.6-0.1-2.4c0-0.8,0-1.6-0.1-2.3c0-0.8,0-1.6-0.1-2.3c0-1.4-0.1-2.8-0.1-4.2c0-0.2,0-0.5,0-0.7c0-1.2-0.1-2.5-0.1-3.7
		c0-1.6-0.1-3.3-0.1-4.9c0-1.8-0.1-3.7-0.1-5.5c0-2.1-0.1-4.1-0.1-6.2c0-1,0-2,0-3c0-2,0-4-0.1-5.9c0-0.9,0-1.8,0-2.7
		c-0.1-17.4,0.2-32.4,1.2-44c0,0,0,0-0.1,0c-0.1,0-0.2,0-0.4-0.1c0,0-0.1,0-0.1,0c-0.2,0-0.3-0.1-0.6-0.1c0,0-0.1,0-0.1,0
		c-0.1,0-0.3-0.1-0.4-0.1c-0.1,0-0.1,0-0.2,0c-0.2,0-0.5-0.1-0.8-0.2c-0.1,0-0.3-0.1-0.5-0.1c-0.1,0-0.2,0-0.2,0
		c-0.1,0-0.2,0-0.3-0.1c-0.2,0-0.3-0.1-0.5-0.1c0,0,0,0-0.1,0c-0.2,0-0.3-0.1-0.5-0.1c-0.2,0-0.3-0.1-0.5-0.1s-0.4-0.1-0.6-0.1
		c-0.7-0.1-1.4-0.3-2.2-0.5c-0.1,0-0.2,0-0.3-0.1c-0.3-0.1-0.7-0.1-1-0.2c0,0-0.1,0-0.2,0c0,0-0.1,0-0.1,0c-0.2-0.1-0.4-0.1-0.6-0.1
		c-1.2-0.2-2.5-0.5-3.8-0.8c-0.2,0-0.3-0.1-0.5-0.1c-0.6-0.1-1.1-0.2-1.7-0.4c-0.1,0-0.1,0-0.2,0c-0.2,0-0.4-0.1-0.6-0.1
		c-0.2-0.1-0.5-0.1-0.7-0.2c-1.2-0.3-2.4-0.5-3.7-0.8c-0.2,0-0.4-0.1-0.6-0.1c-0.1,0-0.1,0-0.2,0c-0.9-0.2-1.9-0.4-2.9-0.6
		c-0.4-0.1-0.8-0.2-1.2-0.3c-0.1,0-0.2,0-0.3-0.1c-0.1,0-0.1,0-0.2,0c-1.1-0.3-2.3-0.5-3.5-0.8c-0.4-0.1-0.7-0.2-1.1-0.2
		c-0.3-0.1-0.7-0.2-1-0.2c-0.8-0.2-1.7-0.4-2.5-0.6c-0.3-0.1-0.6-0.2-1-0.2c-0.2,0-0.3-0.1-0.5-0.1c-0.3-0.1-0.7-0.1-1-0.2
		c-0.5-0.1-1-0.2-1.5-0.3c-0.3-0.1-0.6-0.2-1-0.2c-0.2,0-0.3-0.1-0.5-0.1c-0.5-0.1-0.9-0.2-1.4-0.3c-0.2-0.1-0.5-0.1-0.7-0.2
		c-1.9-0.4-3.9-0.9-5.9-1.4c-1.6-0.4-3.2-0.7-4.8-1.1c-0.3-0.1-0.7-0.2-1-0.2c-0.3-0.1-0.7-0.2-1-0.2c-0.6-0.1-1.1-0.3-1.7-0.4
		c-0.3-0.1-0.7-0.1-1-0.2c-0.6-0.1-1.2-0.3-1.8-0.4c-2-0.5-4.1-1-6.2-1.5c-0.8-0.2-1.7-0.4-2.5-0.6c-0.8-0.2-1.5-0.4-2.2-0.6
		c-1.3-0.3-2.6-0.7-4-1c-0.5-0.1-1.1-0.3-1.7-0.4c-0.4-0.1-0.9-0.2-1.3-0.3c-0.8-0.2-1.6-0.4-2.3-0.6c-1.6-0.4-3.2-0.8-4.8-1.2
		c-0.2-0.1-0.5-0.1-0.7-0.2c-0.6-0.1-1.1-0.3-1.7-0.4c-0.8-0.2-1.6-0.4-2.4-0.6c0,0,0,0-0.1,0c-1.5-0.4-2.9-0.8-4.4-1.1
		c-2.4-0.6-4.9-1.3-7.3-2c-1.7-0.5-3.5-0.9-5.2-1.4c-1.4-0.4-2.8-0.8-4.2-1.2c-0.5-0.1-1-0.2-1.4-0.4c-1.6-0.4-3.1-0.9-4.7-1.3
		c-1.6-0.4-3.2-0.9-4.8-1.3c-1.6-0.4-3.2-0.9-4.8-1.4c-3.9-1.1-7.8-2.2-11.8-3.4c-2.3-0.7-4.7-1.4-7-2.1c-1.4-0.4-2.8-0.8-4.2-1.2
		c-1.7-0.5-3.3-1-5-1.5c-1.7-0.5-3.4-1-5.1-1.6c-1.5-0.5-3.1-0.9-4.6-1.4c-1.9-0.6-3.7-1.2-5.6-1.8c-3.4-1.1-6.9-2.2-10.3-3.3
		c-1.4-0.4-2.7-0.9-4.1-1.3c-0.9-0.3-1.9-0.6-2.8-0.9c-5.5-1.8-11.1-3.7-16.6-5.7c-7.2-2.5-14.4-5.1-21.6-7.8
		c-1.2-0.4-2.3-0.9-3.5-1.3c-1.2-0.4-2.3-0.9-3.5-1.3c-1.2-0.5-2.5-0.9-3.7-1.4c-2.2-0.8-4.3-1.7-6.4-2.5c-1.1-0.4-2.2-0.9-3.4-1.3
		c-1.5-0.6-3.1-1.2-4.6-1.8c-1-0.4-1.9-0.8-2.9-1.2c-1.7-0.7-3.5-1.4-5.2-2.1c-1.9-0.8-3.8-1.6-5.7-2.4c-1.9-0.8-3.8-1.6-5.7-2.4
		c-0.8-0.4-1.6-0.7-2.5-1.1c-1.4-0.6-2.8-1.2-4.2-1.9c-1-0.4-2-0.9-2.9-1.3c-2-0.9-4.1-1.8-6.1-2.8c-1.7-0.8-3.4-1.6-5.1-2.4
		c-2-0.9-4-1.9-6-2.8c-0.9-0.4-1.9-0.9-2.8-1.4c-3.1-1.5-6.3-3.1-9.3-4.7c-1.2-0.6-2.4-1.2-3.6-1.8c-2.4-1.2-4.8-2.5-7.1-3.8
		c-0.9-0.5-1.9-1-2.8-1.5c-0.8-0.4-1.5-0.8-2.3-1.2c-1.4-0.8-2.8-1.6-4.2-2.4c-2.8-1.6-5.6-3.2-8.3-4.8c-1.4-0.8-2.7-1.6-4-2.4
		c-1.3-0.8-2.7-1.6-4-2.5c-1.2-0.8-2.5-1.6-3.7-2.3c-1.4-0.9-2.7-1.8-4-2.6c-1.3-0.8-2.5-1.7-3.8-2.5c-0.9-0.6-1.9-1.3-2.8-1.9
		c-0.9-0.6-1.8-1.3-2.7-1.9c-0.5-0.4-1.1-0.8-1.6-1.2c-0.5-0.3-0.9-0.7-1.4-1c-0.2-0.1-0.4-0.3-0.6-0.4c-0.6-0.4-1.1-0.8-1.7-1.3
		c-2.4-1.8-4.7-3.6-7-5.5c-0.6-0.5-1.2-1-1.8-1.5c-1.2-1-2.4-2-3.6-3c-0.5-0.4-1-0.9-1.6-1.4c-1.3-1.1-2.6-2.3-3.8-3.4
		c-0.6-0.6-1.2-1.1-1.8-1.7c-3.3-3.1-6.4-6.3-9.3-9.5c-0.8-0.9-1.7-1.9-2.5-2.8c0,0-0.1-0.1-0.1-0.1c-0.4-0.5-0.8-1-1.2-1.5
		c-1.2-1.4-2.3-2.8-3.4-4.2c-0.4-0.5-0.7-1-1.1-1.4c-2.6-3.5-5-7.1-7.1-10.7c-0.2-0.4-0.4-0.8-0.6-1.1c-3.8-6.8-6.7-13.7-8.4-20.9
		c-0.1-0.4-0.2-0.8-0.3-1.3c-0.2-0.9-0.4-1.8-0.6-2.7c-0.1-0.4-0.1-0.8-0.2-1.2c-0.1-0.6-0.2-1.2-0.3-1.9c0-0.4-0.1-0.7-0.1-1.1
		c0,0,0-0.1,0-0.2c0-0.2-0.1-0.5-0.1-0.8c0-0.4-0.1-0.8-0.1-1.1c-0.1-0.6-0.1-1.2-0.1-1.8c-0.1-0.9-0.1-1.7-0.1-2.6
		c0-0.3,0-0.6,0-0.9c0-0.4,0-0.8,0-1.2c0-138.9,244.3-1285.7,393.4-1386c1.5-1,3-2,4.4-2.9c1.1-0.7,2.1-1.4,3.2-2.1
		c0.8-0.5,1.6-1,2.4-1.5c0.8-0.5,1.5-1,2.3-1.4c4.1-2.5,8.2-4.9,12.3-7.3c0.1-0.1,0.2-0.1,0.3-0.1v0c0.8-0.5,1.7-1,2.5-1.4
		c0.9-0.5,1.9-1,2.8-1.5c2.8-1.5,5.6-3,8.4-4.5c0.9-0.5,1.9-1,2.8-1.4c2-1,3.9-2,5.9-2.9c0.9-0.4,1.8-0.9,2.6-1.3
		c0.9-0.5,1.9-0.9,2.9-1.4c1-0.4,1.9-0.9,2.9-1.3c1.9-0.9,3.8-1.8,5.7-2.6c1.7-0.7,3.3-1.5,5-2.2c2.2-0.9,4.4-1.9,6.6-2.8
		c1-0.4,1.9-0.8,2.9-1.2c1.9-0.8,3.9-1.5,5.8-2.3c1-0.4,1.9-0.8,2.9-1.1c1-0.4,2-0.7,2.9-1.1c1-0.4,1.9-0.7,2.9-1.1
		c1.9-0.7,3.9-1.4,5.8-2.1c2.9-1,5.8-2,8.8-3c1-0.3,2-0.6,2.9-1c1.8-0.6,3.7-1.2,5.5-1.8c0.4-0.1,0.8-0.2,1.2-0.4
		c1.6-0.5,3.2-1,4.9-1.5c0.2-0.1,0.3-0.1,0.5-0.1c1.7-0.5,3.5-1,5.2-1.5c2.2-0.6,4.3-1.2,6.4-1.8c0.7-0.2,1.4-0.4,2.1-0.6
		c1.7-0.5,3.3-0.9,5-1.3c1.2-0.3,2.5-0.7,3.7-1c0.2,0,0.3-0.1,0.5-0.1c0.6-0.2,1.2-0.3,1.8-0.5c1.4-0.4,2.8-0.7,4.1-1
		c1.6-0.4,3.2-0.8,4.8-1.2c1.4-0.3,2.7-0.6,4-1c0.5-0.1,1-0.2,1.4-0.3c1.5-0.3,3-0.7,4.4-1c2.7-0.6,5.3-1.2,8-1.7
		c1.3-0.3,2.6-0.6,3.9-0.8c2.6-0.5,5.2-1.1,7.8-1.6c3.3-0.6,6.7-1.3,10-1.9c3.2-0.6,6.3-1.1,9.5-1.7c12.9-2.2,25.5-4,37.7-5.5
		c1.2-0.1,2.4-0.3,3.6-0.4c70-8.5,125.4-8.2,140.3-17.5c30.8-19.3,43.4-118,43.4-118s0.5,0.3,1.5,0.9c0.2,0.1,0.3,0.2,0.5,0.3
		c0.9,0.5,2,1.2,3.4,2c0.3,0.2,0.6,0.3,0.9,0.5c0.1,0,0.1,0.1,0.2,0.1c0.2,0.1,0.4,0.2,0.6,0.3c0.2,0.1,0.4,0.3,0.7,0.4
		c0.3,0.2,0.7,0.4,1.1,0.6c0,0,0.1,0.1,0.1,0.1c0.4,0.2,0.9,0.5,1.4,0.8s0.9,0.6,1.4,0.8c1.2,0.7,2.5,1.5,3.9,2.2
		c1.4,0.8,2.9,1.7,4.4,2.6c1,0.6,2.1,1.2,3.1,1.8c3.2,1.9,6.8,3.9,10.5,6.1c2,1.2,4.1,2.4,6.2,3.6c0.8,0.5,1.7,1,2.6,1.5
		c1.3,0.8,2.6,1.5,3.9,2.3c13.4,7.8,28.6,16.5,43.9,25.4h0c34.7,20,70.1,40.4,87.1,49.9l24.8,69.8l5.1-73.3c0,0,29.5-7.9,56.5-14.7
		c21.8-5.5,42-10.3,43.8-9.7c2,0.7,1.2,21.1,5,42.9c3.3,19.1,10.2,39.4,25.9,48.4c0.3,0.2,0.7,0.4,1.1,0.6
		c18.7,9.5,103.4,27.1,195.4,55.5c19.2,5.9,38.7,12.3,57.9,19.1c0.2,0.1,0.5,0.2,0.7,0.3c16.1,5.8,32.1,11.8,47.6,18.3h0
		c62.6,26.1,117.7,57.9,144.7,96.5c37.8,54,102.4,288.2,169.2,604.7c40.4,191.6,81.7,413.2,118.3,643.3c3.1,19.7,6.2,39.4,9.3,59.2
		c0.1,0.3,0.1,0.7,0.2,1v0c0.3,1.7,0.5,3.3,0.8,5c3.4,22,6.8,44.1,10,66.2c0.1,0.5,0.2,1,0.2,1.4c1.2,8.1,2.4,16.1,3.6,24.2l0,0.2
		c1.2,8.2,2.4,16.4,3.6,24.6c0.8,5.5,1.6,11,2.4,16.5c4.6,31.7,9,63.4,13.3,95.1c3,21.8,5.9,43.6,8.7,65.3
		c0.8,6.2,1.6,12.4,2.4,18.6c0.3,2.5,0.6,5,1,7.5v0C2228.6,3882.8,2235.7,3941.7,2242.2,4000z"/><path fill="#774543" d="M887.7,4000h-176c-0.2-1.9-0.3-3.8-0.5-5.7c-0.1-1.3-0.2-2.6-0.3-3.9c-0.1-0.7-0.1-1.3-0.2-2
		c-0.3-3.3-0.6-6.7-0.9-10.2c-0.1-0.9-0.2-1.8-0.2-2.7c-0.1-0.9-0.2-1.9-0.2-2.8c0-0.3,0-0.6-0.1-0.8c-0.2-2.4-0.4-4.8-0.6-7.2
		c-0.2-2-0.3-4-0.5-6.1c-0.5-6-1-12.2-1.6-18.6c-0.1-1.6-0.3-3.2-0.4-4.8c-0.3-3.2-0.5-6.4-0.8-9.7c-0.1-1.6-0.3-3.2-0.4-4.9
		c-0.4-5.3-0.9-10.7-1.3-16.1c-0.1-1.4-0.2-2.7-0.3-4.1c-0.1-0.9-0.1-1.7-0.2-2.6c-0.1-1.7-0.3-3.4-0.4-5.1
		c-0.1-1.6-0.2-3.3-0.4-4.9c0-0.1,0-0.1,0-0.2c-0.1-1.7-0.3-3.4-0.4-5.2c-0.2-2.6-0.4-5.2-0.6-7.8c-0.1-0.9-0.1-1.7-0.2-2.6
		c-0.2-2.2-0.3-4.4-0.5-6.7c-0.2-2.5-0.3-5-0.5-7.5c-0.3-4-0.6-8-0.8-12c-0.1-1.8-0.2-3.5-0.3-5.3c-0.2-2.6-0.4-5.3-0.5-7.9
		c-0.1-1.5-0.2-3-0.3-4.5c-0.1-1.4-0.2-2.9-0.3-4.3c-0.1-2.2-0.3-4.3-0.4-6.5c-0.1-1.9-0.2-3.7-0.3-5.6c-0.1-1.7-0.2-3.5-0.3-5.2
		c-0.2-3-0.3-5.9-0.5-8.9c-0.1-1.2-0.1-2.5-0.2-3.7c-0.3-5.3-0.6-10.5-0.8-15.6c-0.1-1.7-0.2-3.3-0.2-5c-0.1-1.8-0.2-3.6-0.3-5.4
		c-0.1-1.5-0.1-3-0.2-4.5c0-0.8-0.1-1.6-0.1-2.4c0-1-0.1-2-0.1-3c-0.1-2.4-0.2-4.8-0.3-7.1c-0.1-2.2-0.2-4.5-0.2-6.7
		c0-0.8-0.1-1.6-0.1-2.4c0-0.8,0-1.6-0.1-2.3c0-0.8,0-1.6-0.1-2.3c0-1.4-0.1-2.8-0.1-4.2c0-0.2,0-0.5,0-0.7c0-1.3-0.1-2.5-0.1-3.7
		c0-1.6-0.1-3.3-0.1-4.9c0-1.8-0.1-3.7-0.1-5.5c0-2.1-0.1-4.1-0.1-6.2c0-1,0-2,0-3c0-2,0-4-0.1-5.9c0-0.9,0-1.8,0-2.7
		c-0.1-17.4,0.2-32.4,1.2-44c0,0,0,0-0.1,0c-0.1,0-0.2,0-0.4-0.1c0,0-0.1,0-0.1,0c-0.2,0-0.3-0.1-0.6-0.1c0,0-0.1,0-0.1,0
		c-0.1,0-0.3-0.1-0.4-0.1c-0.1,0-0.1,0-0.2,0c-0.2,0-0.5-0.1-0.8-0.2c-0.1,0-0.3-0.1-0.5-0.1c0,0,0,0,0,0c-0.2,0-0.3-0.1-0.5-0.1
		c-0.2,0-0.3-0.1-0.5-0.1c-0.1,0-0.2,0-0.2-0.1c-0.1,0-0.2,0-0.3-0.1c-0.2,0-0.3-0.1-0.5-0.1s-0.4-0.1-0.6-0.1
		c-0.7-0.1-1.4-0.3-2.2-0.5c-0.1,0-0.2,0-0.3-0.1c-0.3-0.1-0.7-0.1-1-0.2c0,0-0.1,0-0.2,0c0,0-0.1,0-0.1,0c-0.2-0.1-0.4-0.1-0.6-0.1
		c-1.2-0.2-2.5-0.5-3.8-0.8c-0.2,0-0.3-0.1-0.5-0.1c-0.6-0.1-1.1-0.2-1.7-0.4c-0.2,0-0.5-0.1-0.7-0.1c0,0-0.1,0-0.1,0
		c-0.2-0.1-0.5-0.1-0.7-0.2c-1.2-0.3-2.4-0.5-3.7-0.8c-0.2,0-0.4-0.1-0.6-0.1c-0.1,0-0.1,0-0.2,0c-0.9-0.2-1.9-0.4-2.9-0.6
		c-0.5-0.1-1-0.2-1.5-0.3c-0.1,0-0.1,0-0.2,0c-1.1-0.3-2.3-0.5-3.5-0.8c-0.4-0.1-0.7-0.2-1.1-0.2c-0.3-0.1-0.7-0.2-1-0.2
		c-0.8-0.2-1.7-0.4-2.5-0.6c-0.3-0.1-0.6-0.2-1-0.2c-0.2,0-0.3-0.1-0.5-0.1c-0.3-0.1-0.7-0.1-1-0.2c-0.5-0.1-1-0.2-1.5-0.3
		c-0.3-0.1-0.7-0.2-1-0.2c-0.2,0-0.3-0.1-0.5-0.1c-0.5-0.1-0.9-0.2-1.4-0.3c-0.2-0.1-0.5-0.1-0.7-0.2c-1.9-0.4-3.9-0.9-5.9-1.4
		c-1.6-0.4-3.2-0.8-4.8-1.1c-0.3-0.1-0.7-0.2-1-0.2c-0.3-0.1-0.7-0.2-1-0.2c-0.6-0.1-1.1-0.3-1.7-0.4c-0.3-0.1-0.7-0.1-1-0.2
		c-0.6-0.1-1.2-0.3-1.8-0.4c-2-0.5-4.1-1-6.2-1.5c-0.8-0.2-1.7-0.4-2.5-0.6c-0.8-0.2-1.5-0.4-2.2-0.6c-1.3-0.3-2.6-0.7-4-1
		c-0.5-0.1-1.1-0.3-1.7-0.4c-0.4-0.1-0.9-0.2-1.3-0.3c-0.8-0.2-1.6-0.4-2.3-0.6c-1.6-0.4-3.2-0.8-4.8-1.2c-0.2-0.1-0.5-0.1-0.7-0.2
		c-0.6-0.1-1.1-0.3-1.7-0.4c-0.8-0.2-1.6-0.4-2.4-0.6c0,0,0,0-0.1,0c-4.5-54.7-6.7-87.2-6.7-87.2l266.1,111.9c0,0,0.4,9.8,1.2,27
		C867.4,3742.9,874.4,3875.6,887.7,4000z"/><path fill="#84504c" d="M2261.6,4000h-306.4l-61.7-501.7l-87.7-713.4l-4.7-38.4c2.3,16.5,67.4,470.2,221.4,709.1
		c35.8,55.5,76.4,99.4,122.1,123.5c9.9,5.2,20,9.5,30.4,12.8c4.8,1.5,9.7,2.8,14.6,3.9c0,0,0,0,0.1,0c9.8,2.1,19.7,3.4,29.9,3.7
		c6.3,0.2,12.7,0,19.1-0.5c0.8-0.1,1.6-0.2,2.5-0.2c0.7-0.1,1.4-0.2,2.1-0.2c0.4,0,0.8-0.1,1.2-0.1c0,0,0.1,1.5,0.2,4.4
		c0.3,6.9,0.9,21.9,1.8,42.3c0.3,7.9,0.7,16.7,1.1,26.2c0.3,8,0.7,16.6,1.1,25.5c0.6,15.2,1.3,31.5,2.1,48.6c1,22.4,2,45.9,3,69.8
		c0,0.9,0.1,1.7,0.1,2.6c0.6,14,1.2,28,1.8,42C2258,3911.8,2260,3962.1,2261.6,4000z"/><path fill="#84504c" d="M808.4,2747.3c0,0,64.3,468,479.6,546.4c0,0-515.6,81-579.9,32.1C643.9,3277,808.4,2747.3,808.4,2747.3z"/><path fill="#774543" d="M1465.3,3777.6l-0.3,32.4l-0.8,64.8c-0.5,21.6-1,43.2-1.6,64.8l-0.9,32.4l-1.1,28.1h-3.2v-28.1l-0.4-32.4
		c-0.3-21.6-0.4-43.1-0.6-64.7l-1.3-64.7l-0.6-32.4l-0.9-32.3l-1.8-64.7l-2.3-64.7c-0.4-10.8-0.7-21.6-1.2-32.3l-1.4-32.3
		c-0.7-16-1.4-32.1-2.1-48.1c-0.4-9.3-0.9-18.7-1.4-28c-3-60.8-6.6-121.5-10.3-182.2l-1.1-17.3l-3.1-47.2
		c-0.7-10.8-1.5-21.5-2.3-32.3l-2.4-32.3l-2.3-32.3l-2.5-32.2l-2.5-32.2c-0.7-8.7-1.4-17.5-2.1-26.2c-0.2-2-0.3-4-0.5-6l-1.1-13.5
		l-4.3-51c-0.1-1.3-0.2-2.6-0.3-3.9c-1.6-18.9-3.4-37.8-5.1-56.8c-0.1-1.3-0.2-2.5-0.3-3.8c-1-10.7-1.9-21.5-2.9-32.2l-3.1-32.2
		c-2.1-21.5-4.1-42.9-6.3-64.4l-3.2-32.2c-1.1-10.7-2.1-21.5-3.3-32.2l-6.8-64.3l-7.1-64.3l-7.3-64.3c-10-85.7-20.6-171.3-32-256.9
		c-5.5-42.8-11.6-85.5-17.5-128.3c-3-21.4-6.1-42.7-9.3-64.1c-1.8-12.6-3.7-25.1-5.6-37.7c-1.3-8.8-2.7-17.6-4-26.4
		c1.8,8.7,3.6,17.4,5.3,26.1c0.4,1.9,0.7,3.8,1.1,5.6l6.2,31.8c4,21.2,7.9,42.4,11.7,63.7c1.9,10.6,3.8,21.3,5.6,31.9
		c1.9,10.6,3.7,21.3,5.5,31.9l5.4,31.9l5.3,32c13.9,85.2,26.3,170.7,37.9,256.3c11.5,85.6,21.8,171.4,31.1,257.3
		c2.4,21.5,4.6,43,6.7,64.4l3.3,32.2c0,0.3,0.1,0.7,0.1,1c1.1,10.4,2,20.8,3,31.2l3,32.2c0.8,8.8,1.7,17.5,2.4,26.3
		c0.2,2,0.3,4,0.5,6l4.6,53.5l1,11c0.2,2.9,0.5,5.7,0.7,8.6c6.2,77.4,11.8,154.8,16.2,232.4c0.3,5.9,0.7,11.8,1,17.6l0.9,16.2
		l0.8,16.2l1.6,32.4c1.1,21.6,2.2,43.1,2.9,64.7l2.1,53.9l0.4,10.9c0.2,5.1,0.3,10.2,0.5,15.3c0,0.3,0,0.6,0,0.9l0.4,16.2l0.9,32.4
		l0.9,32.4c0.2,10.8,0.4,21.6,0.5,32.4l1,64.8l0.2,64.8L1465.3,3777.6z"/><path fill="#ffcaac" d="M1703.6,3465.4c0,0,11.6,28-21.2,45.3c0,0,9.3,38.9-28.9,44.4c0,0-4.2,22.8-19.6,40.8
		c-7.4,8.6-16.8,10.5-24.7,10c-4.8-0.3-9-2.8-11.5-6.5c-1.7-2.5-2.7-5.6-2.7-8.9c0.2-8.7-0.9-19.8-6.8-24.2
		c-10.3-7.7-114.4-55.9-125.3-64.3c-10.9-8.4-147.9,52.1-222.4-12.2c-74.6-64.3,22.5-192.2,22.5-192.2s17.4-2.9,43.6-6.8
		c67.3-9.9,192.5-25.9,229.3-13.4C1586.9,3294.7,1742.2,3414.3,1703.6,3465.4z"/><path fill="#fc9b78" d="M1597.6,3599.4c-1.7-2.5-2.7-5.6-2.7-8.9c0.2-8.7-0.9-19.8-6.8-24.2c-10.3-7.7-114.4-55.9-125.3-64.3
		c-10.9-8.4-147.9,52.1-222.4-12.2c-74.6-64.3,22.5-192.2,22.5-192.2s17.4-2.9,43.6-6.8c-4.2,30.5-13,183.3,47.1,187.9
		c66.9,5.1,92.1-9.9,119.1-0.9s127.7,71.6,131.6,90.9C1605.5,3574.8,1608.4,3589.1,1597.6,3599.4z"/><path fill="#fc9b78" d="M1703.6,3465.4c-9.8-6.6-19.2-13.5-28.5-20.3c-9.3-6.9-18.6-13.8-27.9-20.5c-4.7-3.4-9.3-6.7-14.1-10
			c-2.3-1.7-4.7-3.2-7.1-4.9c-2.4-1.6-4.8-3.2-7.2-4.8c-9.6-6.3-19.4-12.2-29.9-17.7c5.9,0.7,11.7,2.2,17.3,4
			c5.7,1.9,11.1,4.2,16.5,6.8c5.4,2.6,10.5,5.5,15.6,8.5c2.5,1.5,5,3.2,7.5,4.8c2.4,1.7,4.9,3.3,7.3,5.1
			c9.6,6.9,18.6,14.5,27.1,22.6c4.3,4.1,8.4,8.3,12.3,12.6C1696.4,3456,1700.2,3460.5,1703.6,3465.4z"/><path fill="#fc9b78" d="M1682.4,3510.7c-10.1-6-19.7-12.6-29.2-19.2c-9.5-6.6-18.8-13.5-28.1-20.3l-27.8-20.6l-28.1-20.6
			c2.8,0.8,5.6,1.8,8.4,2.7c2.8,1,5.4,2.2,8.2,3.4c1.3,0.6,2.7,1.2,4,1.8l3.9,2c2.6,1.3,5.3,2.7,7.8,4.1c2.5,1.4,5.1,2.9,7.6,4.4
			c2.5,1.5,4.9,3.1,7.4,4.7c4.9,3.2,9.7,6.6,14.4,10c9.4,6.9,18.4,14.4,27.1,22.2c2.2,2,4.3,4,6.4,6c2.1,2,4.2,4.1,6.2,6.2
			C1674.7,3501.7,1678.7,3506,1682.4,3510.7z"/><path fill="#fc9b78" d="M1653.5,3555c-10.6-6.2-20.7-12.9-30.7-19.7c-10-6.8-19.8-13.8-29.6-20.8c-9.8-7-19.5-14.1-29.2-21.2
			c-9.7-7.1-19.5-14.1-29.3-21.5c2.9,0.9,5.8,1.9,8.7,3c2.9,1,5.7,2.4,8.5,3.6l4.2,1.9l4.1,2.1c1.4,0.7,2.7,1.4,4.1,2.1
			c1.4,0.7,2.7,1.4,4,2.2c10.7,5.9,20.9,12.6,30.8,19.7c9.9,7.1,19.4,14.7,28.6,22.8c4.6,4,9.1,8.2,13.4,12.5
			C1645.3,3545.9,1649.5,3550.3,1653.5,3555z"/><path fill="#774543" d="M1961.1,4000h-3.7l-1-10.3c-0.4-3.5-0.7-7.1-1.1-10.6l-1.3-10.6c-1.8-14.2-3.3-28.3-5-42.5l-2.5-21.2
		l-1.2-10.6l-1.4-10.6c-3.6-28.3-7.1-56.6-10.6-84.9l-11.1-84.8l-2.7-21.2l-2.9-21.2l-5.6-42.4l-5.6-42.4l-5.7-42.4l-6.2-46
		l-16.6-123.5c-15.2-113-30.3-226.1-45.1-339.2c-14.8-113.1-29.2-226.3-42.3-339.7c5.7,29.6,11.1,59.3,16.4,89
		c4.7,26.5,9.3,53,13.8,79.5c4.8,28.1,9.5,56.3,14.1,84.4l6.8,42.2l6.7,42.3c17.7,112.7,34.2,225.7,49.4,338.8l11.2,84.9
		c1.8,14.2,3.5,28.3,5.3,42.5l5.2,42.5l5.2,42.5l4.8,42.5c3.2,28.4,6.5,56.7,9.4,85.1l8.5,85.2c2.5,28.4,5,56.9,7.3,85.3l0.9,10.7
		l0.7,10.7l1.4,21.4c0.9,14.2,1.9,28.5,2.8,42.7l0.7,10.7c0.2,3.6,0.3,7.1,0.5,10.7L1961.1,4000z"/><ellipse cx="1599.4" cy="1440.8" fill="#fc9b78" rx="55.6" ry="36.1" transform="rotate(-79.584 1599.336 1440.87)"/><path d="M1568.2,1431.3c-5.5,30.2,5.9,57.6,25.5,61.2c19.6,3.6,40-17.9,45.6-48.1c5.5-30.2-5.9-57.6-25.5-61.2
									C1594.1,1379.6,1573.7,1401.2,1568.2,1431.3z"/><path fill="#fff" d="M1600.3,1423.6c-1.7,9.3,2.6,17.9,9.6,19.2c7,1.3,14.1-5.2,15.8-14.5c1.7-9.3-2.6-17.9-9.6-19.2
									C1609.1,1407.8,1602,1414.3,1600.3,1423.6z"/><path fill="#fff" d="M1590.4,1441.4c-0.6,3.2,0.9,6.1,3.3,6.6s4.8-1.8,5.4-5c0.6-3.2-0.9-6.1-3.3-6.6
									C1593.4,1436,1590.9,1438.2,1590.4,1441.4z"/><ellipse cx="1320.2" cy="1400.5" fill="#fc9b78" rx="62.4" ry="40.6" transform="rotate(-79.584 1320.175 1400.487)"/><ellipse cx="1324.5" cy="1397" rx="62.4" ry="40.6" transform="rotate(-79.584 1324.446 1397.046)"/><path fill="#fff" d="M1326.1,1382c-1.9,10.5,2.9,20.1,10.8,21.5c7.9,1.4,15.8-5.9,17.7-16.3c1.9-10.5-2.9-20.1-10.8-21.5
									C1335.9,1364.2,1328,1371.5,1326.1,1382z"/><path fill="#fff" d="M1314.9,1402c-0.7,3.6,1,6.9,3.7,7.4s5.4-2,6.1-5.6c0.7-3.6-1-6.9-3.7-7.4
									C1318.3,1395.9,1315.6,1398.4,1314.9,1402z"/><path fill="#e57a5a" d="M1491,1449.3c-1.4,15.2-1.2,30.5,0,45.7c0.6,7.6,1.5,15.2,3,22.8c0.3,1.9,0.7,3.8,1.1,5.7
										c0.4,1.9,0.8,3.8,1.4,5.7c0.5,1.9,1,3.8,1.7,5.7l1.9,5.5c2.4,6.4,3.3,12.9,1.9,18.5c-1.5,5.7-5.8,10.5-11.4,14.4
										c-5.7,3.8-12.5,6.6-19.5,8.9c-7,2.3-14.4,4-21.9,5.4c7.6,1.2,15.3,1.1,23.1,0.3c7.7-1,15.6-2.7,23-6.5
										c3.7-1.9,7.3-4.3,10.4-7.5c3.1-3.2,5.7-7.2,7.1-11.6c1.4-4.4,1.7-9,1.4-13.4c-0.3-2.2-0.5-4.4-1.1-6.4
										c-0.4-2.1-1.1-4.1-1.8-6l-1.8-5.2c-0.6-1.6-1-3.4-1.6-5.1c-0.6-1.7-1-3.5-1.5-5.3c-0.5-1.8-0.9-3.5-1.3-5.3
										c-1.8-7.2-3.2-14.5-4.7-21.8C1497.2,1479,1494.5,1464.1,1491,1449.3z"/><path fill="#42160b" d="M1671.8,1354.7c0,0-4.6-17.8-33-27.2c-28.4-9.3-52.1,3.8-52.1,3.8s30,2.3,48.9,7.1
							C1655.1,1343.3,1671.8,1354.7,1671.8,1354.7z"/><path fill="#42160b" d="M1369.5,1297.5c0,0-8.1-16.5-37.8-19.8s-50.2,14.4-50.2,14.4s29.9-3.8,49.3-3
							C1350.9,1289.7,1369.5,1297.5,1369.5,1297.5z"/><path fill="#fc9b78" d="M1498.2,1669c0,0-34.7,83-75.5,81.6c-40.8-1.4-77.5-62.6-77.6-121.6
										C1345,1629.1,1455.3,1674.2,1498.2,1669z"/><path fill="#7f0000" d="M1501.2,1662.6c0,0-34,79.9-74.9,78.5c-40.8-1.4-70.7-55.2-81.3-111.9
										C1345,1629.1,1458.2,1667.7,1501.2,1662.6z"/><path fill="#fff" d="M1473.2,1661.7c-5.9,6-26.9,12.3-47.9,7.5c-26.3-6-47.5-21-49.5-30.2c3.6,1,7.3,2.1,11.1,3.1
									C1412.9,1649.7,1446.6,1658.4,1473.2,1661.7z"/><path fill="#f84a4c" d="M1363.6,1686.9c40.8-16.2,76.1-13.7,110.5,22.4c-12.6,16.6-28.5,31.3-45.8,31.8c-0.6,0-1.3,0-1.9,0
									C1400.1,1740.2,1378.5,1717.8,1363.6,1686.9z"/><path fill="#e57a5a" d="M1069.4,1346.3c0.2,3.9,0.7,7.6,1.3,11.3c0.6,3.7,1.3,7.4,2,11c0.7,3.6,1.6,7.3,2.3,10.8
			c0.4,1.8,0.7,3.5,0.9,5.2c0.1,0.4,0.1,0.8,0.1,1.1c0,0.3,0,0.7,0,0.7c0,0,0,0,0,0c0,0,0.1-0.2,0.1-0.2l-0.2,0.5
			c-0.1,0.3-0.3,0.7-0.5,1c-0.7,1.3-1.6,2.5-2.6,3.6c-1.1,1.1-2.4,2.2-3.7,3.1c-2.8,1.9-6,3.5-9.3,5c-3.3,1.5-6.8,2.8-10.3,4.3
			c-3.5,1.5-7,3.1-10.2,5.2c3.7-0.9,7.4-1.4,11.1-2.1c3.7-0.7,7.4-1.4,11.1-2.4c3.7-1,7.5-2.3,11.1-4.3c1.8-1,3.6-2.2,5.2-3.7
			c1.6-1.5,3.1-3.2,4.2-5.2c0.3-0.5,0.5-1,0.8-1.5l0.3-0.8c0.1-0.2,0.2-0.7,0.3-0.9c0.1-0.3,0.1-0.5,0.1-0.7
			c0.1-0.8,0.1-1.5,0.1-2.1c0-0.6-0.1-1.1-0.1-1.7c-0.2-2.1-0.7-4-1.1-5.9c-0.9-3.8-2-7.4-3.3-10.9c-1.3-3.6-2.7-7.1-4.3-10.5
			C1073.2,1353,1071.5,1349.6,1069.4,1346.3z"/><path fill="#9e655e" d="M1315,3729.6c0,0-416.6-23.1-621-73.3c0,0-423-81-423-219.9c0-138.9,244.3-1285.7,393.4-1386
		c8.1-5.5,16.4-10.6,24.9-15.4c50.9-28.8,106.4-45.3,158.5-55.4c-6.3,108.8-67.5,1169.6-41.9,1209.9
		c27,42.4,482.1,104.1,482.1,104.1s-25.7,165.6-4.4,315.4C1289.7,3652,1299.6,3693.6,1315,3729.6z"/><path fill="#774543" d="M810.4,2711.2c0.7,10,1.2,20,1.5,30c0.4,10,0.7,20,0.9,30c0.5,20,0.6,40,0.7,59.9c0,39.9-0.6,79.8-1.7,119.7
		c-1,39.9-2.6,79.7-4.3,119.5l-2.6,59.7c-0.4,10-0.8,19.9-0.9,29.9c-0.1,5-0.1,9.9,0,14.9c0,2.5,0.2,5,0.4,7.4
		c0.1,1.2,0.3,2.5,0.5,3.7c0.2,1.2,0.5,2.4,1,3.6c-1.5-2.1-2.3-4.6-3-7c-0.7-2.4-1.3-4.9-1.8-7.4c-1-4.9-1.9-9.9-2.6-14.9
		c-1.4-10-2.4-20-3.3-30c-1.7-20-2.7-40-3.3-60c-1.2-40-1-80,0.1-120c1.1-40,3.1-79.9,6-119.7c1.5-19.9,3.2-39.9,5.2-59.8
		c1-10,2.1-19.9,3.3-29.8C807.6,2731,808.9,2721.1,810.4,2711.2z"/><path fill="#ffcaac" d="M2516.5,2098c-47.6,8.6-166.5-50.1-216.6-118.3c-50.1-68.1-119.6-167.1-119.6-302.1
		c0-35.1,12.4-74.5,30.7-113.4c3.4-7.3,7.1-14.5,10.8-21.8c17.7-33.7,39-66.4,59.6-95.2c42.2-58.9,81.5-101.3,81.5-101.3
		s54.8,30.4,120.9,88.2c17.7,15.4,36.2,32.8,54.7,52.1c3.1,3.2,6.2,6.5,9.3,9.9c51.3,55.4,101.5,125.3,132.6,208.6
		C2766.6,1934.7,2551.9,2091.6,2516.5,2098z"/><path fill="#fc9b78" d="M2547.8,1496c-53.1-25.1-185.7-64.4-336.8,68.2c3.4-7.3,7.1-14.5,10.8-21.8c17.7-33.7,39-66.4,59.6-95.2
		c18.5-7.6,37.8-13.3,57.7-16.4c64-10.1,110.7-6.5,144.7,3.3c17.7,15.4,36.2,32.8,54.7,52.1
		C2541.6,1489.4,2544.7,1492.7,2547.8,1496z"/><path fill="#ffe9e9" d="M2538.5,1486.1c-0.4,0.3-0.7,0.5-0.8,0.5c0,0,0,0,0,0c-151.6-82.7-287.9,30.1-315.2,55.1
		c-0.3,0.2-0.5,0.5-0.7,0.7c53.9-102.6,141.1-196.5,141.1-196.5s87.8,48.8,175.3,140C2538.3,1485.9,2538.4,1486,2538.5,1486.1z"/><path fill="#ab7972" d="M3361.9,4000H2007.8c3.2-133.1,8.4-334.6,14.7-544.4c7.2-238.7,15.8-488.2,24.8-660.4
		c5.2-98.7,10.5-172.1,15.7-203.3v0c0.1-0.5,0.2-1,0.3-1.5c6.2-35.5,25.5-72.4,51.8-108.6c14.5-19.9,31.1-39.5,48.9-58.5
		c96.6-103.1,226.7-187,229-188.5c0,0,0,0,0,0c0,0,0,0,0,0c0,0,0,0.1,0,0.1c0,0.1,0,0.2-0.1,0.3c0,0.2-0.1,0.3-0.1,0.5
		c-0.1,0.4-0.2,0.7-0.2,1.1c-0.1,0.3-0.1,0.7-0.2,1c-1.6,8.1-2.8,16.7-3.6,25.6c0,0.1,0,0.1,0,0.1c0,0.1,0,0.1,0,0.2
		c-4.6,51.1,2.4,113.7,13.1,172.3c0,0,0,0,0,0c0.4,2.3,0.8,4.6,1.3,6.9c18,95.7,45,178.9,45.7,180.8l0,0l0.1-0.1v0
		c0.6-0.7,1.2-1.4,1.9-2.2c30.1-34.7,91-112.6,153.2-193.4v0c70.6-91.8,142.9-187.2,173.2-227.5c8.2-10.8,13.3-17.7,14.6-19.4
		l0.3-0.4l0,0c0,0,0,0,0.1,0c16.1,6.8,44.9,24.6,80.4,48.5c0,0,0,0,0,0c95.2,64,238.6,171.8,314.9,229.9
		c31.9,24.3,52.1,39.8,52.1,39.8s0,0,0,0l-18.7,56.4l-137,413.9l-17.6,53.1l-2.2,6.7l0,0l-2,5.9c0,0-0.3,1-0.9,2.8
		c0,0.1-0.1,0.2-0.1,0.4c0,0.1-0.1,0.2-0.1,0.4c-0.1,0.3-0.2,0.5-0.2,0.8c-1.9,6.1-5.5,18.3-10.3,34.6c-0.4,1.3-0.7,2.5-1.1,3.8
		c-3.7,12.7-8,27.7-12.5,44.2c-0.4,1.5-0.8,3-1.3,4.6c-1.1,4.1-2.3,8.3-3.5,12.6c-0.5,2-1.1,4-1.6,6c-3,11.2-6.1,22.8-9.2,34.6
		c-0.5,1.8-1,3.7-1.4,5.6c-1.5,5.9-3,11.8-4.5,17.7c-0.5,2-1,4.1-1.5,6.1c-0.1,0.3-0.2,0.7-0.2,1c-0.3,1.2-0.6,2.4-0.9,3.6
		c-0.3,1.2-0.6,2.4-0.9,3.6c-0.3,1.2-0.6,2.4-0.9,3.6c-0.9,3.8-1.8,7.6-2.7,11.3c-0.5,2.2-1,4.4-1.5,6.6c0,0,0,0,0,0
		c-0.5,2.2-1,4.3-1.5,6.5c-0.3,1.4-0.6,2.8-0.9,4.2c-0.4,1.9-0.9,3.8-1.3,5.7c-2.2,9.8-4.2,19.4-6.1,28.8c-0.2,1-0.4,2.1-0.6,3.1
		c-0.2,1-0.4,2.1-0.6,3.1s-0.4,2.1-0.6,3.1c-0.2,1-0.4,2.1-0.6,3.1c-0.2,1-0.4,2-0.6,3c-1.2,6.4-2.3,12.7-3.3,18.8
		c-0.3,1.6-0.5,3.1-0.8,4.6c-0.7,4.7-1.4,9.3-2,13.7c-0.1,0.9-0.2,1.8-0.3,2.6c-0.2,1.8-0.4,3.5-0.6,5.2c-0.1,0.9-0.2,1.7-0.3,2.5
		c-0.2,1.6-0.3,3.2-0.5,4.8c0,0.1,0,0.1,0,0.1c0,0,0,0,0,0c-0.1,1.1-0.2,2.2-0.3,3.2c-0.1,0.6-0.1,1.2-0.2,1.8
		c-0.1,1.5-0.2,3-0.3,4.5c0,0.5-0.1,1-0.1,1.5c-0.1,1.5-0.2,3-0.2,4.4c0,1-0.1,1.9-0.1,2.9c0,1-0.1,1.9-0.1,2.9c0,0.4,0,0.8,0,1.2
		c0,2.6,0,5.1,0.1,7.5c0.7,14.6,15.5,47.1,39.5,91c9.9,18.1,21.4,38.1,34.2,59.6c0.1,0.2,0.3,0.5,0.4,0.7
		c8.1,13.6,16.6,27.8,25.6,42.4c32.3,52.8,69.8,111.7,108.6,171.1c13.3,20.4,26.7,40.8,40.1,61.1
		C3278.6,3876.8,3323.5,3943.5,3361.9,4000z"/><path fill="#fc9b78" d="M1669.9,1285l9,20.1c0,0-157.5-1.7-220.2-49l6.8,26c0,0-117.6,10.6-223.7-110.9c0,0-23.1,137.9-100.9,172
		l-1.3-23.8l-12.9,16.6l-0.6,0.8c0,0,1.4-4.3,4-11.9c0-0.1,0-0.1,0.1-0.2c2.9-8.3,7.2-20.6,12.6-35.4l7.7,41.1
		c0,0,74.6-66.9,78.4-195.4c0,0,95.8,105.8,217.3,131.8c0,0-19.3-14.8-17.3-43.1c0,0,77.8,70.7,239.8,70.7l-23.1-33.4
		c1.3,1.1,56.1,47.2,126,15.4C1770.5,1277.3,1729.6,1315.5,1669.9,1285z"/><path fill="#fc9b78" d="M2337.8,1719.8c6.4,28.9-3.5,55.6-22.3,59.8c-18.8,4.2-39.2-15.8-45.6-44.7c-6.4-28.9,3.5-55.6,22.3-59.8
				C2310.9,1671,2331.4,1691,2337.8,1719.8z"/><ellipse cx="2299.6" cy="1724.7" rx="34.8" ry="53.5" transform="rotate(-12.585 2300.173 1725.054)"/><ellipse cx="2290.2" cy="1713.6" fill="#fff" rx="12.4" ry="16.5" transform="rotate(-12.585 2290.707 1713.827)"/><path fill="#fff" d="M2312.6,1727.6c0.7,3.1-0.6,5.9-2.9,6.5c-2.3,0.5-4.7-1.5-5.4-4.6c-0.7-3.1,0.6-5.9,2.9-6.5
													C2309.5,1722.5,2311.9,1724.6,2312.6,1727.6z"/><ellipse cx="2552.4" cy="1681.6" fill="#fc9b78" rx="34.8" ry="53.5" transform="rotate(-12.585 2552.932 1681.893)"/><ellipse cx="2548.6" cy="1678.8" rx="34.8" ry="53.5" transform="rotate(-12.585 2549.222 1679.116)"/><path fill="#fff" d="M2546.8,1666c2,8.9-1.8,17.3-8.5,18.8s-13.8-4.5-15.7-13.4c-2-8.9,1.8-17.3,8.5-18.8
													C2537.8,1651.1,2544.8,1657.1,2546.8,1666z"/><path fill="#fff" d="M2557,1682.7c0.7,3.1-0.6,5.9-2.9,6.5c-2.3,0.5-4.7-1.5-5.4-4.6c-0.7-3.1,0.6-5.9,2.9-6.5
													C2553.9,1677.6,2556.3,1679.7,2557,1682.7z"/><path fill="#e57a5a" d="M2401.1,1731.2c1.8,13.6,2.1,27.3,1.5,41c-0.3,6.8-0.9,13.7-1.9,20.6c-0.2,1.7-0.5,3.4-0.8,5.2
				c-0.3,1.7-0.6,3.4-1,5.2c-0.4,1.7-0.7,3.4-1.3,5.2l-1.5,5c-1.9,5.8-2.6,11.6-1,16.7c1.5,5,5.5,9.2,10.7,12.5
				c5.2,3.2,11.4,5.5,17.7,7.3c6.4,1.8,13,3.1,19.8,4.1c-6.8,1.3-13.7,1.5-20.7,1c-6.9-0.6-14-1.9-20.8-5c-3.4-1.6-6.7-3.6-9.5-6.4
				c-2.9-2.7-5.3-6.2-6.8-10.1c-1.4-3.9-1.9-8-1.7-12c0.2-2,0.3-3.9,0.8-5.8c0.3-1.9,0.9-3.7,1.4-5.5l1.5-4.7
				c0.5-1.5,0.8-3.1,1.3-4.6c0.4-1.5,0.8-3.2,1.1-4.8c0.4-1.6,0.7-3.2,1-4.8c1.3-6.5,2.4-13.1,3.5-19.7
				C2396.6,1758,2398.5,1744.7,2401.1,1731.2z"/><path fill="#3f0c00" d="M2235.9,1652.6c0,0,3.5-16.1,28.6-25.4c25.2-9.3,46.8,1.6,46.8,1.6s-26.8,3.1-43.6,8
				C2250.5,1641.8,2235.9,1652.6,2235.9,1652.6z"/><path fill="#3f0c00" d="M2503.9,1585.5c0,0,8.7-14,35.5-14.3s43.5,17.4,43.5,17.4s-26.3-6.1-43.7-7.2
				C2521.3,1580.3,2503.9,1585.5,2503.9,1585.5z"/><path fill="#fc9b78" d="M2402.1,1928.3c0,0,33.9,73.2,70.4,70.6c36.5-2.6,67.3-58.8,65.4-111.5
					C2538,1887.4,2440.8,1931.5,2402.1,1928.3z"/><path fill="#7f0000" d="M2399.3,1922.7c0,0,33.2,70.4,69.7,67.8c36.5-2.6,61.4-51.8,69-103.1
															C2538,1887.4,2437.9,1925.8,2399.3,1922.7z"/><path fill="#fff" d="M2424.3,1920.9c5.5,5.2,24.6,10.1,43.2,5.1c23.3-6.3,41.8-20.4,43.4-28.8c-3.2,1-6.5,2.1-9.8,3.2
														C2477.9,1908.1,2448,1917.1,2424.3,1920.9z"/><path fill="#f84a4c" d="M2523.4,1939.8c-37.1-13.1-68.6-9.6-98.2,23.8c11.8,14.4,26.6,27.1,42.1,26.9
														c0.6,0,1.1,0,1.7-0.1C2492.4,1988.8,2511,1968,2523.4,1939.8z"/><path d="M2559.9,1633.9c3.3-3.1,6.8-5.6,10.4-7.9c3.6-2.3,7.5-4.3,11.4-5.9c3.9-1.7,8-3,12.2-3.9
															c4.1-1,8.4-1.3,12.6-1.4c-4.2,0.5-8.3,1.2-12.3,2.5c-4,1.2-7.8,2.8-11.5,4.8c-3.7,1.9-7.2,4.2-10.4,6.7
															c-3.2,2.5-6.4,5.3-9,8.2L2559.9,1633.9z"/><path d="M2570.6,1654.3c3.2-2.9,6.4-5.2,9.9-7.2c3.5-2,7.1-3.8,10.9-5.1c3.8-1.4,7.6-2.4,11.6-3
															c3.9-0.7,7.9-0.8,11.8-0.8c-3.9,0.4-7.8,0.8-11.6,1.9c-3.8,1-7.4,2.4-10.9,4c-3.5,1.7-6.8,3.6-9.9,5.9
															c-3.1,2.2-6.1,4.8-8.5,7.5L2570.6,1654.3z"/><path d="M2276.9,1692.7c-3.8-2.5-7.5-4.4-11.5-6.2c-4-1.7-8.1-3.1-12.2-4.1c-4.2-1-8.4-1.7-12.6-1.9
															c-4.2-0.3-8.5,0.1-12.7,0.6c4.2-0.1,8.4-0.1,12.6,0.6c4.1,0.6,8.2,1.6,12.1,3c3.9,1.4,7.7,3,11.4,5
															c3.6,1.9,7.2,4.2,10.2,6.7L2276.9,1692.7z"/><path d="M2269.6,1714.6c-3.6-2.4-7.2-4.1-11-5.6c-3.8-1.5-7.6-2.6-11.6-3.4c-3.9-0.8-7.9-1.2-11.9-1.2
															c-4-0.1-7.9,0.4-11.8,1.1c3.9-0.3,7.9-0.4,11.7,0.1c3.9,0.4,7.7,1.2,11.4,2.3c3.7,1.1,7.3,2.5,10.7,4.3
															c3.4,1.7,6.8,3.8,9.5,6.1L2269.6,1714.6z"/><path fill="#84504c" d="M1315,3729.6c0,0-416.6-23.1-621-73.3c0,0-423-81-423-219.9c0-138.9,244.3-1285.7,393.4-1386
		c8.1-5.5,16.4-10.6,24.9-15.4c-17.9,56.6-315.9,957.8-246,1272.1c50.6,227.9,622.9,243,833.1,204.4
		C1282.5,3554.5,1299.6,3693.6,1315,3729.6z"/><path fill="#84504c" d="M857.8,1977.8c3.2-0.6,6.3-1.1,9.5-1.7c-0.5,0.1-1.1,0.2-1.6,0.3C862.8,1977.1,860.2,1977.5,857.8,1977.8z"/><path fill="#84504c" d="M1232.1,2017c-2.4-0.8-171.6-61-323.5-46.7c70-8.5,125.4-8.2,140.3-17.5c30.8-19.3,43.4-118,43.4-118
		s19.7,11.4,46.4,26.9c-8,15.7-22.2,49.9-10.7,74.4C1143.2,1968.5,1230.7,2016.2,1232.1,2017z"/><path fill="#84504c" d="M1431.8,2000.9c-27.7,5.8-73.8,14.4-92,19.8c42-20.8,64-60.4,65-68.8c3.3,19.1,10.2,39.4,25.9,48.4
		C1431.1,2000.5,1431.4,2000.7,1431.8,2000.9z"/><path fill="#b2817f" d="M1830.6,1144c-586.3-255.9-920.6,30.2-920.6,30.2s0-404.5,295.8-519.5c-53.2,62.3-117.8,147.8-135.1,212.9
		c-30.8,115.7,97.7,126,339.4,146.6c231.8,19.7,425.8,84.4,393.6-169C1869.2,986.7,1830.6,1144,1830.6,1144z"/><path fill="#9e655e" d="M3062.3,3035.3c0,0-81,262.3-77.1,347.1c0.7,14.6,15.5,47.1,39.5,91c-154.8,28.5-490.8-24.1-490.8-24.1
		s365.1-15.4,378-136.3c12.9-120.9,157.2-383.8,157.2-383.8s0,75.2-2.5,93.4L3062.3,3035.3z"/><path fill="#9e655e" d="M2287,3409.3c0,0.1,0,0.1,0,0.1l-14.6,60.5l-18.4,76l-10.4,43l-1.3,5.5l-1.1,4.4l-32.2,133.4l-12.3,50.9
		l-8.3,34.3l-44.1,182.6h-71.5c27.4-67.6,52.8-150.4,74.8-232.6c4.5-16.7,8.8-33.4,13-50c0.5-2,1-3.9,1.5-5.9
		c1.9-7.6,3.8-15.2,5.7-22.8c4.4-18.1,8.7-35.8,12.8-53.1c1.5-6.5,3-13,4.5-19.3c1.6-6.9,3.2-13.8,4.7-20.5c0-0.1,0-0.1,0-0.2
		c17-75.3,29.4-137.7,35.6-169.5c0.4-1.8,0.7-3.6,1-5.4c1.6-10,2.4-20.1,2.5-30.1c0.4-106.4-82.4-212.9-98.6-319.3
		c-9.7-63.4,15.9-154.4,41.7-225.1c21.3-58.4,42.8-103.1,44.7-107.1c-18.2,39.2-30.9,78-39.7,114.5c-25,104.7-17.1,191.1-13.3,217.8
		c5.1,36,109.3,222.4,117,249.4c2.8,9.8,4.4,24.1,5.3,38.4C2287.5,3383.3,2287,3407.3,2287,3409.3z"/><path fill="#b2817f" d="M2742.1,1525.9c5.1,9.9,9.3,20.1,13.2,30.6c3.9,10.4,7.3,21,10.3,31.8c6,21.5,10.4,43.4,13.3,65.6l0.5,4.2
		l0.5,4.2c0.3,2.8,0.6,5.6,0.8,8.4c0.3,2.8,0.5,5.6,0.7,8.4c0.2,2.8,0.4,5.6,0.5,8.4c0.6,11.2,0.8,22.5,0.5,33.7
		c-0.6,22.5-2.8,45-7.1,67.2l-0.8,4.2l-0.9,4.1c-0.6,2.8-1.2,5.5-1.9,8.3l-2,8.2l-2.2,8.2c-0.7,2.7-1.6,5.4-2.4,8.1l-1.2,4l-1.3,4
		c-0.9,2.7-1.8,5.4-2.7,8l-2.9,7.9c-8.1,21.1-18.1,41.4-30,60.5c-0.7,1.2-1.5,2.4-2.2,3.6l-2.3,3.5c-1.6,2.3-3.1,4.7-4.7,7
		c-3.3,4.6-6.4,9.2-9.9,13.6c-6.7,9-14,17.5-21.5,25.8l-5.8,6.1c-1,1-1.9,2-2.9,3l-3,2.9l-6,5.8c-2,1.9-4.1,3.8-6.2,5.6
		c-4.1,3.8-8.4,7.3-12.6,10.9c-2.1,1.8-4.4,3.4-6.5,5.2c-2.2,1.7-4.4,3.4-6.6,5c7.4-8.2,14.8-16.4,21.8-24.9l5.2-6.3l5.1-6.5
		l2.5-3.2c0.8-1.1,1.6-2.2,2.5-3.3l4.9-6.6c6.4-8.9,12.6-17.8,18.3-27c2.9-4.6,5.6-9.3,8.4-13.9c1.4-2.3,2.6-4.7,4-7.1l2-3.5
		c0.7-1.2,1.3-2.4,1.9-3.6c20.3-38.2,34.4-79.2,42.5-121.5c0.5-2.6,1.1-5.3,1.5-7.9l1.3-8l1.1-8c0.4-2.7,0.6-5.3,1-8
		c1.3-10.7,2.2-21.5,2.9-32.2c0.6-10.8,0.8-21.6,0.8-32.4c0-2.7-0.1-5.4-0.1-8.1c0-2.7-0.1-5.4-0.2-8.1c-0.1-2.7-0.2-5.4-0.3-8.1
		l-0.2-4.1l-0.3-4.1c-1.3-21.7-3.7-43.4-7.3-65c-1.7-10.8-3.8-21.6-6.1-32.3c-1.2-5.4-2.4-10.7-3.7-16.1
		C2745.1,1536.5,2743.7,1531.2,2742.1,1525.9z"/><path fill="#e8c9c8" d="M2538.2,1485.8c-0.1,0.3-0.3,0.5-0.5,0.8c0,0,0,0,0,0s-117.6-102.2-171.6-126.3c0,0-88.3,79.9-143.5,181.4
		c-0.3,0.2-0.5,0.5-0.7,0.7c53.9-102.6,141.1-196.5,141.1-196.5S2450.6,1394.6,2538.2,1485.8z"/><path fill="#f9c8c4" d="M2977.2,3479.3c-2.7,57.6-18.4,122.6-54.1,194.5c-1.5,3.1-3.1,6.3-4.8,9.4c-7.4,14.3-15.5,28.9-24.5,43.7
		c-9.4,15.6-18.5,31.2-27.1,46.7c0,0,0,0,0,0c-43.4,78.1-77.4,155.7-103.8,226.2h-359.5c-44.3-36.2-99.3-85.2-147.6-140.3
		c-10.7-12.2-21.1-24.8-31-37.5c-1.6-2-3.1-4-4.6-6.1c-7.7-10.2-15.1-20.5-22-30.9c-0.5-0.7-0.9-1.4-1.4-2.1c-2.4-3.6-4.8-7.3-7-11
		c-0.2-0.4-0.4-0.7-0.7-1c-0.7-1.1-1.4-2.2-2.1-3.4c-1.3-2.2-2.7-4.4-4-6.6c-0.7-1.1-1.3-2.2-1.9-3.3c-0.7-1.1-1.3-2.2-1.9-3.3
		c-0.6-1.1-1.2-2.2-1.9-3.3c-0.6-1.1-1.2-2.2-1.8-3.4c-0.6-1.1-1.2-2.2-1.8-3.4c-0.6-1.1-1.2-2.2-1.8-3.3c-0.6-1.1-1.2-2.2-1.7-3.4
		c-1.1-2.2-2.3-4.5-3.3-6.7c-0.5-1.1-1-2.1-1.5-3.2c-0.6-1.2-1.1-2.4-1.6-3.6c-0.5-1.1-1-2.2-1.5-3.4c-0.5-1.1-1-2.2-1.5-3.4
		c-0.1-0.1-0.1-0.3-0.2-0.4c-0.5-1.1-1-2.3-1.4-3.4c0-0.1-0.1-0.2-0.1-0.2c-1.6-3.9-3.2-7.8-4.6-11.7c-0.7-1.8-1.3-3.6-1.9-5.4
		c-1.4-3.9-2.7-7.9-3.9-11.8c-0.2-0.6-0.4-1.3-0.6-1.9c-0.2-0.5-0.3-1-0.4-1.6c-0.2-0.8-0.4-1.5-0.6-2.3c-0.2-0.9-0.5-1.7-0.7-2.6
		c-0.5-1.8-0.9-3.6-1.4-5.4c-0.2-0.9-0.4-1.9-0.7-2.8c-0.4-1.9-0.8-3.8-1.2-5.7c-0.4-1.9-0.8-3.8-1.1-5.7c-0.3-1.7-0.6-3.4-0.8-5.1
		c-0.3-1.9-0.6-3.9-0.8-5.8c-0.1-0.6-0.1-1.3-0.2-1.9c-0.1-0.5-0.1-0.9-0.1-1.4c-0.1-0.9-0.2-1.7-0.2-2.6c-0.1-0.8-0.1-1.5-0.2-2.3
		c0-0.4-0.1-0.9-0.1-1.3c0-0.4-0.1-0.8-0.1-1.3c0-0.6-0.1-1.3-0.1-1.9c-0.1-0.8-0.1-1.7-0.1-2.5c0-0.7-0.1-1.3-0.1-2
		c0-0.6,0-1.2,0-1.8c0-0.4,0-0.9,0-1.3c-0.2-13.5,1.1-26.9,4.2-40c0.4-1.5,0.7-3,1.1-4.5c0.2-0.7,0.3-1.3,0.5-2
		c0.4-1.6,0.8-3.1,1.2-4.7s0.8-3.1,1.3-4.6c0.4-1.4,0.8-2.9,1.2-4.3c0.4-1.4,0.8-2.9,1.3-4.3c1.3-4.3,2.6-8.5,4-12.6
		c0.5-1.4,0.9-2.8,1.4-4.1c0.3-0.9,0.6-1.8,1-2.7c0.3-0.9,0.6-1.8,1-2.7c0.4-1.1,0.9-2.3,1.3-3.4c0.3-0.8,0.6-1.7,1-2.5
		c0.3-0.8,0.6-1.6,1-2.5c0.1-0.4,0.3-0.7,0.4-1.1c0.4-1,0.8-2.1,1.3-3.1c0.4-1,0.8-2,1.2-2.9c0.4-1,0.8-2,1.2-3
		c0.6-1.3,1.1-2.6,1.7-3.9c1.1-2.6,2.3-5.1,3.5-7.6c0.6-1.3,1.2-2.5,1.8-3.8c0.5-1.1,1-2.1,1.6-3.2c0.1-0.1,0.1-0.3,0.2-0.4
		c0.5-0.9,0.9-1.9,1.4-2.8c0.1-0.2,0.2-0.3,0.2-0.5c0.1-0.2,0.2-0.4,0.3-0.6c0.6-1.2,1.3-2.5,1.9-3.7c0.6-1.2,1.3-2.4,1.9-3.6
		c0-0.1,0.1-0.1,0.1-0.2c0.6-1.2,1.3-2.4,1.9-3.5c0.5-1,1.1-1.9,1.6-2.9c0.3-0.6,0.6-1.1,1-1.7c0.5-0.9,1-1.7,1.5-2.6
		c0.7-1.2,1.4-2.4,2.1-3.5c0.7-1.2,1.4-2.4,2.1-3.5c0.7-1.2,1.4-2.3,2.1-3.5c2.9-4.6,5.8-9.1,8.9-13.6c0.8-1.1,1.5-2.2,2.3-3.3
		c0.8-1.1,1.5-2.2,2.3-3.3c0.8-1.1,1.6-2.2,2.3-3.3c0.8-1.1,1.6-2.2,2.4-3.2c1-1.4,2.1-2.8,3.1-4.2c0,0,0.1-0.1,0.1-0.1
		c1.1-1.4,2.2-2.9,3.3-4.3c1.1-1.5,2.3-2.9,3.4-4.4c1.1-1.4,2.3-2.9,3.5-4.3c1.2-1.4,2.3-2.9,3.5-4.3c1.4-1.7,2.9-3.5,4.4-5.2
		c0.7-0.9,1.5-1.7,2.2-2.5c0.7-0.8,1.4-1.7,2.1-2.5c0.9-1,1.7-1.9,2.6-2.9c3.4-3.8,6.9-7.6,10.4-11.4c1-1.1,2-2.1,3-3.1
		c1.5-1.5,3-3.1,4.5-4.6c1.4-1.4,2.8-2.9,4.3-4.3c0.8-0.9,1.7-1.7,2.5-2.5c5.3-5.2,10.6-10.4,16-15.4c1.3-1.2,2.6-2.4,3.8-3.6
		c1.2-1.1,2.4-2.2,3.6-3.3c0.1-0.1,0.2-0.2,0.3-0.2c1.2-1.1,2.5-2.3,3.8-3.4c4.9-4.4,9.9-8.8,14.9-13.2c2.1-1.8,4.2-3.7,6.4-5.5
		c2.4-2,4.7-4,7.1-6.1c4.3-3.7,8.7-7.3,13.1-11c4-3.3,8-6.6,12-9.9c0.4-0.3,0.8-0.6,1.1-0.9c2.6-2.1,5.2-4.2,7.7-6.4
		c5.9-4.9,11.8-9.7,17.7-14.6c1.8-1.5,3.7-3,5.5-4.6c9.2-7.6,18.2-15.2,27.2-22.9c1.3-1.1,2.6-2.3,4-3.4
		c6.5-5.6,12.9-11.3,19.2-17.1c1.5-1.4,2.9-2.7,4.4-4.1c1.5-1.4,3-2.8,4.5-4.2c1.5-1.4,3-2.8,4.4-4.2c1.6-1.5,3.2-3,4.7-4.6
		c1.3-1.3,2.7-2.6,4-3.9c1.4-1.4,2.8-2.8,4.1-4.2c0.1-0.1,0.3-0.3,0.4-0.4c1.3-1.3,2.6-2.7,3.9-4.1c2.8-2.9,5.6-5.9,8.3-8.8
		c1.3-1.5,2.7-2.9,4-4.4c0.1-0.1,0.1-0.1,0.2-0.2c2.6-2.9,5.2-5.9,7.8-8.9c0,0,0.1-0.1,0.1-0.1c1-1.2,2.1-2.5,3.1-3.7
		c1.2-1.5,2.4-3,3.6-4.5c0.6-0.8,1.2-1.5,1.8-2.3c0.9-1.2,1.8-2.3,2.8-3.5c0.9-1.1,1.8-2.3,2.6-3.4c0.9-1.1,1.7-2.3,2.6-3.5
		c0.9-1.2,1.8-2.5,2.7-3.7c0.8-1.1,1.6-2.2,2.3-3.2c0.6-0.8,1.2-1.6,1.8-2.5c0.6-0.9,1.3-1.9,1.9-2.8c0.6-0.9,1.3-1.8,1.9-2.8
		c0.6-0.9,1.2-1.7,1.7-2.6c0.5-0.8,1-1.6,1.6-2.4c0.5-0.7,0.9-1.4,1.4-2.1c0.6-0.9,1.2-1.8,1.7-2.7c0.8-1.2,1.5-2.4,2.3-3.6
		c3-4.8,6-9.7,8.8-14.6c0.7-1.2,1.4-2.5,2.1-3.7s1.4-2.5,2.1-3.7c6.7-12,12.8-24.1,18.5-36.3c0.5-1.1,1.1-2.3,1.6-3.5
		c0.5-1.2,1.1-2.3,1.6-3.5c0.5-1.2,1-2.3,1.6-3.5c3.1-6.9,6-13.8,8.8-20.7c0.4-1,0.8-2,1.2-3c1.7-4.3,3.4-8.6,5-12.9
		c0.4-1,0.7-2,1.1-2.9c0.2-0.6,0.4-1.2,0.7-1.7c0.4-1,0.7-2,1.1-3c0.9-2.4,1.7-4.8,2.6-7.2c0.4-1.1,0.8-2.2,1.1-3.3
		c0.4-1.1,0.8-2.2,1.2-3.3c0.4-1.1,0.8-2.2,1.1-3.3c0.5-1.4,0.9-2.8,1.4-4.2c0.6-1.7,1.1-3.3,1.6-5c0.2-0.5,0.3-1,0.5-1.6
		c0.5-1.6,1-3.2,1.5-4.8c0.4-1.4,0.9-2.8,1.3-4.1c0.7-2.2,1.3-4.3,1.9-6.4c0.3-1.1,0.7-2.2,1-3.3c0.6-2.1,1.2-4.1,1.8-6.2
		c0.4-1.6,0.9-3.1,1.3-4.7c0.2-0.9,0.5-1.8,0.7-2.7c0.5-1.8,1-3.5,1.4-5.3c0.5-1.9,1-3.9,1.5-5.8c0.4-1.5,0.8-3,1.2-4.6
		c0.2-0.9,0.4-1.7,0.6-2.5c9.9-39.7,14.9-71.8,17.1-88.2c0.1-0.6,0.2-1.3,0.2-1.9c0-0.3,0.1-0.6,0.1-0.9c0.1-0.5,0.1-1,0.2-1.4
		c0-0.4,0.1-0.8,0.1-1.1c0.1-0.5,0.1-0.9,0.2-1.3c0.1-0.6,0.1-1.2,0.2-1.7c0-0.2,0.1-0.4,0.1-0.6c0-0.2,0-0.4,0.1-0.6
		c0-0.1,0-0.2,0-0.4c0-0.2,0.1-0.4,0.1-0.6c0-0.2,0.1-0.4,0.1-0.6c0-0.4,0.1-0.6,0.1-0.6s177.4,280.3,252,347.1
		c2.2,1.9,4.4,4,6.6,6.1c0.4,0.4,0.9,0.8,1.4,1.3c0.9,0.9,1.8,1.7,2.7,2.6c0.5,0.4,0.9,0.9,1.4,1.4c6.9,6.9,14,14.6,21.2,23.2
		c0.9,1.1,1.9,2.3,2.9,3.5c1,1.2,1.9,2.4,2.9,3.6c0.5,0.6,1,1.2,1.4,1.8c1.2,1.5,2.4,3.1,3.6,4.7c0.2,0.3,0.5,0.6,0.7,0.9
		c0.9,1.3,1.9,2.6,2.9,3.9c0.5,0.7,0.9,1.3,1.4,2c0.5,0.7,1,1.4,1.5,2c1,1.4,2,2.8,2.9,4.2c2.4,3.5,4.8,7.1,7.2,10.8
		c1.3,2.1,2.6,4.2,3.9,6.3c0.5,0.8,1,1.7,1.5,2.5c3.6,6,7.1,12.2,10.5,18.7c0,0,0,0,0,0c2,3.9,4,7.8,5.9,11.9
		c0.4,0.8,0.8,1.7,1.2,2.5c1.2,2.6,2.4,5.2,3.5,7.8c0.1,0.1,0.1,0.2,0.2,0.4c0.5,1.2,1,2.3,1.5,3.5c0.5,1.2,1,2.4,1.5,3.6
		c0.5,1.1,0.9,2.3,1.4,3.4c0.5,1.4,1.1,2.8,1.6,4.1c0.3,0.7,0.5,1.4,0.8,2v0c0.6,1.7,1.3,3.4,1.9,5.1v0
		C2970.9,3378.8,2979.7,3425.9,2977.2,3479.3z"/><path fill="#f2afad" d="M2977.2,3479.3c-2.7,57.6-18.4,122.6-54.1,194.5c-1.5,3.1-3.1,6.3-4.8,9.4c-7.4,14.3-15.5,28.9-24.5,43.7
		c-9.4,15.6-18.5,31.2-27.1,46.7c0,0,0,0,0,0c-43.4,78.1-77.4,155.7-103.8,226.2h-159.7c76-86.8,201.1-235.2,231.4-305.1
		c40.2-92.6-134.8-26.9-168.2-13.8c-3.5,1.4-5.4,2.2-5.4,2.2c-0.3-11.7,0-23.3,1-34.6c3.5-39.5,14.6-76.3,31.2-110.1
		c5.1-10.5,10.8-20.6,16.9-30.5c2.8-4.5,5.7-9,8.7-13.4c5-7.3,10.2-14.5,15.7-21.5c3.9-5,7.9-9.8,11.9-14.6c0,0,0,0,0,0
		c0,0,0,0,0.1-0.1c9.5-11.1,19.6-21.8,30.1-31.9c2.8-2.7,5.7-5.4,8.6-8.1c3.8-3.5,7.6-6.9,11.5-10.2c1.6-1.4,3.2-2.8,4.8-4.1
		c2.6-2.2,5.2-4.3,7.8-6.4c7.6-6.1,15.3-12,23.1-17.7h0c1.8-1.3,3.7-2.6,5.5-3.9c15.7-11.1,31.7-21.1,47.8-30.1
		c6.3-3.5,12.5-6.9,18.8-10.1c7.7-3.9,15.3-7.6,22.9-11.1h0c6.7-3.1,13.4-5.9,20-8.6c0.1,0.1,0.1,0.2,0.2,0.4c0.5,1.2,1,2.3,1.5,3.5
		c0.5,1.2,1,2.4,1.5,3.6c0.5,1.1,0.9,2.3,1.4,3.4c0.5,1.4,1.1,2.8,1.6,4.1c0.3,0.7,0.5,1.4,0.8,2v0c0.6,1.7,1.3,3.4,1.9,5.1v0
		C2970.9,3378.8,2979.7,3425.9,2977.2,3479.3z"/><path fill="#f19894" d="M2953.7,3331.4c-6.6,83.8-35.1,179.5-122.9,225.9c-174.9,92.6-267.4,276.4-430.7,295.7
		c-63.4,7.5-136.4-25.1-202-67.8c-43.7-65.7-70-135.3-55.1-199.6c48.9-210.9,241.7-277.7,344.6-411.4
		c102.9-133.7,120.9-326.6,120.9-326.6s177.4,280.3,252,347.1C2890.4,3221.6,2929.2,3267.7,2953.7,3331.4z"/><path fill="#ffbc15" d="M2938.7,1491c-3.9,10.4-10.6,21.2-21,32.3c0,0-186.7-303.3-433-298.9c-162,2.9-274.1,112.1-333.4,189.5
		c-32.8,42.8-49.4,76-49.4,76s-6.8-15.5-14-38.4c-5.5-17.5-11.3-39.3-14.4-61.7c-7.9-56.8,1.4-117.6,74.7-122.3
		c0,0-25.1-251.4,183.2-97.1c0,0,12.9-185.1,111.9-196.7s129.2,194.8,129.2,194.8s38.6-94.8,117-82c78.4,12.9,77.1,164.2,77.1,164.2
		s59.1-37.3,108-3.8c48.9,33.4,18,117,28.3,137.6C2911.4,1401.4,2957.3,1441.3,2938.7,1491z"/><path fill="#f7aa00" d="M2938.7,1491c-3.9,10.4-10.6,21.2-21,32.3c0,0-186.7-303.3-433-298.9c-162,2.9-274.1,112.1-333.4,189.5
		l0.1,0.1l-69.4,142.7c-15.5-12.8-26-26.2-32.6-39.7c11.9-21.7,24.7-43.7,38.5-65.5c14.2-22.6,29.4-44.9,45.6-66.5
		c79.6-106.1,233.3-193.4,328.4-190.8C2722.6,1201.2,2883.9,1415.5,2938.7,1491z"/><path fill="#f26286" d="M2519.3,1098.7c-1.3,34.1-39,60.7-71.6,84.8c-29.4-13.8-48.9-28.7-60.9-43.1
			c-45.4-54.9,17.5-103.9,57.6-61.9c19.5-26,57.4-21.2,70.5,5.6C2517.2,1088.4,2518.7,1093.3,2519.3,1098.7z"/><path fill="#f26286" d="M2252.4,1256.2c-8.4-1.1-15.8-2.6-22.2-4.5c-8.6-2.5-15.6-5.7-21.1-9.2c-36.6-23.5-9.1-63.6,22-46.7
			c4.6-13.1,17.1-19.1,28.6-17c4.9,0.9,9.7,3.3,13.4,7.2c2,2.1,3.8,4.7,5.2,7.7C2283.9,1213.8,2266.9,1236.2,2252.4,1256.2z"/><path fill="#f26286" d="M2619.2,1164.8c-5.5,20.1,11.4,42.5,25.9,62.6c19.6-2.5,33.7-7.6,43.4-13.8c36.6-23.5,9.1-63.6-22-46.7
			c-6.5-18.7-29.4-23-42-9.8C2622.3,1159.2,2620.6,1161.7,2619.2,1164.8z"/><path fill="#f7e0df" d="M3775.9,3131.7c0,0-88.7-135-208.3-266.1c-119.6-131.1-3.9-324-158.1-578.6
		c-75.4-124.4-155.4-152.6-221.8-182.4c22.9-18.5,75.5-101.6-75.2-447.6c3.1,4.5,398.8,582.1,455.1,835.7
		c56.6,254.6,30.9-259.7,30.9-259.7s100.8,438.1,262.6,604.5C3872,2973.3,3848.6,3083.2,3775.9,3131.7z"/><path fill="#fff" d="M2811.2,3287.8c0,0-16.2-38.7,22.5-45.2c35.6-6,32.6,31.8,32.6,31.8s1.8-30.3,32.5-23.6
			c31.3,6.9,12,43,12,43s40.7-8.9,46.4,21.2c5.9,30.8-34,35.1-34,35.1s31.1,24.1,14.9,46.3s-46.5,2.4-46.5,2.4s18.3,35.1-15.2,46.4
			c-38.1,12.9-41.8-28.7-41.8-28.7s-5.4,47.2-40.7,28.9c-35.6-18.5-5.9-47.7-5.9-47.7s-36.7,23.6-44.5-19.5c-5.8-32,36-39,36-39
			s-34.2-25.1-18.3-49.7C2780,3260.7,2811.2,3287.8,2811.2,3287.8z"/><circle cx="2850.6" cy="3343.2" r="35.4" fill="#ffbc15" transform="rotate(-14.751 2850.757 3343.33)"/><path fill="#a1ccde" d="M2743.2,3418c0,0-21.4-45.8,21-52.4c42.4-6.6,35.2,38.7,35.2,38.7s1.4-28.8,33.2-24s12.3,43.9,12.3,43.9
			s40.2-10.6,47.6,25.4s-34.9,32.1-34.9,32.1s31.8,24.6,15.2,47.3c-16.6,22.7-47.4,2.5-47.4,2.5s20.1,40.1-14.2,51.7
			c-38.9,13.2-44-33.6-44-33.6s-4.9,43.6-43.3,29.6c-38.4-14-4.3-48.8-4.3-48.8s-35.5,27.1-48.4-15.7c-9.9-33,39.7-44,39.7-44
			s-36.3-25.7-20.7-51.2C2705.3,3394.8,2743.2,3418,2743.2,3418z"/><circle cx="2783.5" cy="3474.5" r="36.1" fill="#ffcf64" transform="rotate(-23.761 2783.78 3474.765)"/><path fill="#ce5388" d="M2693.2,3189.8c0,0-16.2-38.7,22.5-45.2c35.6-6,32.6,31.8,32.6,31.8s1.8-30.3,32.5-23.6
			c31.3,6.9,12,43,12,43s40.7-8.9,46.4,21.2c5.9,30.8-34,35.1-34,35.1s31.1,24.1,14.9,46.3c-16.2,22.2-46.5,2.4-46.5,2.4
			s18.3,35.1-15.2,46.4c-38.1,12.9-41.8-28.7-41.8-28.7s-5.4,47.2-40.7,28.9c-35.6-18.5-5.9-47.7-5.9-47.7s-36.7,23.6-44.5-19.5
			c-5.8-32,36-39,36-39s-34.2-25.1-18.3-49.7C2662.1,3162.6,2693.2,3189.8,2693.2,3189.8z"/><circle cx="2732.7" cy="3245.1" r="35.4" fill="#ffbc15"/><path fill="#f45c66" d="M2668,3350c0,0-20.4-43.8,20.1-50.1c40.5-6.3,33.7,37,33.7,37s1.4-27.6,31.7-23c30.4,4.6,11.7,42,11.7,42
			s38.4-10.2,45.5,24.3c7.1,34.4-33.4,30.8-33.4,30.8s30.4,23.5,14.5,45.2c-15.9,21.7-45.4,2.4-45.4,2.4s19.2,38.3-13.5,49.4
			c-37.2,12.6-42.1-32.1-42.1-32.1s-4.6,41.7-41.4,28.3c-36.8-13.4-4.1-46.7-4.1-46.7s-34,26-46.3-15c-9.5-31.6,38-42.1,38-42.1
			s-34.7-24.6-19.8-49C2631.7,3327.9,2668,3350,2668,3350z"/><circle cx="2706.6" cy="3404.1" r="34.5" fill="#ffcf64" transform="rotate(-62.303 2706.636 3404.137)"/><path fill="#a1ccde" d="M2513.8,3363.4c0,0-23.3-49.9,22.9-57.1s38.3,42.1,38.3,42.1s1.6-31.4,36.1-26.2s13.4,47.8,13.4,47.8
			s43.8-11.6,51.8,27.6s-38,35-38,35s34.6,26.8,16.6,51.5c-18.1,24.7-51.7,2.7-51.7,2.7s21.8,43.6-15.4,56.3
			c-42.4,14.4-47.9-36.5-47.9-36.5s-5.3,47.5-47.1,32.2c-41.9-15.3-4.7-53.1-4.7-53.1s-38.7,29.6-52.7-17.1
			c-10.8-35.9,43.2-48,43.2-48s-39.5-28-22.5-55.8C2472.5,3338.2,2513.8,3363.4,2513.8,3363.4z"/><circle cx="2557.7" cy="3424.9" r="39.3" fill="#ffcf64" transform="rotate(-29.675 2557.573 3424.754)"/><path fill="#f45c66" d="M2363.7,3673.4c0,0-18.8-40.4,18.5-46.2c37.4-5.8,31.1,34.1,31.1,34.1s1.3-25.4,29.3-21.2
			c28,4.2,10.8,38.7,10.8,38.7s35.4-9.4,42,22.4s-30.8,28.4-30.8,28.4s28,21.7,13.4,41.7c-14.6,20-41.9,2.2-41.9,2.2
			s17.7,35.4-12.5,45.6c-34.3,11.6-38.8-29.6-38.8-29.6s-4.3,38.4-38.2,26.1c-33.9-12.4-3.8-43-3.8-43s-31.3,23.9-42.7-13.8
			c-8.7-29.1,35-38.8,35-38.8s-32-22.7-18.2-45.2C2330.2,3653,2363.7,3673.4,2363.7,3673.4z"/><circle cx="2399.2" cy="3723.2" r="31.9" fill="#ffcf64" transform="rotate(-1.025 2399.31 3722.972) scale(.99996)"/><path fill="#f45c66" d="M2601.6,3093.2c0,0-18.8-40.4,18.5-46.2c37.4-5.8,31.1,34.1,31.1,34.1s1.3-25.4,29.3-21.2
			c28,4.2,10.8,38.7,10.8,38.7s35.4-9.4,42,22.4c6.6,31.7-30.8,28.4-30.8,28.4s28,21.7,13.4,41.7c-14.6,20-41.9,2.2-41.9,2.2
			s17.7,35.4-12.5,45.6c-34.3,11.6-38.8-29.6-38.8-29.6s-4.3,38.4-38.2,26.1c-33.9-12.4-3.8-43-3.8-43s-31.3,23.9-42.7-13.8
			c-8.7-29.1,35-38.9,35-38.9s-32-22.7-18.2-45.2C2568.1,3072.8,2601.6,3093.2,2601.6,3093.2z"/><circle cx="2637.1" cy="3143.1" r="31.9" fill="#ffcf64" transform="rotate(-66.329 2636.891 3142.901)"/><path fill="#f45c66" d="M2449.3,3502.2c0,0-18.8-40.4,18.5-46.2c37.4-5.8,31.1,34.1,31.1,34.1s1.3-25.4,29.3-21.2
			c28,4.2,10.8,38.7,10.8,38.7s35.4-9.4,42,22.4c6.6,31.7-30.8,28.4-30.8,28.4s28,21.7,13.4,41.7c-14.6,20-41.9,2.2-41.9,2.2
			s17.7,35.4-12.5,45.6c-34.3,11.6-38.8-29.6-38.8-29.6s-4.3,38.4-38.2,26.1c-33.9-12.4-3.8-43-3.8-43s-31.3,23.9-42.7-13.8
			c-8.7-29.1,35-38.8,35-38.8s-32-22.7-18.2-45.2C2415.9,3481.8,2449.3,3502.2,2449.3,3502.2z"/><circle cx="2484.9" cy="3552" r="31.9" fill="#ffcf64" transform="rotate(-62.303 2484.923 3552.126)"/><path fill="#a1ccde" d="M2218.4,3646.3c0,0-23.3-49.9,22.9-57.1c46.2-7.2,38.3,42.1,38.3,42.1s1.6-31.4,36.1-26.2
			c34.6,5.2,13.4,47.8,13.4,47.8s43.8-11.6,51.8,27.6c8.1,39.2-38,35-38,35s34.6,26.8,16.6,51.5c-18.1,24.7-51.7,2.7-51.7,2.7
			s21.8,43.6-15.4,56.3c-42.4,14.4-47.9-36.5-47.9-36.5s-5.3,47.5-47.1,32.2c-41.9-15.3-4.7-53.1-4.7-53.1s-38.7,29.6-52.7-17.1
			c-10.8-35.9,43.2-48,43.2-48s-39.5-28-22.5-55.8C2177.1,3621.1,2218.4,3646.3,2218.4,3646.3z"/><circle cx="2262.3" cy="3707.8" r="39.3" fill="#ffcf64" transform="rotate(-62.303 2262.352 3707.889)"/><path fill="#ce5388" d="M2303.1,3582.9c0,0-16.2-38.7,22.5-45.2c35.6-6,32.6,31.8,32.6,31.8s1.8-30.3,32.5-23.6
			c31.3,6.9,12,43,12,43s40.7-8.9,46.4,21.2c5.9,30.8-34,35.1-34,35.1s31.1,24.1,14.9,46.3c-16.2,22.2-46.5,2.4-46.5,2.4
			s18.3,35.1-15.2,46.4c-38.1,12.9-41.8-28.7-41.8-28.7s-5.4,47.2-40.7,28.9c-35.6-18.5-5.9-47.7-5.9-47.7s-36.7,23.6-44.5-19.5
			c-5.8-32,36-39,36-39s-34.2-25.1-18.3-49.7C2272,3555.8,2303.1,3582.9,2303.1,3582.9z"/><circle cx="2342.6" cy="3638.2" r="35.4" fill="#ffbc15"/><path fill="#ce5388" d="M2371.5,3320.7c0,0-16.2-38.7,22.5-45.2c35.6-6,32.6,31.8,32.6,31.8s1.8-30.3,32.5-23.6
			c31.3,6.9,12,43,12,43s40.7-8.9,46.4,21.2c5.9,30.8-34,35.1-34,35.1s31.1,24.1,14.9,46.3c-16.2,22.2-46.5,2.4-46.5,2.4
			s18.3,35.1-15.2,46.4c-38.1,12.9-41.8-28.7-41.8-28.7s-5.4,47.2-40.7,28.9c-35.6-18.5-5.9-47.7-5.9-47.7s-36.7,23.6-44.5-19.5
			c-5.8-32,36-39,36-39s-34.2-25.1-18.3-49.7C2340.4,3293.6,2371.5,3320.7,2371.5,3320.7z"/><circle cx="2411" cy="3376" r="35.4" fill="#ffbc15" transform="rotate(-45.001 2410.94 3376.078)"/><path fill="#ce5388" d="M2602,3489.7c0,0-16.2-38.7,22.5-45.2c35.6-6,32.6,31.8,32.6,31.8s1.8-30.3,32.5-23.6c31.3,6.9,12,43,12,43
			s40.7-8.9,46.4,21.2c5.9,30.8-34,35.1-34,35.1s31.1,24.1,14.9,46.3c-16.2,22.2-46.5,2.4-46.5,2.4s18.3,35.1-15.2,46.4
			c-38.1,12.9-41.8-28.7-41.8-28.7s-5.4,47.2-40.7,28.9c-35.6-18.5-5.9-47.7-5.9-47.7s-36.7,23.6-44.5-19.5c-5.8-32,36-39,36-39
			s-34.2-25.1-18.3-49.7C2570.9,3462.6,2602,3489.7,2602,3489.7z"/><circle cx="2641.5" cy="3545.1" r="35.4" fill="#ffbc15" transform="rotate(-7.458 2642.325 3546.071)"/><path fill="#f45c66" d="M2215.1,3445.4c0,0-23.3-49.9,22.9-57.1c46.2-7.2,38.3,42.1,38.3,42.1s1.6-31.4,36.1-26.2
			c34.6,5.2,13.4,47.8,13.4,47.8s43.8-11.6,51.8,27.6c8.1,39.2-38,35-38,35s34.6,26.8,16.6,51.5c-18.1,24.7-51.7,2.7-51.7,2.7
			s21.8,43.6-15.4,56.3c-42.4,14.4-47.9-36.5-47.9-36.5s-5.3,47.5-47.1,32.2c-41.9-15.3-4.7-53.1-4.7-53.1s-38.7,29.6-52.7-17.1
			c-10.8-35.9,43.2-48,43.2-48s-39.5-28-22.5-55.8C2173.8,3420.2,2215.1,3445.4,2215.1,3445.4z"/><circle cx="2259" cy="3506.9" r="39.3" fill="#ffcf64" transform="rotate(-62.303 2259.047 3506.964)"/><path fill="#fff" d="M2352.9,3439.5c0,0-16.2-38.7,22.5-45.2c35.6-6,32.6,31.8,32.6,31.8s1.8-30.3,32.5-23.6
			c31.3,6.9,12,43,12,43s40.7-8.9,46.4,21.2c5.9,30.8-34,35.1-34,35.1s31.1,24.1,14.9,46.3c-16.2,22.2-46.5,2.4-46.5,2.4
			s18.3,35.1-15.2,46.4c-38.1,12.9-41.8-28.7-41.8-28.7s-5.4,47.2-40.7,28.9c-35.6-18.5-5.9-47.7-5.9-47.7s-36.7,23.6-44.5-19.5
			c-5.8-32,36-39,36-39s-34.2-25.1-18.3-49.7C2321.8,3412.4,2352.9,3439.5,2352.9,3439.5z"/><circle cx="2392.4" cy="3494.8" r="35.4" fill="#ffbc15" transform="rotate(-29.48 2392.48 3494.96)"/><path fill="#fff" d="M2505.9,3627.2c0,0-16.2-38.7,22.5-45.2c35.6-6,32.6,31.8,32.6,31.8s1.8-30.3,32.5-23.6
			c31.3,6.9,12,43,12,43s40.7-8.9,46.4,21.2c5.9,30.8-34,35.1-34,35.1s31.1,24.1,14.9,46.3s-46.5,2.4-46.5,2.4s18.3,35.1-15.2,46.4
			c-38.1,12.9-41.8-28.7-41.8-28.7s-5.4,47.2-40.7,28.9c-35.6-18.5-5.9-47.7-5.9-47.7s-36.7,23.6-44.5-19.5c-5.8-32,36-39,36-39
			s-34.2-25.1-18.3-49.7C2474.7,3600,2505.9,3627.2,2505.9,3627.2z"/><circle cx="2545.3" cy="3682.5" r="35.4" fill="#ffbc15" transform="rotate(-10.742 2544.602 3681.588)"/><path fill="#fff" d="M2545.5,3225.7c0,0-16.2-38.7,22.5-45.2c35.6-6,32.6,31.8,32.6,31.8s1.8-30.3,32.5-23.6
			c31.3,6.9,12,43,12,43s40.7-8.9,46.4,21.2c5.9,30.8-34,35.1-34,35.1s31.1,24.1,14.9,46.3c-16.2,22.2-46.5,2.4-46.5,2.4
			s18.3,35.1-15.2,46.4c-38.1,12.9-41.8-28.7-41.8-28.7s-5.4,47.2-40.7,28.9c-35.6-18.5-5.9-47.7-5.9-47.7s-36.7,23.6-44.5-19.5
			c-5.8-32,36-39,36-39s-34.2-25.1-18.3-49.7C2514.4,3198.6,2545.5,3225.7,2545.5,3225.7z"/><circle cx="2585" cy="3281.1" r="35.4" fill="#ffbc15" transform="rotate(-45.001 2584.966 3281.109)"/><path fill="#ab7972" d="M3471.2,3513.5c-7,36.6-19.6,66.9-37.4,95.2c-26.6,42.5-110.8,121.6-200.4,199.7
		c-87.9,76.6-181,152.3-230.1,191.6h-339.2c0.2-0.2,0.3-0.4,0.5-0.6c0.6-0.8,1.1-1.6,1.7-2.4c0,0,0,0,0,0
		c42.3-59,141.6-193.5,256.8-323c43.7-49.1,89.7-97.5,135.7-140.9c38.3-36.1,76.7-68.6,113.9-95.2c0.7-0.5,1.4-1,2.1-1.5
		c0.9-0.6,1.8-1.3,2.7-1.9c3.2-2.2,6.4-4.4,9.5-6.6c0.9-0.6,1.7-1.2,2.6-1.8c0,0-0.2-0.8-0.8-2.4l-0.2-0.6c-0.1-0.4-0.2-0.7-0.4-1.1
		l-0.3-0.9l-0.4-1.4l-0.3-1l-122.9-389.4l-1.4-4.5l0-0.1c0.2-1.8,3.7-29.6,5.9-55.1v0c1.4-17.3,2.2-33.5,1-39.9c0,0,0,0,0,0
		c-0.2-1.1-0.5-1.9-0.8-2.3c0-0.1-0.1-0.1-0.1-0.1c-0.2-0.3-0.5-0.5-0.7-0.8c-23.7-31.4,78.3-243.8,135.4-356.9
		c21-41.6,35.9-69.7,36.3-70.4c0,0,0,0,0,0s3.4,8.1,9.9,24.9c21.7,56.4,77.5,211.4,150.8,490.7c24.4,93.1,42.7,170.7,55.4,236.5
		C3478.9,3371,3483.1,3451.3,3471.2,3513.5z"/><path fill="#9e655e" d="M3471.2,3513.5c-7,36.6-19.6,66.9-37.4,95.2c-26.6,42.5-110.8,121.6-200.4,199.7
		c-87.9,76.6-181,152.3-230.1,191.6H2906c55.9-48.3,178.4-154.6,287.3-252.7c83.7-75.4,159.5-145.9,191-181.6
		c12.9-14.6,23.5-31.8,32.3-50.6c47.1-100.9,40.2-246.1,39.2-263.9C3478.9,3371,3483.1,3451.3,3471.2,3513.5z"/><path fill="#9e655e" d="M3241.6,3449.9c-5.8,32.8-233.4,131.8-575.3,547c80.2-97.3,318.2-431.9,520.6-569c0.9-0.6,1.7-1.2,2.6-1.8
		c0,0-74.2-233.7-126.7-401.3l5.2-99.5C3068.1,2925.4,3247.4,3417.1,3241.6,3449.9z"/><path fill="#9e655e" d="M3022.8,2609.1c-112.8-35.7-135.8,26-181.6,30.2c-52.3,4.8-120.5-79.1-208-30.2
		c-87.4,48.9-178.4,44.4-178.4,44.4c-1.3-1.3-2.6-2.6-3.9-3.8c-2.5-2.4-5-4.6-7.6-6.6c-60.3-47.7-137.6,0.9-206.5,2.7
		c-73.3,1.9-96.4-69.4-96.4-69.4c-63.6,34.7-119.6,25.1-109-70.4c2.8-25,28.9-55.5,66-86.9c104.4-88.5,295.6-184.1,295.6-184.1
		l24.1,167.9c0,0,0,0,0,0l31.8,221l0.1-0.1l2.1-2.7l154-198.7l187.1-241.4c0,0,252.9,150.4,386.4,245.2c46.9,33.3,79,59.7,80.3,70.4
		C3264.1,2537.7,3135.6,2644.8,3022.8,2609.1z"/><path fill="#84504c" d="M3022.8,2609.1c-112.8-35.7-135.8,26-181.6,30.2c-52.3,4.8-120.5-79.1-208-30.2
		c-87.4,48.9-178.4,44.4-178.4,44.4c-3.7-3.9-7.6-7.4-11.4-10.5c2.3-7.2,4.9-14.5,7.8-21.9l154-198.7
		c-26.9,148.1,130.7,105.9,191,138.5c71.4,38.6,123.4-48.2,123.4-48.2s25.7,46.9,190.3,36.6c89.7-5.6,88.5-67.8,68.8-123.1
		c46.9,33.3,79,59.7,80.3,70.4C3264.1,2537.7,3135.6,2644.8,3022.8,2609.1z"/><path fill="#84504c" d="M2450.9,2649.6c-2.5-2.4-5-4.6-7.6-6.6c-60.3-47.7-137.6,0.9-206.5,2.7c-73.3,1.9-96.4-69.4-96.4-69.4
		c-63.6,34.7-119.6,25.1-109-70.4c2.8-25,28.9-55.5,66-86.9c-4.6,42.9,8.3,85.3,88,76.3c0,0,157.5,159.1,231.8-92.4l0,0c0,0,0,0,0,0
		c10.1,54.9,25.5,146.1,31.9,220.9C2449.8,2632.6,2450.4,2641.3,2450.9,2649.6z"/><path fill="#84504c" d="M1562.3,2606.9l-104.4,350l-93.4,18.3l-196.1-223.5L910,2119.5l-98.9-130.1c-49.5,71.5,45.8,197.9,45.8,197.9
		c-42.1,152.1,77.4,216.2,77.4,216.2c-52.2,166.3,89.3,257,89.3,257c-5.5,184.1,126.4,224.9,126.4,224.9
		c111.8,243.7,249.2,153.9,249.2,153.9c199.7,25.7,166.7-150.2,166.7-150.2c126.4-77,69.6-185.1,69.6-185.1
		c87.9-111.8,42.1-205.2,42.1-205.2c87.9-98.9,53.1-197.9,53.1-197.9c67.2-176.9,1.8-207,1.8-207L1562.3,2606.9z"/><path fill="#c8a29f" d="M1732.5,2093.2c52.2,48.1-20.9,205.9-20.9,205.9c24.3,113.6-52.7,192.4-52.7,192.4
		c34.4,151.2-40.8,203.4-40.8,203.4c46.3,122.8-69.2,181.4-69.2,181.4c18.3,179.6-152.1,142.9-152.1,142.9
		c-156.7,57.7-230.9-144.7-230.9-144.7c-167.6-99.9-122.8-221.7-122.8-221.7c-140.2-98-91.6-252.9-91.6-252.9
		c-133.7-128.3-71.5-210.7-71.5-210.7C730,1974.8,849,1976.6,849,1976.6s13.7-20.7,49.4-8.8c35.7,11.9,27.6,63.8,27.6,63.8
		c64.1,40.3,45.8,130.1,45.8,130.1c98.9,95.3,73.3,208.9,73.3,208.9c84.3,62.3,78.8,225.4,78.8,225.4
		c100.8,31.2,126.4,212.6,126.4,212.6c95.3,18.3,147.5,122.8,147.5,122.8c22-104.4,85.2-98.9,85.2-98.9
		c-58.6-92.1,36.6-172.2,36.6-172.2c-56.8-100.8,25.7-199.7,25.7-199.7c-38.5-128.3,27.5-188.7,27.5-188.7
		c-29.3-135.6,51.7-215.1,51.7-215.1s50.1-4.8,60.8,19.3C1685.3,2075.8,1721.9,2071,1732.5,2093.2z"/></svg>