<svg xmlns="http://www.w3.org/2000/svg" enable-background="new 0 0 6500 3000" viewBox="0 0 6500 3000"><path fill="#e8e8e8" d="M4529.101 2443.973s-166.721-35.835-210.287-22.233-90.921 40.705-17.048 74.508c73.874 33.803 185.383 64.279 245.174 68.93 59.791 4.651 163.971 46.324 275.729 36.853s75.768-25.489 22.73-55.364c-53.038-29.876-210.021-83.909-316.298-102.694z"/><path fill="#e8e8e8" d="M914.542 2076.015s-411.937 291.233-286.921 342.643 5118.01 61.531 5118.01 61.531 356.011-79.892-27.553-423.773l-4803.536 19.599z"/><path fill="#ffb364" d="M4706.179 1651.202h852.696v451.911h-852.696zM1479.153 1651.202h852.696v451.911h-852.696z"/><circle cx="5114.005" cy="2174.023" r="320.095" fill="#6b83a0"/><circle cx="5114.005" cy="2174.023" r="180.942" fill="#5f7c99"/><circle cx="5114.005" cy="2174.023" r="92.472" fill="#6b83a0"/><circle cx="1895.276" cy="2174.023" r="320.095" fill="#6b83a0"/><circle cx="1895.276" cy="2174.023" r="180.942" fill="#5f7c99"/><circle cx="1895.276" cy="2174.023" r="92.472" fill="#6b83a0"/><path fill="#607996" d="M5627.342 1533.922a3.417 3.417 0 0 1-3.417-3.417v-12.35c0-7.914 6.439-14.353 14.354-14.353h114.138c4.385 0 7.952-3.567 7.952-7.952v-11.76a3.417 3.417 0 1 1 6.834 0v11.76c0 8.152-6.633 14.785-14.785 14.785H5638.28c-4.147 0-7.521 3.373-7.521 7.52v12.35a3.417 3.417 0 0 1-3.417 3.417z"/><ellipse cx="5762.523" cy="1433.746" fill="#607996" rx="16.891" ry="58.181"/><ellipse cx="5760.049" cy="1433.746" fill="#9ed3e6" rx="14.418" ry="58.181"/><path fill="#ffd57a" d="M5822.437 2003.306h-1.556c-5.401 0-9.78-4.379-9.78-9.78v-115.368c0-13.382-10.848-24.23-24.229-24.23H5770.2c-6.875 0-12.448-5.573-12.448-12.448v-188.124a71.549 71.549 0 0 0-31.124-59.033l-420.566-270.329-232.008-695.524c-10.119-30.656-38.761-51.364-71.043-51.364H1032.999c-77.2 0-144.236 53.158-161.83 128.326l-131.738 562.847a542.6 542.6 0 0 0-14.279 123.661v762.521c0 10.803 8.758 19.561 19.561 19.561h758.627c18.522 0 34.073-14.086 35.736-32.533 16.436-182.283 169.636-325.125 356.199-325.125s339.763 142.842 356.199 325.125c1.663 18.447 17.214 32.533 35.736 32.533h2433.486c19.301 0 35.428-14.685 37.235-33.901 17.077-181.629 169.977-323.758 356.073-323.758 182.688 0 333.386 136.971 354.999 313.821 3.06 25.036 24.348 43.837 49.57 43.837h303.862c13.381 0 24.229-10.848 24.229-24.229v-122.258c.002-13.38-10.846-24.228-24.227-24.228z"/><path fill="#ffc36f" d="m5132.527 805.618-58.473-177.148c-10.119-30.656-38.761-51.364-71.043-51.364H1032.999c-77.2 0-144.236 53.158-161.83 128.326L847.72 805.618h4284.807z"/><path fill="#ffd57a" d="m5094.667 690.918-20.613-62.448c-10.119-30.656-38.761-51.364-71.043-51.364H1032.999c-72.129 0-135.381 46.407-157.729 113.811h4219.397z"/><path fill="#ffb364" d="M5109.66 739.755H863.935a3.416 3.416 0 0 1 0-6.833H5109.66a3.417 3.417 0 1 1 0 6.833z"/><path fill="#2f507f" d="M863.936 736.339H801.88c-7.872 0-11.886 9.452-6.42 15.117l52.261 54.162 16.215-69.279z"/><path fill="#ffc36f" d="M1997.529 577.107h-614.404c0-24.594 19.938-44.532 44.532-44.532h525.34c24.594 0 44.532 19.937 44.532 44.532zM4215.073 577.107h-614.404c0-24.594 19.938-44.532 44.532-44.532h525.34c24.594 0 44.532 19.937 44.532 44.532z"/><path fill="#e5e5e5" d="M871.402 1323.994h3108.613c9.508 0 17.216-7.708 17.216-17.216V885.964c0-9.508-7.708-17.216-17.216-17.216H971.041a17.215 17.215 0 0 0-16.752 13.249l-99.639 420.814c-2.561 10.813 5.641 21.183 16.752 21.183z"/><path fill="#ffd57a" d="M1336.889 868.748h23.118v455.246h-23.118zM1785.022 868.748h23.118v455.246h-23.118zM2233.154 868.748h23.118v455.246h-23.118zM2681.286 868.748h23.118v455.246h-23.118zM3129.419 868.748h23.118v455.246h-23.118zM3577.551 868.748h23.118v455.246h-23.118z"/><path fill="#ffd57a" d="M911.951 1060.805h3085.28V1044.8H915.741z"/><path fill="#ffc36f" d="M3980.015 1330.258H871.402c-7.223 0-13.936-3.25-18.416-8.915-4.481-5.665-6.096-12.945-4.432-19.975l99.639-420.814a23.394 23.394 0 0 1 22.847-18.07h3008.974c12.946 0 23.479 10.533 23.479 23.479v420.815c.001 12.947-10.532 23.48-23.478 23.48zM971.041 875.011c-5.1 0-9.482 3.467-10.657 8.429l-99.639 420.815a10.891 10.891 0 0 0 2.067 9.317 10.893 10.893 0 0 0 8.59 4.158h3108.613c6.039 0 10.952-4.913 10.952-10.952V885.964c0-6.039-4.913-10.952-10.952-10.952H971.041z"/><path fill="#ffb364" d="M3968.312 1540.497H738.265c-15.972 0-28.919-12.948-28.919-28.919s12.947-28.919 28.919-28.919h3230.047c15.972 0 28.919 12.948 28.919 28.919s-12.948 28.919-28.919 28.919zM3968.312 1853.928H2168.021c-15.971 0-28.919-12.948-28.919-28.919s12.948-28.919 28.919-28.919h1800.291c15.972 0 28.919 12.948 28.919 28.919 0 15.972-12.948 28.919-28.919 28.919zM1623.992 1853.928h-774.88c-15.971 0-28.919-12.948-28.919-28.919s12.948-28.919 28.919-28.919h774.879c15.971 0 28.919 12.948 28.919 28.919.001 15.972-12.947 28.919-28.918 28.919z"/><circle cx="959.889" cy="2029.091" r="45.347" fill="#ffc36f"/><circle cx="2377.197" cy="2029.091" r="45.347" fill="#ffc36f"/><path fill="#ffc36f" d="M3984.194 2122.452h-683.469c-7.2 0-13.037-5.837-13.037-13.037v-190.879c0-7.2 5.837-13.037 13.037-13.037h683.469c7.2 0 13.037 5.837 13.037 13.037v190.879c0 7.2-5.837 13.037-13.037 13.037zM3872.362 1624.767h-52.574c-13.964 0-25.284-11.32-25.284-25.284s11.32-25.284 25.284-25.284h52.574c13.964 0 25.284 11.32 25.284 25.284s-11.32 25.284-25.284 25.284zM3345.418 1369.942h-156.362a49.674 49.674 0 0 0-43.019 24.837l-78.181 135.413a49.676 49.676 0 0 0 0 49.674l78.181 135.413a49.675 49.675 0 0 0 43.019 24.837h156.362a49.674 49.674 0 0 0 43.019-24.837l78.181-135.413a49.671 49.671 0 0 0 0-49.674l-78.181-135.413a49.674 49.674 0 0 0-43.019-24.837z"/><circle cx="5002.417" cy="849.632" r="28.008" fill="#ffc36f"/><path fill="#e5e5e5" d="M5159.506 884.645c-49.27 22.378-81.665 71.734-81.665 126.845v278.827c0 18.599 15.078 33.677 33.676 33.677h194.544l-146.555-439.349z"/><path fill="#ffc36f" d="M5306.062 1330.258h-194.544c-22.022 0-39.94-17.917-39.94-39.94V1011.49c0-56.973 33.497-109.002 85.338-132.548a6.264 6.264 0 0 1 5.18 11.406c-47.378 21.519-77.992 69.07-77.992 121.142v278.828c0 15.115 12.297 27.413 27.413 27.413h194.544a6.264 6.264 0 0 1 .001 12.527z"/><path fill="#ffc36f" d="M5698.732 1617.274c-.6 0-1.206-.157-1.756-.488l-359.941-216.323a113.712 113.712 0 0 0-58.565-16.245h-162.144c-23.104 0-41.901-18.796-41.901-41.9v-52.001a3.417 3.417 0 1 1 6.834 0v52.001c0 19.336 15.731 35.067 35.068 35.067h162.144c21.871 0 43.34 5.955 62.085 17.221l359.94 216.323a3.416 3.416 0 0 1-1.764 6.345z"/><path fill="#ffc36f" d="M5334.515 1788.795a3.417 3.417 0 0 1-3.417-3.417v-240.434c0-56.95-28.94-108.797-77.415-138.687l-36.564-22.547a3.416 3.416 0 1 1 3.586-5.816l36.565 22.547c24.599 15.168 45.045 36.524 59.131 61.758a170.151 170.151 0 0 1 21.531 82.746v240.434a3.417 3.417 0 0 1-3.417 3.416zM5116.326 1384.218h-379.321a3.417 3.417 0 1 1 0-6.833h379.321a3.416 3.416 0 1 1 0 6.833z"/><path fill="#ffc36f" d="M4751.235 2045.846a3.418 3.418 0 0 1-3.365-4.034c.14-.76 14.556-76.768 69.287-151.885 32.174-44.158 71.782-79.423 117.726-104.814 57.386-31.716 124.824-48.004 200.443-48.413 114.906 0 221.834 40.745 301.104 114.73a3.418 3.418 0 0 1-4.662 4.996c-78-72.8-183.272-112.892-296.424-112.892-168.499.911-263.034 82.301-312.666 150.418-53.824 73.872-67.951 148.35-68.087 149.093a3.414 3.414 0 0 1-3.356 2.801z"/><path fill="#5f7c99" d="M5283.438 1064.806c-8.621 0-15.609-6.988-15.609-15.609V922.591c0-8.621 6.989-15.609 15.609-15.609 15.196 0 27.515 12.319 27.515 27.515v102.795c0 15.196-12.319 27.514-27.515 27.514z"/><path fill="#e5e5e5" d="M5282.5 906.982h-1.556c-7.243 0-13.115 5.872-13.115 13.115v131.594c0 7.243 5.872 13.115 13.115 13.115h1.556V906.982z"/><path fill="#607996" d="M5306.062 1327.411a3.416 3.416 0 0 1-3.417-3.417V889.421c0-20.056-16.316-36.373-36.373-36.373h-263.856a3.416 3.416 0 1 1 0-6.833h263.856c23.823 0 43.206 19.382 43.206 43.206v434.573a3.416 3.416 0 0 1-3.416 3.417z"/><path fill="#607996" d="M5039.834 984.198h-30.75a3.416 3.416 0 1 1 0-6.832h30.75c10.168 0 18.44-8.273 18.44-18.441V849.631a3.416 3.416 0 1 1 6.833 0v109.292c0 13.937-11.336 25.275-25.273 25.275z"/><path fill="#5f7c99" d="M4981.571 1323.994c-8.621 0-15.609-6.989-15.609-15.609V962.603c0-8.621 6.989-15.609 15.609-15.609 15.196 0 27.515 12.319 27.515 27.515v321.971c-.001 15.195-12.319 27.514-27.515 27.514z"/><path fill="#e5e5e5" d="M4980.632 946.994h-1.556c-7.243 0-13.115 5.872-13.115 13.115v350.77c0 7.243 5.872 13.115 13.115 13.115h1.556v-377z"/><path fill="#607996" d="M5698.735 1879.466a3.416 3.416 0 0 1-3.417-3.417v-301.808c0-20.724 16.861-37.586 37.585-37.586h127.1c5.229 0 9.483-4.254 9.483-9.483v-13.344a3.417 3.417 0 1 1 6.834 0v13.344c0 8.997-7.319 16.316-16.316 16.316h-127.1c-16.957 0-30.752 13.796-30.752 30.753v301.808a3.417 3.417 0 0 1-3.417 3.417z"/><ellipse cx="5871.472" cy="1456.7" fill="#607996" rx="19.167" ry="66.02"/><ellipse cx="5868.791" cy="1456.7" fill="#9ed3e6" rx="16.486" ry="66.02"/><path fill="#2f507f" d="M851.789 2222.482H715.885c-10.596 0-19.185-8.59-19.185-19.185V2002.93c0-10.596 8.59-19.185 19.185-19.185h135.903c10.596 0 19.185 8.59 19.185 19.185v200.367c.001 10.595-8.589 19.185-19.184 19.185z"/><path fill="#ffc36f" d="m5719.158 1862.08-104.017 71.146a82.24 82.24 0 0 1-46.429 14.359h-177.853a357.57 357.57 0 0 1 52.396 86.544h403.411v-6.594c0-13.382-10.848-24.229-24.229-24.229h-1.556c-5.402 0-9.78-4.379-9.78-9.78v-115.368c0-13.382-10.848-24.23-24.23-24.23h-41.354a46.692 46.692 0 0 0-26.359 8.152z"/><path fill="#e55f55" d="M5822.437 2003.306h-1.556c-5.402 0-9.78-4.379-9.78-9.78v-115.368c0-13.381-10.848-24.229-24.23-24.229h-41.354c-4.81 0-9.562.747-14.096 2.183l-7.793 17.063s-13.304 26.406-15.788 40.665c-2.484 14.26-3.437 32.46-3.437 37.196v61.561l130.141-6.047a24.114 24.114 0 0 0-12.107-3.244z"/><path fill="#ffb364" d="M5704.061 1993.081c-2.572-53.263-7.165-93.349 28.004-136.931-6.297 22.681-18.585 43.197-23.154 66.36-4.645 22.524-1.33 49.828-4.85 70.571zM5469.004 2130.185c3.06 25.036 24.348 43.837 49.571 43.837h303.862c13.381 0 24.229-10.848 24.229-24.229v-122.258c0-13.382-10.848-24.229-24.229-24.229h-1.556c-5.402 0-9.78-4.379-9.78-9.78h-388.268c24.038 41.039 40.138 87.293 46.171 136.659zM3939.765 846.658l118.489 32.512v1285.093l-118.489 40.641V846.658zm-4.098-14.942c-5.123.001-9.569 4.156-9.569 9.593v1369.304c0 5.474 4.483 9.595 9.574 9.595 1.027 0 2.08-.168 3.124-.526l133.122-45.66V868.748l-133.696-36.685a9.658 9.658 0 0 0-2.555-.347zM4869.16 846.658v1358.246l-118.489-40.641V879.17l118.489-32.512zm4.097-14.942c-.84 0-1.697.112-2.556.348l-133.696 36.685v1305.274l133.123 45.66a9.62 9.62 0 0 0 3.124.526c5.091 0 9.575-4.121 9.575-9.595V841.309c-.001-5.437-4.447-9.593-9.57-9.593z"/><path fill="#ffbd66" d="M4093.475 2266.495h621.975c11.905 0 21.555-9.651 21.555-21.555V805.618H4071.92v1439.321c0 11.905 9.65 21.556 21.555 21.556z"/><path fill="#607996" d="M4121.262 2203.365h566.4c10.064 0 18.222-8.158 18.222-18.222V868.748H4103.04v1316.394c0 10.065 8.158 18.223 18.222 18.223z"/><path fill="#6c88a8" d="M4140.902 905.104h527.121v323.63h-527.121z"/><path fill="#607996" d="M4396.618 905.104h15.69v323.63h-15.69z"/><path fill="#4d6984" d="M4657.685 1232.151H4151.24c-7.585 0-13.755-6.17-13.755-13.755V915.442c0-7.585 6.17-13.755 13.755-13.755h506.445c7.585 0 13.755 6.17 13.755 13.755v302.954c0 7.585-6.17 13.755-13.755 13.755zM4151.24 908.52a6.93 6.93 0 0 0-6.922 6.922v302.954a6.93 6.93 0 0 0 6.922 6.922h506.445a6.93 6.93 0 0 0 6.922-6.922V915.442a6.93 6.93 0 0 0-6.922-6.922H4151.24zM4103.04 1476.483h602.845v214.73H4103.04zM4103.04 1691.214h602.845v128.038H4103.04z"/><path fill="#607996" d="M4103.04 1651.202h602.845v40.012H4103.04z"/><path fill="#4d6984" d="M4103.04 1819.252h602.845v128.038H4103.04z"/><path fill="#607996" d="M4103.04 1779.24h602.845v40.012H4103.04z"/><path fill="#4d6984" d="M4103.04 1947.289h602.845v128.038H4103.04z"/><path fill="#607996" d="M4103.04 1907.277h602.845v40.012H4103.04z"/><path fill="#4d6984" d="M4103.04 2191.139v-115.812h602.845v115.812c0 6.752-5.474 12.226-12.226 12.226h-578.394c-6.751 0-12.225-5.474-12.225-12.226z"/><path fill="#607996" d="M4103.04 2035.315h602.845v40.012H4103.04z"/><g opacity=".35"><path fill="#fff" d="M3935.672 2213.376c-1.318 0-2.74-1.057-2.74-2.763V841.309c0-1.705 1.421-2.76 2.737-2.76.246 0 .497.034.748.103l128.67 35.306v1295.185l-128.506 44.075c-.304.105-.61.158-.909.158z"/><path fill="#ffb364" d="m3939.765 846.658 118.489 32.512v1285.093l-118.489 40.641V846.658zm-4.098-14.942c-5.123.001-9.569 4.156-9.569 9.593v1369.304c0 5.474 4.483 9.595 9.574 9.595 1.027 0 2.08-.168 3.124-.526l133.122-45.66V868.748l-133.696-36.685a9.658 9.658 0 0 0-2.555-.347z"/></g><path fill="#ffb364" d="M3934.051 1543.322a6.835 6.835 0 0 1-6.716-5.62 6.831 6.831 0 0 1 5.51-7.938l131.32-23.728c3.713-.668 7.268 1.796 7.938 5.51s-1.795 7.268-5.51 7.938l-131.32 23.728c-.41.074-.82.11-1.222.11z"/><g opacity=".35"><path fill="#fff" d="M4873.253 2213.376c-.299 0-.605-.053-.908-.157l-128.508-44.076V873.958l128.672-35.306c.25-.069.502-.103.747-.103 1.316 0 2.737 1.055 2.737 2.76v1369.304a2.68 2.68 0 0 1-.816 1.96 2.783 2.783 0 0 1-1.924.803z"/><path fill="#ffb364" d="M4869.16 846.658v1358.246l-118.489-40.641V879.17l118.489-32.512zm4.097-14.942c-.84 0-1.697.112-2.556.348l-133.696 36.685v1305.274l133.123 45.66a9.62 9.62 0 0 0 3.124.526c5.091 0 9.575-4.121 9.575-9.595V841.309c-.001-5.437-4.447-9.593-9.57-9.593z"/></g><path fill="#ffb364" d="M4875.584 1543.322c-.404 0-.812-.036-1.222-.11l-131.321-23.728a6.832 6.832 0 1 1 2.429-13.448l131.32 23.728a6.834 6.834 0 0 1-1.206 13.558z"/><path fill="#f2a694" d="M4690.972 2044.749s-48.377 7.167-48.377 62.114c0 54.947 19.112 195.273 19.112 195.273s4.778 38.224 45.391 33.446c40.929-4.815 38.224-67.788 38.224-67.788l-1.795-178.65c-.081-8.728-2.393-17.325-6.926-24.783-6.799-11.186-20.072-22.685-45.629-19.612z"/><path fill="#2f507f" d="M4684.974 1997.392s-61.535 1.742-53.988 86.497c7.546 84.755 12.336 227.396 43.321 247.797 30.984 20.401 78.079 7.63 77.462-48.1-.617-55.729-1.488-205.838-3.89-236.442-2.718-34.655-29.816-50.913-62.905-49.752z"/><path fill="#2b4a75" d="m4639.673 2192.349 34.922-86.981-39.119 35.695c1.269 16.78 2.623 34.152 4.197 51.286z"/><path fill="#f2a694" d="m4665.159 2310.662 86.425 198.61s10.083 19.272 25.901 13.847c15.819-5.425 15.122-31.389 11.964-58.087-3.158-26.698-5.69-90.232-52.579-201.651-9.192-18.042-31.855-17.847-47.674-12.422-15.818 5.425-38.971 25.363-24.037 59.703z"/><path fill="#2f507f" d="M4655.05 2294.545s6.739 21.518 22.976 57.526c16.236 36.007 45.262 111.474 45.262 111.474s52.827.353 67.979-19.738c0 0-16.911-124.211-43.017-172.993-26.105-48.782-70.224-23.074-70.224-23.074s-29.705 15.159-22.976 46.805z"/><path fill="#f2a694" d="M4758.313 2462.578s-20.679 5.159-12.423 30.283 11.437 43.705 32.068 38.818c20.26-4.8 23.287-21.325 14.52-50.229-7.075-23.323-17.846-23.077-34.165-18.872z"/><path fill="#f2a694" d="M4793.807 2486.584s20.596 46.494 13.443 54.668c-7.153 8.174-64.444 22.143-78.286 24.447-30.766 5.122-47.395-11.516-47.395-11.516s-13.078-12.705 11.014-22.772c13.005-5.435 22.044-6.863 40.242-12.686 16.254-5.201 16.809-13.143 23.961-16.208 14.306-6.131 37.021-15.933 37.021-15.933z"/><path fill="#fff" d="M4674.912 2545.979s.387 13.545 16.254 18.963c15.868 5.418 27.941 4.196 41.217 1.737 23.995-4.446 35.473-6.943 50.698-11.412 17.803-5.225 31.259-9.82 31.366-13.142.236-7.369-2.336-16.603-2.336-16.603l-137.199 20.457z"/><path fill="#37b38f" d="M4800.016 2494.92a4.7 4.7 0 0 0-2.377-1.792c-2.491-.833-7.784-1.674-15.138 2.144-10.449 5.426-14.319 13.553-16.254 19.358s-11.134 2.44-14.662-5.359-3.979-9.143-3.979-9.143-5.741 3.279-11.16 7.923c-5.418 4.644-15.867 11.997-32.509 13.158-16.642 1.161-31.735 13.932-29.026 24.769 2.709 10.836 23.801 13.545 40.443 12.771 16.641-.774 36.959-8.115 52.44-12.191 15.48-4.076 40.926-9.529 44.796-16.303 1.501-4.311-4.453-23.589-12.574-35.335z"/><path fill="#fff" d="M4738.72 2516.432c4.352-1.626 9.3-4.998 12.691-7.544-.903-2-1.475-3.795-2.005-5.003-1.445-3.295-1.8-3.757-1.8-3.757s-5.741 3.279-11.16 7.923c-3.926 3.365-10.51 8.142-20.161 10.966 6.926 3.101 16.153-.237 22.435-2.585zM4703.938 2521.21c-2.28 2.502-3.92 5.334-5.111 8.293-1.194 2.961-1.844 6.081-2.141 9.245l-.163 2.386.037 2.406.005 1.208.112 1.208c.077.806.141 1.616.199 2.43.063.814.245 1.614.342 2.43l.336 2.457c.323 1.624.658 3.256.873 4.958-.837-1.469-1.554-3.008-2.283-4.556-.549-1.603-1.151-3.214-1.579-4.875-.176-.84-.346-1.684-.502-2.532-.079-.424-.167-.848-.231-1.274l-.1-1.296a101.95 101.95 0 0 1-.158-2.601l.139-2.616c.324-3.476 1.278-6.946 3.009-10.001 1.734-3.021 4.144-5.742 7.216-7.27zM4765.305 2516.274a394.265 394.265 0 0 1 1.474 7.418l1.365 7.309c.479 2.429.893 4.872 1.337 7.327.185 1.237.436 2.46.595 3.717.166 1.255.385 2.5.455 3.804-1.382-2.186-2.456-4.517-3.319-6.919-.882-2.398-1.515-4.878-2.002-7.385-.454-2.514-.727-5.064-.759-7.625-.014-2.556.148-5.144.854-7.646z"/><path fill="#2b4a75" d="M4724.143 2290.303a1.493 1.493 0 0 1-.199-2.973c17.465-2.367 26.39-10.009 26.478-10.086a1.493 1.493 0 0 1 1.97 2.244c-.384.338-9.62 8.304-28.047 10.801a1.39 1.39 0 0 1-.202.014z"/><path fill="#2f507f" d="M4558.382 1984.128s-.597 65.1 0 88.393 3.882 56.739 86.601 56.739 95.56-20.307 97.949-40.016c2.389-19.709 2.397-112.158 2.397-112.158s-8.072-16.848-36.739-16.848h-119.45s-30.758-.896-30.758 23.89z"/><path fill="#f6af9a" d="M4436.31 2403.792s-20.429-2.15-22.526 24.212c-2.098 26.363-7.237 54.877 13.68 58.344 20.541 3.404 28.893-10.763 32.806-40.713 3.765-28.818-7.283-39.413-23.96-41.843z"/><path fill="#f6af9a" d="M4455.255 2463.446s8.584 30.408 1.527 37.417c-6.404 6.361-21.936 10.036-40.336 3.936-15.288-5.068-61.159-33.383-67.17-39.756-8.665-9.186 4.847-30.893 35.658-25.436 24.132 4.274 70.321 23.839 70.321 23.839zM4582.397 2044.036l-151.083 122.45s-42.693 38.215-19.076 66.347c23.617 28.132 49.172 26.856 72.2 12.197 30.747-19.573 117.958-83.818 139.841-101.409s47.028-53.126 21.684-83.316c-25.346-30.191-49.37-24.904-63.566-16.269z"/><path fill="#2f507f" d="M4641.753 2033.115s-37.719-28.261-85.372 16.305c-50.037 46.795-139.601 122.177-150.324 139.611-10.724 17.434-17.945 46.368 14.228 64.611 32.173 18.243 69.769-4.26 96.051-18.369 26.282-14.11 119.108-73.729 139.521-93.983 20.414-20.255 31.168-76.78-14.104-108.175z"/><path fill="#fff" d="M4344.685 2459.273s-.029 12.292 1.969 15.55c1.998 3.258 27.452 16.549 42.689 26.355 20.2 13 39.771 20.841 48.95 19.386 9.178-1.455 28.057-6.357 29.641-10 2.127-4.893.16-18.057.16-18.057l-123.409-33.234z"/><path fill="#f6af9a" d="m4401.911 2216.803 11.28 236.998s1.752 20.982 19.244 23.091c20.857 2.515 33.003-36.665 39.142-74.175 16.651-101.746 15.828-131.271 15.181-188.099-.318-27.962-20.377-33.536-40.695-34.642-20.975-1.142-43.222 6.989-44.152 36.827z"/><path fill="#2f507f" d="M4398.339 2208.205s-3.02 10.589 1.134 70.819c4.154 60.231 8.459 126.509 8.459 126.509s21.148 18.515 70.546 3.187c3.624-27.006 17.776-145.961 16.47-188.686-1.307-42.726-42.329-50.066-51.475-49.067-9.144 1-36.962 3.033-45.134 37.238z"/><path fill="#2b4a75" d="M4462.964 2245.667c-1.116.075-2.267.14-3.456.197a1.493 1.493 0 0 1-.171-2.982c27.906-1.309 34.35-7.973 34.407-8.04a1.494 1.494 0 0 1 2.27 1.941c-.258.301-6.376 7.1-33.05 8.884z"/><path fill="#37b38f" d="M4464.308 2459.489c-1.93-4.74-6.398-8.063-11.511-8.284-2.307-.1-5.047.211-8.204 1.269-11.227 3.762-18.083 16.626-18.083 16.626s-11.181-2.315-13.626-5.699c-2.445-3.384-.605-20.906-.605-20.906s-29.966-10.515-52.927-2.381c-19.921 7.057-14.85 24.156-11.32 28.683 3.53 4.527 25.469 18.081 36.519 21.607 19.95 6.366 34.245 22.79 54.556 20.402 20.18-2.372 28.177-8.542 28.989-18.299.696-8.389.659-22.091-3.788-33.018z"/><path fill="#fff" d="M4412.514 2442.417s-16.55-5.644-34.327-5.378c-4.587 4.584-1.372 9.037 3.001 11.813 7.724 4.903 31.695 14.55 31.695 14.55-1.304-3.395-.369-20.985-.369-20.985z"/><path fill="#fff" d="M4377.617 2443.297a24.914 24.914 0 0 0-3.465 3.736c-1.058 1.296-1.92 2.732-2.766 4.147-1.652 2.87-2.88 5.945-3.879 9.098-.235.795-.494 1.582-.715 2.382l-.574 2.432c-.098.406-.209.808-.296 1.217l-.218 1.237a115.94 115.94 0 0 1-.471 2.478l-.747 5.035c-.18 1.696-.352 3.401-.659 5.132-.356-1.701-.578-3.426-.808-5.162-.068-1.735-.169-3.488-.124-5.24.059-.874.124-1.75.202-2.626l.118-1.315c.062-.436.149-.869.222-1.303l.493-2.604c.22-.857.484-1.705.728-2.558 1.07-3.378 2.615-6.654 4.779-9.5 1.097-1.409 2.298-2.734 3.669-3.867 1.371-1.119 2.852-2.14 4.511-2.719zM4426.51 2469.1l-.443 10.141-.398 10.044-.333 10.058-.219 5.059c-.104 1.693-.149 3.387-.356 5.104-.455-1.657-.8-3.333-1.107-5.015-.24-1.687-.539-3.377-.665-5.078-.339-3.398-.4-6.818-.304-10.232.137-3.413.466-6.823 1.056-10.194.617-3.363 1.403-6.72 2.769-9.887z"/><path fill="#f6af9a" d="M4627.664 1703.421s-2.389 20.605-4.479 37.029 23.292 18.813 33.446 18.216c10.153-.597 32.39-8.556 32.39-26.078s-.757-44.379 0-64.098c.757-19.718-22.834-22.406-32.987-18.225-10.263 4.226-25.385 8.661-28.37 53.156z"/><path fill="#f6af9a" d="M4644.981 1543.169s-63.454-6.099-76.299 67.882c-12.845 73.981 2.18 94.291 13.416 101.847 17.904 12.04 84.46 12.368 117.4-53.116 39.715-78.949-20.733-116.244-54.517-116.613z"/><path fill="#e57e73" d="m4625.995 1717.562.13-7.453s-19.196 9.002-44.026 2.789c7.745 5.209 24.599 8.22 43.896 4.664z"/><path fill="#212851" d="M4576.118 1636.723c-.271 3.597-2.077 6.393-4.036 6.246-1.958-.147-3.326-3.182-3.056-6.779s2.077-6.393 4.035-6.246c1.959.147 3.327 3.182 3.057 6.779z"/><path fill="#fff" d="M4571.777 1633.857c-.109.835-.571 1.462-1.031 1.402-.46-.06-.744-.785-.635-1.62.109-.834.57-1.462 1.03-1.402.46.06.745.785.636 1.62z"/><path fill="#8c4949" d="M4580.047 1626.195a1.494 1.494 0 0 1-1.353-.859c-3.991-8.497-9.463-8.715-9.694-8.72a1.5 1.5 0 0 1-1.468-1.51 1.486 1.486 0 0 1 1.484-1.477c.306 0 7.535.119 12.381 10.437a1.492 1.492 0 0 1-1.35 2.129zM4585.069 1556.49s-10.061 8.998-2.971 20.608 12.605 14.513 14.927 25.252c2.322 10.74 5.805 14.513 8.708 21.189 2.902 6.676 6.676 23.767 8.417 34.233 1.741 10.466 8.127 26.721 10.449 37.46 2.322 10.74 1.85 19.304 7.021 21.117 5.17 1.813 53.643-.799 59.739-6.024 6.095-5.225 6.676-26.123 14.513-41.797 7.837-15.674 17.996-34.831 15.964-51.085 0 0 3.312-29.439-9.287-47.022-13.934-19.447-32.22-34.831-72.856-34.831-35.185.002-54.624 20.9-54.624 20.9z"/><path fill="#e5e5e5" d="M4564.28 1646.339c1.626 1.304 14.538 11.332 30.133 13.773 0 0-7.982 30.042 15.384 40.636-1.161 7.536-1.354 14.49-5.708 18.186 0 0-27.662 5.043-38.701-21.234-9.772-23.259-2.162-48.719-1.349-51.289a.152.152 0 0 1 .241-.072z"/><path fill="#e5e5e5" d="M4608.259 1703.984a1.494 1.494 0 0 1-1.31-2.208c17.009-31.251 17.326-48.501 14.832-53.767-.368-.776-.997-1.737-1.909-1.91-2.367-.158-16.104 9.045-27.457 17.67a1.494 1.494 0 1 1-1.807-2.379c7.563-5.746 25.602-19.027 29.82-18.226 1.185.225 2.849 1.026 4.052 3.566 3.398 7.173 1.533 26.268-14.907 56.473a1.493 1.493 0 0 1-1.314.781z"/><path fill="#f6af9a" d="M4608.733 1658.564s1.229-24.769 18.224-23.608 8.033 33.753-3.895 41.023c-9.539 5.815-14.329 1.549-14.329-17.415z"/><path fill="#e57e73" d="M4615.554 1667.799a1.494 1.494 0 0 1-1.478-1.29c-.094-.688-2.184-16.881 8.458-20.902a1.494 1.494 0 0 1 1.056 2.794c-8.418 3.18-6.574 17.558-6.555 17.703a1.494 1.494 0 0 1-1.481 1.695z"/><path fill="#e57e73" d="M4615.536 1660.688a1.487 1.487 0 0 1-1.405-1.985c.076-.213 1.939-5.222 8.878-5.47a1.51 1.51 0 0 1 1.545 1.439 1.494 1.494 0 0 1-1.439 1.546c-4.847.173-6.125 3.368-6.176 3.504a1.507 1.507 0 0 1-1.403.966z"/><path fill="#f6af9a" d="M4638.414 1733.284s-61.815 1.792-74.656 63.01-8.361 177.383-5.375 187.835c2.986 10.452 10.75 25.383 69.281 31.057 58.53 5.674 102.129-13.139 113.477-26.876 11.348-13.737 11.451-153.312 9.958-193.925-1.494-40.614-33.251-71.553-112.685-61.101z"/><path fill="#37b38f" d="M4622.548 1735.852s39.17 7.292 66.472-3.263c0 0 11.047-.457 27.302 5.717 16.254 6.174 33.863 20.881 36.766 53.003 2.902 32.122 6.386 79.918 5.612 105.46-.774 25.543-2.322 158.094-2.322 158.094s-40.839 17.533-104.148 15.598c-63.308-1.935-105.225-21.791-105.225-21.791s-1.354-103.525-1.354-128.487c0-24.962 6.769-102.364 9.48-121.328 2.71-18.963 18.536-55.958 67.417-63.003z"/><path fill="#121d3f" d="M4661.405 1718.769s-4.441 6.071-3.425 18.843l9.552-.605s-1.9-13.441 4.067-19.409l-10.194 1.171zM4708.6 1714.04s4.386 5.77 3.37 18.541h-8.046s2.208-11.972-3.76-17.939l8.436-.602z"/><path fill="#212851" d="m4707.996 1714.161-46.59 4.608a3.118 3.118 0 0 1-3.425-3.103v-4.761a3.119 3.119 0 0 1 2.812-3.103l46.59-4.608a3.119 3.119 0 0 1 3.425 3.103v4.761a3.12 3.12 0 0 1-2.812 3.103z"/><path fill="#121d3f" d="M4643.149 1738.647s-8.142-7.892-36.367-3.187c-38.404 6.402-57.939 50.625-57.939 50.625s26.559-51.534 65.142-21.701l29.164-25.737zM4532.561 1857.197s-23.29 133.422 79.268 189.947v-36.787s-66.179-61.047-66.179-142.71l-13.089-10.45z"/><path fill="#293163" d="M4670.751 1730.064s-55.149 8.417-60.08 45.57c-5.948 44.817-2.132 113.781-1.939 159.642.194 45.861-10.57 131.777 7.874 141.065s66.027 12.771 74.454 12.191c8.427-.58 103.631-18.721 107.114-26.776 3.483-8.055.583-168.763 0-195.561-.58-26.704-17.415-24.382-17.415-24.382s-6.506-94.729-35.401-106.234c-34.261-13.642-74.607-5.515-74.607-5.515z"/><path fill="#212851" d="M4670.461 1819.636c-7.014-48.356-20.244-71.59-27.312-80.989-14.581 6.713-29.979 18.158-32.478 36.988-5.948 44.817-2.132 113.781-1.939 159.642.194 45.861-10.57 131.777 7.874 141.065 15.244 7.677 50.396 11.388 66.89 12.117-.833-43.784-4.498-209.967-13.035-268.823z"/><path fill="#2e3870" d="M4686.521 1845.049c-.752 0-1.4-.567-1.483-1.332l-7.005-64.348c-.835-10.162 5.269-19.491 14.84-22.726 11.262-3.805 28.292-7.943 45.476-6.041 8.3.918 15.478 6.599 18.286 14.472 3.83 10.74 8.958 30.703 11.633 64.819a1.492 1.492 0 0 1-1.372 1.605 1.487 1.487 0 0 1-1.605-1.372c-2.65-33.788-7.7-53.48-11.47-64.049-2.426-6.804-8.628-11.713-15.801-12.507-16.639-1.841-33.214 2.193-44.191 5.901-8.269 2.795-13.542 10.86-12.823 19.613l7.001 64.308a1.493 1.493 0 0 1-1.486 1.657z"/><path fill="#384487" d="M4798.174 1866.195c-.581-26.704-17.415-24.382-17.415-24.382s-56.891 6.386-74.306 9.745c-17.415 3.359-31.295 16.414-31.297 16.415 5.238 74.103 7.679 185.768 8.34 220.484 3.461.153 6.103.175 7.564.074 8.427-.581 103.631-18.721 107.114-26.776 3.484-8.053.583-168.762 0-195.56z"/><path fill="#2e3870" d="M4706.453 1851.559c-17.415 3.359-31.295 16.414-31.297 16.415-1.841 3.446-1.709 9.458-1.696 15.636.127 59.036 2.556 152.062 3.386 191.764.099 4.711.581 10.836 6.649 13.084 3.461.153 6.103.175 7.564.074 1.501-.104 5.764-.766 11.761-1.827-8.272-.002-8.844-10.944-8.844-10.944v-198.56c.001-21.548 12.477-25.642 12.477-25.642z"/><path fill="#293163" d="M4708.413 1898.503v62.953c0 5.944 5.484 10.371 11.294 9.119l59.421-12.812a9.329 9.329 0 0 0 7.362-9.119v-65.212a4.78 4.78 0 0 0-5.552-4.718l-64.703 10.584a9.327 9.327 0 0 0-7.822 9.205z"/><path fill="#2e3870" d="m4780.938 1878.714-56.778 9.288c-4.525.778-7.837 5.932-7.837 10.502v61.227c0 5.944 5.484 10.372 11.294 9.119.025.014 51.512-11.087 51.512-11.087a9.328 9.328 0 0 0 7.362-9.119v-65.212a4.782 4.782 0 0 0-5.553-4.718z"/><path fill="#384487" d="M4724.143 1916.592a1.493 1.493 0 0 1-.241-2.967l56.793-9.327a1.498 1.498 0 0 1 1.716 1.232 1.494 1.494 0 0 1-1.232 1.716l-56.793 9.327a1.668 1.668 0 0 1-.243.019z"/><path fill="#293163" d="M4708.413 1993.771v62.953c0 5.944 5.484 10.372 11.294 9.119l59.421-12.812a9.329 9.329 0 0 0 7.362-9.119V1978.7a4.78 4.78 0 0 0-5.552-4.718l-64.703 10.584a9.325 9.325 0 0 0-7.822 9.205z"/><path fill="#2e3870" d="m4780.938 1973.981-56.778 9.288c-4.525.778-7.837 5.932-7.837 10.502v61.227c0 5.944 5.484 10.372 11.294 9.119.025.014 51.512-11.087 51.512-11.087a9.328 9.328 0 0 0 7.362-9.119v-65.212a4.782 4.782 0 0 0-5.553-4.718z"/><path fill="#384487" d="M4724.143 2011.279a1.493 1.493 0 0 1-.241-2.967l56.793-9.328a1.498 1.498 0 0 1 1.716 1.232 1.494 1.494 0 0 1-1.232 1.716l-56.793 9.328a1.54 1.54 0 0 1-.243.019z"/><path fill="#e89c8e" d="M4517.963 1839.725s-5.241-11.263 0-27.131 19.947-6.192 23.043 3.483 2.459 13.621 6.107 19.268c3.648 5.648-17.749 30.737-29.15 4.38z"/><path fill="#e89c8e" d="M4517.963 1812.594s8.835-25.543 13.617-31.348 13.632-15.937 33.976-10.097c0 0 3.448 18.356-1.806 33.019-5.253 14.663-11.133 23.081-18.099 28.912s-30.219 8.153-27.688-20.486z"/><path fill="#e89c8e" d="M4524.045 1819.948s-10.904 2.709-5.099 23.995 59.228 169.406 94.769 162.883c35.702-6.553 21.274-37.105 13.241-48.715-8.813-12.736-81.306-125.03-81.306-125.03s-10.381-15.842-21.605-13.133z"/><path fill="#f6af9a" d="M4563.11 1776.94s-7.294 13.311-4.25 46.463c3.045 33.153 30.599 156.54 35.037 169.447 4.438 12.907 15.401 16.04 24.712 14.967s22.811-9.219 24.85-32.062c2.039-22.844-11.155-156.967-13.072-179.79-2.494-29.701-45.393-65.72-67.277-19.025z"/><path fill="#37b38f" d="M4583.272 1751.615s-24.012 9.61-27.943 45.97 7.447 89.799 7.447 89.799 45.984 18.12 82.628-1.258c0 0 5.495-161.383-62.132-134.511z"/><path fill="#121d3f" d="M4548.843 1786.084s-5.805 13.352-7.547 31.348l6.23 4.965-1.876 10.683 8.853 13.704s5.102-67.125 16.556-86.117c0 0-10.605 1.616-22.216 25.417z"/><path fill="#e89c8e" d="M4537.19 1821.314c-1.67-4.546-1.064-9.616 1.423-13.772 1.592-2.66 3.705-5.682 5.97-7.525 4.756-3.872 14.38-10.067 15.266-8.85.885 1.217 2.52.899.332 8.407s-6.143 10.398-6.722 13.385c-.579 2.987-2.683 9.547-10.038 12.351-3.27 1.247-5.15-1.054-6.231-3.996z"/><path fill="#e57e73" d="M4545.652 1825.311a1.492 1.492 0 0 1-.895-2.69c4.659-3.479 6.735-5.18 7.134-9.036.313-3.025 1.831-5.385 3.589-8.118 1.153-1.793 2.46-3.824 3.611-6.359.803-1.769 1.135-3.471.986-5.058-.075-.801-.658-1.165-.905-1.284a1.697 1.697 0 0 0-1.676.102c-2.922 1.901-7.197 4.743-10.967 7.485-5.888 4.282-7.861 9.95-7.88 10.007a1.493 1.493 0 0 1-2.832-.948c.089-.268 2.26-6.605 8.957-11.475 3.822-2.78 8.143-5.652 11.095-7.573a4.66 4.66 0 0 1 4.605-.288 4.55 4.55 0 0 1 2.579 3.694c.199 2.111-.219 4.323-1.24 6.572-1.241 2.733-2.611 4.861-3.819 6.74-1.615 2.511-2.891 4.494-3.13 6.809-.55 5.321-3.808 7.754-8.318 11.122-.27.202-.583.298-.894.298z"/></svg>