<svg xmlns="http://www.w3.org/2000/svg" data-name="Layer 1" viewBox="18.754 56.299 312.491 237.402"><path fill="#cc974d" d="M297.17 125.26H149.72V77.29l147.45 25.26v22.71z"/><path fill="#dccdd2" d="M149.72 77.29v49.29l34.72.99-1.16-25.53-33.56-24.75z"/><path fill="#fae8da" d="m157.5 124.66 25.78-22.62-16.2 22.47-9.58.15zM162.74 86.9l-9.93 14.38 17.58-8.59-7.65-5.79z"/><path fill="#635a5e" d="M302.19 110.65 142.11 77.08l.95-9.69 160.47 36.89-1.34 6.37z"/><path fill="#877e81" d="M302.38 111h-.24l-160.3-33.72 1-10.19.28.06 160.7 36.94Zm-160-34.07L302 110.36l1.23-5.89-160-36.77Z"/><path fill="#b28044" d="M297.17 109.6 149.72 78.68l147.45 38.92v-8z"/><path fill="#ceaa96" d="M134.36 105.53h1.95v13h-1.95z"/><path fill="#442320" d="m139.83 125.37-9.16.21-1.73-11.82h12.79l-1.9 11.61z"/><path fill="#38874d" d="M134 110.72c-1.66.11-5 1-5.45 0-1.46-3.08 4.61-20.86 6.88-22.76s8.24 20.29 6.71 22.05-5.99.57-8.14.71Z"/><path fill="#819e63" d="M135.37 93.62c-.85 4.75-1.84 10.35.71 13s4.41 2 4.82 0-4.52-18.69-5.53-13Z"/><path fill="#cc974d" d="M308.72 282.66H37.77l6.31-151.47h268.54l-3.9 151.47z"/><path fill="#d89f5b" d="m311.47 182.26-269.28-1.01 1.04-25.03 268.42 1.03-.18 25.01zM310.43 222.84l-269.88-2.43 1.2-24.3h269.36l-.68 26.73zM309.35 264.51H38.71l1.05-25.04H310l-.65 25.04z"/><path fill="#b28044" d="m43.88 136.2 268.63-.45-.35 13.37L43.88 136.2z"/><path fill="#dccdd2" d="M85.27 142.98h185.71v28.74H85.27zM86.02 174.34h46.8v107h-46.8zM223.89 174.84h46.8v107h-46.8zM139 174.72h79.49V281.4H139z"/><path fill="#877e81" d="M125.93 113.35V134a.75.75 0 0 0 1.5 0v-20.65a.75.75 0 0 0-1.5 0ZM147.86 113.35V134a.75.75 0 0 0 1.5 0v-20.65a.75.75 0 0 0-1.5 0ZM73.91 113.35V134a.75.75 0 0 0 1.5 0v-20.65a.75.75 0 0 0-1.5 0ZM90.69 113.35V134a.75.75 0 0 0 1.5 0v-20.65a.75.75 0 0 0-1.5 0ZM108.66 113.35V134a.75.75 0 0 0 1.5 0v-20.65a.75.75 0 0 0-1.5 0Z"/><path fill="#877e81" d="M74.82 117.21h73.64a.75.75 0 0 0 0-1.5H74.82a.75.75 0 0 0 0 1.5ZM74.66 122.64h73.65a.75.75 0 0 0 0-1.5H74.66a.75.75 0 0 0 0 1.5Z"/><path fill="#635a5e" d="M317.04 136.2H39.22v-9.78l277.82-4.14v13.92z"/><path fill="#fae8da" d="M158 280.81 218.49 192v25.8c-23.43 27.67-52.62 62.57-52.62 62.57Z"/><path fill="#877e81" d="m139.46 200.09 14.38-.09 23.09-.13h5.29a.38.38 0 0 0 0-.75l-14.39.08-23.08.14h-5.29a.38.38 0 0 0 0 .75Z"/><path fill="#fae8da" d="M204.03 184.2 139 273.3v-16.13l65.03-72.97z"/><path fill="#877e81" d="M182.59 280.19v-80.72a.38.38 0 0 0-.75 0v80.72a.38.38 0 0 0 .75 0ZM178.13 232.21v6.27a3.84 3.84 0 0 0-.83-.09 4.1 4.1 0 0 0-1.3.24.89.89 0 0 0-.37.2.81.81 0 0 0-.28.3 1.08 1.08 0 0 0-.11.84 1.11 1.11 0 0 0 .5.66 1.08 1.08 0 0 0 .84.11 2.91 2.91 0 0 1 .58-.15h.43l.44.1h.1v10.41l-1.86.07a1.14 1.14 0 0 0-.77.32 1.12 1.12 0 0 0-.32.77 1.16 1.16 0 0 0 .32.77 1.12 1.12 0 0 0 .77.32l1.86-.07v2.5h1.67v-23.57ZM139.26 196.56h8.17v2.91h-8.17zM139.26 277.28h8.3v2.91h-8.3z"/><path fill="#877e81" d="M173.8 277.28h8.42v2.91h-8.42z"/><path fill="#b5a7ac" d="M270.69 194c-2.49-1.18-4.22 8.15-6.14 11.93s-16.41 40.15-11.76 36.92 3.71 1.6 1.39 3.83 1.39 33.49 1.39 33.49H271ZM86 199.76c0-3.27 3.93-9 6-5.74s21.68 32.23 17.35 33.82 8 18.92 3.34 17.81-.49 3.84-.49 7.31-4.52-.47-6.6 2.84-.43 7.1 1.64 6.21 4.21-.83 4.21.13-.25 17.91-.25 17.91H86Z"/><path fill="#b28044" d="M270.24 205.29c0-3.27.45-11.27.45-11.27s22.81 32.23 18.48 33.82 8.05 18.92 3.34 17.81-.51 3.84-.51 7.35-4.52-.47-6.59 2.84-.44 7.1 1.64 6.21 4.21-.83 4.21.13-.25 17.91-.25 17.91l-20 .14ZM86 199.76s-2.79 13.33-6.87 17.78-2.79 9.29.93 6.32-12.32 24.27-10.81 27 .78 29.34.78 29.34l16-.14Z"/><path fill="#3a362d" d="M252.04 276.08h4.27v5.47h-4.27zM277.55 276h4.27v5.47h-4.27z"/><path fill="#3a362d" d="M248.7 253.56h36.4v22.53h-36.4z"/><path fill="#5a2f24" d="M264.55 233.39h2.35v20.17h-2.35z"/><path fill="#c15526" d="M244.99 269.72h43.83v7.74h-43.83zM244.99 259.71h43.83v7.74h-43.83zM244.99 249.69h43.83v7.74h-43.83z"/><path fill="#315a2b" d="M246 245.5c-.24 2.91 3.16 1.18 7-.85s8.63-4.78 6.77-1.29-2.77 9.49.41 5.14 5.54-6.38 6.84-4.35 10.4 10.64 8 5.91-5.94-7.49-2-6.7 10.59 7.63 11 5.14-4.65-7.05-8.73-9.67 10.77 5.32 12.44 2.62-10.87-15.54-12.91-18.45 6.07 2 5.82 0c-.14-1.14-3.52-7.2-6.88-11.31-2.56-3.14-7.85-13.5-10.4-11-3.46 3.43-8.79 9-5.81 9.11 3.26.13 2.66.62-.13 3.89s-11.2 13.54-7.49 11.83 5.39.15 1.86 4.71-5.57 13.07-5.79 15.27Z"/><path fill="#38874d" d="M272.47 224.54c1.86 3.25 8.2 7.32 9 9.34.5 1.27-3.74-.11-4.74-.49-2.6-1-3.83-.89-2.5 1.05 2 3-3.84 1.21-4.27-4s-2.28-14.28 2.51-5.9ZM268.7 232.71c.37 1.4 3.2 5.16 2.75 5.89-.21.34-1.91-1.33-2.95-2s-1.93 1.34-2.13-2.89c-.24-4.9.52-7.71 2.33-1Z"/><path fill="#3a362d" d="M68.87 274.6h4.27v5.47h-4.27zM94.37 274.52h4.27v5.47h-4.27z"/><path fill="#3a362d" d="M65.53 252.07h36.4v22.53h-36.4z"/><path fill="#5a2f24" d="M81.37 231.91h2.35v20.17h-2.35z"/><path fill="#c15526" d="M61.81 268.24h43.83v7.74H61.81zM61.81 258.22h43.83v7.74H61.81zM61.81 248.21h43.83v7.74H61.81z"/><path fill="#315a2b" d="M62.86 244c-.25 2.91 3.16 1.19 7-.84s8.64-4.78 6.78-1.29-2.77 9.49.41 5.14 5.53-6.38 6.83-4.36 10.4 10.64 8 5.91-6-7.48-2-6.69 10.59 7.63 11 5.14S96.1 240 92 237.34s10.77 5.32 12.45 2.62-10.78-15.53-12.82-18.4 6.07 2 5.82 0c-.14-1.15-3.52-7.21-6.87-11.31-2.57-3.15-7.85-13.5-10.4-11-3.47 3.43-8.79 9-5.82 9.12 3.27.12 2.66.62-.12 3.88S63 225.81 66.76 224.11s5.38.15 1.85 4.71-5.61 13-5.75 15.18Z"/><path fill="#38874d" d="M89.3 223.05c1.86 3.26 8.2 7.32 9 9.35.5 1.26-3.74-.11-4.74-.49-2.6-1-3.84-.9-2.51 1 2 3-3.84 1.21-4.27-4s-2.28-14.24 2.52-5.86ZM85.52 231.22c.38 1.4 3.2 5.17 2.76 5.89-.21.35-1.92-1.32-3-2s-1.93 1.33-2.14-2.89c-.14-4.89.58-7.7 2.38-1Z"/><path fill="#774b3f" d="m199.7 280.19 1.46-5.76h-1.64l-1.52 5.84 1.7-.08z"/><path fill="#996452" d="m219.65 277.31-22.88.38 9.99-38.88 21.14-1.3 1.29.96-9.54 38.84z"/><path fill="#774b3f" d="m233.22 280.36-1.51.17-3.81-43.02 1.29.96 4.03 41.89z"/><path fill="#996452" d="m230.25 280.81 1.46-.28-3.38-38.18-.43-4s-.8 4.09-.86 4.34 3.21 38.12 3.21 38.12Z"/><path fill="#996452" d="M205.12 261.31h23.59v1.57h-23.59zM198 280.27l-1.97-.02 10.73-41.44 2.05-.13L198 280.27z"/><path fill="#774b3f" d="m219.98 280.19-2.29.06 10.21-42.74 1.29.96-9.21 41.72z"/><path fill="#ceaa96" d="m218 270.5-17.31.28 7.16-29.69 17.17-1.01L218 270.5z"/><path fill="#3a362d" d="M222.27 244c-.63-.79-1.83-.55-2.77-.56l-3.62-.08c-1.2 0-2.4 0-3.61-.08a11.26 11.26 0 0 0-3.38.25.18.18 0 0 0 0 .32 9.61 9.61 0 0 0 3.2.6c1.2.08 2.41.15 3.61.2s2.41.06 3.62.08c.93 0 2.32.31 3-.49a.2.2 0 0 0-.05-.24ZM221.57 247.39a2.38 2.38 0 0 0-1.23-.48 8.89 8.89 0 0 0-1.36-.18c-.43 0-.88-.06-1.31 0s-.93.06-1.4.06-.63.77-.12.85.9.19 1.36.27a12.21 12.21 0 0 0 1.37.17 7 7 0 0 0 1.3 0 2.67 2.67 0 0 0 1.34-.27.25.25 0 0 0 .05-.42ZM221.18 252a7.45 7.45 0 0 0-3.29-.38l-3.73-.08a57.66 57.66 0 0 0-7.32 0c-.43.05-.63.73-.11.82a57.33 57.33 0 0 0 7.29.48l3.59.13c1.15 0 2.5.3 3.57-.19a.48.48 0 0 0 0-.78ZM211.52 255.4a2.15 2.15 0 0 0-.75-.21 12 12 0 0 0-1.59-.1l-1.49-.07a2.37 2.37 0 0 0-1.49.22.82.82 0 0 1-.19.09.31.31 0 0 0 0 .6.8.8 0 0 1 .18.15 1.06 1.06 0 0 0 .37.18 4.41 4.41 0 0 0 .81.13l1.49.1c.5 0 1 .09 1.5.1s1.25 0 1.45-.51a.59.59 0 0 0-.29-.68ZM208.61 258.05c-.24-.1-.51-.11-.76-.21a4 4 0 0 0-.84-.21h-.47a3 3 0 0 0-.51.07h-.21l-.17.07a2 2 0 0 0-.22.09.42.42 0 0 0-.17.18.22.22 0 0 0 0 .41.35.35 0 0 0 .12.15 1 1 0 0 0 .27.13l.12.05h.18a3.35 3.35 0 0 0 .54.08 3.57 3.57 0 0 0 .47 0 3.37 3.37 0 0 0 .82-.19c.25-.1.53-.12.78-.22a.22.22 0 0 0 .05-.4ZM214.22 261.76a6.06 6.06 0 0 0-1-.67 4.67 4.67 0 0 0-1.28-.35 23.52 23.52 0 0 0-2.51-.29 12.21 12.21 0 0 0-5.14.42.39.39 0 0 0 .11.76c1.6.15 3.24-.06 4.85.07a22.69 22.69 0 0 1 2.32.32 7.68 7.68 0 0 0 1.24.22 8.25 8.25 0 0 0 1.22-.09c.2-.02.36-.25.19-.39ZM219 261.93a6 6 0 0 0-.68-.22 4.78 4.78 0 0 0-.74-.13c-.28 0-.56-.05-.84-.07a2.57 2.57 0 0 0-.48 0l-.39.05a.54.54 0 0 0-.41.52.53.53 0 0 0 .41.52 3.91 3.91 0 0 0 .84.06 8.48 8.48 0 0 0 .87-.06 4.23 4.23 0 0 0 .71-.13 4.48 4.48 0 0 0 .71-.22.2.2 0 0 0 0-.32Z"/><path fill="#996452" d="M215.83 280.25h1.85l1.06-4.42a7.15 7.15 0 0 0-1.73 0c-.01.17-1.18 4.42-1.18 4.42Z"/><path fill="#fae8da" d="M112.48 174.34h20.33v8.21c-15.81 12-29.37 22.28-30.41 22.74-2.57 1.11 18.33-26.39 18.33-26.39l-22.6 10.54c.25-.27 6.54-6.92 14.35-15.1ZM139 174.72h4.06l-4.06 3.11ZM184.44 143s-18.19 14-37.44 28.72h-32C127.54 158.6 142.62 143 143.34 143h16.22s-7.8 12-5.94 10.57S175.2 143 175.2 143ZM117.96 280.34l14.85-16.67v17.66l-14.85-.99zM230.17 174.84h37.38c-6.82 7.31-21.08 25-21.53 25.51.1-.58 2.79-16.08 1.27-15.79-.54.1-10.56 11.74-23.4 26.85v-27.36ZM270.99 171.72H232.3l19.58-28.74h19.11v28.74z"/><path fill="#442320" d="M34.76 280.19h278.07v2.72H34.76z"/><path fill="#5a2f24" d="M148.11 161.74H145.91l-.08-.08-.32-.45-.09-.12-.32-.43-.09-.12-.28-.45-.09-.12-.31-.43-.07-.08h-.63l-.08.06V161.75h-2.06V154.71l.06-.08H145.73l.21.06.15.05.15.06.16.06.15.07.13.08.19.13.11.09.1.1.1.12.14.19.09.13.12.19.07.14.07.15.05.16V157.77l-.06.15-.07.15-.09.15-.09.13-.09.12-.09.11-.16.16-.11.09-.2.11-.12.07-.13.07H146.3v.08l.36.51.09.12.36.49.1.12.36.49.1.12.31.36.09.11.05.11Zm-3-3.84h.22l.13-.05.12-.07.1-.12.07-.15V156.68l-.07-.15-.09-.12-.11-.09-.14-.06-.22-.05h-1.51l-.06.06V157.83h.87ZM155.82 160.84V161.71H150.25l-.07-.05v-7.12h5.46V156.16h-3.53V157.08h1.7l1.12-.06h.48V158.58l-.07.05H154.39l-.8.05H152.1v1.39h3.66V160.24ZM163.9 159.55v.5l-.05.22v.14l-.09.19-.07.13-.12.18-.1.12-.12.12-.11.11-.2.13-.13.09-.15.08-.14.07-.23.08-.3.1H159.3l-.22-.07-.14-.07-.15-.07-.14-.07-.13-.08-.31-.22-.12-.1-.18-.14-.12-.1-.11-.11-.08-.09V160.48l.1-.1.28-.26.09-.11.17-.26.09-.11.09-.11.11-.06h.11l.11.08.32.22.15.08.14.07.23.11h.15l.16.05H161.32l.15-.06.13-.08.1-.1v-.07l.06-.15v-.25l-.08-.14-.05-.06-.13-.1h-.08l-.15-.06h-.34l-1-.09-.3-.06h-.16l-.22-.08-.15-.05-.15-.07-.34-.17-.13-.09-.15-.09-.12-.09-.17-.14-.09-.13-.09-.15-.06-.15-.07-.21V156.07l.05-.15.1-.22.07-.13.08-.12.1-.11.15-.15.13-.1.13-.09.14-.07.19-.11.3-.12h2.21l.34.06h.33l.17.05.16.06.15.07.15.06.19.11.14.07.12.09.09.09v.1l-.06.11-.11.19-.07.12-.38.5-.11.14-.12.1H162.22l-.1-.05-.15-.09-.15-.06h-.47l-.23-.05h-1.02l-.16.05h-.06l-.12.09v.06l-.07.14V157l.08.13.11.1.12.06H160.98l.34.08.32.1.23.05h.15l.28.1.2.09.14.07.14.08.13.08.28.24.11.12.1.12.12.18.08.13.07.15v.52ZM171.23 155.37V156.24h-1.98V161.73l-.05.05h-1.98v-5.44H165.24v-1.57H171.19l.05.07V155.18ZM179.66 161.49v.14l-.07.11H177.64l-.06-.07-.05-.11-.31-.84-.07-.1h-3.26l-.06.12-.23.68-.06.16-.11.13-.15.05H171.64l-.12-.06-.08-.11V161.38l.06-.16.14-.31.06-.15.25-.55.06-.14.26-.56.06-.15.23-.54.06-.15.27-.56.11-.11.35-.82.28-.6.07-.16.22-.45.07-.16.19-.45.06-.15.18-.41v-.11l.1-.06h2.02l.11.08v.13l.14.39.06.15.25.47.06.13.22.49.06.14.18.51.06.14.22.48.05.14.22.49.06.14.2.5.06.14.31.62.24.47.07.14.27.62Zm-3.33-2.81v-.13l-.22-.68v-.15l-.2-.59V157l-.1-.07h-.24l-.1.1-.27.68-.06.15-.26.67v.27h1.48l.08-.08ZM187.65 158.27v1.66l-.08.21-.05.14-.09.21-.07.13-.13.2-.1.13-.12.13-.13.11-.2.16-.13.09-.2.12-.13.07-.21.1-.15.05-.22.08h-1.67l-.55-.06H183l-.16-.05h-.08l-.16-.07-.22-.1-.15-.09-.15-.1-.26-.22-.11-.11-.13-.17-.09-.12-.16-.26-.09-.13-.08-.15-.07-.16-.06-.15V154.65l.07-.09H182.94l.08.08v4.45l.06.22.06.15.1.23.1.12.16.17.13.08.22.08H184.42l.26-.05h.14l.19-.09.13-.08.16-.14.1-.12.11-.21.07-.15.05-.16V154.65l.09-.08h1.85l.08.07v3.16ZM196.62 161.74H194.42l-.08-.08-.32-.45-.09-.12-.32-.43-.09-.12-.28-.45-.09-.12-.32-.43-.07-.08h-.63l-.08.06V161.75h-2V154.71l.06-.08H194.29l.21.06.15.05.15.06.16.06.15.07.13.08.19.13.11.09.1.1.1.12.13.19.09.13.12.19.08.14.06.15V157.77l-.06.15-.07.15-.08.15-.09.13-.09.12-.09.11-.16.16-.11.09-.2.11-.12.07-.13.07H194.81v.08l.36.51.09.12.36.49.1.12.35.49.1.12.31.36.09.11v.11Zm-2.8-3.88.13-.05.12-.07.1-.12.07-.15v-.79l-.07-.15-.09-.12-.11-.09-.14-.06-.22-.05H192.09l-.06.06V157.83h1.53ZM206.16 161.49v.14l-.07.11h-1.96l-.06-.07v-.11l-.31-.84-.07-.1h-3.3l-.06.12-.23.68-.06.16-.11.13-.15.05H198.14l-.12-.06-.08-.11V161.38l.06-.16.13-.31.07-.15.24-.55.06-.14.26-.56.06-.15.23-.54.06-.15.27-.56.06-.14.36-.82.28-.6.07-.16.22-.45.07-.16.19-.45.06-.15.18-.41v-.11l.1-.06h2.02l.1.08.05.13.14.39.06.15.25.47.06.13.22.49.06.14.18.51.06.14.22.48.06.14.22.49.06.14.2.5.06.14.31.62.24.47.07.14.27.62Zm-3.33-2.81v-.13l-.22-.68v-.15l-.2-.59V157l-.1-.07h-.24l-.1.1-.27.68-.06.15-.26.67v.27h1.48l.08-.08ZM215 156.14v5.43l-.08.11-.1.07H213.39l-.12-.05-.12-.09-.09-.13-.15-.29-.09-.13-.39-.48-.1-.12-.39-.48-.09-.13-.35-.52-.09-.12-.39-.48-.1-.12-.37-.49-.09-.08h-.07V161l.06.4V161.69l-.07.07H208.42V154.67H210l.06.09.42.45.1.12.37.47.1.12.37.49.1.12.36.5.09.12.38.48.1.12.36.5.08.07h.11l.07-.05v-.11l-.07-.42v-3.1H214.95l.06.07v.86ZM223.29 155.37V156.24h-1.99V161l.05.45v.33H219.38v-5.44H217.39v-1.57h.76-.15 5.19l.05.07V155.18Z"/><path fill="#dccdd2" d="M55.1 179.75c-.66 2.13-2.07 9.62-2.07 9.62h-7.16a57.24 57.24 0 0 0-1.81-9.62c-.6-1.91 11.69-2.11 11.04 0Z"/><path fill="#ffe594" d="M50.56 188.26a4.91 4.91 0 0 1-.12 1.11h-1.72a5.55 5.55 0 0 1-.12-1.11c0-1.32.44-2.39 1-2.39s.96 1.07.96 2.39Z"/><path fill="#fae8da" d="M53 181.24h-.05c-.14-.02-.13-.02.05 0Z"/><path fill="#fae8da" d="M52.81 179.52a9.15 9.15 0 0 0-1.38-.1 9.06 9.06 0 0 0-1.38.09 2.93 2.93 0 0 0-.66.18l-.28.13c-.08.06-.15.13-.24.19a.27.27 0 0 0 .13.49c.11 0 .21.06.32.07l.26.05c.21 0 .42 0 .62.06.41.06.85.14 1.27.24l1.12.25a1.8 1.8 0 0 0 .32.06h.14a.4.4 0 0 0 .24 0 .71.71 0 0 0 .55-.68 1.15 1.15 0 0 0-1.03-1.03Z"/><path fill="#dccdd2" d="M34.81 200.07h7.3s1.44-7.61 2.1-9.78-11.85-1.95-11.23 0a57.69 57.69 0 0 1 1.83 9.78Z"/><path fill="#ffe594" d="M39.26 199a4.91 4.91 0 0 1-.12 1.11h-1.71a4.89 4.89 0 0 1-.13-1.11c0-1.32.44-2.38 1-2.38s.96 1.02.96 2.38Z"/><path fill="#fae8da" d="M41.8 191.15a.26.26 0 0 0-.32 0c-.33.33-.29.91-.34 1.33s-.14 1-.23 1.47a11.19 11.19 0 0 0-.17 1.53 11.92 11.92 0 0 0-.09 1.46.23.23 0 0 0 .41.11 6.39 6.39 0 0 0 .68-1.42 5.07 5.07 0 0 0 .35-1.54 12.52 12.52 0 0 0 0-1.5c.02-.44.07-1.1-.29-1.44Z"/><path fill="#dccdd2" d="M57.42 200.07h7.3s1.44-7.61 2.1-9.78-11.85-1.95-11.23 0a57.69 57.69 0 0 1 1.83 9.78Z"/><path fill="#ffe594" d="M62.19 199a4.89 4.89 0 0 1-.13 1.11h-1.71a4.89 4.89 0 0 1-.13-1.11c0-1.32.44-2.38 1-2.38s.97 1.02.97 2.38Z"/><path fill="#fae8da" d="M65.81 190.59a.2.2 0 0 0-.33-.09 3 3 0 0 0-.76 1.57 18.06 18.06 0 0 0-.45 1.9 7.54 7.54 0 0 0-.13 3.71.14.14 0 0 0 .26 0 12.58 12.58 0 0 0 .87-3.54c.12-.62.24-1.24.38-1.85a3.69 3.69 0 0 0 .16-1.7ZM59.06 190.62ZM59.39 190.33a1.35 1.35 0 0 0-1-.41 1.9 1.9 0 0 0-.58.09l-.25.09-.18.08a.65.65 0 0 0-.18.19.37.37 0 0 0 .22.54.61.61 0 0 0 .27 0h.35l.23-.05h.21a3.13 3.13 0 0 0 .44-.1h.19a1.45 1.45 0 0 0 .22-.09.11.11 0 0 0 .06-.34Z"/><circle cx="49.58" cy="189.36" r="1.57" fill="#5a2f24"/><circle cx="38.32" cy="199.76" r="1.57" fill="#5a2f24"/><circle cx="61.25" cy="199.76" r="1.57" fill="#5a2f24"/><path fill="#5a2f24" d="M48.87 189.97h1.43v90.36h-1.43z"/><path fill="#5a2f24" d="M36.14 200.88h27.74v1.73H36.14z"/><path fill="#3a362d" d="M47.11 246.68h4.95v33.85h-4.95z"/></svg>