<svg xmlns="http://www.w3.org/2000/svg" xmlns:xlink="http://www.w3.org/1999/xlink" enable-background="new 0 0 10000 5000" viewBox="0 0 10000 5000"><defs><path id="a" d="M2578.008,4130.458c-3.119,6.151-9.946,8.424-15.478,5.282l-193.56-109.71l-1303.954-739.153
					c-4.237-2.407-8.18-5.348-11.652-8.758c-20.48-19.455-27.366-53.016-14.889-81.43c14.595-33.227,50.141-46.732,79.39-30.152
					c0.941,0.602,2.001,1.27,2.943,1.805l1452.846,943.864C2579.302,4115.816,2581.244,4124.04,2578.008,4130.458z"/></defs><defs><path id="b" d="M1033.802,4130.458c3.119,6.151,9.946,8.424,15.478,5.282l193.56-109.71l1303.954-739.153
					c4.237-2.407,8.18-5.348,11.652-8.758c20.48-19.455,27.366-53.016,14.889-81.43c-14.595-33.227-50.14-46.732-79.389-30.152
					c-0.941,0.602-2.001,1.27-2.943,1.805l-1452.846,943.864C1032.507,4115.816,1030.565,4124.04,1033.802,4130.458z"/></defs><ellipse cx="5000" cy="3917.736" fill="#e4e4e4" rx="4481.104" ry="632.264"/><path fill="#fff" d="M1860.292,3735.766c16.429,34.801,28.766,70.478,39.664,106.464
						c11.156,35.93,19.885,72.38,28.145,108.931c7.484,36.717,14.448,73.545,18.996,110.891c4.808,37.29,8.142,74.895,7.353,113.384
						c-16.482-34.79-28.842-70.462-39.726-106.451c-11.145-35.933-19.875-72.383-28.083-108.945
						c-7.433-36.728-14.397-73.555-18.934-110.904C1862.91,3811.844,1859.554,3774.243,1860.292,3735.766z" opacity=".72"/><path fill="#fff" d="M2548.518,3582.856c-1.501,33.719-6.99,66.172-13.884,98.178
						c-6.909,32.002-15.206,63.563-25.105,94.614c-9.759,31.096-21.236,61.647-34.034,91.778
						c-12.829,30.122-27.094,59.786-45.377,88.175c1.45-33.736,6.919-66.195,13.823-98.198
						c6.935-31.993,15.191-63.567,25.165-94.595c9.834-31.073,21.271-61.636,34.095-91.759
						C2516.042,3640.933,2530.285,3611.261,2548.518,3582.856z" opacity=".72"/><path fill="#fff" d="M1236.245,3731.364c-1.501,33.72-6.99,66.172-13.883,98.179
						c-6.909,32.001-15.206,63.562-25.105,94.614c-9.76,31.096-21.236,61.646-34.035,91.777
						c-12.829,30.121-27.094,59.786-45.377,88.175c1.451-33.736,6.919-66.195,13.824-98.198
						c6.935-31.993,15.191-63.567,25.165-94.594c9.834-31.073,21.271-61.636,34.095-91.759
						C1203.768,3789.44,1218.012,3759.769,1236.245,3731.364z" opacity=".72"/><path fill="#fff" d="M3081.677,4061.885c-1.5,33.72-6.99,66.172-13.883,98.178
						c-6.909,32.001-15.206,63.563-25.105,94.614c-9.76,31.097-21.237,61.647-34.034,91.778
						c-12.83,30.121-27.093,59.786-45.377,88.175c1.45-33.736,6.918-66.195,13.823-98.198c6.934-31.993,15.191-63.567,25.164-94.595
						c9.835-31.073,21.271-61.636,34.095-91.758C3049.201,4119.961,3063.445,4090.289,3081.677,4061.885z" opacity=".72"/><path fill="#fff" d="M3368.01,3545.683c19.735,16.392,35.854,34.894,50.704,54.139
						c14.834,19.253,28.411,39.24,40.534,60.075c12.251,20.761,22.946,42.431,32.444,64.8c9.471,22.385,17.638,45.529,22.167,70.8
						c-19.78-16.365-35.919-34.857-50.758-54.108c-14.81-19.267-28.423-39.233-40.48-60.108
						c-12.183-20.8-22.914-42.449-32.388-64.832C3380.772,3594.06,3372.585,3570.926,3368.01,3545.683z" opacity=".72"/><path fill="#fff" d="M3943.712,3911.049c16.43,34.801,28.766,70.478,39.664,106.464
						c11.156,35.93,19.885,72.38,28.146,108.931c7.483,36.717,14.448,73.545,18.995,110.89c4.809,37.291,8.143,74.896,7.354,113.384
						c-16.482-34.79-28.841-70.462-39.726-106.451c-11.146-35.933-19.875-72.383-28.083-108.945
						c-7.433-36.728-14.397-73.556-18.935-110.904C3946.331,3987.127,3942.976,3949.526,3943.712,3911.049z" opacity=".72"/><path fill="#fff" d="M4820.555,3586.678c-1.5,33.719-6.99,66.172-13.883,98.178
						c-6.909,32.001-15.207,63.563-25.105,94.614c-9.76,31.096-21.237,61.647-34.034,91.778
						c-12.83,30.121-27.095,59.786-45.377,88.175c1.45-33.735,6.918-66.195,13.824-98.198c6.934-31.993,15.191-63.567,25.164-94.595
						c9.834-31.072,21.271-61.636,34.095-91.759C4788.079,3644.755,4802.323,3615.083,4820.555,3586.678z" opacity=".72"/><path fill="#fff" d="M5325.003,4164.346c-1.5,33.72-6.99,66.172-13.883,98.179
						c-6.909,32.001-15.207,63.563-25.105,94.614c-9.761,31.096-21.237,61.647-34.035,91.778
						c-12.83,30.121-27.095,59.786-45.377,88.174c1.45-33.735,6.918-66.194,13.824-98.197c6.934-31.993,15.191-63.567,25.164-94.595
						c9.834-31.073,21.271-61.636,34.095-91.759C5292.527,4222.422,5306.771,4192.75,5325.003,4164.346z" opacity=".72"/><path fill="#fff" d="M5684.26,3670.59c19.735,16.392,35.854,34.894,50.702,54.139
						c14.834,19.254,28.411,39.24,40.536,60.076c12.25,20.761,22.946,42.431,32.443,64.8c9.471,22.385,17.639,45.529,22.167,70.799
						c-19.78-16.365-35.92-34.856-50.757-54.107c-14.811-19.267-28.423-39.233-40.481-60.107
						c-12.183-20.801-22.914-42.449-32.388-64.832C5697.022,3718.967,5688.833,3695.833,5684.26,3670.59z" opacity=".72"/><path fill="#fff" d="M6239.807,3769.229c16.43,34.801,28.768,70.478,39.664,106.464
						c11.157,35.93,19.886,72.38,28.146,108.931c7.485,36.717,14.448,73.545,18.996,110.891c4.809,37.29,8.143,74.895,7.354,113.384
						c-16.482-34.79-28.841-70.463-39.726-106.451c-11.144-35.933-19.875-72.383-28.083-108.945
						c-7.433-36.727-14.397-73.556-18.935-110.904C6242.426,3845.307,6239.071,3807.706,6239.807,3769.229z" opacity=".72"/><path fill="#fff" d="M6934.988,3484.217c-1.5,33.719-6.989,66.172-13.882,98.178
						c-6.909,32.001-15.206,63.563-25.105,94.614c-9.76,31.096-21.237,61.647-34.034,91.778
						c-12.83,30.121-27.093,59.786-45.377,88.175c1.45-33.736,6.918-66.195,13.823-98.198c6.935-31.993,15.191-63.567,25.165-94.595
						c9.835-31.072,21.271-61.636,34.095-91.758C6902.513,3542.294,6916.756,3512.622,6934.988,3484.217z" opacity=".72"/><path fill="#fff" d="M7439.437,3944.511c-1.5,33.719-6.99,66.172-13.883,98.178
						c-6.909,32.001-15.206,63.563-25.105,94.614c-9.76,31.096-21.237,61.646-34.034,91.777
						c-12.83,30.122-27.093,59.787-45.377,88.175c1.45-33.735,6.918-66.194,13.824-98.197c6.934-31.994,15.191-63.567,25.164-94.595
						c9.835-31.072,21.271-61.635,34.095-91.758C7406.96,4002.587,7421.205,3972.916,7439.437,3944.511z" opacity=".72"/><path fill="#fff" d="M7880.411,3648.144c19.733,16.392,35.854,34.895,50.702,54.14
						c14.833,19.253,28.411,39.24,40.534,60.076c12.252,20.761,22.946,42.431,32.443,64.8c9.471,22.385,17.641,45.529,22.168,70.8
						c-19.782-16.366-35.92-34.857-50.758-54.108c-14.81-19.267-28.425-39.233-40.48-60.108
						c-12.184-20.801-22.916-42.449-32.39-64.832C7893.171,3696.521,7884.984,3673.387,7880.411,3648.144z" opacity=".72"/><path fill="#fff" d="M8632.18,4000.058c-6.039,21.345-15.323,40.05-25.753,57.826
						c-10.441,17.766-22.013,34.613-34.889,50.4c-12.762,15.879-26.923,30.622-42.159,44.49
						c-15.261,13.848-31.69,26.746-51.394,36.984c5.997-21.378,15.266-40.098,25.704-57.866c10.463-17.748,22-34.622,34.937-50.359
						c12.823-15.83,26.95-30.599,42.21-44.45C8596.105,4023.241,8612.518,4010.329,8632.18,4000.058z" opacity=".72"/><g><path fill="#f5dd7e" d="M8017.078,1852.652v915.26c0,127.405-89.623,230.501-200.04,230.501H2137.153
					c-110.709,0-200.038-103.095-200.038-230.501v-915.26c0-41.003,3.808-107.194,14.936-182.466
					c36.904-255.393,244.852-429.659,467.735-396.563h5114.621c222.884-33.096,430.539,141.17,467.441,396.563
					C8012.977,1745.458,8017.078,1811.65,8017.078,1852.652z"/><path fill="#0f0d0b" d="M8017.078,1852.652v915.26c0,127.405-89.623,230.501-200.04,230.501H2137.153
					c-110.709,0-200.038-103.095-200.038-230.501v-281.167c1064.923-48.911,5621.309-277.36,5711.224-619.156
					c67.947-257.737-281.462-476.52-522.798-593.966h408.866c222.884-33.096,430.539,141.17,467.441,396.563
					C8012.977,1745.458,8017.078,1811.65,8017.078,1852.652z" opacity=".25"/><path fill="#e69724" d="M7874.526,2789.218v698.966H2040.523v-698.966l2153.574-107.057
					c505.419-25.125,1012.492-25.164,1517.917-0.115L7874.526,2789.218z"/><path fill="#f5dd7e" d="M4796.635,2994.299H2055.887c-67.592,0-122.386,54.794-122.386,122.386v210.678
					c0,67.592,54.794,122.386,122.386,122.386h2740.748c67.592,0,122.386-54.794,122.386-122.386v-210.678
					C4919.021,3049.094,4864.227,2994.299,4796.635,2994.299z"/><path fill="#f5dd7e" d="M5049.833,2994.299h2804.804c68.344,0,123.748,55.404,123.748,123.747v207.956
					c0,68.344-55.404,123.747-123.748,123.747H5049.833c-68.343,0-123.747-55.404-123.747-123.747v-207.956
					C4926.086,3049.703,4981.49,2994.299,5049.833,2994.299z"/><rect width="6079.936" height="234.542" x="1937.021" y="3427.163" fill="#f3d657"/><g opacity=".69"><path fill="#0f0d0b" d="M2534.41,1526.213c-2.995,11.699-5.512,23.235-7.554,34.793
							c-1.928,11.57-3.373,23.131-3.833,34.703l-0.312,8.678l0.287,8.66c-0.078,2.908,0.323,5.763,0.574,8.644
							c0.355,2.863,0.362,5.8,0.94,8.632c1.382,11.588,4.77,22.698,8.259,34.337c-7.106-9.691-12.866-20.842-15.776-32.807
							c-3.039-11.896-4.431-24.307-3.788-36.567c0.683-12.252,2.654-24.397,6.213-36.044
							C2522.957,1547.618,2527.673,1536.303,2534.41,1526.213z"/><path fill="#0f0d0b" d="M2532.95,1664.659c-2.995,11.698-5.512,23.235-7.554,34.793
							c-1.928,11.57-3.373,23.131-3.833,34.703l-0.312,8.677l0.286,8.66c-0.078,2.908,0.323,5.762,0.575,8.644
							c0.355,2.863,0.362,5.8,0.94,8.632c1.383,11.588,4.77,22.697,8.259,34.337c-7.106-9.691-12.866-20.842-15.776-32.807
							c-3.039-11.896-4.431-24.307-3.788-36.567c0.683-12.253,2.654-24.397,6.213-36.044
							C2521.497,1686.064,2526.214,1674.749,2532.95,1664.659z"/><path fill="#0f0d0b" d="M2670.675,1679.211c-11.376-4.052-22.634-7.613-33.957-10.703
							c-11.345-2.978-22.726-5.474-34.208-6.989l-8.613-1.104l-8.65-0.506c-2.889-0.343-5.768-0.205-8.66-0.218
							c-2.883,0.092-5.809-0.17-8.681,0.147c-11.666,0.317-23.039,2.675-34.948,5.085c10.3-6.19,21.931-10.907,34.112-12.711
							c12.124-1.939,24.61-2.191,36.76-0.43c12.139,1.8,24.052,4.873,35.326,9.482
							C2650.406,1665.849,2661.243,1671.58,2670.675,1679.211z"/><path fill="#0f0d0b" d="M2532.942,1665.101c-11.375-4.052-22.633-7.613-33.957-10.703
							c-11.345-2.978-22.726-5.474-34.208-6.989l-8.613-1.103l-8.65-0.506c-2.889-0.343-5.768-0.205-8.66-0.218
							c-2.883,0.092-5.809-0.17-8.682,0.147c-11.666,0.317-23.038,2.675-34.948,5.085c10.3-6.19,21.931-10.907,34.112-12.71
							c12.124-1.939,24.61-2.191,36.76-0.43c12.139,1.8,24.052,4.873,35.325,9.482
							C2512.673,1651.74,2523.51,1657.47,2532.942,1665.101z"/></g><g opacity=".69"><path fill="#0f0d0b" d="M3778.829,1526.213c-2.995,11.699-5.512,23.235-7.554,34.793
							c-1.928,11.57-3.373,23.131-3.833,34.703l-0.312,8.678l0.286,8.66c-0.078,2.908,0.323,5.763,0.575,8.644
							c0.355,2.863,0.362,5.8,0.94,8.632c1.382,11.588,4.77,22.698,8.259,34.337c-7.106-9.691-12.866-20.842-15.776-32.807
							c-3.039-11.896-4.431-24.307-3.788-36.567c0.683-12.252,2.654-24.397,6.213-36.044
							C3767.376,1547.618,3772.093,1536.303,3778.829,1526.213z"/><path fill="#0f0d0b" d="M3777.37,1664.659c-2.995,11.698-5.512,23.235-7.554,34.793
							c-1.928,11.57-3.374,23.131-3.833,34.703l-0.312,8.677l0.286,8.66c-0.078,2.908,0.323,5.762,0.575,8.644
							c0.355,2.863,0.362,5.8,0.94,8.632c1.383,11.588,4.77,22.697,8.259,34.337c-7.106-9.691-12.867-20.842-15.776-32.807
							c-3.039-11.896-4.431-24.307-3.788-36.567c0.683-12.253,2.653-24.397,6.213-36.044
							C3765.917,1686.064,3770.633,1674.749,3777.37,1664.659z"/><path fill="#0f0d0b" d="M3915.094,1679.211c-11.376-4.052-22.634-7.613-33.957-10.703
							c-11.345-2.978-22.726-5.474-34.208-6.989l-8.613-1.104l-8.65-0.506c-2.889-0.343-5.768-0.205-8.66-0.218
							c-2.883,0.092-5.809-0.17-8.681,0.147c-11.666,0.317-23.039,2.675-34.948,5.085c10.3-6.19,21.931-10.907,34.112-12.711
							c12.124-1.939,24.61-2.191,36.76-0.43c12.139,1.8,24.052,4.873,35.325,9.482
							C3894.826,1665.849,3905.663,1671.58,3915.094,1679.211z"/><path fill="#0f0d0b" d="M3777.361,1665.101c-11.376-4.052-22.634-7.613-33.957-10.703
							c-11.345-2.978-22.726-5.474-34.208-6.989l-8.613-1.103l-8.65-0.506c-2.889-0.343-5.768-0.205-8.66-0.218
							c-2.883,0.092-5.808-0.17-8.681,0.147c-11.666,0.317-23.039,2.675-34.948,5.085c10.3-6.19,21.931-10.907,34.112-12.71
							c12.124-1.939,24.61-2.191,36.76-0.43c12.139,1.8,24.052,4.873,35.326,9.482
							C3757.093,1651.74,3767.929,1657.47,3777.361,1665.101z"/></g><g opacity=".69"><path fill="#0f0d0b" d="M5023.249,1526.213c-2.995,11.699-5.512,23.235-7.554,34.793
							c-1.928,11.57-3.374,23.131-3.833,34.703l-0.312,8.678l0.287,8.66c-0.078,2.908,0.323,5.763,0.574,8.644
							c0.355,2.863,0.362,5.8,0.94,8.632c1.382,11.588,4.77,22.698,8.258,34.337c-7.106-9.691-12.866-20.842-15.775-32.807
							c-3.04-11.896-4.432-24.307-3.788-36.567c0.683-12.252,2.653-24.397,6.213-36.044
							C5011.796,1547.618,5016.512,1536.303,5023.249,1526.213z"/><path fill="#0f0d0b" d="M5021.789,1664.659c-2.996,11.698-5.512,23.235-7.554,34.793
							c-1.928,11.57-3.374,23.131-3.833,34.703l-0.312,8.677l0.287,8.66c-0.078,2.908,0.323,5.762,0.574,8.644
							c0.355,2.863,0.362,5.8,0.94,8.632c1.382,11.588,4.77,22.697,8.258,34.337c-7.106-9.691-12.866-20.842-15.775-32.807
							c-3.04-11.896-4.432-24.307-3.788-36.567c0.683-12.253,2.653-24.397,6.213-36.044
							C5010.336,1686.064,5015.052,1674.749,5021.789,1664.659z"/><path fill="#0f0d0b" d="M5159.514,1679.211c-11.375-4.052-22.633-7.613-33.957-10.703
							c-11.345-2.978-22.726-5.474-34.208-6.989l-8.613-1.104l-8.65-0.506c-2.889-0.343-5.768-0.205-8.66-0.218
							c-2.883,0.092-5.809-0.17-8.682,0.147c-11.666,0.317-23.038,2.675-34.948,5.085c10.3-6.19,21.931-10.907,34.111-12.711
							c12.124-1.939,24.61-2.191,36.76-0.43c12.139,1.8,24.052,4.873,35.326,9.482
							C5139.245,1665.849,5150.082,1671.58,5159.514,1679.211z"/><path fill="#0f0d0b" d="M5021.781,1665.101c-11.375-4.052-22.634-7.613-33.957-10.703
							c-11.345-2.978-22.726-5.474-34.208-6.989l-8.613-1.103l-8.65-0.506c-2.889-0.343-5.768-0.205-8.66-0.218
							c-2.883,0.092-5.808-0.17-8.681,0.147c-11.666,0.317-23.039,2.675-34.948,5.085c10.3-6.19,21.931-10.907,34.112-12.71
							c12.124-1.939,24.61-2.191,36.76-0.43c12.139,1.8,24.052,4.873,35.326,9.482
							C5001.512,1651.74,5012.349,1657.47,5021.781,1665.101z"/></g><g opacity=".69"><path fill="#0f0d0b" d="M6267.668,1526.213c-2.996,11.699-5.512,23.235-7.554,34.793
							c-1.929,11.57-3.374,23.131-3.833,34.703l-0.312,8.678l0.286,8.66c-0.078,2.908,0.324,5.763,0.575,8.644
							c0.355,2.863,0.362,5.8,0.94,8.632c1.382,11.588,4.77,22.698,8.258,34.337c-7.106-9.691-12.866-20.842-15.775-32.807
							c-3.04-11.896-4.432-24.307-3.788-36.567c0.683-12.252,2.653-24.397,6.213-36.044
							C6256.215,1547.618,6260.931,1536.303,6267.668,1526.213z"/><path fill="#0f0d0b" d="M6266.208,1664.659c-2.996,11.698-5.512,23.235-7.554,34.793
							c-1.929,11.57-3.374,23.131-3.833,34.703l-0.312,8.677l0.286,8.66c-0.078,2.908,0.324,5.762,0.575,8.644
							c0.355,2.863,0.362,5.8,0.94,8.632c1.382,11.588,4.77,22.697,8.258,34.337c-7.106-9.691-12.867-20.842-15.775-32.807
							c-3.04-11.896-4.432-24.307-3.788-36.567c0.683-12.253,2.653-24.397,6.213-36.044
							C6254.755,1686.064,6259.472,1674.749,6266.208,1664.659z"/><path fill="#0f0d0b" d="M6403.933,1679.211c-11.375-4.052-22.633-7.613-33.957-10.703
							c-11.345-2.978-22.726-5.474-34.208-6.989l-8.613-1.104l-8.65-0.506c-2.889-0.343-5.768-0.205-8.66-0.218
							c-2.883,0.092-5.809-0.17-8.682,0.147c-11.666,0.317-23.039,2.675-34.948,5.085c10.3-6.19,21.931-10.907,34.112-12.711
							c12.124-1.939,24.61-2.191,36.76-0.43c12.139,1.8,24.052,4.873,35.326,9.482
							C6383.665,1665.849,6394.501,1671.58,6403.933,1679.211z"/><path fill="#0f0d0b" d="M6266.2,1665.101c-11.376-4.052-22.634-7.613-33.957-10.703
							c-11.345-2.978-22.726-5.474-34.208-6.989l-8.613-1.103l-8.65-0.506c-2.889-0.343-5.768-0.205-8.66-0.218
							c-2.883,0.092-5.809-0.17-8.681,0.147c-11.666,0.317-23.039,2.675-34.948,5.085c10.3-6.19,21.931-10.907,34.112-12.71
							c12.124-1.939,24.61-2.191,36.76-0.43c12.139,1.8,24.052,4.873,35.326,9.482
							C6245.932,1651.74,6256.768,1657.47,6266.2,1665.101z"/></g><g opacity=".69"><path fill="#0f0d0b" d="M7512.087,1526.213c-2.996,11.699-5.512,23.235-7.554,34.793
							c-1.929,11.57-3.374,23.131-3.833,34.703l-0.312,8.678l0.286,8.66c-0.078,2.908,0.324,5.763,0.575,8.644
							c0.355,2.863,0.362,5.8,0.94,8.632c1.382,11.588,4.77,22.698,8.258,34.337c-7.106-9.691-12.866-20.842-15.775-32.807
							c-3.04-11.896-4.432-24.307-3.788-36.567c0.683-12.252,2.653-24.397,6.212-36.044
							C7500.634,1547.618,7505.351,1536.303,7512.087,1526.213z"/><path fill="#0f0d0b" d="M7510.628,1664.659c-2.996,11.698-5.512,23.235-7.554,34.793
							c-1.929,11.57-3.374,23.131-3.833,34.703l-0.312,8.677l0.286,8.66c-0.078,2.908,0.323,5.762,0.575,8.644
							c0.355,2.863,0.362,5.8,0.94,8.632c1.382,11.588,4.77,22.697,8.259,34.337c-7.106-9.691-12.867-20.842-15.776-32.807
							c-3.039-11.896-4.431-24.307-3.788-36.567c0.683-12.253,2.654-24.397,6.213-36.044
							C7499.175,1686.064,7503.891,1674.749,7510.628,1664.659z"/><path fill="#0f0d0b" d="M7648.353,1679.211c-11.375-4.052-22.633-7.613-33.957-10.703
							c-11.345-2.978-22.726-5.474-34.208-6.989l-8.613-1.104l-8.65-0.506c-2.889-0.343-5.768-0.205-8.66-0.218
							c-2.883,0.092-5.809-0.17-8.682,0.147c-11.666,0.317-23.039,2.675-34.948,5.085c10.3-6.19,21.931-10.907,34.112-12.711
							c12.124-1.939,24.61-2.191,36.76-0.43c12.139,1.8,24.052,4.873,35.326,9.482
							C7628.084,1665.849,7638.921,1671.58,7648.353,1679.211z"/><path fill="#0f0d0b" d="M7510.62,1665.101c-11.376-4.052-22.634-7.613-33.957-10.703
							c-11.345-2.978-22.726-5.474-34.208-6.989l-8.613-1.103l-8.65-0.506c-2.889-0.343-5.768-0.205-8.66-0.218
							c-2.883,0.092-5.809-0.17-8.681,0.147c-11.666,0.317-23.039,2.675-34.948,5.085c10.3-6.19,21.931-10.907,34.112-12.71
							c12.124-1.939,24.61-2.191,36.76-0.43c12.139,1.8,24.052,4.873,35.325,9.482
							C7490.351,1651.74,7501.188,1657.47,7510.62,1665.101z"/></g><g opacity=".69"><path fill="#0f0d0b" d="M3225.486,2036.104c-2.995,11.698-5.512,23.235-7.554,34.793
							c-1.928,11.57-3.373,23.131-3.833,34.703l-0.311,8.678l0.286,8.66c-0.078,2.908,0.323,5.762,0.574,8.644
							c0.355,2.863,0.362,5.8,0.94,8.632c1.382,11.588,4.77,22.698,8.259,34.337c-7.106-9.691-12.867-20.842-15.776-32.807
							c-3.039-11.896-4.431-24.307-3.788-36.567c0.683-12.253,2.654-24.397,6.213-36.044
							C3214.033,2057.51,3218.749,2046.194,3225.486,2036.104z"/><path fill="#0f0d0b" d="M3224.026,2174.55c-2.995,11.698-5.512,23.235-7.554,34.793
							c-1.928,11.57-3.373,23.131-3.833,34.703l-0.312,8.677l0.287,8.66c-0.078,2.908,0.323,5.762,0.574,8.644
							c0.355,2.863,0.362,5.8,0.94,8.632c1.382,11.588,4.77,22.698,8.259,34.337c-7.106-9.691-12.867-20.842-15.776-32.807
							c-3.039-11.896-4.431-24.307-3.788-36.567c0.683-12.252,2.654-24.397,6.213-36.044
							C3212.574,2195.956,3217.29,2184.64,3224.026,2174.55z"/><path fill="#0f0d0b" d="M3361.751,2189.102c-11.376-4.052-22.634-7.613-33.957-10.703
							c-11.345-2.978-22.726-5.474-34.208-6.989l-8.613-1.104l-8.65-0.506c-2.889-0.344-5.768-0.205-8.66-0.218
							c-2.883,0.092-5.809-0.17-8.681,0.147c-11.666,0.317-23.039,2.675-34.948,5.085c10.3-6.19,21.931-10.908,34.112-12.711
							c12.124-1.939,24.61-2.191,36.76-0.43c12.139,1.8,24.052,4.873,35.326,9.482
							C3341.483,2175.74,3352.319,2181.471,3361.751,2189.102z"/><path fill="#0f0d0b" d="M3224.018,2174.993c-11.376-4.052-22.634-7.613-33.957-10.703
							c-11.345-2.978-22.726-5.474-34.208-6.989l-8.613-1.104l-8.65-0.506c-2.889-0.343-5.768-0.205-8.66-0.218
							c-2.883,0.092-5.809-0.17-8.682,0.147c-11.666,0.317-23.038,2.675-34.948,5.085c10.3-6.19,21.931-10.907,34.112-12.711
							c12.124-1.939,24.61-2.191,36.76-0.429c12.139,1.8,24.052,4.873,35.325,9.482
							C3203.75,2161.631,3214.586,2167.362,3224.018,2174.993z"/></g><g opacity=".69"><path fill="#0f0d0b" d="M4469.905,2036.104c-2.995,11.698-5.512,23.235-7.554,34.793
							c-1.928,11.57-3.374,23.131-3.833,34.703l-0.312,8.678l0.287,8.66c-0.078,2.908,0.323,5.762,0.575,8.644
							c0.355,2.863,0.361,5.8,0.94,8.632c1.382,11.588,4.77,22.698,8.259,34.337c-7.106-9.691-12.867-20.842-15.776-32.807
							c-3.04-11.896-4.431-24.307-3.788-36.567c0.683-12.253,2.653-24.397,6.213-36.044
							C4458.453,2057.51,4463.168,2046.194,4469.905,2036.104z"/><path fill="#0f0d0b" d="M4468.446,2174.55c-2.995,11.698-5.512,23.235-7.554,34.793
							c-1.928,11.57-3.374,23.131-3.833,34.703l-0.312,8.677l0.287,8.66c-0.078,2.908,0.323,5.762,0.574,8.644
							c0.355,2.863,0.362,5.8,0.94,8.632c1.382,11.588,4.77,22.698,8.259,34.337c-7.106-9.691-12.867-20.842-15.776-32.807
							c-3.04-11.896-4.431-24.307-3.788-36.567c0.683-12.252,2.653-24.397,6.213-36.044
							C4456.993,2195.956,4461.709,2184.64,4468.446,2174.55z"/><path fill="#0f0d0b" d="M4606.171,2189.102c-11.376-4.052-22.634-7.613-33.957-10.703
							c-11.345-2.978-22.726-5.474-34.208-6.989l-8.613-1.104l-8.65-0.506c-2.889-0.344-5.768-0.205-8.66-0.218
							c-2.883,0.092-5.809-0.17-8.681,0.147c-11.666,0.317-23.039,2.675-34.948,5.085c10.3-6.19,21.931-10.908,34.112-12.711
							c12.124-1.939,24.61-2.191,36.76-0.43c12.139,1.8,24.052,4.873,35.325,9.482
							C4585.902,2175.74,4596.739,2181.471,4606.171,2189.102z"/><path fill="#0f0d0b" d="M4468.438,2174.993c-11.375-4.052-22.633-7.613-33.957-10.703
							c-11.345-2.978-22.726-5.474-34.208-6.989l-8.613-1.104l-8.65-0.506c-2.889-0.343-5.768-0.205-8.66-0.218
							c-2.883,0.092-5.809-0.17-8.682,0.147c-11.666,0.317-23.039,2.675-34.948,5.085c10.3-6.19,21.931-10.907,34.112-12.711
							c12.124-1.939,24.61-2.191,36.76-0.429c12.139,1.8,24.052,4.873,35.326,9.482
							C4448.169,2161.631,4459.006,2167.362,4468.438,2174.993z"/></g><g opacity=".69"><path fill="#0f0d0b" d="M5714.325,2036.104c-2.995,11.698-5.512,23.235-7.554,34.793
							c-1.928,11.57-3.374,23.131-3.833,34.703l-0.312,8.678l0.287,8.66c-0.078,2.908,0.323,5.762,0.574,8.644
							c0.355,2.863,0.362,5.8,0.94,8.632c1.382,11.588,4.77,22.698,8.259,34.337c-7.106-9.691-12.867-20.842-15.776-32.807
							c-3.04-11.896-4.431-24.307-3.788-36.567c0.683-12.253,2.653-24.397,6.213-36.044
							C5702.872,2057.51,5707.588,2046.194,5714.325,2036.104z"/><path fill="#0f0d0b" d="M5712.865,2174.55c-2.995,11.698-5.512,23.235-7.554,34.793
							c-1.928,11.57-3.374,23.131-3.833,34.703l-0.312,8.677l0.287,8.66c-0.078,2.908,0.323,5.762,0.574,8.644
							c0.355,2.863,0.362,5.8,0.94,8.632c1.382,11.588,4.77,22.698,8.258,34.337c-7.106-9.691-12.866-20.842-15.775-32.807
							c-3.04-11.896-4.432-24.307-3.788-36.567c0.683-12.252,2.653-24.397,6.213-36.044
							C5701.413,2195.956,5706.128,2184.64,5712.865,2174.55z"/><path fill="#0f0d0b" d="M5850.59,2189.102c-11.376-4.052-22.634-7.613-33.957-10.703
							c-11.345-2.978-22.726-5.474-34.208-6.989l-8.613-1.104l-8.65-0.506c-2.889-0.344-5.768-0.205-8.66-0.218
							c-2.883,0.092-5.809-0.17-8.682,0.147c-11.666,0.317-23.038,2.675-34.948,5.085c10.3-6.19,21.931-10.908,34.112-12.711
							c12.124-1.939,24.61-2.191,36.76-0.43c12.139,1.8,24.052,4.873,35.325,9.482
							C5830.321,2175.74,5841.158,2181.471,5850.59,2189.102z"/><path fill="#0f0d0b" d="M5712.857,2174.993c-11.375-4.052-22.633-7.613-33.957-10.703
							c-11.345-2.978-22.726-5.474-34.208-6.989l-8.613-1.104l-8.65-0.506c-2.889-0.343-5.768-0.205-8.66-0.218
							c-2.883,0.092-5.809-0.17-8.682,0.147c-11.666,0.317-23.039,2.675-34.948,5.085c10.3-6.19,21.931-10.907,34.112-12.711
							c12.124-1.939,24.61-2.191,36.76-0.429c12.139,1.8,24.052,4.873,35.326,9.482
							C5692.588,2161.631,5703.425,2167.362,5712.857,2174.993z"/></g><g opacity=".69"><path fill="#0f0d0b" d="M6958.744,2036.104c-2.995,11.698-5.512,23.235-7.554,34.793
							c-1.928,11.57-3.374,23.131-3.833,34.703l-0.312,8.678l0.287,8.66c-0.078,2.908,0.323,5.762,0.574,8.644
							c0.355,2.863,0.362,5.8,0.94,8.632c1.382,11.588,4.77,22.698,8.258,34.337c-7.106-9.691-12.866-20.842-15.775-32.807
							c-3.04-11.896-4.432-24.307-3.788-36.567c0.683-12.253,2.653-24.397,6.213-36.044
							C6947.292,2057.51,6952.007,2046.194,6958.744,2036.104z"/><path fill="#0f0d0b" d="M6957.285,2174.55c-2.996,11.698-5.512,23.235-7.554,34.793
							c-1.928,11.57-3.374,23.131-3.833,34.703l-0.312,8.677l0.286,8.66c-0.078,2.908,0.324,5.762,0.575,8.644
							c0.355,2.863,0.362,5.8,0.94,8.632c1.382,11.588,4.77,22.698,8.258,34.337c-7.106-9.691-12.866-20.842-15.775-32.807
							c-3.04-11.896-4.432-24.307-3.788-36.567c0.683-12.252,2.653-24.397,6.213-36.044
							C6945.832,2195.956,6950.548,2184.64,6957.285,2174.55z"/><path fill="#0f0d0b" d="M7095.009,2189.102c-11.375-4.052-22.633-7.613-33.957-10.703
							c-11.345-2.978-22.726-5.474-34.208-6.989l-8.613-1.104l-8.65-0.506c-2.889-0.344-5.768-0.205-8.66-0.218
							c-2.883,0.092-5.809-0.17-8.682,0.147c-11.666,0.317-23.038,2.675-34.948,5.085c10.3-6.19,21.931-10.908,34.112-12.711
							c12.124-1.939,24.61-2.191,36.76-0.43c12.139,1.8,24.052,4.873,35.325,9.482
							C7074.741,2175.74,7085.578,2181.471,7095.009,2189.102z"/><path fill="#0f0d0b" d="M6957.276,2174.993c-11.375-4.052-22.634-7.613-33.957-10.703
							c-11.345-2.978-22.726-5.474-34.208-6.989l-8.613-1.104l-8.65-0.506c-2.889-0.343-5.768-0.205-8.66-0.218
							c-2.883,0.092-5.808-0.17-8.681,0.147c-11.666,0.317-23.039,2.675-34.948,5.085c10.3-6.19,21.931-10.907,34.112-12.711
							c12.124-1.939,24.61-2.191,36.76-0.429c12.139,1.8,24.052,4.873,35.326,9.482
							C6937.008,2161.631,6947.845,2167.362,6957.276,2174.993z"/></g><rect width="407.127" height="1354.838" x="1724.714" y="2306.868" fill="#f3d657"/><g><path fill="#f3d657" d="M2131.808,2533.685v454.192c-46.107,0-139.065-0.186-177.55,0
						c-24.727-25.84-55.403-99.835-77.527-130.7c-30.118-41.831-60.051-83.476-89.426-126.236
						c-58.378-84.59-114.71-172.345-167.138-266.417c-51.685-93.144-100.952-192.425-139.437-300.813
						c-41.646-116.94-71.578-248.57-68.789-384.29c1.488-78.642,11.713-167.883,42.947-245.781
						c19.335-48.152,46.479-92.028,84.592-126.238c75.668-67.858,187.032-76.967,276.271-31.977
						c70.649,35.883,135.72,96.675,187.218,181.64c40.159,66.187,71.578,145.016,93.516,229.792
						c8.738,32.907,15.989,66.929,21.752,101.512c3.719,21.192,7.808,43.318,8.924,65.443c3.532,68.416,2.603,137.948,3.161,206.55
						c0.371,48.712,0.557,97.606,0.743,146.504c0.372,41.459,0.557,83.104,0.557,124.749
						C2131.808,2465.639,2131.808,2499.661,2131.808,2533.685z"/><path fill="#0f0d0b" d="M2131.064,2306.868c-247.268-715.591-562.582-776.572-676.177-773.227
						c19.335-48.152,46.479-92.028,84.592-126.238c75.668-67.858,187.032-76.967,276.271-31.977
						c70.649,35.883,135.72,96.675,187.218,181.64c40.159,66.187,71.578,145.016,93.516,229.792
						c8.738,32.907,15.989,66.929,21.752,101.512c3.719,21.192,7.808,43.318,8.924,65.443c3.532,68.416,2.603,137.948,3.161,206.55
						C2130.692,2209.076,2130.878,2257.969,2131.064,2306.868z" opacity=".25"/><g opacity=".69"><path fill="#0f0d0b" d="M1726.094,1802.417c-2.818,11.004-5.185,21.855-7.106,32.728
							c-1.814,10.883-3.173,21.758-3.605,32.644l-0.293,8.162l0.269,8.146c-0.073,2.735,0.304,5.42,0.54,8.13
							c0.334,2.693,0.34,5.455,0.884,8.119c1.3,10.9,4.486,21.35,7.768,32.299c-6.684-9.116-12.103-19.605-14.839-30.86
							c-2.859-11.189-4.168-22.864-3.563-34.396c0.642-11.525,2.496-22.948,5.844-33.905
							C1715.321,1822.552,1719.757,1811.908,1726.094,1802.417z"/><path fill="#0f0d0b" d="M1724.721,1932.646c-2.818,11.004-5.185,21.855-7.106,32.728
							c-1.814,10.883-3.173,21.758-3.605,32.644l-0.293,8.162l0.269,8.146c-0.073,2.735,0.304,5.421,0.541,8.13
							c0.334,2.693,0.34,5.455,0.884,8.119c1.3,10.9,4.486,21.35,7.768,32.299c-6.684-9.116-12.103-19.605-14.839-30.86
							c-2.859-11.19-4.168-22.864-3.563-34.397c0.643-11.525,2.496-22.948,5.844-33.905
							C1713.948,1952.78,1718.385,1942.137,1724.721,1932.646z"/><path fill="#0f0d0b" d="M1854.271,1946.333c-10.7-3.812-21.29-7.161-31.941-10.068
							c-10.672-2.801-21.377-5.149-32.177-6.574l-8.101-1.038l-8.137-0.476c-2.717-0.323-5.426-0.193-8.146-0.205
							c-2.712,0.086-5.464-0.16-8.166,0.138c-10.973,0.298-21.671,2.516-32.874,4.783c9.689-5.823,20.629-10.26,32.087-11.956
							c11.404-1.824,23.149-2.061,34.578-0.404c11.418,1.693,22.624,4.583,33.229,8.919
							C1835.205,1933.765,1845.399,1939.156,1854.271,1946.333z"/><path fill="#0f0d0b" d="M1724.714,1933.062c-10.701-3.812-21.29-7.161-31.941-10.068
							c-10.672-2.801-21.377-5.149-32.177-6.574l-8.102-1.038l-8.137-0.476c-2.717-0.323-5.426-0.193-8.146-0.205
							c-2.712,0.086-5.464-0.16-8.166,0.138c-10.973,0.298-21.671,2.516-32.874,4.783c9.689-5.823,20.629-10.26,32.087-11.956
							c11.404-1.824,23.149-2.061,34.578-0.404c11.418,1.693,22.624,4.583,33.229,8.919
							C1705.648,1920.493,1715.841,1925.884,1724.714,1933.062z"/></g></g><rect width="407.127" height="1354.838" x="7868.159" y="2306.868" fill="#f3d657"/><g><path fill="#f3d657" d="M7868.192,2533.685v454.192c46.107,0,139.065-0.186,177.55,0
						c24.727-25.84,55.403-99.835,77.527-130.7c30.118-41.831,60.05-83.476,89.425-126.236
						c58.378-84.59,114.71-172.345,167.139-266.417c51.686-93.144,100.952-192.425,139.438-300.813
						c41.646-116.94,71.578-248.57,68.789-384.29c-1.488-78.642-11.713-167.883-42.947-245.781
						c-19.335-48.152-46.479-92.028-84.591-126.238c-75.669-67.858-187.032-76.967-276.271-31.977
						c-70.649,35.883-135.72,96.675-187.218,181.64c-40.159,66.187-71.579,145.016-93.517,229.792
						c-8.737,32.907-15.988,66.929-21.752,101.512c-3.718,21.192-7.808,43.318-8.923,65.443
						c-3.532,68.416-2.603,137.948-3.162,206.55c-0.371,48.712-0.557,97.606-0.743,146.504
						c-0.372,41.459-0.557,83.104-0.557,124.749C7868.192,2465.639,7868.192,2499.661,7868.192,2533.685z"/><path fill="#0f0d0b" d="M7868.936,2306.868c247.269-715.591,562.583-776.572,676.177-773.227
						c-19.335-48.152-46.479-92.028-84.591-126.238c-75.669-67.858-187.032-76.967-276.271-31.977
						c-70.649,35.883-135.72,96.675-187.218,181.64c-40.159,66.187-71.579,145.016-93.517,229.792
						c-8.737,32.907-15.988,66.929-21.752,101.512c-3.718,21.192-7.808,43.318-8.923,65.443
						c-3.532,68.416-2.603,137.948-3.162,206.55C7869.308,2209.076,7869.122,2257.969,7868.936,2306.868z" opacity=".25"/><g opacity=".69"><path fill="#0f0d0b" d="M8273.906,1802.417c2.817,11.004,5.185,21.855,7.105,32.728
							c1.813,10.883,3.173,21.758,3.605,32.644l0.293,8.162l-0.27,8.146c0.073,2.735-0.305,5.42-0.541,8.13
							c-0.334,2.693-0.34,5.455-0.884,8.119c-1.301,10.9-4.487,21.35-7.769,32.299c6.684-9.116,12.103-19.605,14.839-30.86
							c2.859-11.189,4.169-22.864,3.563-34.396c-0.643-11.525-2.496-22.948-5.844-33.905
							C8284.679,1822.552,8280.242,1811.908,8273.906,1802.417z"/><path fill="#0f0d0b" d="M8275.278,1932.646c2.818,11.004,5.186,21.855,7.106,32.728
							c1.813,10.883,3.173,21.758,3.604,32.644l0.293,8.162l-0.269,8.146c0.072,2.735-0.305,5.421-0.541,8.13
							c-0.334,2.693-0.34,5.455-0.884,8.119c-1.301,10.9-4.487,21.35-7.769,32.299c6.684-9.116,12.103-19.605,14.839-30.86
							c2.859-11.19,4.168-22.864,3.563-34.397c-0.643-11.525-2.496-22.948-5.845-33.905
							C8286.052,1952.78,8281.615,1942.137,8275.278,1932.646z"/><path fill="#0f0d0b" d="M8145.729,1946.333c10.701-3.812,21.29-7.161,31.941-10.068
							c10.671-2.801,21.376-5.149,32.177-6.574l8.102-1.038l8.137-0.476c2.717-0.323,5.425-0.193,8.146-0.205
							c2.712,0.086,5.464-0.16,8.166,0.138c10.973,0.298,21.671,2.516,32.874,4.783c-9.689-5.823-20.629-10.26-32.087-11.956
							c-11.404-1.824-23.149-2.061-34.578-0.404c-11.419,1.693-22.625,4.583-33.229,8.919
							C8164.795,1933.765,8154.601,1939.156,8145.729,1946.333z"/><path fill="#0f0d0b" d="M8275.286,1933.062c10.701-3.812,21.29-7.161,31.941-10.068
							c10.672-2.801,21.377-5.149,32.178-6.574l8.101-1.038l8.137-0.476c2.718-0.323,5.426-0.193,8.146-0.205
							c2.712,0.086,5.464-0.16,8.166,0.138c10.973,0.298,21.671,2.516,32.873,4.783c-9.688-5.823-20.629-10.26-32.087-11.956
							c-11.403-1.824-23.148-2.061-34.578-0.404c-11.418,1.693-22.624,4.583-33.229,8.919
							C8294.353,1920.493,8284.158,1925.884,8275.286,1933.062z"/></g></g><g><path fill="#d9dade" d="M1706.695,1713.931c-1.097,102.956,33.78,363.385,102.471,392.068
							c58.334,24.325,616.146-36.692,792.564-106.468c31.17-12.28,50.497-24.865,52.961-37.283
							c14.042-70-40.757-195.917-106.513-334.803s-5.608-338.67-71.918-433.905c-48.596-69.699-269.547,89.865-453.877,86.857
							c-180.033-2.938-374.349,7.452-415.265,49.672c-4.306,4.45-6.927,9.368-7.658,14.539
							C1583.657,1465.625,1707.702,1616.707,1706.695,1713.931z"/><path d="M1706.695,1713.931c-1.097,102.956,33.78,363.385,102.471,392.068
							c58.334,24.325,616.146-36.692,792.564-106.468c-52.728-6.703-129.962,1.958-179.501-7.559
							c-78.882-15.068-500.038,8.378-561.157-33.963c-61.12-42.341-62.82-249.088-77.402-320.327
							c-14.583-71.239-57.564-122.876-116.985-209.289c-32.196-46.83-50.045-78.874-59.565-98.323
							c-4.306,4.45-6.927,9.368-7.658,14.539C1583.657,1465.625,1707.702,1616.707,1706.695,1713.931z" opacity=".28"/><path d="M1623.491,1408.394c29.325,43.777,55.268,89.816,78.626,137.267c22.328,47.841,43.12,97.133,51.941,150.783
								c7.464,52.907,9.428,105.205,16.555,157.02c7.2,51.027,15.374,104.573,41.13,146.341
								c12.869,20.798,31.989,34.035,55.969,31.956l78.975-2.015c52.652-0.942,105.286-2.542,157.948-2.127
								c105.302-0.039,210.599,1.039,315.84,5.668l-315.548,11.007l-157.678,5.079l-78.8,3c-13.969,0.886-30.608-1.78-43.681-9.758
								c-13.204-7.907-23.305-19.211-31.016-31.139c-29.094-49.137-35.508-103.282-42.606-155.596
								c-6.273-52.594-8.759-105.621-13.994-157.167c-6.241-50.758-24.706-100.545-44.953-148.579
								C1672.301,1501.647,1648.474,1454.729,1623.491,1408.394z" opacity=".42"/><path d="M2525.715,1822.126c-53.886,15.769-110.64,19.851-163.293,31.418c-13.147,3.145-26.114,6.537-38.825,10.543
								l-40.255,12.441c-27.313,7.377-55.638,13.526-84.971,15.298c-29.3,1.959-59.712-2.952-86.606-9.249
								c-27.56-6.553-55.197-14.028-81.593-25.423c-13.168-5.558-26.306-11.952-38.554-19.145
								c-11.713-7.039-23.63-13.691-35.89-19.626c-24.191-12.817-50.061-21.839-77.436-27.761
								c28.101-1.636,56.394,4.491,83.567,12.675c13.498,4.483,26.707,9.743,39.699,15.403c12.377,5.673,24.68,10.564,37.544,14.707
								c25.653,8.105,51.929,14.757,78.766,19.41c27.369,5.167,52.375,9.166,78.722,6.885c26.195-1.354,52.596-6.374,79.01-12.951
								l39.993-10.041c13.993-3.66,28.136-6.456,42.32-8.284C2414.79,1820.413,2469.97,1825.251,2525.715,1822.126z" opacity=".42"/><g><path fill="#d9dade" d="M1999.681,2454.483c-1.097,102.956,33.78,363.385,102.471,392.068
							c58.334,24.325,616.146-36.692,792.564-106.468c31.17-12.28,50.497-24.864,52.961-37.282
							c14.042-70-40.758-195.917-106.513-334.803c-65.755-138.886-5.608-338.67-71.918-433.905
							c-48.596-69.699-269.547,89.865-453.877,86.857c-180.033-2.938-374.349,7.452-415.265,49.672
							c-4.306,4.45-6.927,9.368-7.658,14.539C1876.643,2206.177,2000.688,2357.259,1999.681,2454.483z"/><path d="M1999.681,2454.483c-1.097,102.956,33.78,363.385,102.471,392.068
							c58.334,24.325,616.146-36.692,792.564-106.468c-52.728-6.703-129.962,1.958-179.501-7.559
							c-78.882-15.068-500.038,8.378-561.157-33.963c-61.12-42.341-62.82-249.088-77.402-320.327
							c-14.583-71.239-57.564-122.876-116.986-209.289c-32.196-46.831-50.045-78.874-59.565-98.323
							c-4.306,4.45-6.927,9.368-7.658,14.539C1876.643,2206.177,2000.688,2357.259,1999.681,2454.483z" opacity=".28"/><path d="M1916.477,2148.946c29.325,43.777,55.268,89.816,78.626,137.267c22.328,47.842,43.12,97.132,51.941,150.783
								c7.464,52.907,9.428,105.205,16.555,157.02c7.199,51.026,15.374,104.573,41.129,146.341
								c12.869,20.797,31.99,34.034,55.969,31.956l78.975-2.015c52.653-0.942,105.286-2.543,157.948-2.127
								c105.302-0.039,210.598,1.039,315.84,5.668l-315.549,11.008l-157.678,5.079l-78.8,3c-13.969,0.886-30.608-1.78-43.681-9.758
								c-13.204-7.906-23.305-19.21-31.016-31.139c-29.095-49.137-35.507-103.282-42.606-155.596
								c-6.273-52.594-8.759-105.621-13.994-157.167c-6.242-50.758-24.706-100.545-44.953-148.578
								C1965.287,2242.198,1941.46,2195.281,1916.477,2148.946z" opacity=".42"/><path d="M2818.702,2562.677c-53.886,15.769-110.641,19.852-163.294,31.418c-13.147,3.145-26.114,6.537-38.825,10.543
								l-40.255,12.442c-27.312,7.377-55.637,13.525-84.97,15.298c-29.3,1.959-59.712-2.952-86.606-9.25
								c-27.56-6.553-55.197-14.028-81.593-25.423c-13.168-5.558-26.306-11.952-38.553-19.145
								c-11.713-7.038-23.631-13.691-35.89-19.626c-24.191-12.817-50.061-21.839-77.436-27.761
								c28.101-1.636,56.394,4.491,83.567,12.675c13.498,4.483,26.707,9.743,39.698,15.403c12.377,5.673,24.68,10.563,37.544,14.707
								c25.653,8.104,51.929,14.758,78.766,19.41c27.369,5.167,52.375,9.166,78.722,6.885c26.195-1.353,52.596-6.374,79.01-12.951
								l39.993-10.04c13.993-3.66,28.136-6.456,42.32-8.285C2707.776,2560.965,2762.957,2565.803,2818.702,2562.677z" opacity=".42"/></g></g><g><path fill="#b5b3b3" d="M3605.326,1221.477l-295.384-133.865c-4.56-2.067-8.118-5.455-10.364-9.523
						c-0.205-0.361-0.41-0.722-0.628-1.055c-3.268-5.435-7.931-9.861-13.55-12.844c-25.222-13.341-58.133-31.238-60.926-34.984
						c-0.129-0.159-0.203-0.293-0.193-0.389c0,0-0.028-0.013-0.083-0.038c-0.152-0.035-0.387-0.108-0.746-0.204
						c-2.987-0.952-13.273-4.507-11.56-8.288l1.361-3.003c1.89-4.171,13.362,2.905,14.594,3.664
						c0.071,0.066,0.099,0.078,0.099,0.078c1.825-1.217,38.732,12.224,66.563,22.692c6.361,2.38,13.239,2.883,19.836,1.415
						c4.592-1.036,9.539-0.637,14.182,1.467l294.689,133.55c1.112,0.504,2.159,1.079,3.14,1.724
						c8.446,5.47,12.859,15.848,9.818,25.664C3632.089,1220.77,3617.559,1227.021,3605.326,1221.477z"/><path fill="#4f4949" d="M3227.848,1020.95l-3.649,7.831c-0.152-0.035-0.387-0.108-0.746-0.204
						c-2.987-0.952-13.273-4.507-11.56-8.288l1.361-3.003C3215.145,1013.115,3226.617,1020.191,3227.848,1020.95z"/><path fill="#4f4949" d="M3319.028,1087.15c-0.157,0-0.315-0.029-0.472-0.1c-0.572-0.257-0.83-0.944-0.572-1.516
								l14.029-30.933c0.243-0.586,0.929-0.844,1.516-0.572c0.572,0.257,0.829,0.944,0.572,1.516l-14.029,30.933
								C3319.871,1086.907,3319.457,1087.15,3319.028,1087.15z"/><path fill="#4f4949" d="M3359.628,1105.541c-0.157,0-0.315-0.029-0.472-0.1c-0.572-0.257-0.829-0.944-0.572-1.516
								l14.029-30.933c0.257-0.586,0.944-0.844,1.516-0.572c0.572,0.258,0.829,0.944,0.572,1.516l-14.029,30.933
								C3360.486,1105.298,3360.057,1105.541,3359.628,1105.541z"/><path fill="#4f4949" d="M3400.228,1123.947c-0.157,0-0.315-0.029-0.472-0.1c-0.572-0.257-0.829-0.944-0.572-1.516
								l14.029-30.933c0.257-0.586,0.901-0.858,1.516-0.572c0.572,0.258,0.83,0.944,0.572,1.516l-14.029,30.933
								C3401.086,1123.703,3400.657,1123.947,3400.228,1123.947z"/><path fill="#4f4949" d="M3440.829,1142.338c-0.157,0-0.314-0.029-0.472-0.1c-0.572-0.257-0.829-0.944-0.572-1.516
								l14.029-30.919c0.243-0.601,0.915-0.815,1.516-0.572c0.572,0.257,0.829,0.944,0.572,1.516l-14.029,30.919
								C3441.672,1142.094,3441.258,1142.338,3440.829,1142.338z"/><path fill="#4f4949" d="M3481.429,1160.743c-0.157,0-0.314-0.029-0.472-0.1c-0.572-0.257-0.83-0.944-0.572-1.516
								l14.029-30.933c0.258-0.572,0.944-0.815,1.516-0.572c0.572,0.257,0.83,0.944,0.572,1.516l-14.029,30.933
								C3482.273,1160.5,3481.858,1160.743,3481.429,1160.743z"/><path fill="#4f4949" d="M3522.03,1179.148c-0.157,0-0.315-0.029-0.472-0.1c-0.572-0.257-0.83-0.944-0.572-1.516
								l14.015-30.933c0.257-0.586,0.915-0.844,1.516-0.572c0.572,0.257,0.829,0.944,0.572,1.516l-14.015,30.933
								C3522.887,1178.905,3522.458,1179.148,3522.03,1179.148z"/><path fill="#4f4949" d="M3562.63,1197.539c-0.157,0-0.315-0.029-0.472-0.1c-0.572-0.257-0.83-0.944-0.572-1.516
								l14.015-30.933c0.257-0.586,0.929-0.844,1.516-0.572c0.572,0.257,0.829,0.944,0.572,1.516l-14.015,30.933
								C3563.488,1197.296,3563.059,1197.539,3562.63,1197.539z"/><path fill="#c3c2c2" d="M3616.311,1200.047c-0.789,1.742-2.136,3.014-3.697,3.646c-1.546,0.675-3.305,0.71-4.917-0.02
						l-296.357-134.306c-3.198-1.449-4.517-5.414-2.952-8.867c0.789-1.742,2.136-3.014,3.696-3.646
						c1.574-0.662,3.333-0.698,4.917,0.02l296.357,134.306C3616.556,1192.629,3617.876,1196.593,3616.311,1200.047z"/><path fill="#cf2609" d="M3512.572,1145.504l-5.662,12.493l-195.57-88.63c-3.198-1.449-4.517-5.414-2.952-8.867
						c0.789-1.742,2.136-3.014,3.696-3.646c1.574-0.662,3.333-0.698,4.917,0.02L3512.572,1145.504z"/><polygon fill="#fff" points="3509.305 1128.529 3451.239 1151.647 3398.079 1127.555 3456.145 1104.437" opacity=".47"/><polygon fill="#fff" points="3567.109 1154.725 3509.015 1177.83 3468.588 1159.509 3526.683 1136.404" opacity=".47"/><path d="M3605.326,1221.477l-295.384-133.865c-4.56-2.067-8.118-5.455-10.364-9.523
						c-0.205-0.361-0.41-0.722-0.628-1.055c56.523,26.286,302.004,139.814,317.065,136.016c14.085-3.57,13.626-18.458,10.34-31.174
						c8.446,5.47,12.859,15.848,9.818,25.664C3632.089,1220.77,3617.559,1227.021,3605.326,1221.477z" opacity=".28"/><path fill="#fff" d="M3237.419,1030.373c13.822,4.361,26.947,10.21,40.391,15.248
							c6.541,2.715,13.25,6.348,19.671,8.345c6.441,0.55,13.334-6.549,20.66-3.279c-7.435-2.056-12.624,5.464-20.767,5.306
							c-7.36-1.807-13.62-5.013-20.491-7.471C3263.708,1042.428,3250.215,1037.145,3237.419,1030.373z" opacity=".47"/><path fill="#431107" d="M2131.841,993.125c0,0,69.07-170.849,191.046-42.579
					c46.365,48.758,13.668,109.475,13.668,109.475L2131.841,993.125z"/><path fill="#e69451" d="M6784.244,2515.103c0.806,82.003-163.531,185.721-207.68,210.143
						c-44.15,24.32-77.681,96.409-121.63,141.229c-43.947,44.923-135.448-2.77-197.07-56.087
						c-16.957-14.698-38.403-27.302-62.19-38.139c-2.471-1.104-5.045-2.206-7.619-3.308c0.102-0.104-0.001-0.103-0.001-0.103
						c-44.885-19.242-96.783-32.366-142.796-41.141c-15.817-3.125-31.014-5.641-44.874-7.658
						c-10.062-1.541-19.403-2.782-27.922-3.928c-29.561-3.708-48.743-4.955-48.743-4.955l57.539-184.988
						c0,0,45.407-0.651,85.083,10.031c1.645,0.496,3.187,0.891,4.832,1.388c2.468,0.795,3.805,1.193,3.805,1.193
						c24.064,7.76,119.015,30.918,208.981,47.564c64.7,11.872,126.805,20.385,158.143,17.207
						c75.068-7.605,229.763-91.033,250.128-104.971C6712.596,2484.745,6783.628,2452.371,6784.244,2515.103z"/><path d="M6188.054,2768.838c-44.885-19.242-96.783-32.366-142.796-41.141
						c-15.817-3.125-31.014-5.641-44.874-7.658c-10.062-1.541-19.403-2.782-27.922-3.928c-29.561-3.708-48.743-4.955-48.743-4.955
						l57.539-184.988c0,0,45.407-0.651,85.083,10.031c0.644,23.777-0.573,46.034-6.21,56.546
						c-15.099,28.34-17.286,66.599,62.572,108.255C6160.724,2720.822,6179.227,2746.884,6188.054,2768.838z" opacity=".37"/><path fill="#efddcd" d="M6784.244,2515.103c0.806,82.003-163.531,185.721-207.68,210.143
						c-44.15,24.32-77.681,96.409-121.63,141.229c-43.947,44.923-135.448-2.77-197.07-56.087
						c-16.957-14.698-38.403-27.302-62.19-38.139c69.049-56.856,84.938-140.356,88.284-185.906
						c64.7,11.872,126.805,20.385,158.143,17.207c75.068-7.605,229.763-91.033,250.128-104.971
						C6712.596,2484.745,6783.628,2452.371,6784.244,2515.103z"/><path fill="#7697ed" d="M6369.507,2632.634c0.076,7.756-6.149,14.105-13.905,14.181s-14.105-6.149-14.181-13.905
							s6.149-14.105,13.905-14.181S6369.431,2624.878,6369.507,2632.634z"/><circle cx="6554.858" cy="2602.724" r="14.044" fill="#7697ed" transform="rotate(-82.478 6554.785 2602.726)"/><circle cx="6521.554" cy="2711.622" r="14.044" fill="#7697ed" transform="rotate(-78.223 6521.888 2711.75)"/><circle cx="6749.663" cy="2518.621" r="14.044" fill="#7697ed" transform="rotate(-45.001 6749.666 2518.71)"/><path fill="#7697ed" d="M6711.23,2606.613c0.076,7.756-6.149,14.105-13.905,14.181
							c-7.756,0.076-14.105-6.149-14.181-13.905c-0.076-7.756,6.149-14.105,13.905-14.181S6711.154,2598.857,6711.23,2606.613z"/><circle cx="6394.68" cy="2853.569" r="14.044" fill="#7697ed" transform="rotate(-45.001 6394.677 2853.657)"/><circle cx="6386.489" cy="2737.544" r="14.044" fill="#7697ed" transform="rotate(-45.001 6386.488 2737.631)"/><circle cx="6245.98" cy="2761.058" r="14.044" fill="#7697ed" transform="rotate(-27.13 6246.276 2760.846)"/><path d="M2189.715,1066.858c-37.464-8.023-74.757-15.882-112.425-17.056c-18.746-1.276-37.626-0.493-55.845,3.281
						c-18.207,3.62-35.886,10.506-51.011,22.559c12.234-15.113,30.44-24.69,49.218-30.006c18.923-5.566,38.713-6.298,58.076-5.771
						C2116.487,1042.253,2154.652,1050.973,2189.715,1066.858z" opacity=".17"/><path fill="#212020" d="M6117.006,2518.725l-130.191,276.324c0,0-1157.998-410.766-1159.072-410.195
					c-13.426,7.136-694.46,547.566-991.067,551.584c-278.405,3.772-514.176-151.64-514.176-151.64l554.031-549.007
					c0,0,393.518-179.953,580.404-247.148c304.11-109.343,515.963-98.013,633.848-28.19
					C5480.317,2180.849,6117.006,2518.725,6117.006,2518.725z"/><path fill="#e69451" d="M2744.206,1507.191l-59.902,151.572l-314.118,43.932
					c13.034-53.891-29.874-101.925-51.401-134.434c-16.255-25.334-36.757-44.226-52.133-55.94
					c-13.034-10.252-22.405-15.377-22.405-15.377l-51.988-71.026l181.148-97.969c0,0,66.777,57.259,137.07,103.975
					c11.862,7.907,23.87,15.375,35.585,22.404c24.749,14.644,67.116,28.664,88.103,32.089
					C2728.803,1501.868,2740.837,1508.362,2744.206,1507.191z"/><path d="M2510.477,1431.925c-74.393,53.157-161.379,74.976-243.826,80.396
					c-13.034-10.252-22.405-15.377-22.405-15.377l-51.988-71.026l181.148-97.969
					C2373.407,1327.95,2440.185,1385.21,2510.477,1431.925z" opacity=".5"/><path fill="#e69451" d="M2267.802,991.096c61.315,24.664,115.353,48.888,144.899,103.75
					c38.678,71.818,92.745,170.334,70.361,244.114c-63.314,68.834-248.408,118.224-248.408,118.224l-238.357-203.266
					l191.588-303.372L2267.802,991.096z"/><path fill="#713310" d="M2178.539,1147.571c26.531,16.81,10.684,107.472,10.684,107.472l-13.073-3.282l-6.927,57.672
					l89.866,45.59c0,0,38.123,45.021,38.061,55.708c-0.184,31.616-52.871,86.172-52.871,86.172
					c-41.592-30.702-124.275,5.51-235.71-52.586c-16.96-8.827-30.882-19.239-42.037-30.705
					c-62.066-62.974-43.191-153.44-43.191-153.44C1990.85,1138.105,2152.275,1130.674,2178.539,1147.571z"/><path d="M2164.87,1309.433l89.866,45.59c0,0,38.123,45.021,38.061,55.708
					c-0.184,31.616-52.871,86.172-52.871,86.172c-41.591-30.702-124.275,5.51-235.71-52.586
					c-16.96-8.827-30.882-19.239-42.037-30.705c48.947,6.52,157.074,20.955,190.612,27.473
					c44.126,8.541,84.105-35.491,67.295-54.737C2203.453,1367.193,2137.464,1335.725,2164.87,1309.433z" opacity=".17"/><path fill="#431107" d="M2294.37,1001.651c0,0-29.342-203.17-245.834-114.813c0,0-78.555,11.788-129.815,115.581
					c0,0-54.216,38.092-46.776,193.996c0,0-8.208,71.202,30.431,127.092c0,0,96.761-174.227,276.287-175.961
					C2178.663,1147.547,2309.219,1075.642,2294.37,1001.651z"/><path d="M2206.66,876.449c-28.201-5.597-63.029-4.732-105.664,6.242l44.37,42.83
					c0,0-135.393-12.189-171.978,45.399l28.897,23.593c0,0-61.34,26.272-94.99,145.865l65.571-18.766
					c0,0-49.012,65.799-32.096,112.567c0,0,68.576-106.565,237.769-86.608c-179.472,1.626-276.141,175.893-276.141,175.893
					c-38.684-55.801-30.431-127.092-30.431-127.092c-7.552-155.904,46.821-193.973,46.821-193.973
					c51.104-103.817,129.815-115.47,129.815-115.47C2119.575,857.951,2170.417,860.295,2206.66,876.449z" opacity=".17"/><path fill="#e69451" d="M2189.797,1251.682c0,0-54.836-7.903-59.601,45.507s91.605,136.726,128.803,57.9
					L2189.797,1251.682z"/><path d="M2161.092,1176.679c-38.559,13.823-75.951,28.285-111.165,46.939c-17.573,9.32-34.258,19.955-50.311,31.65
						c-15.63,12.226-29.74,26.178-42.88,42.056c7.787-19.078,20.519-36.075,35.389-50.767c15.119-14.465,32.62-26.109,50.802-36.123
						c18.442-9.556,37.68-17.394,57.546-22.951C2120.292,1181.884,2140.5,1177.55,2161.092,1176.679z" opacity=".17"/><path d="M2173.506,1201.847c-38.559,13.823-75.951,28.285-111.165,46.939c-17.573,9.32-34.258,19.955-50.311,31.65
						c-15.63,12.225-29.74,26.178-42.88,42.056c7.787-19.079,20.519-36.076,35.389-50.767c15.119-14.465,32.62-26.109,50.802-36.123
						c18.442-9.556,37.68-17.393,57.546-22.951C2132.707,1207.051,2152.914,1202.718,2173.506,1201.847z" opacity=".17"/><path d="M2162.473,1237.724c-31.809,12.444-62.624,24.628-91.724,40.099c-14.542,7.681-28.329,16.428-41.74,25.904
						c-13.044,9.944-24.878,21.273-36.245,34.188c6.014-16.115,16.47-30.489,28.754-42.899
						c12.477-12.247,27.08-22.003,42.232-30.378c15.395-7.942,31.446-14.446,48.063-18.858
						C2128.376,1241.308,2145.264,1237.937,2162.473,1237.724z" opacity=".17"/><path fill="#d9dade" d="M2428.031,1069.92c0,0-156.107,24.163-243.972,92.844
					c-78.931,29.142-149.663-44.664-176.316-77.76h-0.146c-7.176-9.079-11.276-15.084-11.276-15.084
					s164.601-154.935,243.533-162.403C2284.078,906.638,2398.889,984.839,2428.031,1069.92z"/><path d="M2428.031,1069.92c0,0-156.107,24.163-243.972,92.844
					c-78.931,29.142-149.663-44.664-176.316-77.76c23.724,4.832,53.452,12.74,72.342,25.041
					c35.585,23.284,59.309,44.665,80.982,38.221C2182.741,1141.824,2370.039,1044.44,2428.031,1069.92z" opacity=".5"/><path d="M2131.84,1094.042c15.396-11.919,32.112-21.753,49.189-30.895c17.03-9.286,34.946-16.833,53.189-23.614
						c18.306-6.542,37.283-11.798,56.808-14.297c19.279-2.451,40.013-3.278,58.218,4.598c-19.335-1.819-37.907,1.914-56.118,6.469
						c-18.145,4.937-36.225,10.318-53.982,17.01C2203.355,1065.926,2168.259,1080.705,2131.84,1094.042z" opacity=".5"/><path d="M2099.9,1052.738c10.383-14.578,23.537-26.871,37.585-37.982c14.03-11.213,29.738-20.301,46.252-27.768
						c16.735-6.965,34.539-11.851,52.721-13.211c18.208-1.359,36.557,1.317,53.18,7.638c-17.887-0.342-34.959,0.023-51.686,3.527
						c-16.582,3.832-32.805,8.66-48.435,15.492C2158.194,1014.032,2128.979,1032.385,2099.9,1052.738z" opacity=".5"/><path fill="#e69451" d="M2306.048,904.283c-25,6.738-92.686,93.454-74.526,98.25c18.159,4.796,52.144-5.956,64.258-8.401
					c12.113-2.445,71.549,34.561,71.549,34.561s-69.141,31.076-73.663,37.066c-4.521,5.989,35.04,6.341,86.798-4.105
					c51.758-10.446,51.101-13.698,86.435-8.984c10.397,1.387,32.325,6.677,58.732,13.563c16.997-31.557,25.141-48.825,53.36-81.467
					c-38.756-2.39-50.396-20.611-55.444-20.527c-27.414,0.456-93.33-64.93-124.259-70.535
					C2368.357,888.101,2331.048,897.545,2306.048,904.283z"/><path fill="#2f54a4" d="M3175.908,1513.931c-3.954,42.617-11.57,86.987-22.113,131.213
					c-18.013,75.418-44.079,150.249-72.196,215.562c-39.101,90.355-82.3,162.11-114.225,191.252
					c-90.793,82.009-262.57-79.517-247.047-184.076c28.263-191.105,106.024-306.503,149.517-372.109
					c18.745-28.262,31.045-47.3,30.313-59.308c-1.465-24.163-176.315-135.459-279.264-229.035c-0.146-0.147-0.146-0.147-0.146-0.147
					c-48.765-44.372-81.275-84.79-71.464-109.978c-19.184-14.351-38.074-27.969-56.526-40.711l17.72-88.158l6.589-20.94
					c0,0,27.239,7.175,70.585,20.794c17.72-28.702,123.45,5.273,239.871,67.804c95.334,51.255,197.843,121.839,264.767,192.863
					c31.485,33.243,55.209,66.632,66.777,98.262C3178.397,1379.791,3182.352,1444.517,3175.908,1513.931z"/><path d="M3174.069,1530.091c-85.229-29.288-204.726-21.088-218.784-109.831
					c-12.301-75.857-100.166-82.593-152.592-114.81c-31.046-19.037-117.153-64.434-181.881-98.116
					c103.095,93.723,277.946,205.018,279.411,229.035c0.586,12.008-11.715,31.046-30.46,59.455
					c-43.347,65.606-121.253,181.002-149.37,371.962c-15.523,104.559,156.107,266.231,246.901,184.224
					c31.924-29.288,75.271-101.045,114.224-191.253c28.117-65.313,54.183-140.291,72.342-215.562
					c-0.586-1.172,0.293-4.1,1.757-8.201v-0.293L3174.069,1530.091z" opacity=".28"/><path fill="#8abddf" d="M2549.284,1097.305c-19.184-14.351-38.074-27.969-56.526-40.711l17.72-88.158l6.589-20.94
					c0,0,27.239,7.175,70.585,20.794C2587.651,968.289,2608.592,1046.343,2549.284,1097.305z"/><path d="M2645.301,1022.4c24.07,2.201,47.722,6.938,71.174,12.491c23.503,5.426,46.513,12.819,69.239,21.089
						c22.629,8.473,44.844,18.568,65.679,31.214c20.6,12.545,41.276,27.452,53.843,48.528
						c-17.159-16.981-38.037-28.361-59.235-38.638c-21.401-9.932-43.082-19.384-65.439-27.405
						C2736.157,1052.826,2690.762,1038.424,2645.301,1022.4z" opacity=".5"/><path d="M2628.216,1075.641c36.006,9.523,70.016,24.208,102.964,41.025c16.312,8.73,32.451,17.941,47.627,28.755
						c15.066,10.737,30.248,22.467,41.002,37.894c-14.96-10.988-30.825-19.672-46.918-28.307l-48.5-25.376
						C2692.086,1112.489,2659.609,1095.591,2628.216,1075.641z" opacity=".5"/><path d="M2591.239,1122.298c33.395,12.994,64.127,31.101,93.41,51.369c14.388,10.511,28.57,21.453,41.416,34.038
						c12.524,12.628,25.518,26.337,31.509,43.566c-11.162-13.911-25.057-24.326-38.837-35.01l-42.564-30.662
						C2647.656,1165.156,2618.809,1145.094,2591.239,1122.298z" opacity=".5"/><path d="M3175.908,1513.931c-131.359-63.115-105.878-211.901-83.619-284.975
					c31.485,33.243,55.209,66.632,66.777,98.262C3178.397,1379.791,3182.352,1444.517,3175.908,1513.931z" opacity=".28"/><path fill="#2f54a4" d="M3899.249,2253.805c0,0-12.009,14.937-15.23,44.226
					c-33.976,307.234-455.433,585.767-516.06,519.281c-67.949-74.392-159.035-172.216-240.751-251.879
					c-9.664-9.373-19.623-18.745-29.288-27.824c-70.877-64.728-144.098-116.274-207.946-153.764
					c-67.949-39.832-125.355-63.848-159.035-70.584c-26.067-5.271-321.001-222.592-383.092-407.108
					c-41.296-122.718-39.832-167.822-13.473-228.742c7.031-15.815,4.687-41.004,0.88-48.618
					c-18.159-83.18,236.65-59.749,352.339-139.12c88.449,13.765,295.518,28.702,375.768,51.839
					c52.427,14.937,114.518,62.677,198.283,139.12c71.17,64.141,157.865,149.078,268.28,251.001
					c19.625,18.159,38.367,35.439,56.235,51.841c108.658,99.288,190.666,169.579,243.093,213.511
					C3875.525,2235.353,3899.249,2253.805,3899.249,2253.805z"/><path fill="#d1602a" d="M7287.549,3305.206c-7.175,7.029-45.69,5.125-103.68-2.489v-0.146
					c-9.373-1.173-19.477-2.49-29.875-4.101c-18.159-2.637-37.782-5.711-58.577-9.081c-9.373-1.609-19.184-3.221-29.142-4.83
					c-21.381-3.661-43.933-7.615-67.217-11.716c-9.518-1.759-19.037-3.514-28.849-5.273
					c-219.809-39.978-495.705-96.065-629.992-111.587c-301.23-34.708-648.151-7.322-944.255-80.25
					c-341.795-84.204-770.429-115.983-1179.44-110.125c-196.818,2.781-389.096,14.204-564.826,32.803
					c-994.778,131.358-1227.914-473.154-1317.243-661.917c0,0,75.71-85.521,221.713-179.976
					c84.643-54.916,192.717-112.761,323.489-158.744c109.099-38.512,156.4-106.317,183.345-176.17
					c36.171-93.428,36.025-190.374,98.848-225.372c60.187-40.271,128.136-52.134,201.211-45.398
					c106.023,9.666,222.592,58.283,340.917,114.958c122.425,58.577,246.754,125.939,363.029,167.675
					c333.155,119.497,886.265-78.199,1184.127-6.003c245.583,59.454,481.062,177.779,711.414,278.677
					c131.944,57.845,263.595,116.275,396.564,171.631c134.872,56.085,274.87,95.771,414.576,136.627
					c18.159,5.274,36.317,10.692,54.476,15.964c27.384,8.202,54.769,16.401,82.008,24.894c16.84,5.273,33.681,10.69,50.521,16.257
					c24.457,8.053,48.912,16.253,73.367,25.041c15.816,5.565,31.632,11.423,47.301,17.426h0.146
					c24.457,9.372,48.912,19.185,73.075,29.581c32.363,13.911,65.166,28.702,91.671,51.841
					c46.862,41.004,52.133,101.043,53.598,160.646c0.585,26.947,0.439,53.743,2.929,78.639
					C7314.495,2948.912,7372.925,3222.028,7287.549,3305.206z"/><g opacity=".28"><path d="M3656.793,1827.279c65.042-5.586,131.519,2.841,194.046,24.208c62.383,22.015,119.869,56.522,172.349,96.185
						c104.894,80.057,192.026,178.606,292.042,259.83c97.54,84.05,215.247,140.018,334.083,192.154
						c59.365,26.477,119.57,51.578,178.933,78.839c58.933,28.119,117.634,57.262,172.589,92.486
						c-116.22-59.432-238.944-102.187-360.257-150.558c-120.956-47.965-241.795-105.426-343.997-190.38
						c-100.743-85.158-187.577-182.777-287.24-264.731c-49.692-40.927-104.039-76.369-163.58-100.487
						C3786.572,1839.615,3722.073,1828.299,3656.793,1827.279z"/></g><g opacity=".28"><path d="M4919.021,1982.843c130.854-9.926,264.725,34.007,371.217,113.283l38.782,31.409
						c12.767,10.689,23.811,23.221,35.797,34.763c23.38,23.16,43.491,51.463,64.862,74.636
						c39.549,49.977,91.401,89.487,142.859,127.731c105.119,75.05,221.343,134.528,339.047,189.995
						c58.78,28.074,118.487,54.409,178.159,80.978l88.966,41.387c28.879,14.988,60.136,27.533,83.952,50.542
						c-25.646-20.402-57.494-30.237-87.091-43.443l-91.361-35.238c-60.808-23.89-121.631-47.951-181.885-73.687
						c-120.353-51.578-237.807-111.768-346.8-186.735c-52.454-40.091-105.242-81.372-146.461-134.711
						c-22.449-25.251-39.91-50.872-62.588-74.054c-11.328-11.294-21.968-23.356-33.857-34.059l-36.083-31.759
						c-49.787-40.487-106.672-72.316-167.325-94.294C5048.837,1996.903,4984.39,1983.172,4919.021,1982.843z"/></g><g opacity=".28"><path d="M6074.54,2351.983c98.467-8.015,198.529,29.293,275.792,92.046c39.685,30.497,70.409,71.682,100.428,109.753
						c28.235,38.672,66.026,69.715,103.393,100.003c76.694,59.251,162.45,106.678,249.49,150.938
						c43.497,22.323,87.724,43.369,131.964,64.515l65.9,32.92c21.332,11.881,44.574,21.962,61.755,39.959
						c-18.65-16.059-42.39-24.073-64.304-34.609l-67.849-28.272c-45.163-19.126-90.303-38.466-134.988-59.043
						c-89.188-41.369-175.936-89.402-255.64-148.742c-38.103-31.747-76.567-64.201-105.915-105.402
						c-16.11-19.595-28.679-39.176-44.853-57.365c-8.123-8.852-15.976-17.99-24.313-26.636l-26.094-24.917
						c-36.244-31.596-77.549-57.841-122.661-75.453C6171.887,2363.391,6123.633,2352.096,6074.54,2351.983z"/></g><path d="M7287.549,3305.206c-7.175,7.029-45.69,5.125-103.68-2.489v-0.146
					c-9.373-1.173-19.477-2.49-29.875-4.101c-18.159-2.637-37.782-5.711-58.577-9.081c-9.373-1.609-19.184-3.221-29.142-4.83
					c-21.381-3.661-43.933-7.615-67.217-11.716c-9.518-1.759-19.037-3.514-28.849-5.273
					c-219.809-39.978-495.705-96.065-629.992-111.587c-301.23-34.708-648.151-7.322-944.255-80.25
					c-341.795-84.204-770.429-115.983-1179.44-110.125c49.351-27.679,128.429-35.002,169.433-42.177
					c223.323-38.659,451.332-41.734,677.146-44.371c281.9-3.076,546.52,107.488,823.88,139.851
					c174.559,20.502,352.045,2.344,528.069,16.11c176.169,13.618,351.313,41.736,522.942,83.764
					c71.61,17.572,143.22,37.636,216.88,42.029c109.685,6.444,63.703-97.97,52.865-160.648
					c-8.933-52.863-0.439-102.363,24.896-149.809c4.54-8.64,35.439-53.157,67.217-94.308c0.585,26.947,0.439,53.743,2.929,78.639
					C7314.495,2948.912,7372.925,3222.028,7287.549,3305.206z" opacity=".17"/><g><path fill="#f0dfd0" d="M2370.771,2413.962c27.238-39.832,59.602-73.367,95.48-98.848
						c49.937-35.585,101.631-45.25,161.525-56.526c11.13-2.05,22.406-4.1,33.828-6.444
						c196.671-39.686,331.397-107.488,411.94-207.361c45.25-56.234,69.999-123.743,94.016-189.203
						c6.59-18.012,13.18-36.025,20.209-53.744c46.275-116.714,139.266-200.479,254.223-237.528h-0.439l-80.982-13.619l-0.732-0.146
						h-0.146c-95.187,48.911-171.044,129.894-212.78,235.185c-7.029,18.012-13.766,36.318-20.502,54.769
						c-23.87,64.874-46.422,126.233-87.133,176.755c-73.66,91.526-200.186,154.349-386.313,191.839
						c-11.276,2.343-22.259,4.393-33.242,6.443c-62.238,11.569-121.107,22.552-178.952,63.702
						c-33.682,23.87-64.434,54.037-91.526,89.183L2370.771,2413.962z"/></g><g><path fill="#f0dfd0" d="M7183.869,3302.571c-9.373-1.173-19.477-2.49-29.875-4.101
						c27.092-70,12.887-145.124-4.979-239.58c-16.109-84.789-34.268-180.853-27.531-298.74
						c5.857-99.435-36.025-190.667-87.426-263.595c15.816,5.565,31.632,11.423,47.301,17.426h0.146
						c43.054,70.732,74.686,155.376,69.268,247.926c-6.59,114.224,11.275,208.386,26.944,291.566
						C7195.291,3146.024,7210.521,3226.713,7183.869,3302.571z"/></g><g><path fill="#f0dfd0" d="M7095.418,3289.389c-9.373-1.609-19.184-3.221-29.142-4.83
						c20.355-66.045,6.883-137.364-9.812-225.669c-16.109-84.789-34.268-180.853-27.531-298.74
						c7.029-119.204-54.622-226.545-118.764-304.893c16.84,5.273,33.681,10.69,50.521,16.257
						c56.527,78.344,103.974,178.511,97.531,290.393c-6.59,114.224,11.129,208.386,26.945,291.566
						C7101.568,3140.605,7116.212,3217.341,7095.418,3289.389z"/></g><g><path fill="#f0dfd0" d="M6999.059,3272.843c-9.518-1.759-19.037-3.514-28.849-5.273
						c13.619-61.358,1.025-127.99-14.351-208.679c-15.962-84.789-34.268-180.853-27.384-298.74
						c8.201-141.61-80.104-266.523-154.789-345.75c18.159,5.274,36.317,10.692,54.476,15.964
						c69.121,82.74,137.362,199.014,129.601,331.544c-6.736,114.224,11.129,208.386,26.945,291.566
						C6999.938,3134.016,7013.411,3205.625,6999.059,3272.843z"/></g><path d="M3586.157,1983.474c-49.498,88.158-111.882,164.307-186.567,206.482
					c-44.812,19.33-220.835,146.442-711.999,34.853c-53.014-12.008-96.653-38.661-131.506-68.242
					c-41.882-36.024-70.877-76.442-87.865-100.459c-82.3-116.86,89.915-311.042,217.612-303.72
					c228.157,9.079,324.808,45.396,377.234,69.12c30.754,14.351,45.983,24.017,63.557,21.382
					c16.695-2.637,70.291-76.151,135.019-162.259c71.17,64.141,157.865,149.078,268.28,251.001
					C3549.546,1949.792,3568.289,1967.073,3586.157,1983.474z" opacity=".28"/><path fill="#8abddf" d="M2412.654,1752.485c-26.507,2.928-52.719,3.954-78.2,2.928
					c-56.526-8.491-72.635-70.438-92.112-124.913c-68.828-42.029-47.887-147.612-47.887-147.612s221.86-30.901,316.021-104.706
					c20.354-15.962,63.263-23.577,103.388-20.063c41.882,3.515,80.835,19.183,88.157,50.229
					c56.966-24.015,133.994,30.754,157.865,103.975C2877.899,1574.559,2636.417,1728.03,2412.654,1752.485z"/><path d="M2412.654,1752.485c91.379-20.94,406.082-150.689,408.425-226.252
					c1.172-125.391-133.555-91.379-133.555-91.379c0.293-29.288-37.928-57.259-73.66-76.735
					c41.882,3.515,80.835,19.183,88.157,50.229c56.966-24.015,133.994,30.754,157.865,103.975
					C2877.899,1574.559,2636.417,1728.03,2412.654,1752.485z" opacity=".25"/><g opacity=".5"><path d="M2306.045,1611.657c70.509-12.313,140.334-26.46,207.761-47.936c33.851-10.275,66.468-23.964,97.273-40.638
						c30.302-17.031,59.486-38.786,76.39-70.814c-11.343,34.871-40.419,60.982-70.546,80.444
						c-30.617,19.66-64.257,34.155-98.652,44.945c-34.477,10.672-69.564,19.09-105.088,24.557
						C2377.683,1607.679,2341.93,1611.507,2306.045,1611.657z"/></g><g opacity=".5"><path d="M2242.304,1541.421c63.922-7.31,126.766-18.321,187.855-35.673c30.503-8.786,60.166-19.862,89.277-32.446
						c28.793-13.326,56.022-29.604,82.294-48.359c-22.253,23.35-48.797,42.666-77.262,58.437
						c-28.69,15.342-59.156,27.136-90.254,36.43c-31.289,8.603-63.096,15.191-95.255,18.689
						C2306.848,1542.062,2274.49,1543.864,2242.304,1541.421z"/></g><g opacity=".5"><path d="M2334.397,1694.641c41.673-0.402,82.908-5.602,123.126-14.6c40.2-8.964,79.724-21.18,116.823-38.873
						c37.59-16.426,73.443-37.064,106.271-61.909c33.89-23.638,63.199-52.933,92.82-82.356
						c-12.889,16.283-25.339,33.283-39.767,48.461c-14.864,14.755-29.419,30.002-46.157,42.802
						c-32.144,27.268-69.087,48.452-107.189,66.352c-38.574,17.02-79.122,29.761-120.659,36.53
						C2418.235,1697.913,2375.84,1700.286,2334.397,1694.641z"/></g><path fill="#e69451" d="M3769.24,1175.425c-10.681-26.284-181.066-53.334-186.103-32.381
					c-5.038,20.951,34.17,28.993,36.598,47.882c1.725,13.416-27.083,58.174-27.083,58.174s-7.567-26.617-24.863-43.461
					c-10.036-3.961-29.832-12.654-33.773-13.521c-7.646-1.169-1.434,22.707,16.052,77.796
					c17.486,55.089,21.732,53.741,18.029,93.622c-1.09,11.735-6.51,36.939-13.718,67.39c42.88,12.694,89.536,30.486,134.65,55.35
					c0.391-43.211,0.346-71.669-0.126-77.222c-2.559-30.153,79.075-115.413,84.268-150.606
					C3778.364,1223.254,3779.921,1201.71,3769.24,1175.425z"/><path fill="#2f54a4" d="M3439.534,2083.612c-47.887,51.401-100.605,91.673-156.693,112.173
					c-44.664,19.331-104.706,28.264-172.801,29.142c-130.187,1.906-289.809-26.505-427.61-71.169
					c-114.517-37.343-187.238-78.048-217.896-121.547c-82.382-116.885,62.693-274.379,190.391-266.91
					c232.695,27.529,460.973,133.647,508.274,126.471c42.321-6.443,253.783-484.282,352.485-456.018
					c14.351-24.31,38.513-51.548,50.815-74.833l127.697,28.411c0,0-8.054,25.481-17.865,78.786
					C3741.935,1500.188,3629.322,1879.911,3439.534,2083.612z"/><path fill="#8abddf" d="M3694.195,1389.332c0,0-8.054,25.481-17.865,78.786c-27.385,2.928-160.646-32.363-160.646-32.363
					c14.351-24.31,38.513-51.548,50.815-74.833L3694.195,1389.332z"/><g opacity=".5"><path d="M3641.55,1523.871c-0.787,27.569-4.619,54.874-9.446,81.984c-4.798,27.132-11.405,53.953-19.685,80.315
						c-8.679,26.207-18.057,52.345-31.144,76.861c-12.884,24.495-27.86,48.248-47.379,67.823
						c29.242-46.627,48.182-97.309,64.567-149.088C3614.957,1630.005,3628.003,1577.175,3641.55,1523.871z"/></g><g opacity=".5"><path d="M3561.007,1514.413c-3.216,46.563-16.037,92.07-33.947,135.205c-18.409,42.823-43.452,83.894-77.715,115.683
						c12.34-19.816,24.617-39.079,35.071-59.466c10.238-20.444,20.584-40.764,29.181-61.955
						C3531.64,1601.862,3546.618,1558.63,3561.007,1514.413z"/></g><g opacity=".5"><path d="M3495.108,1497.772c-13.684,41.027-33.085,79.586-54.488,116.856c-21.834,37.009-46.171,72.786-75.479,104.563
						c9.735-19.333,20.599-37.724,30.972-56.423l31.868-55.52C3449.74,1570.529,3471.209,1533.728,3495.108,1497.772z"/></g><path d="M3439.534,2083.612c-47.887,51.401-100.605,91.673-156.693,112.173
					c-44.664,19.331-104.706,28.264-172.801,29.142c27.97-46.421,93.575-142.341,165.479-150.687
					C3332.192,2067.795,3396.627,2075.997,3439.534,2083.612z" opacity=".28"/></g></g><g><defs><path id="c" d="M2578.008,4130.458c-3.119,6.151-9.946,8.424-15.478,5.282l-193.56-109.71l-1303.954-739.153
							c-4.237-2.407-8.18-5.348-11.652-8.758c-20.48-19.455-27.366-53.016-14.889-81.43c14.595-33.227,50.141-46.732,79.39-30.152
							c0.941,0.602,2.001,1.27,2.943,1.805l1452.846,943.864C2579.302,4115.816,2581.244,4124.04,2578.008,4130.458z"/></defs><use fill="#d1904b" overflow="visible" xlink:href="#c"/><clipPath id="d"><use overflow="visible" xlink:href="#c"/></clipPath><g clip-path="url(#d)"><path fill="#833314" d="M2064.978,4014.353l-0.286-3.547c2.26-0.186,225.454-17.79,254.099-27.443
							c6.922-2.345,13.3-3.861,18.934-5.206c9.224-2.202,16.518-3.933,17.876-7.68c1.087-2.989-1.158-8.166-6.865-15.831
							c-11.641-15.631-43.704-14.544-77.611-13.357c-19.979,0.672-40.586,1.387-57.633-1.459
							c-12.871-2.159-19.392-5.563-20.493-10.697c-1.702-7.951,10.654-16.203,21.552-23.496c4.033-2.703,7.851-5.249,9.496-6.965
							c3.718-3.847,11.055-5.091,18.162-6.278c6.35-1.073,12.914-2.188,14.358-4.948c0.186-0.343,0.743-1.43-0.429-3.918
							c-5.392-11.384-35.266-2.002-73.135,9.911l-9.024,2.832c-41.759,13.085-129.467,3.661-178.519-47.679
							c-10.64-11.126-14.258-17.719-12.07-22.038c3.318-6.65,19.063-4.691,45.177-1.373c29.746,3.761,70.447,8.852,109.831,2.674
							c36.339-5.735,44.748-13.357,45.391-18.749c1.044-8.595-16.975-18.119-23.997-21.065
							c-0.958-0.143-129.066-26.099-186.885-9.768c-32.434,9.224-50.025-7.179-56.088-14.63
							c-8.595-10.597-11.813-24.083-7.622-32.077c2.217-4.233,6.278-6.335,11.484-5.964c3.547,0.372,4.919-0.329,5.005-0.801
							c1.244-6.021-34.68-33.579-55.988-40.958c-6.822-2.374-19.564-5.563-33.035-8.938c-37.969-9.524-65.098-16.818-68.459-23.94
							c-0.543-1.144-0.558-2.331-0.043-3.432c1.559-3.275,4.533-6.664,7.694-10.268c7.25-8.266,14.73-16.803,8.638-26.257
							c-2.889-4.462-8.008-4.748-11.813-4.333c-14.401,1.888-33.95,18.177-41.73,42.188c-3.833,11.813-3.461,23.883-1.916,33.207
							c0.629,2.031,1.244,3.804,1.859,5.291c5.191,12.585,4.29,13.329,3.318,14.101l-1.03,0.844l-1.258-0.787
							c-1.23-0.844-4.562-8.209-6.378-18.663c-11.984-39.442-24.369-165.676-25.556-178.032
							c-22.739-17.562-60.893-42.388-68.301-35.767c-1.916,1.716-4.276,9.138,15.188,41.044
							c20.922,34.322,28.016,65.541,21.094,92.799c-8.123,31.92-32.449,46.349-33.479,46.95l-0.758,0.444l-0.815-0.329
							c-1.83-0.744-184.225-75.223-240.585-137.732c-15.945-17.705-21.294-29.746-16.332-36.825
							c11.098-15.888,71.004,4.147,86.421,10.368c12.327,4.991,35.681,17.891,60.422,31.562
							c33.107,18.277,70.618,38.999,83.517,41.416c7.093,1.416,12.556-2.131,14.144-8.795c2.345-9.811-4.919-28.573-34.422-37.211
							c-21.723-6.364-63.553-31.576-104.011-55.945c-47.436-28.573-96.403-57.919-110.847-56.103
							c-3.575,0.5-7.537,1.158-11.941,1.888c-29.617,4.905-79.199,13.071-158.783,2.045c-19.392-2.689-27.887-6.221-27.529-11.469
							c1.158-16.818,127.178-35.381,180.163-35.438c71.376-0.072,105.369,0,105.369,0v3.575c0-0.014-34.051-0.072-105.369,0
							c-61.937,0.057-175.816,20.765-176.602,32.105c-0.029,0.443,0.415,4.362,24.455,7.68
							c79.056,10.983,128.322,2.846,157.725-2.031c4.433-0.729,8.423-1.387,11.999-1.902c0.572-0.072,1.201-0.115,1.859-0.115
							c17.218,0,62.996,27.572,111.333,56.703c40.271,24.254,81.916,49.353,103.181,55.573c32.106,9.41,39.656,29.946,36.896,41.473
							c-2.031,8.523-9.41,13.157-18.277,11.484c-13.471-2.517-49.624-22.495-84.59-41.816c-24.641-13.6-47.908-26.457-60.035-31.362
							c-23.782-9.625-73.922-23.354-82.159-11.641c-2.617,3.747-1.945,12.399,16.074,32.377
							c53.843,59.75,224.854,130.897,238.425,136.474c4.076-2.646,24.154-16.904,31.104-44.347
							c6.65-26.285-0.315-56.56-20.708-89.996c-15.76-25.842-20.365-40.329-14.501-45.563
							c11.841-10.726,63.282,28.173,73.464,36.067l0.615,0.472l0.072,0.772c0.129,1.273,10.297,107,21.065,159.784
							c0.372-5.12,1.301-10.44,3.017-15.745c8.223-25.341,29.16-42.588,44.676-44.619c6.721-0.858,12.227,1.23,15.273,5.935
							c7.551,11.727-1.602,22.167-8.952,30.561c-2.989,3.404-5.806,6.621-7.151,9.439c2.932,6.521,40.972,16.06,66.142,22.367
							c14.144,3.547,26.357,6.621,33.336,9.038c17.361,6.021,60.45,34.751,58.305,45.048c-0.586,2.832-3.632,4.061-8.752,3.661
							c-3.833-0.286-6.507,1.087-8.066,4.047c-2.975,5.677-1.444,17.476,7.236,28.159c5.62,6.936,21.938,22.066,52.341,13.457
							c58.648-16.646,183.61,8.723,188.901,9.81c3.175,1.287,28.044,12.07,26.5,24.884c-1.173,9.753-17.004,16.89-48.395,21.838
							c-39.828,6.292-80.857,1.13-110.818-2.646c-21.123-2.688-39.328-4.962-41.544-0.572c-0.744,1.473-0.229,5.749,11.455,17.976
							c48.094,50.296,133.971,59.563,174.886,46.736l9.01-2.832c41.058-12.914,70.732-22.281,77.44-8.023
							c1.287,2.717,1.401,5.105,0.357,7.093c-2.26,4.333-9.381,5.534-16.932,6.807c-6.521,1.101-13.285,2.245-16.174,5.249
							c-1.916,1.974-5.706,4.519-10.096,7.451c-8.452,5.649-21.223,14.201-20.036,19.764c0.415,1.93,3.26,5.534,17.604,7.937
							c16.661,2.789,37.154,2.088,56.918,1.401c34.923-1.144,67.844-2.331,80.586,14.787c6.75,9.081,8.952,14.816,7.365,19.192
							c-2.016,5.549-9.739,7.394-20.407,9.939c-5.563,1.33-11.855,2.832-18.62,5.105
							C2290.876,3996.534,2074.188,4013.638,2064.978,4014.353z"/></g><path d="M2368.97,4026.03l-1303.954-739.153c-4.237-2.407-8.18-5.348-11.652-8.758
					c0.824-7.22,2.707-14.374,5.709-21.26c14.595-33.227,50.141-46.732,79.39-30.152c0.941,0.602,2.001,1.27,2.943,1.805
					L2368.97,4026.03z" opacity=".17"/><defs><path id="e" d="M1033.802,4130.458c3.119,6.151,9.946,8.424,15.478,5.282l193.56-109.71l1303.954-739.153
							c4.237-2.407,8.18-5.348,11.652-8.758c20.48-19.455,27.366-53.016,14.889-81.43c-14.595-33.227-50.14-46.732-79.389-30.152
							c-0.941,0.602-2.001,1.27-2.943,1.805l-1452.846,943.864C1032.507,4115.816,1030.565,4124.04,1033.802,4130.458z"/></defs><use fill="#d1904b" overflow="visible" xlink:href="#e"/><clipPath id="f"><use overflow="visible" xlink:href="#e"/></clipPath><g clip-path="url(#f)"><path fill="#833314" d="M1546.826,4014.353c-9.21-0.715-225.898-17.819-254.957-27.615
							c-6.764-2.274-13.057-3.775-18.62-5.105c-10.668-2.546-18.377-4.39-20.407-9.939c-1.587-4.376,0.615-10.111,7.379-19.192
							c12.756-17.133,45.677-15.989,80.572-14.787c19.764,0.687,40.243,1.387,56.918-1.401c14.344-2.403,17.19-6.007,17.604-7.937
							c1.187-5.563-11.584-14.115-20.036-19.764c-4.39-2.932-8.18-5.477-10.097-7.451c-2.889-3.003-9.639-4.147-16.174-5.249
							c-7.537-1.273-14.673-2.474-16.932-6.807c-1.044-1.988-0.915-4.376,0.358-7.093c6.721-14.215,36.367-4.905,77.468,8.037
							l8.981,2.817c41.015,12.828,126.806,3.532,174.901-46.736c11.684-12.227,12.184-16.503,11.455-17.976
							c-2.231-4.39-20.45-2.102-41.558,0.572c-29.932,3.776-70.961,8.938-110.818,2.646c-31.391-4.948-47.222-12.084-48.394-21.838
							c-1.545-12.813,23.325-23.596,26.171-24.783c5.62-1.201,130.596-26.471,189.23-9.91c30.432,8.623,46.75-6.55,52.356-13.457
							c8.681-10.683,10.211-22.481,7.236-28.159c-1.559-2.975-4.133-4.448-8.066-4.047c-5.163,0.4-8.18-0.829-8.767-3.661
							c-2.131-10.297,40.958-39.027,58.305-45.048c6.979-2.417,19.192-5.491,33.35-9.038c25.17-6.307,63.196-15.845,66.085-21.981
							c-1.302-3.203-4.119-6.421-7.093-9.825c-7.351-8.395-16.518-18.834-8.952-30.561c3.06-4.705,8.552-6.779,15.259-5.935
							c15.502,2.016,36.453,19.263,44.69,44.619c1.716,5.306,2.646,10.625,3.018,15.745
							c10.754-52.799,20.937-158.512,21.065-159.784l0.071-0.772l0.601-0.472c10.182-7.88,61.594-46.678,73.464-36.067
							c5.863,5.234,1.258,19.721-14.501,45.563c-20.407,33.464-27.372,63.768-20.693,90.053c6.979,27.472,27.014,41.658,31.09,44.29
							c13.557-5.577,184.582-76.725,238.44-136.474c18.019-19.978,18.677-28.63,16.06-32.377
							c-8.166-11.741-58.348,2.016-82.159,11.641c-12.127,4.905-35.395,17.761-60.035,31.362
							c-34.966,19.321-71.119,39.299-84.59,41.816c-8.938,1.673-16.246-2.96-18.277-11.484c-2.76-11.527,4.791-32.063,36.896-41.473
							c21.266-6.221,62.91-31.319,103.181-55.573c48.352-29.131,94.115-56.703,111.347-56.703c0.672,0,1.287,0.043,1.859,0.115
							c3.575,0.515,7.565,1.173,11.984,1.902c29.431,4.848,78.669,12.985,157.739,2.031c24.04-3.318,24.483-7.236,24.455-7.68
							c-0.787-11.341-114.665-32.048-176.602-32.105c-71.419-0.086-105.369,0-105.384,0v-3.575c0.014,0,33.965-0.072,105.384,0
							c52.985,0.057,179.005,18.62,180.163,35.438c0.357,5.249-8.137,8.781-27.529,11.469
							c-79.542,11.026-129.166,2.832-158.812-2.059c-4.39-0.715-8.352-1.373-11.913-1.874
							c-14.501-2.202-63.396,27.515-110.846,56.103c-40.472,24.369-82.302,49.582-104.025,55.945
							c-29.503,8.638-36.768,27.401-34.422,37.211c1.602,6.664,7.136,10.211,14.144,8.795c12.899-2.417,50.411-23.139,83.517-41.416
							c24.741-13.672,48.094-26.571,60.421-31.562c15.417-6.235,75.266-26.328,86.435-10.368c4.962,7.079-0.386,19.12-16.332,36.825
							c-56.374,62.509-238.768,136.989-240.599,137.732l-0.815,0.329l-0.758-0.444c-1.03-0.601-25.356-15.03-33.479-46.95
							c-6.922-27.258,0.172-58.477,21.094-92.799c19.464-31.905,17.104-39.327,15.188-41.044
							c-7.336-6.65-45.52,18.205-68.287,35.767c-1.187,12.356-13.586,138.619-25.57,178.047
							c-1.816,10.454-5.134,17.805-6.364,18.648l-1.101,0.758l-1.201-0.815c-0.958-0.772-1.859-1.516,3.332-14.101
							c0.601-1.473,1.215-3.246,1.845-5.263c1.559-9.324,1.931-21.408-1.902-33.235c-7.794-24.026-27.343-40.314-41.745-42.188
							c-3.904-0.486-8.91-0.157-11.798,4.333c-6.106,9.453,1.387,17.991,8.638,26.257c3.146,3.604,6.121,6.993,7.68,10.282
							c0.515,1.087,0.5,2.274-0.043,3.418c-3.346,7.122-30.49,14.415-68.459,23.94c-13.471,3.375-26.214,6.564-33.035,8.938
							c-21.308,7.379-57.218,34.937-55.974,40.944c0.1,0.486,1.53,1.187,5.005,0.815c5.191-0.386,9.267,1.73,11.484,5.964
							c4.19,7.994,0.972,21.48-7.622,32.077c-6.078,7.465-23.639,23.897-56.103,14.63c-57.833-16.389-185.926,9.61-187.214,9.868
							c-6.693,2.846-24.712,12.37-23.668,20.965c0.644,5.392,9.052,13.014,45.391,18.749c39.385,6.178,80.085,1.087,109.831-2.674
							c26.056-3.289,41.83-5.277,45.191,1.373c2.174,4.319-1.43,10.912-12.07,22.038c-49.052,51.298-136.745,60.736-178.533,47.679
							l-8.995-2.817c-37.869-11.927-67.758-21.308-73.164-9.925c-1.173,2.489-0.615,3.575-0.429,3.918
							c1.444,2.76,8.023,3.875,14.372,4.948c7.093,1.187,14.444,2.431,18.148,6.278c1.645,1.716,5.463,4.262,9.496,6.965
							c10.897,7.293,23.253,15.545,21.552,23.496c-1.101,5.134-7.622,8.538-20.493,10.697c-17.061,2.846-37.697,2.131-57.633,1.459
							c-33.936-1.201-65.97-2.288-77.597,13.357c-5.706,7.665-7.966,12.842-6.879,15.831c1.358,3.747,8.652,5.477,17.876,7.68
							c5.635,1.344,12.013,2.86,18.934,5.206c28.645,9.653,251.84,27.258,254.099,27.443L1546.826,4014.353z"/></g><path d="M1242.839,4026.03l1303.954-739.153c4.237-2.407,8.18-5.348,11.652-8.758
					c-0.824-7.22-2.707-14.374-5.709-21.26c-14.595-33.227-50.141-46.732-79.389-30.152c-0.942,0.602-2.001,1.27-2.943,1.805
					L1242.839,4026.03z" opacity=".17"/><path fill="#b26d32" d="M2999.978,3199.614v3.811c-197.475-38.354-636.803-65.041-1147.072-65.041
					c-446.262,0-838.241,20.413-1061.658,51.189l-196.687,10.041v49.332c0,61.062,563.38,110.562,1258.344,110.562
					s1258.345-49.5,1258.345-110.562v-49.332H2999.978z"/><path fill="#8abddf" d="M3111.363,3199.533c0,42.283-269.231,78.962-665.053,97.555
					c-107.998,5.094-225.42,8.914-349.466,10.952c-78.96,1.273-160.468,2.038-244.013,2.038h-9.679
					c-92.461,0-182.628-1.018-269.231-2.802c-109.781-2.038-214.467-5.604-311.259-9.934
					c-184.156-8.661-340.803-21.142-456.189-36.424c-133.979-17.575-211.921-38.717-211.921-61.386
					c0-59.857,543.046-108.761,1220.326-110.289c12.481-0.255,25.216-0.255,37.952-0.255c202.496,0,393.53,4.33,562.913,11.716
					c99.338,4.331,191.289,9.934,273.561,16.302c67.754,5.349,129.139,11.207,182.63,17.575
					c49.668,6.113,92.714,12.48,128.119,19.358h0.255c50.177,9.934,84.82,20.377,100.866,31.584
					C3107.797,3190.109,3111.363,3194.693,3111.363,3199.533z"/><path fill="#fff" d="M2415.744,3100.705l-1153.082,196.638
					c-184.156-8.661-340.803-21.142-456.189-36.424l1008.406-171.676c12.481-0.255,25.216-0.255,37.952-0.255
					C2055.328,3088.989,2246.362,3093.318,2415.744,3100.705z" opacity=".49"/><path fill="#fff" d="M2871.935,3134.582l-1028.782,175.497c-92.461,0-182.628-1.018-269.231-2.802
					l1115.383-190.271C2757.059,3122.356,2818.444,3128.214,2871.935,3134.582z" opacity=".49"/><path fill="#fff" d="M3101.175,3185.524l-654.865,111.564c-107.998,5.094-225.42,8.914-349.466,10.952
					l903.209-154.101h0.255C3050.486,3163.874,3085.128,3174.317,3101.175,3185.524z" opacity=".49"/><g><path fill="#dadae8" d="M1816.933,2826.448l-0.424,2.894l-50.552,361.979c-0.026,3.094-2.938,6.016-8.159,8.674
					c-9.415,4.784-26.33,8.572-47.052,10.61c-9.649,0.951-20.14,1.551-31.071,1.657c-2.666,0.027-5.377,0.053-8.087,0.031
					l-0.977-0.008c-3.199-0.027-6.308-0.102-9.418-0.226c-18.433-0.645-35.435-2.505-49.23-5.272
					c-3.282-0.666-6.387-1.379-9.269-2.091c-15.518-4.009-25.159-9.295-25.113-14.943l-44.899-365.67l137.74,1.146
					L1816.933,2826.448z"/><path fill="#dddded" d="M1803.591,2838.972l-13.303,95.294l-35.39,253.188c-0.462,0.25-1.039,0.626-1.845,1
					c-2.19,1.124-4.954,2.242-8.175,3.231c-0.805,0.12-1.61,0.367-2.416,0.614c-3.221,0.862-6.672,1.721-10.579,2.449
					c-1.955,0.364-3.909,0.729-5.978,1.093c-1.609,0.24-3.333,0.606-4.941,0.72c-0.575,0.122-1.035,0.245-1.609,0.24
					c-2.643,0.359-5.285,0.717-8.042,0.948c-0.46,0.123-1.035,0.245-1.608,0.24c-4.71,0.468-9.418,0.81-14.126,1.024
					c-5.282,0.337-10.677,0.419-15.957,0.501c-2.641,0.105-5.281,0.083-7.92,0.061l-1.033-0.009
					c-2.984-0.025-6.083-0.051-9.065-0.202c-17.67-0.654-34.184-2.314-47.59-5.09c-3.094-0.66-6.072-1.319-8.821-1.976
					c-10.078-2.621-14.649-5.07-16.476-6.227l-30.745-250.185l-12.146-99.058L1803.591,2838.972z"/><path fill="#acd0eb" d="M1790.287,2934.266l-35.39,253.188c-0.462,0.25-1.039,0.626-1.845,1
					c-1.613,0.748-3.457,1.621-5.528,2.238c-1.497,0.622-3.223,1.115-5.063,1.607c-6.328,1.851-14.145,3.308-23.107,4.502
					c-2.413,0.361-5.056,0.719-7.698,0.951c-0.575,0.122-1.263,0.116-1.953,0.238c-9.649,0.934-19.409,1.488-29.281,1.532
					l-0.803-0.007c-2.641,0.105-5.281,0.083-7.92,0.061l-0.574-0.005l-9.984-0.21c-17.555-0.653-33.839-2.311-47.13-5.086
					c-1.031-0.262-2.063-0.397-3.094-0.66c-1.948-0.396-3.894-0.921-5.728-1.316c-1.489-0.393-2.748-0.784-4.008-1.049
					c-1.259-0.391-2.519-0.782-3.548-1.172c-4.921-1.689-7.55-3.107-8.919-4.007l-30.745-250.185
					c4.603-1.358,9.663-2.584,15.065-3.554c5.519-1.095,11.492-1.807,17.693-2.136c20.31-1.079,39.753,4.515,59.738,7.295
					c44.085,6.132,86.203,0.576,130.173-2.289C1784.084,2934.976,1787.3,2934.623,1790.287,2934.266z"/><path fill="#acd0eb" d="M1747.525,3190.691c-8.519,3.101-21.05,5.534-35.868,7.06c-0.575,0.122-1.263,0.116-1.953,0.238
					c-9.649,0.934-19.409,1.488-29.281,1.532l-0.803-0.007c-2.641,0.105-5.281,0.083-7.92,0.061l-0.574-0.005l-9.984-0.21
					c-17.555-0.653-33.839-2.311-47.13-5.086c-1.031-0.262-2.063-0.397-3.094-0.66c-1.948-0.396-3.894-0.921-5.728-1.316
					c-1.489-0.393-2.748-0.784-4.008-1.049c-1.259-0.391-2.519-0.782-3.548-1.172c7.045-5.27,12.09-12.137,45.615-14.543
					C1666.576,3173.861,1728.264,3174.292,1747.525,3190.691z"/><path fill="#fff" d="M1591.606,2872.903c13.061,46.931,19.509,94.189,24.921,141.527
						c2.374,23.695,4.645,47.365,5.991,71.156l4.024,71.704c-10.969-21.875-17.613-45.585-22.673-69.086
						c-5.188-23.564-8.511-47.371-11.323-71.196C1587.876,2969.275,1585.746,2921.303,1591.606,2872.903z" opacity=".24"/><path d="M1785.228,2838.819c-7.624,74.916-25.839,250.223-40.351,352.865c-0.805,0.12-1.61,0.367-2.416,0.614
						c-3.221,0.862-6.672,1.721-10.579,2.449c-1.955,0.364-3.909,0.729-5.978,1.093c-1.609,0.24-3.333,0.606-4.941,0.72
						c14.248-98.585,33.2-279.594,41.082-357.934L1785.228,2838.819z" opacity=".35"/><path d="M1749.765,2838.524c-9.627,94.818-25.599,248.956-38.453,359.224c-0.46,0.123-1.035,0.245-1.608,0.24
						c-4.71,0.468-9.418,0.81-14.126,1.024c12.721-108.112,28.935-263.644,38.695-360.617L1749.765,2838.524z" opacity=".35"/></g><g><path fill="#d78c8c" d="M2011.114,2888.005c0,4.131-2.424,7.563-5.73,8.58v6.991h-13.334v-2.034
					c-17.521,3.559-50.47,5.974-88.378,5.974c-37.908,0-70.857-2.415-88.378-5.974v2.034h-13.334v-6.991
					c-1.763-0.572-3.251-1.78-4.242-3.432c-0.937-1.462-1.488-3.241-1.488-5.148c0-4.957,3.471-8.961,7.769-8.961h0.496v-34.956
					c0-5.275,44.41-9.533,99.178-9.533c52.84,0,96.037,3.94,99.012,8.961c0.11,0.191,0.166,0.382,0.166,0.572v34.956h0.496
					C2007.643,2879.044,2011.114,2883.048,2011.114,2888.005z"/><path d="M2011.114,2888.005c0,4.131-2.424,7.563-5.73,8.58v6.991h-13.334v-2.034
					c-17.521,3.559-50.47,5.974-88.378,5.974c-37.908,0-70.857-2.415-88.378-5.974v2.034h-13.334v-6.991
					c-1.763-0.572-3.251-1.78-4.242-3.432c16.915-13.474,44.41-29.236,79.067-27.011c48.101,3.051,97.58,1.017,125.901-22.627
					c0.11,0.191,0.166,0.382,0.166,0.572v34.956h0.496C2007.643,2879.044,2011.114,2883.048,2011.114,2888.005z" opacity=".3"/><path fill="#d78c8c" d="M1992.047,3202.721v1.691c-17.499-2.954-50.485-4.95-88.375-4.95
					c-37.891,0-70.877,1.996-88.375,4.95v-1.691h-13.328v6.518c0,5.399,45.534,9.776,101.703,9.776
					c56.169,0,101.703-4.377,101.703-9.776v-6.518H1992.047z"/><path fill="#d4d4d4" d="M2005.384,2897.476v305.453c-0.055,2.733-11.296,5.021-29.423,6.737
					c-1.543,0.19-3.141,0.318-4.793,0.445c-4.683,0.445-9.753,0.762-15.152,1.017c-0.881,0.064-1.818,0.127-2.755,0.191
					c-2.479,0.127-5.014,0.254-7.604,0.318c-12.783,0.572-26.999,0.89-41.985,0.89c-28.046,0-53.446-1.081-71.849-2.796
					c-18.403-1.716-29.809-4.068-29.864-6.801v-305.453c0-5.339,45.567-9.724,101.713-9.724c28.266,0,53.887,1.08,72.29,2.924
					C1994.143,2892.454,2005.384,2894.806,2005.384,2897.476z"/><path fill="#db330c" d="M1915.356,3174.919l0.044,0.284c1.352,8.79-3.703,17.137-11.282,18.689l-27.901,5.711
							c-0.785-1.253-1.446-2.531-2.074-3.865c-4.037-8.387-4.881-17.72-2.641-27.88l27.738-5.678c3.81-0.78,7.487,0.32,10.423,2.644
							C1912.515,3167.165,1914.612,3170.635,1915.356,3174.919z"/><path fill="#6317a1" d="M1874.142,3195.737c0.628,1.334,1.289,2.612,2.074,3.865l-34.088,6.978
							c-3.81,0.78-7.521-0.264-10.464-2.636c-0.876-0.747-1.677-1.558-2.417-2.528c-1.682-2.142-2.856-4.827-3.328-7.898
							c-1.345-8.743,3.71-17.091,11.331-18.65l34.252-7.011C1869.26,3178.017,1870.105,3187.35,1874.142,3195.737z"/><path d="M1915.356,3174.919l0.044,0.284c1.352,8.79-3.703,17.137-11.282,18.689l-61.99,12.688
						c-3.81,0.78-7.521-0.264-10.464-2.636c-0.876-0.747-1.677-1.558-2.417-2.528c5.715,0.341,16.457,0.385,30.018-2.391
						c4.835-0.99,9.9-2.124,14.877-3.289c16.241-3.763,31.535-7.917,33.746-9.199
						C1910.059,3185.265,1913.542,3179.336,1915.356,3174.919z" opacity=".78"/><path fill="#fff" d="M1831.831,3186.142c4.11-5.229,11.081-6.886,17.073-8.965
							c6.232-1.909,12.533-3.494,18.871-4.953c6.4-1.162,12.83-2.156,19.309-2.809c6.278-0.333,13.454-1.936,19.135,1.5
							c-5.848-2.423-12.67-0.209-18.924,0.21c-6.379,0.93-12.71,2.218-19.002,3.633c-6.344,1.164-12.681,2.46-18.916,4.07
							C1843.391,3180.816,1836.508,3181.756,1831.831,3186.142z" opacity=".5"/><path fill="#db330c" d="M1979.875,3047.205l0.202,0.17c6.246,5.272,7.598,15.334,3.052,22.5l-16.733,26.38
							c-1.318-0.28-2.562-0.675-3.815-1.138c-7.944-2.839-14.149-8.908-18.62-18.034l16.635-26.225
							c2.285-3.602,5.601-5.74,9.114-6.403C1973.175,3043.869,1976.771,3044.703,1979.875,3047.205z"/><path fill="#6317a1" d="M1962.582,3095.116c1.253,0.463,2.497,0.859,3.815,1.138l-20.443,32.229
							c-2.285,3.603-5.592,5.808-9.139,6.442c-1.08,0.159-2.145,0.212-3.262,0.102c-2.499-0.206-4.956-1.209-7.139-3.051
							c-6.213-5.243-7.565-15.305-2.994-22.51l20.541-32.384C1948.433,3086.208,1954.637,3092.278,1962.582,3095.116z"/><path d="M1979.875,3047.205l0.202,0.17c6.246,5.272,7.598,15.334,3.052,22.5l-37.176,58.609
						c-2.285,3.603-5.592,5.808-9.139,6.442c-1.08,0.159-2.145,0.212-3.262,0.102c4.333-4.312,12.12-12.848,20.252-25.67
						c2.899-4.571,5.879-9.431,8.776-14.242c9.477-15.673,18.035-30.872,18.865-33.562
						C1982.251,3058.904,1981.213,3051.842,1979.875,3047.205z" opacity=".78"/><path fill="#fff" d="M1926.264,3121.932c-0.164-7.191,3.75-13.693,6.791-19.951
							c3.296-6.279,6.847-12.399,10.502-18.463c3.91-5.904,7.947-11.722,12.234-17.366c4.418-5.287,8.367-12.056,15.085-14.552
							c-6.052,3.273-9.355,10.234-13.691,15.566c-4.023,5.769-7.783,11.726-11.442,17.736c-3.876,5.873-7.662,11.821-11.181,17.903
							C1931.455,3108.996,1927.082,3114.987,1926.264,3121.932z" opacity=".5"/><path fill="#f0ca33" d="M1992.851,3188.304l-0.099,0.265c-3.062,8.199-11.264,11.963-18.334,8.45l-26.025-12.932
							c-0.058-1.544,0-3.031,0.111-4.544c0.628-9.566,4.373-17.896,11.089-24.959l25.872,12.857c3.554,1.766,6.1,5.017,7.444,8.821
							C1994.176,3180.026,1994.273,3184.255,1992.851,3188.304z"/><path fill="#4259d5" d="M1948.505,3179.543c-0.112,1.512-0.169,3-0.111,4.544l-31.796-15.8
							c-3.554-1.766-6.155-4.992-7.482-8.84c-0.375-1.179-0.658-2.365-0.814-3.645c-0.383-2.855-0.083-5.842,0.987-8.708
							c3.046-8.156,11.248-11.919,18.356-8.387l31.948,15.876C1952.878,3161.646,1949.132,3169.977,1948.505,3179.543z"/><path d="M1992.851,3188.304l-0.099,0.265c-3.062,8.199-11.264,11.963-18.334,8.45l-57.821-28.732
						c-3.554-1.766-6.155-4.992-7.482-8.84c-0.375-1.179-0.658-2.365-0.814-3.645c4.61,3.911,13.56,10.763,26.21,17.049
						c4.509,2.241,9.281,4.507,13.993,6.692c15.358,7.161,30.111,13.395,32.569,13.728
						C1983.494,3193.585,1989.23,3190.843,1992.851,3188.304z" opacity=".78"/><path fill="#fff" d="M1917.744,3144.685c6.547-1.667,13.183,1.529,19.264,3.64
							c6.183,2.411,12.225,5.106,18.222,7.924c5.864,3.08,11.636,6.338,17.253,9.86c5.319,3.639,11.881,6.893,14.647,13.054
							c-3.508-5.455-10.178-8.02-15.532-11.575c-5.711-3.245-11.587-6.209-17.525-9.025c-5.819-3.054-11.715-5.999-17.719-8.649
							C1930.327,3147.733,1924.208,3144.032,1917.744,3144.685z" opacity=".5"/><path fill="#f0ca33" d="M1893.102,3099.567l-0.082,0.221c-2.554,6.838-9.393,9.976-15.289,7.047l-21.703-10.785
							c-0.048-1.288,0-2.528,0.093-3.789c0.523-7.977,3.647-14.924,9.247-20.814l21.576,10.721c2.964,1.473,5.087,4.184,6.208,7.356
							C1894.207,3092.664,1894.288,3096.19,1893.102,3099.567z"/><path fill="#4259d5" d="M1856.12,3092.26c-0.093,1.261-0.141,2.501-0.093,3.789l-26.515-13.176
							c-2.964-1.473-5.133-4.163-6.239-7.372c-0.313-0.983-0.548-1.972-0.678-3.039c-0.32-2.381-0.07-4.872,0.823-7.262
							c2.54-6.801,9.38-9.94,15.307-6.994l26.643,13.24C1859.767,3077.336,1856.644,3084.283,1856.12,3092.26z"/><path d="M1893.102,3099.567l-0.082,0.221c-2.554,6.838-9.393,9.976-15.289,7.047l-48.219-23.961
						c-2.964-1.473-5.133-4.163-6.239-7.372c-0.313-0.983-0.548-1.972-0.678-3.039c3.845,3.262,11.308,8.975,21.857,14.217
						c3.761,1.869,7.74,3.759,11.669,5.581c12.808,5.972,25.111,11.171,27.161,11.448
						C1885.299,3103.971,1890.083,3101.684,1893.102,3099.567z" opacity=".78"/><g opacity=".5"><path fill="#fff" d="M1830.469,3063.191c5.459-1.389,10.993,1.276,16.064,3.036
							c5.157,2.01,10.196,4.258,15.196,6.608c4.891,2.568,9.704,5.285,14.389,8.222c4.435,3.035,9.908,5.748,12.214,10.886
							c-2.926-4.549-8.488-6.688-12.952-9.653c-4.762-2.707-9.662-5.179-14.615-7.527c-4.853-2.546-9.769-5.003-14.776-7.213
							C1840.962,3065.733,1835.858,3062.647,1830.469,3063.191z"/></g><g><path fill="#db330c" d="M1912.745,3113.18l0.114,0.257c3.532,7.944,0.826,17.636-6.024,21.688l-25.215,14.915
							c-1.069-0.932-2.027-1.93-2.967-2.992c-5.995-6.649-9.179-15.284-9.625-25.754l25.067-14.828
							c3.443-2.037,7.238-2.232,10.636-1.005C1908.054,3106.731,1910.943,3109.338,1912.745,3113.18z"/><path fill="#f0ca33" d="M1878.652,3147.048c0.94,1.062,1.898,2.06,2.967,2.992l-30.806,18.222
							c-3.444,2.037-7.256,2.296-10.673,1.027c-1.027-0.417-2-0.921-2.954-1.597c-2.153-1.477-3.959-3.646-5.193-6.422
							c-3.513-7.902-0.807-17.593,6.08-21.667l30.954-18.31C1869.473,3131.764,1872.657,3140.399,1878.652,3147.048z"/><path d="M1912.745,3113.18l0.114,0.257c3.532,7.944,0.826,17.636-6.024,21.688l-56.021,33.138
						c-3.444,2.037-7.256,2.296-10.673,1.027c-1.027-0.417-2-0.921-2.954-1.597c5.55-1.611,15.828-5.209,28.084-12.458
						c4.369-2.584,8.922-5.386,13.383-8.186c14.566-9.102,28.126-18.255,29.914-20.23
						C1910.317,3124.865,1912.136,3118.018,1912.745,3113.18z" opacity=".78"/><g opacity=".5"><path fill="#fff" d="M1835.765,3152.216c2.519-6.326,8.646-10.221,13.804-14.229
							c5.419-3.917,11.005-7.558,16.665-11.094c5.815-3.276,11.709-6.412,17.755-9.251c5.974-2.451,12.335-6.48,19.002-5.192
							c-6.472-0.281-12.314,4.209-18.235,6.735c-5.866,3.068-11.571,6.452-17.205,9.933c-5.764,3.262-11.479,6.642-17.002,10.279
							C1845.368,3143.315,1839.079,3146.521,1835.765,3152.216z"/></g></g><g><path fill="#6317a1" d="M1966.466,3021.967l0.114,0.256c3.532,7.944,0.826,17.636-6.024,21.688l-25.215,14.915
							c-1.069-0.932-2.027-1.93-2.967-2.992c-5.995-6.649-9.179-15.284-9.626-25.754l25.067-14.828
							c3.443-2.037,7.238-2.232,10.636-1.005C1961.776,3015.517,1964.665,3018.124,1966.466,3021.967z"/><path fill="#f0ca33" d="M1932.374,3055.834c0.94,1.062,1.898,2.06,2.967,2.992l-30.806,18.222
							c-3.443,2.037-7.256,2.296-10.673,1.027c-1.027-0.417-1.999-0.921-2.954-1.597c-2.153-1.477-3.959-3.646-5.193-6.422
							c-3.513-7.901-0.807-17.593,6.08-21.667l30.954-18.31C1923.195,3040.55,1926.379,3049.185,1932.374,3055.834z"/><path d="M1966.466,3021.967l0.114,0.256c3.532,7.944,0.826,17.636-6.024,21.688l-56.021,33.138
						c-3.443,2.037-7.256,2.296-10.673,1.027c-1.027-0.417-1.999-0.921-2.954-1.597c5.55-1.611,15.828-5.209,28.084-12.459
						c4.369-2.584,8.922-5.386,13.383-8.186c14.566-9.102,28.126-18.255,29.914-20.23
						C1964.039,3033.652,1965.858,3026.804,1966.466,3021.967z" opacity=".78"/><g opacity=".5"><path fill="#fff" d="M1889.487,3061.002c2.519-6.326,8.645-10.221,13.803-14.229
							c5.419-3.917,11.006-7.558,16.665-11.094c5.815-3.275,11.709-6.412,17.756-9.251c5.973-2.451,12.335-6.479,19.001-5.192
							c-6.472-0.281-12.314,4.209-18.235,6.735c-5.865,3.068-11.571,6.452-17.205,9.933c-5.764,3.262-11.479,6.642-17.002,10.279
							C1899.09,3052.101,1892.8,3055.307,1889.487,3061.002z"/></g></g><rect width="74.824" height="199.949" x="1801.958" y="2946.16" fill="#fff"/><g><path fill="#4259d5" d="M1801.958,2979.591v1.525h54.879v130.037h-54.879v1.589h56.256v-133.151H1801.958z"/></g><path d="M2005.384,2897.476v305.262c-0.055,2.733-11.296,5.084-29.423,6.864v-318.927
					C1994.143,2892.454,2005.384,2894.806,2005.384,2897.476z" opacity=".51"/><path d="M1971.167,2890.23v319.817c-4.683,0.445-9.753,0.763-15.152,1.08V2890.23H1971.167z" opacity=".51"/><path d="M1953.26,2890.23v321.088c-2.479,0.127-5.014,0.254-7.604,0.318V2890.23H1953.26z" opacity=".51"/><g><path fill="#fff" d="M1818.959,3185.441c-3.79,0-6.865-3.075-6.865-6.865v-271.06c0-3.79,3.075-6.865,6.865-6.865
						c3.79,0,6.864,3.075,6.864,6.865v271.06C1825.823,3182.367,1822.749,3185.441,1818.959,3185.441z"/></g><g><path fill="#fff" d="M1894.344,2911.675c5.672,45.177,6.045,90.353,6.856,135.53
						c-0.796,45.177-1.141,90.353-6.856,135.53c-5.716-45.177-6.061-90.354-6.856-135.53
						C1888.3,3002.028,1888.673,2956.851,1894.344,2911.675z"/></g></g><g><path fill="#d1908e" d="M1322.096,3209.704h-221.631c-15.68,0-28.391-12.711-28.391-28.391v-33.076h278.413v33.076
					C1350.487,3196.993,1337.776,3209.704,1322.096,3209.704z"/><path fill="#f0dfd0" d="M1351.231,3148.229h-279.125c-45.936-42.06-93.547-104.107-74.646-195.215
					c13.478-64.99,47.69-118.085,76.4-167.87c28.232-48.926,61.089-100.428,75.524-163.578
					c20.336-89.514-73.689-246.593-73.689-248.187c0-9.688,58.536-17.536,134.458-17.536c75.842,0,137.409,7.848,137.409,17.536
					c0,1.594-94.025,158.673-73.609,248.187c14.355,63.15,47.212,114.651,75.444,163.578c28.71,49.785,62.922,102.88,76.48,167.87
					C1444.778,3044.121,1397.088,3106.168,1351.231,3148.229z"/><path d="M1351.231,3148.229h-279.125c0,0,210.779-65.849,256.875-125.075
					c46.016-59.227-19.458-141.016-62.045-324.949c-42.507-183.934,80.627-324.826,80.627-324.826
					c0,1.594-94.025,158.673-73.609,248.187c14.355,63.15,47.212,114.651,75.444,163.578c28.71,49.785,62.922,102.88,76.48,167.87
					C1444.778,3044.121,1397.088,3106.168,1351.231,3148.229z" opacity=".17"/><path fill="#fff" d="M1139.504,2425.803c22.55,47.739,36.913,99.512,42.353,152.863
						c3.016,26.68,2.504,53.857-0.889,80.971c-3.837,27.226-13.684,53.643-23.455,77.821
						c-20.424,49.004-44.149,95.796-65.354,143.202c-10.516,23.706-20.074,47.822-26.115,72.726
						c-6.669,24.678-9.048,50.887-0.825,76.155c-13.572-23.155-14.085-51.988-11.064-78.394
						c3.887-26.673,11.758-52.341,20.35-77.465c17.526-50.208,40.758-97.483,60.201-145.613
						c10.264-24.262,18.929-47.33,23.259-72.14c4.462-24.832,5.22-50.379,5.035-76.064c-0.418-25.713-3.232-51.55-7.569-77.19
						C1151.857,2476.833,1145.93,2451.364,1139.504,2425.803z" opacity=".59"/><path fill="#fff" d="M1114.902,3078.494c29.151-12.311,58.226-24.529,85.892-39.244
						c27.052-14.176,56.776-29.853,72.977-51.746c0.935-2.672,3.792-5.42,3.434-7.749c0.363-2.107,1.048-4.422,0.253-8.359
						c-0.625-6.836-1.999-14.385-3.742-21.786c-3.317-14.885-7.71-29.964-12.071-45.052c-8.807-30.198-17.943-60.62-25.671-91.594
						c-7.051-31.126-12.79-62.794-15.225-95.082c-2.435-32.707-0.447-64.547,1.821-95.933c2.403-31.584,4.985-63.49,11.812-94.94
						c7.462-31.249,19.713-61.667,38.534-87.219c-29.619,56.872-31.035,120.315-31.375,182.868
						c0.705,31.644-1.867,63.03,1.586,93.266c3.01,30.624,9.333,61.097,16.833,91.35c6.837,30.444,15.143,60.699,23.288,91.288
						c4.035,15.324,8.135,30.663,11.316,46.663c1.578,7.994,3.176,16.032,3.444,24.939c0.543,3.992-0.196,9.411-1.815,14.998
						c-1.042,5.759-4.637,8.847-6.987,13.248c-24.155,27.35-54.303,38.772-83.426,51.787
						C1175.917,3061.438,1145.813,3071.452,1114.902,3078.494z" opacity=".59"/></g></g><g><defs><path id="g" d="M2578.008,4130.458c-3.119,6.151-9.946,8.424-15.478,5.282l-193.56-109.71l-1303.954-739.153
					c-4.237-2.407-8.18-5.348-11.652-8.758c-20.48-19.455-27.366-53.016-14.889-81.43c14.595-33.227,50.141-46.732,79.39-30.152
					c0.941,0.602,2.001,1.27,2.943,1.805l1452.846,943.864C2579.302,4115.816,2581.244,4124.04,2578.008,4130.458z"/></defs><defs><path id="h" d="M1033.802,4130.458c3.119,6.151,9.946,8.424,15.478,5.282l193.56-109.71l1303.954-739.153
					c4.237-2.407,8.18-5.348,11.652-8.758c20.48-19.455,27.366-53.016,14.889-81.43c-14.595-33.227-50.14-46.732-79.389-30.152
					c-0.941,0.602-2.001,1.27-2.943,1.805l-1452.846,943.864C1032.507,4115.816,1030.565,4124.04,1033.802,4130.458z"/></defs></g></svg>