<svg xmlns="http://www.w3.org/2000/svg" viewBox="0 0 600 400"><g style="isolation:isolate"><path fill="#eaf5fa" d="M537.54,364.9H52s-25.78-86.32-3.63-125.26c26.85-47.21,50.14-31.17,62-50.18C125.93,164.29,137.05,55,226.25,55c85.14,0,94.61,96.47,113.3,96.47,23.78,0,77.09-26.69,136.11-4.55C591.54,190.44,537.54,364.9,537.54,364.9Z"/><path d="M429.07,299.44c55.84,1.65,95.75-7.56,121-16.61,1-51.56-12.24-112.56-74.39-135.89-1.45-.54-2.89-1-4.33-1.53a181.1,181.1,0,0,1-64.65,44.65c-66.6,26.82-144.9-1.28-228.8,16.31C111.78,220.22,63.14,249,40.61,264.42a158.86,158.86,0,0,0-.92,30.92c21.07-20.25,87.28-51.81,143.91-56.5C287.18,230.28,338.35,296.75,429.07,299.44Z" style="mix-blend-mode:screen" fill="#eaf5fa" opacity=".5"/><path d="M223.77,152.56c46.4,7.05,83,4.48,110.25-3.9-4.52-4.52-9-14-14.87-25.37-19.12,12.62-49.31,18.64-97,6.74-35.41-8.83-63.86-9.78-86.68-6.45-7.28,16.18-12.36,32.45-16.74,45.33C146.27,155.57,181.91,146.2,223.77,152.56Z" style="mix-blend-mode:screen" fill="#eaf5fa" opacity=".5"/><path fill="#33210a" d="M409.93,364.9H510.5c.45-9.19-1.57-16.48-1.06-25.67H413C413.46,346.33,410.34,352.07,409.93,364.9Z"/><path fill="#9e695c" d="M478.52,217.6l-8.27-1.87a5.72,5.72,0,0,1-2.24-2,4.94,4.94,0,0,1-.72-2.54v-2.21l-17.67-.07v2.42a5,5,0,0,1-3.23,4.69l-7.07,1.2C451.18,234.29,463,236,478.52,217.6Z"/><path d="M449.62,211.56c3.69,1.33,13.95,1.3,17.67,0V204H449.62Z" style="mix-blend-mode:multiply" fill="#9e695c" opacity=".2"/><path fill="#33210a" d="M417.33,155a4.06,4.06,0,0,0,2.81,2.55,1.43,1.43,0,0,0-.45,1,2,2,0,0,0,.13.71,3,3,0,0,0-.6,1.22,3.58,3.58,0,0,0,2.23,3.87,4.41,4.41,0,0,0-1.62,4.38,4.49,4.49,0,0,0,3.42,3.23,3.06,3.06,0,0,0-.44,3,4.36,4.36,0,0,0,3.29,2.47,2.08,2.08,0,0,0-.24,1.64c.31,1.19,1.53,1.83,2.6,2.27a6.92,6.92,0,0,1,1.93,1c.42.36.71.84,1.12,1.2.1.51.21,1,.34,1.5l54.66.12c.37-.85,1.14-2.32,1.72-3.39a6.47,6.47,0,0,0,1.8-4.12,4.24,4.24,0,0,0,3.17-2,4,4,0,0,0,.15-3.65,4,4,0,0,0,2.43-5.75,4,4,0,0,0,1.88-5.59,5.23,5.23,0,0,0,1.73-5.79,4,4,0,0,0,1.73-1.34,4.14,4.14,0,0,0,1-2.31,1.23,1.23,0,0,0-.53-1,3.28,3.28,0,0,0,1.86-3.62,2.62,2.62,0,0,0-1.32-1.92,1.8,1.8,0,0,0-.83-.19,4.87,4.87,0,0,0,.26-4.75c-.8-1.69-2.68-2.94-4.48-2.26a4.69,4.69,0,0,0-1.34-5.68,4.26,4.26,0,0,0-3-.95,2.24,2.24,0,0,0-1.31.65c-.29-1.61-2-2.73-3.6-3a4.28,4.28,0,0,0-3.22.56,2.7,2.7,0,0,0-.85,1,3.31,3.31,0,0,0-6-.92A4.24,4.24,0,0,0,475,125a3.28,3.28,0,0,0-4,1.62,2.36,2.36,0,0,0-1-1.22,3,3,0,0,0-2.82-.08,5.29,5.29,0,0,0-1.15.7,2.47,2.47,0,0,0-.89-2,1.24,1.24,0,0,0-1.85.42,3.49,3.49,0,0,0-2.66-2,2.69,2.69,0,0,0-2,.55,2.83,2.83,0,0,0-.54.59,3.14,3.14,0,0,0-.43-.41,3.32,3.32,0,0,0-4,0,3.25,3.25,0,0,0-1.17,2.36,1.71,1.71,0,0,0-2,.13,2,2,0,0,0-.73,1.16,2.46,2.46,0,0,0-.47,0,2.21,2.21,0,0,0-2,1.77,3.84,3.84,0,0,0-6.83,2.58,5.08,5.08,0,0,0-4.78-2.05,2.22,2.22,0,0,0-1.88,1.77,3.4,3.4,0,0,0,.34,1.92,2.18,2.18,0,0,0-2.24.27c-1.29,1-1.23,2.7-.67,4.09a1.39,1.39,0,0,0-1.18.62,3.73,3.73,0,0,0-.68,2,3.22,3.22,0,0,0-3.68-1.42,3.3,3.3,0,0,0-2,3.73,2.17,2.17,0,0,0-2.35.3c-1.08.91-.9,2.44-.41,3.65a2,2,0,0,0-2.18.6,2.49,2.49,0,0,0-.11,2.76,1.17,1.17,0,0,0-.52.05,1.43,1.43,0,0,0-.89,1.22,2.8,2.8,0,0,0,.93,2.4l-.2.08A1.47,1.47,0,0,0,417.33,155Z"/><path fill="#9e695c" d="M429.32,180.6a3.85,3.85,0,0,0,2.54.38,4.24,4.24,0,0,0,2.88-2.9,7.45,7.45,0,0,0,.28-3.57,4.73,4.73,0,0,0,3.48-1.66,3.89,3.89,0,0,0,.71-3.21,6.1,6.1,0,0,0,3.66-.41,3.87,3.87,0,0,0,2-2.66,7.55,7.55,0,0,0,4.06,1.33,4.45,4.45,0,0,0,3.56-1.62,5.14,5.14,0,0,0,4.5,2.48,5,5,0,0,0,4.06-2.71,4.13,4.13,0,0,0,3.28.67,5,5,0,0,0,3.34-2.28,5,5,0,0,0,3.72.27,4.89,4.89,0,0,0,2.25-1.51,4.45,4.45,0,0,0,4,2.38,8,8,0,0,0,4.39,6.94,6.08,6.08,0,0,0,.23,3.56,4.5,4.5,0,0,0,2.41,2.77,5.27,5.27,0,0,0,.88,2.29.34.34,0,0,0,.45.12l.34-.23h0a5.91,5.91,0,0,1,.93-.49l.14,0a4.75,4.75,0,1,1-1.1,9.31c-2.81,14.3-16.3,21.4-27.46,21.4-11.72,0-28.43-8.5-27.44-21.33a4.73,4.73,0,0,1-2.15,0,4.84,4.84,0,0,1-3.8-4.81A4.79,4.79,0,0,1,429.32,180.6Z"/><path fill="#8e594f" d="M487.41,187.12c.06.32.56.18.5-.14a4.31,4.31,0,0,1,0-1.64h.41l.09,0,.17,0h0l.06,0,.1.06h0l0,0,.05,0,0,0s0,.07,0,0l.07.11,0,.05h0l.06.22v.05s0,0,0,.06a.49.49,0,0,1,0,.12v.08a.31.31,0,0,1,0,.13s0,.08,0,.13h0l0,.06-.07.12,0,0c0-.06,0,0,0,0a.25.25,0,0,0,0,.36.26.26,0,0,0,.36,0,1.55,1.55,0,0,0,.36-.68,1.37,1.37,0,0,0-.3-1.27,1.5,1.5,0,0,0-1.18-.43,3.13,3.13,0,0,1,1-1.25.26.26,0,0,0-.26-.44,3.75,3.75,0,0,0-1.32,1.66A4.32,4.32,0,0,0,487.41,187.12Zm.92-1.78Z"/><path fill="#ff7a5a" d="M429.28,186.06Z"/><path fill="#8e594f" d="M428.77,185.94a1.32,1.32,0,0,1,.86-1,2,2,0,0,1,.65-.09,3.2,3.2,0,0,0-1-1.25.25.25,0,0,1-.1-.34.26.26,0,0,1,.36-.09,3.65,3.65,0,0,1,1.32,1.66,4.38,4.38,0,0,1,.13,2.3c0,.32-.55.19-.5-.13a4.12,4.12,0,0,0,0-1.64H430l-.17,0-.07,0h0l-.13.06-.05,0h0a.47.47,0,0,0-.1.1l0,0v0a.41.41,0,0,0-.07.11v0s0,0,0,0l0,.13a.64.64,0,0,1,0,.07h0a0,0,0,0,0,0,0v.13s0,.08,0,.12h0s0,0,0,.08l0,.14a.14.14,0,0,0,0,.06c0-.06,0,0,0,0a.54.54,0,0,0,.07.13l0,.06h0l0,0a.26.26,0,0,1,0,.36.28.28,0,0,1-.37,0A1.61,1.61,0,0,1,428.77,185.94Z"/><path fill="#33210a" d="M467.8,186a1.12,1.12,0,1,0,1.11-1.3A1.21,1.21,0,0,0,467.8,186Z"/><path fill="#33210a" d="M447.54,186a1.12,1.12,0,1,0,1.11-1.3A1.21,1.21,0,0,0,447.54,186Z"/><path fill="#8e594f" d="M461.12,189.55a2.46,2.46,0,0,1-.37,2.75,2.29,2.29,0,0,1-2.52.3,3.67,3.67,0,0,1-1.46-1.3c-.19-.26.26-.52.44-.25a2.71,2.71,0,0,0,2.19,1.29,1.49,1.49,0,0,0,1.41-1.16,2.51,2.51,0,0,0-.19-1.5c-.12-.3.38-.43.5-.13Z"/><path d="M470.46,194.11a5.77,5.77,0,1,0,5.77-5.62A5.7,5.7,0,0,0,470.46,194.11Z" style="mix-blend-mode:multiply" fill="#9e695c" opacity=".15"/><path d="M434.64,194.15a5.77,5.77,0,1,0,5.77-5.62A5.69,5.69,0,0,0,434.64,194.15Z" style="mix-blend-mode:multiply" fill="#9e695c" opacity=".15"/><path fill="#33210a" d="M466.09,173.59c3-.42,7.23,1,8.85,1.71s1.21,2-.33,1.61a50,50,0,0,0-8.48-.82A1.25,1.25,0,0,1,466.09,173.59Z"/><path fill="#33210a" d="M451.22,173.52c-3,0-7.05,2-8.56,2.91s-1,2.12.51,1.55a49.92,49.92,0,0,1,8.31-2A1.25,1.25,0,0,0,451.22,173.52Z"/><path fill="#241707" d="M438.91,169.47a4,4,0,0,1-3-2.25h.3a3.35,3.35,0,0,1-3.61,1.62,4.24,4.24,0,0,1-3.11-3.09l.35-.05c-.06,1.62-2.12,2-3.36,1.56a3.07,3.07,0,0,1-1.95-3.63c.05-.23.39-.13.34.09a2.72,2.72,0,0,0,1.44,3.09c1,.48,3.11.39,3.17-1.11a.18.18,0,0,1,.35,0,4,4,0,0,0,2.72,2.82,3,3,0,0,0,3.36-1.43.17.17,0,0,1,.3,0,3.69,3.69,0,0,0,2.82,2.08c.23,0,.13.38-.09.35Z"/><path fill="#241707" d="M473.49,162.64a5.48,5.48,0,0,0,1.2-6.24.18.18,0,0,1,.24-.25c1.85.95,3.38-1.47,3.56-3a4.41,4.41,0,0,0-2.33-4.34c-.2-.11,0-.42.18-.31a4.75,4.75,0,0,1,2.41,5.21c-.38,1.66-2.12,3.72-4,2.75l.25-.24a5.86,5.86,0,0,1-1.26,6.67c-.17.16-.42-.1-.25-.25Z"/><path fill="#241707" d="M452.41,166.1a4.07,4.07,0,0,1,.19-3.76l.15.27a3,3,0,0,1-2.72-2.07,2.86,2.86,0,0,1,1.29-3.13l.14.32a3.37,3.37,0,0,1-4.5-4,.18.18,0,0,1,.35.09,3,3,0,0,0,4.05,3.61c.2-.08.31.22.14.33a2.49,2.49,0,0,0-1.13,2.72,2.58,2.58,0,0,0,2.38,1.81.18.18,0,0,1,.16.27,3.69,3.69,0,0,0-.19,3.4c.09.21-.21.39-.31.18Z"/><path fill="#241707" d="M458.38,130a3.7,3.7,0,0,0-1.22,3.83.18.18,0,0,1-.26.2,2.24,2.24,0,0,0-2.63.18,2.08,2.08,0,0,0-.36,2.54.18.18,0,0,1-.24.24,3.94,3.94,0,0,0-4.29.41,3.11,3.11,0,0,0-.7,3.78c.12.2-.19.39-.3.18a3.45,3.45,0,0,1,.75-4.21,4.3,4.3,0,0,1,4.72-.47l-.25.25a2.44,2.44,0,0,1,.42-3,2.56,2.56,0,0,1,3.06-.23l-.26.2a4.07,4.07,0,0,1,1.31-4.18c.17-.15.43.1.25.25Z"/><path fill="#241707" d="M497.61,160.89a3.88,3.88,0,0,1-5.16.22l.31-.13a4.05,4.05,0,0,1-2.92,3.66,3.09,3.09,0,0,1-3.55-1.84c-.08-.21.27-.31.34-.09a2.74,2.74,0,0,0,3.25,1.55A3.69,3.69,0,0,0,492.4,161a.18.18,0,0,1,.3-.12,3.51,3.51,0,0,0,4.65-.23.18.18,0,0,1,.26.26Z"/><path fill="#241707" d="M471.52,137.23c-.61-1-2.12-.63-2.83.06a2.33,2.33,0,0,0-.19,3.12c.14.17-.09.42-.25.25-1.5-1.58-4.56-.63-5.71.94a3,3,0,0,0,1.34,4.53.18.18,0,0,1-.1.35,3.32,3.32,0,0,1-1.54-5.06c1.26-1.76,4.59-2.77,6.26-1l-.25.25a2.7,2.7,0,0,1,.29-3.72c.9-.79,2.59-1.08,3.29.11a.18.18,0,0,1-.31.18Z"/><path fill="#241707" d="M496.86,137.76a2.22,2.22,0,0,0-1.83,2c0,.19-.32.27-.37.05a1.52,1.52,0,0,0-2.29-1,2.33,2.33,0,0,0-.95,2.67.19.19,0,0,1-.36.1,3.31,3.31,0,1,0-4.94,3.73c.21.13,0,.46-.18.32a3.68,3.68,0,1,1,5.48-4.15l-.36.1a2.67,2.67,0,0,1,1.33-3.2,1.89,1.89,0,0,1,2.63,1.32l-.36.05a2.59,2.59,0,0,1,2.1-2.38c.24-.05.34.31.1.36Z"/><path fill="#241707" d="M501.14,150.29c-.16-.81-1.14-.69-1.67-.34a2,2,0,0,0-.88,1.36l-.35-.15c.48-.7-.19-1.57-.76-2a3.39,3.39,0,0,0-2.12-.56,2.32,2.32,0,0,0-1.92,1.09,2.26,2.26,0,0,0-.14,2c.09.22-.27.32-.36.1a2.63,2.63,0,0,1,.23-2.39,2.76,2.76,0,0,1,2.32-1.19,3.69,3.69,0,0,1,2.49.86,1.79,1.79,0,0,1,.59,2.24.19.19,0,0,1-.34-.14,2.37,2.37,0,0,1,1.41-1.77,1.29,1.29,0,0,1,1.86.75c.05.24-.31.34-.36.1Z"/><path fill="#241707" d="M429.74,139.85a3.36,3.36,0,0,0,1,4.22c-.08.09-.15.19-.23.29-1.38-1.12-3.4,3-.72,3.42,0,.12-.06.24-.1.36a3,3,0,0,0-3.65,2A3.49,3.49,0,0,0,428,154c.22.11,0,.43-.19.32a3.82,3.82,0,0,1-2-4.46,3.33,3.33,0,0,1,4.06-2.08.19.19,0,0,1-.1.36c-3.16-.47-.9-5.66,1.08-4,.17.13-.05.41-.22.29a3.73,3.73,0,0,1-1.12-4.72c.11-.22.43,0,.32.18Z"/><path fill="#241707" d="M440.72,131.18c1.26.88.85,2.48.14,3.58a2.54,2.54,0,0,1-.16-.28,2,2,0,0,1,.41,4v-.36a2.41,2.41,0,0,1,1.66,1.88,1.69,1.69,0,0,1-1.18,1.82.19.19,0,0,1-.1-.36,1.32,1.32,0,0,0,.89-1.54,2.08,2.08,0,0,0-1.37-1.44c-.16-.06-.2-.32,0-.36a1.63,1.63,0,0,0-.31-3.24.19.19,0,0,1-.16-.28c.58-.91,1.08-2.32,0-3.08-.19-.14,0-.46.19-.32Z"/><path fill="#241707" d="M444.78,166.59c-1-.65-2.1-2.37-.86-3.32.16-.12.35.11.26.26-.68,1.14-2.13.76-3.07.22s-1.93-1.66-1.34-2.85c.1-.22.43,0,.32.19-.49,1,.43,1.88,1.21,2.33s2,.87,2.55-.08l.26.26a1.19,1.19,0,0,0-.16,1.49,2.89,2.89,0,0,0,1,1.17c.2.14,0,.46-.19.33Z"/><path fill="#241707" d="M467.64,163.86a2.49,2.49,0,0,0,.45-3.21,2.13,2.13,0,0,0-2.92-.44.19.19,0,0,1-.28-.21,4.38,4.38,0,0,0-6.11-5.55c-.21.11-.4-.22-.19-.33a4.76,4.76,0,0,1,6.66,6l-.27-.21a2.49,2.49,0,0,1,3.41.53,2.88,2.88,0,0,1-.48,3.71c-.18.16-.44-.1-.27-.27Z"/><path fill="#241707" d="M482.37,171.64a2.63,2.63,0,0,0,3.73-2,.19.19,0,0,1,.36,0,3.52,3.52,0,0,0,2.91,2.53c1.11.25,2.73.44,3.53-.57.14-.19.41.07.26.26-.88,1.13-2.65,1-3.89.68a3.89,3.89,0,0,1-3.17-2.8h.36a3,3,0,0,1-4.28,2.19c-.22-.1,0-.42.19-.32Z"/><path fill="#241707" d="M434.69,174.59a6.69,6.69,0,0,1-3.24-2.13l.31-.18a4.41,4.41,0,0,1-.72,4.21c-.84,1-2.76,2-3.67.47h.33a1.42,1.42,0,0,1-1.28.83.19.19,0,1,1,0-.37,1,1,0,0,0,.95-.65c.06-.14.26-.11.33,0,.88,1.45,2.72.08,3.32-.9a4.05,4.05,0,0,0,.38-3.49.19.19,0,0,1,.31-.18,6.34,6.34,0,0,0,3.08,2c.23.07.13.44-.1.37Z"/><path fill="#241707" d="M483.83,130.22a2.85,2.85,0,0,1-1.14,4.11c0-.12,0-.23,0-.35a1.69,1.69,0,0,1,.94,2.55c-.74,1.21-2.26,1.33-3.52,1.08-.24,0-.14-.4.1-.36a2.94,2.94,0,0,0,3-.72,1.33,1.33,0,0,0-.58-2.18.2.2,0,0,1-.05-.35,2.47,2.47,0,0,0,1-3.59c-.13-.21.19-.39.32-.19Z"/><path fill="#241707" d="M471,127a4.8,4.8,0,0,0-.72,2.55.19.19,0,0,1-.35.1,1.8,1.8,0,0,0-3,.07c0,.07-.45,1.14-.27,1.11,0,.09-.07.18-.11.27-.69-1.64-2.77-.64-3.58.33a4.09,4.09,0,0,0-.84,3.56c0,.23-.31.33-.36.1a4.49,4.49,0,0,1,1.18-4.2c1-1,3.2-1.68,3.93,0,0,.09,0,.25-.12.27-.53.08-.54-.55-.46-.93a2.27,2.27,0,0,1,.89-1.33,2.2,2.2,0,0,1,3,.53l-.35.09a5.1,5.1,0,0,1,.78-2.74c.13-.2.45,0,.32.19Z"/><path fill="#241707" d="M447.36,149.3a3.34,3.34,0,0,0-3.76-2.52c-1.76.29-3.54,2.43-2,4.05l-.3.23c-.79-1.75-3.35-1.54-4.72-.7a3.33,3.33,0,0,0-1,4.78c.14.19-.19.38-.33.18a3.71,3.71,0,0,1,1.18-5.28c1.54-.95,4.36-1.1,5.23.83.09.18-.13.39-.29.23-1.56-1.69-.08-4.07,1.84-4.6a3.71,3.71,0,0,1,4.58,2.7.19.19,0,0,1-.36.1Z"/><path fill="#241707" d="M420.11,157.19a2,2,0,0,1,2.81,2.27c-.07.23-.4.13-.37-.1a2.91,2.91,0,0,1,3.11-2.37,3.7,3.7,0,0,1,3.44,2.58.19.19,0,0,1-.36.1c-.63-2.66-5.39-3.32-5.82-.21l-.37-.1a1.58,1.58,0,0,0-2.25-1.85c-.21.11-.4-.21-.19-.32Z"/><path fill="#241707" d="M430.31,181c1.11.63,9.53,3.08,10.86,4.09a7.94,7.94,0,0,0-.32,2.19,7.8,7.8,0,0,0,15.6.39l5.22,0a7.8,7.8,0,0,0,15.59-.52,7.89,7.89,0,0,0-.13-1.39h0l.46-.33c1-.85,9-4.39,10.19-5.05,0,0-1.17-.23-1.94-.43,0,0-7.87,3.44-9.11,4.43a7.8,7.8,0,0,0-15.07,2.27l-5.23,0a7.8,7.8,0,0,0-14.77-2.83c-2.45-1.08-10.21-3.41-10.21-3.41Zm32.52,6.1a6.63,6.63,0,1,1,6.62,6.63A6.63,6.63,0,0,1,462.83,187.06Zm-20.8.18a6.63,6.63,0,1,1,6.63,6.63A6.64,6.64,0,0,1,442,187.24Z"/><path fill="#fff" d="M456.45,199.61a2.2,2.2,0,1,0,2.2-2.35A2.28,2.28,0,0,0,456.45,199.61Z"/><path fill="#ffbf6a" d="M467.41,212.17c-5,7.44-9.27,10-9.27,10-5.29-3.2-8.59-10.11-8.59-10.11-11.52-.28-13.75,4.11-13.75,4.11-17,9-21.57,8.81-28.3,15.05-6.11,5.67-5.69,10.26-10.19,36-1.85,10.57-12,20.14-7.29,33.78,4.24,12.29,11.76,12.63,26.37,10.27,0,0-7.88,18.37-3.79,29.71,0,0,36.49,8.46,97.28-1.12,0,0,2.82-16.05.54-27.42,0,0,16.7-.78,22.11-15.83,1.87-5.2,2.56-8.06-1.57-18.19-11.89-29.15-8-34.65-16.74-46.2-4.86-6.39-13.14-8.35-33.75-15.17A19,19,0,0,0,467.41,212.17Z"/><path fill="#ffa732" d="M458.15,222.72a16,16,0,0,0-4.79,4.94,26.93,26.93,0,0,0-2.17,6.13.16.16,0,0,1-.23.09,101.94,101.94,0,0,1-10-7.77,16.94,16.94,0,0,1-3.9-4.33,11.43,11.43,0,0,1-1.4-5.14.16.16,0,0,1,.32,0,11.06,11.06,0,0,0,1.55,5.31,18.71,18.71,0,0,0,4,4.22,102.19,102.19,0,0,0,9.64,7.44l-.24.09a26.5,26.5,0,0,1,2.3-6.37,16.73,16.73,0,0,1,4.81-4.89c.16-.12.32.16.16.28Z"/><path fill="#ffa732" d="M458.17,222.39a15.3,15.3,0,0,1,5.77,12.41l-.2-.15a19.94,19.94,0,0,0,5.35-2.7,29.84,29.84,0,0,0,4.63-4.43c2.73-3,5.29-6.29,6.6-10.19.06-.19.37-.11.3.09a26.14,26.14,0,0,1-4.79,8.16,34.72,34.72,0,0,1-7.14,7,20.46,20.46,0,0,1-4.87,2.35.16.16,0,0,1-.2-.16,15,15,0,0,0-5.68-12.18c-.16-.13.07-.35.23-.23Z"/><path fill="#ffa732" d="M458.52,222.78c1.25,15.8.08,31.64-.35,47.44-.21,7.94-.22,15.89.32,23.81s1.5,15.55,2.18,23.33a129.24,129.24,0,0,1,.1,26.31c0,.2-.34.2-.31,0,1.83-15.63-.81-31.25-2.07-46.81-1.28-15.8-.28-31.59.19-47.4a244.8,244.8,0,0,0-.37-26.68c0-.21.3-.21.31,0Z"/><path fill="#ffa732" d="M512.64,232.76a51,51,0,0,0-9.78,18.9A77.7,77.7,0,0,0,500.22,275c.11,4.62.52,9.23,1.08,13.82,0,.2-.29.2-.32,0a114.71,114.71,0,0,1-.7-25.05,62.9,62.9,0,0,1,5.64-21.11,47.64,47.64,0,0,1,6.49-10.1c.13-.16.36.07.23.22Z"/><path fill="#ffa732" d="M413.21,227.88a49.39,49.39,0,0,1,5.59,10.71,70.09,70.09,0,0,1,3.39,11.28,89.21,89.21,0,0,1,1.66,23.57,112.21,112.21,0,0,1-1.53,13.18c0,.2-.34.12-.31-.08a105.78,105.78,0,0,0,1.56-23.5,77.73,77.73,0,0,0-4.47-22.78A51,51,0,0,0,412.94,228c-.12-.17.15-.33.27-.16Z"/><path fill="#f4f4f4" d="M466.26,229.76a1,1,0,1,0,.95-.95A.94.94,0,0,0,466.26,229.76Z"/><path fill="#f4f4f4" d="M448.78,229.48a1,1,0,1,0,1-.95A.95.95,0,0,0,448.78,229.48Z"/><path fill="#f4f4f4" d="M456,230a1,1,0,1,0,.95-1A.94.94,0,0,0,456,230Z"/><path fill="#f4f4f4" d="M456,248.93a1,1,0,1,0,.95-1A.95.95,0,0,0,456,248.93Z"/><path fill="#f4f4f4" d="M455,271.12a1,1,0,1,0,1-1A1,1,0,0,0,455,271.12Z"/><circle cx="457.96" cy="339.56" r=".95" fill="#f4f4f4"/><path fill="#f4f4f4" d="M456.46,319.53a1,1,0,1,0,1-.95A1,1,0,0,0,456.46,319.53Z"/><path fill="#241707" d="M421.9,222.15c-.78-1.83,1.91-3.43,2.7-1.58,13.5,31.52,8.59,66.19,5.31,99.22-1,10-1.81,20.06-1.92,30.14,0,2-3.16,2-3.13,0,.39-33.69,9-67.33,4.27-101A104.61,104.61,0,0,0,421.9,222.15Z"/><path fill="#241707" d="M491.18,249.25c1.06-9.42,2.49-18.79,3.93-28.16.3-2,3.32-1.14,3,.83-2.55,16.67-5.1,33.39-5.43,50.28-.33,16.64,1.8,33.21,2.7,49.8a236.05,236.05,0,0,1,0,28.4c-.13,2-3.26,2-3.13,0,1.13-16.86-.31-33.7-1.6-50.5A266.18,266.18,0,0,1,491.18,249.25Z"/><path fill="#33210a" d="M493,349.79a1,1,0,1,0,.95-1A1,1,0,0,0,493,349.79Z"/><path fill="#33210a" d="M425.48,349.45a1,1,0,1,0,1-.95A1,1,0,0,0,425.48,349.45Z"/><path fill="#241707" d="M463,345q-.09,9.74-.32,19.46a.17.17,0,0,1-.34,0q.24-9.72.33-19.46a.17.17,0,0,1,.33,0Z"/><path fill="#241707" d="M456.64,345.21q.15,9.56-.51,19.11c0,.21-.35.21-.33,0q.66-9.54.5-19.11a.17.17,0,0,1,.34,0Z"/><path fill="#241707" d="M509.21,363.08a53.32,53.32,0,0,1-16.42-9.72c-.16-.14.08-.38.24-.24a53.08,53.08,0,0,0,16.27,9.64c.2.07.12.4-.09.32Z"/><path fill="#241707" d="M426.62,353.23a32.37,32.37,0,0,1-13.4,10.25c-.2.08-.29-.25-.09-.33a31.85,31.85,0,0,0,13.2-10.09c.13-.17.42,0,.29.17Z"/><path fill="#fff" d="M482.78,223.48a19.27,19.27,0,0,1,2.59-3,.39.39,0,0,1,.55,0c1,.9,1.91,1.84,2.81,2.83.33.37-.22.93-.56.55-.8-.89-1.64-1.74-2.52-2.56a18.33,18.33,0,0,0-2.19,2.62C483.17,224.29,482.5,223.9,482.78,223.48Z" opacity=".31"/><path fill="#fff" d="M468.83,236.89a18.77,18.77,0,0,1,2.58-3,.41.41,0,0,1,.56,0c1,.91,1.91,1.85,2.8,2.84.34.37-.21.92-.55.55-.81-.89-1.65-1.74-2.52-2.56a17.18,17.18,0,0,0-2.2,2.61C469.22,237.69,468.54,237.3,468.83,236.89Z" opacity=".31"/><path fill="#fff" d="M477.68,246.71a19.35,19.35,0,0,1,2.59-3.05.4.4,0,0,1,.55,0c1,.91,1.92,1.85,2.81,2.84.34.37-.22.92-.55.55-.81-.89-1.65-1.74-2.53-2.56a18.24,18.24,0,0,0-2.19,2.61C478.08,247.52,477.4,247.12,477.68,246.71Z" opacity=".31"/><path fill="#fff" d="M443,241.16a19.35,19.35,0,0,1,2.59-3,.39.39,0,0,1,.55,0c1,.91,1.92,1.85,2.81,2.84.34.37-.22.92-.55.55-.81-.89-1.65-1.74-2.53-2.56a17.71,17.71,0,0,0-2.19,2.61C443.37,242,442.69,241.57,443,241.16Z" opacity=".31"/><path fill="#fff" d="M431.94,229.74a19.19,19.19,0,0,1,2-3.48.4.4,0,0,1,.54-.11c1.14.7,2.23,1.45,3.3,2.24.4.31,0,1-.44.65-1-.72-1.95-1.39-3-2a18.92,18.92,0,0,0-1.65,3C432.48,230.46,431.74,230.2,431.94,229.74Z" opacity=".31"/><path fill="#fff" d="M435.68,253.59a19.27,19.27,0,0,1,2.59-3,.4.4,0,0,1,.56,0c1,.9,1.91,1.84,2.8,2.83.34.37-.21.93-.55.55-.81-.89-1.65-1.74-2.53-2.56a18.33,18.33,0,0,0-2.19,2.62C436.08,254.4,435.4,254,435.68,253.59Z" opacity=".31"/><path fill="#fff" d="M463.27,258a19.13,19.13,0,0,1,2.58-3,.4.4,0,0,1,.56,0c1,.9,1.91,1.85,2.8,2.83.34.38-.21.93-.55.56-.81-.89-1.65-1.74-2.53-2.57a18.33,18.33,0,0,0-2.19,2.62C463.66,258.83,463,258.44,463.27,258Z" opacity=".31"/><path fill="#fff" d="M499.23,234.57a19.6,19.6,0,0,1,3.51-1.92.38.38,0,0,1,.51.19c.59,1.2,1.13,2.41,1.61,3.65.19.47-.53.79-.71.32-.44-1.12-.92-2.21-1.44-3.29a18.2,18.2,0,0,0-3,1.66C499.31,235.46,498.82,234.86,499.23,234.57Z" opacity=".31"/><path fill="#fff" d="M476.57,266.3a19.35,19.35,0,0,1,2.59-3.05.41.41,0,0,1,.55,0c1,.91,1.91,1.85,2.8,2.84.34.37-.21.93-.55.55-.8-.89-1.65-1.74-2.52-2.56a18.24,18.24,0,0,0-2.19,2.61C477,267.11,476.28,266.72,476.57,266.3Z" opacity=".31"/><path fill="#fff" d="M445.17,268.73a19.27,19.27,0,0,1,2.59-3,.39.39,0,0,1,.55,0c1,.9,1.91,1.84,2.8,2.83.34.37-.21.93-.55.55-.8-.89-1.65-1.74-2.52-2.56a19.08,19.08,0,0,0-2.2,2.62C445.56,269.54,444.88,269.15,445.17,268.73Z" opacity=".31"/><path fill="#fff" d="M510.65,246a19.39,19.39,0,0,1,3.33-2.2.4.4,0,0,1,.53.15c.69,1.14,1.33,2.31,1.91,3.5.22.46-.47.84-.69.38-.52-1.08-1.1-2.13-1.71-3.16a18.42,18.42,0,0,0-2.83,1.9C510.8,246.83,510.26,246.27,510.65,246Z" opacity=".31"/><path fill="#fff" d="M504.32,262.2a19.11,19.11,0,0,1,2.28-3.29.4.4,0,0,1,.55-.05c1.06.8,2.08,1.65,3.07,2.54.37.34-.13.94-.5.61-.89-.81-1.81-1.57-2.76-2.3a18.66,18.66,0,0,0-1.93,2.81C504.79,263,504.08,262.64,504.32,262.2Z" opacity=".31"/><path fill="#fff" d="M406.88,242.62a18.89,18.89,0,0,1,3-2.68.39.39,0,0,1,.54.07c.86,1,1.66,2.08,2.41,3.18.28.41-.33.89-.62.48-.68-1-1.4-1.94-2.16-2.87a18.29,18.29,0,0,0-2.52,2.3C407.16,243.47,406.54,243,406.88,242.62Z" opacity=".31"/><path fill="#fff" d="M411.59,261.42a19.34,19.34,0,0,1,3-2.68.4.4,0,0,1,.55.07c.85,1,1.65,2.09,2.41,3.18.28.42-.34.89-.63.48-.68-1-1.4-1.94-2.16-2.87a18.29,18.29,0,0,0-2.52,2.3C411.88,262.27,411.26,261.79,411.59,261.42Z" opacity=".31"/><path fill="#fff" d="M480.73,321a19.89,19.89,0,0,1,2.59-3.05.41.41,0,0,1,.56,0c1,.91,1.91,1.85,2.8,2.84.34.37-.21.92-.55.55-.81-.89-1.65-1.74-2.53-2.56a18.24,18.24,0,0,0-2.19,2.61C481.13,321.79,480.45,321.4,480.73,321Z" opacity=".31"/><path fill="#fff" d="M463.38,330.39a19.27,19.27,0,0,1,2.59-3,.39.39,0,0,1,.55,0c1,.9,1.91,1.85,2.81,2.83.33.38-.22.93-.56.56-.8-.89-1.65-1.74-2.52-2.57a18.39,18.39,0,0,0-2.2,2.62C463.77,331.2,463.09,330.81,463.38,330.39Z" opacity=".31"/><path fill="#fff" d="M474.62,341.37a19.29,19.29,0,0,1,2.58-3.05.41.41,0,0,1,.56,0c1,.91,1.91,1.85,2.8,2.84.34.37-.21.92-.55.55-.81-.89-1.65-1.74-2.53-2.56a18.24,18.24,0,0,0-2.19,2.61C475,342.17,474.33,341.78,474.62,341.37Z" opacity=".31"/><path fill="#fff" d="M500.37,329.41a19.27,19.27,0,0,1,2.59-3,.39.39,0,0,1,.55,0c1,.9,1.91,1.84,2.81,2.83.33.38-.22.93-.56.56-.8-.89-1.65-1.74-2.52-2.57a18.33,18.33,0,0,0-2.19,2.62C500.76,330.22,500.08,329.83,500.37,329.41Z" opacity=".31"/><path fill="#fff" d="M443,325.74a19.35,19.35,0,0,1,2.59-3.05.4.4,0,0,1,.55,0c1,.91,1.92,1.85,2.81,2.84.34.37-.22.93-.55.55-.81-.89-1.65-1.74-2.53-2.56a18.24,18.24,0,0,0-2.19,2.61C443.37,326.55,442.69,326.15,443,325.74Z" opacity=".31"/><path fill="#fff" d="M431.44,337.64a19.27,19.27,0,0,1,2.59-3,.39.39,0,0,1,.55,0c1,.9,1.92,1.84,2.81,2.83.34.37-.22.93-.55.55-.81-.89-1.65-1.74-2.53-2.56a18.33,18.33,0,0,0-2.19,2.62C431.84,338.45,431.16,338.06,431.44,337.64Z" opacity=".31"/><path fill="#fff" d="M416.46,318a18.34,18.34,0,0,1,2.59-3,.39.39,0,0,1,.55,0c1,.9,1.91,1.84,2.8,2.83.34.37-.21.93-.55.55-.81-.89-1.65-1.74-2.52-2.56a18.39,18.39,0,0,0-2.2,2.62C416.85,318.82,416.17,318.43,416.46,318Z" opacity=".31"/><path fill="#fff" d="M412.16,332.72a18.83,18.83,0,0,1,2.59-3,.39.39,0,0,1,.55,0c1,.9,1.91,1.84,2.81,2.83.33.37-.22.93-.56.55-.8-.89-1.64-1.74-2.52-2.56a18.81,18.81,0,0,0-2.19,2.61C412.55,333.53,411.87,333.14,412.16,332.72Z" opacity=".31"/><path fill="#ffa732" d="M454.81,225.67q.48,19.13-.49,38.25c-.18,3.58-.4,7.17-.66,10.75,0,.2-.33.2-.32,0q1.38-19.08,1.31-38.23c0-3.59-.07-7.18-.15-10.77a.16.16,0,1,1,.31,0Z"/><path fill="#ffa732" d="M456.29,323.29q-.33,10.43-.88,20.86c0,.2-.33.21-.32,0q.56-10.42.89-20.86a.16.16,0,1,1,.31,0Z"/><path fill="#fff" d="M399.22,271.75a18.77,18.77,0,0,1,3-2.58.41.41,0,0,1,.55.09c.81,1.05,1.58,2.13,2.3,3.25.28.42-.36.88-.63.45-.65-1-1.35-2-2.08-2.93a17.58,17.58,0,0,0-2.58,2.22C399.48,272.61,398.87,272.12,399.22,271.75Z" opacity=".31"/><path fill="#fff" d="M466.05,222.22a19.14,19.14,0,0,1,.87-3.9.39.39,0,0,1,.49-.26c1.29.34,2.55.74,3.8,1.2.47.17.24.92-.23.75-1.13-.42-2.27-.77-3.43-1.09a18,18,0,0,0-.72,3.33C466.77,222.75,466,222.72,466.05,222.22Z" opacity=".31"/><path fill="#fff" d="M441.09,214.94a19.57,19.57,0,0,1,3.49-1.95.41.41,0,0,1,.52.2c.6,1.19,1.14,2.39,1.64,3.63.18.47-.53.8-.72.33-.44-1.12-.93-2.21-1.47-3.28a18,18,0,0,0-3,1.68C441.18,215.83,440.68,215.23,441.09,214.94Z" opacity=".31"/><path fill="#fff" d="M518.43,271.91a18.82,18.82,0,0,1,1.58-3.66.41.41,0,0,1,.53-.17q1.8.87,3.51,1.89c.43.26.06.95-.37.69-1-.61-2.08-1.18-3.16-1.71a18,18,0,0,0-1.33,3.14C519,272.57,518.27,272.4,518.43,271.91Z" opacity=".31"/><path fill="#ffa732" d="M411.3,285.31c-.92-3.7-4.68-5.41-7.91-6.68-.19-.08-.11-.38.09-.31,3.33,1.31,7.17,3.08,8.12,6.9a.16.16,0,0,1-.3.09Z"/><path fill="#ffa732" d="M521.51,277.34A24.68,24.68,0,0,0,509,283c-.15.13-.38-.1-.22-.23A25,25,0,0,1,521.42,277c.2,0,.29.28.09.31Z"/><path fill="#ffa732" d="M508.64,289.46a9.54,9.54,0,0,1,5.49,4.35c1.36,2.57,1,5.56.53,8.31,0,.21-.33.12-.3-.08.4-2.66.81-5.58-.51-8.07a9.12,9.12,0,0,0-5.3-4.2c-.19-.06-.11-.37.09-.31Z"/><path fill="#ffa732" d="M509.6,313.27a24.09,24.09,0,0,0-3.88-.5c-.2,0-.21-.33,0-.32a25.37,25.37,0,0,1,4,.51c.2.05.11.35-.09.31Z"/><path fill="#fff" d="M518.09,302.26a19,19,0,0,1,4,.23.41.41,0,0,1,.33.44c-.13,1.33-.32,2.64-.56,3.95-.1.49-.87.39-.78-.11.22-1.18.39-2.36.52-3.56a18.48,18.48,0,0,0-3.41-.17C517.68,303.06,517.58,302.29,518.09,302.26Z" opacity=".31"/><path fill="#fff" d="M520.43,283.28a19.33,19.33,0,0,1,3.89-.93.41.41,0,0,1,.44.33c.26,1.31.45,2.62.59,3.94,0,.5-.73.63-.78.12-.12-1.19-.3-2.38-.51-3.56a18.92,18.92,0,0,0-3.32.81C520.27,284.16,520,283.44,520.43,283.28Z" opacity=".31"/><path fill="#fff" d="M404.27,308.67a19.58,19.58,0,0,1-.47-4,.4.4,0,0,1,.38-.4c1.32-.11,2.65-.15,4-.13.5,0,.53.79,0,.78-1.2,0-2.4,0-3.59.11a17.46,17.46,0,0,0,.42,3.38C405.13,308.93,404.38,309.17,404.27,308.67Z" opacity=".31"/><path fill="#fff" d="M397.87,291.09a19.66,19.66,0,0,1-.47-4,.41.41,0,0,1,.38-.41c1.32-.1,2.65-.14,4-.13.5,0,.53.79,0,.78-1.2,0-2.4,0-3.59.11a18.38,18.38,0,0,0,.42,3.39C398.73,291.35,398,291.58,397.87,291.09Z" opacity=".31"/><path fill="#f7eadc" d="M415.67,307.2,456.87,319l39.67-11.76,12.27-32.37c-47.41-.16-50.77,5.74-50.77,5.74-17.38-5.9-46.54-5.74-46.54-5.74Z"/><polygon fill="#f4827c" points="414.93 308.95 457.18 320.93 497.85 308.95 510.44 276 458.38 281.84 409.62 276 414.93 308.95"/><path fill="#9e695c" d="M513.07,295.37a4.67,4.67,0,0,0-1.25-2.7.16.16,0,0,0-.08-.06,2.35,2.35,0,0,0-2-.86c-1.54-.11-2.62-1.09-5.84-1l-7.89.35c-1.95-.1-5.14-.23-5.89,1.2-.5,1-.33,1.64.53,1.69a23.52,23.52,0,0,1,4.26.53c1.56.36,3.11.82,4.69,1.1,1.19.2,2.73.08,3.7.89-3.32,2-7.33.27-10.68-.8-1.38-.44-3.78-1.4-5-.06a1.38,1.38,0,0,0-.21,1.6,3.51,3.51,0,0,0,1.74,1.23l3.27,1.47,1.64.74a3.48,3.48,0,0,1,1.3.72,7,7,0,0,1-3.48-.69c-1.17-.48-2.32-1-3.48-1.54a6,6,0,0,0-2.87-.91,1.4,1.4,0,0,0-1.32,1.22,4,4,0,0,0,1.13,2.34c.35.44.76.82,1.07,1.28a6.11,6.11,0,0,1,.62,1.6,11.87,11.87,0,0,0,2.75,4.48,11.71,11.71,0,0,0,4.48,2.88,14.74,14.74,0,0,0,6.6.51,18.9,18.9,0,0,0,3.25-.65,7.55,7.55,0,0,0,2.6-1.51,11.22,11.22,0,0,0,2.11-2.19,9.86,9.86,0,0,0,1-3c.33-1.13,1.12-2,1.45-3.17.18-.6.26-1.23.39-1.84a10.39,10.39,0,0,1,.66-1.87A5.84,5.84,0,0,0,513.07,295.37Z"/><path fill="#8e594f" d="M487.13,303.38c1.08,1.57,2.95,2.31,4.65,3s3.51,1.44,5.3,2.05c.19.07.11.37-.08.31-2-.67-3.89-1.46-5.81-2.26a9.26,9.26,0,0,1-4.34-2.94c-.11-.17.16-.33.28-.16Z"/><path fill="#8e594f" d="M495.69,301.31a26.6,26.6,0,0,0,5.1,1.56c.2,0,.11.35-.09.31a26.73,26.73,0,0,1-5.09-1.56c-.19-.08-.11-.39.08-.31Z"/><path fill="#8e594f" d="M503.59,296.32a13.77,13.77,0,0,1,2.32-.31,9.46,9.46,0,0,0,2.32-.72c.18-.09.34.19.15.27a9.23,9.23,0,0,1-2.3.74,15.93,15.93,0,0,0-2.4.33c-.2.06-.28-.25-.09-.31Z"/><path fill="#d5716c" d="M457.26,282.45q-.33,14.9,0,29.8c.06,2.82.13,5.65.22,8.47,0,.21-.31.21-.32,0q-.48-14.88-.33-29.79c0-2.83.08-5.65.14-8.48a.16.16,0,0,1,.32,0Z"/><path fill="#d5716c" d="M459.48,282.05c.21,9.92.11,19.85,0,29.78q0,4.05,0,8.1a.16.16,0,0,1-.32,0c0-10,.17-20,.1-30,0-2.62-.05-5.25-.1-7.87,0-.2.31-.2.32,0Z"/><path fill="#9e695c" d="M411.47,299.29a11.29,11.29,0,0,1,.65,1.88c.13.61.22,1.23.39,1.83.33,1.14,1.12,2.05,1.45,3.18a9.9,9.9,0,0,0,1.05,2.95,11.23,11.23,0,0,0,2.11,2.19,7.35,7.35,0,0,0,2.61,1.51,19,19,0,0,0,3.24.65,14.6,14.6,0,0,0,6.6-.51,11.52,11.52,0,0,0,4.48-2.88,11.71,11.71,0,0,0,2.75-4.47,6.17,6.17,0,0,1,.62-1.61c.31-.46.73-.84,1.07-1.27a4,4,0,0,0,1.13-2.34,1.4,1.4,0,0,0-1.31-1.23,5.9,5.9,0,0,0-2.88.92c-1.16.51-2.31,1.05-3.48,1.54a7,7,0,0,1-3.48.68,3.46,3.46,0,0,1,1.3-.71l1.64-.74,3.27-1.48a3.37,3.37,0,0,0,1.74-1.23,1.36,1.36,0,0,0-.2-1.59c-1.18-1.35-3.58-.39-5,.05-3.35,1.07-7.36,2.86-10.68.8,1-.81,2.52-.69,3.7-.89,1.59-.27,3.13-.73,4.7-1.1a24.33,24.33,0,0,1,4.25-.53c.86,0,1-.72.53-1.69-.74-1.43-3.94-1.29-5.89-1.19l-7.89-.36c-3.21,0-4.3.94-5.84,1a2.38,2.38,0,0,0-2,.86l-.08.06a4.73,4.73,0,0,0-1.25,2.7A5.73,5.73,0,0,0,411.47,299.29Z"/><path fill="#8e594f" d="M437.07,304.49a9.33,9.33,0,0,1-4.34,2.94c-1.91.79-3.84,1.58-5.8,2.25-.2.07-.28-.24-.09-.3,1.8-.62,3.55-1.33,5.31-2.05s3.56-1.44,4.65-3c.11-.17.39,0,.27.16Z"/><path fill="#8e594f" d="M428.32,302.56a26.12,26.12,0,0,1-5.1,1.56c-.2,0-.29-.26-.08-.3a26.06,26.06,0,0,0,5.09-1.57c.19-.08.27.23.09.31Z"/><path fill="#8e594f" d="M420.25,297.57a16.11,16.11,0,0,0-2.4-.33,9.28,9.28,0,0,1-2.31-.73c-.19-.09,0-.36.16-.28A8.5,8.5,0,0,0,418,297a14.88,14.88,0,0,1,2.32.31c.19.07.11.38-.08.31Z"/><rect width="91.7" height="64.41" x="216.86" y="299.44" fill="#f2f0da"/><path fill="#f4e0ba" d="M217.9,307.62h67.32a.37.37,0,0,0,0-.73H217.9a.37.37,0,0,0,0,.73Z" opacity=".5"/><path fill="#f4e0ba" d="M217.9,312.69h89.93a.42.42,0,0,0,0-.83H217.9a.42.42,0,0,0,0,.83Z" opacity=".5"/><path fill="#f4e0ba" d="M251.56,323.05h55.81a.33.33,0,0,0,0-.66H251.56a.33.33,0,0,0,0,.66Z"/><path fill="#f4e0ba" d="M229.06,337h67.31a.37.37,0,0,0,0-.73H229.06a.37.37,0,0,0,0,.73Z" opacity=".5"/><rect width="80.66" height="10.45" x="202.49" y="354.45" fill="#e47974" rx="1.31"/><rect width="71.41" height="13.32" x="205.48" y="341.14" fill="#ffbf6a" rx="1.31" transform="rotate(180 241.185 347.795)"/><rect width="71.79" height="11.69" x="208.56" y="329.45" fill="#814f35" rx="1.31" transform="rotate(180 244.46 335.29)"/><rect width="1.78" height="13.32" x="217.02" y="341.14" fill="#fff" opacity=".3" transform="rotate(180 217.91 347.795)"/><rect width="1.78" height="13.32" x="222.97" y="341.14" fill="#fff" opacity=".3" transform="rotate(180 223.86 347.795)"/><rect width="29.03" height="5.86" x="229.94" y="332.09" fill="#e7e7e7" opacity=".43" transform="rotate(180 244.46 335.025)"/><path fill="#99d6d4" d="M319.18,312a6.64,6.64,0,0,0-9.05,2.48c-2.13,3.75-2.33,9.35-2.18,13a11.13,11.13,0,0,0-5.91-.06c.27-4.69.26-12.71-2.38-17.53a8.44,8.44,0,0,0-14.79,8.13c2.77,5,9.16,9.12,13.23,11.34a11.12,11.12,0,0,0-4.36,8.84c0,6.15,5,18.78,11.15,18.78S316,344.4,316,338.25a11.11,11.11,0,0,0-4.32-8.81c3.28-1.83,8-4.91,10-8.36A6.62,6.62,0,0,0,319.18,312Z"/><path fill="#99d6d4" d="M311.71,329.44c-2.64-1.77-3.76-1.91-3.76-1.91a11.13,11.13,0,0,0-5.91-.06,12.64,12.64,0,0,0-3.94,1.94,11.12,11.12,0,0,0-4.36,8.84c0,6.15,5,18.78,11.15,18.78S316,344.4,316,338.25A11.11,11.11,0,0,0,311.71,329.44Z"/><path fill="#814f35" d="M294.71,364.9l-3.31-16.19h27l-3.31,16.19Z"/><path fill="#397582" d="M298.65,329.46a11.64,11.64,0,0,1,1.51-.91c.54-.27,1.11-.44,1.64-.7a.38.38,0,0,0,.14-.52.39.39,0,0,0-.53-.14c-.26.12-.54.21-.82.32s-.55.24-.82.37a11.64,11.64,0,0,0-1.51.91.4.4,0,0,0-.14.53.39.39,0,0,0,.53.14Z"/><path fill="#397582" d="M308.27,328a4.17,4.17,0,0,1,.67.33l.75.39,1.45.78c.44.24.83-.43.39-.67s-1-.54-1.51-.8c-.24-.14-.49-.27-.74-.4a4,4,0,0,0-.81-.37.38.38,0,0,0-.2.74Z"/><path fill="#397582" d="M284.53,308.23A7.12,7.12,0,0,0,286,309.7a.36.36,0,0,0,.3,0,.36.36,0,0,0,.23-.17.39.39,0,0,0,0-.3.41.41,0,0,0-.18-.23c.1.07,0,0,0,0l-.09-.07-.17-.15-.32-.31q-.17-.17-.3-.33l-.15-.18,0,0,0-.05a.86.86,0,0,1-.07-.1.46.46,0,0,0-.23-.18.44.44,0,0,0-.3,0,.39.39,0,0,0-.14.53Z"/><path fill="#397582" d="M300.27,317.91l0,0h0l.05-.07.12-.14a3.76,3.76,0,0,1,.25-.31q.24-.28.51-.57c.34-.37.71-.73,1.09-1.07a.39.39,0,0,0,0-.55.4.4,0,0,0-.55,0,16.59,16.59,0,0,0-2.16,2.35.38.38,0,1,0,.66.39Z"/><path fill="#397582" d="M311,317.49l.18.22s0,0,0,0l0,0,.09.12.33.48a9.61,9.61,0,0,1,.57,1,.39.39,0,0,0,.53.14.39.39,0,0,0,.14-.53,11.17,11.17,0,0,0-1.34-2,.37.37,0,0,0-.54,0,.39.39,0,0,0,0,.54Z"/><path fill="#397582" d="M316.81,324a20.42,20.42,0,0,0,2.82,0,.4.4,0,0,0,.38-.39.39.39,0,0,0-.38-.39,19,19,0,0,1-2.82,0,.4.4,0,0,0-.39.39.4.4,0,0,0,.39.39Z"/><path fill="#397582" d="M293.35,333.42a8.3,8.3,0,0,0,1.78,2.6.4.4,0,0,0,.55,0,.39.39,0,0,0,0-.55A7.49,7.49,0,0,1,294,333a.39.39,0,1,0-.67.39Z"/><path fill="#397582" d="M312.2,339.33a5,5,0,0,0,1.3-2.5.4.4,0,0,0-.27-.47.4.4,0,0,0-.48.27,4.21,4.21,0,0,1-.16.61.75.75,0,0,1,0,.16l0,.07s0,.06,0,0a2.59,2.59,0,0,1-.14.29,4.37,4.37,0,0,1-.32.55l-.1.12h0l-.05.06a2.75,2.75,0,0,1-.22.26.39.39,0,0,0,.54.55Z"/><path fill="#397582" d="M304.56,344.4a14.41,14.41,0,0,1-1.78-2.46.39.39,0,0,0-.53-.14.4.4,0,0,0-.14.53,15.69,15.69,0,0,0,1.9,2.61.39.39,0,0,0,.55-.54Z"/><path fill="#397582" d="M286.38,322.05a5.4,5.4,0,0,0,2.6-1.43.39.39,0,0,0-.55-.54l-.25.23a2.22,2.22,0,0,1-.22.17,4.28,4.28,0,0,1-.57.37l-.29.14L287,321s-.07,0-.05,0l0,0-.08,0a5.16,5.16,0,0,1-.67.2.4.4,0,0,0-.27.48.42.42,0,0,0,.48.27Z"/><path fill="#397582" d="M316.7,312.64a5.44,5.44,0,0,1,.29-2.08.39.39,0,0,0-.75-.21,6.38,6.38,0,0,0-.31,2.29.4.4,0,0,0,.39.39.39.39,0,0,0,.38-.39Z"/><rect width="520.77" height="2.04" x="39.61" y="363.86" fill="#33210a" rx="1"/><path fill="#397582" d="M364.63,151.08a7.83,7.83,0,0,1,.15,3.41,5.13,5.13,0,0,1-1.35,2.61,5.71,5.71,0,0,1-5.57,1.38,5.11,5.11,0,0,1-2.41-1.68,7.4,7.4,0,0,1-1.47-3l-.15-.62a7.71,7.71,0,0,1-.14-3.42,5.17,5.17,0,0,1,1.36-2.62,5.33,5.33,0,0,1,2.59-1.44,5.46,5.46,0,0,1,3,.07,5.08,5.08,0,0,1,2.41,1.7,7.75,7.75,0,0,1,1.47,3.08Zm-2.75.08a5.41,5.41,0,0,0-1.45-2.82,2.33,2.33,0,0,0-2.26-.53,2.37,2.37,0,0,0-1.76,1.5,5.37,5.37,0,0,0,0,3.14l.15.61a5.44,5.44,0,0,0,1.44,2.81,2.34,2.34,0,0,0,2.29.55,2.31,2.31,0,0,0,1.74-1.51,5.45,5.45,0,0,0,0-3.14Z"/><path fill="#397582" d="M326.44,79.17l3.47,5.5-3.22,2-9.83-15.6L323,67.26a8.38,8.38,0,0,1,3.5-1.31,5.56,5.56,0,0,1,3.19.54,5.9,5.9,0,0,1,2.42,2.24,5.3,5.3,0,0,1,.71,4.6,7.67,7.67,0,0,1-3.51,4.06Zm-1.64-2.6,2.87-1.81a3.4,3.4,0,0,0,1.57-1.83,2.57,2.57,0,0,0-.41-2.13A3,3,0,0,0,327,69.37a3,3,0,0,0-2.33.45l-3,1.85Z"/><path fill="#ffbf6a" d="M251.59,92.87l-6.09-2.36-1.59,4.12,7.14,2.76-1,2.55-10.32-4,5.95-15.38,10.3,4-1,2.57-7.12-2.75L246.46,88l6.09,2.35Z"/><path fill="#397582" d="M280.91,139.51A11.76,11.76,0,0,1,279,144a8.1,8.1,0,0,1-3.11,2.66l2.65,3.21-3,1.68-3.37-4.19a8.45,8.45,0,0,1-1.48-.19,8.27,8.27,0,0,1-4-2.08,7.89,7.89,0,0,1-2.19-3.92,11.69,11.69,0,0,1,0-5.13l.21-.95a11.86,11.86,0,0,1,2.12-4.77,7.78,7.78,0,0,1,3.61-2.68A8.68,8.68,0,0,1,279,129.5a7.79,7.79,0,0,1,2.16,3.94,11.78,11.78,0,0,1-.06,5.21Zm-3.82-1.75a8.3,8.3,0,0,0-.08-4.83,3.91,3.91,0,0,0-6.16-1.37,8.28,8.28,0,0,0-2.09,4.31l-.2.93a8.44,8.44,0,0,0,.08,4.81A3.88,3.88,0,0,0,274.8,143a8.31,8.31,0,0,0,2.08-4.33Z"/><path fill="#99d6d4" d="M285.35,186.5c-23.76,0-42.81-4.86-56.62-14.45s-22-23.64-24.37-41.77c-2.51-19.21,2.7-37.32,14.67-51,14.71-16.83,38.13-25.79,67.74-25.92h1c73.61,0,91.3,36.3,93.19,66.74,1.12,18.2-8.64,30.31-18.18,33.86a16.52,16.52,0,0,1-5.79,1,17.53,17.53,0,0,1-2.16-.14l-.23,0-.16.16a32,32,0,0,1-7.51,5.18l-.35.19.1.38a8.24,8.24,0,0,1,.21.93,6.44,6.44,0,0,1-3.57,7,8.52,8.52,0,0,1-4.05,1.05,7.27,7.27,0,0,1-5.16-2,7.13,7.13,0,0,1-1.63-2.49l-.14-.36-.39.06-1.13.17a56.56,56.56,0,0,1-6.41.5h-.47V166c-.06,7-5.45,10.13-7.77,11.15a18.32,18.32,0,0,1-13.47.36l-.14-.05-.61.17a63,63,0,0,1-16.12,2.13A49.13,49.13,0,0,1,272,177.94l-.15,0-.14,0A20.43,20.43,0,0,1,265,179a36.18,36.18,0,0,1-13.48-3c-12.8-5.19-25-15.91-31-27.3l0-.08-.07-.06a23.36,23.36,0,0,1-6.39-9.35c-4.86-12.34-2.78-30.39,5.06-43.89,9.52-16.4,26.45-26.86,39-29.94A67.07,67.07,0,0,1,274,63.34a48,48,0,0,1,5.72.33l.16,0,.14-.08a41.38,41.38,0,0,1,20.12-5,51.65,51.65,0,0,1,28.49,8.68,55.19,55.19,0,0,1,12.72,12l.28.37.65-.45a15.86,15.86,0,0,1,8.84-3.16,10,10,0,0,1,6.32,2.19,11,11,0,0,1,3.13,12.56c-1.29,3.09-5.09,5.08-11,5.75l-.51.06.08.51a37.37,37.37,0,0,1,.5,4.87l0,.84.71-.45c1.09-.68,2.23-1.35,3.38-2a13.39,13.39,0,0,1,6.35-1.7,11.57,11.57,0,0,1,7.6,2.92,16.92,16.92,0,0,1,4.66,17.94,14.44,14.44,0,0,1-2.5,4.38l-.15.18,0,.22a23.15,23.15,0,0,1-.94,12.41,10.53,10.53,0,0,1-7.9,7l-.27.06-.08.27a33.52,33.52,0,0,1-2.05,5.32,17.09,17.09,0,0,1-2.38,3.62l-.66.78,1,0h.39a15.57,15.57,0,0,0,5.52-1c9.19-3.42,18.58-15.15,17.49-32.82-1.86-30-19.35-65.75-92.14-65.75h-1c-29.3.13-52.45,9-66.95,25.56-11.77,13.47-16.89,31.29-14.42,50.19,4.65,35.67,33.06,55.31,80,55.31,3.52,0,7.2-.11,10.91-.33a110.74,110.74,0,0,0,21.95-3.55,144.62,144.62,0,0,0,22.94-8.44c1.74-.8,3.47-1.68,5.13-2.54,2.15-1.1,4.37-2.24,6.63-3.19a65.35,65.35,0,0,1,12-3.81,57.24,57.24,0,0,1,11.73-1.21,55.29,55.29,0,0,1,9.29.77c1.39.23,2.83.52,4.4.9a9.83,9.83,0,0,0,1.07.19,7.71,7.71,0,0,1,2.73.74l.66-.71c-12.86-12.1-12-25.67-12-26.25a.53.53,0,0,1,1.05.08c0,.17-1,16.71,16.23,29.19a.52.52,0,0,1,.13.69.5.5,0,0,1-.45.25.64.64,0,0,1-.23,0,44.75,44.75,0,0,0-9.76-3.16,59.72,59.72,0,0,0-13.69-1.7,45.91,45.91,0,0,0-10.57,1.2,75.42,75.42,0,0,0-14.08,4.78c-2.05.94-4.09,1.95-6.06,2.93-2.49,1.24-5.06,2.52-7.65,3.64a128.7,128.7,0,0,1-26.88,8.49,113,113,0,0,1-14.54,1.81C292.61,186.39,288.9,186.5,285.35,186.5Zm-4.52-16.38a17,17,0,0,1-6.4,6.59l-1.09.62,1.22.27a49.61,49.61,0,0,0,11.05,1.17,62.26,62.26,0,0,0,14.16-1.66l1.17-.28-1-.61a15.53,15.53,0,0,1-4.21-3.69l-.2-.26-.32.09a16.2,16.2,0,0,1-4.49.65,14.94,14.94,0,0,1-2.84-.27,13.18,13.18,0,0,1-6.11-3l-.46-.41ZM223.66,151.9a64.76,64.76,0,0,0,28.2,23.17A36.24,36.24,0,0,0,265,177.92a22.07,22.07,0,0,0,3.42-.26l1.7-.27-1.59-.66c-5.43-2.25-9.29-5.69-11.16-9.94l-.13-.29h-.32a12.5,12.5,0,0,1-8.21-2.81c-3.5-3-5.09-6.4-4.7-10.06.91-8.67,12.52-16.21,17.47-19l.49-.29-.35-.44c-.44-.55-.89-1.09-1.33-1.62l-.31-.37-.37.3a33.15,33.15,0,0,1-13.23,6.15l-.33.08,0,.33a17.76,17.76,0,0,1-3.86,9A13.79,13.79,0,0,1,231.39,153a14.75,14.75,0,0,1-4.23-.63,19.78,19.78,0,0,1-2.88-1.13l-1.6-.79Zm98.25,15.21a44.24,44.24,0,0,1-16,9.3l.08.94a17.33,17.33,0,0,0,9.71-1.13c4.06-1.8,6.49-4.8,7-8.69l.19-1.39Zm-51.22-20c2,6.42.68,12-3.81,15.77a15.58,15.58,0,0,1-7.87,3.42l-.67.1.3.6c2.19,4.38,6.63,7.74,12.85,9.72l.16,0,.16-.06a15.44,15.44,0,0,0,8.11-7.15c.16-.29.31-.57.45-.86l.14-.29-.2-.24a12,12,0,0,1-1.81-2.92c-1.18-2.69-1.95-7.14,1.08-13.09l.13-.26-.16-.24a11.61,11.61,0,0,0-7.38-5c-.32-.06-.63-.12-.94-.16l-.78-.12Zm35.93,15.54a18.91,18.91,0,0,1-9.47,9l-.62.26.45.51a14.54,14.54,0,0,0,5.43,3.88l.16.07.16,0c5.27-1.53,12.75-4.51,18.46-10l.81-.78-1.12-.06a39.81,39.81,0,0,1-13.63-3l-.43-.18Zm-14.71-18.07c-4.76,1-8.56,3.26-10.42,6.3-.15.25-.3.5-.44.75l-.13.24.14.24c.23.41.44.83.63,1.25a18.69,18.69,0,0,1,.18,14.54l-.12.3.23.23a12.28,12.28,0,0,0,6.08,3.23,13.79,13.79,0,0,0,2.66.26,15,15,0,0,0,3.5-.43l.65-.15-.34-.57a12,12,0,0,1-.58-1.06,11.12,11.12,0,0,1,1.31-12.32,16.89,16.89,0,0,1,1.67-1.89l.32-.31-.29-.34c-2.71-3.31-4.22-6.61-4.46-9.83l0-.55Zm5.67,11.75a15.55,15.55,0,0,0-1.49,1.69,10,10,0,0,0-1.2,11.23c.24.48.51.95.8,1.41l.21.33.38-.14a17.7,17.7,0,0,0,9.38-8.63l.21-.43-.43-.22a26.13,26.13,0,0,1-7.16-5.24l-.35-.36ZM345.06,161a50.43,50.43,0,0,1-11.13,3.48l-.62.12.28.57a5.94,5.94,0,0,0,1.22,1.7,6.24,6.24,0,0,0,4.43,1.73,7.45,7.45,0,0,0,3.55-.92,5.44,5.44,0,0,0,3-5.9c0-.15-.05-.29-.08-.44l-.13-.59ZM279.91,154c-1.7,3.94-1.86,7.72-.45,10.91a11,11,0,0,0,1,1.74l.56.82.31-.94A17.47,17.47,0,0,0,280.8,154l-.45-1Zm-17.68-18.62c-4.88,2.76-16.32,10.09-17.19,18.38-.35,3.3,1.11,6.39,4.34,9.17a11.27,11.27,0,0,0,6.76,2.51l.69,0-.2-.66c-1.93-6.37-1.23-11.86,2-15.46a12.74,12.74,0,0,1,9.53-4h.75l-.32-.68c-.36-.78-.79-1.59-1.27-2.41a71.71,71.71,0,0,0-4.43-6.69l-.26-.35Zm6.3,11a11.81,11.81,0,0,0-9.14,3.7c-3.05,3.42-3.62,8.73-1.6,15l.12.37h.41a14.55,14.55,0,0,0,7.89-3.23c4.38-3.65,5.52-9.14,3.21-15.47l-.11-.32Zm61.16,3A22.4,22.4,0,0,1,325,163.68l-.62.82,1,0c1.72-.06,3.49-.22,5.26-.46l.89-.13.48-.08-.08-.48c-.49-3,.37-6.69,2.55-10.87.22-.44.46-.85.71-1.25l.29-.46-.5-.24a29.54,29.54,0,0,0-4.68-1.67l-.63-.17Zm-17.24-.47a43,43,0,0,0-4.35,1.29l-.43.15.12.43a16.66,16.66,0,0,1-.41,10.19l-.16.44.42.18a39.34,39.34,0,0,0,14.56,3h.58l-.08-.57a17.23,17.23,0,0,0-1-3.81,24.35,24.35,0,0,0-8.81-11.21l-.18-.13Zm23.73,2.76c-.26.42-.52.87-.76,1.33-2,3.91-2.89,7.44-2.47,10.2l.08.5.5-.09A49.14,49.14,0,0,0,344.78,160l.45-.2-.22-.45c-1.41-2.92-4.39-5.8-8.18-7.9l-.4-.22Zm-14.39-3.85a40.65,40.65,0,0,0-6.64.55l-1.07.18.85.68a25.2,25.2,0,0,1,7.71,10.59,21.36,21.36,0,0,1,.86,2.77l.24,1,.63-.86a21.61,21.61,0,0,0,4.25-13.9l0-.4-.39-.06A34,34,0,0,0,321.79,147.74Zm-15.63,3.13a28.57,28.57,0,0,0-7,4.12l-.41.33.36.39a25.65,25.65,0,0,0,6.71,4.92l.5.25.18-.53a15.67,15.67,0,0,0,.36-9.15l-.14-.55Zm34.53-3.72a13,13,0,0,0-3.24,2.74l-.39.45.52.29a20.19,20.19,0,0,1,8.37,8.24l.22.45.44-.23a33.39,33.39,0,0,0,5.93-3.88l.72-.6-.91-.25a22.68,22.68,0,0,1-11.05-7.11L341,147Zm-43.63-3a27,27,0,0,0-3.13.18l-.46.05,0,.46c.19,3,1.61,6.16,4.22,9.35l.31.38.38-.31a30,30,0,0,1,7.52-4.37l.44-.18-.17-.44a21.61,21.61,0,0,0-2.13-4.13L304,145l-.19-.05a29.86,29.86,0,0,0-4.18-.67C298.75,144.17,297.9,144.13,297.06,144.13Zm61.65.17c-1.79.23-3.7.3-5.55.36-3.55.11-7.21.23-10.47,1.52l-.67.26.49.52a21.13,21.13,0,0,0,11.39,6.73l.25,0,.19-.18a17.41,17.41,0,0,0,3.22-4.46,33.19,33.19,0,0,0,1.68-4.16l.24-.74ZM223,122.42a13.25,13.25,0,0,0-4.83,7.14c-1.44,5.42-.35,11.8,3.14,18.45l.05.09.08.06a17.67,17.67,0,0,0,6,3.17,13.83,13.83,0,0,0,4,.6,12.71,12.71,0,0,0,9.89-4.89,16.73,16.73,0,0,0,3.53-7.71l.12-.7-.7.14c-1.39.27-2.77.48-4.11.63a15.67,15.67,0,0,1-1.66.09,11.5,11.5,0,0,1-11.34-8,9.27,9.27,0,0,1-.14-4.95l.07-.3-.24-.2a15.28,15.28,0,0,1-3.12-3.48l-.28-.44Zm48.1,8.82a42,42,0,0,0-7.11,3.12l-.49.26.33.45a74.33,74.33,0,0,1,4.32,6.57,31.4,31.4,0,0,1,1.73,3.42l.11.27.29,0a20.19,20.19,0,0,1,2.06.31,12.55,12.55,0,0,1,7.46,4.69l.43.55.37-.59c2.11-3.39,6.29-5.87,11.47-6.81l.37-.07,0-.37a11.49,11.49,0,0,1,1.34-4.46,13.49,13.49,0,0,1,1.17-1.8l.32-.4-.42-.3c-.7-.49-1.45-1-2.28-1.49l-.25-.16-.25.15a17,17,0,0,1-8.69,2.06c-.93,0-1.92,0-3-.14a11.56,11.56,0,0,1-8.79-5.1l-.2-.31Zm65.95,10.65a27.06,27.06,0,0,1-7.57,1.8l-.55.05.12.53a27.62,27.62,0,0,1,.47,2.94l0,.34.33.09a30.54,30.54,0,0,1,5.84,2.05l.34.16.24-.3a13.78,13.78,0,0,1,3.54-3.16l.45-.28-.32-.43a28,28,0,0,1-2.32-3.57l-.21-.38Zm-31,4.56a21,21,0,0,1,1.1,2.42l.17.44.45-.16q1.28-.45,2.55-.81l1.15-.33-1.05-.57a26.79,26.79,0,0,0-3.78-1.68l-1.18-.42Zm-2.93-14.19a18,18,0,0,0-5.85,3.59l-.42.39.45.35a34.46,34.46,0,0,1,7.17,7.3l.1.15.17,0a27.67,27.67,0,0,1,8,3.5l.17.11.19,0a41.86,41.86,0,0,1,8.76-1,35.17,35.17,0,0,1,6,.5l.65.12-.08-.66c-.1-.74-.23-1.5-.4-2.29l-.13-.58-.4,0h-.86a27,27,0,0,1-11-2.23c-4.08-1.84-7.89-4.77-12-9.2l-.22-.25Zm43.72-1.72a13,13,0,0,1-6.34,9.58c-.52.33-1.07.65-1.64.94l-.45.23.25.44a27.61,27.61,0,0,0,2.4,3.58l.23.29.34-.15c3.59-1.58,7.59-1.71,11.45-1.84a48,48,0,0,0,6.35-.48l.31-.06.08-.31a28.36,28.36,0,0,0,.3-12.58l-.1-.48-.48.1a31.9,31.9,0,0,1-5.92.66l-1,0a36.35,36.35,0,0,1-5.25-.37l-.51-.08ZM297,143.08c.88,0,1.78,0,2.68.12.71.06,1.42.15,2.1.26l1.29.2-.84-1a35.9,35.9,0,0,0-5.66-5.34l-.39-.3-.29.38a11.94,11.94,0,0,0-1.12,1.71,10.6,10.6,0,0,0-1.18,3.56l-.09.62.62-.07C295.06,143.13,296,143.08,297,143.08ZM274.1,64.36a66.79,66.79,0,0,0-15.81,2.07c-9.21,2.27-27.64,11-38.35,29.46-7.69,13.24-9.74,30.92-5,43a25.16,25.16,0,0,0,2,4.06l2.35,3.1c-2.92-6.09-3.19-12.7-2.12-16.74a14.22,14.22,0,0,1,5.42-7.85l.34-.24-.18-.37a17.39,17.39,0,0,1-1.55-5.13c-1.14-8,1.73-14.9,7.88-19h0l.27-.22v-.24A17,17,0,0,1,233,84.84a17.73,17.73,0,0,1,14.09-6.48h.61c5.34.16,9.68,2.51,12.21,6.62,1.85,3,2.66,6.83,2.43,11.36l0,.42.42.08a41.36,41.36,0,0,1,4.93,1.3l.3.1.21-.23c1.29-1.39,2.52-2.83,3.65-4.29l.24-.32-.26-.3c-5.39-6.29-8.34-13.34-7.34-17.53.48-2,2-4.44,6.69-4.44h.6l.14-.27A13.62,13.62,0,0,1,276,66.17l1.17-.84,1.18-.81-1.43-.08C276,64.39,275.06,64.36,274.1,64.36Zm94,61.43a17.94,17.94,0,0,1-6.64,3.52l-.43.13.1.44a28.8,28.8,0,0,1-.06,12.12l-.18.84.81-.28a9.38,9.38,0,0,0,6.08-6.06,22,22,0,0,0,1.12-10.41l-.11-.9Zm-57.23,5a22,22,0,0,0-5.57.73l-.8.21.57.6a35.83,35.83,0,0,0,11,8.26,25.81,25.81,0,0,0,10.5,2.16h1l-.22-.64a18.07,18.07,0,0,0-1.24-2.83L326,139l-.33,0a13,13,0,0,1-1.63.11c-4.75,0-8.71-2.64-11.46-7.63-.08-.14-.15-.28-.22-.42l-.13-.25H312Q311.44,130.83,310.91,130.83Zm23.44,4.58a20.46,20.46,0,0,1-6.64,3.26l-.58.15.27.54a19.2,19.2,0,0,1,1.19,3l.11.37.39,0a25.76,25.76,0,0,0,7.45-1.7l.48-.19-.38-.82a27.8,27.8,0,0,1-1.53-4.3l-.18-.68Zm6.74-6.66a32.78,32.78,0,0,1-5,5.32l-.23.2.07.29a27.37,27.37,0,0,0,1.68,5l.38.82.45-.24a17.71,17.71,0,0,0,1.56-.89c2.48-1.6,5.51-4.45,5.87-9l0-.42-.42-.09a25.65,25.65,0,0,1-3.81-1.15l-.35-.14Zm-113.2-1.12a8.55,8.55,0,0,0,.28,3.55,10.48,10.48,0,0,0,10.34,7.26c.51,0,1,0,1.55-.08,1.54-.17,3.1-.42,4.65-.75l.37-.07,0-.38a17,17,0,0,0-1.62-8.09l-.19-.38-.39.13a19.29,19.29,0,0,1-5.55.83,16.37,16.37,0,0,1-2.55-.19,16.64,16.64,0,0,1-6.18-2.18l-.63-.39ZM314,131.87c2.52,4.09,6,6.25,10,6.25h.5l.93,0-.56-.74a16.16,16.16,0,0,0-10.41-6.19l-1.07-.19Zm13.13-15.67a38.19,38.19,0,0,0-12.42,2l-.17.06-.09.15c-2.39,3.94-2.93,7.69-1.61,11.16l.11.28.3,0c.24,0,.49.05.73.09a17.09,17.09,0,0,1,12.4,7.58l.18.28.34-.07a19.54,19.54,0,0,0,7.54-3.78l.24-.19-.06-.29a27.19,27.19,0,0,1-.1-9.39l0-.23-.16-.18a19.7,19.7,0,0,1-4.15-7.1l-.1-.31-.32,0C329,116.23,328,116.2,327.13,116.2ZM251,124.06a20.89,20.89,0,0,1-6.26,4.09l-.47.19.21.46a18,18,0,0,1,1.66,7.85l0,.64.62-.16a31.92,31.92,0,0,0,12.12-5.73l.4-.33-.35-.38a49.39,49.39,0,0,0-7.29-6.67l-.33-.24Zm47.32,5.53a49.2,49.2,0,0,1-4.39,3.83l-.57.42.6.39c.6.38,1.18.77,1.74,1.16l.33.24.29-.29a19,19,0,0,1,5.77-3.76l.62-.26-.44-.51c-.68-.77-1.34-1.56-2-2.35l-.33-.41Zm-19.94.46a22.5,22.5,0,0,0-5.16.61l-.72.17.44.6a10.38,10.38,0,0,0,7.63,4c1,.1,2,.14,2.91.14a16.44,16.44,0,0,0,7-1.35l.89-.41-.86-.46A25.25,25.25,0,0,0,278.4,130.05Zm-9.22-9.79c-.94.15-1.85.26-2.72.34l-.37,0L266,121a18.56,18.56,0,0,1-4.95,9.84l-.32.32.29.34c.55.64,1.08,1.29,1.6,2l.25.32.36-.19a45.86,45.86,0,0,1,7.2-3.22l.52-.17-.22-.49a14.5,14.5,0,0,1-1.25-6,17.79,17.79,0,0,1,.24-2.89l.11-.66Zm9.24,8.76a26.84,26.84,0,0,1,13.71,4.07l.26.15.25-.17a40.21,40.21,0,0,0,5-4.24l1.7-1.6-.27-.35c-1.28-1.61-2.52-3.25-3.76-4.88-1.77-2.33-3.77-5-5.82-7.42l-.22-.26-.32.11a125.59,125.59,0,0,1-17.63,5.46L271,120l-.07.32a16.81,16.81,0,0,0-.35,3.44,13.82,13.82,0,0,0,1.28,5.83l.17.36.39-.1A24.35,24.35,0,0,1,278.42,129Zm57-3.28a26,26,0,0,0,.08,6.41l.13.93.69-.64a33.86,33.86,0,0,0,3.63-4l.37-.47-.53-.26a19.71,19.71,0,0,1-3.58-2.34l-.69-.57Zm-23.66-6.24-.77.42A56.94,56.94,0,0,0,301.1,127l-.35.31.29.37c.89,1.09,1.73,2.07,2.55,3l.21.23.3-.09a22.91,22.91,0,0,1,6.87-1.06h.81l-.18-.63a12.87,12.87,0,0,1,.8-9l.55-1.25Zm-56.86-.16a24.72,24.72,0,0,1-2.44,3.26l-.35.39.43.32a50.75,50.75,0,0,1,7.21,6.67l.35.39.36-.38a17.54,17.54,0,0,0,4.47-8.69l.12-.6h-1.25a20.45,20.45,0,0,1-8.3-1.57l-.38-.17Zm93.37-5.29a42.38,42.38,0,0,1-3.09,8.16l-.11.24.13.23a12.46,12.46,0,0,1,1.75,5.91v.4l.4.06a35.14,35.14,0,0,0,5.25.38h1.06a29.91,29.91,0,0,0,5.64-.64l.52-.11-.15-.5a26.5,26.5,0,0,0-1.22-3.24A28.37,28.37,0,0,0,349,113.78l-.58-.41ZM344,124.33c-.55,1-1.14,1.9-1.74,2.78l-.36.52.6.21a23.4,23.4,0,0,0,2.72.81l.65.15-.05-.67a11.75,11.75,0,0,0-.95-3.76l-.39-.87ZM233.59,120.4a10.25,10.25,0,0,0-5.11,5l-.16.37.34.23a15.41,15.41,0,0,0,6.3,2.38,16.91,16.91,0,0,0,2.39.17,18.12,18.12,0,0,0,4.82-.66l.62-.18-.34-.55a15.06,15.06,0,0,0-8.39-6.91l-.18,0Zm116-16.19v.24a41,41,0,0,1-.89,7.51l-.07.32.27.18a29.6,29.6,0,0,1,10.44,12,25,25,0,0,1,1.29,3.44l.14.47.47-.14a16.56,16.56,0,0,0,7.1-4.15l.19-.19-.06-.26c-1.95-8.4-8-15.28-16.93-19.36-.35-.16-.71-.31-1.07-.45l-.24-.08Zm-110.57,14.9a12.55,12.55,0,0,0-2.22.2l-1.42.25,1.28.66a17.37,17.37,0,0,1,6.87,6.83l.21.36.39-.16A19.6,19.6,0,0,0,250,123.6l.48-.43-.54-.34C246.08,120.36,242.44,119.11,239.07,119.11Zm98.26-.73a26.3,26.3,0,0,0-1.56,5l-.06.27.2.18a17.8,17.8,0,0,0,4.62,3.2l.38.19.23-.34a40.93,40.93,0,0,0,2.52-4.08l.15-.28-.2-.25A12.57,12.57,0,0,0,340,119.1a17.36,17.36,0,0,0-2-1l-.45-.19Zm-36.61-8.17c-3.32,1.11-6.61,2.32-9.79,3.49l-.64.23.44.53c1.77,2.16,3.5,4.43,5.17,6.62l.22.29c1.23,1.62,2.43,3.2,3.65,4.75l.32.41.39-.35a57.91,57.91,0,0,1,9.95-7.17,23.7,23.7,0,0,1,3.28-1.52l.15-.06.08-.13a24.63,24.63,0,0,1,2.75-3.5,38.11,38.11,0,0,1,9.54-7.3l1.5-.83-1.71-.09c-.67,0-1.34,0-2,0a47.92,47.92,0,0,0-4.83.26l-.18,0-.51.54c-3.39,3.46-7.25,5.29-11.16,5.29h0c-.35,0-.7,0-1.06,0a15,15,0,0,1-5.19-1.36l-.18-.08Zm-69.94,9.62a14,14,0,0,0-1.46.08,12.66,12.66,0,0,0-4.49,1.38l-.48.25.3.45a14.21,14.21,0,0,0,2.33,2.74l.47.43.29-.57a10.89,10.89,0,0,1,3.34-3.88l1.22-.91Zm129.32-20a12.39,12.39,0,0,0-5.86,1.59c-.71.38-1.4.77-2.06,1.16l-.8.47.84.39c8.56,4,14.57,10.53,16.92,18.49l.3,1,.57-.89a13.25,13.25,0,0,0,1.35-2.75,16,16,0,0,0-4.36-16.8A10.34,10.34,0,0,0,360.1,99.84Zm-28.52,17.37a18.62,18.62,0,0,0,2.61,4.67l.6.79.25-1a26.55,26.55,0,0,1,1.25-3.64l.21-.5-.52-.16a27.31,27.31,0,0,0-3.88-.85l-.83-.12Zm-92.41.82c3.65,0,7.59,1.39,11.69,4.12l.35.23.28-.31a23,23,0,0,0,2.39-3.13l.27-.42-.44-.26a18.36,18.36,0,0,1-4.56-3.81c-.43-.5-.85-1-1.23-1.51l-.19-.25-.3.07-.92.17a17.59,17.59,0,0,1-2.75.23c-6.82,0-11.45-4.4-13.76-13.07-.14-.53-.25-1.07-.35-1.61l-.13-.78-.64.48c-5.22,3.88-7.63,10.22-6.61,17.37a16.24,16.24,0,0,0,1.36,4.62l.22.46.45-.24a13.83,13.83,0,0,1,6.46-1.61,13.26,13.26,0,0,1,2.89.32l.15,0,.15-.06A13.23,13.23,0,0,1,239.17,118Zm103.32-7.65a30,30,0,0,0-4.28,6.13L338,117l.49.21a19,19,0,0,1,2,1,14,14,0,0,1,3.37,2.71l.49.54.32-.66a41.41,41.41,0,0,0,2.75-7.7l.08-.34-.3-.19a40.75,40.75,0,0,0-4.13-2.29l-.33-.16Zm-82-4-.05.15a76.61,76.61,0,0,1-3.81,9.66c-.23.49-.47,1-.72,1.43l-.25.47.49.21a19.39,19.39,0,0,0,7.67,1.42c.32,0,.64,0,1,0h.43l0-.42a22.17,22.17,0,0,0,0-3.91,21.57,21.57,0,0,0-3.12-9.58l-.29-.46ZM268,99.69a65.25,65.25,0,0,1-5,4.69l-.33.27.23.36a22.73,22.73,0,0,1,3.39,14l0,.58.59-.06c.93-.09,1.93-.23,3-.41l.3,0,.08-.3a19.55,19.55,0,0,1,10.28-12.15l.71-.35-.64-.48a33.13,33.13,0,0,0-2.79-1.87,54.5,54.5,0,0,0-9.21-4.37l-.29-.11Zm13.79,7.48A18.86,18.86,0,0,0,271.53,118l-.29.83.85-.19a133.32,133.32,0,0,0,15.76-5l.67-.24-.47-.54a54.5,54.5,0,0,0-5.71-5.69l-.24-.2Zm-24,1a34.86,34.86,0,0,1-8.31,4l-.69.21.45.56.66.79a17.39,17.39,0,0,0,4.31,3.59l.43.25.24-.44c.25-.46.49-.94.72-1.43,1.13-2.41,2.11-4.76,2.92-7l.48-1.35Zm70.38-1.58a37.91,37.91,0,0,0-10.76,7.91c-.32.35-.66.73-1,1.15l-1,1.17,1.47-.39a40,40,0,0,1,10.16-1.31c.69,0,1.37,0,2.05.06l.66,0-.16-.64a29.26,29.26,0,0,1-.74-7.54l0-.81Zm1.74-.06a27.77,27.77,0,0,0,.91,8.47l.08.32.33,0a27.67,27.67,0,0,1,5.28,1.11l.4.13.19-.37a30.76,30.76,0,0,1,4.14-6.11l.44-.5-.62-.26a56.18,56.18,0,0,0-7.8-2.68c-.92-.24-1.85-.45-2.78-.61L330,106Zm-40-1.48a27.05,27.05,0,0,0-5.95,1.26l-.8.26.63.56a60.62,60.62,0,0,1,5.52,5.69l.21.25.89-.32c2.68-1,5.46-2,8.24-3l.91-.32-.79-.55a17.49,17.49,0,0,1-3.42-3.11l-.14-.17H295a22.6,22.6,0,0,1-4.91-.58l-.08,0ZM241.11,94.31a20.85,20.85,0,0,0-10.31,2.62l-.29.16,0,.32a18.31,18.31,0,0,0,.47,2.41c2.16,8.15,6.45,12.29,12.74,12.29a15.5,15.5,0,0,0,2.58-.22h0l.61-.23-.31-.51c-2.67-4.31-2.84-8.25-.48-11.08a9.94,9.94,0,0,1,4.48-2.89l1.22-.41-1.19-.5A25,25,0,0,0,241.11,94.31Zm106.62,11.26a40.11,40.11,0,0,0-3.76,3.25l-.48.48.6.31c1.06.53,2.09,1.1,3.05,1.68l.6.37.13-.69a38.33,38.33,0,0,0,.64-5l.07-1.06Zm-94.51-8a10.22,10.22,0,0,0-6.21,3.15c-2.16,2.6-1.82,6.32,1,10.48l.2.29.34-.09a35.2,35.2,0,0,0,10.91-5.6l.14-.09,0-.16c.23-.74.42-1.47.6-2.16l.06-.25-.16-.19a23.49,23.49,0,0,0-5.61-4.77l-1-.56-.15-.08Zm62.51,8.67a90.49,90.49,0,0,0-11.87,2.93l-1.62.51,1.64.43a14.6,14.6,0,0,0,2.48.42c.33,0,.67,0,1,0a13.62,13.62,0,0,0,8.76-3.47L317.5,106Zm.56-17.21a18.85,18.85,0,0,1-2.81,5.81c-4.51,6.28-9.86,9.86-15.91,10.63l-1,.13.71.7a15.28,15.28,0,0,0,3.51,2.6l.18.1.2-.07a87.77,87.77,0,0,1,17.13-4.12l.19,0,.12-.14a37.56,37.56,0,0,0,6.49-11.09l.18-.45-.45-.18a37.62,37.62,0,0,1-7.8-4.16l-.55-.4Zm27.12,13.62a31.76,31.76,0,0,0-10.49,1.93l-1.52.54,2.17.54a57.36,57.36,0,0,1,8.59,3l.31.14.24-.25a40.34,40.34,0,0,1,5.4-4.59l.9-.65-1.09-.22A21.83,21.83,0,0,0,343.41,102.67Zm-71-8c-.92,1.17-1.9,2.33-2.91,3.45l-.48.53.67.25a57.12,57.12,0,0,1,8.57,4.17,34,34,0,0,1,3.77,2.61l.22.17.26-.1a26.52,26.52,0,0,1,3.38-1l1.48-.35-1.4-.58c-.35-.14-.68-.29-1-.43a38.74,38.74,0,0,1-11.83-8.72l-.38-.41ZM324,104.48a39.93,39.93,0,0,1,4.56.26l.48.05.06-.49a39.6,39.6,0,0,1,2-8.76l.17-.5-.5-.13c-1.39-.38-2.74-.8-4-1.25l-.44-.16-.17.44a40.6,40.6,0,0,1-5.41,9.85l-.66.85,1.07-.06C322.09,104.51,323.06,104.48,324,104.48ZM276.31,89c-.79,1.34-1.69,2.7-2.67,4.06l-.23.32.27.29a38.11,38.11,0,0,0,11.75,8.74A26.26,26.26,0,0,0,290,104a1,1,0,0,1,.26.06,22.08,22.08,0,0,0,3.19.53l1,.08-.55-.84A26.17,26.17,0,0,1,290,93.35l-.07-.51-.51.1a10.59,10.59,0,0,1-2.12.21,12.84,12.84,0,0,1-3.6-.54,17.84,17.84,0,0,1-6.65-3.77l-.45-.39Zm28.93-17.81a13.56,13.56,0,0,0-4.48.82A12.45,12.45,0,0,0,298.45,73l-.41.24.22.41c2.74,5,1.58,10.86-3.18,16a10.87,10.87,0,0,1-3.79,2.68l-.35.15.05.37a24.71,24.71,0,0,0,4.62,11.53l.16.2H296c6.32-.31,11.9-3.8,16.61-10.36a18.22,18.22,0,0,0,2.9-6.28l.07-.29-.23-.19a18.54,18.54,0,0,1-3.4-3.72,11.62,11.62,0,0,1-1.41-10.68l.13-.38-.34-.2A9.89,9.89,0,0,0,305.24,71.15ZM332.06,95.7a38.78,38.78,0,0,0-1.89,8.1l-.1.82.77-.31a34.42,34.42,0,0,1,12.67-2.66,22.79,22.79,0,0,1,4.45.42l.61.12,0-.63a38.93,38.93,0,0,0-.49-4.34l-.07-.43-.44,0c-.79,0-1.61.07-2.44.07a55.67,55.67,0,0,1-12.47-1.49l-.42-.1Zm-69.88,2.66a37.65,37.65,0,0,1-.74,4.3l-.05.23.68.89.39-.33c1.41-1.17,2.8-2.44,4.14-3.78l.57-.57-.77-.24c-1.21-.37-2.43-.68-3.63-.93l-.52-.1Zm-7.05-1,1.24.87a24.5,24.5,0,0,1,3.54,3l.65.67.18-.92c.19-1,.33-1.92.43-2.84l.05-.47-.46-.06a27.5,27.5,0,0,0-3.91-.3Zm1.78-1.06a29.14,29.14,0,0,1,3.87.28l.53.07,0-.54A18.26,18.26,0,0,0,259,85.54c-2.33-3.8-6.36-6-11.34-6.12h-.61a16.46,16.46,0,0,0-13.24,6.08,15.73,15.73,0,0,0-3.4,9.63v.8l.72-.36a22.29,22.29,0,0,1,10-2.3,26.61,26.61,0,0,1,12.36,3.15l.14.08.15,0A22.54,22.54,0,0,1,256.91,96.25Zm84-14.62a33.05,33.05,0,0,0-8.16,12.12l-.22.53.56.13a54.63,54.63,0,0,0,12,1.42c.7,0,1.39,0,2.06,0l.58,0-.13-.56a39.8,39.8,0,0,0-5.95-13.47l-.31-.46Zm10.2-4.44a15.14,15.14,0,0,0-8.33,3l-.62.43.27.4a40.75,40.75,0,0,1,6.27,14.24l.09.43.43,0c5.52-.6,9.17-2.42,10.3-5.13a10,10,0,0,0-2.82-11.34A8.64,8.64,0,0,0,351.16,77.19ZM317.56,67a7.91,7.91,0,0,1,1.52.15c4.11.8,8.89,5.06,9.66,12.53.33,3.23-.38,7.73-1.94,12.35l-.16.46.46.16c1.29.46,2.67.88,4.1,1.27l.41.11.17-.4a34.06,34.06,0,0,1,8.65-12.93l.34-.29-.27-.36A54,54,0,0,0,328,68.19a50.55,50.55,0,0,0-27.87-8.5,40.77,40.77,0,0,0-17.21,3.6l-1.34.62,1.45.3c6.32,1.31,11.35,4.09,14.18,7.84l.26.34.37-.22A15.35,15.35,0,0,1,300.41,71a14.82,14.82,0,0,1,4.89-.89,10.77,10.77,0,0,1,5.35,1.36l.45.26.22-.47c.09-.16.17-.33.26-.5A6.58,6.58,0,0,1,317.56,67ZM270.63,72.2c-3.57.18-4.76,2.07-5.13,3.62-.93,3.89,1.75,10.28,6.81,16.27l.41.48.36-.51a46.47,46.47,0,0,0,2.6-4l.18-.31-.24-.27a18.07,18.07,0,0,1-4.77-9,12.09,12.09,0,0,1,.27-5.63l.2-.66Zm46.95-4.14a5.56,5.56,0,0,0-5.07,3.17c-.14.25-.26.51-.38.76l-.16.34.29.24a12.3,12.3,0,0,1,1.87,2A16.12,16.12,0,0,1,316.78,87l0,.29.23.18a35,35,0,0,0,8.21,4.51l.48.19.17-.48c1.51-4.45,2.19-8.76,1.88-11.84-.72-6.94-5.07-10.88-8.82-11.61A6.66,6.66,0,0,0,317.58,68.06ZM280,64.82A35.92,35.92,0,0,0,276.64,67a13.08,13.08,0,0,0-3.38,3.58l-.38.62.72.12c5,.8,6.21,3.94,6.36,6.43s-.77,5.77-2.67,9.42l-.18.33.28.25A17.07,17.07,0,0,0,284,91.61a11.89,11.89,0,0,0,3.32.5,9.54,9.54,0,0,0,2.08-.23l.41-.09,0-.42c-.6-7.63,1.82-14.39,6.45-18.09l.38-.29-.29-.38c-3.08-4.07-8.78-6.86-16.05-7.85l-.16,0Zm16.75,9.43c-4.11,3.39-6.32,9.55-5.93,16.48l0,.74.67-.33A10.11,10.11,0,0,0,294.31,89c4.36-4.69,5.5-10,3.15-14.57l-.28-.54ZM272.29,72.6a11,11,0,0,0-.41,5.67,16.88,16.88,0,0,0,4,8l.48.54.32-.65c1.6-3.24,2.35-6,2.21-8.31-.19-3.26-2.25-5.13-6.11-5.54l-.38,0Zm39,1.5a10.52,10.52,0,0,0,1.5,9.09,15.69,15.69,0,0,0,2.27,2.65l.73.7.09-1A15.06,15.06,0,0,0,313.3,75.2a11.41,11.41,0,0,0-1.16-1.32l-.58-.56Z"/><path fill="#f4827c" d="M355.69,96.56a2.78,2.78,0,0,1-.49-.82A3.3,3.3,0,0,1,353,97.42a3.64,3.64,0,0,1-2.62-.25,2.8,2.8,0,0,1-1.48-1.9,2.87,2.87,0,0,1,.58-2.7,6,6,0,0,1,3.17-1.68l1.22-.3-.14-.57a1.71,1.71,0,0,0-.62-1,1.39,1.39,0,0,0-1.21-.14,1.62,1.62,0,0,0-1,.58,1.12,1.12,0,0,0-.16,1l-2.65.65a2.79,2.79,0,0,1,.14-1.73,3.63,3.63,0,0,1,1.22-1.52,5.85,5.85,0,0,1,2.08-.95,4.45,4.45,0,0,1,3.14.21,3.32,3.32,0,0,1,1.71,2.33l1.05,4.3a5,5,0,0,0,.91,2l0,.16ZM353,95.25a2.31,2.31,0,0,0,1-.52,1.73,1.73,0,0,0,.56-.88l-.41-1.71-1,.24c-1.33.33-1.92,1-1.78,1.9l0,.15a1.12,1.12,0,0,0,.55.73A1.37,1.37,0,0,0,353,95.25Z"/><path fill="#ffd471" d="M331.25,133.38a7,7,0,0,1,.07,4.51,3.94,3.94,0,0,1-2.76,2.42,3.65,3.65,0,0,1-3.3-.55l.21,1.22-2.67.77-4.58-15.81,3-.86,1.64,5.67a3.54,3.54,0,0,1,2.36-2,4,4,0,0,1,3.63.57,7.09,7.09,0,0,1,2.38,3.89Zm-3,.64a4.66,4.66,0,0,0-1.25-2.3,1.86,1.86,0,0,0-1.82-.32,2,2,0,0,0-1.62,1.73l1.27,4.39a2.08,2.08,0,0,0,2.32.61,1.92,1.92,0,0,0,1.48-2A7.68,7.68,0,0,0,328.22,134Z"/><path fill="#f4827c" d="M288.41,101.11a1.8,1.8,0,0,0,1.29-.13,1.48,1.48,0,0,0,.72-1l2.49.57a3.52,3.52,0,0,1-1,1.73,3.76,3.76,0,0,1-1.79,1,4.64,4.64,0,0,1-2.19,0,4.38,4.38,0,0,1-3-2.13,5.45,5.45,0,0,1-.38-4l0-.17a5.42,5.42,0,0,1,2.06-3.39,4.41,4.41,0,0,1,3.68-.61,4.33,4.33,0,0,1,2.75,1.75,3.88,3.88,0,0,1,.5,3.09l-2.5-.57a1.81,1.81,0,0,0-.19-1.37,1.83,1.83,0,0,0-2.66-.41,4.11,4.11,0,0,0-1,2.09l-.06.28a4.13,4.13,0,0,0,0,2.32A1.68,1.68,0,0,0,288.41,101.11Z"/><path fill="#4792a3" d="M246.38,166.7a6.13,6.13,0,0,1-.08-3.94,3.45,3.45,0,0,1,2.38-2.19,3.11,3.11,0,0,1,2.67.35l-1.51-5,2.61-.8L256.64,169l-2.35.71-.44-1a3.2,3.2,0,0,1-2.13,2,3.41,3.41,0,0,1-3.16-.52A6.25,6.25,0,0,1,246.38,166.7Zm2.65-.6a4,4,0,0,0,1.12,2,1.6,1.6,0,0,0,1.6.31,1.79,1.79,0,0,0,1.39-1.53L252,163a1.79,1.79,0,0,0-2-.51Q248.11,163.05,249,166.1Z"/><path fill="#4792a3" d="M279.39,73.22l-3.95,2.12,2.2,4.08-2.06,1.11-5.38-10,6.5-3.5.9,1.66-4.44,2.4,1.39,2.58,3.95-2.13Z"/><path fill="#4792a3" d="M314.29,108.05l-2.35-.64-1.42,5.25-3-.8,3.88-14.33L316.77,99a6.25,6.25,0,0,1,3.61,2.19,4,4,0,0,1,.52,3.57,4.63,4.63,0,0,1-1.3,2.28,4.51,4.51,0,0,1-2.35,1l1.52,6.7,0,.13-3.17-.85Zm-1.7-3,2.38.65a2.58,2.58,0,0,0,1.88-.1,2.09,2.09,0,0,0,1-1.4,2.25,2.25,0,0,0-.15-1.75,2.49,2.49,0,0,0-1.61-1.06l-2.37-.64Z"/><path fill="#4792a3" d="M266.1,115.06a1.1,1.1,0,0,0-.87-.77,7.17,7.17,0,0,0-2.1-.05q-4.63.39-5.48-2.4a3.55,3.55,0,0,1,.54-3.13,5.68,5.68,0,0,1,3.21-2.15,6.12,6.12,0,0,1,4.06,0,3.61,3.61,0,0,1,2.25,2.44l-3.27,1a1.69,1.69,0,0,0-.8-1,2,2,0,0,0-1.55,0,2.09,2.09,0,0,0-1.17.76,1.24,1.24,0,0,0-.17,1.09,1.06,1.06,0,0,0,.78.72,5.56,5.56,0,0,0,1.91.06,14.59,14.59,0,0,1,2.22-.07q2.88.18,3.58,2.52a3.32,3.32,0,0,1-.62,3.14,6.54,6.54,0,0,1-3.41,2.15,7,7,0,0,1-2.89.27,4.87,4.87,0,0,1-2.33-1,3.71,3.71,0,0,1-1.3-1.86l3.1-.93a1.81,1.81,0,0,0,1,1.14,2.68,2.68,0,0,0,1.75,0,2.47,2.47,0,0,0,1.31-.79A1.13,1.13,0,0,0,266.1,115.06Z"/><path fill="#4792a3" d="M353.33,114.81l.46,3.32,2.31-.33.37,2.64-2.3.32.95,6.72a1.6,1.6,0,0,0,.43,1,1.43,1.43,0,0,0,1.14.17,5.48,5.48,0,0,0,1.05-.23l.38,2.72a7.08,7.08,0,0,1-2.13.63q-3.78.54-4.4-3.27l-1-7.26-2,.28-.37-2.64,2-.28-.47-3.31Z"/><path fill="#f4827c" d="M225.75,132.85a5.21,5.21,0,0,1-4.55,1,4.9,4.9,0,0,1-3.44-2.19,6.1,6.1,0,0,1-.46-4.4l2.08-10,4.07.85-2,9.86c-.33,1.59.22,2.53,1.67,2.83a3,3,0,0,0,3.15-.84l2.25-10.81,4.09.86-3.18,15.24-3.84-.8Z"/><path fill="#f4827c" d="M304.23,165l-1.4.89L302,169.5l-3.17-.71,3.8-16.9,3.18.72L303.71,162l.8-.65,3.85-2.89,3.81.86-5.41,4,3.11,8-3.66-.82Z"/><path fill="#ffa18a" d="M172.6,263a59.49,59.49,0,0,0,11.26-5.22c5.73-3.37,4.83-5.31,10.27-8.86,1.24-.81,13.49-4.92,18.47-4.63,4,.23,9,2,9.35,3.89.29,1.5-1.76,2.77-3.89,2.81-2.67.06-3.7-1.09-6.62-1.07-3.2,0-6.2,1.93-6.05,2.73.31,1.59,12.92-2.36,16,2,1.76,2.49.06,3.8.06,3.8,4.14,3.57-2.48,7.09-2.48,7.09a3.69,3.69,0,0,1-3.06,3.44c-.84,2.92-3.28,3.52-5.2,4.46-7.85,3.86-12-.45-22.52,3.6-7.49,2.89-12.92,5-12.92,5C170.38,280.26,168.07,268.37,172.6,263Z"/><polygon fill="#33210a" points="196.29 277.66 194.43 276.42 272.91 160.75 273.6 161.21 196.29 277.66"/><path fill="#ffa18a" d="M217.07,255.73c-.92-.83-7,.08-8.12,1.29-1.38,1.46,1.33,3.19,1.33,3.19-2-.58-4.47-.37-4.89.7s.48,2.14,2.4,3.6c0,0-4.4-.8-5,.08-1.47,2,2,3.89,5.3,5.14a8,8,0,0,0,5.59.33C218.67,268.08,220.16,258.52,217.07,255.73Z"/><path fill="#ff7a5a" d="M202.9,267.19a19.65,19.65,0,0,0,4.77,2.47c.43.16.86.29,1.3.41.06,0,.29.05.31.09a1.21,1.21,0,0,1-.08.25c-.07.23-.16.45-.23.67a1.8,1.8,0,0,0,.31,1.95c.18.16.46-.11.27-.28-.77-.67-.05-1.69.09-2.46a.42.42,0,0,0-.34-.53c-.44-.14-.88-.25-1.31-.39a19.57,19.57,0,0,1-4.9-2.51c-.2-.15-.4.19-.19.33Z"/><path fill="#ff7a5a" d="M205,264.44c2,.54,4,.78,6,1.27s3.65,1.22,4.54,3.13c.1.22.44,0,.33-.2a6,6,0,0,0-4.19-3.15c-2.16-.6-4.4-.83-6.57-1.42a.19.19,0,0,0-.1.37Z"/><path fill="#ff7a5a" d="M205.89,263.08a8.42,8.42,0,0,0,1.67,1.09l1.91,1.09a.19.19,0,0,0,.19-.33l-1.84-1.06a8.21,8.21,0,0,1-1.66-1.06c-.18-.17-.45.1-.27.27Z"/><path fill="#ff7a5a" d="M208.55,260.21a22,22,0,0,1,5.67,1.55c1.63.71,3.84,1.64,4.32,3.54.05.24.43.14.37-.1-.49-2-2.63-2.95-4.33-3.7a22.15,22.15,0,0,0-6-1.67c-.25,0-.25.35,0,.38Z"/><path fill="#ff7a5a" d="M209.07,259.38a9.91,9.91,0,0,0,1.73,1.3c.22.13.41-.21.2-.34a9.51,9.51,0,0,1-1.66-1.23c-.18-.17-.45.11-.27.27Z"/><path fill="#ff7a5a" d="M211.66,256.41a43.18,43.18,0,0,1,4.94.7A12.93,12.93,0,0,1,221,258.5c.21.14.4-.2.2-.33a13.09,13.09,0,0,0-4.54-1.43,43.06,43.06,0,0,0-5-.72c-.25,0-.25.37,0,.39Z"/><path fill="#ff7a5a" d="M200.88,253.65a19.84,19.84,0,0,1-10.22,14.5c-.22.12,0,.45.2.33a20.19,20.19,0,0,0,10.4-14.72c0-.25-.34-.35-.38-.11Z"/><path fill="#ff7a5a" d="M188.22,273.86a7.76,7.76,0,0,0,2.87,2,.2.2,0,0,0,.24-.13.2.2,0,0,0-.14-.24,7.32,7.32,0,0,1-2.69-1.91c-.17-.18-.44.09-.28.28Z"/><path fill="#241707" d="M183.6,335.89,118,334.34c-2.68,9.85-3,19.79-2.1,30.56h66.54C182.36,353.91,182.31,344.43,183.6,335.89Z"/><path fill="#33210a" d="M92.5,334.34c-3,10.87-2.64,20.38-1,30.56h69c.66-11.57,1.31-21.58,2.62-30.26Z"/><path fill="#ffa18a" d="M119.18,131.92c4.75,2,19.91,8.73,25.64,2.67l-.9-39-29.71,1.22s.23,2.9.27,7.18c.06,6.68-3.65,13.62-6.18,21.31C108,126.09,118.4,131.59,119.18,131.92Z"/><path fill="#ffa18a" d="M114.21,96.79s7-.34,9-6.69c0-.09,8.69-35,21-35.13,14.58-.14,20.81,4.32,22.33,18.58.64,6,3.55,8.39,6.42,11.33a1.88,1.88,0,0,1-1.7,3.09l-2.12-.07a.89.89,0,0,0-.92.82c-1.08,13.52-6.14,23.91-20.33,24.81C126.08,114.9,114.21,96.79,114.21,96.79Z"/><path fill="#33210a" d="M161.74,80.86a1.14,1.14,0,0,1-1.77.3,1.71,1.71,0,0,1-.29-2.11,1.14,1.14,0,0,1,1.77-.3A1.71,1.71,0,0,1,161.74,80.86Z"/><path fill="#fff" d="M166.77,97.33c-.08.3-.24.88-.33,1.17,0,.12-.11.36-.18.57s-.14.42-.14.42c-5.81.11-6.69-4.86-5.79-4.26A13,13,0,0,0,166.77,97.33Z"/><path fill="#f4e2ca" d="M104.81,45.49c5.88-8.27,16.1-12,29.18-10.51,0,0,14.32,2.4,19.73,2.5.13,0,.28.08.39,0,3.75-2.36,5.37-2.86,8.07-3.33,3-.52,12.53,2.07,13.94,5.47C183.39,57.14,163,62,163,62c-6.5,2.29-13.95.77-19.66-3.25a44.49,44.49,0,0,0-2.9,15.85c0,1.41-.06,3.39-.41,3.86-1.24,1.66-3.79-.56-4.07-1.09a4.47,4.47,0,0,0-.4-.71c-.06-.08-.32-.42-.12-.15l-.33-.44a2,2,0,0,0-2.66-.69,1.94,1.94,0,0,0-.7,2.66l.19.23a1.56,1.56,0,0,0,.05.83c0,.14.09.29.14.44s0,0,0,0a2.8,2.8,0,0,1,0,.5,6.14,6.14,0,0,0-2.5,3.67c-1.34,10.53-9.92,20.49-15.22,20.49-11.67,0-10.64-16.66-15.9-30.36C94.37,62.89,99,53.73,104.81,45.49Z"/><path fill="#ffa18a" d="M125.18,79.63c.59,3.34,2.54,5.79,5.87,5.23a6.06,6.06,0,0,0,5.08-6.47,5.87,5.87,0,0,0-5.85-5.79C124.8,72.85,124.6,76.42,125.18,79.63Z"/><path fill="#ff7a5a" d="M129.18,76.23a.34.34,0,0,1,.45-.19,4.85,4.85,0,0,1,2,1.9,5.74,5.74,0,0,1,.61,3c0,.45-.7.36-.69-.09a5.72,5.72,0,0,0-.33-2.09h0l-.14,0-.27,0-.07,0-.11,0-.22.1h0l0,0-.07,0-.13.11s0,0,0,0l-.05.07,0,.07,0,0-.06.13,0,.08v0l0,.16s0,.09,0,.13h0a.09.09,0,0,1,0,0V80l0,.16a.64.64,0,0,1,0,.07s0,0,0,0l.06.16a1,1,0,0,1,.08.14v0l0,.07.12.14.05,0,0,0a.36.36,0,0,1,.07.49.34.34,0,0,1-.49.07,2,2,0,0,1-.59-.82,1.85,1.85,0,0,1,.14-1.71,1.92,1.92,0,0,1,1.4-.79,4.12,4.12,0,0,0-1.52-1.38A.35.35,0,0,1,129.18,76.23Z" opacity=".5"/><path fill="#99d6d4" d="M152.2,144.83c.35-5.82-2.35-12.46-2.35-12.46-17.23-19.34-37.21-22.25-37.21-22.25-.72.47-4.9,2.73-5.46,5.72C104.66,129.28,152.2,144.83,152.2,144.83Z"/><path fill="#4792a3" d="M106.61,114.65c16.18-5.63,40,18.43,50.38,34.36,12.58,19.24,14.92,38.3,17.56,59.72.42,3.38.72,6.39.93,9.14,1.69,22.19,1.11,29.46,4,57.14,4,38.93,10.44,44.88,11.43,71.88,0,0-27.55,7-54.31,7.56a385.8,385.8,0,0,1-51.1-2.76c-1.35-25.94-.49-50.51.34-74.8,0,0,0-22.57.07-34.87C86,204,74,203.42,83.64,162.36c5-21.24,12.66-29.8,12.66-29.8C101.62,119.86,106.61,114.65,106.61,114.65Z"/><path fill="#f4e2ca" d="M164.3,71.7c.29-.93-.19-2.87-1.93-2.52a30.28,30.28,0,0,0-6.48,3c-6.82,4.24-5.4,7.18-2.72,5.15a31.48,31.48,0,0,1,6.71-3.67C161.75,72.88,164.11,72.33,164.3,71.7Z"/><path fill="#e8d1b5" d="M143.5,58.3c-2-2.63-3.84-5.61-4.23-8.95a9.13,9.13,0,0,1,2.81-8c.38-.32-.17-.87-.55-.55a9.74,9.74,0,0,0-3.06,8.34c.33,3.58,2.22,6.78,4.35,9.59.3.39,1,0,.68-.39Z"/><path fill="#e8d1b5" d="M173.31,37.09a10.75,10.75,0,0,0-10.63,1.61,11.76,11.76,0,0,0-4.21,9.9c0,.49.81.5.78,0a11,11,0,0,1,3.81-9.21,10,10,0,0,1,10-1.54c.47.18.67-.57.21-.76Z"/><path fill="#e8d1b5" d="M153.56,37.68A5.51,5.51,0,0,0,152,44.34c.21.46.88.06.67-.39a4.75,4.75,0,0,1,1.47-5.72c.39-.3-.16-.85-.55-.55Z"/><path fill="#e8d1b5" d="M114.85,102.82a18.61,18.61,0,0,1-3.86-20c.19-.46-.48-.86-.67-.4a19.42,19.42,0,0,0,4,21,.39.39,0,0,0,.55-.55Z"/><path fill="#e8d1b5" d="M118.19,91.6l-.63-14.27c0-.5-.8-.5-.77,0q.3,7.14.62,14.27c0,.51.8.51.78,0Z"/><path fill="#e8d1b5" d="M100.64,75.15a57.63,57.63,0,0,0,3.9-20.68.39.39,0,0,0-.77,0,57.1,57.1,0,0,1-3.88,20.47c-.17.47.58.67.75.21Z"/><path fill="#ff7a5a" d="M135.46,77.82a7.3,7.3,0,0,1-.56,3.06,3.89,3.89,0,0,1-1.8,2.25.4.4,0,0,0-.14.53.39.39,0,0,0,.54.14,4.55,4.55,0,0,0,2.08-2.53,8.18,8.18,0,0,0,.65-3.45c0-.5-.79-.5-.77,0Z" opacity=".5"/><path fill="#397582" d="M149.8,284.22a163.89,163.89,0,0,0,25.9-3.7c-.17-.12-.33-.25-.49-.38.27,2.81.6,5.61.81,8.42a2.14,2.14,0,0,1-.81,2.24,4.48,4.48,0,0,1-1.66.52c-1.44.28-2.9.55-4.35.81q-8.69,1.53-17.43,2.55c-.5.06-.5.84,0,.78q9.89-1.15,19.69-3c1.92-.35,5-.36,5.35-2.86a20.62,20.62,0,0,0-.33-4.36c-.16-1.71-.33-3.42-.5-5.14a.39.39,0,0,0-.49-.37,161.25,161.25,0,0,1-25.69,3.67c-.49,0-.5.81,0,.78Z"/><path fill="#f4e2ca" d="M165.89,100.14a21,21,0,0,1-16.39,14.32c-13.31,2.66-21.27-10.87-21-11.36s13.45,10.52,23,7.88C164,107.54,165.89,100.14,165.89,100.14Z"/><path fill="#397582" d="M106.61,115.62q7.89,5.05,15.9,9.94,4,2.44,8,4.83a22.62,22.62,0,0,1,3.37,2c1.93,1.69.61,2.28-1.28,3.74-.21.15-.3.53,0,.67,11.4,5.31,19,16,25.68,26.31,7,10.81,12.53,22.63,13.73,35.58,0,.49.82.5.77,0-1.3-14.07-7.6-26.76-15.4-38.34a102.26,102.26,0,0,0-12.36-15.68,44.89,44.89,0,0,0-7.32-6c-.83-.53-3.68-1.52-3.79-2.58,0-.14,2.24-2.31,2.46-2.58a.39.39,0,0,0-.07-.61Q121.49,124.22,107,115c-.43-.27-.82.4-.39.67Z"/><path fill="#99d6d4" d="M134.75,119.38c3.94,2.55,7.61,5.72,11.15,7.67,5.53,3,6.28,15.2,6.28,15.2-6.07-6.09-8.1-5.68-8.1-5.68a71.84,71.84,0,0,0-6.87,7c.38-3.72-2.34-6.18-3.77-12.46-1.33-5.86-.82-7.25-3.91-11.22-.54-.7,1.52-2.43,2.57-2.18Z"/><path fill="#ffa18a" d="M206.3,204.41c2.84-4.31,9.07-10.56,13.6-11.87,5.12-1.47,6.22-1,19.62-2.31,8.71-.88,13.19-3.3,13.94.21.27,1.25-3.11,3.27-4.56,4.22-3.21,2.12-6.12,2.28-6.08,2.54s6.46.73,14.09-1.36c9.68-2.66,12.6-8.75,15.28-6.46,2.34,2-3,11.18-11.92,15.43-12.1,5.75-24.33.36-31.53,3.27s-9.55,8.88-13.09,12.67Z"/><path fill="#4792a3" d="M222.44,221.83s-7.07-12.35-16-18.81a142,142,0,0,1-23.82,15.13c-3.29,2.08-18.24,7.44-19.67,7.42-2.91,0-4.35-3.76-5.55-5.88-.93-1.65-2.15-3.13-3.15-4.74-1.24-2-2.44-4-3.86-5.91a133,133,0,0,0-10-11.39c-3-3.15-5.92-6.3-9.77-8.42a25.72,25.72,0,0,0-19.65-2c-5.41,1.55-11.58,5-11.22,11.4a1.73,1.73,0,0,1-.23,1,75.58,75.58,0,0,0,6.41,16.8,108.61,108.61,0,0,0,34.32,38.93c7.42,5.08,15.95,10.31,25.22,10.12,6-.13,16.95-5.8,16.92-6.25C198,251.12,215.5,232.41,222.44,221.83Z"/><path fill="#397582" d="M85.61,179.91c7.31,22.72,20,43.11,35.18,61.4,7.51,9.07,15.58,19,26.6,23.88,10.64,4.72,20.61,2.36,30.31-3.27a.38.38,0,0,0-.39-.66c-5.29,3.06-11,5.81-17.28,5.89-6.41.09-12.61-2.24-17.92-5.73-9.4-6.17-16.79-15.59-23.74-24.3-13.76-17.23-25.23-36.33-32-57.41-.15-.47-.9-.27-.75.2Z"/><path fill="#397582" d="M104,153.78c9.11-1.74,15.8,5.86,21.3,11.93A180.34,180.34,0,0,1,139.78,184a173.77,173.77,0,0,1,20.39,39.82c.17.47.92.27.75-.21a175,175,0,0,0-23.17-43.8,174.21,174.21,0,0,0-15.56-18.53c-4.92-5.07-10.94-9.63-18.39-8.21-.49.09-.28.84.2.75Z"/><path fill="#397582" d="M175.2,220.9c-4.36,1.44-8.92,1.64-13.44,2.22a36.68,36.68,0,0,0-9.71,2.64A37.55,37.55,0,0,0,135.88,239c-.28.41.39.8.67.39A36.74,36.74,0,0,1,153.46,226c7.08-2.76,14.79-2,21.95-4.38.47-.15.27-.9-.21-.74Z"/><path fill="#397582" d="M160.19,222.87c-6.72-1.89-13.58.1-19.58,3.25-.44.23-.05.9.39.67,5.81-3,12.47-5,19-3.17a.39.39,0,0,0,.21-.75Z"/><path fill="#397582" d="M198.1,210.14c6.37,6.1,10.18,14.17,13.86,22,.21.45.88.06.67-.39-3.71-7.93-7.56-16-14-22.19-.36-.35-.91.2-.55.54Z"/><path fill="#ff7a5a" d="M229.64,207.42a11,11,0,0,1-6.49-8.41c0-.25-.41-.14-.38.11a11.44,11.44,0,0,0,6.68,8.64c.22.1.42-.24.19-.34Z"/><path fill="#ff7a5a" d="M250.84,201.61c2.45-.38,4.89-.75,7.32-1.2a17.15,17.15,0,0,0,6.06-2.14,24,24,0,0,0,4.55-3.81c1.28-1.33,2.93-2.76,3.57-4.53.08-.23-.29-.33-.38-.1-.64,1.81-2.5,3.38-3.83,4.72a20.92,20.92,0,0,1-4.7,3.74,18.88,18.88,0,0,1-5.93,1.85c-2.25.39-4.5.75-6.76,1.1-.25,0-.14.41.1.37Z"/><path fill="#ff7a5a" d="M251.4,205c4.17-.07,8.52-.35,12.2-2.52a.19.19,0,0,0-.19-.33c-3.62,2.13-7.9,2.39-12,2.47a.19.19,0,0,0,0,.38Z"/></g></svg>